<svg width="81" height="12" viewBox="0 0 81 12" fill="none" xmlns="http://www.w3.org/2000/svg">
<path d="M5.63024 0.533002C6.01342 -0.142373 6.98658 -0.142372 7.36976 0.533003L8.66518 2.81623C8.80762 3.0673 9.0516 3.24456 9.33439 3.30245L11.9062 3.8289C12.6669 3.98463 12.9676 4.91016 12.4437 5.48329L10.6725 7.42086C10.4778 7.63391 10.3846 7.92073 10.4169 8.20757L10.711 10.8162C10.7979 11.5878 10.0106 12.1598 9.30366 11.8386L6.9136 10.7529C6.65079 10.6335 6.34921 10.6335 6.0864 10.7529L3.69634 11.8386C2.98936 12.1598 2.20206 11.5878 2.28903 10.8162L2.58307 8.20757C2.6154 7.92073 2.52221 7.63391 2.32745 7.42086L0.556276 5.48329C0.0323651 4.91016 0.333091 3.98463 1.09382 3.8289L3.66561 3.30245C3.9484 3.24456 4.19238 3.0673 4.33482 2.81623L5.63024 0.533002Z" fill="#44E0B7"/>
<path d="M22.6302 0.533002C23.0134 -0.142373 23.9866 -0.142372 24.3698 0.533003L25.6652 2.81623C25.8076 3.0673 26.0516 3.24456 26.3344 3.30245L28.9062 3.8289C29.6669 3.98463 29.9676 4.91016 29.4437 5.48329L27.6725 7.42086C27.4778 7.63391 27.3846 7.92073 27.4169 8.20757L27.711 10.8162C27.7979 11.5878 27.0106 12.1598 26.3037 11.8386L23.9136 10.7529C23.6508 10.6335 23.3492 10.6335 23.0864 10.7529L20.6963 11.8386C19.9894 12.1598 19.2021 11.5878 19.289 10.8162L19.5831 8.20757C19.6154 7.92073 19.5222 7.63391 19.3275 7.42086L17.5563 5.48329C17.0324 4.91016 17.3331 3.98463 18.0938 3.8289L20.6656 3.30245C20.9484 3.24456 21.1924 3.0673 21.3348 2.81623L22.6302 0.533002Z" fill="#44E0B7"/>
<path d="M39.6302 0.533002C40.0134 -0.142373 40.9866 -0.142372 41.3698 0.533003L42.6652 2.81623C42.8076 3.0673 43.0516 3.24456 43.3344 3.30245L45.9062 3.8289C46.6669 3.98463 46.9676 4.91016 46.4437 5.48329L44.6725 7.42086C44.4778 7.63391 44.3846 7.92073 44.4169 8.20757L44.711 10.8162C44.7979 11.5878 44.0106 12.1598 43.3037 11.8386L40.9136 10.7529C40.6508 10.6335 40.3492 10.6335 40.0864 10.7529L37.6963 11.8386C36.9894 12.1598 36.2021 11.5878 36.289 10.8162L36.5831 8.20757C36.6154 7.92073 36.5222 7.63391 36.3275 7.42086L34.5563 5.48329C34.0324 4.91016 34.3331 3.98463 35.0938 3.8289L37.6656 3.30245C37.9484 3.24456 38.1924 3.0673 38.3348 2.81623L39.6302 0.533002Z" fill="#44E0B7"/>
<path d="M56.6302 0.533002C57.0134 -0.142373 57.9866 -0.142372 58.3698 0.533003L59.6652 2.81623C59.8076 3.0673 60.0516 3.24456 60.3344 3.30245L62.9062 3.8289C63.6669 3.98463 63.9676 4.91016 63.4437 5.48329L61.6725 7.42086C61.4778 7.63391 61.3846 7.92073 61.4169 8.20757L61.711 10.8162C61.7979 11.5878 61.0106 12.1598 60.3037 11.8386L57.9136 10.7529C57.6508 10.6335 57.3492 10.6335 57.0864 10.7529L54.6963 11.8386C53.9894 12.1598 53.2021 11.5878 53.289 10.8162L53.5831 8.20757C53.6154 7.92073 53.5222 7.63391 53.3275 7.42086L51.5563 5.48329C51.0324 4.91016 51.3331 3.98463 52.0938 3.8289L54.6656 3.30245C54.9484 3.24456 55.1924 3.0673 55.3348 2.81623L56.6302 0.533002Z" fill="#44E0B7"/>
<path d="M73.6302 0.533002C74.0134 -0.142373 74.9866 -0.142372 75.3698 0.533003L76.6652 2.81623C76.8076 3.0673 77.0516 3.24456 77.3344 3.30245L79.9062 3.8289C80.6669 3.98463 80.9676 4.91016 80.4437 5.48329L78.6725 7.42086C78.4778 7.63391 78.3846 7.92073 78.4169 8.20757L78.711 10.8162C78.7979 11.5878 78.0106 12.1598 77.3037 11.8386L74.9136 10.7529C74.6508 10.6335 74.3492 10.6335 74.0864 10.7529L71.6963 11.8386C70.9894 12.1598 70.2021 11.5878 70.289 10.8162L70.5831 8.20757C70.6154 7.92073 70.5222 7.63391 70.3275 7.42086L68.5563 5.48329C68.0324 4.91016 68.3331 3.98463 69.0938 3.8289L71.6656 3.30245C71.9484 3.24456 72.1924 3.0673 72.3348 2.81623L73.6302 0.533002Z" fill="#E3FCF4"/>
</svg>
