<svg width="219" height="34" viewBox="0 0 219 34" fill="none" xmlns="http://www.w3.org/2000/svg">
<path d="M15.191 2.27909C16.1339 0.617101 18.5287 0.617104 19.4717 2.2791L22.9833 8.46858C23.4051 9.21194 24.1275 9.73679 24.9648 9.90819L31.9365 11.3353C33.8085 11.7185 34.5486 13.9961 33.2593 15.4065L28.4579 20.659C27.8813 21.2898 27.6053 22.139 27.7011 22.9883L28.4982 30.0598C28.7122 31.9586 26.7748 33.3662 25.035 32.5759L18.5559 29.6326C17.7778 29.2791 16.8849 29.2791 16.1067 29.6326L9.62764 32.5759C7.88789 33.3662 5.95045 31.9586 6.16448 30.0598L6.96157 22.9883C7.0573 22.139 6.78137 21.2898 6.20473 20.659L1.40334 15.4065C0.114079 13.9961 0.854118 11.7185 2.72615 11.3353L9.69786 9.90819C10.5352 9.73679 11.2576 9.21194 11.6793 8.46858L15.191 2.27909Z" fill="#E3FCF4" stroke="#44E0B7" stroke-width="0.5"/>
<path d="M61.2752 2.27909C62.2182 0.617101 64.613 0.617104 65.5559 2.2791L69.0676 8.46858C69.4893 9.21194 70.2117 9.73679 71.049 9.90819L78.0207 11.3353C79.8928 11.7185 80.6328 13.9961 79.3435 15.4065L74.5422 20.659C73.9655 21.2898 73.6896 22.139 73.7853 22.9883L74.5824 30.0598C74.7964 31.9586 72.859 33.3662 71.1192 32.5759L64.6402 29.6326C63.862 29.2791 62.9691 29.2791 62.191 29.6326L55.7119 32.5759C53.9721 33.3662 52.0347 31.9586 52.2487 30.0598L53.0458 22.9883C53.1415 22.139 52.8656 21.2898 52.289 20.659L47.4876 15.4065C46.1983 13.9961 46.9383 11.7185 48.8104 11.3353L55.7821 9.90819C56.6194 9.73679 57.3418 9.21194 57.7635 8.46858L61.2752 2.27909Z" fill="#E3FCF4" stroke="#44E0B7" stroke-width="0.5"/>
<path d="M107.36 2.27909C108.303 0.617101 110.697 0.617104 111.64 2.2791L115.152 8.46858C115.574 9.21194 116.296 9.73679 117.133 9.90819L124.105 11.3353C125.977 11.7185 126.717 13.9961 125.428 15.4065L120.627 20.659C120.05 21.2898 119.774 22.139 119.87 22.9883L120.667 30.0598C120.881 31.9586 118.943 33.3662 117.204 32.5759L110.725 29.6326C109.946 29.2791 109.054 29.2791 108.275 29.6326L101.796 32.5759C100.057 33.3662 98.1191 31.9586 98.3332 30.0598L99.1303 22.9883C99.226 22.139 98.9501 21.2898 98.3734 20.659L93.572 15.4065C92.2828 13.9961 93.0228 11.7185 94.8949 11.3353L101.867 9.90819C102.704 9.73679 103.426 9.21194 103.848 8.46858L107.36 2.27909Z" fill="#E3FCF4" stroke="#44E0B7" stroke-width="0.5"/>
<path d="M153.444 2.27909C154.387 0.617101 156.782 0.617104 157.725 2.2791L161.236 8.46858C161.658 9.21194 162.381 9.73679 163.218 9.90819L170.19 11.3353C172.062 11.7185 172.802 13.9961 171.512 15.4065L166.711 20.659C166.134 21.2898 165.858 22.139 165.954 22.9883L166.751 30.0598C166.965 31.9586 165.028 33.3662 163.288 32.5759L156.809 29.6326C156.031 29.2791 155.138 29.2791 154.36 29.6326L147.881 32.5759C146.141 33.3662 144.203 31.9586 144.418 30.0598L145.215 22.9883C145.31 22.139 145.034 21.2898 144.458 20.659L139.656 15.4065C138.367 13.9961 139.107 11.7185 140.979 11.3353L147.951 9.90819C148.788 9.73679 149.511 9.21194 149.932 8.46858L153.444 2.27909Z" fill="#E3FCF4" stroke="#44E0B7" stroke-width="0.5"/>
<path d="M199.528 2.27909C200.471 0.617101 202.866 0.617104 203.809 2.2791L207.321 8.46858C207.742 9.21194 208.465 9.73679 209.302 9.90819L216.274 11.3353C218.146 11.7185 218.886 13.9961 217.597 15.4065L212.795 20.659C212.219 21.2898 211.943 22.139 212.038 22.9883L212.835 30.0598C213.049 31.9586 211.112 33.3662 209.372 32.5759L202.893 29.6326C202.115 29.2791 201.222 29.2791 200.444 29.6326L193.965 32.5759C192.225 33.3662 190.288 31.9586 190.502 30.0598L191.299 22.9883C191.395 22.139 191.119 21.2898 190.542 20.659L185.741 15.4065C184.451 13.9961 185.191 11.7185 187.063 11.3353L194.035 9.90819C194.872 9.73679 195.595 9.21194 196.017 8.46858L199.528 2.27909Z" fill="#E3FCF4" stroke="#44E0B7" stroke-width="0.5"/>
</svg>
