<svg width="19" height="19" viewBox="0 0 19 19" fill="none" xmlns="http://www.w3.org/2000/svg">
<path fill-rule="evenodd" clip-rule="evenodd" d="M8.51758 14.5H3.51758V13.5H8.51758V14.5Z" fill="#5132A2"/>
<path d="M10.5887 10.5H3.51758V11.5H9.58868L10.5887 10.5Z" fill="#5132A2"/>
<path d="M13.5176 7.57111V7.5H3.51758V8.5H12.5887L13.5176 7.57111Z" fill="#5132A2"/>
<path fill-rule="evenodd" clip-rule="evenodd" d="M12.5176 0.5L16.5176 4.5V4.9737C16.1772 5.05848 15.8548 5.23392 15.5887 5.50003L15.5176 5.57111V5H13.0176C12.4653 5 12.0176 4.55228 12.0176 4V1.5H1.51758V17.5H15.5176V12.6422L16.5176 11.6422V17.5C16.5176 18.0523 16.0699 18.5 15.5176 18.5H1.51758C0.965293 18.5 0.517578 18.0523 0.517578 17.5V1.5C0.517578 0.947716 0.965293 0.5 1.51758 0.5H12.5176ZM13.0176 2.41421L14.6034 4H13.0176V2.41421Z" fill="#5132A2"/>
<path fill-rule="evenodd" clip-rule="evenodd" d="M15.9422 6.56066C16.528 5.97488 17.4777 5.97488 18.0635 6.56066C18.6493 7.14645 18.6493 8.0962 18.0635 8.68198L12.0531 14.6924L9.57825 15.0459L9.9318 12.5711L15.9422 6.56066ZM11.5817 13.7496L10.7568 13.8674L10.8746 13.0425L15.5887 8.3284L16.2958 9.03551L11.5817 13.7496ZM17.0029 8.3284L16.2958 7.62129L16.6493 7.26777C16.8446 7.07251 17.1612 7.07251 17.3564 7.26777C17.5517 7.46303 17.5517 7.77961 17.3564 7.97488L17.0029 8.3284Z" fill="#5132A2"/>
</svg>
