<svg width="19" height="19" viewBox="0 0 19 19" fill="none" xmlns="http://www.w3.org/2000/svg">
<path fill-rule="evenodd" clip-rule="evenodd" d="M9.51758 17.5C13.9359 17.5 17.5176 13.9183 17.5176 9.5C17.5176 5.08172 13.9359 1.5 9.51758 1.5C5.0993 1.5 1.51758 5.08172 1.51758 9.5C1.51758 13.9183 5.0993 17.5 9.51758 17.5ZM9.51758 18.5C14.4881 18.5 18.5176 14.4706 18.5176 9.5C18.5176 4.52944 14.4881 0.5 9.51758 0.5C4.54702 0.5 0.517578 4.52944 0.517578 9.5C0.517578 14.4706 4.54702 18.5 9.51758 18.5Z" fill="#5132A2"/>
<path d="M9.51758 4.5C8.68969 4.5 7.98381 4.79064 7.39993 5.37192C6.8117 5.95753 6.51758 6.66027 6.51758 7.48014V8.00068H7.56333V7.48014C7.56333 6.94658 7.75505 6.48893 8.13849 6.10719C8.51758 5.72979 8.97727 5.5411 9.51758 5.5411C10.0579 5.5411 10.5176 5.72979 10.8967 6.10719C11.2801 6.48893 11.4718 6.94658 11.4718 7.48014C11.4718 7.84452 11.376 8.18288 11.1842 8.49521C10.9969 8.8032 10.742 9.04178 10.4195 9.21096C9.90973 9.4669 9.50451 9.83345 9.20385 10.3106C8.90756 10.7878 8.75941 11.3127 8.75941 11.8853V11.9438H9.80516V11.8853C9.80516 11.5122 9.9032 11.1695 10.0993 10.8572C10.2954 10.5449 10.5612 10.3041 10.8967 10.1349C11.3978 9.879 11.7921 9.51244 12.0797 9.03527C12.3716 8.5581 12.5176 8.03973 12.5176 7.48014C12.5176 6.66027 12.2235 5.95753 11.6352 5.37192C11.0513 4.79064 10.3455 4.5 9.51758 4.5ZM9.36725 12.614C9.56333 12.614 9.72673 12.6813 9.85745 12.8158C9.99252 12.9502 10.0601 13.1129 10.0601 13.3038C10.0601 13.4946 9.99252 13.6595 9.85745 13.7983C9.72673 13.9328 9.56333 14 9.36725 14C9.17553 14 9.00995 13.9328 8.87052 13.7983C8.73544 13.6595 8.6679 13.4946 8.6679 13.3038C8.6679 13.1129 8.73544 12.9502 8.87052 12.8158C9.00995 12.6813 9.17553 12.614 9.36725 12.614Z" fill="#5132A2"/>
</svg>
