<svg width="21" height="17" viewBox="0 0 21 17" fill="none" xmlns="http://www.w3.org/2000/svg">
<path d="M11.642 8.40387C11.9238 8.4668 12.2168 8.5 12.5176 8.5C14.7267 8.5 16.5176 6.70914 16.5176 4.5C16.5176 2.29086 14.7267 0.5 12.5176 0.5C12.2168 0.5 11.9238 0.5332 11.642 0.596135C11.9704 0.859362 12.265 1.16319 12.518 1.5C14.1747 1.5002 15.5176 2.84327 15.5176 4.5C15.5176 6.15673 14.1747 7.4998 12.518 7.5C12.265 7.83681 11.9704 8.14064 11.642 8.40387Z" fill="#5230A2"/>
<path d="M15.5803 9.7489C16.8629 9.95506 17.9618 10.2581 18.7949 10.5351C19.8732 10.8937 20.5176 11.9321 20.5176 13.0684V15.5C20.5176 16.0523 20.0699 16.5 19.5176 16.5H17.5176V15.5H19.5176V13.0684C19.5176 12.2959 19.0889 11.6867 18.4794 11.484C18.104 11.3592 17.6724 11.229 17.1928 11.1058C16.8936 10.5267 16.3944 10.049 15.7241 9.80134C15.6774 9.7841 15.6295 9.76661 15.5803 9.7489Z" fill="#5230A2"/>
<path fill-rule="evenodd" clip-rule="evenodd" d="M8.51758 7.5C10.1744 7.5 11.5176 6.15685 11.5176 4.5C11.5176 2.84315 10.1744 1.5 8.51758 1.5C6.86072 1.5 5.51758 2.84315 5.51758 4.5C5.51758 6.15685 6.86072 7.5 8.51758 7.5ZM12.5176 4.5C12.5176 6.70914 10.7267 8.5 8.51758 8.5C6.30844 8.5 4.51758 6.70914 4.51758 4.5C4.51758 2.29086 6.30844 0.5 8.51758 0.5C10.7267 0.5 12.5176 2.29086 12.5176 4.5Z" fill="#5230A2"/>
<path fill-rule="evenodd" clip-rule="evenodd" d="M15.5176 15.5V13.0684C15.5176 12.2959 15.0889 11.6867 14.4794 11.484C13.1077 11.0279 10.9841 10.5 8.51758 10.5C6.05105 10.5 3.92743 11.0279 2.55578 11.484C1.94629 11.6867 1.51758 12.2959 1.51758 13.0684V15.5L15.5176 15.5ZM2.24023 10.5351C1.16197 10.8937 0.517578 11.9321 0.517578 13.0684V15.5C0.517578 16.0523 0.965293 16.5 1.51758 16.5H15.5176C16.0699 16.5 16.5176 16.0523 16.5176 15.5V13.0684C16.5176 11.9321 15.8732 10.8937 14.7949 10.5351C13.355 10.0563 11.1217 9.5 8.51758 9.5C5.91341 9.5 3.68011 10.0563 2.24023 10.5351Z" fill="#5230A2"/>
</svg>
