<svg width="19" height="16" viewBox="0 0 19 16" fill="none" xmlns="http://www.w3.org/2000/svg">
<path fill-rule="evenodd" clip-rule="evenodd" d="M9.88492 6.49898L10.2863 3.28764C10.3829 2.51485 10.1051 1.74692 9.54691 1.21565L9.19986 2.3725C8.67678 4.11611 7.72915 5.70264 6.44195 6.98984L5.51758 7.91421V14.5H15.6978L17.0585 7.69882C17.1824 7.07981 16.7094 6.5028 16.0787 6.50256C14.2995 6.50188 12.0289 6.5009 11.0167 6.5L9.88492 6.49898ZM4.51758 7.5L5.73484 6.28274C6.90502 5.11255 7.7665 3.67025 8.24203 2.08515L8.65121 0.721232C8.82646 0.137058 9.53694 -0.0845108 10.0132 0.296487C10.9479 1.04426 11.4271 2.2239 11.2786 3.41168L11.0176 5.5C11.2794 5.50023 11.6253 5.50047 12.0253 5.50071C13.1712 5.50139 14.7601 5.50206 16.0791 5.50256C17.341 5.50304 18.2867 6.65764 18.0391 7.89501L16.6784 14.6962C16.5849 15.1636 16.1745 15.5 15.6978 15.5H5.51758C4.96529 15.5 4.51758 15.0523 4.51758 14.5V7.5Z" fill="#5132A2"/>
<path fill-rule="evenodd" clip-rule="evenodd" d="M2.51758 8.5H1.51758L1.51758 14.5H2.51758V8.5ZM1.51758 7.5C0.965293 7.5 0.517578 7.94772 0.517578 8.5V14.5C0.517578 15.0523 0.965293 15.5 1.51758 15.5H2.51758C3.06986 15.5 3.51758 15.0523 3.51758 14.5V8.5C3.51758 7.94772 3.06986 7.5 2.51758 7.5H1.51758Z" fill="#5132A2"/>
</svg>
