<svg width="19" height="19" viewBox="0 0 19 19" fill="none" xmlns="http://www.w3.org/2000/svg">
<path fill-rule="evenodd" clip-rule="evenodd" d="M9.01758 5.5C9.01758 6.60457 8.12215 7.5 7.01758 7.5C5.91301 7.5 5.01758 6.60457 5.01758 5.5C5.01758 4.39543 5.91301 3.5 7.01758 3.5C8.12215 3.5 9.01758 4.39543 9.01758 5.5ZM7.01758 6.5C7.56986 6.5 8.01758 6.05229 8.01758 5.5C8.01758 4.94772 7.56986 4.5 7.01758 4.5C6.46529 4.5 6.01758 4.94772 6.01758 5.5C6.01758 6.05229 6.46529 6.5 7.01758 6.5Z" fill="#5230A2"/>
<path fill-rule="evenodd" clip-rule="evenodd" d="M13.5176 7C13.5176 8.61494 12.9286 10.0923 11.9538 11.2291L12.9355 12.2107C13.4561 11.9757 14.0898 12.0722 14.5176 12.5L18.0176 16C18.5699 16.5523 18.5699 17.4477 18.0176 18C17.4653 18.5523 16.5699 18.5523 16.0176 18L12.5176 14.5C12.0898 14.0722 11.9934 13.4384 12.2283 12.9178L11.2467 11.9362C10.1099 12.911 8.63254 13.5 7.01758 13.5C3.42773 13.5 0.517578 10.5899 0.517578 7C0.517578 3.41015 3.42773 0.5 7.01758 0.5C10.6074 0.5 13.5176 3.41015 13.5176 7ZM10.9467 10.8487C11.9184 9.85672 12.5176 8.49833 12.5176 7C12.5176 3.96243 10.0551 1.5 7.01758 1.5C3.98001 1.5 1.51758 3.96243 1.51758 7C1.51758 8.49833 2.11672 9.85672 3.08848 10.8487C3.38594 9.50498 4.5844 8.5 6.01758 8.5H8.01758C9.45076 8.5 10.6492 9.50498 10.9467 10.8487ZM10.0176 11.6105V11.5C10.0176 10.3954 9.12215 9.5 8.01758 9.5H6.01758C4.91301 9.5 4.01758 10.3954 4.01758 11.5V11.6105C4.88036 12.1731 5.91079 12.5 7.01758 12.5C8.12437 12.5 9.1548 12.1731 10.0176 11.6105ZM13.8105 13.2071L17.3105 16.7071C17.4722 16.8689 17.4722 17.1311 17.3105 17.2929C17.1487 17.4547 16.8865 17.4547 16.7247 17.2929L13.2247 13.7929C13.0629 13.6311 13.0629 13.3688 13.2247 13.2071C13.3865 13.0453 13.6487 13.0453 13.8105 13.2071Z" fill="#5230A2"/>
</svg>
