<svg width="19" height="19" viewBox="0 0 19 19" fill="none" xmlns="http://www.w3.org/2000/svg">
<path fill-rule="evenodd" clip-rule="evenodd" d="M15.5176 7.5H3.51758V10.5H15.5176V7.5ZM3.51758 6.5C2.96529 6.5 2.51758 6.94772 2.51758 7.5V10.5C2.51758 11.0523 2.96529 11.5 3.51758 11.5H15.5176C16.0699 11.5 16.5176 11.0523 16.5176 10.5V7.5C16.5176 6.94772 16.0699 6.5 15.5176 6.5H3.51758Z" fill="#200A52"/>
<path fill-rule="evenodd" clip-rule="evenodd" d="M0.517578 1.5C0.517578 0.947716 0.965293 0.5 1.51758 0.5H17.5176C18.0699 0.5 18.5176 0.947715 18.5176 1.5V17.5C18.5176 18.0523 18.0699 18.5 17.5176 18.5H1.51758C0.965294 18.5 0.517578 18.0523 0.517578 17.5V1.5ZM1.51758 1.5H17.5176V4.5H1.51758V1.5ZM17.5176 5.5V17.5H1.51758V5.5H17.5176Z" fill="#200A52"/>
<path fill-rule="evenodd" clip-rule="evenodd" d="M7.51758 13.5H3.51758L3.51758 15.5H7.51758V13.5ZM3.51758 12.5C2.96529 12.5 2.51758 12.9477 2.51758 13.5V15.5C2.51758 16.0523 2.96529 16.5 3.51758 16.5H7.51758C8.06986 16.5 8.51758 16.0523 8.51758 15.5V13.5C8.51758 12.9477 8.06986 12.5 7.51758 12.5H3.51758Z" fill="#200A52"/>
<path fill-rule="evenodd" clip-rule="evenodd" d="M16.5176 14H9.51758V13H16.5176V14Z" fill="#200A52"/>
<path fill-rule="evenodd" clip-rule="evenodd" d="M16.5176 16H9.51758V15H16.5176V16Z" fill="#200A52"/>
<path fill-rule="evenodd" clip-rule="evenodd" d="M3.01758 3.5C3.29372 3.5 3.51758 3.27614 3.51758 3C3.51758 2.72386 3.29372 2.5 3.01758 2.5C2.74144 2.5 2.51758 2.72386 2.51758 3C2.51758 3.27614 2.74144 3.5 3.01758 3.5Z" fill="#200A52"/>
<path fill-rule="evenodd" clip-rule="evenodd" d="M5.01758 3.5C5.29372 3.5 5.51758 3.27614 5.51758 3C5.51758 2.72386 5.29372 2.5 5.01758 2.5C4.74144 2.5 4.51758 2.72386 4.51758 3C4.51758 3.27614 4.74144 3.5 5.01758 3.5Z" fill="#200A52"/>
<path fill-rule="evenodd" clip-rule="evenodd" d="M7.01758 3.5C7.29372 3.5 7.51758 3.27614 7.51758 3C7.51758 2.72386 7.29372 2.5 7.01758 2.5C6.74144 2.5 6.51758 2.72386 6.51758 3C6.51758 3.27614 6.74144 3.5 7.01758 3.5Z" fill="#200A52"/>
</svg>
