<svg width="12" height="14" viewBox="0 0 12 14" fill="none" xmlns="http://www.w3.org/2000/svg">
<path d="M6.00001 0C4.54186 0.00177305 3.14394 0.581805 2.11288 1.61287C1.08181 2.64394 0.501779 4.04185 0.500006 5.5C0.498284 6.69163 0.887576 7.85092 1.60816 8.8C1.60816 8.8 1.75816 8.99725 1.78226 9.02585L6.00001 14L10.2195 9.0237C10.2417 8.99705 10.3919 8.7998 10.3919 8.7998L10.3926 8.7986C11.1128 7.84987 11.5018 6.69109 11.5 5.5C11.4982 4.04185 10.9182 2.64394 9.88713 1.61287C8.85607 0.581805 7.45815 0.00177305 6.00001 0Z" fill="#65676A"/>
<path d="M6 7C7.10457 7 8 6.10457 8 5C8 3.89543 7.10457 3 6 3C4.89543 3 4 3.89543 4 5C4 6.10457 4.89543 7 6 7Z" fill="white"/>
</svg>
