<svg width="462" height="335" viewBox="0 0 462 335" fill="none" xmlns="http://www.w3.org/2000/svg">
<g filter="url(#filter0_d)">
<rect x="47" y="7" width="368" height="241" rx="16" fill="#200A52"/>
</g>
<path d="M98.6321 87.4626C95.9231 87.4626 93.6154 86.5781 91.709 84.8091C89.903 82.9417 89 80.6813 89 78.0277C89 76.4553 89.301 74.9319 89.903 73.4577C90.6054 71.9835 91.6589 70.2145 93.0635 68.1506L102.545 54.7354L108.565 58.5683L101.191 69.6248C102.997 69.9196 104.602 70.8533 106.007 72.4258C107.411 73.9 108.114 75.7673 108.114 78.0277C108.114 80.6813 107.161 82.9417 105.254 84.8091C103.448 86.5781 101.241 87.4626 98.6321 87.4626ZM124.067 87.4626C121.358 87.4626 119.05 86.5781 117.144 84.8091C115.338 82.9417 114.435 80.6813 114.435 78.0277C114.435 76.4553 114.736 74.9319 115.338 73.4577C116.04 71.9835 117.094 70.2145 118.498 68.1506L127.98 54.7354L134 58.5683L126.625 69.6248C128.431 69.9196 130.037 70.8533 131.441 72.4258C132.846 73.9 133.549 75.7673 133.549 78.0277C133.549 80.6813 132.595 82.9417 130.689 84.8091C128.883 86.5781 126.676 87.4626 124.067 87.4626Z" fill="#44E0B7"/>
<path d="M153.63 77.533C154.013 76.8576 154.987 76.8576 155.37 77.533L156.665 79.8162C156.808 80.0673 157.052 80.2446 157.334 80.3024L159.906 80.8289C160.667 80.9846 160.968 81.9102 160.444 82.4833L158.673 84.4209C158.478 84.6339 158.385 84.9207 158.417 85.2076L158.711 87.8162C158.798 88.5878 158.011 89.1598 157.304 88.8386L154.914 87.7529C154.651 87.6335 154.349 87.6335 154.086 87.7529L151.696 88.8386C150.989 89.1598 150.202 88.5878 150.289 87.8162L150.583 85.2076C150.615 84.9207 150.522 84.6339 150.327 84.4209L148.556 82.4833C148.032 81.9102 148.333 80.9846 149.094 80.8289L151.666 80.3024C151.948 80.2446 152.192 80.0673 152.335 79.8162L153.63 77.533Z" fill="white"/>
<path d="M170.63 77.533C171.013 76.8576 171.987 76.8576 172.37 77.533L173.665 79.8162C173.808 80.0673 174.052 80.2446 174.334 80.3024L176.906 80.8289C177.667 80.9846 177.968 81.9102 177.444 82.4833L175.673 84.4209C175.478 84.6339 175.385 84.9207 175.417 85.2076L175.711 87.8162C175.798 88.5878 175.011 89.1598 174.304 88.8386L171.914 87.7529C171.651 87.6335 171.349 87.6335 171.086 87.7529L168.696 88.8386C167.989 89.1598 167.202 88.5878 167.289 87.8162L167.583 85.2076C167.615 84.9207 167.522 84.6339 167.327 84.4209L165.556 82.4833C165.032 81.9102 165.333 80.9846 166.094 80.8289L168.666 80.3024C168.948 80.2446 169.192 80.0673 169.335 79.8162L170.63 77.533Z" fill="white"/>
<path d="M187.63 77.533C188.013 76.8576 188.987 76.8576 189.37 77.533L190.665 79.8162C190.808 80.0673 191.052 80.2446 191.334 80.3024L193.906 80.8289C194.667 80.9846 194.968 81.9102 194.444 82.4833L192.673 84.4209C192.478 84.6339 192.385 84.9207 192.417 85.2076L192.711 87.8162C192.798 88.5878 192.011 89.1598 191.304 88.8386L188.914 87.7529C188.651 87.6335 188.349 87.6335 188.086 87.7529L185.696 88.8386C184.989 89.1598 184.202 88.5878 184.289 87.8162L184.583 85.2076C184.615 84.9207 184.522 84.6339 184.327 84.4209L182.556 82.4833C182.032 81.9102 182.333 80.9846 183.094 80.8289L185.666 80.3024C185.948 80.2446 186.192 80.0673 186.335 79.8162L187.63 77.533Z" fill="white"/>
<path d="M204.63 77.533C205.013 76.8576 205.987 76.8576 206.37 77.533L207.665 79.8162C207.808 80.0673 208.052 80.2446 208.334 80.3024L210.906 80.8289C211.667 80.9846 211.968 81.9102 211.444 82.4833L209.673 84.4209C209.478 84.6339 209.385 84.9207 209.417 85.2076L209.711 87.8162C209.798 88.5878 209.011 89.1598 208.304 88.8386L205.914 87.7529C205.651 87.6335 205.349 87.6335 205.086 87.7529L202.696 88.8386C201.989 89.1598 201.202 88.5878 201.289 87.8162L201.583 85.2076C201.615 84.9207 201.522 84.6339 201.327 84.4209L199.556 82.4833C199.032 81.9102 199.333 80.9846 200.094 80.8289L202.666 80.3024C202.948 80.2446 203.192 80.0673 203.335 79.8162L204.63 77.533Z" fill="white"/>
<path d="M221.63 77.533C222.013 76.8576 222.987 76.8576 223.37 77.533L224.665 79.8162C224.808 80.0673 225.052 80.2446 225.334 80.3024L227.906 80.8289C228.667 80.9846 228.968 81.9102 228.444 82.4833L226.673 84.4209C226.478 84.6339 226.385 84.9207 226.417 85.2076L226.711 87.8162C226.798 88.5878 226.011 89.1598 225.304 88.8386L222.914 87.7529C222.651 87.6335 222.349 87.6335 222.086 87.7529L219.696 88.8386C218.989 89.1598 218.202 88.5878 218.289 87.8162L218.583 85.2076C218.615 84.9207 218.522 84.6339 218.327 84.4209L216.556 82.4833C216.032 81.9102 216.333 80.9846 217.094 80.8289L219.666 80.3024C219.948 80.2446 220.192 80.0673 220.335 79.8162L221.63 77.533Z" fill="white"/>
<rect x="88" y="120" width="248" height="25" fill="url(#paint0_linear)"/>
<rect x="296" y="58" width="86" height="33" fill="url(#paint1_linear)"/>
<rect x="147" y="48" width="86" height="21" fill="url(#paint2_linear)"/>
<rect x="88" y="154" width="287" height="25" fill="url(#paint3_linear)"/>
<rect x="88" y="188" width="229" height="25" fill="url(#paint4_linear)"/>
<defs>
<filter id="filter0_d" x="0" y="0" width="462" height="335" filterUnits="userSpaceOnUse" color-interpolation-filters="sRGB">
<feFlood flood-opacity="0" result="BackgroundImageFix"/>
<feColorMatrix in="SourceAlpha" type="matrix" values="0 0 0 0 0 0 0 0 0 0 0 0 0 0 0 0 0 0 127 0"/>
<feMorphology radius="29" operator="erode" in="SourceAlpha" result="effect1_dropShadow"/>
<feOffset dy="40"/>
<feGaussianBlur stdDeviation="38"/>
<feColorMatrix type="matrix" values="0 0 0 0 0 0 0 0 0 0 0 0 0 0 0 0 0 0 0.07 0"/>
<feBlend mode="normal" in2="BackgroundImageFix" result="effect1_dropShadow"/>
<feBlend mode="normal" in="SourceGraphic" in2="effect1_dropShadow" result="shape"/>
</filter>
<linearGradient id="paint0_linear" x1="88" y1="120" x2="336" y2="145" gradientUnits="userSpaceOnUse">
<stop stop-color="#41218C"/>
<stop offset="1" stop-color="#2C0F6B"/>
</linearGradient>
<linearGradient id="paint1_linear" x1="296" y1="58" x2="379.886" y2="63.3341" gradientUnits="userSpaceOnUse">
<stop stop-color="#41218C"/>
<stop offset="1" stop-color="#2C0F6B"/>
</linearGradient>
<linearGradient id="paint2_linear" x1="147" y1="48" x2="233.724" y2="51.6091" gradientUnits="userSpaceOnUse">
<stop stop-color="#41218C"/>
<stop offset="1" stop-color="#2C0F6B"/>
</linearGradient>
<linearGradient id="paint3_linear" x1="88" y1="154" x2="374.024" y2="187.367" gradientUnits="userSpaceOnUse">
<stop stop-color="#41218C"/>
<stop offset="1" stop-color="#2C0F6B"/>
</linearGradient>
<linearGradient id="paint4_linear" x1="88" y1="188" x2="317.34" y2="209.348" gradientUnits="userSpaceOnUse">
<stop stop-color="#41218C"/>
<stop offset="1" stop-color="#2C0F6B"/>
</linearGradient>
</defs>
</svg>
