<svg width="18" height="18" viewBox="0 0 18 18" fill="none" xmlns="http://www.w3.org/2000/svg">
<path fill-rule="evenodd" clip-rule="evenodd" d="M11.4362 10.7291C12.411 9.59236 13 8.11496 13 6.5C13 2.91015 10.0899 0 6.5 0C2.91015 0 0 2.91015 0 6.5C0 10.0899 2.91015 13 6.5 13C8.11494 13 9.59232 12.4111 10.7291 11.4362L11.7108 12.4179C11.4758 12.9385 11.5722 13.5722 12 14L15.5 17.5001C16.0523 18.0524 16.9477 18.0524 17.5 17.5001C18.0523 16.9478 18.0523 16.0524 17.5 15.5001L14 12C13.5722 11.5722 12.9385 11.4758 12.4179 11.7108L11.4362 10.7291ZM12 6.5C12 9.53757 9.53757 12 6.5 12C3.46243 12 1 9.53757 1 6.5C1 3.46243 3.46243 1 6.5 1C9.53757 1 12 3.46243 12 6.5ZM16.7929 16.2072L13.2929 12.7072C13.1312 12.5454 12.8689 12.5454 12.7071 12.7071C12.5454 12.8689 12.5454 13.1312 12.7071 13.2929L16.2071 16.793C16.3689 16.9547 16.6311 16.9547 16.7929 16.793C16.9547 16.6312 16.9547 16.3689 16.7929 16.2072Z" fill="#5230A2"/>
</svg>
