<svg width="222" height="145" viewBox="0 0 222 145" fill="none" xmlns="http://www.w3.org/2000/svg">
<path fill-rule="evenodd" clip-rule="evenodd" d="M86.8648 22.749H20.003C14.9884 22.749 10.8855 26.8682 10.8855 31.9026C10.8855 36.9371 14.9884 41.0563 20.003 41.0563H24.5633C27.9049 41.0563 30.6401 43.8024 30.6401 47.1587C30.6401 50.515 27.9049 53.2611 24.5618 53.2611H6.32676C2.98367 53.2611 0.248413 56.0072 0.248413 59.3635C0.248413 62.7198 2.98367 65.4659 6.32676 65.4659H67.1102C70.4533 65.4659 73.1885 62.7198 73.1885 59.3635C73.1885 56.0072 70.4533 53.2611 67.1102 53.2611H57.9911C54.6496 53.2611 51.9143 50.515 51.9143 47.1587C51.9143 43.8024 54.6496 41.0563 57.9911 41.0563H86.8648C91.8794 41.0563 95.9823 36.9371 95.9823 31.9026C95.9823 26.8682 91.8794 22.749 86.8648 22.749Z" fill="#F3EFF9"/>
<path fill-rule="evenodd" clip-rule="evenodd" d="M169.536 128.446H148.262C144.919 128.446 142.184 125.7 142.184 122.343C142.184 118.987 144.919 116.241 148.261 116.241H149.782C153.125 116.241 155.86 113.495 155.86 110.139C155.86 106.782 153.125 104.036 149.782 104.036H125.468C122.125 104.036 119.39 106.782 119.39 110.139C119.39 113.495 122.125 116.241 125.468 116.241H126.989C130.331 116.241 133.066 118.987 133.066 122.343C133.066 125.7 130.331 128.446 126.988 128.446H120.908H120.91H117.87C114.527 128.446 111.792 131.192 111.792 134.548C111.792 137.905 114.527 140.651 117.87 140.651H169.536C172.879 140.651 175.615 137.905 175.615 134.548C175.615 131.192 172.879 128.446 169.536 128.446Z" fill="#F3EFF9"/>
<path fill-rule="evenodd" clip-rule="evenodd" d="M168.246 54.9563C167.522 52.8927 166.225 51.0287 164.44 49.616L134.751 26.0984C131.579 23.5838 127.339 22.8721 123.519 24.2129L27.9072 57.7696C21.7589 59.9274 18.5239 66.6611 20.6817 72.8094L41.891 133.24C44.0489 139.389 50.7826 142.624 56.9309 140.466L152.543 106.909C156.363 105.568 159.228 102.363 160.133 98.4175L168.612 61.5042C169.123 59.2858 168.971 57.0199 168.246 54.9563Z" fill="#E1E5EF"/>
<path d="M29.5113 91.9522C29.147 90.9142 28.0103 90.3681 26.9723 90.7324C25.9343 91.0967 25.3881 92.2335 25.7524 93.2715L29.5113 91.9522ZM29.4072 103.685C29.7715 104.723 30.9083 105.269 31.9463 104.905C32.9843 104.54 33.5304 103.404 33.1661 102.366L29.4072 103.685ZM36.3543 111.45C35.99 110.412 34.8532 109.866 33.8153 110.23C32.7773 110.594 32.2311 111.731 32.5954 112.769L36.3543 111.45ZM160.353 99.0445L158.412 98.5985L158.412 98.5987L160.353 99.0445ZM168.832 62.1312L166.891 61.685L166.891 61.6852L168.832 62.1312ZM164.659 50.2417L163.423 51.803L163.423 51.8031L164.659 50.2417ZM134.971 26.7241L133.734 28.2854L133.734 28.2855L134.971 26.7241ZM20.9015 73.4351L22.7809 72.7755L20.9015 73.4351ZM22.8109 84.8904C23.1752 85.9284 24.312 86.4745 25.35 86.1102C26.388 85.7459 26.9341 84.6091 26.5698 83.5711L22.8109 84.8904ZM25.7524 93.2715L29.4072 103.685L33.1661 102.366L29.5113 91.9522L25.7524 93.2715ZM32.5954 112.769L40.2317 134.527L43.9907 133.208L36.3543 111.45L32.5954 112.769ZM40.2317 134.527C42.7539 141.713 50.6244 145.494 57.8107 142.972L56.4914 139.213C51.3811 141.007 45.7842 138.318 43.9907 133.208L40.2317 134.527ZM57.8107 142.972L153.421 109.416L152.102 105.657L56.4914 139.213L57.8107 142.972ZM153.421 109.416C157.887 107.849 161.235 104.102 162.294 99.4903L158.412 98.5987C157.658 101.879 155.277 104.543 152.102 105.657L153.421 109.416ZM162.294 99.4904L170.774 62.5771L166.891 61.6852L158.412 98.5985L162.294 99.4904ZM170.774 62.5773C171.37 59.983 171.192 57.3352 170.346 54.9236L166.587 56.2429C167.189 57.9586 167.315 59.84 166.891 61.685L170.774 62.5773ZM170.346 54.9236C169.499 52.5109 167.983 50.3329 165.896 48.6802L163.423 51.8031C164.907 52.9784 165.984 54.5258 166.587 56.2429L170.346 54.9236ZM165.896 48.6803L136.208 25.1628L133.734 28.2855L163.423 51.803L165.896 48.6803ZM136.208 25.1629C132.498 22.224 127.543 21.3938 123.078 22.9608L124.398 26.7197C127.573 25.6052 131.096 26.1958 133.734 28.2854L136.208 25.1629ZM123.078 22.9608L27.4677 56.517L28.787 60.276L124.398 26.7197L123.078 22.9608ZM27.4677 56.517C20.2817 59.0391 16.4997 66.9081 19.022 74.0947L22.7809 72.7755C20.9874 67.6654 23.6764 62.0696 28.787 60.276L27.4677 56.517ZM19.022 74.0947L22.8109 84.8904L26.5698 83.5711L22.7809 72.7755L19.022 74.0947Z" fill="#320170"/>
<path fill-rule="evenodd" clip-rule="evenodd" d="M152.151 67.2216C148.69 68.4362 144.902 66.6149 143.688 63.1555C142.473 59.6948 144.293 55.9065 147.754 54.6919C151.213 53.4777 155.003 55.2972 156.217 58.758C157.431 62.2174 155.611 66.0074 152.151 67.2216Z" fill="#C4B5D9"/>
<path d="M156.545 61.634C156.372 63.3242 155.556 64.9489 154.135 66.1078C151.292 68.4256 147.111 67.999 144.793 65.1575C142.477 62.3156 142.902 58.1331 145.744 55.8157C147.049 54.7511 148.638 54.2666 150.197 54.3272" stroke="#8D72B5" stroke-width="3.9837" stroke-linecap="round"/>
<path d="M148.831 61.3637C148.831 61.3637 163.508 57.4862 173.542 45.4938C183.574 33.5011 195.879 31.0062 205.268 36.3587" stroke="#8D72B5" stroke-width="3.9837" stroke-linecap="round"/>
<path fill-rule="evenodd" clip-rule="evenodd" d="M42.2929 86.4963L77.5177 74.1335C78.5126 73.7844 79.6124 74.3117 79.9616 75.3066L80.0117 75.4494C80.3608 76.4443 79.8318 77.5433 78.837 77.8924L43.6122 90.2552C42.6173 90.6044 41.5187 90.0766 41.1696 89.0817L41.1194 88.9389C40.7703 87.944 41.298 86.8455 42.2929 86.4963Z" fill="#320170"/>
<path fill-rule="evenodd" clip-rule="evenodd" d="M45.8109 96.5197L81.0357 84.157C82.0306 83.8078 83.1304 84.3351 83.4796 85.33L83.5297 85.4728C83.8789 86.4677 83.3498 87.5667 82.355 87.9159L47.1302 100.279C46.1353 100.628 45.0367 100.1 44.6876 99.1052L44.6374 98.9623C44.2883 97.9675 44.816 96.8689 45.8109 96.5197Z" fill="#320170"/>
<path fill-rule="evenodd" clip-rule="evenodd" d="M49.3289 106.543L75.7828 97.2587C76.7777 96.9095 77.8775 97.4368 78.2267 98.4317L78.2768 98.5745C78.626 99.5694 78.097 100.668 77.1021 101.018L50.6481 110.302C49.6533 110.651 48.5547 110.123 48.2055 109.129L48.1554 108.986C47.8062 107.991 48.334 106.892 49.3289 106.543Z" fill="#320170"/>
<path d="M115.877 57.8542L125.264 54.5596C127.085 53.9204 128.916 55.4921 128.555 57.3888L122.404 89.921C122.051 91.7992 119.805 92.603 118.334 91.38L110.747 85.0471C110.052 84.4635 109.725 83.5518 109.893 82.6574L114.242 59.7458C114.411 58.8743 115.031 58.1511 115.877 57.8542Z" fill="#44E0B7"/>
<path d="M103.811 82.7927C107.326 81.559 109.176 77.7092 107.942 74.194C106.708 70.6788 102.858 68.8293 99.3433 70.063C95.8281 71.2968 93.9786 75.1465 95.2123 78.6617C96.446 82.1769 100.296 84.0265 103.811 82.7927Z" fill="#5132A2"/>
</svg>
