<svg width="193" height="147" viewBox="0 0 193 147" fill="none" xmlns="http://www.w3.org/2000/svg">
<path fill-rule="evenodd" clip-rule="evenodd" d="M85.2268 49.5024H68.2959C65.2337 49.5024 62.7302 46.9977 62.7302 43.9355C62.7302 40.8755 65.2337 38.3698 68.2959 38.3698H76.4115C78.8357 38.3698 80.8192 36.3874 80.8192 33.9621V31.6459C80.8192 29.2217 78.8357 27.2383 76.4115 27.2383H28.1765C25.7512 27.2383 23.7688 29.2217 23.7688 31.6459V33.9621C23.7688 36.3874 25.7512 38.3698 28.1765 38.3698H37.6838C40.7449 38.3698 43.2484 40.8755 43.2484 43.9355C43.2484 46.9977 40.7449 49.5024 37.6838 49.5024H6.61098C2.97467 49.5024 -0.000488281 52.4775 -0.000488281 56.1139V59.5882C-0.000488281 63.2245 2.97467 66.1996 6.61098 66.1996H85.2268C88.8631 66.1996 91.8383 63.2245 91.8383 59.5882V56.1139C91.8383 52.4775 88.8631 49.5024 85.2268 49.5024Z" fill="#F3EFF9"/>
<path fill-rule="evenodd" clip-rule="evenodd" d="M188.593 123.673H173.166C170.742 123.673 168.758 121.689 168.758 119.265C168.758 116.841 170.742 114.857 173.165 114.857H174.268C176.692 114.857 178.676 112.874 178.676 110.45C178.676 108.025 176.692 106.042 174.268 106.042H156.637C154.213 106.042 152.23 108.025 152.23 110.45C152.23 112.874 154.213 114.857 156.637 114.857H157.74C160.164 114.857 162.147 116.841 162.147 119.265C162.147 121.689 160.164 123.673 157.739 123.673H153.331H153.332H151.128C148.704 123.673 146.72 125.656 146.72 128.08C146.72 130.504 148.704 132.488 151.128 132.488H188.593C191.017 132.488 193 130.504 193 128.08C193 125.656 191.017 123.673 188.593 123.673Z" fill="#F3EFF9"/>
<path d="M33.5609 77.7721C33.5609 67.8376 41.372 59.6588 51.296 59.202L160.502 54.1758V145H52.1507C41.8838 145 33.5609 136.677 33.5609 126.41V77.7721Z" fill="#C4B5D9" stroke="#320170" stroke-width="3.4" stroke-linecap="round" stroke-linejoin="round"/>
<path d="M40.9965 63.7366C40.9965 54.3498 48.606 46.7402 57.9928 46.7402H153.04C157.161 46.7402 160.502 50.081 160.502 54.202C160.502 59.4678 156.233 63.7366 150.967 63.7366H40.9965Z" fill="#8D72B5" stroke="#320170" stroke-width="3.4" stroke-linecap="round" stroke-linejoin="round"/>
<rect x="19.6452" y="85.4064" width="51.7333" height="33.1436" rx="16.5718" fill="#F0EAF8" stroke="#320170" stroke-width="3.4"/>
<rect x="45.884" y="96.242" width="12.5341" height="12.5341" rx="6.26703" stroke="#320170" stroke-width="3.4"/>
<g clip-path="url(#clip0)">
<rect x="140.244" y="8.66113" width="126.41" height="68.5165" rx="12.2161" transform="rotate(90 140.244 8.66113)" fill="white" stroke="black" stroke-width="3.18681"/>
<rect x="134.933" y="13.9727" width="115.788" height="57.8938" rx="10.6227" transform="rotate(90 134.933 13.9727)" fill="#E9F7EF"/>
<rect x="128.026" y="13.9717" width="16.9963" height="9.56044" rx="4.78022" transform="rotate(90 128.026 13.9717)" fill="#44E0B7"/>
<rect x="98.017" y="15.2995" width="32.9304" height="17.5275" rx="8.76374" transform="rotate(90 98.017 15.2995)" stroke="#320170" stroke-width="2.65568"/>
</g>
<g clip-path="url(#clip1)">
<rect x="108.299" y="1.59277" width="126.41" height="68.5165" rx="12.2161" transform="rotate(60 108.299 1.59277)" fill="white" stroke="black" stroke-width="3.18681"/>
<rect x="106.356" y="8.84863" width="115.788" height="57.8938" rx="10.6227" transform="rotate(60 106.356 8.84863)" fill="#E9F7EF"/>
<rect x="100.375" y="12.3008" width="16.9963" height="9.56044" rx="4.78022" transform="rotate(60 100.375 12.3008)" fill="#44E0B7"/>
<rect x="75.0505" y="28.4555" width="32.9304" height="17.5275" rx="8.76374" transform="rotate(60 75.0505 28.4555)" stroke="#44E0B7" stroke-width="2.65568"/>
</g>
<defs>
<clipPath id="clip0">
<rect width="122.692" height="60.815" fill="white" transform="translate(44.7161)"/>
</clipPath>
<clipPath id="clip1">
<rect width="122.692" height="60.815" fill="white" transform="translate(48.9641 1.59277)"/>
</clipPath>
</defs>
</svg>
