<svg width="239" height="155" viewBox="0 0 239 155" fill="none" xmlns="http://www.w3.org/2000/svg">
<path fill-rule="evenodd" clip-rule="evenodd" d="M116.746 73.0061H99.9314C96.8901 73.0061 94.4037 70.5187 94.4037 67.4774C94.4037 64.4384 96.8901 61.9498 99.9314 61.9498H107.991C110.399 61.9498 112.369 59.981 112.369 57.5723V55.272C112.369 52.8644 110.399 50.8945 107.991 50.8945H60.0867C57.678 50.8945 55.7092 52.8644 55.7092 55.272V57.5723C55.7092 59.981 57.678 61.9498 60.0867 61.9498H69.5289C72.569 61.9498 75.0554 64.4384 75.0554 67.4774C75.0554 70.5187 72.569 73.0061 69.5289 73.0061H38.6689C35.0575 73.0061 32.1027 75.9609 32.1027 79.5723V83.0229C32.1027 86.6343 35.0575 89.589 38.6689 89.589H116.746C120.358 89.589 123.312 86.6343 123.312 83.0229V79.5723C123.312 75.9609 120.358 73.0061 116.746 73.0061Z" fill="#F3EFF9"/>
<path fill-rule="evenodd" clip-rule="evenodd" d="M199.54 114.887H184.219C181.812 114.887 179.842 112.917 179.842 110.509C179.842 108.102 181.812 106.132 184.218 106.132H185.314C187.721 106.132 189.691 104.162 189.691 101.754C189.691 99.3468 187.721 97.377 185.314 97.377H167.804C165.396 97.377 163.426 99.3468 163.426 101.754C163.426 104.162 165.396 106.132 167.804 106.132H168.899C171.306 106.132 173.276 108.102 173.276 110.509C173.276 112.917 171.306 114.887 168.898 114.887H164.52H164.521H162.332C159.924 114.887 157.955 116.857 157.955 119.264C157.955 121.672 159.924 123.642 162.332 123.642H199.54C201.948 123.642 203.918 121.672 203.918 119.264C203.918 116.857 201.948 114.887 199.54 114.887Z" fill="#F3EFF9"/>
<path fill-rule="evenodd" clip-rule="evenodd" d="M164.532 144.909H86.8106C84.3987 144.909 82.4441 142.955 82.4441 140.543V34.3675C82.4441 31.9555 84.3987 30.001 86.8106 30.001H164.532C166.944 30.001 168.899 31.9555 168.899 34.3675V140.543C168.899 142.955 166.944 144.909 164.532 144.909Z" fill="#E7E1EF"/>
<path d="M82.9911 45.3215V35.4612C82.9911 33.0493 84.9457 31.0947 87.3577 31.0947H165.079C167.491 31.0947 169.446 33.0493 169.446 35.4612V141.636C169.446 144.048 167.491 146.003 165.079 146.003H87.3577C84.9457 146.003 82.9911 144.048 82.9911 141.636V67.7559" stroke="#320170" stroke-width="3.37671" stroke-linecap="round"/>
<path d="M82.9913 60.3693V51.3408" stroke="#320170" stroke-width="3.37671" stroke-linecap="round"/>
<path fill-rule="evenodd" clip-rule="evenodd" d="M162.333 141.078H90.1046C88.8964 141.078 87.9159 140.098 87.9159 138.89V38.2083C87.9159 37.0001 88.8964 36.0195 90.1046 36.0195H162.333C163.541 36.0195 164.521 37.0001 164.521 38.2083V138.89C164.521 140.098 163.541 141.078 162.333 141.078Z" fill="white"/>
<path fill-rule="evenodd" clip-rule="evenodd" d="M144.275 25.6232H135.521C134.12 25.6232 132.583 23.3776 132.237 22.3401C131.143 19.0571 132.543 17.9627 132.543 17.9627C134.365 16.3584 135.521 14.0153 135.521 11.3965C135.521 6.22455 131.544 2.71164 126.218 2.6416C120.893 2.71164 116.916 6.22455 116.916 11.3965C116.916 14.0153 118.072 16.3584 119.894 17.9627C119.894 17.9627 121.294 19.0571 120.199 22.3401C119.854 23.3776 118.317 25.6232 116.916 25.6232H108.161C97.765 25.6232 97.2178 38.7556 97.2178 38.7556H155.219C155.219 38.7556 154.672 25.6232 144.275 25.6232Z" fill="#C5B5D9"/>
<path fill-rule="evenodd" clip-rule="evenodd" d="M144.275 25.6232H135.521C134.12 25.6232 132.583 23.3776 132.237 22.3401C131.143 19.0571 132.543 17.9627 132.543 17.9627C134.365 16.3584 135.521 14.0153 135.521 11.3965C135.521 6.22455 131.544 2.71164 126.218 2.6416C120.893 2.71164 116.916 6.22455 116.916 11.3965C116.916 14.0153 118.072 16.3584 119.894 17.9627C119.894 17.9627 121.294 19.0571 120.199 22.3401C119.854 23.3776 118.317 25.6232 116.916 25.6232H108.161C97.765 25.6232 97.2178 38.7556 97.2178 38.7556H155.219C155.219 38.7556 154.672 25.6232 144.275 25.6232Z" stroke="#320170" stroke-width="3.37671" stroke-linecap="round"/>
<path fill-rule="evenodd" clip-rule="evenodd" d="M141.266 57.9071H118.285C117.382 57.9071 116.643 57.1684 116.643 56.2656C116.643 55.3627 117.382 54.624 118.285 54.624H141.266C142.169 54.624 142.908 55.3627 142.908 56.2656C142.908 57.1684 142.169 57.9071 141.266 57.9071Z" fill="#3F3F3F"/>
<path fill-rule="evenodd" clip-rule="evenodd" d="M155.493 57.9071H150.021C149.118 57.9071 148.379 57.1684 148.379 56.2656C148.379 55.3627 149.118 54.624 150.021 54.624H155.493C156.396 54.624 157.134 55.3627 157.134 56.2656C157.134 57.1684 156.396 57.9071 155.493 57.9071Z" fill="#3F3F3F"/>
<path fill-rule="evenodd" clip-rule="evenodd" d="M141.266 79.7938H118.285C117.382 79.7938 116.643 79.0551 116.643 78.1523C116.643 77.2494 117.382 76.5107 118.285 76.5107H141.266C142.169 76.5107 142.908 77.2494 142.908 78.1523C142.908 79.0551 142.169 79.7938 141.266 79.7938Z" fill="#3F3F3F"/>
<path fill-rule="evenodd" clip-rule="evenodd" d="M155.493 79.7938H150.021C149.118 79.7938 148.379 79.0551 148.379 78.1523C148.379 77.2494 149.118 76.5107 150.021 76.5107H155.493C156.396 76.5107 157.134 77.2494 157.134 78.1523C157.134 79.0551 156.396 79.7938 155.493 79.7938Z" fill="#3F3F3F"/>
<path fill-rule="evenodd" clip-rule="evenodd" d="M141.266 101.682H118.285C117.382 101.682 116.643 100.943 116.643 100.04C116.643 99.1371 117.382 98.3984 118.285 98.3984H141.266C142.169 98.3984 142.908 99.1371 142.908 100.04C142.908 100.943 142.169 101.682 141.266 101.682Z" fill="#3F3F3F"/>
<path fill-rule="evenodd" clip-rule="evenodd" d="M155.493 101.682H150.021C149.118 101.682 148.379 100.943 148.379 100.04C148.379 99.1371 149.118 98.3984 150.021 98.3984H155.493C156.396 98.3984 157.134 99.1371 157.134 100.04C157.134 100.943 156.396 101.682 155.493 101.682Z" fill="#3F3F3F"/>
<path fill-rule="evenodd" clip-rule="evenodd" d="M141.266 123.568H118.285C117.382 123.568 116.643 122.83 116.643 121.927C116.643 121.024 117.382 120.285 118.285 120.285H141.266C142.169 120.285 142.908 121.024 142.908 121.927C142.908 122.83 142.169 123.568 141.266 123.568Z" fill="#3F3F3F"/>
<path fill-rule="evenodd" clip-rule="evenodd" d="M155.493 123.568H150.021C149.118 123.568 148.379 122.83 148.379 121.927C148.379 121.024 149.118 120.285 150.021 120.285H155.493C156.396 120.285 157.134 121.024 157.134 121.927C157.134 122.83 156.396 123.568 155.493 123.568Z" fill="#3F3F3F"/>
<path fill-rule="evenodd" clip-rule="evenodd" d="M108.89 63.9256H99.7722C98.0595 63.9256 96.6708 62.5368 96.6708 60.8242V51.7059C96.6708 49.9932 98.0595 48.6045 99.7722 48.6045H108.89C110.603 48.6045 111.992 49.9932 111.992 51.7059V60.8242C111.992 62.5368 110.603 63.9256 108.89 63.9256Z" fill="#D4F4EC"/>
<path d="M106.643 51.6719H109.375C109.906 51.6719 110.237 52.2458 109.971 52.7046L105.417 60.5771C105.155 61.0318 104.5 61.0358 104.23 60.585L102.84 58.2534C102.712 58.039 102.71 57.7728 102.836 57.5564L106.047 52.0135C106.17 51.803 106.396 51.6719 106.643 51.6719Z" fill="#44E0B7"/>
<path d="M101.247 57.0379C102.27 57.0379 103.1 56.2083 103.1 55.185C103.1 54.1616 102.27 53.332 101.247 53.332C100.223 53.332 99.3938 54.1616 99.3938 55.185C99.3938 56.2083 100.223 57.0379 101.247 57.0379Z" fill="#5132A2"/>
<path fill-rule="evenodd" clip-rule="evenodd" d="M108.89 85.8133H99.7722C98.0595 85.8133 96.6708 84.4245 96.6708 82.7119V73.5936C96.6708 71.8809 98.0595 70.4922 99.7722 70.4922H108.89C110.603 70.4922 111.992 71.8809 111.992 73.5936V82.7119C111.992 84.4245 110.603 85.8133 108.89 85.8133Z" fill="#D4F4EC"/>
<path d="M106.643 73.5H109.375C109.906 73.5 110.237 74.074 109.971 74.5327L105.417 82.4052C105.155 82.86 104.5 82.8639 104.23 82.4131L102.84 80.0816C102.712 79.8671 102.71 79.601 102.836 79.3845L106.047 73.8416C106.17 73.6311 106.396 73.5 106.643 73.5Z" fill="#44E0B7"/>
<path fill-rule="evenodd" clip-rule="evenodd" d="M108.89 107.7H99.7722C98.0595 107.7 96.6708 106.311 96.6708 104.599V95.4803C96.6708 93.7677 98.0595 92.3789 99.7722 92.3789H108.89C110.603 92.3789 111.992 93.7677 111.992 95.4803V104.599C111.992 106.311 110.603 107.7 108.89 107.7Z" fill="#D4F4EC"/>
<path d="M101.247 78.866C102.27 78.866 103.1 78.0364 103.1 77.0131C103.1 75.9897 102.27 75.1602 101.247 75.1602C100.223 75.1602 99.3938 75.9897 99.3938 77.0131C99.3938 78.0364 100.223 78.866 101.247 78.866Z" fill="#5132A2"/>
<path d="M106.643 95.3496H109.375C109.906 95.3496 110.237 95.9236 109.971 96.3823L105.417 104.255C105.155 104.71 104.5 104.714 104.23 104.263L102.84 101.931C102.712 101.717 102.71 101.451 102.836 101.234L106.047 95.6912C106.17 95.4807 106.396 95.3496 106.643 95.3496Z" fill="#44E0B7"/>
<path fill-rule="evenodd" clip-rule="evenodd" d="M108.89 129.588H99.7722C98.0595 129.588 96.6708 128.199 96.6708 126.486V117.368C96.6708 115.655 98.0595 114.267 99.7722 114.267H108.89C110.603 114.267 111.992 115.655 111.992 117.368V126.486C111.992 128.199 110.603 129.588 108.89 129.588Z" fill="#D4F4EC"/>
<path fill-rule="evenodd" clip-rule="evenodd" d="M164.521 141.079H151.389L164.521 127.946V141.079Z" fill="#C5B5D9"/>
<path d="M106.643 117.198H109.375C109.906 117.198 110.237 117.772 109.971 118.231L105.417 126.103C105.155 126.558 104.5 126.562 104.23 126.111L102.84 123.78C102.712 123.565 102.71 123.299 102.836 123.083L106.047 117.54C106.17 117.329 106.396 117.198 106.643 117.198Z" fill="#44E0B7"/>
<path d="M101.247 100.716C102.27 100.716 103.1 99.886 103.1 98.8627C103.1 97.8394 102.27 97.0098 101.247 97.0098C100.223 97.0098 99.3938 97.8394 99.3938 98.8627C99.3938 99.886 100.223 100.716 101.247 100.716Z" fill="#5132A2"/>
<path fill-rule="evenodd" clip-rule="evenodd" d="M151.389 141.079V127.946H164.521L151.389 141.079Z" fill="#F3EFF9"/>
<path d="M101.247 122.565C102.27 122.565 103.1 121.736 103.1 120.712C103.1 119.689 102.27 118.859 101.247 118.859C100.223 118.859 99.3938 119.689 99.3938 120.712C99.3938 121.736 100.223 122.565 101.247 122.565Z" fill="#5132A2"/>
</svg>
