<svg width="204" height="145" viewBox="0 0 204 145" fill="none" xmlns="http://www.w3.org/2000/svg">
<path fill-rule="evenodd" clip-rule="evenodd" d="M60.4142 106.866H57.9725H57.9741H53.0858C50.399 106.866 48.2007 104.668 48.2007 101.979C48.2007 99.2941 50.3974 97.0941 53.0858 97.0925H54.309C56.9942 97.0925 59.1926 94.8941 59.1926 92.209C59.1926 89.5206 56.9942 87.3223 54.309 87.3223H34.7638C32.077 87.3223 29.8787 89.5206 29.8787 92.209C29.8787 94.8941 32.077 97.0925 34.7638 97.0925H35.9855C38.6738 97.0941 40.8722 99.2941 40.8722 101.979C40.8722 104.668 38.6738 106.866 35.9855 106.866H18.8851C16.1984 106.866 14 109.064 14 111.753C14 114.438 16.1984 116.638 18.8851 116.638H60.4142C63.1026 116.638 65.301 114.438 65.301 111.753C65.301 109.064 63.1026 106.866 60.4142 106.866Z" fill="#F2EFF8"/>
<path fill-rule="evenodd" clip-rule="evenodd" d="M196.672 54.8366H161.249C158.561 54.8366 156.363 52.6367 156.363 49.9499C156.363 47.2632 158.561 45.0632 161.248 45.0632H168.578C171.264 45.0632 173.463 42.8648 173.463 40.1781C173.463 37.4914 171.264 35.293 168.578 35.293H128.269C125.582 35.293 123.384 37.4914 123.384 40.1781C123.384 42.8648 125.582 45.0632 128.269 45.0632H134.377C137.062 45.0632 139.262 47.2632 139.262 49.9499C139.262 52.6383 137.062 54.8366 134.377 54.8366H130.712C126.68 54.8366 123.384 58.135 123.384 62.1651C123.384 66.1968 126.68 69.4936 130.712 69.4936H196.672C200.703 69.4936 204 66.1968 204 62.1651C204 58.135 200.703 54.8366 196.672 54.8366Z" fill="#F2EFF8"/>
<path fill-rule="evenodd" clip-rule="evenodd" d="M166.129 107.075C166.129 118.911 156.535 128.505 144.699 128.505C132.863 128.505 123.268 118.911 123.268 107.075C123.268 95.2389 132.863 85.6445 144.699 85.6445C156.535 85.6445 166.129 95.2389 166.129 107.075Z" fill="#F7F0FC" stroke="#320170" stroke-width="3.4" stroke-linecap="round"/>
<path fill-rule="evenodd" clip-rule="evenodd" d="M156 107C156 113.075 150.851 118 144.5 118C138.149 118 133 113.075 133 107C133 100.925 138.149 96 144.5 96C150.851 96 156 100.925 156 107Z" fill="white" stroke="#320170" stroke-width="3.4" stroke-linecap="round"/>
<path fill-rule="evenodd" clip-rule="evenodd" d="M79.1291 51.0749C79.1291 62.9109 69.5347 72.5053 57.6987 72.5053C45.8627 72.5053 36.2683 62.9109 36.2683 51.0749C36.2683 39.2389 45.8627 29.6445 57.6987 29.6445C69.5347 29.6445 79.1291 39.2389 79.1291 51.0749Z" fill="#F7F0FC" stroke="#320170" stroke-width="3.4" stroke-linecap="round"/>
<path fill-rule="evenodd" clip-rule="evenodd" d="M69 51C69 57.0753 63.8514 62 57.5 62C51.1486 62 46 57.0753 46 51C46 44.9247 51.1486 40 57.5 40C63.8514 40 69 44.9247 69 51Z" fill="white" stroke="#320170" stroke-width="3.4" stroke-linecap="round"/>
<path d="M123.124 29.9916C123.694 29.3193 124.53 28.9316 125.412 28.9316L156.836 28.9316C159.373 28.9316 160.765 31.8839 159.151 33.8406L81.1101 128.45C80.5402 129.141 79.6914 129.541 78.7958 129.541L45.2039 129.541C42.6485 129.541 41.2631 126.55 42.9156 124.601L123.124 29.9916Z" fill="#C4B5D9"/>
<path d="M81.3749 79.2362L123.124 29.9916C123.694 29.3193 124.53 28.9316 125.412 28.9316L154.836 28.9316C157.373 28.9316 158.765 31.8839 157.151 33.8406L79.1101 128.45C78.5402 129.141 77.6914 129.541 76.7958 129.541L45.2039 129.541C42.6485 129.541 41.2631 126.55 42.9156 124.601L60.0512 104.388M76.044 85.5243L70.713 91.8123L65.3821 98.1004" stroke="#320170" stroke-width="3.6" stroke-linecap="round" stroke-linejoin="round"/>
<path fill-rule="evenodd" clip-rule="evenodd" d="M163 39.5C163 48.6129 155.613 56 146.5 56C137.387 56 130 48.6129 130 39.5C130 30.3871 137.387 23 146.5 23C155.613 23 163 30.3871 163 39.5Z" fill="#44E0B7" stroke="white" stroke-width="2.673" stroke-linecap="round"/>
<path d="M142.1 40.8296L146.292 45.3066L150.844 40.7549" stroke="white" stroke-width="3.30462" stroke-linecap="round" stroke-linejoin="round"/>
<path d="M146.361 34L146.361 43.9139" stroke="white" stroke-width="3.30462" stroke-linecap="round"/>
<path d="M156 18.595L159.356 22.1791L163 18.5352" stroke="#A3F0DC" stroke-width="2.64554" stroke-linecap="round" stroke-linejoin="round"/>
<path d="M159.411 13.1279L159.411 21.0645" stroke="#A3F0DC" stroke-width="2.64554" stroke-linecap="round"/>
<path d="M142 8.10546L144.52 10.7967L147.256 8.06055" stroke="#D9F1EC" stroke-width="1.98645" stroke-linecap="round" stroke-linejoin="round"/>
<path d="M144.561 4L144.561 9.95935" stroke="#D9F1EC" stroke-width="1.98645" stroke-linecap="round"/>
</svg>
