<svg width="176" height="147" viewBox="0 0 176 147" fill="none" xmlns="http://www.w3.org/2000/svg">
<path d="M111.543 70.9668H36.6203C32.5634 70.9668 28.6726 72.5784 25.804 75.4471C22.9353 78.3157 21.3237 82.2065 21.3237 86.2634C21.3237 88.2778 21.7215 90.2723 22.4944 92.1325C23.2673 93.9927 24.3999 95.6819 25.8274 97.1032C27.2548 98.5245 28.9489 99.6498 30.8124 100.415C32.676 101.179 34.6722 101.569 36.6865 101.56H37.5032C39.6107 101.56 41.6319 102.397 43.1221 103.887C44.6123 105.378 45.4495 107.399 45.4495 109.506C45.4495 111.614 44.6123 113.635 43.1221 115.125C41.6319 116.615 39.6107 117.453 37.5032 117.453H6.60101C5.77013 117.453 4.94742 117.617 4.18007 117.935C3.41271 118.254 2.71581 118.721 2.12932 119.309C1.54282 119.898 1.07827 120.596 0.762316 121.365C0.446365 122.133 0.285219 122.957 0.288125 123.787C0.288125 125.462 0.953235 127.067 2.13713 128.251C3.32102 129.435 4.92673 130.1 6.60101 130.1H80.6409C81.6127 130.1 82.5447 129.714 83.2318 129.027C83.919 128.34 84.3051 127.408 84.3051 126.436V124.803C84.305 124.32 84.4005 123.842 84.5861 123.396C84.7716 122.95 85.0435 122.545 85.386 122.204C85.7286 121.864 86.1351 121.594 86.5822 121.411C87.0293 121.228 87.5082 121.136 87.9912 121.139H104.303C105.277 121.133 106.209 120.742 106.895 120.051C107.582 119.361 107.967 118.426 107.967 117.453V105.224C107.967 104.267 108.341 103.349 109.009 102.664C109.677 101.979 110.587 101.583 111.543 101.56C112.515 101.56 113.447 101.174 114.134 100.487C114.821 99.7996 115.207 98.8676 115.207 97.8959V74.653C115.21 74.17 115.118 73.6911 114.935 73.244C114.752 72.7969 114.482 72.3904 114.142 72.0478C113.801 71.7052 113.396 71.4333 112.95 71.2478C112.504 71.0623 112.026 70.9668 111.543 70.9668Z" fill="#F2EFF8"/>
<path d="M153.994 12.3662H123.224C120.774 12.3662 118.787 14.3476 118.787 16.7919C118.787 19.2361 120.774 21.2175 123.224 21.2175H153.994C156.444 21.2175 158.431 19.2361 158.431 16.7919C158.431 14.3476 156.444 12.3662 153.994 12.3662Z" fill="#F2EFF8"/>
<path d="M143.665 28.7432H103.139C97.8969 28.7432 93.6475 32.9926 93.6475 38.2346C93.6475 43.4765 97.8969 47.726 103.139 47.726H143.665C148.907 47.726 153.156 43.4765 153.156 38.2346C153.156 32.9926 148.907 28.7432 143.665 28.7432Z" fill="#F2EFF8"/>
<path d="M171.275 25.0801H166.088C163.638 25.0801 161.651 27.0615 161.651 29.5057C161.651 31.9499 163.638 33.9314 166.088 33.9314H171.275C173.726 33.9314 175.712 31.9499 175.712 29.5057C175.712 27.0615 173.726 25.0801 171.275 25.0801Z" fill="#F2EFF8"/>
<rect x="49.3052" y="1.7" width="85.2893" height="122.595" rx="42.6447" fill="#C4B5D9" stroke="#320170" stroke-width="3.4"/>
<rect x="123.917" y="48.8602" width="14.901" height="28.9786" rx="7.45049" fill="#44E0B7" stroke="#320170" stroke-width="3.4"/>
<path d="M91.5996 35.8984C86.5316 48.2868 67.9022 49.9761 59.9248 49.2722V70.3887L61.3326 81.2989L68.0195 93.6169L83.153 104.527V111.214H76.818L78.2258 115.437L85.2646 122.476L99.3423 124.236L105.677 115.437L106.733 111.214H101.102L102.158 102.415L112.364 95.7285L120.811 85.5222L124.33 67.3972L123.626 53.4955C104.481 54.6217 94.2978 40.8256 91.5996 35.8984Z" fill="#F7F0FC"/>
<rect x="44.3781" y="48.8602" width="14.901" height="28.9786" rx="7.45049" fill="#44E0B7" stroke="#320170" stroke-width="3.4"/>
<path d="M123.625 53.4947C110.251 53.4947 91.2461 44.4453 91.2461 28.5068" stroke="#320170" stroke-width="3.4" stroke-linecap="round"/>
<path d="M51.1248 116.889C51.1248 112.977 54.2961 109.806 58.2082 109.806H71.5374H91.95H112.363H125.692C129.604 109.806 132.775 112.977 132.775 116.889V137.916C132.775 141.828 129.604 145 125.692 145H58.2082C54.2961 145 51.1248 141.828 51.1248 137.916V116.889Z" fill="#8E72B5"/>
<path d="M117.466 144.987H107.259M97.0532 144.987H91.95H58.2082C54.2961 144.987 51.1248 141.816 51.1248 137.904V116.876C51.1248 112.964 54.2961 109.793 58.2082 109.793H71.5374H91.95H112.363H125.692C129.604 109.793 132.775 112.964 132.775 116.876V139.884C132.775 142.702 130.49 144.987 127.672 144.987V144.987" stroke="#320170" stroke-width="3.4" stroke-linecap="round"/>
<path d="M81.7452 44.6966C73.8434 52.5984 58.974 50.033 49.0146 46.8545" stroke="#320170" stroke-width="3.4" stroke-linecap="round"/>
<path d="M82.801 110.862V103.471C75.1756 100.421 59.9248 89.816 59.9248 71.7966C59.9248 53.7772 59.9248 43.6413 59.9248 40.8257C60.0421 37.8929 61.8957 30.9713 68.3714 26.748" stroke="#320170" stroke-width="3.4" stroke-linecap="round"/>
<path d="M100.749 110.862V103.471C108.374 100.421 123.625 89.816 123.625 71.7966C123.625 53.7772 123.625 43.6413 123.625 40.8257C123.507 37.8929 121.654 30.9713 115.178 26.748" stroke="#320170" stroke-width="3.4" stroke-linecap="round"/>
<path d="M131.719 78.835V78.835C131.719 82.3337 128.883 85.1699 125.384 85.1699H100.396" stroke="#320170" stroke-width="3.4"/>
<rect x="84.4996" y="80.535" width="15.6049" height="9.2699" rx="4.63495" fill="#D4F4EC" stroke="#320170" stroke-width="3.4"/>
<path d="M91.78 119.648C95.8006 119.648 99.06 115.774 99.06 110.995V108H84.5V110.995C84.5 115.774 87.7594 119.648 91.78 119.648Z" fill="#F7F0FC"/>
<path d="M100.7 110C100.7 114.971 96.693 119 91.75 119C86.8071 119 82.8 114.971 82.8 110" stroke="#320170" stroke-width="3.4"/>
</svg>
