<svg width="1031" height="596" viewBox="0 0 1031 596" fill="none" xmlns="http://www.w3.org/2000/svg">
<path d="M20 499H249" stroke="#BDBEBF" stroke-width="1.11281" stroke-linecap="round"/>
<path d="M686 499L724 499" stroke="#BDBEBF" stroke-width="1.11281" stroke-linecap="round"/>
<path d="M733 499L1027 499" stroke="#BDBEBF" stroke-width="1.11281" stroke-linecap="round"/>
<path d="M704.067 198.07C569.974 198.07 518.456 124.983 425.65 144.667V331.643H297.385V197.976H265.499V97.918H104.792V341.277H3V428.421V457.354" stroke="#232529" stroke-width="1.11281"/>
<rect x="378.044" y="308.242" width="112.393" height="11.1281" fill="white"/>
<rect x="307.163" y="327.16" width="112.393" height="6.67683" fill="white"/>
<path d="M346.486 318.488H539.493C545.294 318.487 550.676 321.507 553.697 326.459L597.324 397.959L657.446 416.806C666.737 419.722 672.893 428.537 672.432 438.264L669.703 495.371H262.103V458.755C262.102 426.84 273.212 395.92 293.525 371.304L331.15 325.714C334.927 321.137 340.552 318.487 346.486 318.488V318.488Z" fill="#E9E9E9"/>
<path d="M658.97 446.449V455.87C658.97 460.966 663.101 465.097 668.197 465.097H671.136L672.419 438.263C672.419 437.918 672.419 437.568 672.419 437.223H668.175C663.088 437.235 658.97 441.362 658.97 446.449H658.97Z" fill="#CCCCCC"/>
<path d="M658.97 446.449V455.87C658.97 460.966 663.101 465.097 668.197 465.097" stroke="black" stroke-width="0.550266"/>
<path d="M271.288 463.903V450.572C271.288 447.594 268.874 445.18 265.896 445.18H262.773C262.324 449.674 262.098 454.196 262.094 458.747V469.295H265.869C267.304 469.303 268.682 468.738 269.699 467.726C270.717 466.713 271.288 465.338 271.288 463.903Z" fill="#CCCCCC"/>
<path d="M597.309 397.958L556.951 331.812H443.555V382.53C443.554 386.621 445.178 390.546 448.07 393.439C450.963 396.333 454.887 397.958 458.978 397.958H597.309Z" fill="#F4F4F4"/>
<path d="M591.511 397.957L585.218 387.646C582.081 382.508 577.345 378.541 571.736 376.354L566.451 374.289C565.984 374.103 565.462 374.113 565.001 374.315C564.541 374.518 564.181 374.897 564.003 375.367C563.514 376.402 563.887 377.639 564.866 378.231C566.565 379.369 565.535 381.973 564.726 383.483C564.592 383.733 564.336 383.893 564.054 383.904C563.771 383.915 563.503 383.775 563.351 383.537L553.741 368.578C553.557 368.291 553.21 368.152 552.878 368.234C552.547 368.316 552.304 368.599 552.274 368.939C552.259 369.113 552.3 369.287 552.393 369.436L562.585 385.808C562.758 386.084 562.745 386.439 562.552 386.703C559.986 390.211 557.816 393.993 556.081 397.979L591.511 397.957Z" fill="#CCCCCC"/>
<path d="M554.079 372.137L562.578 385.786C562.751 386.063 562.738 386.417 562.545 386.681C559.979 390.19 557.809 393.971 556.074 397.957H591.488L585.221 387.646C582.084 382.508 577.348 378.541 571.74 376.354L566.455 374.289C565.988 374.103 565.465 374.113 565.005 374.315C564.545 374.518 564.185 374.897 564.007 375.367C563.518 376.402 563.891 377.639 564.87 378.231C566.568 379.369 565.538 381.973 564.729 383.483C564.596 383.733 564.34 383.893 564.057 383.904C563.775 383.915 563.507 383.775 563.354 383.537L553.745 368.578" stroke="black" stroke-width="0.550266"/>
<path d="M474.625 380.123C474.9 374.73 474.517 370.923 473.983 368.318C473.372 365.48 470.858 363.456 467.954 363.465H460.631C458.351 363.456 456.254 364.716 455.19 366.733C451.636 373.598 449.086 385.359 447.667 393.038C450.587 396.193 454.693 397.984 458.992 397.978H476.097C474.834 392.115 474.339 386.113 474.625 380.123Z" fill="#CCCCCC"/>
<path d="M429.275 382.53V331.812H326.114L293.521 371.303C286.76 379.493 280.97 388.437 276.265 397.958H413.841C417.934 397.961 421.861 396.337 424.756 393.443C427.651 390.549 429.276 386.623 429.275 382.53Z" fill="#F4F4F4"/>
<path d="M346.389 363.445H339.071C336.79 363.435 334.692 364.694 333.63 366.713C329.165 375.342 326.285 391.676 325.25 397.958H351.135C352.126 392.056 352.779 386.102 353.092 380.125C353.367 374.732 352.984 370.925 352.45 368.32C351.845 365.461 349.311 363.423 346.389 363.445Z" fill="#CCCCCC"/>
<path fill-rule="evenodd" clip-rule="evenodd" d="M474.629 380.123C474.904 374.73 474.521 370.923 473.987 368.318C473.376 365.48 470.862 363.456 467.958 363.465H460.635C458.354 363.456 456.258 364.716 455.194 366.733C451.64 373.598 449.089 385.359 447.671 393.038C450.591 396.193 454.696 397.984 458.995 397.978H476.101C474.837 392.115 474.342 386.113 474.629 380.123V380.123Z" stroke="black" stroke-width="0.550266"/>
<path fill-rule="evenodd" clip-rule="evenodd" d="M346.393 363.442H339.075C336.794 363.431 334.696 364.691 333.634 366.71C329.169 375.338 326.289 391.672 325.254 397.954H351.138C352.129 392.052 352.783 386.098 353.096 380.121C353.371 374.728 352.988 370.921 352.454 368.317C351.849 365.457 349.315 363.419 346.393 363.442V363.442Z" stroke="black" stroke-width="0.550266"/>
<path fill-rule="evenodd" clip-rule="evenodd" d="M597.313 397.954L556.955 331.809H443.559V382.526C443.557 386.617 445.182 390.542 448.074 393.435C450.967 396.329 454.89 397.954 458.982 397.954H597.313Z" stroke="black" stroke-width="0.550266"/>
<path d="M262.103 491.09H669.908V500.538C669.908 503.218 667.735 505.391 665.055 505.391H269.237C265.309 505.391 262.124 502.207 262.124 498.278V491.09L262.103 491.09Z" fill="#F4F4F4"/>
<path d="M324.072 475.883C307.786 475.883 294.583 488.837 294.583 504.816H353.561C353.561 488.837 340.359 475.883 324.072 475.883Z" fill="#898A8D"/>
<path d="M596.709 475.883C580.423 475.883 567.22 488.837 567.22 504.816H626.199C626.199 488.837 612.996 475.883 596.709 475.883Z" fill="#898A8D"/>
<circle cx="324.072" cy="505.374" r="6.12043" fill="black"/>
<circle cx="596.709" cy="505.374" r="6.12043" fill="black"/>
<rect x="352.783" y="413.676" width="13.1418" height="4.21702" rx="1.57376" fill="white"/>
<path d="M364.379 417.895H354.322" stroke="black" stroke-width="0.550266"/>
<rect x="457.843" y="413.676" width="13.1418" height="4.21702" rx="1.57376" fill="white"/>
<path d="M469.445 417.895H459.382" stroke="black" stroke-width="0.550266"/>
<path d="M425.103 334.763C425.133 334.754 425.153 334.727 425.153 334.695C425.153 334.664 425.133 334.637 425.103 334.628C425.073 334.637 425.052 334.664 425.052 334.695C425.052 334.727 425.073 334.754 425.103 334.763Z" fill="black"/>
<path d="M425.103 334.763C425.133 334.754 425.153 334.727 425.153 334.695C425.153 334.664 425.133 334.637 425.103 334.628C425.073 334.637 425.052 334.664 425.052 334.695C425.052 334.727 425.073 334.754 425.103 334.763Z" fill="black"/>
<path d="M554.596 354.748C554.834 353.707 555.871 353.056 556.911 353.294C557.952 353.532 558.603 354.569 558.365 355.61L552.667 380.528C552.429 381.568 551.393 382.219 550.352 381.981C549.311 381.743 548.66 380.707 548.898 379.666L554.596 354.748Z" fill="black"/>
<path d="M466.69 348.172H468.954C469.342 348.172 469.714 348.326 469.988 348.6C470.262 348.874 470.416 349.246 470.416 349.633V358.261C470.416 358.649 470.262 359.021 469.988 359.295C469.714 359.569 469.342 359.723 468.954 359.723H462.591C460.533 359.723 458.865 358.055 458.865 355.997C458.877 351.68 462.373 348.184 466.69 348.172Z" fill="#CCCCCC"/>
<path fill-rule="evenodd" clip-rule="evenodd" d="M466.69 348.172H468.954C469.342 348.172 469.714 348.326 469.988 348.6C470.262 348.874 470.416 349.246 470.416 349.633V358.261C470.416 358.649 470.262 359.021 469.988 359.295C469.714 359.569 469.342 359.723 468.954 359.723H462.591C460.533 359.723 458.865 358.055 458.865 355.997C458.877 351.68 462.373 348.184 466.69 348.172V348.172Z" stroke="black" stroke-width="0.550266"/>
<path d="M465.098 362.878V359.891" stroke="black" stroke-width="0.550266"/>
<path d="M345.132 348.172H347.397C348.204 348.172 348.858 348.826 348.858 349.633V358.261C348.858 359.069 348.204 359.723 347.397 359.723H341.039C338.981 359.723 337.313 358.055 337.313 355.997C337.325 351.682 340.818 348.187 345.132 348.172V348.172Z" fill="#CCCCCC"/>
<path fill-rule="evenodd" clip-rule="evenodd" d="M345.132 348.172H347.397C348.204 348.172 348.858 348.826 348.858 349.633V358.261C348.858 359.069 348.204 359.723 347.397 359.723H341.039C338.981 359.723 337.313 358.055 337.313 355.997C337.325 351.682 340.818 348.187 345.132 348.172V348.172Z" stroke="black" stroke-width="0.550266"/>
<path d="M343.525 362.878V359.891" stroke="black" stroke-width="0.550266"/>
<path d="M436.9 411.934V505.388" stroke="black" stroke-width="0.550266"/>
<path d="M422.289 450.828H532.449C532.479 450.811 532.5 450.754 532.5 450.689C532.5 450.625 532.479 450.568 532.449 450.55H422.289C422.259 450.568 422.238 450.625 422.238 450.689C422.238 450.754 422.259 450.811 422.289 450.828Z" fill="black"/>
<path d="M405.957 471.914H474.443C474.472 471.931 474.502 471.909 474.52 471.859C474.537 471.809 474.537 471.742 474.52 471.692C474.502 471.641 474.472 471.619 474.443 471.636H405.957C405.928 471.619 405.898 471.641 405.88 471.692C405.863 471.742 405.863 471.809 405.88 471.859C405.898 471.909 405.928 471.931 405.957 471.914Z" fill="black"/>
<path d="M350.224 505.374C350.224 490.931 338.516 479.223 324.073 479.223C309.63 479.223 297.922 490.931 297.922 505.374" stroke="#232529" stroke-width="1.11281"/>
<path d="M622.861 505.374C622.861 490.931 611.153 479.223 596.71 479.223C582.267 479.223 570.559 490.931 570.559 505.374" stroke="#232529" stroke-width="1.11281"/>
<path d="M648.251 355.209L595.977 400.127C593.666 402.114 594.489 405.874 597.419 406.713C598.657 407.068 599.991 406.776 600.969 405.936L647.639 365.833C649.646 364.109 652.6 364.074 654.646 365.751L659.671 369.871C661.11 371.05 663.188 371.026 664.599 369.813C666.397 368.269 666.376 365.479 664.555 363.961L654.002 355.166C652.332 353.774 649.9 353.792 648.251 355.209Z" fill="#E9E9E9"/>
<path d="M572.933 517.731H569.719V512.155H621.476V517.731H618.262H617.989V518.003V524.124V530.244V530.517H618.262H621.476V536.092H569.719V530.517H572.933H573.206V530.244V524.124V518.003V517.731H572.933Z" fill="#232529" stroke="black" stroke-width="0.545274"/>
<rect x="598.651" y="517.718" width="12.8084" height="11.6956" rx="1.95297" fill="white" stroke="black" stroke-width="0.545274"/>
<rect x="579.733" y="517.718" width="12.8084" height="11.6956" rx="1.95297" fill="white" stroke="black" stroke-width="0.545274"/>
<path d="M301.407 517.731H298.193V512.155H349.949V517.731H346.735H346.462V518.003V524.124V530.244V530.517H346.735H349.949V536.092H298.193V530.517H301.407H301.679V530.244V524.124V518.003V517.731H301.407Z" fill="#232529" stroke="black" stroke-width="0.545274"/>
<rect x="327.126" y="517.718" width="12.8084" height="11.6956" rx="1.95297" fill="white" stroke="black" stroke-width="0.545274"/>
<rect x="308.208" y="517.718" width="12.8084" height="11.6956" rx="1.95297" fill="white" stroke="black" stroke-width="0.545274"/>
<path d="M703.511 198.071C703.511 198.378 703.76 198.627 704.067 198.627C704.374 198.627 704.624 198.378 704.624 198.071H703.511ZM704.067 62.3086L704.067 61.7522H703.511V62.3086H704.067ZM870.982 62.3086H871.538V61.7522H870.982V62.3086ZM870.982 144.902H870.425V145.459H870.982V144.902ZM906.762 144.902L907.156 144.509L906.993 144.346H906.762V144.902ZM936.191 174.325H936.747V174.095L936.584 173.932L936.191 174.325ZM936.191 310.013H935.634V310.569H936.191V310.013ZM991.638 310.013H992.194V309.457H991.638V310.013ZM991.638 470.708H991.081V471.264H991.638V470.708ZM1058.7 470.708V471.264H1059.25V470.708H1058.7ZM1058.7 432.345V431.789H1058.14V432.345H1058.7ZM704.624 198.071V62.3086H703.511V198.071H704.624ZM704.067 62.865H870.982V61.7522H704.067L704.067 62.865ZM870.425 62.3086V144.902H871.538V62.3086H870.425ZM870.982 145.459H906.762V144.346H870.982V145.459ZM906.369 145.296L935.797 174.719L936.584 173.932L907.156 144.509L906.369 145.296ZM935.634 174.325V310.013H936.747V174.325H935.634ZM936.191 310.569H991.638V309.457H936.191V310.569ZM991.081 310.013V470.708H992.194V310.013H991.081ZM991.638 471.264H1058.7V470.152H991.638V471.264ZM1059.25 470.708V432.345H1058.14V470.708H1059.25ZM1058.7 432.902H1098V431.789H1058.7V432.902Z" fill="#232529"/>
<path d="M687 471L980 471" stroke="#BDBEBF" stroke-width="1.11281" stroke-linecap="round"/>
<path d="M234 471L248 471" stroke="#BDBEBF" stroke-width="1.11281" stroke-linecap="round"/>
<path d="M1 471H228" stroke="#BDBEBF" stroke-width="1.11281" stroke-linecap="round"/>
<path d="M13.0153 590.891L1011.2 590.891" stroke="#EFEDF3" stroke-width="8.90244" stroke-miterlimit="5.75877" stroke-linecap="round" stroke-dasharray="55.64 44.51"/>
<path d="M347.926 57.2947H338.404C338.838 52.87 330.339 49.0275 327.203 53.9431C329.564 47.3242 322.146 40.4843 316.001 47.7985C312.08 42.3987 303.785 33.4596 296.398 36.068C289.587 38.4733 290.423 45.3779 291.357 47.7985C288.37 46.8675 283.712 47.7985 283.712 52.4481C283.712 58.257 289.117 58.7843 289.677 58.9705H263.353" stroke="#181A1D" stroke-linejoin="round"/>
<path d="M860.973 22.1043C866.996 22.5 879.523 22.8165 881.451 20.9174C883.275 19.1197 892.439 18.5983 897.499 18.5477C897.986 18.5429 898.411 18.2299 898.564 17.7677C901.872 7.77595 910.32 -6.93718 920.247 6.48852C920.719 7.12705 921.703 7.14369 922.239 6.55778C927.163 1.17571 938.951 -2.85852 939.982 10.1974V13.6207C939.982 14.5862 941.172 15.1392 942.002 14.6458C949.856 9.9764 962.366 13.4321 954.998 24.0295C954.432 24.8428 955.022 26.0327 956.011 25.9653L977.817 24.4785" stroke="#181A1D" stroke-linejoin="round"/>
<path d="M637.344 108.924C633.845 109.152 626.567 109.335 625.447 108.238C624.427 107.239 619.459 106.922 616.466 106.874C615.98 106.866 615.553 106.553 615.394 106.093C613.451 100.482 608.813 92.7003 603.34 99.3504C602.837 99.9617 601.842 99.9881 601.26 99.4519C598.176 96.6125 592.01 94.9064 591.443 102.045V102.972C591.443 103.936 590.223 104.523 589.337 104.143C585.065 102.312 579.427 104.083 582.119 109.069C582.591 109.942 581.991 111.145 581.001 111.077L569.463 110.295" stroke="#181A1D" stroke-linejoin="round"/>
<path d="M75.3326 351.839V310.465H162.225L181.201 332.186L162.225 351.839H75.3326Z" fill="#E9EAEA" stroke="white" stroke-width="16.6921"/>
<path d="M116.706 470.709V301.562" stroke="black" stroke-width="0.556403"/>
<path d="M75.3326 351.839V310.465H162.225L181.201 332.186L162.225 351.839H75.3326Z" fill="#E9EAEA" stroke="black" stroke-width="0.556403"/>
<path d="M88.7414 332.745H142.235C142.249 332.726 142.259 332.663 142.259 332.593C142.259 332.522 142.249 332.46 142.235 332.441H88.7414C88.7268 332.46 88.7167 332.522 88.7167 332.593C88.7167 332.663 88.7268 332.726 88.7414 332.745Z" fill="black"/>
<path d="M145.917 332.745H153.211C153.213 332.726 153.214 332.663 153.214 332.593C153.214 332.522 153.213 332.46 153.211 332.441H145.917C145.915 332.46 145.913 332.522 145.913 332.593C145.913 332.663 145.915 332.726 145.917 332.745Z" fill="black"/>
<rect x="895.158" y="433.933" width="42.1031" height="15.1799" fill="#D3D3D4" stroke="black" stroke-width="0.445122"/>
<rect x="913.189" y="398.598" width="6.04528" height="6.04528" rx="1.70052" fill="white" stroke="black" stroke-width="0.445122"/>
<path d="M903.33 414.841C903.33 407.596 909.204 401.723 916.449 401.723C923.694 401.723 929.568 407.596 929.568 414.841V479.643H903.33V414.841Z" fill="#E9EAEA" stroke="black" stroke-width="0.445122"/>
<path d="M921.626 416.992L921.626 409C921.61 408.998 921.559 408.996 921.501 408.996C921.443 408.996 921.392 408.998 921.376 409L921.376 416.992C921.392 416.995 921.443 416.996 921.501 416.996C921.559 416.996 921.61 416.995 921.626 416.992Z" fill="#65676A"/>
<path d="M916.626 414.992L916.626 407C916.61 406.998 916.559 406.996 916.501 406.996C916.443 406.996 916.392 406.998 916.376 407L916.376 414.992C916.392 414.995 916.443 414.996 916.501 414.996C916.559 414.996 916.61 414.995 916.626 414.992Z" fill="#65676A"/>
<path d="M911.626 415.993L911.626 409.999C911.61 409.997 911.559 409.996 911.501 409.996C911.443 409.996 911.392 409.997 911.376 409.999L911.376 415.993C911.392 415.995 911.443 415.996 911.501 415.996C911.559 415.996 911.61 415.995 911.626 415.993Z" fill="#65676A"/>
<rect x="899.244" y="420.953" width="33.93" height="6.04528" rx="1.21975" fill="#D3D3D4" stroke="black" stroke-width="0.445122"/>
<path d="M899.244 469.29C899.244 468.351 900.005 467.59 900.945 467.59H931.474C932.413 467.59 933.174 468.351 933.174 469.29V473.635H899.244V469.29Z" fill="#D3D3D4" stroke="black" stroke-width="0.445122"/>
<path d="M894.675 475.298C894.675 474.359 895.437 473.598 896.376 473.598H936.04C936.979 473.598 937.74 474.359 937.74 475.298V479.643H894.675V475.298Z" fill="#BDBEBF" stroke="black" stroke-width="0.445122"/>
<rect x="935.302" y="432.012" width="3.16066" height="19.0261" rx="0.73898" fill="#BDBEBF" stroke="black" stroke-width="0.445122"/>
<rect x="893.954" y="432.012" width="3.16066" height="19.0261" rx="0.73898" fill="#BDBEBF" stroke="black" stroke-width="0.445122"/>
<rect x="909.82" y="434.894" width="13.2568" height="13.2568" rx="6.62842" fill="#D3D3D4" stroke="black" stroke-width="0.445122"/>
<rect x="912.706" y="437.781" width="7.48759" height="7.48759" rx="3.7438" fill="white" stroke="black" stroke-width="0.445122"/>
<path d="M865.034 277.331L865.952 279.201C865.982 279.261 866.076 279.201 866.046 279.145L865.129 277.271C865.099 277.211 865.004 277.271 865.034 277.327V277.331Z" fill="black"/>
<path d="M773.702 291.919C772.334 294.178 771.434 296.73 770.649 299.243C770.036 301.203 769.667 303.407 770.683 305.302C772.6 308.87 777.545 308.514 780.079 305.851C780.272 305.649 779.967 305.349 779.779 305.546C777.141 308.33 771.73 308.3 770.636 304.011C770.173 302.185 770.739 300.281 771.331 298.548C772.086 296.34 772.858 294.14 774.075 292.116C774.217 291.88 773.848 291.687 773.702 291.901V291.919Z" fill="black"/>
<path d="M777.766 299.502C777.814 299.57 777.766 299.604 777.694 299.63L777.861 299.609H777.814L777.968 299.819C777.968 299.857 778.083 299.724 778.083 299.729C778.276 299.527 777.972 299.227 777.779 299.424C777.672 299.54 777.527 299.643 777.539 299.819C777.544 299.914 777.607 299.996 777.698 300.024C778.096 300.149 778.328 299.596 778.126 299.3C777.925 299.005 777.604 299.3 777.754 299.519L777.766 299.502Z" fill="black"/>
<path d="M773.154 298.125C773.197 298.198 773.154 298.232 773.082 298.258L773.244 298.232H773.197L773.356 298.438C773.356 298.48 773.471 298.348 773.467 298.348C773.66 298.151 773.356 297.846 773.167 298.048C773.056 298.159 772.914 298.266 772.927 298.438C772.929 298.534 772.994 298.617 773.086 298.643C773.48 298.767 773.711 298.215 773.514 297.923C773.317 297.632 772.996 297.923 773.146 298.138L773.154 298.125Z" fill="black"/>
<path d="M782.158 302.297C783.487 302.19 785.494 301.118 785.16 299.484C785.027 298.897 784.529 298.465 783.929 298.416C783.189 298.358 782.482 298.73 782.111 299.372C781.957 299.6 782.33 299.801 782.484 299.587C782.771 299.085 783.324 298.797 783.899 298.849C784.727 298.974 784.92 299.801 784.555 300.466C784.038 301.301 783.14 301.827 782.158 301.868C781.884 301.89 781.879 302.318 782.158 302.297Z" fill="black"/>
<path d="M784.051 299.816C783.497 299.105 782.674 300.498 782.507 300.91C782.481 300.974 782.584 301 782.61 300.936C782.747 300.61 783.506 299.289 783.956 299.868C783.999 299.924 784.089 299.868 784.051 299.816Z" fill="black"/>
<path d="M783.446 300.312C783.365 300.03 783.048 300.124 782.885 300.27C782.833 300.317 782.911 300.39 782.962 300.347C783.013 300.304 783.275 300.107 783.339 300.347C783.349 300.375 783.378 300.39 783.407 300.382C783.435 300.374 783.453 300.346 783.446 300.317V300.312Z" fill="black"/>
<path d="M782.589 302.113C782.446 305.358 782.501 308.609 782.752 311.847C782.778 312.117 783.207 312.122 783.181 311.847C782.929 308.609 782.875 305.358 783.018 302.113C783.018 301.994 782.922 301.898 782.804 301.898C782.685 301.898 782.589 301.994 782.589 302.113Z" fill="black"/>
<path d="M774.739 307.863C774.808 309.535 774.937 311.216 774.881 312.893C774.881 313.167 775.31 313.167 775.31 312.893C775.365 311.216 775.237 309.535 775.168 307.863C775.168 307.744 775.072 307.648 774.954 307.648C774.835 307.648 774.739 307.744 774.739 307.863Z" fill="black"/>
<path d="M775.354 298.306C774.935 299.068 774.589 299.868 774.321 300.695C774.235 300.96 774.646 301.072 774.749 300.81C775.006 300.018 775.34 299.253 775.744 298.525C775.783 298.458 775.784 298.376 775.746 298.309C775.707 298.241 775.636 298.2 775.559 298.199C775.482 298.199 775.41 298.239 775.371 298.306H775.354Z" fill="black"/>
<path d="M779.707 297.51C779.444 297.216 779.094 297.013 778.708 296.931C778.438 296.875 778.322 297.287 778.592 297.36C778.907 297.421 779.192 297.586 779.403 297.827C779.587 298.033 779.891 297.729 779.707 297.523V297.51Z" fill="black"/>
<path d="M774.762 296.275C774.495 295.986 774.144 295.789 773.758 295.713C773.488 295.653 773.377 296.065 773.647 296.142C773.952 296.196 774.231 296.346 774.445 296.571C774.629 296.776 774.929 296.472 774.749 296.266L774.762 296.275Z" fill="black"/>
<path d="M779.93 305.699C779.93 305.699 777.987 310.133 775.093 311.6L775.054 310.275L774.938 307.522C774.938 307.522 774.677 307.406 775.389 307.556C777.048 307.903 779.347 306.325 779.93 305.699Z" fill="black"/>
<path d="M772.096 293.017C773.777 293.446 779.48 294.732 781.732 292.888C781.732 292.888 778.837 295.5 777.748 295.684C777.748 295.684 780.956 296.709 782.161 294.102C782.161 294.102 780.874 297.177 782.739 298.978C782.739 298.978 783.97 298.48 784.343 298.755C784.716 299.029 785.317 299.642 784.854 300.346C784.501 300.834 784.065 301.258 783.567 301.598L783.276 301.829C783.276 301.829 782.821 301.949 782.8 302.738C782.778 303.528 781.985 316.967 779.926 324.137C777.868 331.306 780.844 334.857 788.297 332.893C793.49 331.512 793.387 326.585 792.654 323.249C792.306 321.625 793.025 319.958 794.446 319.098C795.861 318.167 796.436 316.478 796.286 314.836C795.75 309.042 789.575 305.693 789.039 299.874C788.537 294.389 786.895 292.104 784.751 291.023C784.287 290.781 783.888 290.433 783.584 290.007C782.522 288.623 780.864 287.827 779.12 287.863C775.978 287.726 773.078 289.543 771.83 292.43C771.779 292.542 771.779 292.671 771.83 292.784C771.881 292.896 771.978 292.981 772.096 293.017Z" fill="black"/>
<path d="M772.418 292.332C772.281 292.379 771.08 294.558 771.518 297.358C771.518 297.358 773.906 290.844 775.54 290.887" fill="black"/>
<path d="M775.177 302.277C775.551 302.055 776.002 301.999 776.42 302.123C776.539 302.154 776.66 302.083 776.69 301.964C776.721 301.846 776.65 301.725 776.532 301.694C776.004 301.538 775.435 301.61 774.962 301.892C774.873 301.956 774.848 302.078 774.903 302.173C774.958 302.268 775.076 302.306 775.177 302.26V302.277Z" fill="black"/>
<path d="M769.231 315.754C769.231 315.754 763.455 325.698 766.229 335.325C768.065 341.642 768.373 344.459 768.373 345.651C768.376 346.148 768.715 346.581 769.197 346.702C772.983 347.667 786.714 349.618 798.395 342.045" stroke="black" stroke-width="0.437572"/>
<path d="M793.656 313.798C793.656 313.798 801.898 312.259 805.235 321.83C808.571 331.401 811.898 338.983 813.245 347.538C814.021 352.469 810.732 370.6 809.553 376.805C809.305 378.122 809.144 379.454 809.072 380.793C808.98 382.941 808.728 385.08 808.318 387.191C807.572 390.544 808.318 391.518 808.318 391.518" stroke="black" stroke-width="0.437572"/>
<path d="M795.195 334.617L800.98 347.992C801.384 348.92 801.519 349.942 801.37 350.942C800.724 355.45 800.559 360.014 800.877 364.557C801.237 369.613 801.28 374.66 801.28 376.993C801.278 377.816 800.96 378.606 800.392 379.202C799.2 380.441 797.185 382.829 796.962 384.974" stroke="black" stroke-width="0.437572"/>
<path d="M799.392 385.196C798.934 387.636 798.535 390.136 799.431 392.525C799.53 392.782 799.946 392.671 799.86 392.413C798.976 390.089 799.371 387.696 799.817 385.308C799.868 385.038 799.457 384.922 799.388 385.196H799.392Z" fill="black"/>
<path d="M801.555 389.524C801.465 390.505 801.658 391.492 802.113 392.367C802.237 392.611 802.606 392.393 802.481 392.148C802.066 391.34 801.893 390.428 801.984 389.524C802.01 389.245 801.581 389.249 801.555 389.524Z" fill="black"/>
<path d="M804.325 389.511C804.463 390.327 804.707 391.121 805.05 391.874C805.166 392.122 805.535 391.904 805.419 391.655C805.096 390.935 804.867 390.177 804.737 389.399C804.694 389.125 804.278 389.241 804.308 389.511H804.325Z" fill="black"/>
<path d="M801.194 371.159L786.828 373.514C785.281 373.768 784.221 375.212 784.44 376.764L787.793 400.482C787.903 401.25 788.317 401.942 788.942 402.402C789.567 402.861 790.35 403.05 791.116 402.926L824.136 397.527C825.699 397.273 826.764 395.804 826.52 394.238L823.625 375.645C823.497 374.817 823.015 374.086 822.304 373.642L815.589 369.435C814.951 369.036 814.181 368.902 813.445 369.062L810.872 369.616" stroke="black" stroke-width="0.437572"/>
<path d="M813.593 371.769C813.85 373.201 814.052 374.659 814.374 376.083C814.549 376.864 814.832 377.747 815.553 378.193C816.41 378.737 817.482 378.36 818.362 378.047C819.735 377.555 821.078 376.983 822.384 376.332C822.633 376.212 822.414 375.839 822.169 375.963C821.127 376.473 820.068 376.945 818.983 377.352C817.898 377.76 816.205 378.605 815.295 377.352C814.789 376.641 814.712 375.611 814.566 374.779L814.005 371.658C813.958 371.388 813.546 371.503 813.576 371.773L813.593 371.769Z" fill="black"/>
<path d="M793.993 335.529C798.702 332.878 802.93 329.453 806.501 325.396C806.681 325.191 806.377 324.886 806.197 325.092C802.647 329.122 798.442 332.524 793.761 335.156C793.521 335.294 793.74 335.662 793.98 335.529H793.993Z" fill="black"/>
<path d="M770.75 347.235C771.13 348.266 771.351 349.349 771.406 350.447C771.329 351.543 771.087 352.621 770.69 353.646C770.608 353.912 771.02 354.023 771.119 353.762C771.525 352.699 771.77 351.582 771.848 350.447C771.793 349.311 771.566 348.191 771.174 347.124C771.093 346.858 770.681 346.974 770.746 347.235H770.75Z" fill="black"/>
<path d="M777.013 351.412C776.953 351.672 777.031 351.944 777.219 352.133C777.281 352.193 777.373 352.211 777.453 352.177C777.532 352.143 777.584 352.065 777.583 351.978C777.653 351.353 777.574 350.719 777.352 350.13C777.258 349.873 776.842 349.984 776.923 350.246C777.128 350.793 777.201 351.381 777.138 351.961L777.506 351.811C777.417 351.737 777.38 351.618 777.412 351.507C777.463 351.236 777.047 351.121 776.983 351.395L777.013 351.412Z" fill="black"/>
<path d="M796.265 343.229C796.41 346.346 796.883 349.439 797.676 352.457C797.707 352.576 797.828 352.647 797.946 352.616C798.064 352.585 798.135 352.464 798.105 352.346C797.324 349.364 796.857 346.308 796.711 343.229C796.711 342.955 796.282 342.955 796.282 343.229H796.265Z" fill="black"/>
<path d="M770.031 353.603C770.031 353.603 777.677 357.642 798.634 352.23" stroke="black" stroke-width="0.437572"/>
<path d="M772.883 311.577C772.214 313.584 771.764 315.801 772.78 317.782C773.596 319.29 774.956 320.429 776.584 320.968C780.306 322.281 784.144 320.076 786.189 316.993C786.344 316.762 785.971 316.564 785.821 316.774C783.934 319.618 780.452 321.702 776.983 320.634C775.396 320.168 774.052 319.104 773.235 317.666C772.206 315.758 772.664 313.614 773.312 311.663C773.398 311.401 772.986 311.29 772.883 311.551V311.577Z" fill="black"/>
<path d="M765.898 325.246C760.916 322.016 756.25 318.323 751.961 314.217C748.337 310.701 743.608 306.168 744.993 300.585C745.932 296.794 748.295 293.273 750.464 290.087C752.797 286.657 755.361 283.415 757.969 280.203C759.289 278.578 760.623 276.957 761.944 275.331C763.136 273.865 764.517 272.381 765.409 270.704C766.931 267.844 765.28 264.499 766.987 261.699" stroke="black" stroke-width="0.437572"/>
<path d="M774.154 268.023C774.102 269.923 773.349 271.736 772.04 273.114C771.279 273.896 770.714 274.847 770.389 275.888C769.059 280 765.826 289.709 763.528 294.121C760.547 299.803 758.052 301.84 758.052 301.84C761.474 304.161 765.098 306.17 768.879 307.844C775.783 310.798 775.11 311.579 775.11 311.579" stroke="black" stroke-width="0.437572"/>
<path d="M756.109 303.212C757.066 302.791 757.945 302.211 758.708 301.497C758.909 301.308 758.605 301.004 758.403 301.192C757.665 301.879 756.815 302.436 755.89 302.839C755.637 302.946 755.856 303.319 756.109 303.208V303.212Z" fill="black"/>
<path d="M762.063 322.253C762.043 319.565 762.365 316.885 763.019 314.277C763.65 311.79 764.469 308.775 766.257 306.863C766.445 306.661 766.141 306.357 765.952 306.558C764.198 308.437 763.354 311.348 762.706 313.78C761.975 316.544 761.615 319.394 761.634 322.253C761.634 322.372 761.73 322.468 761.848 322.468C761.967 322.468 762.063 322.372 762.063 322.253Z" fill="black"/>
<path fill-rule="evenodd" clip-rule="evenodd" d="M770.328 353.707C770.328 353.707 752.163 392.378 743.784 420.148C735.846 446.508 730.387 477.207 729.843 480.265C729.815 480.429 729.733 480.58 729.611 480.694L725.323 484.643C725.107 484.854 725.039 485.175 725.151 485.456C725.262 485.737 725.531 485.924 725.833 485.929H744.054C744.459 485.957 744.813 485.656 744.852 485.252C745.014 482.439 746.104 471.603 753.394 459.677C760.564 447.94 765.456 434.921 765.692 425.86C765.785 423.05 766.546 420.303 767.913 417.846C772.03 410.316 780.259 395.118 783.192 388.66" fill="white"/>
<path d="M770.328 353.707C770.328 353.707 752.163 392.378 743.784 420.148C735.846 446.508 730.387 477.207 729.843 480.265C729.815 480.429 729.733 480.58 729.611 480.694L725.323 484.643C725.107 484.854 725.039 485.175 725.151 485.456C725.262 485.737 725.531 485.924 725.833 485.929H744.054C744.459 485.957 744.813 485.656 744.852 485.252C745.014 482.439 746.104 471.603 753.394 459.677C760.564 447.94 765.456 434.921 765.692 425.86C765.785 423.05 766.546 420.303 767.913 417.846C772.03 410.316 780.259 395.118 783.192 388.66" stroke="black" stroke-width="0.437572"/>
<path d="M768.967 260.599C768.459 261.353 768.155 262.226 768.084 263.133C768.084 263.412 768.513 263.408 768.513 263.133C768.581 262.301 768.866 261.501 769.341 260.813C769.495 260.586 769.122 260.385 768.967 260.599Z" fill="black"/>
<path d="M771.285 259.991C770.542 260.665 770.12 261.622 770.123 262.624C770.123 262.743 770.219 262.839 770.337 262.839C770.456 262.839 770.552 262.743 770.552 262.624C770.548 261.736 770.924 260.889 771.585 260.296C771.791 260.107 771.486 259.807 771.285 259.991Z" fill="black"/>
<path d="M772.722 260.979C771.932 262.339 771.677 263.944 772.006 265.482C772.062 265.752 772.474 265.636 772.435 265.366C772.131 263.94 772.371 262.451 773.108 261.193C773.146 261.127 773.146 261.045 773.108 260.978C773.069 260.912 772.998 260.871 772.921 260.871C772.844 260.871 772.773 260.912 772.735 260.979H772.722Z" fill="black"/>
<path d="M772.955 264.526C772.599 265.22 772.282 266.005 771.69 266.528C771.25 266.907 770.907 267.387 770.691 267.926C770.588 268.179 771.004 268.291 771.12 268.038C771.411 267.317 771.977 266.996 772.406 266.412C772.761 265.884 773.069 265.326 773.328 264.744C773.457 264.496 773.084 264.281 772.959 264.526H772.955Z" fill="black"/>
<path fill-rule="evenodd" clip-rule="evenodd" d="M777.617 374.988C783.191 380.49 782.806 388.312 785.786 405.636C788.68 422.463 810.735 472.133 814.727 479.933C814.907 480.29 814.86 480.718 814.607 481.027L811.914 484.299C811.666 484.597 811.613 485.013 811.778 485.364C811.944 485.715 812.298 485.938 812.686 485.937H829.212C829.52 485.938 829.812 485.797 830.002 485.555C830.192 485.313 830.26 484.997 830.186 484.698C828.998 479.843 824.718 462.086 823.972 455.538C822.356 441.387 818.441 429.719 811.592 419.311C810.888 418.238 810.498 416.988 810.469 415.705L810.121 399.8" fill="white"/>
<path d="M777.617 374.988C783.191 380.49 782.806 388.312 785.786 405.636C788.68 422.463 810.735 472.133 814.727 479.933C814.907 480.29 814.86 480.718 814.607 481.027L811.914 484.299C811.666 484.597 811.613 485.013 811.778 485.364C811.944 485.715 812.298 485.938 812.686 485.937H829.212C829.52 485.938 829.812 485.797 830.002 485.555C830.192 485.313 830.26 484.997 830.186 484.698C828.998 479.843 824.718 462.086 823.972 455.538C822.356 441.387 818.441 429.719 811.592 419.311C810.888 418.238 810.498 416.988 810.469 415.705L810.121 399.8" stroke="black" stroke-width="0.437572"/>
<path d="M798.252 352.207C798.252 352.207 800.344 355.029 800.773 357.52" stroke="black" stroke-width="0.437572"/>
<path d="M765.009 308.146C767.724 309.087 770.289 310.414 772.625 312.087C772.681 312.13 772.732 312.035 772.676 311.997C770.334 310.316 767.76 308.984 765.035 308.043C764.97 308.017 764.945 308.124 765.009 308.146Z" fill="black"/>
<path d="M764.038 310.597C766.246 311.226 768.293 312.321 770.042 313.809C770.093 313.851 770.17 313.774 770.119 313.731C768.352 312.232 766.284 311.128 764.055 310.494C764.037 310.489 764.017 310.495 764.004 310.508C763.991 310.522 763.986 310.542 763.991 310.56C763.997 310.578 764.011 310.592 764.03 310.597H764.038Z" fill="black"/>
<path d="M770.535 314.202C770.558 314.208 770.582 314.2 770.596 314.18C770.609 314.161 770.609 314.135 770.596 314.116C770.582 314.096 770.558 314.088 770.535 314.094C770.511 314.101 770.494 314.123 770.494 314.148C770.494 314.173 770.511 314.195 770.535 314.202Z" fill="black"/>
<path d="M763.115 313.294C765.178 313.817 766.975 315.074 768.763 316.155C768.788 316.169 768.819 316.16 768.834 316.135C768.848 316.11 768.839 316.079 768.814 316.065C767.005 314.975 765.216 313.715 763.145 313.191C763.077 313.191 763.047 313.277 763.115 313.294Z" fill="black"/>
<path d="M762.293 316.232C764.312 316.764 765.779 317.909 767.357 319.213C767.413 319.26 767.486 319.183 767.434 319.14C765.848 317.828 764.351 316.661 762.323 316.138C762.294 316.132 762.265 316.149 762.257 316.177C762.249 316.206 762.265 316.236 762.293 316.245V316.232Z" fill="black"/>
<path d="M762.117 319.51C763.443 320.403 764.83 321.201 766.268 321.898C766.333 321.928 766.384 321.834 766.324 321.804C764.886 321.107 763.499 320.31 762.173 319.42C762.117 319.381 762.061 319.471 762.117 319.51Z" fill="black"/>
<path d="M772.096 315.031C769.6 319.517 767.534 324.491 767.688 329.714C767.769 332.471 768.473 335.207 768.974 337.905L770.72 346.91C770.72 346.978 770.835 346.948 770.823 346.88L769.236 338.732C768.687 335.898 767.95 333.016 767.791 330.13C767.516 324.795 769.626 319.697 772.165 315.121C772.18 315.096 772.173 315.064 772.148 315.048C772.123 315.033 772.09 315.041 772.075 315.066L772.096 315.031Z" fill="black"/>
<path d="M773.232 318.578C767.657 327.386 772.738 337.995 773.528 347.343C773.528 347.412 773.639 347.412 773.635 347.343C772.846 337.999 767.734 327.425 773.326 318.613C773.365 318.557 773.27 318.501 773.232 318.561V318.578Z" fill="black"/>
<path d="M775.564 320.661C772.214 329.392 775.688 338.598 776.563 347.436C776.563 347.505 776.678 347.505 776.67 347.436C775.812 338.598 772.317 329.426 775.666 320.691C775.692 320.626 775.589 320.596 775.564 320.661Z" fill="black"/>
<path d="M778.515 321.505C776.929 330.219 779.296 338.928 779.935 347.616C779.935 347.685 780.046 347.685 780.042 347.616C779.403 338.937 777.04 330.24 778.618 321.531C778.618 321.462 778.528 321.437 778.515 321.505Z" fill="black"/>
<path d="M781.208 320.755C781.911 329.541 782.335 338.336 782.756 347.153C782.762 347.177 782.784 347.193 782.809 347.193C782.834 347.193 782.856 347.177 782.863 347.153C782.434 338.349 782.005 329.541 781.315 320.755C781.315 320.686 781.203 320.686 781.208 320.755Z" fill="black"/>
<path d="M786.02 320.887C786.9 329.395 787.073 337.961 786.534 346.497C786.534 346.565 786.637 346.565 786.641 346.497C787.18 337.961 787.008 329.395 786.127 320.887C786.127 320.819 786.015 320.819 786.02 320.887Z" fill="black"/>
<path d="M789.161 325.339C790.855 328.25 790.846 331.646 790.812 334.914C790.775 338.559 790.737 342.203 790.7 345.845C790.707 345.869 790.729 345.885 790.754 345.885C790.779 345.885 790.801 345.869 790.808 345.845C790.846 341.951 790.902 338.053 790.928 334.159C790.928 331.115 790.825 327.984 789.255 325.283C789.221 325.223 789.127 325.283 789.161 325.339Z" fill="black"/>
<path d="M794.169 335.591C794.206 338.539 794.186 341.487 794.109 344.438C794.109 344.506 794.212 344.506 794.216 344.438C794.293 341.487 794.313 338.539 794.276 335.591C794.269 335.567 794.248 335.551 794.223 335.551C794.198 335.551 794.176 335.567 794.169 335.591Z" fill="black"/>
<path d="M797.131 339.499L796.587 343.312C796.587 343.376 796.681 343.406 796.69 343.337L797.234 339.534C797.234 339.465 797.144 339.435 797.131 339.504V339.499Z" fill="black"/>
<path d="M791.511 328.348C792.16 330.592 793.035 332.764 794.123 334.831C794.153 334.896 794.243 334.831 794.213 334.78C793.13 332.713 792.26 330.542 791.614 328.301C791.614 328.232 791.494 328.262 791.511 328.331V328.348Z" fill="black"/>
<path d="M792.453 324.078C793.854 327.246 795.199 330.441 796.488 333.663C796.514 333.727 796.617 333.701 796.591 333.637C795.302 330.406 793.954 327.203 792.547 324.027C792.517 323.963 792.427 324.027 792.453 324.078Z" fill="black"/>
<path d="M792.354 320.237C794.07 321.476 795.073 323.354 795.918 325.258C796.91 327.511 797.782 329.816 798.529 332.162C798.551 332.226 798.658 332.201 798.636 332.132C797.855 329.672 796.936 327.259 795.883 324.902C795.06 323.08 794.074 321.33 792.419 320.142C792.363 320.104 792.307 320.194 792.363 320.237H792.354Z" fill="black"/>
<path d="M794.418 318.012C796.596 318.664 797.947 321.541 798.933 323.428C799.995 325.481 800.816 327.649 801.382 329.89C801.382 329.919 801.405 329.942 801.433 329.942C801.461 329.942 801.484 329.919 801.484 329.89C801.549 329.637 801.557 329.732 801.463 329.492C801.437 329.427 801.334 329.453 801.36 329.517C800.931 328.411 800.678 327.099 800.211 325.941C799.761 324.835 799.245 323.757 798.667 322.712C797.707 320.997 796.497 318.522 794.443 317.909C794.379 317.888 794.349 317.991 794.418 318.012Z" fill="black"/>
<path d="M795.693 315.604C798.411 315.565 800.521 318.606 801.67 320.75C802.231 321.809 802.733 322.898 803.171 324.013C803.557 324.987 803.81 326.303 804.389 327.165C804.428 327.225 804.522 327.165 804.483 327.114C804.055 326.475 803.849 325.463 803.574 324.751C803.354 324.179 803.127 323.617 802.892 323.066C802.398 321.844 801.8 320.668 801.104 319.549C799.951 317.748 798.03 315.458 795.693 315.493C795.669 315.499 795.652 315.521 795.652 315.546C795.652 315.571 795.669 315.593 795.693 315.6V315.604Z" fill="black"/>
<path d="M751.844 416.391C752.418 416.871 753.099 417.208 753.829 417.373C753.854 417.373 753.876 417.357 753.883 417.333C753.89 417.309 753.88 417.283 753.859 417.27C753.145 417.113 752.48 416.785 751.921 416.314C751.869 416.271 751.792 416.344 751.844 416.391Z" fill="black"/>
<path d="M752.723 414.997C753.165 414.958 753.603 415.114 753.919 415.426C753.971 415.473 754.048 415.396 753.997 415.349C753.657 415.013 753.186 414.845 752.71 414.89C752.641 414.89 752.637 415.006 752.71 414.997H752.723Z" fill="black"/>
<path d="M754.958 413.745C754.982 413.738 754.998 413.716 754.998 413.691C754.998 413.666 754.982 413.644 754.958 413.637C754.934 413.644 754.918 413.666 754.918 413.691C754.918 413.716 754.934 413.738 754.958 413.745Z" fill="black"/>
<path d="M754.26 413.471C754.535 413.437 754.799 413.591 754.903 413.848C754.929 413.908 755.031 413.882 755.006 413.818C754.889 413.515 754.583 413.328 754.26 413.364C754.192 413.364 754.192 413.475 754.26 413.471Z" fill="black"/>
<path d="M797.164 420.892L798.421 420.609C798.439 420.604 798.454 420.59 798.459 420.572C798.464 420.554 798.459 420.534 798.446 420.521C798.433 420.507 798.414 420.502 798.395 420.506L797.139 420.789C797.07 420.789 797.1 420.905 797.164 420.892Z" fill="black"/>
<path d="M795.341 419.176L797.164 418.494C797.228 418.468 797.202 418.365 797.138 418.391L795.316 419.073C795.251 419.094 795.277 419.197 795.341 419.176Z" fill="black"/>
<path d="M794.67 416.267L796.63 415.44C796.694 415.414 796.63 415.32 796.578 415.35L794.618 416.177C794.554 416.203 794.618 416.297 794.67 416.267Z" fill="black"/>
<path d="M734.104 458.595L741.047 459.719C742.166 459.899 743.289 460.07 744.409 460.263C745.149 460.349 745.765 460.872 745.969 461.588C746.072 461.85 745.944 461.961 746.094 462.227C746.104 462.24 746.119 462.247 746.135 462.247C746.151 462.247 746.166 462.24 746.175 462.227C746.355 462.076 746.501 461.889 746.604 461.678C747.003 460.945 747.749 460.731 748.577 460.885L752.029 461.524C752.097 461.524 752.127 461.434 752.059 461.421L748.808 460.816C748.354 460.735 747.642 460.46 747.174 460.688C746.707 460.915 746.746 461.674 746.403 461.833C746.06 461.991 746.094 460.949 745.871 460.692C745.489 460.263 744.752 460.199 744.228 460.113C743.109 459.924 741.986 459.749 740.862 459.569L734.13 458.492C734.061 458.492 734.031 458.582 734.1 458.595H734.104Z" fill="black"/>
<path d="M807.099 462.524C809.089 461.864 811.1 461.238 813.128 460.714C814.122 460.381 815.151 460.162 816.194 460.063C817.687 460.02 818.484 460.856 819.23 462.027C819.245 462.044 819.268 462.051 819.29 462.045C819.311 462.038 819.327 462.019 819.329 461.997C819.411 460.942 818.639 459.981 820.225 459.342C821.028 459.082 821.846 458.868 822.674 458.703C823.013 458.617 824.423 458.502 823.96 457.846C823.942 457.833 823.918 457.833 823.9 457.846C823.707 457.884 823.639 457.983 823.737 458.159C823.772 458.219 823.862 458.159 823.832 458.103C823.965 458.352 820.98 459.068 820.757 459.128C820.281 459.252 819.604 459.329 819.248 459.715C818.892 460.101 819.02 460.629 819.123 461.13C819.308 462.022 819.123 461.679 818.772 461.208C818.578 460.946 818.35 460.713 818.094 460.513C816.808 459.557 815.092 460.127 813.682 460.487C811.452 461.059 809.245 461.715 807.061 462.455C806.996 462.455 807.022 462.58 807.091 462.558L807.099 462.524Z" fill="black"/>
<path d="M793.531 361.149C794.697 362.873 796.479 364.085 798.51 364.537C798.578 364.537 798.604 364.447 798.54 364.434C796.535 363.989 794.777 362.794 793.626 361.093C793.587 361.038 793.493 361.093 793.531 361.149Z" fill="black"/>
<path d="M794.86 362.607C795.22 362.532 795.584 362.476 795.949 362.44C796.091 362.418 796.235 362.407 796.378 362.406C796.631 362.406 796.627 362.406 796.687 362.646C796.767 363.106 796.892 363.557 797.06 363.992C797.086 364.057 797.18 363.992 797.15 363.941C796.92 363.436 796.793 362.891 796.777 362.337C796.777 362.311 796.751 362.281 796.721 362.286C796.084 362.303 795.45 362.376 794.826 362.504C794.757 362.504 794.787 362.62 794.856 362.607H794.86Z" fill="black"/>
<path d="M770.057 365.746C770.966 365.459 771.567 364.782 772.201 364.104C772.836 363.427 773.677 362.663 774.135 361.746C774.17 361.686 774.075 361.63 774.045 361.69C773.574 362.485 772.989 363.208 772.309 363.834C771.64 364.546 770.996 365.339 770.032 365.644C769.963 365.644 769.993 365.768 770.057 365.746Z" fill="black"/>
<path d="M771.32 364.865L771.268 363.797C771.243 363.595 771.233 363.392 771.238 363.188C771.264 362.948 771.238 362.978 771.487 363.06C772.033 363.307 772.646 363.364 773.228 363.223C773.292 363.223 773.262 363.103 773.198 363.12C772.503 363.33 771.83 363.085 771.183 362.828C771.152 362.828 771.114 362.828 771.114 362.88L771.213 364.865C771.213 364.934 771.324 364.934 771.32 364.865Z" fill="black"/>
<path d="M771.779 347.342C771.779 347.342 777.405 350.078 785.741 349.915C794.078 349.752 796.916 348.17 796.916 348.17C796.916 348.17 796.689 345.597 796.642 345.443C796.595 345.288 796.861 342.39 795.673 343.655C795.244 344.083 791.573 346.077 784.905 347.364C780.951 348.106 771.779 347.342 771.779 347.342V347.342Z" fill="black"/>
<path d="M778.9 376.434C778.9 376.434 779.389 386.588 777.614 392.806C775.838 399.024 776.37 402.09 776.37 402.09L781.567 392C781.567 392 783.557 389.08 782.97 387.484C782.382 385.889 781.374 378.342 778.9 376.434Z" fill="black"/>
<path d="M791.114 402.915C791.114 402.915 791.35 408.023 793.026 408.722C794.703 409.42 810.265 406.41 810.265 406.41L810.192 403.271L810.154 401.384C810.154 401.384 811.264 399.618 808.807 400.021L791.114 402.915Z" fill="black"/>
<path d="M783.785 354.888C783.927 354.858 793.991 353.082 797.383 357.966C800.775 362.851 800.989 366.354 800.981 366.213C800.972 366.071 800.719 359.879 800.723 359.506C800.728 359.133 800.882 356.44 800.046 355.321C799.553 354.668 799.161 353.946 798.884 353.177C798.884 353.177 798.579 352.019 797.169 352.641" fill="black"/>
<path d="M794.285 335.114C794.285 335.114 793.667 335.453 794.504 336.465C795.337 337.399 796.22 338.286 797.149 339.124L795.812 336.036L795.336 334.93C795.336 334.93 794.366 334.634 794.285 335.114Z" fill="black"/>
<path d="M768.512 317.152C766.533 319.088 765.06 321.481 764.224 324.121L764.85 324.549C764.85 324.549 765.901 325.943 766.098 323.898" fill="black"/>
<path d="M762.281 273.841C760.36 275.753 764.661 277.52 765.845 278.009C766.632 278.342 767.451 278.597 768.289 278.768C768.718 278.849 769.67 279.12 770.052 278.931C770.643 278.639 770.266 278.198 769.854 277.915C769.799 277.876 769.747 277.966 769.803 278.005C770.049 278.642 769.971 278.917 769.571 278.828C769.272 278.812 768.974 278.779 768.679 278.729C768.319 278.669 767.963 278.592 767.607 278.498C766.845 278.289 766.101 278.02 765.382 277.692C764.224 277.168 760.643 275.62 762.358 273.914C762.379 273.892 762.378 273.859 762.356 273.839C762.335 273.819 762.301 273.82 762.281 273.841Z" fill="black"/>
<path d="M762.747 273.62C762.771 273.613 762.788 273.591 762.788 273.566C762.788 273.541 762.771 273.519 762.747 273.512C762.724 273.519 762.707 273.541 762.707 273.566C762.707 273.591 762.724 273.613 762.747 273.62Z" fill="black"/>
<path d="M761.182 275.454C760.325 275.578 760.179 276.5 760.569 277.169C761.311 278.455 763.142 279.394 764.347 280.145C765.162 280.647 765.981 281.165 766.839 281.59C767.383 281.86 768.125 282.268 768.725 282.255C769.553 282.255 769.733 281.418 769.253 280.861C769.21 280.805 769.133 280.882 769.18 280.934C768.983 281.952 768.574 282.293 767.954 281.959L767.246 281.667C766.89 281.504 766.543 281.32 766.204 281.127C765.539 280.758 764.887 280.355 764.24 279.956C763.592 279.557 762.992 279.167 762.396 278.725C762.057 278.472 761.723 278.207 761.405 277.924C761.278 277.817 761.156 277.704 761.041 277.585C760.372 277.036 760.429 276.36 761.213 275.557C761.277 275.557 761.251 275.445 761.182 275.454Z" fill="black"/>
<path d="M769.227 280.604C769.251 280.597 769.267 280.575 769.267 280.55C769.267 280.525 769.251 280.504 769.227 280.497C769.204 280.49 769.18 280.499 769.166 280.518C769.152 280.537 769.152 280.563 769.166 280.583C769.18 280.602 769.204 280.61 769.227 280.604Z" fill="black"/>
<path d="M759.717 277.148C757.745 278.94 762.256 281.998 763.512 282.769C764.537 283.4 766.235 284.485 767.522 284.373C768.324 284.3 768.945 283.648 768.439 282.894C768.401 282.838 768.306 282.894 768.345 282.945C769.374 284.48 766.818 284.21 766.201 283.983C765.772 283.82 765.351 283.635 764.94 283.43C764.261 283.099 763.606 282.721 762.981 282.298C761.861 281.539 758.118 278.743 759.794 277.22C759.846 277.178 759.769 277.1 759.717 277.148Z" fill="black"/>
<path d="M736.857 467.668C737.653 467.629 738.449 467.733 739.207 467.977C739.276 467.977 739.302 467.895 739.237 467.874C738.469 467.629 737.663 467.523 736.857 467.561C736.833 467.568 736.817 467.59 736.817 467.615C736.817 467.639 736.833 467.661 736.857 467.668Z" fill="black"/>
<path d="M736.999 470.311L738.118 470.452C738.187 470.452 738.182 470.353 738.118 470.345L736.999 470.203C736.93 470.203 736.93 470.302 736.999 470.311Z" fill="black"/>
<path d="M736.83 472.555C737.104 472.688 737.411 472.736 737.712 472.692C737.781 472.692 737.751 472.581 737.682 472.589C737.41 472.627 737.132 472.582 736.885 472.461C736.825 472.431 736.77 472.525 736.83 472.555Z" fill="black"/>
<path d="M814.566 468.228C815.209 467.832 815.911 467.542 816.646 467.37C816.71 467.37 816.684 467.25 816.616 467.263C815.874 467.437 815.163 467.727 814.51 468.12C814.455 468.159 814.51 468.249 814.566 468.215V468.228Z" fill="black"/>
<path d="M815.944 470.73L817.342 470.301C817.411 470.301 817.381 470.176 817.316 470.198L815.918 470.627C815.89 470.634 815.873 470.663 815.88 470.691C815.887 470.719 815.916 470.737 815.944 470.73Z" fill="black"/>
<path d="M817.107 473.264L817.655 472.836C817.707 472.793 817.655 472.716 817.578 472.759L817.03 473.187C816.978 473.23 817.055 473.307 817.107 473.264Z" fill="black"/>
<path d="M779.658 279.167L780.778 275.535C780.799 275.47 780.696 275.44 780.675 275.505L779.556 279.137C779.556 279.205 779.641 279.231 779.658 279.167Z" fill="black"/>
<path d="M785.774 283.351L788.591 278.887C788.6 278.862 788.59 278.834 788.567 278.82C788.544 278.807 788.514 278.811 788.497 278.832L785.697 283.3C785.662 283.356 785.752 283.411 785.791 283.351H785.774Z" fill="black"/>
<path d="M791.938 288.125C793.543 286.763 795.047 285.285 796.436 283.704C796.483 283.652 796.406 283.575 796.359 283.626C794.971 285.216 793.468 286.701 791.861 288.069C791.809 288.116 791.861 288.189 791.938 288.146V288.125Z" fill="black"/>
<path d="M797.241 295.412L802.014 292.937C802.074 292.907 802.014 292.813 801.958 292.847L797.168 295.317C797.108 295.347 797.168 295.442 797.224 295.412H797.241Z" fill="black"/>
<path d="M843.564 242.859C844.33 242.093 845.571 242.093 846.336 242.859L853.425 249.947C854.19 250.713 854.19 251.954 853.425 252.72L846.336 259.808C845.571 260.574 844.33 260.574 843.564 259.808L836.476 252.72C835.71 251.954 835.71 250.713 836.476 249.947L843.564 242.859Z" fill="#44E0B7"/>
<circle cx="724.813" cy="269.879" r="8.42203" fill="#82E9CE"/>
<path d="M736.992 357.439L743.368 351.062L741.035 342.348L732.326 340.016L725.945 346.392L728.282 355.102L736.992 357.439Z" fill="#8F8FEF"/>
<path d="M819.579 265.956L807.494 279.764C807.245 280.049 807.167 280.445 807.289 280.803C807.411 281.161 807.715 281.427 808.086 281.501L826.097 285.064C826.468 285.138 826.851 285.008 827.1 284.723C827.35 284.438 827.428 284.042 827.306 283.683L821.388 266.312C821.268 265.949 820.962 265.68 820.587 265.606C820.212 265.532 819.827 265.666 819.579 265.956Z" fill="#5230A2"/>
<path d="M740.529 260.47L740.807 260.192C740.859 260.14 740.782 260.067 740.73 260.115L740.451 260.393C740.404 260.445 740.481 260.518 740.529 260.47Z" fill="black"/>
<path d="M829.327 245.967C829.349 245.974 829.374 245.965 829.387 245.946C829.401 245.927 829.401 245.901 829.387 245.881C829.374 245.862 829.349 245.854 829.327 245.86C829.303 245.867 829.286 245.889 829.286 245.914C829.286 245.939 829.303 245.96 829.327 245.967Z" fill="black"/>
</svg>
