<svg width="375" height="800" viewBox="0 0 375 800" fill="none" xmlns="http://www.w3.org/2000/svg">
<g clip-path="url(#clip0)">
<g opacity="0.9">
<rect width="375" height="849" fill="#F9F8FB"/>
</g>
<g opacity="0.9">
<g opacity="0.55">
<g opacity="0.12">
<path d="M167.014 693.306C164.873 695.651 165.017 699.34 167.335 701.535C169.653 703.731 173.276 703.611 175.386 701.267C177.527 698.923 177.385 695.265 175.067 693.069C172.747 690.842 169.155 690.962 167.014 693.306Z" fill="#6B29D1"/>
<path d="M139.654 667.594C137.513 669.939 137.656 673.628 139.974 675.824C142.292 678.02 145.916 677.899 148.057 675.554C150.198 673.21 150.054 669.521 147.736 667.325C145.418 665.129 141.795 665.25 139.654 667.594Z" fill="#6B29D1"/>
<path d="M112.292 641.842C110.151 644.186 110.295 647.875 112.612 650.039C114.93 652.235 118.553 652.115 120.663 649.771C122.804 647.427 122.661 643.738 120.344 641.573C118.057 639.376 114.434 639.497 112.292 641.842Z" fill="#6B29D1"/>
<path d="M84.9626 616.129C82.8214 618.473 82.9651 622.162 85.2819 624.327C87.5987 626.491 91.2232 626.402 93.3334 624.058C95.4747 621.714 95.331 618.025 93.0142 615.861C90.6973 613.696 87.1039 613.785 84.9626 616.129Z" fill="#6B29D1"/>
<path d="M141.565 720.986C139.424 723.331 139.568 727.02 141.885 729.184C144.203 731.38 147.826 731.259 149.936 728.916C152.077 726.571 151.935 722.914 149.617 720.718C147.33 718.521 143.707 718.642 141.565 720.986Z" fill="#6B29D1"/>
<path d="M114.235 695.24C112.093 697.585 112.237 701.274 114.554 703.438C116.872 705.634 120.464 705.514 122.605 703.17C124.747 700.825 124.604 697.168 122.286 694.972C119.968 692.776 116.345 692.897 114.235 695.24Z" fill="#6B29D1"/>
<path d="M86.8744 669.527C84.7332 671.871 84.8769 675.56 87.1949 677.756C89.513 679.952 93.1051 679.832 95.2463 677.488C97.3875 675.143 97.2439 671.454 94.9258 669.258C92.6078 667.063 89.0156 667.182 86.8744 669.527Z" fill="#6B29D1"/>
<path d="M59.5125 643.779C57.3713 646.123 57.515 649.812 59.833 652.008C62.151 654.204 65.7742 654.083 67.8844 651.739C69.9946 649.396 69.8819 645.706 67.5639 643.51C65.2769 641.313 61.6537 641.434 59.5125 643.779Z" fill="#6B29D1"/>
<path d="M32.183 618.062C30.0418 620.407 30.1855 624.096 32.5023 626.26C34.8203 628.456 38.4125 628.336 40.5537 625.992C42.6949 623.647 42.5513 619.958 40.2344 617.794C37.9164 615.598 34.3242 615.718 32.183 618.062Z" fill="#6B29D1"/>
<path d="M116.146 748.635C114.005 750.98 114.148 754.669 116.466 756.865C118.784 759.061 122.408 758.94 124.549 756.595C126.69 754.251 126.546 750.562 124.228 748.366C121.879 746.171 118.256 746.292 116.146 748.635Z" fill="#6B29D1"/>
<path d="M88.786 722.924C86.6447 725.268 86.7884 728.957 89.1052 731.121C91.4233 733.317 95.0465 733.197 97.1567 730.853C99.298 728.509 99.1555 724.851 96.8375 722.655C94.5504 720.458 90.9272 720.579 88.786 722.924Z" fill="#6B29D1"/>
<path d="M61.4241 697.177C59.2829 699.521 59.4265 703.21 61.7434 705.374C64.0615 707.57 67.6847 707.45 69.8259 705.105C71.9671 702.761 71.8247 699.103 69.5066 696.907C67.1886 694.711 63.5654 694.832 61.4241 697.177Z" fill="#6B29D1"/>
<path d="M34.0949 671.46C31.9537 673.805 32.0974 677.494 34.4154 679.69C36.7334 681.886 40.3256 681.766 42.4668 679.421C44.608 677.077 44.4656 673.419 42.1475 671.224C39.8283 668.996 36.2361 669.116 34.0949 671.46Z" fill="#6B29D1"/>
<path d="M6.73288 645.712C4.59168 648.057 4.73535 651.746 7.05338 653.942C9.37141 656.138 12.9635 656.018 15.1047 653.673C17.2459 651.329 17.1023 647.64 14.7842 645.444C12.4972 643.247 8.87408 643.368 6.73288 645.712Z" fill="#6B29D1"/>
<path d="M90.6972 776.319C88.5559 778.664 88.6996 782.353 91.0177 784.549C93.3357 786.745 96.9279 786.625 99.0691 784.281C101.21 781.936 101.068 778.279 98.7498 776.083C96.4615 773.854 92.8384 773.975 90.6972 776.319Z" fill="#6B29D1"/>
<path d="M63.3353 750.57C61.1941 752.914 61.3377 756.603 63.6558 758.799C65.9738 760.995 69.566 760.875 71.7073 758.531C73.8485 756.186 73.7048 752.497 71.3868 750.302C69.1009 748.136 65.4777 748.257 63.3353 750.57Z" fill="#6B29D1"/>
<path d="M36.0064 724.854C33.8652 727.199 34.0088 730.888 36.3257 733.052C38.6438 735.248 42.2669 735.127 44.4082 732.783C46.5494 730.438 46.4057 726.749 44.0889 724.585C41.7399 722.39 38.1477 722.51 36.0064 724.854Z" fill="#6B29D1"/>
<path d="M8.64465 699.111C6.50342 701.456 6.6471 705.145 8.96392 707.309C11.282 709.505 14.8741 709.385 17.0154 707.041C19.1566 704.696 19.0129 701.007 16.6961 698.843C14.409 696.646 10.7859 696.767 8.64465 699.111Z" fill="#6B29D1"/>
<path d="M37.9179 778.252C35.7766 780.596 35.9203 784.285 38.2371 786.45C40.5552 788.645 44.1783 788.525 46.2886 786.181C48.4298 783.837 48.2873 780.179 45.9693 777.983C43.6512 775.787 40.0591 775.907 37.9179 778.252Z" fill="#6B29D1"/>
<path d="M10.556 752.506C8.41474 754.85 8.55841 758.539 10.8752 760.703C13.1933 762.899 16.8165 762.779 18.9267 760.435C21.068 758.091 20.9255 754.433 18.6075 752.237C16.3216 750.072 12.6984 750.193 10.556 752.506Z" fill="#6B29D1"/>
</g>
<g opacity="0.12">
<path d="M192.284 665.822C190.143 668.167 190.286 671.855 192.604 674.051C194.922 676.247 198.546 676.126 200.656 673.783C202.797 671.438 202.655 667.781 200.336 665.585C198.017 663.358 194.425 663.478 192.284 665.822Z" fill="#6B29D1"/>
<path d="M164.924 640.11C162.782 642.455 162.926 646.144 165.244 648.339C167.562 650.535 171.185 650.414 173.327 648.07C175.468 645.726 175.324 642.037 173.006 639.841C170.688 637.645 167.065 637.766 164.924 640.11Z" fill="#6B29D1"/>
<path d="M137.562 614.363C135.421 616.708 135.564 620.397 137.881 622.561C140.199 624.757 143.822 624.636 145.933 622.293C148.074 619.948 147.93 616.259 145.613 614.095C143.326 611.898 139.703 612.019 137.562 614.363Z" fill="#6B29D1"/>
<path d="M110.232 588.644C108.091 590.989 108.235 594.678 110.551 596.842C112.868 599.007 116.493 598.917 118.603 596.574C120.744 594.229 120.601 590.54 118.284 588.376C115.967 586.211 112.373 586.3 110.232 588.644Z" fill="#6B29D1"/>
<path d="M166.835 693.503C164.694 695.848 164.837 699.537 167.154 701.701C169.472 703.897 173.095 703.777 175.206 701.433C177.347 699.089 177.204 695.431 174.886 693.235C172.599 691.038 168.976 691.159 166.835 693.503Z" fill="#6B29D1"/>
<path d="M139.504 667.756C137.363 670.1 137.507 673.789 139.823 675.953C142.142 678.149 145.734 678.03 147.875 675.685C150.016 673.341 149.874 669.683 147.556 667.487C145.238 665.291 141.614 665.412 139.504 667.756Z" fill="#6B29D1"/>
<path d="M112.144 642.043C110.003 644.387 110.146 648.076 112.464 650.272C114.782 652.468 118.375 652.348 120.516 650.004C122.657 647.659 122.513 643.97 120.195 641.775C117.877 639.579 114.285 639.698 112.144 642.043Z" fill="#6B29D1"/>
<path d="M84.782 616.294C82.6408 618.639 82.7845 622.328 85.1025 624.523C87.4205 626.719 91.0437 626.598 93.1539 624.255C95.2642 621.912 95.1515 618.222 92.8334 616.026C90.5464 613.829 86.9232 613.95 84.782 616.294Z" fill="#6B29D1"/>
<path d="M57.4525 590.582C55.3113 592.926 55.455 596.615 57.7718 598.78C60.0898 600.975 63.682 600.856 65.8232 598.511C67.9645 596.167 67.8208 592.478 65.504 590.314C63.1859 588.118 59.5937 588.237 57.4525 590.582Z" fill="#6B29D1"/>
<path d="M141.415 721.151C139.274 723.495 139.418 727.184 141.736 729.38C144.054 731.576 147.677 731.455 149.818 729.111C151.96 726.766 151.816 723.077 149.498 720.881C147.149 718.687 143.526 718.807 141.415 721.151Z" fill="#6B29D1"/>
<path d="M114.056 695.439C111.914 697.784 112.058 701.473 114.375 703.637C116.693 705.833 120.316 705.712 122.426 703.369C124.567 701.024 124.425 697.367 122.107 695.171C119.82 692.974 116.197 693.095 114.056 695.439Z" fill="#6B29D1"/>
<path d="M86.6936 669.692C84.5524 672.037 84.6961 675.726 87.0129 677.89C89.331 680.086 92.9542 679.965 95.0954 677.621C97.2367 675.276 97.0942 671.619 94.7762 669.423C92.4581 667.227 88.8349 667.348 86.6936 669.692Z" fill="#6B29D1"/>
<path d="M59.3645 643.976C57.2233 646.321 57.3669 650.01 59.685 652.205C62.003 654.401 65.5951 654.282 67.7363 651.937C69.8775 649.593 69.7351 645.935 67.4171 643.74C65.0978 641.512 61.5057 641.632 59.3645 643.976Z" fill="#6B29D1"/>
<path d="M32.0024 618.228C29.8612 620.573 30.0048 624.262 32.3229 626.457C34.6409 628.653 38.2331 628.533 40.3743 626.189C42.5155 623.845 42.3718 620.156 40.0538 617.96C37.7667 615.763 34.1436 615.884 32.0024 618.228Z" fill="#6B29D1"/>
<path d="M115.967 748.835C113.825 751.18 113.969 754.869 116.287 757.065C118.605 759.261 122.197 759.141 124.339 756.796C126.48 754.452 126.337 750.794 124.019 748.599C121.731 746.37 118.108 746.491 115.967 748.835Z" fill="#6B29D1"/>
<path d="M88.6048 723.086C86.4636 725.43 86.6073 729.119 88.9253 731.315C91.2434 733.511 94.8356 733.391 96.9768 731.046C99.118 728.702 98.9743 725.013 96.6563 722.817C94.3704 720.652 90.7473 720.773 88.6048 723.086Z" fill="#6B29D1"/>
<path d="M61.276 697.37C59.1348 699.714 59.2784 703.403 61.5953 705.568C63.9133 707.764 67.5365 707.643 69.6777 705.298C71.8189 702.954 71.6753 699.265 69.3584 697.1C67.0094 694.906 63.4172 695.025 61.276 697.37Z" fill="#6B29D1"/>
<path d="M33.9142 671.627C31.773 673.971 31.9166 677.66 34.2335 679.825C36.5515 682.02 40.1437 681.901 42.2849 679.556C44.4261 677.212 44.2825 673.523 41.9656 671.358C39.6785 669.162 36.0554 669.282 33.9142 671.627Z" fill="#6B29D1"/>
<path d="M6.58485 645.908C4.44363 648.253 4.58729 651.942 6.90412 654.106C9.22217 656.302 12.8453 656.181 14.9556 653.838C17.0968 651.493 16.9543 647.836 14.6363 645.64C12.3182 643.444 8.72607 643.564 6.58485 645.908Z" fill="#6B29D1"/>
<path d="M90.549 776.515C88.4078 778.86 88.5514 782.549 90.8682 784.713C93.1863 786.909 96.8094 786.788 98.9197 784.445C101.061 782.1 100.917 778.411 98.6004 776.247C96.2824 774.051 92.6592 774.172 90.549 776.515Z" fill="#6B29D1"/>
<path d="M63.1876 750.767C61.0464 753.112 61.1901 756.801 63.5069 758.965C65.825 761.161 69.4481 761.04 71.5583 758.697C73.6996 756.352 73.5571 752.695 71.2391 750.499C68.921 748.303 65.3289 748.423 63.1876 750.767Z" fill="#6B29D1"/>
<path d="M35.8255 725.021C33.6843 727.365 33.8279 731.055 36.1448 733.219C38.4628 735.415 42.086 735.294 44.1963 732.951C46.3375 730.606 46.1951 726.949 43.877 724.753C41.5911 722.587 37.968 722.708 35.8255 725.021Z" fill="#6B29D1"/>
<path d="M8.49679 699.306C6.35558 701.651 6.49925 705.34 8.81728 707.535C11.1353 709.731 14.7584 709.611 16.8687 707.267C19.0099 704.923 18.8662 701.234 16.5482 699.038C14.2301 696.842 10.638 696.962 8.49679 699.306Z" fill="#6B29D1"/>
<path d="M37.7384 778.448C35.5972 780.792 35.7409 784.481 38.0589 786.677C40.377 788.873 44.0001 788.752 46.1413 786.408C48.2826 784.063 48.1389 780.374 45.8208 778.178C43.5028 775.982 39.8797 776.103 37.7384 778.448Z" fill="#6B29D1"/>
<path d="M10.4083 752.701C8.26712 755.045 8.41079 758.734 10.7276 760.899C13.0457 763.095 16.6378 762.975 18.779 760.63C20.9203 758.286 20.7778 754.628 18.4598 752.433C16.1417 750.237 12.5496 750.356 10.4083 752.701Z" fill="#6B29D1"/>
</g>
<g opacity="0.12">
<path d="M10.5492 546.158C8.40795 548.502 4.78483 548.623 2.46677 546.427C0.148713 544.231 0.00503508 540.542 2.14626 538.198C4.28748 535.853 7.9106 535.732 10.2287 537.928C12.5467 540.124 12.6904 543.813 10.5492 546.158Z" fill="#6B29D1"/>
<path d="M37.9105 571.905C35.7693 574.249 32.1462 574.37 29.8591 572.173C27.541 569.977 27.3974 566.288 29.5398 563.975C31.681 561.631 35.3041 561.51 37.5912 563.707C39.9081 565.871 40.0517 569.56 37.9105 571.905Z" fill="#6B29D1"/>
<path d="M65.2399 597.622C63.0987 599.966 59.4756 600.087 57.1886 597.89C54.9015 595.693 54.7268 592.005 56.8693 589.692C59.0105 587.348 62.6335 587.227 64.9206 589.424C67.2077 591.621 67.3811 595.277 65.2399 597.622Z" fill="#6B29D1"/>
<path d="M12.4604 599.556C10.3191 601.901 6.69599 602.022 4.37791 599.826C2.05984 597.63 1.91739 593.972 4.05862 591.627C6.19986 589.283 9.82301 589.162 12.1411 591.358C14.4592 593.554 14.6016 597.212 12.4604 599.556Z" fill="#6B29D1"/>
<path d="M39.822 625.302C37.6808 627.647 34.0576 627.767 31.7395 625.571C29.4214 623.375 29.2778 619.686 31.4202 617.373C33.5627 615.06 37.1846 614.908 39.5027 617.104C41.8196 619.268 41.9632 622.958 39.822 625.302Z" fill="#6B29D1"/>
<path d="M67.151 651.016C65.0097 653.36 61.3867 653.481 59.0996 651.284C56.7815 649.088 56.6391 645.431 58.7803 643.086C60.9215 640.742 64.5446 640.621 66.8317 642.818C69.1497 645.014 69.2922 648.671 67.151 651.016Z" fill="#6B29D1"/>
<path d="M14.3717 652.951C12.2305 655.295 8.60736 655.416 6.28928 653.22C3.97121 651.024 3.82876 647.366 5.97 645.022C8.11124 642.677 11.7035 642.558 14.0216 644.754C16.3706 646.948 16.513 650.606 14.3717 652.951Z" fill="#6B29D1"/>
<path d="M41.7333 678.697C39.5921 681.041 35.9689 681.162 33.6509 678.966C31.3328 676.77 31.1903 673.112 33.3316 670.768C35.4728 668.424 39.096 668.303 41.414 670.499C43.7309 672.663 43.8746 676.352 41.7333 678.697Z" fill="#6B29D1"/>
<path d="M16.2828 706.344C14.1416 708.689 10.5185 708.81 8.23141 706.613C5.91335 704.417 5.76968 700.728 7.91213 698.415C10.0533 696.07 13.6455 695.95 15.9635 698.146C18.2816 700.342 18.424 704 16.2828 706.344Z" fill="#6B29D1"/>
</g>
<g opacity="0.12">
<path d="M8.48842 492.929C6.34719 495.274 2.72405 495.394 0.405981 493.198C-1.91209 491.002 -2.05577 487.313 0.0866962 485C2.22793 482.656 5.82007 482.536 8.13814 484.732C10.4872 486.927 10.6297 490.585 8.48842 492.929Z" fill="#6B29D1"/>
<path d="M35.8192 518.673C33.678 521.018 30.0548 521.139 27.7368 518.943C25.4187 516.747 25.2751 513.058 27.4163 510.713C29.5575 508.369 33.1806 508.248 35.4987 510.444C37.8167 512.64 37.9604 516.329 35.8192 518.673Z" fill="#6B29D1"/>
<path d="M63.181 544.42C61.0398 546.764 57.4167 546.885 55.1296 544.688C52.8115 542.492 52.6679 538.803 54.8103 536.491C56.9515 534.146 60.5746 534.025 62.8617 536.222C65.1785 538.387 65.3222 542.075 63.181 544.42Z" fill="#6B29D1"/>
<path d="M90.5097 570.137C88.3684 572.482 84.7454 572.603 82.4583 570.406C80.1713 568.209 79.9966 564.521 82.139 562.208C84.2802 559.863 87.9033 559.743 90.1904 561.94C92.4774 564.136 92.6509 567.793 90.5097 570.137Z" fill="#6B29D1"/>
<path d="M10.4006 546.322C8.25936 548.667 4.63618 548.788 2.34909 546.591C0.0310312 544.395 -0.11142 540.737 2.0298 538.393C4.17102 536.049 7.76324 535.929 10.0813 538.125C12.3993 540.321 12.543 544.01 10.4006 546.322Z" fill="#6B29D1"/>
<path d="M37.7306 572.072C35.5894 574.416 31.9663 574.537 29.6482 572.341C27.3301 570.145 27.1876 566.487 29.3289 564.143C31.4701 561.799 35.0933 561.678 37.4113 563.874C39.7294 566.07 39.8719 569.727 37.7306 572.072Z" fill="#6B29D1"/>
<path d="M65.0923 597.818C62.951 600.162 59.3279 600.283 57.0098 598.087C54.6917 595.891 54.548 592.202 56.6905 589.889C58.833 587.576 62.4549 587.424 64.773 589.62C67.0898 591.784 67.2335 595.473 65.0923 597.818Z" fill="#6B29D1"/>
<path d="M92.4217 623.531C90.2805 625.876 86.6574 625.997 84.3703 623.8C82.0523 621.604 81.9098 617.946 84.051 615.602C86.1923 613.258 89.8153 613.137 92.1024 615.334C94.4205 617.53 94.5629 621.187 92.4217 623.531Z" fill="#6B29D1"/>
<path d="M12.3128 599.751C10.1716 602.096 6.54849 602.216 4.26142 600.019C1.94339 597.823 1.79971 594.134 3.94092 591.79C6.08212 589.445 9.67431 589.325 11.9923 591.521C14.3104 593.717 14.454 597.406 12.3128 599.751Z" fill="#6B29D1"/>
<path d="M39.6415 625.466C37.5002 627.811 33.8771 627.931 31.559 625.736C29.241 623.54 29.0985 619.882 31.2398 617.538C33.381 615.193 36.9732 615.073 39.2913 617.269C41.6403 619.464 41.7827 623.122 39.6415 625.466Z" fill="#6B29D1"/>
<path d="M67.0038 651.212C64.8626 653.557 61.2394 653.677 58.9214 651.481C56.6033 649.286 56.4608 645.628 58.6021 643.284C60.7433 640.939 64.3665 640.818 66.6845 643.014C69.0014 645.179 69.145 648.868 67.0038 651.212Z" fill="#6B29D1"/>
<path d="M14.2241 653.145C12.0828 655.489 8.45966 655.61 6.17257 653.413C3.85451 651.217 3.71207 647.56 5.85329 645.215C7.99451 642.871 11.6177 642.75 13.9048 644.947C16.2216 647.111 16.3653 650.8 14.2241 653.145Z" fill="#6B29D1"/>
<path d="M41.5533 678.86C39.4121 681.205 35.789 681.325 33.5019 679.128C31.1839 676.932 31.0402 673.243 33.1826 670.93C35.3238 668.586 38.916 668.466 41.234 670.662C43.5521 672.858 43.6945 676.515 41.5533 678.86Z" fill="#6B29D1"/>
<path d="M16.1357 706.542C13.9944 708.887 10.3713 709.007 8.0532 706.812C5.73513 704.616 5.59145 700.927 7.73392 698.614C9.87516 696.269 13.4983 696.148 15.8164 698.344C18.1332 700.509 18.2769 704.198 16.1357 706.542Z" fill="#6B29D1"/>
</g>
</g>
<g opacity="0.75">
<g opacity="0.12">
<path d="M294.063 3.73568C292.11 5.74649 292.241 8.91053 294.354 10.7668C296.469 12.6502 299.774 12.5466 301.699 10.5367C303.652 8.52588 303.521 5.36185 301.408 3.50554C299.293 1.62218 295.988 1.72574 294.063 3.73568Z" fill="#6B29D1"/>
<path d="M270.847 27.4509C268.894 29.4616 269.025 32.6255 271.14 34.5088C273.254 36.392 276.559 36.2885 278.484 34.2786C280.409 32.2688 280.306 29.104 278.192 27.2208C276.105 25.3367 272.8 25.4402 270.847 27.4509Z" fill="#6B29D1"/>
<path d="M245.89 5.393C243.937 7.40384 244.068 10.5679 246.182 12.4513C248.297 14.3347 251.602 14.2311 253.555 12.2203C255.508 10.2094 255.377 7.04535 253.263 5.16198C251.148 3.2786 247.843 3.38216 245.89 5.393Z" fill="#6B29D1"/>
<path d="M247.633 51.1888C245.68 53.1996 245.811 56.3637 247.924 58.22C250.039 60.1033 253.344 59.9998 255.269 57.9898C257.222 55.979 257.092 52.842 254.977 50.9587C252.891 49.0744 249.586 49.178 247.633 51.1888Z" fill="#6B29D1"/>
<path d="M222.702 29.1089C220.749 31.1198 220.88 34.2839 222.994 36.1672C225.109 38.0506 228.414 37.947 230.339 35.9371C232.292 33.9262 232.162 30.7892 230.048 28.9059C227.932 26.9955 224.655 27.0981 222.702 29.1089Z" fill="#6B29D1"/>
<path d="M197.744 7.0527C195.79 9.06343 195.921 12.2274 198.036 14.1106C200.15 15.9939 203.455 15.8904 205.38 13.8805C207.334 11.8698 207.203 8.70585 205.088 6.82257C203.002 4.9384 199.697 5.04196 197.744 7.0527Z" fill="#6B29D1"/>
<path d="M224.445 74.9008C222.492 76.9116 222.623 80.0755 224.737 81.9318C226.851 83.8151 230.156 83.7116 232.11 81.7008C234.063 79.69 233.932 76.526 231.818 74.6698C229.677 72.8144 226.4 72.917 224.445 74.9008Z" fill="#6B29D1"/>
<path d="M199.487 52.8493C197.534 54.86 197.665 58.0239 199.779 59.8802C201.893 61.7634 205.198 61.6599 207.123 59.65C209.076 57.6393 208.946 54.5024 206.832 52.6192C204.746 50.735 201.441 50.8386 199.487 52.8493Z" fill="#6B29D1"/>
<path d="M174.556 30.7642C172.603 32.775 172.734 35.9389 174.847 37.7951C176.962 39.6784 180.267 39.5748 182.22 37.5641C184.173 35.5534 184.044 32.4165 181.929 30.5332C179.786 28.6508 176.509 28.7535 174.556 30.7642Z" fill="#6B29D1"/>
<path d="M149.598 8.71088C147.645 10.7216 147.776 13.8856 149.89 15.7688C152.005 17.6521 155.282 17.5495 157.235 15.5387C159.188 13.528 159.058 10.3911 156.944 8.50782C154.856 6.59661 151.551 6.70014 149.598 8.71088Z" fill="#6B29D1"/>
<path d="M201.231 98.6426C199.278 100.653 199.409 103.817 201.523 105.7C203.638 107.584 206.915 107.481 208.868 105.47C210.821 103.46 210.691 100.323 208.577 98.4394C206.489 96.5282 203.184 96.6318 201.231 98.6426Z" fill="#6B29D1"/>
<path d="M176.299 76.5583C174.346 78.5691 174.477 81.7331 176.592 83.6165C178.706 85.4998 182.011 85.3962 183.936 83.3863C185.89 81.3755 185.758 78.2115 183.644 76.3282C181.531 74.4719 178.254 74.5745 176.299 76.5583Z" fill="#6B29D1"/>
<path d="M151.342 54.5035C149.388 56.5143 149.52 59.6782 151.633 61.5345C153.748 63.4178 157.053 63.3142 158.978 61.3043C160.931 59.2936 160.8 56.1297 158.686 54.2734C156.573 52.4172 153.295 52.4928 151.342 54.5035Z" fill="#6B29D1"/>
<path d="M126.411 32.4233C124.457 34.4341 124.588 37.5981 126.702 39.4544C128.816 41.3377 132.121 41.2341 134.046 39.2242C136 37.2134 135.87 34.0765 133.755 32.1931C131.642 30.3369 128.365 30.4395 126.411 32.4233Z" fill="#6B29D1"/>
</g>
<g opacity="0.12">
<path d="M108.419 16.5493C106.466 18.56 103.161 18.6636 101.075 16.7794C98.9604 14.8961 98.8293 11.7322 100.784 9.74843C102.737 7.73765 106.014 7.63498 108.128 9.5183C110.214 11.4025 110.344 14.5394 108.419 16.5493Z" fill="#6B29D1"/>
</g>
</g>
<path opacity="0.5" d="M309.522 706.201C298.292 696.086 280.106 696.086 268.877 706.201L256.688 717.181C245.459 727.297 227.273 727.297 216.043 717.181C204.814 707.066 204.814 690.684 216.043 680.568L347.364 562.272C358.593 552.157 358.593 535.774 347.364 525.659C336.135 515.561 317.948 515.543 306.719 525.659L121.213 692.749C109.984 702.847 91.7974 702.847 80.5683 692.749C69.3391 682.634 69.3391 666.251 80.5683 656.136L146.944 596.343C158.173 586.228 158.173 569.845 146.944 559.748C135.715 549.632 117.528 549.632 106.299 559.748L83.0767 580.667C71.8475 590.765 53.6614 590.765 42.4322 580.667C31.2031 570.552 31.2031 554.169 42.4322 544.054L116.157 477.641C127.386 467.526 127.386 451.143 116.157 441.028C104.927 430.913 86.7414 430.913 75.5122 441.028L-333.578 809.615C-344.807 819.731 -344.807 836.113 -333.578 846.228C-322.349 856.344 -304.163 856.344 -292.934 846.228L-237.964 796.71C-226.735 786.595 -208.548 786.613 -197.319 796.71C-186.09 806.826 -186.09 823.208 -197.319 833.324L-306.201 931.389C-317.43 941.504 -317.43 957.887 -306.201 968.002C-294.972 978.118 -276.786 978.118 -265.556 968.002L-205.354 913.771C-194.125 903.655 -175.939 903.655 -164.71 913.771C-153.48 923.886 -153.48 940.269 -164.71 950.384L-171.02 956.051C-182.249 966.166 -182.249 982.549 -171.02 992.664C-159.791 1002.78 -141.605 1002.78 -130.375 992.664L-25.1583 897.883C-13.9292 887.767 4.25699 887.767 15.4666 897.883C26.6957 907.998 26.6957 924.38 15.4666 934.496L-143.662 1077.82C-154.891 1087.94 -154.891 1104.32 -143.662 1114.42C-132.433 1124.52 -114.247 1124.54 -103.037 1114.42L309.522 742.814C320.731 732.717 320.731 716.316 309.522 706.201Z" fill="#E8E0F9"/>
</g>
<g opacity="0.6">
<path opacity="0.4" d="M907.141 -143.31C892.127 -156.835 867.81 -156.835 852.796 -143.31L836.498 -128.629C821.483 -115.104 797.167 -115.104 782.152 -128.629C767.138 -142.153 767.138 -164.057 782.152 -177.582L957.739 -335.748C972.754 -349.273 972.754 -371.177 957.739 -384.702C942.725 -398.203 918.408 -398.227 903.394 -384.702L655.356 -161.296C640.341 -147.795 616.025 -147.795 601.01 -161.296C585.996 -174.82 585.996 -196.724 601.01 -210.249L689.76 -290.194C704.775 -303.719 704.775 -325.623 689.76 -339.124C674.746 -352.648 650.43 -352.648 635.415 -339.124L604.365 -311.154C589.35 -297.652 565.034 -297.652 550.019 -311.154C535.005 -324.678 535.005 -346.582 550.019 -360.107L648.595 -448.903C663.61 -462.428 663.61 -484.332 648.595 -497.856C633.581 -511.381 609.264 -511.381 594.25 -497.856L47.2608 -5.04126C32.2464 8.48346 32.2464 30.3875 47.2608 43.9122C62.2751 57.437 86.5916 57.437 101.606 43.9122L175.106 -22.2953C190.12 -35.8201 214.436 -35.7965 229.451 -22.2953C244.465 -8.7706 244.465 13.1334 229.451 26.6581L83.8665 157.775C68.8521 171.3 68.8521 193.204 83.8665 206.728C98.8808 220.253 123.197 220.253 138.212 206.728L218.708 134.219C233.722 120.694 258.038 120.694 273.053 134.219C288.067 147.743 288.067 169.647 273.053 183.172L264.615 190.749C249.601 204.274 249.601 226.178 264.615 239.702C279.63 253.227 303.946 253.227 318.961 239.702L459.645 112.976C474.659 99.4509 498.976 99.4509 513.964 112.976C528.978 126.5 528.978 148.404 513.964 161.929L301.195 366.935C286.18 380.46 286.18 402.364 301.195 415.865C316.209 429.366 340.526 429.39 355.514 415.865L907.141 -94.3565C922.129 -107.858 922.129 -129.785 907.141 -143.31Z" fill="#E8E0F9"/>
</g>
</g>
<defs>
<clipPath id="clip0">
<rect width="375" height="800" fill="white"/>
</clipPath>
</defs>
</svg>
