<svg width="240" height="169" viewBox="0 0 240 169" fill="none" xmlns="http://www.w3.org/2000/svg">
<path d="M168.621 79.9688H163.225V87.8429L172.489 86.0226C172.497 85.9985 172.508 85.9753 172.521 85.9531C173.101 84.6346 172.977 83.1124 172.19 81.9055C171.404 80.6987 170.061 79.9703 168.621 79.9688V79.9688Z" fill="black"/>
<path d="M175.409 73.9874H180.37C180.599 73.9891 180.8 73.8337 180.855 73.6116C181.915 68.7257 181.295 63.6858 180.235 58.8075C180.18 58.5867 179.982 58.4317 179.754 58.4316H172.895C167.554 58.4316 163.225 62.7611 163.225 68.1019V80.7863L170.741 79.3092C171.843 76.9415 170.054 74.1941 175.409 73.9874Z" fill="#E9E9E9"/>
<path d="M179.629 73.9865H180.381C180.61 73.9881 180.81 73.8328 180.866 73.6106C181.926 68.7248 181.306 63.6848 180.246 58.8065C180.191 58.5857 179.992 58.4308 179.765 58.4307H177.134C176.931 59.9153 176.831 61.4122 176.833 62.9106" stroke="black" stroke-width="0.383505"/>
<path fill-rule="evenodd" clip-rule="evenodd" d="M175.409 73.9874H180.37C180.599 73.9891 180.8 73.8338 180.855 73.6116C181.915 68.7257 181.295 63.6858 180.235 58.8075C180.18 58.5867 179.982 58.4317 179.754 58.4316H172.895C167.554 58.4316 163.225 62.7611 163.225 68.1019V80.7863L170.741 79.3092C171.843 76.9415 170.054 74.1941 175.409 73.9874V73.9874Z" stroke="black" stroke-width="0.383505"/>
<mask id="path-5-inside-1" fill="white">
<path d="M38.6072 112.921C38.6072 112.921 38.8135 112.811 39.1795 112.684C39.5469 112.554 40.0753 112.403 40.7137 112.335C41.3508 112.27 42.1051 112.272 42.9262 112.44C43.7545 112.591 44.6129 113.002 45.5905 113.422C47.545 114.262 49.9147 115.293 52.615 116.519C53.9626 117.139 55.3972 117.797 56.9091 118.492C58.4125 119.21 59.9925 119.964 61.6419 120.751C64.9322 122.346 68.4818 124.112 72.2278 125.999C75.9744 127.887 79.93 129.865 84.0316 131.888C86.0882 132.883 88.1796 133.895 90.2965 134.919L90.694 135.111L90.7935 135.159C90.6226 135.098 90.7758 135.154 90.751 135.146L90.802 135.167L91.0063 135.251L91.8235 135.59C92.2674 135.71 92.6564 135.899 93.1796 135.965C93.6726 136.088 94.1807 136.093 94.6875 136.131C95.2506 136.144 95.8707 136.135 96.462 136.138C101.246 136.14 106.108 136.142 110.968 136.144C115.829 136.144 120.689 136.143 125.474 136.142C127.867 136.141 130.24 136.14 132.584 136.139C133.757 136.138 134.922 136.137 136.08 136.137H136.296H136.351C136.082 136.148 136.307 136.138 136.261 136.14L136.369 136.133L136.801 136.103L137.231 136.074C137.36 136.059 137.41 136.025 137.502 136.006C137.673 135.947 137.819 135.962 138.02 135.871C138.215 135.793 138.411 135.72 138.608 135.65C139.361 135.28 140.018 134.743 140.528 134.098C140.642 133.927 140.773 133.767 140.884 133.595C140.974 133.41 141.066 133.227 141.162 133.046L141.235 132.906L141.315 132.715L141.476 132.333L141.797 131.573C142.648 129.553 143.483 127.575 144.294 125.651C145.914 121.8 147.447 118.161 148.828 114.787C149.175 113.944 149.515 113.119 149.848 112.313C150.014 111.91 150.178 111.512 150.341 111.117C150.417 110.937 150.668 110.263 150.658 110.129C150.686 110.014 150.715 109.888 150.725 109.728C150.742 109.579 150.767 109.432 150.758 109.284C150.771 108.989 150.74 108.698 150.696 108.414C150.603 107.847 150.404 107.312 150.123 106.849C149.568 105.915 148.743 105.258 147.87 104.937C147.76 104.9 147.65 104.863 147.542 104.827C147.445 104.79 147.257 104.743 147.121 104.702C146.825 104.617 146.536 104.535 146.254 104.455C145.689 104.294 145.15 104.141 144.638 103.995C142.595 103.404 140.979 102.98 139.881 102.672C138.781 102.376 138.193 102.219 138.193 102.219L139.312 98.5029C139.312 98.5029 139.888 98.6954 140.97 99.0562C142.055 99.4052 143.637 99.9435 145.666 100.579C146.173 100.739 146.707 100.909 147.267 101.086C147.548 101.175 147.834 101.265 148.126 101.358C148.284 101.411 148.397 101.439 148.594 101.512C148.781 101.582 148.97 101.652 149.161 101.723C150.666 102.347 152.123 103.508 153.06 105.144C154.006 106.779 154.406 108.826 153.896 110.971L153.788 111.395L153.683 111.699L153.577 111.997L153.489 112.23L153.43 112.378C153.27 112.773 153.108 113.172 152.945 113.577C152.618 114.385 152.283 115.212 151.941 116.057C150.564 119.432 149.111 123.104 147.571 126.988C146.803 128.93 146.013 130.925 145.207 132.965L144.904 133.732L144.752 134.117L144.674 134.309L144.565 134.542L144.098 135.483C143.915 135.782 143.707 136.067 143.505 136.358C142.65 137.482 141.531 138.419 140.238 139.064L139.231 139.466C138.907 139.605 138.47 139.674 138.089 139.765C137.901 139.803 137.674 139.856 137.517 139.874L137.087 139.909L136.655 139.945L136.548 139.954C136.466 139.957 136.655 139.952 136.35 139.963H136.296H136.079C134.922 139.963 133.757 139.962 132.584 139.962C130.239 139.961 127.866 139.96 125.473 139.959C120.689 139.958 115.828 139.957 110.967 139.956C106.106 139.958 101.246 139.961 96.4613 139.963C95.8583 139.962 95.2559 139.961 94.6548 139.96C93.9718 139.942 93.2896 139.923 92.6132 139.834C91.9538 139.782 91.206 139.622 90.5002 139.485L89.645 139.255L89.4316 139.198L89.3779 139.184C89.3183 139.164 89.4362 139.209 89.2305 139.135L89.1245 139.102L88.7028 138.973C86.4543 138.283 84.2332 137.601 82.0489 136.932C77.6671 135.623 73.4221 134.382 69.3926 133.216C65.363 132.05 61.56 130.929 58.0641 129.859C56.3198 129.313 54.6481 128.791 53.059 128.294C51.4783 127.774 49.9789 127.281 48.5691 126.818C45.7555 125.879 43.3178 125.023 41.3141 124.309C40.3123 123.951 39.4035 123.668 38.6937 123.215C37.9773 122.78 37.424 122.268 37.0011 121.786C36.5794 121.303 36.2945 120.832 36.1145 120.487C35.9324 120.145 35.8558 119.924 35.8558 119.924L38.6072 112.921Z"/>
</mask>
<path d="M38.6072 112.921C38.6072 112.921 38.8135 112.811 39.1795 112.684C39.5469 112.554 40.0753 112.403 40.7137 112.335C41.3508 112.27 42.1051 112.272 42.9262 112.44C43.7545 112.591 44.6129 113.002 45.5905 113.422C47.545 114.262 49.9147 115.293 52.615 116.519C53.9626 117.139 55.3972 117.797 56.9091 118.492C58.4125 119.21 59.9925 119.964 61.6419 120.751C64.9322 122.346 68.4818 124.112 72.2278 125.999C75.9744 127.887 79.93 129.865 84.0316 131.888C86.0882 132.883 88.1796 133.895 90.2965 134.919L90.694 135.111L90.7935 135.159C90.6226 135.098 90.7758 135.154 90.751 135.146L90.802 135.167L91.0063 135.251L91.8235 135.59C92.2674 135.71 92.6564 135.899 93.1796 135.965C93.6726 136.088 94.1807 136.093 94.6875 136.131C95.2506 136.144 95.8707 136.135 96.462 136.138C101.246 136.14 106.108 136.142 110.968 136.144C115.829 136.144 120.689 136.143 125.474 136.142C127.867 136.141 130.24 136.14 132.584 136.139C133.757 136.138 134.922 136.137 136.08 136.137H136.296H136.351C136.082 136.148 136.307 136.138 136.261 136.14L136.369 136.133L136.801 136.103L137.231 136.074C137.36 136.059 137.41 136.025 137.502 136.006C137.673 135.947 137.819 135.962 138.02 135.871C138.215 135.793 138.411 135.72 138.608 135.65C139.361 135.28 140.018 134.743 140.528 134.098C140.642 133.927 140.773 133.767 140.884 133.595C140.974 133.41 141.066 133.227 141.162 133.046L141.235 132.906L141.315 132.715L141.476 132.333L141.797 131.573C142.648 129.553 143.483 127.575 144.294 125.651C145.914 121.8 147.447 118.161 148.828 114.787C149.175 113.944 149.515 113.119 149.848 112.313C150.014 111.91 150.178 111.512 150.341 111.117C150.417 110.937 150.668 110.263 150.658 110.129C150.686 110.014 150.715 109.888 150.725 109.728C150.742 109.579 150.767 109.432 150.758 109.284C150.771 108.989 150.74 108.698 150.696 108.414C150.603 107.847 150.404 107.312 150.123 106.849C149.568 105.915 148.743 105.258 147.87 104.937C147.76 104.9 147.65 104.863 147.542 104.827C147.445 104.79 147.257 104.743 147.121 104.702C146.825 104.617 146.536 104.535 146.254 104.455C145.689 104.294 145.15 104.141 144.638 103.995C142.595 103.404 140.979 102.98 139.881 102.672C138.781 102.376 138.193 102.219 138.193 102.219L139.312 98.5029C139.312 98.5029 139.888 98.6954 140.97 99.0562C142.055 99.4052 143.637 99.9435 145.666 100.579C146.173 100.739 146.707 100.909 147.267 101.086C147.548 101.175 147.834 101.265 148.126 101.358C148.284 101.411 148.397 101.439 148.594 101.512C148.781 101.582 148.97 101.652 149.161 101.723C150.666 102.347 152.123 103.508 153.06 105.144C154.006 106.779 154.406 108.826 153.896 110.971L153.788 111.395L153.683 111.699L153.577 111.997L153.489 112.23L153.43 112.378C153.27 112.773 153.108 113.172 152.945 113.577C152.618 114.385 152.283 115.212 151.941 116.057C150.564 119.432 149.111 123.104 147.571 126.988C146.803 128.93 146.013 130.925 145.207 132.965L144.904 133.732L144.752 134.117L144.674 134.309L144.565 134.542L144.098 135.483C143.915 135.782 143.707 136.067 143.505 136.358C142.65 137.482 141.531 138.419 140.238 139.064L139.231 139.466C138.907 139.605 138.47 139.674 138.089 139.765C137.901 139.803 137.674 139.856 137.517 139.874L137.087 139.909L136.655 139.945L136.548 139.954C136.466 139.957 136.655 139.952 136.35 139.963H136.296H136.079C134.922 139.963 133.757 139.962 132.584 139.962C130.239 139.961 127.866 139.96 125.473 139.959C120.689 139.958 115.828 139.957 110.967 139.956C106.106 139.958 101.246 139.961 96.4613 139.963C95.8583 139.962 95.2559 139.961 94.6548 139.96C93.9718 139.942 93.2896 139.923 92.6132 139.834C91.9538 139.782 91.206 139.622 90.5002 139.485L89.645 139.255L89.4316 139.198L89.3779 139.184C89.3183 139.164 89.4362 139.209 89.2305 139.135L89.1245 139.102L88.7028 138.973C86.4543 138.283 84.2332 137.601 82.0489 136.932C77.6671 135.623 73.4221 134.382 69.3926 133.216C65.363 132.05 61.56 130.929 58.0641 129.859C56.3198 129.313 54.6481 128.791 53.059 128.294C51.4783 127.774 49.9789 127.281 48.5691 126.818C45.7555 125.879 43.3178 125.023 41.3141 124.309C40.3123 123.951 39.4035 123.668 38.6937 123.215C37.9773 122.78 37.424 122.268 37.0011 121.786C36.5794 121.303 36.2945 120.832 36.1145 120.487C35.9324 120.145 35.8558 119.924 35.8558 119.924L38.6072 112.921Z" fill="#B7B7B7" stroke="black" stroke-width="0.945271" mask="url(#path-5-inside-1)"/>
<path d="M193.74 104.627C206.168 104.627 216.28 114.738 216.28 127.166C216.28 139.595 206.168 149.706 193.74 149.706C181.311 149.706 171.2 139.595 171.2 127.166C171.2 114.738 181.311 104.627 193.74 104.627ZM193.74 94.2588C175.566 94.2588 160.832 108.992 160.832 127.166C160.832 145.34 175.566 160.074 193.74 160.074C211.914 160.074 226.647 145.34 226.647 127.166C226.647 108.992 211.914 94.2588 193.74 94.2588Z" fill="black"/>
<path d="M193.74 107.332C204.677 107.332 213.575 116.23 213.575 127.167C213.575 138.103 204.677 147.001 193.74 147.001C182.803 147.001 173.905 138.103 173.905 127.167C173.905 116.23 182.803 107.332 193.74 107.332ZM193.74 104.627C181.311 104.627 171.2 114.738 171.2 127.167C171.2 139.595 181.311 149.706 193.74 149.706C206.168 149.706 216.28 139.595 216.28 127.167C216.28 114.738 206.168 104.627 193.74 104.627Z" fill="#E3E3E3"/>
<path d="M199.265 132.749C202.317 129.697 202.317 124.748 199.265 121.696C196.213 118.644 191.265 118.644 188.212 121.696C185.16 124.748 185.16 129.697 188.213 132.749C191.265 135.801 196.213 135.801 199.265 132.749Z" fill="#1A1A1A"/>
<path d="M166.376 104.029C166.376 104.029 169.92 99.2142 176.909 95.611C183.898 92.0077 190.08 91.6895 190.08 91.6895C190.08 91.6895 189.802 93.1542 188.522 94.2582C187.243 95.3628 184.652 95.5671 179.8 97.8588C174.948 100.151 170.75 103.624 170.75 103.624C170.75 103.624 171.24 103.578 169.229 104.028C167.219 104.479 166.376 104.029 166.376 104.029Z" fill="#CCCCCC"/>
<path d="M162.597 59.7059L162.491 59.4948L162.28 59.6009L159.08 61.2088L158.869 61.3149L158.975 61.526L192.482 128.204L192.588 128.415L192.799 128.309L195.999 126.701L196.21 126.595L196.104 126.384L162.597 59.7059Z" fill="#EAEAE8" stroke="black" stroke-width="0.472636"/>
<path d="M192.613 130.913C192.613 130.913 188.362 122.405 184.11 113.897C181.985 109.643 179.859 105.388 178.265 102.198C178.194 102.109 178.224 101.97 178.181 101.87C178.116 101.78 178.031 101.702 177.955 101.621C177.794 101.463 177.613 101.321 177.446 101.177C177.099 100.897 176.845 100.593 176.661 100.28C176.257 99.6734 175.938 99.1267 175.69 98.669C175.193 97.7549 175.005 97.1833 175.005 97.1833L181.558 93.8799C181.558 93.8799 181.905 94.3703 182.345 95.3139C182.566 95.7847 182.816 96.3661 183.064 97.053C183.206 97.3869 183.3 97.7713 183.319 98.2172C183.334 98.4372 183.341 98.667 183.372 98.8896C183.393 98.999 183.405 99.1136 183.438 99.219C183.493 99.3133 183.623 99.3716 183.652 99.4816C185.27 102.661 187.427 106.899 189.583 111.137C193.897 119.614 198.21 128.092 198.21 128.092L192.613 130.913Z" fill="#1C1C1C"/>
<path d="M69.9996 87.5001L92.5656 136.165H136.757L154.59 93.817C151.4 89.4902 150.358 88.0778 147.168 83.751L106.813 85.8469L69.9996 87.5001Z" fill="#E9E9E9"/>
<path d="M46.4388 116.474C52.3652 116.474 57.187 121.296 57.187 127.222C57.187 133.149 52.3652 137.971 46.4388 137.971C40.5123 137.971 35.6905 133.149 35.6905 127.222C35.6905 121.296 40.5123 116.474 46.4388 116.474ZM46.4388 112.542C38.3443 112.542 31.7592 119.127 31.7592 127.222C31.7592 135.316 38.3443 141.901 46.4388 141.901C54.5332 141.901 61.1184 135.316 61.1184 127.222C61.1184 119.127 54.5332 112.542 46.4388 112.542Z" fill="#C3C4C0"/>
<path d="M45.8821 104.627C58.3105 104.627 68.4217 114.738 68.4217 127.166C68.4217 139.595 58.3105 149.706 45.8821 149.706C33.4536 149.706 23.3425 139.595 23.3425 127.166C23.3425 114.738 33.4536 104.627 45.8821 104.627ZM45.8821 94.2588C27.7079 94.2588 12.9746 108.992 12.9746 127.166C12.9746 145.34 27.7079 160.074 45.8821 160.074C64.0563 160.074 78.7896 145.34 78.7896 127.166C78.7896 108.992 64.0563 94.2588 45.8821 94.2588Z" fill="black"/>
<path d="M45.8818 107.332C56.8186 107.332 65.7165 116.23 65.7165 127.167C65.7165 138.103 56.8186 147.001 45.8818 147.001C34.9449 147.001 26.0471 138.103 26.0471 127.167C26.0471 116.23 34.9449 107.332 45.8818 107.332ZM45.8818 104.627C33.4533 104.627 23.3422 114.738 23.3422 127.167C23.3422 139.595 33.4533 149.706 45.8818 149.706C58.3102 149.706 68.4214 139.595 68.4214 127.167C68.4214 114.738 58.3102 104.627 45.8818 104.627Z" fill="#E3E3E3"/>
<path d="M45.8813 124.912C47.1241 124.912 48.135 125.923 48.135 127.166C48.135 128.409 47.1241 129.42 45.8813 129.42C44.6385 129.42 43.6275 128.409 43.6275 127.166C43.6275 125.923 44.6385 124.912 45.8813 124.912ZM45.8813 115.445C39.4186 115.445 34.1606 120.703 34.1606 127.166C34.1606 133.629 39.4186 138.887 45.8813 138.887C52.344 138.887 57.6019 133.629 57.6019 127.166C57.6019 120.703 52.344 115.445 45.8813 115.445Z" fill="#CCCCCC"/>
<path d="M140.395 112.255H118.911V106.982C118.911 103.683 121.585 101.009 124.883 101.009H134.422C137.721 101.009 140.395 103.683 140.395 106.982V112.255Z" fill="black"/>
<path d="M45.8826 84.2318C45.8826 84.2318 43.3767 84.3071 39.7839 85.1708C36.1911 86.0351 34.395 86.9361 34.395 86.9361C34.395 86.9361 35.4027 88.4008 37.2054 88.4008C39.008 88.4008 45.1348 87.837 48.4951 88.4008C51.8555 88.9646 55.5216 89.5395 58.6476 90.6042C61.7728 91.6688 63.1027 89.3411 63.1027 89.3411L64.1333 86.9354C64.1333 86.9354 55.5642 84.5035 53.1854 84.2305C50.8065 83.9594 45.8826 84.2318 45.8826 84.2318Z" fill="#CCCCCC"/>
<path d="M63.5002 86.7363L59.8632 90.773C59.8632 90.773 64.302 91.3244 69.1481 94.2578C73.9941 97.1913 79.6071 106.48 79.6071 106.48L73.9999 87.4996L63.5002 86.7363Z" fill="#CCCCCC"/>
<path d="M153.062 69.3007L155.86 68.0684L154.881 66.0451L164.316 61.1133L165.454 63.2701L159.953 66.144L168.046 83.4434L173.584 80.8367L174.526 82.9922L164.815 87.5004L162.524 82.9922L148.587 87.5004L151.893 71.7142L153.062 69.3007Z" fill="#222222"/>
<path d="M103.146 82.8203L103.146 82.8197C103.586 80.7951 104.363 78.945 106.513 76.8194L106.514 76.8188C107.054 76.2788 107.642 75.7399 108.354 75.1756C109.657 74.1425 111.257 73.0348 113.277 71.8023C120.924 67.1556 131.709 65.5025 140.091 65.6502L140.091 65.6502C143.002 65.6995 145.397 66.5305 147.304 67.6305L147.304 67.6307L147.31 67.6337C147.919 67.9508 148.479 68.316 148.993 68.7063L148.993 68.7063L148.995 68.7083C150.244 69.6141 151.186 70.5628 151.817 71.2848C152.132 71.6457 152.368 71.9496 152.526 72.1628C152.605 72.2694 152.664 72.3533 152.703 72.4102C152.72 72.4358 152.734 72.4559 152.743 72.4702L152.756 72.5516C152.768 72.6257 152.784 72.735 152.805 72.8752C152.846 73.1555 152.903 73.5593 152.967 74.0528C153.094 75.0401 153.247 76.3855 153.348 77.8189C153.45 79.253 153.5 80.7718 153.424 82.1069C153.348 83.4489 153.145 84.5797 152.757 85.2567C151.95 86.6539 150.583 87.619 149.406 88.2367C148.818 88.5448 148.282 88.7644 147.893 88.907C147.698 88.9782 147.541 89.0301 147.432 89.0641C147.378 89.0811 147.336 89.0936 147.308 89.1018L147.284 89.1084H103.119C103.118 89.1026 103.116 89.0965 103.115 89.0903C103.096 89.0029 103.069 88.8736 103.04 88.7074C102.981 88.375 102.91 87.8951 102.862 87.3078C102.767 86.1325 102.768 84.5306 103.146 82.8203Z" fill="#E9E9E9" stroke="black" stroke-width="0.3"/>
<path d="M130.084 84.0315H149.831C150.122 84.0308 150.4 83.911 150.598 83.7005C150.797 83.4901 150.898 83.2078 150.878 82.9209C150.28 74.7567 143.402 68.4346 135.116 68.4346L130.084 84.0315Z" fill="#CCCCCC"/>
<path d="M65.0785 90.5945L50.7888 120.899L52.0118 121.476L66.3015 91.1712L65.0785 90.5945Z" fill="#CCCCCC"/>
<path d="M56.6246 105.662L50.6929 118.947L53.9627 120.407L59.8944 107.122L56.6246 105.662Z" fill="#222222"/>
<path d="M66.9649 92.8021C67.7564 92.0107 67.7564 90.7276 66.9649 89.9362C66.1735 89.1448 64.8904 89.1448 64.099 89.9362C63.3076 90.7276 63.3076 92.0107 64.099 92.8021C64.8904 93.5935 66.1735 93.5935 66.9649 92.8021Z" fill="#B0B1AC"/>
<path d="M52.8352 122.623C53.6266 121.832 53.6266 120.549 52.8352 119.757C52.0438 118.966 50.7606 118.966 49.9692 119.757C49.1778 120.549 49.1778 121.832 49.9692 122.623C50.7606 123.415 52.0438 123.415 52.8352 122.623Z" fill="#B0B1AC"/>
<path d="M60.8807 91.4224L59.4103 94.5391L66.7487 98.0013L68.2191 94.8847L60.8807 91.4224Z" fill="#222222"/>
<path d="M50.6133 113.376L49.1428 116.493L56.4812 119.955L57.9517 116.839L50.6133 113.376Z" fill="#222222"/>
<path d="M57.3297 116.186C57.2956 116.186 57.2616 116.183 57.2269 116.174L51.2965 114.795C51.0542 114.739 50.9036 114.497 50.9599 114.254C51.0169 114.012 51.2592 113.859 51.5008 113.918L57.4312 115.297C57.6734 115.353 57.824 115.595 57.7677 115.838C57.7193 116.046 57.534 116.186 57.3297 116.186Z" fill="#222222"/>
<path d="M158.655 56.8467L153.396 59.5509L154.882 61.5048L158.054 63.7494L159.953 62.8275V59.1004L158.655 56.8467Z" fill="#CCCCCC"/>
<path d="M157.751 61.8749C157.028 61.8749 156.376 61.3747 156.212 60.64C155.508 57.4807 154.118 54.1812 153.328 53.7654C152.47 53.77 151.986 53.8506 151.743 53.9115L151.704 53.9913L141.052 58.8806C140.261 59.2447 139.323 58.897 138.96 58.1047C138.597 57.3124 138.944 56.3761 139.736 56.0127L149.631 51.4698C150.69 50.6094 152.666 50.6094 153.396 50.6094C156.719 50.6094 158.517 56.4638 159.294 59.9538C159.482 60.8044 158.947 61.6464 158.096 61.8363C157.98 61.8625 157.865 61.8749 157.751 61.8749Z" fill="#1A1A1A"/>
<path d="M150.69 55.5788C152.231 55.5788 153.48 54.3299 153.48 52.7894C153.48 51.2488 152.231 50 150.69 50C149.15 50 147.901 51.2488 147.901 52.7894C147.901 54.3299 149.15 55.5788 150.69 55.5788Z" fill="#231717"/>
<path d="M139.141 59.9269C138.366 59.9269 137.626 59.4803 137.289 58.7273C136.83 57.7052 137.288 56.505 138.31 56.0466L149.711 50.938C150.734 50.479 151.933 50.9373 152.391 51.9595C152.85 52.9816 152.392 54.1818 151.37 54.6401L139.969 59.7488C139.7 59.8692 139.418 59.9269 139.141 59.9269Z" fill="black"/>
<path d="M138.808 59.483C139.684 59.483 140.393 58.7732 140.393 57.8977C140.393 57.0222 139.684 56.3125 138.808 56.3125C137.933 56.3125 137.223 57.0222 137.223 57.8977C137.223 58.7732 137.933 59.483 138.808 59.483Z" fill="#231717"/>
<path d="M103.244 81.2502V81.112L102.23 80.3996C102.23 80.3996 86.4562 81.076 80.2541 81.076C71.5762 81.076 61.9974 79.2728 58.6462 78.747C55.295 78.2212 55.2354 77.4695 52.2038 77.1316C49.1721 76.7937 49.2658 77.1316 49.2658 77.1316L48.2797 78.3109C65.9562 83.925 85.0694 84.9478 103.244 81.2502Z" fill="black"/>
<path d="M103.244 81.2508C85.0689 84.9484 65.9557 83.9256 48.2792 78.3115L46.4386 80.5136C46.4386 80.5136 47.9128 82.5804 52.0695 84.1391C52.6588 84.5052 53.4982 84.898 54.1478 85.1783C56.0133 85.983 57.3255 86.5013 59.3436 86.737C62.9141 87.1548 71.0834 88.3278 81.1553 88.7403C94.9044 89.304 100.539 89.4167 102.117 89.304C103.695 89.1914 103.244 87.9519 103.244 87.9519V81.2508Z" fill="#CCCCCC"/>
<path d="M110.516 96.8964C110.516 96.8964 110.285 107.159 108.336 108.848C106.388 110.536 105.349 110.218 105.349 110.218H93.3974C93.3974 110.218 91.1889 109.887 90.28 108.977C89.3705 108.068 87.9418 104.301 87.0323 102.352C86.1228 100.403 85.6716 97.8053 85.6716 97.8053C85.6716 97.8053 85.4732 97.2205 86.4476 96.571C87.4219 95.9215 91.4488 96.2462 91.4488 96.2462C91.4488 96.2462 98.3339 96.571 99.4378 96.6358C100.542 96.7007 108.726 96.9606 109.375 96.7007C110.025 96.4407 110.515 96.5055 110.515 96.5055V96.8964H110.516Z" fill="#E9E9E9"/>
<path d="M195.857 127.348C196.059 126.49 195.528 125.63 194.67 125.428C193.812 125.225 192.952 125.756 192.749 126.614C192.547 127.472 193.078 128.332 193.936 128.535C194.794 128.737 195.654 128.206 195.857 127.348Z" fill="#EAEBED"/>
<path d="M118.911 112.255H140.302L135.364 127.724H120.777L118.911 112.255Z" fill="black"/>
<path d="M115.212 40.0024C112.669 39.8863 110.22 39.3174 107.863 38.2958V32.5144C109.21 33.1994 110.673 33.774 112.252 34.2384C113.83 34.6912 115.218 34.9175 116.413 34.9175C117.4 34.9175 118.12 34.8014 118.573 34.5693C119.037 34.3255 119.269 33.9249 119.269 33.3677C119.269 32.9846 119.101 32.6595 118.764 32.3925C118.439 32.1255 117.888 31.8237 117.11 31.487C116.344 31.1503 115.305 30.744 113.993 30.268C112.519 29.7224 111.329 29.1129 110.423 28.4396C109.518 27.7546 108.856 26.9942 108.438 26.1584C108.032 25.3109 107.828 24.2603 107.828 23.0065C107.828 21.0909 108.444 19.5934 109.674 18.5137C110.905 17.434 112.751 16.7665 115.212 16.5111V14.1254H118.817V16.4763C121.127 16.604 123.454 17.1728 125.8 18.1828L123.727 23.1458C121.301 22.0545 119.113 21.5089 117.162 21.5089C116.233 21.5089 115.578 21.625 115.194 21.8572C114.823 22.0777 114.637 22.4086 114.637 22.8497C114.637 23.2328 114.771 23.5521 115.038 23.8075C115.316 24.0513 115.792 24.3299 116.466 24.6434C117.139 24.9452 118.074 25.2993 119.269 25.7056C121.696 26.5647 123.437 27.5457 124.493 28.6486C125.55 29.7398 126.078 31.1503 126.078 32.8801C126.078 34.8305 125.457 36.4151 124.215 37.6341C122.984 38.8531 121.185 39.6077 118.817 39.8979V43.2588H115.212V40.0024Z" fill="#44E0B7"/>
<path d="M43.1988 64C43.1988 64.6621 42.6621 65.1988 42 65.1988C41.3379 65.1988 40.8012 64.6621 40.8012 64L43.1988 64ZM83 28L71.0327 34.9577L70.9907 21.1148L83 28ZM40.8012 64C40.8012 55.8953 40.7998 49.5339 41.2787 44.5904C41.7565 39.6587 42.7263 35.9253 44.8269 33.2051C46.9607 30.442 50.112 28.9089 54.5091 28.0331C58.8809 27.1624 64.6496 26.91 72.1942 26.8339L72.2184 29.2315C64.6598 29.3077 59.1012 29.5633 54.9775 30.3846C50.879 31.2009 48.3667 32.5442 46.7246 34.6705C45.0495 36.8397 44.1314 40.0089 43.6652 44.8216C43.2002 49.6226 43.1988 55.8475 43.1988 64L40.8012 64Z" fill="#CCCCCC"/>
<path d="M150.25 31.4518C149.588 31.4518 149.051 30.915 149.051 30.2529C149.051 29.5908 149.588 29.0541 150.25 29.0541L150.25 31.4518ZM207.34 82.4238L200.392 70.4505L214.235 70.4204L207.34 82.4238ZM150.25 29.0541C163.44 29.0541 173.653 29.0531 181.518 29.7047C189.362 30.3545 195.081 31.664 199.163 34.4328C203.318 37.251 205.606 41.4578 206.88 47.4594C208.144 53.4145 208.442 61.2907 208.515 71.6203L206.117 71.6372C206.044 61.2789 205.741 53.6392 204.535 47.9573C203.339 42.322 201.287 38.7708 197.817 36.417C194.274 34.0138 189.085 32.7374 181.32 32.0942C173.577 31.4527 163.482 31.4518 150.25 31.4518L150.25 29.0541Z" fill="#CCCCCC"/>
</svg>
