<svg width="213" height="166" viewBox="0 0 213 166" fill="none" xmlns="http://www.w3.org/2000/svg">
<path d="M96.6869 38.0684H100.427V42.6997H96.6869V38.0684Z" fill="white"/>
<path d="M86.7634 21.8193H90.5035V26.4507H86.7634V21.8193Z" fill="white"/>
<path d="M44.5647 54.2588H143.942C146.929 54.2582 149.7 55.8132 151.256 58.3626L173.719 95.1776L204.675 104.882C209.459 106.383 212.629 110.922 212.391 115.93L210.986 145.334H1.11636V126.481C1.11588 110.048 6.83636 94.1275 17.2956 81.4529L36.668 57.9794C38.6129 55.6226 41.509 54.258 44.5647 54.2588V54.2588Z" fill="#E9E9E9"/>
<path d="M93.8435 37.0024C91.3011 36.8863 88.8516 36.3174 86.4949 35.2958V29.5144C87.8416 30.1994 89.3043 30.774 90.8832 31.2384C92.462 31.6912 93.8493 31.9175 95.0451 31.9175C96.0319 31.9175 96.7516 31.8014 97.2044 31.5693C97.6688 31.3255 97.901 30.9249 97.901 30.3677C97.901 29.9846 97.7326 29.6595 97.396 29.3925C97.0709 29.1255 96.5195 28.8237 95.7416 28.487C94.9754 28.1503 93.9364 27.744 92.6246 27.268C91.1502 26.7224 89.9602 26.1129 89.0547 25.4396C88.1492 24.7546 87.4875 23.9942 87.0695 23.1584C86.6632 22.3109 86.4601 21.2603 86.4601 20.0065C86.4601 18.0909 87.0754 16.5934 88.3059 15.5137C89.5365 14.434 91.3824 13.7665 93.8435 13.5111V11.1254H97.4482V13.4763C99.7584 13.604 102.086 14.1728 104.431 15.1828L102.359 20.1458C99.9326 19.0545 97.7442 18.5089 95.7939 18.5089C94.8651 18.5089 94.2092 18.625 93.8261 18.8572C93.4546 19.0777 93.2689 19.4086 93.2689 19.8497C93.2689 20.2328 93.4024 20.5521 93.6694 20.8075C93.948 21.0513 94.424 21.3299 95.0973 21.6434C95.7707 21.9452 96.7052 22.2993 97.901 22.7056C100.327 23.5647 102.069 24.5457 103.125 25.6486C104.182 26.7398 104.71 28.1503 104.71 29.8801C104.71 31.8305 104.089 33.4151 102.846 34.6341C101.616 35.8531 99.8165 36.6077 97.4482 36.8979V40.2588H93.8435V37.0024Z" fill="#44E0B7"/>
<path d="M205.46 120.144V124.995C205.46 127.619 207.587 129.746 210.211 129.746H211.724L212.385 115.929C212.385 115.752 212.385 115.571 212.385 115.394H210.2C207.581 115.4 205.46 117.525 205.46 120.144H205.46Z" fill="#CCCCCC"/>
<path d="M205.46 120.145V124.995C205.46 127.619 207.587 129.746 210.211 129.746" stroke="black" stroke-width="0.283327"/>
<path d="M5.84755 129.133V122.269C5.84755 120.735 4.60442 119.492 3.07094 119.492H1.46329C1.2319 121.806 1.11528 124.135 1.11343 126.478V131.909H3.05706C3.79586 131.913 4.50568 131.622 5.0294 131.101C5.55312 130.58 5.84756 129.871 5.84755 129.133Z" fill="#CCCCCC"/>
<path d="M173.713 95.177L152.933 61.1191H94.5462V87.2331C94.5455 89.3397 95.3818 91.3603 96.8711 92.8501C98.3604 94.34 100.381 95.177 102.487 95.177H173.713Z" fill="#F4F4F4"/>
<path d="M170.728 95.1773L167.487 89.8685C165.872 87.2229 163.434 85.1804 160.546 84.0542L157.825 82.9908C157.584 82.8951 157.315 82.9 157.078 83.0044C156.841 83.1088 156.656 83.304 156.564 83.5461C156.313 84.0788 156.505 84.7155 157.009 85.0205C157.883 85.6064 157.353 86.9475 156.936 87.7249C156.868 87.8533 156.736 87.9357 156.59 87.9414C156.445 87.9471 156.307 87.8753 156.228 87.7527L151.28 80.0504C151.186 79.9024 151.007 79.8312 150.836 79.8733C150.666 79.9153 150.541 80.0613 150.525 80.2364C150.517 80.3259 150.539 80.4156 150.586 80.4919L155.834 88.9216C155.923 89.0642 155.917 89.2468 155.817 89.3826C154.496 91.1892 153.379 93.1363 152.485 95.1884L170.728 95.1773Z" fill="#CCCCCC"/>
<path d="M151.453 81.8824L155.829 88.91C155.918 89.0525 155.912 89.2351 155.812 89.3709C154.491 91.1775 153.374 93.1246 152.48 95.1768H170.714L167.488 89.8679C165.873 87.2223 163.434 85.1798 160.546 84.0537L157.825 82.9902C157.585 82.8945 157.316 82.8994 157.079 83.0038C156.842 83.1082 156.656 83.3034 156.565 83.5456C156.313 84.0782 156.505 84.7149 157.009 85.0199C157.884 85.6058 157.353 86.9469 156.937 87.7243C156.868 87.8527 156.736 87.9351 156.591 87.9408C156.445 87.9465 156.307 87.8747 156.229 87.7521L151.281 80.0498" stroke="black" stroke-width="0.283327"/>
<path d="M110.545 85.9949C110.687 83.2183 110.49 81.258 110.215 79.9169C109.9 78.4554 108.606 77.4133 107.111 77.418H103.34C102.166 77.4136 101.086 78.062 100.538 79.1006C98.7085 82.6352 97.3952 88.691 96.6649 92.6449C98.1682 94.2696 100.282 95.1917 102.496 95.1883H111.303C110.653 92.1697 110.398 89.0793 110.545 85.9949Z" fill="#CCCCCC"/>
<path d="M87.1938 87.2331V61.1191H34.0773L17.2955 81.4522C13.8143 85.6692 10.8328 90.2747 8.41034 95.177H79.2471C81.3547 95.1785 83.3764 94.3421 84.8669 92.8521C86.3574 91.3621 87.1945 89.3407 87.1938 87.2331Z" fill="#F4F4F4"/>
<path d="M44.5173 77.4073H40.7495C39.5749 77.4017 38.4948 78.0504 37.9479 79.0899C35.6488 83.5325 34.1661 91.9429 33.633 95.1776H46.9607C47.471 92.1385 47.8076 89.0728 47.9686 85.9954C48.1103 83.2188 47.9131 81.2585 47.6382 79.9174C47.3268 78.4452 46.022 77.3959 44.5173 77.4073Z" fill="#CCCCCC"/>
<path fill-rule="evenodd" clip-rule="evenodd" d="M110.545 85.9949C110.686 83.2183 110.489 81.258 110.214 79.9169C109.9 78.4554 108.605 77.4133 107.11 77.418H103.34C102.165 77.4136 101.086 78.062 100.538 79.1006C98.7082 82.6352 97.3949 88.691 96.6646 92.6449C98.1679 94.2696 100.282 95.1917 102.495 95.1883H111.303C110.652 92.1697 110.397 89.0793 110.545 85.9949V85.9949Z" stroke="black" stroke-width="0.283327"/>
<path fill-rule="evenodd" clip-rule="evenodd" d="M44.5173 77.4063H40.7494C39.5748 77.4007 38.4947 78.0494 37.9478 79.089C35.6488 83.5315 34.1661 91.9419 33.633 95.1766H46.9607C47.471 92.1375 47.8075 89.0718 47.9686 85.9944C48.1102 83.2178 47.9131 81.2575 47.6382 79.9164C47.3267 78.4443 46.0219 77.3949 44.5173 77.4063V77.4063Z" stroke="black" stroke-width="0.283327"/>
<path fill-rule="evenodd" clip-rule="evenodd" d="M173.713 95.177L152.933 61.1191H94.5461V87.2331C94.5454 89.3397 95.3817 91.3603 96.8711 92.8501C98.3604 94.34 100.381 95.177 102.487 95.177H173.713Z" stroke="black" stroke-width="0.283327"/>
<path d="M1.11636 143.129H211.092V147.994C211.092 149.374 209.973 150.492 208.593 150.492H4.78981C2.76716 150.492 1.12747 148.853 1.12747 146.83V143.129L1.11636 143.129Z" fill="#F4F4F4"/>
<path d="M56.9536 145.112H48.0685C47.9549 136.616 41.0348 129.788 32.5375 129.788C24.0403 129.788 17.1202 136.616 17.0066 145.112H8.12146C8.26418 131.729 19.1537 120.955 32.5375 120.955C45.9214 120.955 56.8109 131.729 56.9536 145.112Z" fill="#F4F4F4"/>
<circle cx="32.5389" cy="145.112" r="19.9721" fill="black" stroke="black" stroke-width="0.283327"/>
<circle cx="32.5388" cy="145.111" r="9.98745" fill="#CCCCCC"/>
<circle cx="32.539" cy="145.112" r="6.98872" fill="#E9E9E9"/>
<path d="M204.322 145.112H195.437C195.323 136.616 188.403 129.788 179.906 129.788C171.409 129.788 164.489 136.616 164.375 145.112H155.49C155.633 131.729 166.522 120.955 179.906 120.955C193.29 120.955 204.179 131.729 204.322 145.112Z" fill="#F4F4F4"/>
<circle cx="179.907" cy="145.112" r="19.9721" fill="black" stroke="black" stroke-width="0.283327"/>
<circle cx="179.907" cy="145.111" r="9.98745" fill="#CCCCCC"/>
<circle cx="179.907" cy="145.112" r="6.98872" fill="#E9E9E9"/>
<rect x="47.8077" y="103.271" width="6.76659" height="2.17131" rx="0.810316" fill="white"/>
<path d="M53.7799 105.443H48.6015" stroke="black" stroke-width="0.283327"/>
<rect x="101.904" y="103.271" width="6.76659" height="2.17131" rx="0.810316" fill="white"/>
<path d="M107.877 105.443H102.695" stroke="black" stroke-width="0.283327"/>
<path d="M85.0443 62.6384C85.0598 62.634 85.0705 62.6198 85.0705 62.6037C85.0705 62.5876 85.0598 62.5734 85.0443 62.569C85.0288 62.5734 85.0181 62.5876 85.0181 62.6037C85.0181 62.6198 85.0288 62.634 85.0443 62.6384Z" fill="black"/>
<path d="M85.0443 62.6384C85.0598 62.634 85.0705 62.6198 85.0705 62.6037C85.0705 62.5876 85.0598 62.5734 85.0443 62.569C85.0288 62.5734 85.0181 62.5876 85.0181 62.6037C85.0181 62.6198 85.0288 62.634 85.0443 62.6384Z" fill="black"/>
<path d="M151.722 72.9284C151.844 72.3925 152.378 72.0574 152.914 72.1799C153.45 72.3024 153.785 72.8362 153.662 73.3722L150.729 86.2021C150.606 86.738 150.072 87.0731 149.536 86.9506C149 86.8281 148.665 86.2943 148.788 85.7583L151.722 72.9284Z" fill="black"/>
<path d="M106.458 69.5439H107.624C107.824 69.5439 108.015 69.6232 108.156 69.7643C108.297 69.9054 108.377 70.0968 108.377 70.2964V74.739C108.377 74.9385 108.297 75.1299 108.156 75.271C108.015 75.4122 107.824 75.4914 107.624 75.4914H104.348C103.288 75.4914 102.429 74.6324 102.429 73.5728C102.435 71.3503 104.235 69.55 106.458 69.5439Z" fill="#CCCCCC"/>
<path fill-rule="evenodd" clip-rule="evenodd" d="M106.458 69.5439H107.624C107.824 69.5439 108.015 69.6232 108.156 69.7643C108.297 69.9054 108.377 70.0968 108.377 70.2964V74.739C108.377 74.9385 108.297 75.1299 108.156 75.271C108.015 75.4122 107.824 75.4914 107.624 75.4914H104.348C103.288 75.4914 102.429 74.6324 102.429 73.5728C102.435 71.3503 104.235 69.55 106.458 69.5439V69.5439Z" stroke="black" stroke-width="0.283327"/>
<path d="M105.639 77.1154V75.5771" stroke="black" stroke-width="0.283327"/>
<path d="M43.8702 69.5439H45.0363C45.4519 69.5439 45.7888 69.8808 45.7888 70.2964V74.739C45.7888 75.1545 45.4519 75.4914 45.0363 75.4914H41.7627C40.7031 75.4914 39.8441 74.6324 39.8441 73.5728C39.8502 71.3513 41.6487 69.5516 43.8702 69.5439V69.5439Z" fill="#CCCCCC"/>
<path fill-rule="evenodd" clip-rule="evenodd" d="M43.8702 69.5439H45.0363C45.4519 69.5439 45.7888 69.8808 45.7888 70.2964V74.739C45.7888 75.1545 45.4519 75.4914 45.0363 75.4914H41.7627C40.7031 75.4914 39.8441 74.6324 39.8441 73.5728C39.8502 71.3513 41.6487 69.5516 43.8702 69.5439V69.5439Z" stroke="black" stroke-width="0.283327"/>
<path d="M43.04 77.1154V75.5771" stroke="black" stroke-width="0.283327"/>
<path d="M91.1198 102.374V150.493" stroke="black" stroke-width="0.283327"/>
<path d="M83.5953 122.354H140.316C140.331 122.347 140.342 122.321 140.342 122.292C140.342 122.263 140.331 122.237 140.316 122.229H83.5953C83.5798 122.237 83.5691 122.263 83.5691 122.292C83.5691 122.321 83.5798 122.347 83.5953 122.354Z" fill="black"/>
<path d="M75.1849 133.211H110.448C110.463 133.219 110.478 133.209 110.487 133.186C110.496 133.164 110.496 133.133 110.487 133.111C110.478 133.088 110.463 133.078 110.448 133.086H75.1849C75.1702 133.078 75.1544 133.088 75.1455 133.111C75.1367 133.133 75.1367 133.164 75.1455 133.186C75.1544 133.209 75.1702 133.219 75.1849 133.211Z" fill="black"/>
<path d="M131.229 27.2541C130.567 27.2541 130.03 26.7173 130.03 26.0552C130.03 25.3931 130.567 24.8564 131.229 24.8564V27.2541ZM183.978 66.8156L176.874 54.9347L190.715 54.7227L183.978 66.8156ZM131.229 24.8564C141.949 24.8564 150.585 24.7324 157.475 25.048C164.35 25.3629 169.667 26.1184 173.703 27.9711C177.825 29.8635 180.539 32.8658 182.267 37.4432C183.965 41.9444 184.715 47.9776 185.011 55.9851L182.615 56.0737C182.32 48.1055 181.576 42.4042 180.023 38.2898C178.499 34.2516 176.204 31.7573 172.703 30.1501C169.115 28.5032 164.196 27.756 157.365 27.4431C150.548 27.1309 142.01 27.2541 131.229 27.2541V24.8564Z" fill="#CCCCCC"/>
<path d="M14.322 67.0039C14.322 67.666 13.7853 68.2028 13.1232 68.2028C12.4611 68.2028 11.9244 67.666 11.9244 67.0039L14.322 67.0039ZM61.1421 29.4411L48.9294 35.9586L49.3914 22.1234L61.1421 29.4411ZM11.9244 67.0039C11.9244 58.2608 12.2625 51.3812 13.2908 46.0102C14.3208 40.6309 16.0656 36.6407 18.9747 33.7969C21.8865 30.9506 25.8203 29.394 30.9325 28.5829C36.0315 27.7738 42.4301 27.6877 50.3845 27.8824L50.3258 30.2794C42.3782 30.0848 36.1719 30.1792 31.3083 30.9509C26.4579 31.7205 23.0714 33.1452 20.6508 35.5115C18.2274 37.8804 16.6274 41.3342 15.6457 46.4611C14.6625 51.5964 14.322 58.2854 14.322 67.0039L11.9244 67.0039Z" fill="#CCCCCC"/>
</svg>
