<svg width="296" height="212" viewBox="0 0 296 212" fill="none" xmlns="http://www.w3.org/2000/svg">
<path d="M197.11 37.8584H169.934V60.2243H197.11L197.11 37.8584Z" fill="#F4F4F4"/>
<path fill-rule="evenodd" clip-rule="evenodd" d="M197.11 37.8584H169.934V60.2243H197.11L197.11 37.8584Z" stroke="black" stroke-width="0.388003"/>
<path d="M186.083 37.8584H180.962V44.2009H186.083V37.8584Z" fill="white"/>
<path fill-rule="evenodd" clip-rule="evenodd" d="M186.083 37.8584H180.962V44.2009H186.083V37.8584Z" stroke="black" stroke-width="0.388003"/>
<path d="M169.935 37.793H142.759V60.1589H169.935L169.935 37.793Z" fill="#F4F4F4"/>
<path fill-rule="evenodd" clip-rule="evenodd" d="M169.935 37.793H142.759V60.1589H169.935L169.935 37.793Z" stroke="black" stroke-width="0.388003"/>
<path d="M158.907 37.793H153.785V44.1354H158.907V37.793Z" fill="white"/>
<path fill-rule="evenodd" clip-rule="evenodd" d="M158.907 37.793H153.785V44.1354H158.907V37.793Z" stroke="black" stroke-width="0.388003"/>
<path d="M183.524 15.542H156.348V37.9079H183.524L183.524 15.542Z" fill="#F4F4F4"/>
<path fill-rule="evenodd" clip-rule="evenodd" d="M183.524 15.542H156.348V37.9079H183.524L183.524 15.542Z" stroke="black" stroke-width="0.388003"/>
<path d="M172.497 15.542H167.375V21.8845H172.497V15.542Z" fill="white"/>
<path fill-rule="evenodd" clip-rule="evenodd" d="M172.497 15.542H167.375V21.8845H172.497V15.542Z" stroke="black" stroke-width="0.388003"/>
<path d="M213.388 1.30895H197.335C197.23 1.30895 197.144 1.22383 197.144 1.11883C197.144 1.01383 197.23 0.928711 197.335 0.928711H213.388C213.493 0.928711 213.579 1.01383 213.579 1.11883C213.579 1.22383 213.493 1.30895 213.388 1.30895Z" fill="black"/>
<path d="M134.807 29.3529H120.567C120.462 29.3529 120.377 29.2678 120.377 29.1628C120.377 29.0578 120.462 28.9727 120.567 28.9727H134.807C134.912 28.9727 134.998 29.0578 134.998 29.1628C134.998 29.2678 134.912 29.3529 134.807 29.3529Z" fill="black"/>
<path d="M255.946 38.0072H248.755C248.65 38.0072 248.565 37.9221 248.565 37.8171C248.565 37.7121 248.65 37.627 248.755 37.627H255.946C256.051 37.627 256.136 37.7121 256.136 37.8171C256.136 37.9221 256.051 38.0072 255.946 38.0072Z" fill="black"/>
<path d="M230.287 59.9658H94.1937C90.1037 59.965 86.3086 62.0946 84.1781 65.5858L53.4164 116.002L11.023 129.292C4.47165 131.348 0.130737 137.563 0.456085 144.422L2.38013 184.689H289.787V158.871C289.788 136.367 281.954 114.564 267.63 97.2069L241.101 65.0611C238.437 61.8335 234.471 59.9647 230.287 59.9658V59.9658Z" fill="#E9E9E9"/>
<path d="M9.94678 150.194V156.837C9.94678 160.43 7.03396 163.343 3.44081 163.343H1.36848L0.463505 144.422C0.463505 144.179 0.463505 143.932 0.463505 143.688H3.45602C7.04323 143.697 9.94679 146.607 9.94678 150.194H9.94678Z" fill="#CCCCCC"/>
<path d="M9.94678 150.193V156.836C9.94678 160.429 7.03396 163.342 3.44081 163.342" stroke="black" stroke-width="0.388003"/>
<path d="M283.308 162.503V153.103C283.308 151.003 285.01 149.301 287.11 149.301H289.312C289.629 152.469 289.788 155.658 289.791 158.868V166.305H287.129C286.118 166.31 285.145 165.912 284.428 165.198C283.711 164.485 283.308 163.515 283.308 162.503V162.503Z" fill="#CCCCCC"/>
<path d="M53.4239 116.002L81.8813 69.3613H161.839V105.123C161.84 108.008 160.695 110.775 158.655 112.815C156.615 114.856 153.849 116.002 150.964 116.002H53.4239Z" fill="#F4F4F4"/>
<path d="M57.5115 116.002L61.9489 108.732C64.1608 105.109 67.5003 102.312 71.455 100.769L75.1814 99.313C75.5109 99.182 75.8793 99.1887 76.2038 99.3316C76.5284 99.4746 76.782 99.7419 76.9077 100.074C77.2522 100.803 76.9895 101.675 76.2993 102.093C75.1015 102.895 75.8278 104.731 76.3981 105.796C76.4924 105.972 76.6727 106.085 76.8721 106.093C77.0714 106.1 77.26 106.002 77.3678 105.834L84.1437 95.2862C84.2737 95.0836 84.5182 94.9861 84.752 95.0437C84.9857 95.1013 85.1569 95.3012 85.178 95.541C85.1888 95.6636 85.1595 95.7864 85.0943 95.8908L77.9077 107.435C77.7854 107.63 77.7944 107.88 77.9305 108.066C79.7399 110.54 81.2701 113.207 82.4934 116.017L57.5115 116.002Z" fill="#CCCCCC"/>
<path d="M83.9083 97.7957L77.9157 107.42C77.7933 107.615 77.8024 107.865 77.9385 108.051C79.7478 110.525 81.2781 113.191 82.5014 116.002H57.5308L61.9492 108.732C64.1611 105.109 67.5006 102.311 71.4553 100.769L75.1817 99.3129C75.5112 99.1819 75.8796 99.1886 76.2042 99.3315C76.5287 99.4745 76.7823 99.7418 76.908 100.073C77.2526 100.803 76.9898 101.675 76.2996 102.092C75.1019 102.895 75.8281 104.731 76.3985 105.796C76.4927 105.972 76.6731 106.085 76.8724 106.092C77.0718 106.1 77.2604 106.002 77.3681 105.834L84.144 95.2861" stroke="black" stroke-width="0.388003"/>
<path d="M139.929 103.427C139.735 99.625 140.005 96.9404 140.382 95.1039C140.813 93.1023 142.585 91.6753 144.633 91.6817H149.796C151.405 91.6757 152.883 92.5636 153.633 93.9859C156.139 98.8264 157.937 107.12 158.938 112.534C156.879 114.759 153.984 116.022 150.952 116.017H138.891C139.782 111.883 140.131 107.651 139.929 103.427Z" fill="#CCCCCC"/>
<path d="M171.908 105.123V69.3613H244.649L267.631 97.2066C272.398 102.981 276.481 109.289 279.798 116.002H182.791C179.904 116.004 177.136 114.859 175.095 112.818C173.053 110.778 171.907 108.009 171.908 105.123V105.123Z" fill="#F4F4F4"/>
<path d="M230.351 91.6671H235.511C237.12 91.6594 238.599 92.5478 239.348 93.9714C242.496 100.055 244.527 111.573 245.257 116.003H227.005C226.306 111.841 225.845 107.642 225.625 103.428C225.431 99.6256 225.701 96.9411 226.077 95.1045C226.504 93.0885 228.291 91.6514 230.351 91.6671Z" fill="#CCCCCC"/>
<path fill-rule="evenodd" clip-rule="evenodd" d="M139.93 103.426C139.736 99.624 140.006 96.9395 140.382 95.1029C140.813 93.1013 142.586 91.6743 144.633 91.6807H149.797C151.405 91.6747 152.883 92.5626 153.634 93.985C156.139 98.8255 157.938 107.119 158.938 112.533C156.879 114.758 153.984 116.021 150.953 116.016H138.892C139.783 111.882 140.131 107.65 139.93 103.426V103.426Z" stroke="black" stroke-width="0.388003"/>
<path fill-rule="evenodd" clip-rule="evenodd" d="M230.351 91.6652H235.511C237.12 91.6575 238.599 92.5458 239.348 93.9694C242.496 100.053 244.527 111.571 245.257 116.001H227.005C226.306 111.839 225.845 107.64 225.625 103.426C225.431 99.6237 225.701 96.9391 226.077 95.1026C226.504 93.0866 228.291 91.6495 230.351 91.6652V91.6652Z" stroke="black" stroke-width="0.388003"/>
<path fill-rule="evenodd" clip-rule="evenodd" d="M53.4243 116L81.8818 69.3594H161.839V105.121C161.84 108.006 160.695 110.773 158.655 112.813C156.616 114.854 153.849 116 150.964 116H53.4243Z" stroke="black" stroke-width="0.388003"/>
<path fill-rule="evenodd" clip-rule="evenodd" d="M171.908 105.121V69.3594H244.649L267.631 97.2046C272.398 102.979 276.481 109.287 279.798 116H182.791C179.904 116.002 177.136 114.857 175.095 112.816C173.053 110.776 171.907 108.007 171.908 105.121V105.121Z" stroke="black" stroke-width="0.388003"/>
<path d="M289.787 181.67H2.23562V188.332C2.23562 190.222 3.76779 191.754 5.65781 191.754H284.756C287.526 191.754 289.772 189.509 289.772 186.739V181.67L289.787 181.67Z" fill="#F4F4F4"/>
<path fill-rule="evenodd" clip-rule="evenodd" d="M11.0307 129.292L53.424 116.002L84.1857 65.5858C86.3148 62.0969 90.1064 59.9677 94.1937 59.9658H230.287C234.471 59.9647 238.437 61.8335 241.101 65.0611L267.63 97.2069C281.954 114.564 289.788 136.367 289.787 158.871V186.739C289.787 189.509 287.542 191.754 284.772 191.754H5.67302C3.78299 191.754 2.25082 190.222 2.25082 188.332V181.67L0.471297 144.406C0.152049 137.555 4.48797 131.349 11.0307 129.292V129.292Z" stroke="black" stroke-width="0.388003"/>
<path d="M213.32 184.385H225.488C225.643 172.749 235.12 163.398 246.757 163.398C258.393 163.398 267.87 172.749 268.026 184.385H280.193C279.998 166.057 265.085 151.303 246.757 151.303C228.428 151.303 213.515 166.057 213.32 184.385Z" fill="#F4F4F4"/>
<circle r="27.3509" transform="matrix(-1 0 0 1 246.755 184.384)" fill="black" stroke="black" stroke-width="0.388003"/>
<circle r="13.6774" transform="matrix(-1 0 0 1 246.755 184.384)" fill="#CCCCCC"/>
<circle r="9.57073" transform="matrix(-1 0 0 1 246.755 184.385)" fill="#E9E9E9"/>
<path d="M11.506 184.385H23.6738C23.8294 172.749 33.3061 163.398 44.9427 163.398C56.5793 163.398 66.056 172.749 66.2116 184.385H78.3794C78.1839 166.057 63.2712 151.303 44.9427 151.303C26.6142 151.303 11.7014 166.057 11.506 184.385Z" fill="#F4F4F4"/>
<circle r="27.3509" transform="matrix(-1 0 0 1 44.9406 184.384)" fill="black" stroke="black" stroke-width="0.388003"/>
<circle r="13.6774" transform="matrix(-1 0 0 1 44.9408 184.384)" fill="#CCCCCC"/>
<circle r="9.57073" transform="matrix(-1 0 0 1 44.941 184.385)" fill="#E9E9E9"/>
<rect width="9.26653" height="2.9735" rx="1.10969" transform="matrix(-1 0 0 1 225.845 127.086)" fill="white"/>
<path d="M217.666 130.06H224.758" stroke="black" stroke-width="0.388003"/>
<rect width="9.26653" height="2.9735" rx="1.10969" transform="matrix(-1 0 0 1 151.763 127.086)" fill="white"/>
<path d="M143.583 130.06H150.679" stroke="black" stroke-width="0.388003"/>
<path d="M124.134 78.418C124.188 78.4373 124.237 78.4671 124.279 78.5054C124.309 78.5328 124.335 78.5649 124.355 78.6005C124.398 78.6806 124.417 78.772 124.408 78.8628C124.409 78.9839 124.353 79.0982 124.256 79.1708C124.183 79.2146 124.093 79.2146 124.02 79.1708C123.95 79.1266 123.908 79.0486 123.91 78.9655C123.914 78.9156 123.921 78.866 123.933 78.8172L123.959 78.6917C123.979 78.6166 124.042 78.5608 124.119 78.5507C124.196 78.5407 124.271 78.5784 124.309 78.6461C124.326 78.6941 124.326 78.7464 124.309 78.7944C124.292 78.862 124.278 78.9306 124.267 78.9997V78.9275V78.9275V78.8819L124.237 78.8438L124.199 78.8134L124.153 78.7944H124.104H124.054L124.013 78.8134L123.975 78.8438L123.944 78.8819C123.952 78.8726 123.958 78.8624 123.963 78.8514L123.944 78.8971C123.956 78.8652 123.965 78.832 123.971 78.7982V78.8476C123.975 78.8224 123.975 78.7968 123.971 78.7716V78.821C123.966 78.7977 123.96 78.7749 123.952 78.7526L123.971 78.7982C123.962 78.7797 123.952 78.7619 123.94 78.745L123.971 78.783C123.96 78.7697 123.947 78.7581 123.933 78.7488L123.971 78.7754L123.929 78.7526H123.975C123.951 78.7458 123.929 78.7342 123.91 78.7183C123.89 78.7045 123.873 78.6863 123.86 78.6651C123.842 78.6175 123.842 78.5645 123.86 78.5168C123.874 78.4688 123.905 78.4279 123.948 78.4027C123.991 78.3757 124.044 78.3687 124.092 78.3837L124.134 78.418Z" fill="black"/>
<path d="M129.583 80.7077C130.061 80.6419 130.509 80.4399 130.876 80.126C131.292 79.7914 131.565 79.3095 131.636 78.7799C131.669 78.542 131.598 78.3015 131.44 78.1202C131.283 77.9388 131.055 77.8341 130.815 77.8331C130.33 77.8633 129.905 78.1674 129.72 78.6164C129.613 78.8331 129.282 78.643 129.393 78.4225C129.595 77.986 129.97 77.6529 130.427 77.5023C130.871 77.3688 131.353 77.4867 131.685 77.8103C132.446 78.6202 131.781 79.875 131.058 80.472C130.632 80.8188 130.117 81.0389 129.571 81.107C129.469 81.107 129.385 81.0119 129.381 80.9169C129.385 80.8135 129.468 80.7307 129.571 80.7267L129.583 80.7077Z" fill="black"/>
<path d="M130.978 78.7679C130.895 78.6636 130.747 78.6375 130.632 78.707C130.505 78.7843 130.397 78.8897 130.317 79.015C130.132 79.2591 129.993 79.5349 129.906 79.8288C129.897 79.8514 129.873 79.864 129.849 79.8583C129.825 79.8526 129.809 79.8303 129.811 79.8059C129.915 79.4565 130.087 79.1309 130.317 78.8477C130.408 78.7147 130.543 78.6168 130.697 78.5702C130.832 78.5414 130.971 78.5951 131.051 78.707C131.085 78.7603 131.005 78.8059 130.971 78.7565L130.978 78.7679Z" fill="black"/>
<path d="M130.473 79.2287C130.469 79.2009 130.454 79.1758 130.431 79.1603C130.406 79.1414 130.374 79.1332 130.343 79.1375C130.268 79.1515 130.2 79.1954 130.157 79.2592C130.137 79.2758 130.108 79.2758 130.089 79.2592C130.07 79.24 130.07 79.2098 130.089 79.1907C130.153 79.1063 130.249 79.0526 130.355 79.0424C130.454 79.0381 130.542 79.1053 130.564 79.2021C130.567 79.2137 130.566 79.2263 130.561 79.237C130.555 79.2477 130.545 79.2556 130.533 79.2592C130.508 79.2668 130.482 79.2534 130.473 79.2287Z" fill="black"/>
<path d="M124.67 77.54C124.622 77.4855 124.57 77.4347 124.515 77.3879C124.515 77.3879 124.515 77.3879 124.488 77.3689L124.442 77.3347L124.343 77.2777L124.252 77.232H124.229L124.176 77.213C124.106 77.1882 124.033 77.1704 123.959 77.1598C123.911 77.1467 123.87 77.1153 123.845 77.0723C123.827 77.026 123.827 76.9742 123.845 76.9278C123.857 76.8792 123.889 76.8379 123.933 76.8138C123.979 76.7952 124.031 76.7952 124.077 76.8138C124.412 76.8659 124.717 77.0341 124.94 77.2891C125.013 77.3643 125.013 77.4838 124.94 77.559C124.866 77.6315 124.748 77.6315 124.674 77.559L124.67 77.54Z" fill="black"/>
<path d="M123.925 73.0654C123.267 74.9666 122.594 76.7044 122.302 78.7349C122.187 79.3882 121.965 80.0179 121.644 80.5981C121.584 80.6805 121.562 80.7846 121.584 80.8841C121.606 80.9835 121.669 81.069 121.758 81.119H121.788C121.981 81.2276 122.103 81.4299 122.108 81.6513C122.153 83.2674 121.678 84.834 122.933 85.834C124.347 86.9747 126.56 86.1686 128.051 85.218" stroke="black" stroke-width="0.388003"/>
<path d="M133.283 85.7913C132.903 84.8407 132.777 83.7798 132.522 82.7874C132.45 82.3145 132.246 81.8716 131.933 81.5097C131.789 81.3902 131.65 81.2633 131.519 81.1295C131.367 80.9376 131.269 80.7095 131.233 80.4679C131.188 80.2321 131.553 80.1295 131.614 80.369C131.641 80.6002 131.747 80.8149 131.914 80.9774C132.065 81.0961 132.21 81.2231 132.348 81.3576C132.627 81.7499 132.817 82.1992 132.903 82.6733C133.157 83.6657 133.283 84.7266 133.663 85.6734C133.758 85.8977 133.389 85.9966 133.283 85.7761V85.7913Z" fill="black"/>
<path d="M174.851 71.4418C174.83 71.4357 174.815 71.4163 174.815 71.3942C174.815 71.3722 174.83 71.3528 174.851 71.3467C174.872 71.3528 174.887 71.3722 174.887 71.3942C174.887 71.4163 174.872 71.4357 174.851 71.4418V71.4418Z" fill="black"/>
<path d="M174.851 71.4418C174.83 71.4357 174.815 71.4163 174.815 71.3942C174.815 71.3722 174.83 71.3528 174.851 71.3467C174.872 71.3528 174.887 71.3722 174.887 71.3942C174.887 71.4163 174.872 71.4357 174.851 71.4418V71.4418Z" fill="black"/>
<path d="M211.94 78.4185C211.993 78.4379 212.043 78.4676 212.085 78.5059C212.114 78.5341 212.14 78.5661 212.161 78.601C212.203 78.6817 212.221 78.7726 212.214 78.8633C212.212 78.9836 212.156 79.0965 212.062 79.1713C211.988 79.2149 211.896 79.2149 211.822 79.1713C211.754 79.1252 211.714 79.048 211.716 78.966C211.718 78.9159 211.725 78.8661 211.739 78.8177L211.765 78.6922C211.778 78.6442 211.81 78.6033 211.853 78.5782C211.943 78.5262 212.058 78.5568 212.111 78.6466C212.136 78.6918 212.143 78.7449 212.13 78.7949C212.13 78.8633 212.1 78.9318 212.088 79.0002V78.947V78.9812V78.928L212.069 78.8824L212.039 78.8443L212.001 78.8139L211.955 78.7949H211.902H211.853L211.807 78.8139L211.769 78.8443L211.739 78.8824C211.746 78.8731 211.753 78.8629 211.758 78.8519L211.739 78.8976C211.75 78.8655 211.757 78.8324 211.761 78.7987V78.8481C211.763 78.8228 211.763 78.7974 211.761 78.7721V78.8481C211.765 78.8255 211.765 78.8024 211.761 78.7797V78.8253L211.731 78.7721L211.758 78.8101C211.747 78.7968 211.734 78.7852 211.72 78.7759L211.761 78.8025L211.72 78.7797H211.765C211.742 78.7721 211.72 78.7605 211.701 78.7455C211.682 78.7296 211.666 78.7118 211.651 78.6922C211.634 78.6442 211.634 78.5919 211.651 78.5439C211.665 78.4965 211.696 78.4558 211.739 78.4299C211.783 78.4031 211.837 78.3962 211.887 78.4109L211.94 78.4185Z" fill="black"/>
<path d="M217.393 80.7081C217.87 80.6417 218.319 80.4398 218.686 80.1264C219.101 79.7908 219.373 79.3094 219.446 78.7803C219.479 78.5424 219.408 78.3019 219.25 78.1205C219.093 77.9391 218.865 77.8345 218.625 77.8335C218.14 77.8628 217.714 78.1672 217.53 78.6168C217.419 78.8335 217.092 78.6434 217.203 78.4229C217.404 77.9866 217.777 77.6534 218.233 77.5027C218.679 77.3685 219.162 77.4864 219.496 77.8107C220.256 78.6206 219.591 79.8754 218.868 80.4724C218.441 80.818 217.926 81.0379 217.381 81.1074C217.279 81.1074 217.191 81.0123 217.191 80.9173C217.193 80.8131 217.277 80.7292 217.381 80.7271L217.393 80.7081Z" fill="black"/>
<path d="M218.784 78.7679C218.699 78.6651 218.553 78.6393 218.438 78.7071C218.31 78.7833 218.202 78.8888 218.122 79.0151C217.936 79.259 217.796 79.5347 217.708 79.8288C217.708 79.8897 217.598 79.863 217.617 79.806C217.719 79.4593 217.891 79.1372 218.122 78.8592C218.214 78.7257 218.348 78.6277 218.503 78.5816C218.638 78.5512 218.779 78.6051 218.86 78.7185C218.894 78.7717 218.811 78.8174 218.78 78.7679H218.784Z" fill="black"/>
<path d="M218.278 79.2279C218.275 79.2001 218.26 79.175 218.237 79.1595C218.211 79.1409 218.18 79.1328 218.149 79.1367C218.072 79.1506 218.004 79.1943 217.959 79.2584C217.939 79.2712 217.913 79.2685 217.897 79.252C217.88 79.2354 217.878 79.2095 217.891 79.1899C217.956 79.1046 218.054 79.0508 218.161 79.0416C218.259 79.0388 218.346 79.1054 218.37 79.2013C218.375 79.2263 218.36 79.251 218.335 79.2584C218.324 79.2619 218.311 79.2607 218.301 79.255C218.29 79.2493 218.282 79.2395 218.278 79.2279V79.2279Z" fill="black"/>
<path d="M212.472 77.5402C212.425 77.4848 212.373 77.4339 212.316 77.3881L212.293 77.3691C212.293 77.3691 212.324 77.3919 212.293 77.3691L212.248 77.3349L212.153 77.2778L212.058 77.2322H212.031L211.982 77.2132C211.91 77.1879 211.836 77.1701 211.761 77.16C211.714 77.1467 211.674 77.1152 211.651 77.0725C211.624 77.0294 211.617 76.9767 211.632 76.928C211.642 76.8799 211.673 76.8385 211.715 76.8139C211.763 76.7951 211.816 76.7951 211.864 76.8139C212.198 76.866 212.504 77.0343 212.727 77.2892C212.801 77.3638 212.801 77.4847 212.727 77.5592C212.652 77.6338 212.531 77.6338 212.457 77.5592L212.472 77.5402Z" fill="black"/>
<path d="M211.727 73.0654C211.069 74.9666 210.4 76.7044 210.103 78.7349C209.987 79.3876 209.765 80.017 209.446 80.5981C209.386 80.6805 209.364 80.7846 209.386 80.8841C209.408 80.9835 209.471 81.069 209.56 81.119H209.586C209.781 81.2261 209.904 81.4289 209.91 81.6513C209.951 83.2674 209.476 84.834 210.735 85.834C212.149 86.9747 214.564 86.4652 216.058 85.5108" stroke="black" stroke-width="0.388003"/>
<path d="M211.385 81.456C211.466 81.4332 211.546 81.4066 211.624 81.3762H211.651L211.708 81.3496L211.83 81.2887C211.904 81.2499 211.977 81.2067 212.046 81.1594L212.149 81.0872L212.206 81.0454C212.28 80.9719 212.399 80.9719 212.472 81.0454C212.546 81.1189 212.546 81.238 212.472 81.3115C212.179 81.5614 211.835 81.7455 211.465 81.8515C211.416 81.8656 211.364 81.8599 211.32 81.8357C211.276 81.8114 211.243 81.7706 211.229 81.7222C211.204 81.6208 211.262 81.5176 211.362 81.4864L211.385 81.456Z" fill="black"/>
<path d="M215.248 86.0079C215.303 86.1687 215.342 86.3342 215.366 86.5023C215.412 86.7532 215.446 87.0004 215.484 87.2627C215.545 87.681 215.59 88.1031 215.663 88.5213C215.708 88.7609 215.339 88.8636 215.282 88.624C215.206 88.2057 215.164 87.7837 215.104 87.3654C215.066 87.1144 215.028 86.8635 214.982 86.6049C214.958 86.4369 214.919 86.2714 214.864 86.1106C214.837 86.0089 214.896 85.9043 214.997 85.8749C215.099 85.85 215.202 85.9083 215.233 86.0079H215.248Z" fill="black"/>
<path d="M221.347 87.9169C221.04 87.103 220.793 86.2681 220.606 85.4187C220.402 84.5243 220.132 83.6461 219.8 82.7912C219.46 82.0504 219.204 81.2736 219.039 80.4755C218.997 80.2359 219.362 80.1333 219.419 80.3766C219.617 81.2649 219.91 82.1293 220.294 82.9547C220.471 83.4259 220.621 83.9071 220.743 84.3958C220.914 85.0194 221.073 85.6468 221.241 86.2742C221.36 86.7672 221.51 87.2523 221.689 87.7267C221.784 87.9473 221.457 88.1412 221.362 87.9169H221.347Z" fill="black"/>
<path d="M215.833 85.7373C215.833 85.7373 215.632 86.802 215.453 86.878C215.275 86.9541 215.138 86.3609 215.138 86.3609L215.392 85.878" fill="black"/>
<path d="M217.662 78.0888C217.662 78.0888 217.567 79.1573 216.951 79.1649C216.335 79.1725 213.358 76.1229 213.149 74.313C213.149 74.313 211.164 77.1002 208.13 75.891V74.0962C208.13 74.0962 209.153 74.2826 209.385 74.0962C209.385 74.0962 208.244 73.7844 207.978 73.2901L210.856 69.3584C210.856 69.3584 212.187 71.0923 214.046 70.8794C215.906 70.6664 217.02 71.2824 217.111 71.9631C218.41 71.8232 219.719 72.1131 220.838 72.7882C222.533 73.9023 224.803 78.7352 223.233 81.1535C221.663 83.5719 221.165 84.8001 220.712 85.0472C220.26 85.2944 218.123 80.4843 218.518 80.4843C218.913 80.4843 220.419 78.796 219.389 77.9557C219.153 77.7205 218.827 77.5999 218.495 77.6255C218.163 77.6511 217.859 77.8203 217.662 78.0888Z" fill="black"/>
<path d="M128.53 82.2176C128.53 82.2176 129.161 78.9627 130.005 78.2212C130.849 77.4797 131.694 77.841 131.842 78.7536C131.99 79.6661 130.792 80.5749 130.792 80.5749C130.792 80.5749 131.663 82.5598 132.279 82.9819C132.545 83.2182 132.927 83.2708 133.247 83.115C133.567 82.9592 133.761 82.6259 133.739 82.2708C133.781 81.4039 135.671 79.7308 135.823 77.7079C135.823 77.7079 137.249 78.6281 137.188 76.9892C137.156 76.1275 136.66 75.6926 136.198 75.4739C136.597 75.5071 136.971 75.3801 136.846 74.7306C136.599 73.4454 133.625 73.5518 133.625 73.5518C133.625 73.5518 133.872 73.3351 133.842 72.0651C133.811 70.7951 132.61 69.9813 131.857 69.5251C130.608 68.7696 130.602 70.3078 130.668 71.0754C130.512 70.4725 129.875 69.3406 127.336 68.7608C124.178 68.0395 122.49 68.9792 121.803 69.9566C121.202 69.9298 120.701 70.0999 120.552 70.6734C120.119 72.3465 122.416 74.2629 125.233 74.8561C125.233 74.8561 124.431 75.1679 125.233 75.9702C125.514 76.2293 125.832 76.4446 126.176 76.609C127.478 77.2663 128.111 78.7704 127.671 80.1605C127.42 80.9209 127.096 81.5445 126.716 81.4115L128.53 82.2176Z" fill="black"/>
<path d="M122.366 72.6426C122.275 72.6426 120.788 72.7034 120.914 74.1293C121.039 75.5552 122.887 76.1446 122.887 76.1446C122.887 76.1446 123.336 73.7073 123.647 73.3841" fill="black"/>
<path d="M126.438 87.9735C126.112 87.3346 125.822 86.6783 125.567 86.0076C125.54 85.9026 125.603 85.7954 125.708 85.7681C125.813 85.7408 125.92 85.8038 125.948 85.9088C126.191 86.5471 126.469 87.1717 126.78 87.7796C126.894 87.9963 126.567 88.1902 126.453 87.9735H126.438Z" fill="black"/>
<path d="M139.196 116.006C139.576 112.002 139.918 107.967 139.64 103.944C139.518 101.938 139.197 99.9484 138.682 98.005C138.226 96.3281 137.386 94.8148 136.648 93.252C135.96 91.7842 135.268 90.172 135.363 88.5141C135.416 87.6206 135.773 86.6129 135.119 85.8524L135.077 85.8106C135.1 85.8106 135.077 85.8106 135.077 85.8106H135.017C134.921 85.816 134.826 85.8261 134.731 85.841C133.936 85.9811 133.149 86.1652 132.374 86.3924C131.328 86.6776 130.286 86.9894 129.256 87.3202C128.389 87.5939 127.518 87.8791 126.67 88.2137C126.436 88.3012 126.209 88.4054 125.99 88.5255L125.948 88.5522C125.914 88.5712 125.948 88.5522 125.948 88.5522L125.921 88.575C125.931 88.5404 125.945 88.5072 125.963 88.4761C125.974 88.5479 125.974 88.621 125.963 88.6928V89.5978C125.963 89.7028 125.878 89.7879 125.773 89.7879C125.668 89.7879 125.583 89.7028 125.583 89.5978C125.56 89.2179 125.56 88.837 125.583 88.4571C125.609 88.2556 125.841 88.1605 126.005 88.0768C126.73 87.7543 127.475 87.475 128.233 87.2403C130.187 86.5567 132.179 85.9891 134.199 85.5406C134.465 85.477 134.736 85.4363 135.009 85.4189C135.431 85.4189 135.667 85.8562 135.792 86.2137C136.097 87.1148 135.716 88.0768 135.754 88.9932C135.81 89.8351 135.999 90.6628 136.313 91.4458C136.937 93.1227 137.861 94.6703 138.542 96.3205C139.224 98.1736 139.655 100.11 139.823 102.077C140.329 106.203 140.059 110.374 139.694 114.496C139.652 115.002 139.602 115.504 139.557 116.017C139.534 116.26 139.154 116.26 139.177 116.017L139.196 116.006Z" fill="black"/>
<path d="M131.416 89.3007C131.416 89.3007 124.537 87.1941 117.476 95.434C110.415 103.674 108.183 103.583 108.183 103.583C108.183 103.583 96.5434 94.2362 95.551 94.1868C94.5585 94.1374 91.1554 97.1489 91.8056 100.05C91.8056 100.05 99.3876 109.879 105.209 112.94C111.031 116.001 125.742 104.168 125.742 104.168" stroke="black" stroke-width="0.388003"/>
<path d="M117.119 110.028C117.119 110.028 117.499 113.409 117.119 114.462C116.738 115.515 116.605 116.013 116.605 116.013" stroke="black" stroke-width="0.388003"/>
<path d="M88.1667 92.9175L88.7523 93.4042C88.786 93.4403 88.805 93.4878 88.8055 93.5373C88.8077 93.5883 88.7883 93.638 88.7522 93.6741C88.7161 93.7103 88.6664 93.7296 88.6154 93.7274C88.5694 93.7247 88.5254 93.7074 88.4899 93.678L87.9043 93.1913C87.8672 93.1555 87.8465 93.1059 87.8473 93.0544C87.8492 93.0045 87.8695 92.9571 87.9043 92.9213C87.9397 92.8858 87.9873 92.8654 88.0374 92.8643C88.088 92.8678 88.1361 92.8878 88.1743 92.9213L88.1667 92.9175Z" fill="black"/>
<path d="M123.579 81.4566C123.66 81.4346 123.74 81.4079 123.819 81.3768H123.849L123.906 81.3502L124.028 81.2893C124.103 81.2522 124.176 81.2089 124.245 81.16L124.347 81.0878L124.4 81.046C124.447 80.9914 124.519 80.9673 124.589 80.9835C124.658 80.9997 124.713 81.0535 124.73 81.1228C124.747 81.1922 124.724 81.2653 124.67 81.3121C124.376 81.5621 124.031 81.7461 123.659 81.8521C123.611 81.8662 123.559 81.8605 123.514 81.8363C123.47 81.812 123.437 81.7712 123.423 81.7228C123.398 81.6214 123.457 81.5182 123.556 81.487L123.579 81.4566Z" fill="black"/>
<path d="M222.066 76.2051C222.066 76.2051 221.351 69.4786 227.655 69.1782C233.96 68.8778 237.545 67.2998 237.545 67.2998C237.545 67.2998 238.519 72.0452 237.926 73.5016C236.761 73.6993 235.582 73.8073 234.401 73.8248L237.777 74.5853C237.777 74.5853 237.017 78.1025 234.773 80.4334C234.773 80.4334 230.047 75.7868 226.67 76.0112C223.294 76.2355 222.031 77.7375 222.031 77.7375" fill="black"/>
<path d="M222.039 89.0176C222.039 89.0176 225.366 97.0293 225.842 105.121C226.317 113.212 226.982 116.003 226.982 116.003" stroke="black" stroke-width="0.388003"/>
<path d="M222.442 87.8233C222.275 87.694 215.465 87.9031 214.347 89.3861L214.727 91.3291C214.727 91.3291 208.643 92.9794 207.335 100.66C206.027 108.341 202.628 116.003 202.628 116.003" stroke="black" stroke-width="0.388003"/>
<path d="M221.511 101.896C221.617 102.394 219.495 102.892 219.648 106.112C219.8 109.333 219.648 115.999 219.648 115.999" stroke="black" stroke-width="0.388003"/>
<path d="M87.3566 85.533C87.1888 84.7991 86.4578 84.3401 85.7239 84.508V84.508C84.9899 84.6758 84.531 85.4068 84.6989 86.1407L88.7165 103.711C88.8843 104.445 89.6153 104.904 90.3492 104.736V104.736C91.0831 104.568 91.542 103.837 91.3742 103.103L87.3566 85.533Z" fill="black"/>
<path d="M88.8059 91.3965C88.8059 91.3965 89.977 92.8224 88.7146 92.7007C87.4522 92.579 85.6726 91.9859 85.6726 92.271C85.6726 92.5562 84.6688 98.6743 87.1936 98.526C89.7184 98.3778 90.8516 98.8226 90.8516 98.8226" fill="#F4F4F4"/>
<path d="M94.3228 94.9137C93.7368 94.5966 93.2198 94.1662 92.8018 93.6474C92.3341 93.1265 91.8892 92.5866 91.3911 92.0922C90.4291 91.1416 89.1096 90.3013 87.6951 90.6625C87.5901 90.6909 87.482 90.6287 87.4537 90.5237C87.4253 90.4187 87.4875 90.3106 87.5925 90.2823C88.9842 89.9287 90.3492 90.6131 91.3607 91.5295C91.8977 92.0417 92.4055 92.5838 92.8817 93.1531C93.3249 93.7333 93.8827 94.2161 94.5205 94.5714C94.741 94.6779 94.5471 95.0049 94.3266 94.9022L94.3228 94.9137Z" fill="black"/>
<path d="M89.205 92.951L86.8285 92.6278C86.1185 92.5781 85.4219 92.4097 84.7676 92.1297C84.5508 92.0194 84.741 91.6924 84.9615 91.8027C85.6158 92.0702 86.3093 92.2294 87.0148 92.2742L89.2963 92.586C89.5358 92.6202 89.4332 92.9852 89.1936 92.9662L89.205 92.951Z" fill="black"/>
<path d="M86.0719 97.6288C86.9997 98.1079 88.0758 98.1878 89.091 98.3285C89.9846 98.454 91.0607 98.454 91.7527 99.089C91.9352 99.2487 91.6691 99.5186 91.4865 99.3551C91.1213 99.0781 90.6848 98.9106 90.2279 98.8722C89.7222 98.7924 89.2127 98.7277 88.707 98.6593C87.7262 98.5885 86.7645 98.3519 85.8627 97.9596C85.646 97.8456 85.8399 97.5186 86.0567 97.6288H86.0719Z" fill="black"/>
<path d="M86.2353 96.4571L85.6193 96.3012C85.5702 96.2879 85.5285 96.2554 85.5035 96.2111C85.4784 96.1668 85.4722 96.1144 85.4862 96.0654C85.5157 95.9663 85.6177 95.9078 85.7182 95.9323L86.338 96.0882C86.4389 96.1177 86.4979 96.2223 86.471 96.324C86.4399 96.4236 86.3367 96.4819 86.2353 96.4571V96.4571Z" fill="black"/>
<path d="M86.0719 94.5714C85.9501 94.5584 85.8302 94.5316 85.7145 94.4916C85.5991 94.4513 85.4882 94.399 85.3837 94.3357C85.3246 94.301 85.2884 94.2375 85.2889 94.169C85.2894 94.1005 85.3263 94.0374 85.3859 94.0036C85.4454 93.9697 85.5185 93.9702 85.5776 94.0048C85.644 94.0476 85.714 94.0845 85.7867 94.1151H85.7411C85.863 94.1652 85.9908 94.1997 86.1213 94.2178H86.0719C86.1216 94.2207 86.1687 94.2408 86.205 94.2748C86.241 94.3105 86.2612 94.3591 86.2612 94.4098C86.2612 94.4605 86.241 94.5091 86.205 94.5448C86.1703 94.5807 86.1218 94.6001 86.0719 94.598V94.5714Z" fill="black"/>
<path d="M145.527 80.8984H143.93C143.656 80.8984 143.394 81.007 143.201 81.2003C143.008 81.3935 142.899 81.6556 142.899 81.9289V88.0128C142.899 88.2861 143.008 88.5482 143.201 88.7414C143.394 88.9347 143.656 89.0433 143.93 89.0433H148.416C149.868 89.0433 151.044 87.8669 151.044 86.4158C151.036 83.3721 148.57 80.9068 145.527 80.8984V80.8984Z" fill="#CCCCCC"/>
<path fill-rule="evenodd" clip-rule="evenodd" d="M145.527 80.8984H143.93C143.656 80.8984 143.394 81.007 143.201 81.2003C143.008 81.3935 142.899 81.6556 142.899 81.9289V88.0128C142.899 88.2861 143.008 88.5482 143.201 88.7414C143.394 88.9347 143.656 89.0433 143.93 89.0433H148.416C149.868 89.0433 151.044 87.8669 151.044 86.4158C151.036 83.3721 148.57 80.9068 145.527 80.8984V80.8984Z" stroke="black" stroke-width="0.388003"/>
<path d="M146.648 91.2667V89.1602" stroke="black" stroke-width="0.388003"/>
<path d="M231.237 80.8984H229.64C229.071 80.8984 228.61 81.3598 228.61 81.9289V88.0128C228.61 88.5819 229.071 89.0433 229.64 89.0433H234.123C235.575 89.0433 236.751 87.8669 236.751 86.4158C236.743 83.3736 234.28 80.9089 231.237 80.8984V80.8984Z" fill="#CCCCCC"/>
<path fill-rule="evenodd" clip-rule="evenodd" d="M231.237 80.8984H229.64C229.071 80.8984 228.61 81.3598 228.61 81.9289V88.0128C228.61 88.5819 229.071 89.0433 229.64 89.0433H234.123C235.575 89.0433 236.751 87.8669 236.751 86.4158C236.743 83.3736 234.28 80.9089 231.237 80.8984V80.8984Z" stroke="black" stroke-width="0.388003"/>
<path d="M232.374 91.2667V89.1602" stroke="black" stroke-width="0.388003"/>
<path d="M116.605 110.306C116.605 110.173 119.99 108.275 119.99 108.275C119.99 108.275 124.659 116.002 125.153 116.002H119.001C119.001 116.002 116.495 111.192 116.605 110.306V110.306Z" fill="black"/>
<path d="M226.096 95.1045C226.096 95.1045 224.765 95.2604 224.146 95.6939C223.902 95.865 224.298 95.96 224.298 95.96L225.438 101.489L225.705 97.1008L226.096 95.1045Z" fill="black"/>
<path d="M220.301 103.328C220.301 103.328 220.51 109.712 220.944 111.199C221.377 112.686 225.343 116.002 225.343 116.002H220.575C220.575 116.002 219.305 116.557 219.488 115.568C219.67 114.58 219.073 103.91 220.301 103.328V103.328Z" fill="black"/>
<path d="M206.974 102.507C206.974 102.507 208.187 105.902 209.377 106.956C209.377 106.956 209.206 115.937 209.084 115.701C208.962 115.465 205.305 107.465 205.244 106.412C205.183 105.359 205.666 101.53 206.974 102.507Z" fill="black"/>
<path d="M124.868 104.853C124.868 104.853 121.682 109.332 120.879 111.933C120.077 114.534 117.119 114.45 117.119 114.45L117.29 111.476C117.29 111.476 118.248 109.263 119.119 108.769C119.99 108.275 124.868 104.853 124.868 104.853Z" fill="black"/>
<path d="M195.225 57.6797H191.757V61.1475H195.225V57.6797Z" fill="black"/>
<path d="M193.49 59.4145V50.8477H200.734" stroke="black" stroke-width="0.388003"/>
<path d="M137.397 61.1475H140.865V57.6796H137.397V61.1475Z" fill="black"/>
<path d="M139.131 59.4145V50.8477H131.891" stroke="black" stroke-width="0.388003"/>
<path d="M108.373 103.717C108.173 103.822 107.955 103.889 107.73 103.914C107.628 103.92 107.525 103.92 107.422 103.914H107.274C107.251 103.914 107.247 103.914 107.274 103.914H107.232L107.152 103.941C107.052 103.968 106.948 103.908 106.92 103.808C106.893 103.706 106.952 103.602 107.053 103.572C107.258 103.521 107.47 103.501 107.681 103.515H107.753H107.795L107.939 103.481C108.028 103.456 108.113 103.421 108.194 103.378C108.253 103.335 108.331 103.33 108.395 103.364C108.459 103.398 108.498 103.465 108.496 103.538C108.494 103.61 108.45 103.675 108.384 103.705L108.373 103.717Z" fill="black"/>
<path d="M209.537 104.789L209.453 109.523C209.469 111.048 209.375 112.573 209.172 114.085C209.13 114.325 208.765 114.222 208.791 113.983C208.991 112.47 209.081 110.945 209.061 109.42L209.145 104.781C209.145 104.676 209.23 104.591 209.335 104.591C209.44 104.591 209.525 104.676 209.525 104.781L209.537 104.789Z" fill="black"/>
<path d="M222.906 92.8194C222.385 92.9718 221.974 93.374 221.811 93.8917C221.58 94.441 221.564 95.0572 221.765 95.618C221.999 96.0398 222.351 96.3845 222.777 96.6104C223.222 96.9653 223.801 97.1046 224.359 96.9907C224.419 96.9717 224.442 97.0629 224.385 97.0819C223.818 97.211 223.222 97.083 222.758 96.7321C222.206 96.4948 221.782 96.0321 221.593 95.4614C221.405 94.8906 221.47 94.2665 221.773 93.7472C221.968 93.2589 222.378 92.8882 222.883 92.7433C222.908 92.7412 222.93 92.7573 222.936 92.7811C222.941 92.8048 222.929 92.8292 222.906 92.8384V92.8194Z" fill="black"/>
<path d="M221.674 89.5858C220.983 89.8383 220.22 89.8054 219.553 89.4946C219.007 89.2161 218.652 88.6657 218.625 88.0534C218.625 87.9926 218.716 87.9926 218.72 88.0534C218.75 88.6476 219.103 89.1775 219.64 89.4337C220.278 89.7102 220.998 89.7319 221.651 89.4946C221.709 89.4756 221.735 89.5668 221.674 89.5858V89.5858Z" fill="black"/>
<path d="M216.252 94.0579C217.218 94.0884 217.986 95.077 218.024 95.9972C218.062 96.982 217.21 97.8414 216.427 98.3129C215.629 98.8527 214.591 98.8809 213.765 98.3851C212.998 97.849 212.735 96.8345 213.145 95.9934C213.398 95.429 213.765 94.9238 214.225 94.5104C214.593 94.1041 215.15 93.9268 215.685 94.0465C215.742 94.0465 215.719 94.1568 215.659 94.1378C214.681 93.8602 213.833 94.9439 213.404 95.6854C212.944 96.4839 212.871 97.5372 213.639 98.176C214.325 98.7055 215.253 98.7956 216.027 98.4079C216.869 98.0487 217.528 97.3622 217.853 96.5067C218.142 95.4991 217.324 94.191 216.237 94.1568C216.215 94.1507 216.201 94.1313 216.201 94.1093C216.201 94.0872 216.215 94.0678 216.237 94.0617L216.252 94.0579Z" fill="black"/>
<path d="M208.423 97.7538C208.947 98.0965 209.393 98.5445 209.734 99.0695C210.016 99.6047 210.073 100.23 209.894 100.807C209.74 101.342 209.44 101.822 209.027 102.195C208.824 102.383 208.595 102.54 208.347 102.663C208.02 102.822 207.655 102.883 207.339 103.066C207.289 103.096 207.24 103.013 207.293 102.982C207.551 102.857 207.818 102.753 208.092 102.67C208.359 102.566 208.607 102.421 208.829 102.241C209.258 101.893 209.58 101.432 209.757 100.91C209.973 100.323 209.933 99.6716 209.647 99.1151C209.312 98.6071 208.877 98.1725 208.369 97.8375C208.32 97.7995 208.369 97.7158 208.415 97.7538H208.423Z" fill="black"/>
<path d="M219.465 104.828C218.75 104.504 217.883 104.976 217.358 105.459C216.823 105.919 216.569 106.627 216.689 107.322C216.917 108.558 218.491 110.254 219.841 109.474C219.856 109.466 219.873 109.466 219.887 109.474C219.902 109.483 219.91 109.498 219.91 109.514C219.91 109.531 219.901 109.546 219.887 109.554C218.746 110.216 217.461 109.147 216.913 108.189C216.602 107.682 216.495 107.076 216.613 106.493C216.767 105.946 217.11 105.471 217.583 105.155C218.123 104.774 218.86 104.447 219.514 104.744C219.568 104.771 219.514 104.854 219.465 104.828V104.828Z" fill="black"/>
<path d="M211.442 106.606C212.422 106.579 213.31 107.18 213.647 108.1C213.853 108.538 213.938 109.022 213.894 109.503C213.806 109.96 213.53 110.359 213.134 110.602C212.374 111.184 211.332 111.72 210.377 111.26C209.575 110.88 209.286 109.891 209.278 109.062C209.231 108.058 209.672 107.092 210.461 106.469C210.51 106.435 210.56 106.518 210.51 106.553C209.847 107.064 209.439 107.838 209.392 108.674C209.32 109.435 209.457 110.355 210.043 110.91C210.78 111.61 211.864 111.329 212.632 110.838C213.049 110.621 213.403 110.3 213.659 109.906C213.845 109.443 213.845 108.925 213.659 108.461C213.351 107.477 212.518 106.606 211.423 106.701C211.362 106.701 211.362 106.613 211.423 106.606H211.442Z" fill="black"/>
<path d="M219.716 114.363C219.367 114.142 218.958 114.032 218.545 114.048C218.131 114.015 217.715 114.042 217.309 114.127C216.899 114.262 216.549 114.538 216.324 114.907C216.069 115.264 215.841 115.641 215.602 116.01C215.568 116.059 215.488 116.01 215.522 115.96C215.788 115.546 216.039 115.112 216.339 114.721C216.57 114.395 216.901 114.154 217.282 114.036C217.707 113.945 218.143 113.918 218.575 113.956C218.995 113.942 219.409 114.056 219.762 114.283C219.811 114.318 219.762 114.401 219.716 114.363Z" fill="black"/>
<path d="M211.088 115.839C210.806 115.376 210.404 114.997 209.924 114.744C209.871 114.717 209.924 114.633 209.974 114.664C210.468 114.929 210.881 115.323 211.168 115.805C211.181 115.827 211.175 115.856 211.153 115.869C211.131 115.883 211.102 115.876 211.088 115.854V115.839Z" fill="black"/>
<path d="M205.061 111.056C205.685 111.881 206.153 112.915 205.887 113.968C205.69 114.874 204.847 115.49 203.925 115.402C203.864 115.402 203.89 115.303 203.947 115.311C204.921 115.447 205.689 114.641 205.849 113.736C206.004 112.771 205.56 111.835 204.993 111.105C204.955 111.056 205.039 111.006 205.073 111.056H205.061Z" fill="black"/>
<path d="M225.454 104.731C223.981 105.058 222.97 106.413 223.077 107.918C223.153 108.661 223.493 109.352 224.036 109.865C224.659 110.45 225.507 110.659 226.317 110.85C226.378 110.85 226.351 110.956 226.291 110.945C225.586 110.819 224.911 110.561 224.302 110.184C223.82 109.844 223.444 109.375 223.218 108.83C222.761 107.752 222.963 106.507 223.739 105.629C224.18 105.123 224.772 104.771 225.427 104.625C225.488 104.625 225.515 104.705 225.454 104.716V104.731Z" fill="black"/>
<path d="M225.944 115.827C225.723 114.914 225.244 113.956 224.298 113.625C223.351 113.295 222.396 113.812 221.689 114.424C221.643 114.462 221.575 114.397 221.624 114.355C222.343 113.72 223.351 113.215 224.324 113.534C225.298 113.853 225.807 114.854 226.039 115.816C226.039 115.876 225.959 115.903 225.944 115.842V115.827Z" fill="black"/>
<path d="M98.4488 103.291C98.5511 103.408 98.6148 103.554 98.6313 103.709C98.6296 103.84 98.5484 103.957 98.426 104.005C98.2891 104.055 98.1789 103.956 98.1218 103.834C98.0415 103.691 98.0082 103.526 98.0268 103.363C98.0501 103.213 98.1756 103.1 98.3272 103.093C98.3484 103.099 98.363 103.118 98.363 103.14C98.363 103.162 98.3484 103.182 98.3272 103.188C98.2257 103.193 98.141 103.267 98.1218 103.367C98.0969 103.496 98.117 103.63 98.1789 103.747C98.2131 103.83 98.2701 103.964 98.3804 103.933C98.4724 103.905 98.5355 103.82 98.5363 103.724C98.5209 103.582 98.461 103.449 98.3652 103.344C98.331 103.294 98.4108 103.249 98.4488 103.298V103.291Z" fill="black"/>
<path d="M96.3004 101.218C96.4026 101.336 96.4663 101.482 96.4829 101.636C96.4817 101.767 96.4 101.884 96.2776 101.929C96.1407 101.982 96.0304 101.884 95.9734 101.762C95.8938 101.618 95.8594 101.454 95.8745 101.29C95.9018 101.141 96.0268 101.028 96.1787 101.017C96.2396 101.017 96.2396 101.115 96.1787 101.112C96.0772 101.12 95.9934 101.194 95.9734 101.294C95.9488 101.424 95.9689 101.558 96.0304 101.674C96.0646 101.758 96.1217 101.891 96.2319 101.861C96.324 101.833 96.3871 101.748 96.3878 101.652C96.3725 101.51 96.3126 101.377 96.2167 101.271C96.1825 101.222 96.2624 101.176 96.3004 101.226V101.218Z" fill="black"/>
<path d="M94.152 99.1468C94.2542 99.2643 94.3179 99.4103 94.3345 99.5651C94.3333 99.6958 94.2516 99.8122 94.1291 99.8579C93.9923 99.9111 93.882 99.8085 93.8249 99.6906C93.7435 99.5476 93.7089 99.3827 93.7261 99.2191C93.7521 99.0685 93.8778 98.9554 94.0303 98.9453C94.0515 98.9514 94.0661 98.9708 94.0661 98.9928C94.0661 99.0149 94.0515 99.0343 94.0303 99.0404C93.9288 99.0486 93.845 99.123 93.8249 99.2229C93.8003 99.3524 93.8204 99.4865 93.882 99.6031C93.9162 99.6868 93.9732 99.8161 94.0835 99.7895C94.1756 99.7612 94.2387 99.6766 94.2394 99.5803C94.2241 99.4387 94.1642 99.3055 94.0683 99.2001C94.0341 99.1506 94.1139 99.105 94.152 99.1544V99.1468Z" fill="black"/>
<path d="M193.011 52.7595H139.131" stroke="black" stroke-width="0.388003"/>
<path d="M193.011 56.3229H139.131" stroke="black" stroke-width="0.388003"/>
<path d="M166.531 125.857V191.754" stroke="black" stroke-width="0.388003"/>
<rect width="17.1566" height="17.1566" rx="8.57829" transform="matrix(-1 0 0 1 287.308 106.526)" fill="#9FF3DD"/>
<path d="M210.142 141.208L199.521 152.235C199.307 152.459 198.99 152.553 198.688 152.482C198.387 152.41 198.145 152.185 198.054 151.889L193.666 137.785C193.573 137.49 193.644 137.167 193.852 136.937C194.06 136.707 194.374 136.605 194.677 136.668L209.689 139.751C209.998 139.817 210.248 140.045 210.341 140.347C210.435 140.649 210.359 140.978 210.142 141.208V141.208Z" fill="#7F61CD"/>
<path d="M252.029 52.3187H218.085C218.064 52.3126 218.049 52.2932 218.049 52.2712C218.049 52.2491 218.064 52.2297 218.085 52.2236H252.029C252.05 52.2297 252.065 52.2491 252.065 52.2712C252.065 52.2932 252.05 52.3126 252.029 52.3187Z" fill="black"/>
<path d="M117.742 49.3451H104.738C104.717 49.3508 104.696 49.3432 104.684 49.3261C104.672 49.309 104.672 49.2861 104.684 49.269C104.696 49.2518 104.717 49.2443 104.738 49.25H117.742C117.763 49.2561 117.778 49.2755 117.778 49.2975C117.778 49.3196 117.763 49.339 117.742 49.3451V49.3451Z" fill="black"/>
<path d="M176.836 153.03H99.1596C99.1384 153.024 99.1237 153.004 99.1237 152.982C99.1237 152.96 99.1384 152.941 99.1596 152.935H176.836C176.857 152.941 176.872 152.96 176.872 152.982C176.872 153.004 176.857 153.024 176.836 153.03Z" fill="black"/>
<path d="M188.353 167.897H140.063C140.042 167.903 140.021 167.895 140.009 167.878C139.997 167.861 139.997 167.838 140.009 167.821C140.021 167.804 140.042 167.796 140.063 167.802H188.353C188.374 167.796 188.395 167.804 188.407 167.821C188.42 167.838 188.42 167.861 188.407 167.878C188.395 167.895 188.374 167.903 188.353 167.897V167.897Z" fill="black"/>
<path d="M295.388 139.281H265.284C265.263 139.275 265.248 139.255 265.248 139.233C265.248 139.211 265.263 139.192 265.284 139.186H295.388C295.409 139.192 295.424 139.211 295.424 139.233C295.424 139.255 295.409 139.275 295.388 139.281Z" fill="black"/>
<path d="M114.02 99.221C114.02 99.221 112.21 100.495 110.476 100.251C108.742 100.008 99.1596 92.7682 99.1596 92.7682C98.9994 92.5977 98.7757 92.501 98.5417 92.501C98.3077 92.501 98.0841 92.5977 97.9238 92.7682C97.4345 93.3662 97.0372 94.0339 96.7451 94.7493" stroke="black" stroke-width="0.388003"/>
<path d="M91.0832 88.8785C92.3853 89.2432 93.6313 89.7844 94.7867 90.4869C95.8478 91.0831 96.829 91.8114 97.707 92.6543C97.8819 92.8254 97.612 93.0954 97.437 92.9205C96.5811 92.1034 95.627 91.3958 94.5966 90.8139C93.4685 90.128 92.2518 89.5997 90.9805 89.2435C90.9126 89.2252 90.8596 89.172 90.8415 89.104C90.8234 89.036 90.843 88.9635 90.8929 88.9139C90.9427 88.8642 91.0152 88.8449 91.0832 88.8633V88.8785Z" fill="black"/>
<path d="M94.7452 92.4688C94.3617 92.403 93.9674 92.4424 93.6045 92.5829C93.4144 92.6475 93.2243 92.7198 93.0455 92.7996C92.9391 92.8415 92.7528 92.9023 92.7033 93.0202L92.3573 92.8757L92.3763 92.8377C92.4288 92.7463 92.5454 92.7148 92.6368 92.7673C92.7281 92.8198 92.7596 92.9364 92.7071 93.0278L92.6843 93.0658C92.5816 93.2483 92.2508 93.1228 92.3383 92.9213C92.4172 92.7362 92.5662 92.5899 92.7528 92.5144C92.9695 92.4118 93.1976 92.3243 93.422 92.2445C93.8757 92.0637 94.3714 92.0149 94.8517 92.1038C95.0912 92.157 94.9886 92.5259 94.7528 92.484L94.7452 92.4688Z" fill="black"/>
<path d="M92.6005 91.1798C92.547 91.2096 92.4961 91.2439 92.4485 91.2824L92.4865 91.252C92.394 91.3236 92.3109 91.4067 92.2393 91.4992L92.2659 91.4612C92.2047 91.5448 92.1513 91.6339 92.1062 91.7273C92.0826 91.7701 92.0429 91.8015 91.996 91.8148C91.9459 91.8277 91.8928 91.8209 91.8477 91.7958C91.8047 91.7707 91.7733 91.7297 91.7602 91.6817C91.743 91.6351 91.743 91.5838 91.7602 91.5372C91.8939 91.2487 92.1146 91.0093 92.3914 90.8528C92.4501 90.8101 92.528 90.8045 92.5921 90.8385C92.6563 90.8724 92.6955 90.9399 92.6933 91.0124C92.691 91.085 92.6477 91.1499 92.5815 91.1798H92.6005Z" fill="black"/>
<path d="M281.7 43.0264H289.772C291.338 43.0264 292.317 44.7237 291.531 46.0804L278.081 69.3613C277.307 70.7063 275.371 70.718 274.573 69.3848L270.467 62.4898C270.092 61.8555 270.086 61.0685 270.456 60.4284L279.941 44.0365C280.304 43.414 280.973 43.0264 281.7 43.0264Z" fill="#44E0B7"/>
<rect x="172.863" y="182.323" width="16.1469" height="16.1469" rx="8.07346" fill="#5635AC"/>
<path opacity="0.5" d="M37.3804 88.1855H11.3014" stroke="black" stroke-width="0.636071" stroke-linecap="round"/>
<path opacity="0.5" d="M57.7344 88.1855H43.1047" stroke="black" stroke-width="0.636071" stroke-linecap="round"/>
</svg>
