<svg width="306" height="42" viewBox="0 0 306 42" fill="none" xmlns="http://www.w3.org/2000/svg">
<path d="M76.4287 20.6684H67.8241C68.216 16.6567 60.5356 13.1728 57.7011 17.6297C59.8356 11.6285 53.1313 5.42702 47.5781 12.0585C44.035 7.16275 36.5382 -0.94205 29.8628 1.42295C23.7075 3.60366 24.4638 9.86389 25.3074 12.0585C22.6079 11.2144 18.3989 12.0585 18.3989 16.2742C18.3989 21.5409 23.2828 22.019 23.789 22.1878H-0.000165213" stroke="#181A1D" stroke-width="0.6" stroke-linejoin="round"/>
<path d="M250 39.2671C252.852 39.4545 258.785 39.6044 259.698 38.705C260.562 37.8536 264.902 37.6067 267.299 37.5827C267.529 37.5804 267.731 37.4322 267.803 37.2133C269.37 32.4813 273.37 25.5133 278.072 31.8716C278.295 32.174 278.761 32.1819 279.015 31.9044C281.347 29.3555 286.93 27.445 287.418 33.6281V35.2494C287.418 35.7066 287.982 35.9685 288.375 35.7348C292.094 33.5234 298.019 35.16 294.529 40.1788C294.261 40.564 294.541 41.1276 295.009 41.0956L305.336 40.3915" stroke="#181A1D" stroke-width="0.527013" stroke-linejoin="round"/>
</svg>
