<svg width="1493" height="356" viewBox="0 0 1493 356" fill="none" xmlns="http://www.w3.org/2000/svg">
<path d="M207 211.674H181.331C182.5 199.707 159.588 189.313 151.132 202.609C157.5 184.707 137.5 166.207 120.934 185.989C110.364 171.385 88 147.207 68.0861 154.262C49.7239 160.767 51.9801 179.442 54.4967 185.989C46.4437 183.471 33.8874 185.989 33.8874 198.565C33.8874 214.277 48.457 215.703 49.9669 216.207H-21" stroke="#181A1D" stroke-width="2" stroke-linejoin="round"/>
<path opacity="0.7" d="M1356 298H1376.15C1379.84 290.551 1388.24 278.7 1392.26 290.89C1394.95 283.102 1402.14 270.574 1409.39 282.763C1412.41 273.283 1421.08 255.134 1431.55 258.385C1442.03 261.635 1439.95 274.637 1437.6 280.732C1439.95 280.393 1444.45 281.341 1443.64 287.842C1447 286.488 1453.91 285.201 1454.72 290.89C1455.53 296.578 1453.71 298 1452.71 298H1493" stroke="#181A1D" stroke-linejoin="round"/>
<path d="M427 355H416.265C414.297 350.903 409.824 344.385 407.676 351.089C406.245 346.806 402.416 339.916 398.551 346.62C396.941 341.405 392.325 331.424 386.743 333.212C381.16 334.999 382.27 342.15 383.522 345.503C382.27 345.316 379.872 345.838 380.301 349.413C378.512 348.668 374.826 347.961 374.397 351.089C373.968 354.218 374.934 355 375.471 355H354" stroke="#181A1D" stroke-linejoin="round"/>
<path d="M1233 62.8663C1238.41 63.2218 1249.67 63.5063 1251.4 61.7997C1253.04 60.1842 1261.28 59.7157 1265.82 59.6702C1266.26 59.6658 1266.64 59.3846 1266.78 58.9693C1269.75 49.9904 1277.34 36.7687 1286.27 48.8335C1286.69 49.4073 1287.57 49.4222 1288.06 48.8957C1292.48 44.0592 1303.07 40.4339 1304 52.1664V55.2427C1304 56.1103 1305.07 56.6072 1305.82 56.1638C1312.87 51.9678 1324.12 55.0732 1317.49 64.5963C1316.99 65.3272 1317.52 66.3965 1318.4 66.3359L1338 64.9998" stroke="#181A1D" stroke-linejoin="round"/>
<path d="M390 10.901C386.856 11.1064 380.315 11.2707 379.309 10.2848C378.393 9.38679 373.928 9.10227 371.238 9.05871C370.802 9.05163 370.419 8.77026 370.276 8.35745C368.529 3.31531 364.361 -3.6778 359.443 2.29818C358.991 2.84747 358.097 2.87124 357.574 2.38937C354.803 -0.162181 349.262 -1.69529 348.752 4.71984V5.5523C348.752 6.41857 347.656 6.94604 346.859 6.60483C343.02 4.95972 337.954 6.55124 340.374 11.0321C340.797 11.8164 340.258 12.8968 339.369 12.8365L329 12.1335" stroke="#181A1D" stroke-linejoin="round"/>
</svg>
