<svg width="286" height="180" viewBox="0 0 286 180" fill="none" xmlns="http://www.w3.org/2000/svg">
<g clip-path="url(#clip0)">
<path d="M141.936 172.034L139.372 173.163C139.372 173.163 129.815 162.602 123.989 149.237C122.85 139.183 118.182 131.969 114.384 128.851C111.552 126.535 109.342 123.847 108.309 122.508C108.309 122.508 121.559 130.735 124.591 135.786C127.49 140.646 133.88 160.966 141.936 172.034Z" fill="#E6E2EE"/>
<path d="M138.013 171.106L139.62 172.962C139.62 172.962 147.015 170.13 146.815 169.097C146.614 168.064 143.763 167.806 143.763 167.806L138.013 171.106Z" fill="#C2B6D6"/>
<path d="M117.34 171.106H124.275C124.275 171.106 126.074 172.379 126.103 172.886C126.141 173.393 124.993 173.756 122.563 173.823C120.133 173.9 117.961 173.651 117.961 173.651L117.34 171.106Z" fill="#C2B6D6"/>
<path d="M211.973 165.108L212.432 163.865L217.292 162.238L218.832 170.695L212.863 173.173L210.184 173.087L211.973 165.108Z" fill="#C2B6D6"/>
<path d="M204.119 166.514L204.071 170.599C204.071 170.599 202.11 171.307 201.574 172.474C201.038 173.632 201.622 173.708 201.622 173.708H209.534L212.002 165.558L203.861 165.73L204.119 166.514Z" fill="#C2B6D6"/>
<path d="M199.699 20.6709H111.427C105.171 20.6709 100.101 25.7412 100.101 31.9978C100.101 38.2544 105.171 43.3248 111.427 43.3248H112.03C115.283 43.3248 117.923 45.9652 117.923 49.2178C117.923 52.4705 115.283 55.1109 112.03 55.1109H89.0702C86.4872 55.1109 84.3825 57.206 84.3825 59.7986C84.3825 62.3816 86.4776 64.4862 89.0702 64.4862H176.739C178.241 64.4862 179.456 63.2713 179.456 61.7693V60.5639C179.456 59.0619 180.671 57.847 182.173 57.847H194.256C195.758 57.847 196.973 56.632 196.973 55.13V46.0704C196.973 44.5684 198.188 43.3535 199.69 43.3535C201.192 43.3535 202.406 42.1385 202.406 40.6365V23.4165C202.416 21.8859 201.201 20.6709 199.699 20.6709Z" fill="#F2EFF8"/>
<path d="M117.349 74.4457H144.691C146.566 74.4457 148.087 72.9245 148.087 71.0495C148.087 69.1744 146.566 67.6533 144.691 67.6533H117.349C115.474 67.6533 113.953 69.1744 113.953 71.0495C113.944 72.9245 115.465 74.4457 117.349 74.4457Z" fill="#F2EFF8"/>
<path d="M202.521 9.99456H218.287C219.54 9.99456 220.554 8.98049 220.554 7.72726C220.554 6.47403 219.54 5.45996 218.287 5.45996H202.521C201.268 5.45996 200.254 6.47403 200.254 7.72726C200.254 8.98049 201.268 9.99456 202.521 9.99456Z" fill="#F2EFF8"/>
<path d="M192.247 23.5606H212.997C215.685 23.5606 217.857 21.3889 217.857 18.7007C217.857 16.0125 215.685 13.8408 212.997 13.8408H192.247C189.558 13.8408 187.387 16.0125 187.387 18.7007C187.387 21.3889 189.558 23.5606 192.247 23.5606Z" fill="#F2EFF8"/>
<path d="M224.477 16.5004H227.146C228.399 16.5004 229.413 15.4864 229.413 14.2331C229.413 12.9799 228.399 11.9658 227.146 11.9658H224.477C223.224 11.9658 222.209 12.9799 222.209 14.2331C222.209 15.4864 223.224 16.5004 224.477 16.5004Z" fill="#F2EFF8"/>
<path d="M12.6134 177.67H9.54248C9.27461 177.67 9.06415 177.459 9.06415 177.191C9.06415 176.923 9.27461 176.713 9.54248 176.713H12.6134C12.8812 176.713 13.0917 176.923 13.0917 177.191C13.0917 177.459 12.8812 177.67 12.6134 177.67Z" fill="#3F3F3F"/>
<path d="M94.9441 177.67H16.6601C16.3922 177.67 16.1818 177.459 16.1818 177.191C16.1818 176.923 16.3922 176.713 16.6601 176.713H94.9441C95.212 176.713 95.4225 176.923 95.4225 177.191C95.4225 177.459 95.212 177.67 94.9441 177.67Z" fill="#3F3F3F"/>
<path d="M151.856 177.67H100.914C100.646 177.67 100.435 177.459 100.435 177.191C100.435 176.923 100.646 176.713 100.914 176.713H151.856C152.124 176.713 152.335 176.923 152.335 177.191C152.335 177.459 152.124 177.67 151.856 177.67Z" fill="#3F3F3F"/>
<path d="M254.602 177.67H151.856C151.588 177.67 151.378 177.459 151.378 177.191C151.378 176.923 151.588 176.713 151.856 176.713H254.602C254.87 176.713 255.081 176.923 255.081 177.191C255.081 177.459 254.87 177.67 254.602 177.67Z" fill="#3F3F3F"/>
<path d="M277.132 177.67H259.606C259.338 177.67 259.127 177.459 259.127 177.191C259.127 176.923 259.338 176.713 259.606 176.713H277.132C277.4 176.713 277.61 176.923 277.61 177.191C277.61 177.459 277.4 177.67 277.132 177.67Z" fill="#3F3F3F"/>
<path d="M218.976 122.164C216.058 126.22 207.419 132.802 205.85 138.437C205.21 140.723 204.798 146.148 204.54 151.897C204.54 151.897 203.076 149.046 201.622 145.325C201.22 144.292 200.78 143.192 200.417 141.967C200.895 138.351 202.005 134.409 204.358 131.453C207.075 128.057 218.976 122.164 218.976 122.164Z" fill="#E6E2EE"/>
<path d="M235.727 131.625C234.206 134.256 232.675 137.604 227.251 141.421C223.348 144.167 220.564 144.645 220.564 144.645L224.802 168.524V173.336H214.681V172.293L218.593 170.609L217.388 163.157C217.388 163.157 216.747 157.312 216.345 153.638C215.953 149.974 214.747 146.779 214.747 146.779C214.738 144.875 214.652 143.622 214.805 142.742C215.197 140.503 226.007 136.791 230.867 130.219C232.828 130.305 234.426 130.85 235.727 131.625Z" fill="#E6E2EE"/>
<path d="M178.078 174.11C177.811 174.11 177.6 173.9 177.6 173.632V113.687C177.6 113.419 177.811 113.209 178.078 113.209C178.346 113.209 178.557 113.419 178.557 113.687V173.632C178.557 173.9 178.337 174.11 178.078 174.11Z" fill="#2C0F6B"/>
<path d="M173.333 111.956L218.832 111.774V113.305H173.353L173.333 111.956Z" fill="#C2B6D6"/>
<path d="M218.832 113.783H173.353C173.094 113.783 172.874 113.573 172.874 113.314L172.855 111.966C172.855 111.841 172.903 111.717 172.989 111.621C173.075 111.525 173.199 111.478 173.324 111.478L218.823 111.296C218.947 111.296 219.072 111.344 219.158 111.439C219.244 111.525 219.301 111.65 219.301 111.774V113.305C219.311 113.573 219.091 113.783 218.832 113.783ZM173.821 112.827H218.345V112.253L173.812 112.425L173.821 112.827Z" fill="#2C0F6B"/>
<path d="M210.031 173.575C209.782 173.575 209.572 173.383 209.553 173.125C209.534 172.857 209.735 172.637 210.002 172.618L213.131 172.436L218.058 170.313L216.919 163.224L215.867 153.676C215.484 150.108 214.307 146.96 214.298 146.932C214.202 146.683 214.327 146.405 214.575 146.319C214.824 146.224 215.101 146.348 215.188 146.597C215.235 146.731 216.412 149.897 216.814 153.58L217.857 163.099L219.052 170.533C219.091 170.753 218.966 170.963 218.765 171.049L213.418 173.355C213.37 173.374 213.312 173.393 213.255 173.393L210.05 173.575C210.05 173.575 210.041 173.575 210.031 173.575Z" fill="#2C0F6B"/>
<path d="M209.888 174.187H201.364C201.125 174.187 200.933 174.015 200.895 173.785C200.895 173.757 200.531 171.288 203.593 170.246C203.602 168.648 203.669 161.808 203.928 154.834L204.052 151.868C204.368 144.894 204.817 140.331 205.382 138.303C206.444 134.495 210.519 130.391 214.106 126.765C215.905 124.957 217.598 123.245 218.584 121.877C218.708 121.695 218.832 121.532 218.928 121.379C219.072 121.159 219.359 121.083 219.588 121.226C219.808 121.37 219.885 121.657 219.741 121.886C219.636 122.058 219.502 122.25 219.359 122.441C218.335 123.866 216.613 125.608 214.786 127.444C211.275 130.984 207.305 134.992 206.31 138.561C205.764 140.493 205.315 145.114 205.009 151.906L204.884 154.853C204.588 162.774 204.54 170.514 204.54 170.59C204.54 170.801 204.396 170.992 204.195 171.049C202.339 171.566 201.928 172.637 201.842 173.211H209.505L210.481 169.165C210.643 168.619 210.787 168.112 210.93 167.615L211.131 166.907C213.992 156.489 214.288 150.414 214.269 146.75C214.269 146.243 214.26 145.793 214.25 145.372C214.231 144.176 214.212 143.315 214.336 142.627C214.537 141.46 216.489 140.302 219.445 138.542C222.946 136.456 227.749 133.605 230.494 129.893C231.566 128.458 232.235 127.033 232.541 125.56C232.714 124.775 232.819 123.991 232.876 123.149C233.211 117.734 230.456 114.74 230.427 114.711C230.245 114.52 230.255 114.214 230.446 114.032C230.638 113.85 230.944 113.86 231.126 114.051C231.25 114.185 234.196 117.352 233.833 123.206C233.776 124.096 233.661 124.928 233.479 125.751C233.144 127.339 232.398 128.927 231.26 130.458C228.399 134.313 223.511 137.231 219.933 139.355C217.704 140.675 215.408 142.043 215.283 142.78C215.178 143.382 215.188 144.205 215.207 145.344C215.216 145.765 215.226 146.224 215.226 146.731C215.245 150.452 214.939 156.613 212.05 167.146L211.849 167.854C211.705 168.361 211.562 168.878 211.409 169.394L210.347 173.776C210.309 174.034 210.108 174.187 209.888 174.187Z" fill="#2C0F6B"/>
<path d="M204.54 152.375C204.368 152.375 204.195 152.279 204.109 152.117C204.09 152.088 202.617 149.208 201.172 145.496L201.115 145.343C200.723 144.329 200.311 143.287 199.957 142.1C199.249 139.709 198.982 137.441 199.125 134.964C199.69 124.679 212.05 117.906 213.456 117.17C216.469 115.582 216.804 113.63 216.814 113.553C216.852 113.295 217.101 113.113 217.359 113.152C217.617 113.19 217.799 113.429 217.761 113.687C217.751 113.793 217.378 116.184 213.896 118.021C212.538 118.739 200.608 125.273 200.072 135.021C199.938 137.384 200.197 139.546 200.876 141.832C201.211 142.971 201.612 144.004 202.005 144.999L202.062 145.152C203.497 148.807 204.951 151.648 204.961 151.677C205.085 151.916 204.99 152.203 204.75 152.318C204.683 152.356 204.616 152.375 204.54 152.375Z" fill="#2C0F6B"/>
<path d="M211.964 166.237H204.128C203.861 166.237 203.65 166.026 203.65 165.759C203.65 165.491 203.861 165.28 204.128 165.28H211.964C212.231 165.28 212.442 165.491 212.442 165.759C212.442 166.026 212.231 166.237 211.964 166.237Z" fill="#2C0F6B"/>
<path d="M210.385 174.11C210.117 174.11 209.907 173.9 209.907 173.632V113.687C209.907 113.419 210.117 113.209 210.385 113.209C210.653 113.209 210.863 113.419 210.863 113.687V173.632C210.863 173.9 210.643 174.11 210.385 174.11Z" fill="#2C0F6B"/>
<path d="M222.755 92.947C222.123 92.947 221.042 92.7366 220.287 91.4451C219.081 89.4074 219.751 85.5903 219.78 85.4276C219.799 85.2937 219.923 85.2172 220.057 85.2363C220.191 85.2554 220.277 85.3798 220.248 85.5137C220.239 85.552 219.588 89.3213 220.698 91.1963C221.339 92.2774 222.209 92.4974 222.841 92.4591C223.692 92.4304 224.362 91.9808 224.515 91.6651C224.572 91.5503 224.716 91.5025 224.84 91.5599C224.955 91.6173 225.003 91.7608 224.946 91.8851C224.697 92.373 223.855 92.9088 222.86 92.9375C222.822 92.947 222.793 92.947 222.755 92.947Z" fill="#2C0F6B"/>
<path d="M222.42 90.0481C222.41 90.0481 222.401 90.0481 222.401 90.0481C222.19 90.0289 222.076 89.9237 222.009 89.8376C221.836 89.5984 221.913 89.254 221.999 88.8905L222.037 88.6992C222.133 88.2495 222.152 87.7616 222.152 87.7521C222.162 87.6181 222.276 87.532 222.401 87.5225C222.535 87.532 222.64 87.6373 222.63 87.7712C222.63 87.7903 222.611 88.3069 222.506 88.7948L222.458 88.9957C222.42 89.1775 222.343 89.4932 222.391 89.5602C222.525 89.5697 222.64 89.6941 222.63 89.828C222.621 89.9524 222.535 90.0481 222.42 90.0481Z" fill="#2C0F6B"/>
<path d="M224.745 87.0633C224.668 87.0633 224.592 87.025 224.544 86.958C224.151 86.3649 223.587 86.5562 223.558 86.5562C223.434 86.5945 223.3 86.5371 223.252 86.4032C223.214 86.2788 223.271 86.1449 223.405 86.097C223.731 85.9822 224.477 85.9631 224.946 86.6902C225.022 86.805 224.984 86.9485 224.879 87.025C224.84 87.0537 224.792 87.0633 224.745 87.0633Z" fill="#2C0F6B"/>
<path d="M220.526 86.8909C220.478 86.8909 220.43 86.8718 220.382 86.8431C220.277 86.7665 220.248 86.6135 220.334 86.5082C220.755 85.9342 221.358 85.9629 221.626 86.0586C221.75 86.1064 221.817 86.2404 221.769 86.3647C221.731 86.4891 221.597 86.5561 221.463 86.5082C221.415 86.4891 221.014 86.3743 220.717 86.7952C220.669 86.8622 220.602 86.8909 220.526 86.8909Z" fill="#2C0F6B"/>
<path d="M223.951 88.5559C223.817 88.5559 223.711 88.4507 223.711 88.3168V87.3983C223.711 87.2644 223.817 87.1592 223.951 87.1592C224.085 87.1592 224.19 87.2644 224.19 87.3983V88.3168C224.19 88.4507 224.085 88.5559 223.951 88.5559Z" fill="#2C0F6B"/>
<path d="M221.253 88.3928C221.119 88.3928 221.014 88.2876 221.014 88.1537V87.2831C221.014 87.1492 221.119 87.0439 221.253 87.0439C221.387 87.0439 221.492 87.1492 221.492 87.2831V88.1537C221.492 88.2876 221.387 88.3928 221.253 88.3928Z" fill="#2C0F6B"/>
<path d="M222.678 91.0622C222.525 91.0622 222.391 91.0431 222.286 91.0048C222.162 90.9666 222.095 90.8327 222.133 90.6987C222.171 90.5744 222.305 90.5074 222.43 90.5457C222.496 90.5648 223.09 90.7274 223.453 90.1152C223.52 90.0004 223.664 89.9621 223.778 90.029C223.893 90.096 223.931 90.2395 223.865 90.3543C223.549 90.9092 223.061 91.0622 222.678 91.0622Z" fill="#2C0F6B"/>
<path d="M226.486 92.5448C228.916 93.4824 230.045 91.5499 230.045 91.5499C228.265 91.8369 229.212 87.0153 227.71 84.2601C226.955 82.8729 225.998 81.7441 223.664 81.878C219.091 82.1459 219.722 86.0395 219.722 86.0395C222.334 85.7238 223.539 84.0209 223.539 84.0209C223.539 84.0209 226.495 84.8437 226.495 87.7328C226.505 90.7272 226.486 92.5448 226.486 92.5448Z" fill="#2C0F6B"/>
<path d="M227.758 93.0332C227.356 93.0332 226.907 92.9566 226.4 92.7653C226.304 92.727 226.247 92.641 226.247 92.5357C226.247 92.5357 226.266 90.718 226.266 87.7141C226.266 85.3798 224.218 84.4901 223.635 84.2892C223.271 84.7197 222.028 86.0017 219.76 86.2696C219.636 86.2887 219.512 86.193 219.493 86.0686C219.483 86.0017 219.234 84.3849 220.258 83.103C220.975 82.2133 222.114 81.7158 223.654 81.6297C225.988 81.4958 227.05 82.5386 227.921 84.1362C228.619 85.4181 228.801 87.0731 228.964 88.5368C229.097 89.7614 229.222 90.9094 229.643 91.2251C229.748 91.3016 229.863 91.3303 230.016 91.3016C230.102 91.2825 230.198 91.3303 230.255 91.3973C230.303 91.4738 230.312 91.5695 230.265 91.6556C230.245 91.6843 229.432 93.0332 227.758 93.0332ZM226.735 92.3731C228.256 92.8897 229.184 92.1913 229.605 91.7417C229.518 91.713 229.432 91.6652 229.356 91.6078C228.772 91.1677 228.648 90.0293 228.495 88.5847C228.342 87.1688 228.16 85.5521 227.509 84.3562C226.706 82.8734 225.787 81.9837 223.692 82.0985C222.296 82.175 221.272 82.6151 220.641 83.3996C219.961 84.251 219.923 85.2937 219.952 85.7529C222.267 85.3894 223.348 83.8779 223.367 83.8683C223.424 83.7822 223.53 83.744 223.625 83.7727C223.654 83.7822 226.754 84.6815 226.754 87.7141C226.744 90.1919 226.735 91.8565 226.735 92.3731Z" fill="#2C0F6B"/>
<path d="M222.296 95.6062C222.028 95.6062 221.817 95.3958 221.817 95.1279V92.9276C221.817 92.6597 222.028 92.4492 222.296 92.4492C222.563 92.4492 222.774 92.6597 222.774 92.9276V95.1279C222.774 95.3958 222.554 95.6062 222.296 95.6062Z" fill="#2C0F6B"/>
<path d="M212.997 107.776C212.748 107.776 212.538 107.584 212.518 107.336C212.499 107.106 212.078 101.739 213.906 98.1995C215.924 94.2867 221.999 93.8371 222.257 93.8275C222.516 93.8179 222.745 94.0093 222.764 94.2771C222.783 94.545 222.583 94.765 222.315 94.7842C222.257 94.7842 216.517 95.2147 214.747 98.6395C213.045 101.94 213.456 107.211 213.466 107.269C213.485 107.537 213.293 107.766 213.025 107.785C213.016 107.776 213.006 107.776 212.997 107.776Z" fill="#2C0F6B"/>
<path d="M222.382 99.5483C222.238 99.5483 222.095 99.4814 222.009 99.3666L221.358 98.5343C220.688 97.6733 219.894 96.0661 219.866 95.9991C219.751 95.7599 219.847 95.4729 220.086 95.3581C220.325 95.2433 220.612 95.339 220.727 95.5782C220.736 95.5973 221.511 97.1662 222.114 97.9507L222.363 98.2664L223.511 96.6018C223.597 96.4679 223.74 96.4009 223.912 96.3913C224.075 96.3913 224.218 96.4774 224.305 96.6114L225.405 98.3142C226.017 97.7402 227.175 96.5348 227.835 95.119C227.949 94.8798 228.227 94.7746 228.466 94.8894C228.705 95.0042 228.81 95.2816 228.696 95.5208C227.682 97.6924 225.692 99.3379 225.606 99.4048C225.5 99.4909 225.366 99.5292 225.233 99.5101C225.099 99.4909 224.974 99.4144 224.907 99.2996L223.893 97.7307L222.783 99.3474C222.697 99.4718 222.554 99.5483 222.401 99.5579C222.391 99.5483 222.391 99.5483 222.382 99.5483Z" fill="#2C0F6B"/>
<path d="M229.968 109.153C229.958 109.153 229.958 109.153 229.949 109.153C229.681 109.143 229.48 108.923 229.48 108.665L229.557 106.235C229.557 106.11 229.614 105.986 229.71 105.9C229.805 105.814 229.93 105.756 230.054 105.776L235.459 105.976C235.593 104.58 235.823 100.17 233.785 98.304C230.982 95.7306 226.763 95.3288 226.725 95.3192C226.476 95.3001 226.285 95.0896 226.285 94.8409V92.4588C226.285 92.1909 226.495 91.9805 226.763 91.9805C227.031 91.9805 227.242 92.1909 227.242 92.4588V94.42C228.457 94.5922 231.91 95.281 234.426 97.5961C237.22 100.16 236.387 106.273 236.349 106.541C236.311 106.78 236.11 106.971 235.861 106.952L230.494 106.751L230.437 108.693C230.437 108.952 230.226 109.153 229.968 109.153Z" fill="#2C0F6B"/>
<path d="M231.48 110.559C231.307 110.559 231.145 110.464 231.059 110.311C231.03 110.253 230.37 109.144 227.949 109.019C226.955 108.971 225.567 108.943 224.104 108.924C220.841 108.876 218.813 108.828 218.144 108.608C217.637 108.436 216.881 108.369 216.307 108.684C215.924 108.895 215.656 109.268 215.532 109.785C215.465 110.043 215.207 110.196 214.948 110.129C214.69 110.062 214.537 109.804 214.604 109.545C214.795 108.77 215.226 108.177 215.848 107.833C216.91 107.249 218.105 107.575 218.44 107.689C219.014 107.881 221.846 107.919 224.113 107.957C225.587 107.976 226.974 107.996 227.988 108.053C231.011 108.206 231.853 109.785 231.891 109.851C232.015 110.091 231.92 110.378 231.69 110.492C231.633 110.54 231.556 110.559 231.48 110.559Z" fill="#2C0F6B"/>
<path d="M230.159 114.903C228.504 114.903 226.543 114.597 224.008 113.554L222.784 113.047C219.531 111.698 218.182 111.143 216.852 111.545C216.603 111.621 216.336 111.478 216.259 111.229C216.183 110.98 216.326 110.713 216.575 110.636C218.23 110.129 219.77 110.77 223.147 112.167L224.372 112.674C228.562 114.396 231.116 113.984 233.355 113.621C234.761 113.391 235.249 109.306 235.153 106.484C235.144 106.216 235.354 105.996 235.612 105.987C235.871 105.977 236.1 106.188 236.11 106.446C236.139 107.23 236.301 114.109 233.508 114.568C232.494 114.721 231.413 114.903 230.159 114.903Z" fill="#2C0F6B"/>
<path d="M217.369 108.464C217.101 108.464 216.89 108.254 216.89 107.986V101.442C216.89 101.174 217.101 100.964 217.369 100.964C217.637 100.964 217.847 101.174 217.847 101.442V107.986C217.847 108.254 217.627 108.464 217.369 108.464Z" fill="#2C0F6B"/>
<path d="M217.369 106.293H212.949C212.681 106.293 212.471 106.082 212.471 105.814C212.471 105.546 212.681 105.336 212.949 105.336H217.369C217.637 105.336 217.847 105.546 217.847 105.814C217.847 106.082 217.627 106.293 217.369 106.293Z" fill="#2C0F6B"/>
<path d="M208.673 110.052C208.414 110.052 208.204 109.841 208.194 109.583C208.175 108.607 208.654 106.732 210.615 106.617C212.758 106.493 215.618 108.301 215.742 108.378C215.962 108.521 216.029 108.818 215.886 109.038C215.742 109.258 215.446 109.325 215.226 109.181C215.197 109.162 212.518 107.459 210.672 107.565C209.122 107.66 209.141 109.478 209.151 109.554C209.161 109.822 208.95 110.033 208.682 110.042C208.682 110.052 208.673 110.052 208.673 110.052Z" fill="#2C0F6B"/>
<path d="M223.817 101.461C223.549 101.461 223.338 101.251 223.338 100.983V99.7108C223.338 99.4429 223.549 99.2324 223.817 99.2324C224.085 99.2324 224.295 99.4429 224.295 99.7108V100.983C224.295 101.241 224.085 101.461 223.817 101.461Z" fill="#2C0F6B"/>
<path d="M223.817 104.35C223.549 104.35 223.338 104.14 223.338 103.872V102.599C223.338 102.332 223.549 102.121 223.817 102.121C224.085 102.121 224.295 102.332 224.295 102.599V103.872C224.295 104.13 224.085 104.35 223.817 104.35Z" fill="#2C0F6B"/>
<path d="M223.817 107.25C223.549 107.25 223.338 107.039 223.338 106.771V105.499C223.338 105.231 223.549 105.021 223.817 105.021C224.085 105.021 224.295 105.231 224.295 105.499V106.771C224.295 107.039 224.085 107.25 223.817 107.25Z" fill="#2C0F6B"/>
<path d="M193.28 112.214C193.012 112.214 192.802 112.004 192.802 111.736V110.32C192.802 110.052 193.012 109.842 193.28 109.842H216.393C216.661 109.842 216.871 110.052 216.871 110.32V111.42C216.871 111.688 216.661 111.899 216.393 111.899C216.125 111.899 215.915 111.688 215.915 111.42V110.798H193.758V111.736C193.758 111.994 193.548 112.214 193.28 112.214Z" fill="#2C0F6B"/>
<path d="M199.69 109.774H192.773V111.449H199.69V109.774Z" fill="#2C0F6B"/>
<path d="M197.786 104.838H194.791V110.291H197.786V104.838Z" fill="#2C0F6B"/>
<path d="M207.926 87.7617H184.842C184.335 87.7617 183.924 88.1731 183.924 88.6801V104.178C183.924 104.685 184.335 105.097 184.842 105.097H207.926C208.433 105.097 208.845 104.685 208.845 104.178V88.6801C208.845 88.1731 208.433 87.7617 207.926 87.7617Z" fill="#C2B6D6"/>
<path d="M207.926 105.575H184.842C184.077 105.575 183.445 104.953 183.445 104.178V88.6799C183.445 87.9146 184.067 87.2832 184.842 87.2832H207.926C208.692 87.2832 209.323 87.905 209.323 88.6799V104.178C209.323 104.943 208.692 105.575 207.926 105.575ZM184.842 88.2399C184.603 88.2399 184.402 88.4408 184.402 88.6799V104.178C184.402 104.417 184.603 104.618 184.842 104.618H207.926C208.166 104.618 208.367 104.417 208.367 104.178V88.6799C208.367 88.4408 208.166 88.2399 207.926 88.2399H184.842Z" fill="#2C0F6B"/>
<path d="M227.375 86.6804C227.299 86.6804 227.222 86.6421 227.175 86.5656C227.108 86.4508 227.136 86.3073 227.251 86.2403C227.309 86.202 228.696 85.3028 228.351 83.8773C228.045 82.6145 226.983 82.471 226.935 82.4615C226.801 82.4423 226.715 82.3275 226.725 82.1936C226.744 82.0597 226.859 81.9736 226.993 81.9831C227.05 81.9927 228.428 82.1649 228.82 83.7625C229.251 85.5228 227.586 86.6038 227.509 86.6421C227.471 86.6612 227.423 86.6804 227.375 86.6804Z" fill="#74DCB9"/>
<path d="M227.538 87.4175C227.987 87.4175 228.351 86.9078 228.351 86.2791C228.351 85.6503 227.987 85.1406 227.538 85.1406C227.089 85.1406 226.725 85.6503 226.725 86.2791C226.725 86.9078 227.089 87.4175 227.538 87.4175Z" fill="#74DCB9"/>
<path d="M218.88 91.6175C218.823 91.6175 218.765 91.5984 218.727 91.5601C218.44 91.3018 218.278 90.9957 218.268 90.6417C218.239 89.8764 218.899 89.1876 218.928 89.1684C219.024 89.0728 219.167 89.0728 219.263 89.1684C219.359 89.2641 219.359 89.4076 219.263 89.5033C219.253 89.5128 218.718 90.0773 218.737 90.6321C218.746 90.8522 218.842 91.0339 219.033 91.2061C219.129 91.2922 219.139 91.4453 219.052 91.541C219.014 91.5888 218.947 91.6175 218.88 91.6175Z" fill="#74DCB9"/>
<path d="M219.86 92.0153C220.034 91.7503 219.892 91.3497 219.543 91.1205C219.194 90.8913 218.77 90.9203 218.596 91.1853C218.422 91.4502 218.564 91.8508 218.913 92.08C219.262 92.3092 219.686 92.2802 219.86 92.0153Z" fill="#74DCB9"/>
<path d="M212.375 164.544C212.174 164.544 211.983 164.42 211.916 164.219C211.83 163.97 211.973 163.702 212.222 163.616L217.158 161.99C217.407 161.904 217.675 162.047 217.761 162.296C217.847 162.545 217.704 162.813 217.455 162.899L212.518 164.525C212.48 164.535 212.423 164.544 212.375 164.544Z" fill="#2C0F6B"/>
<path d="M241.295 173.824H214.681C214.413 173.824 214.202 173.613 214.202 173.345V172.293C214.202 172.025 214.413 171.815 214.681 171.815C214.948 171.815 215.159 172.025 215.159 172.293V172.867H240.817V140.216C240.807 140.216 239.841 134.648 235.478 132.037C234.11 131.223 232.561 130.764 230.858 130.678C230.59 130.668 230.389 130.439 230.408 130.171C230.418 129.903 230.647 129.693 230.915 129.721C232.771 129.817 234.474 130.324 235.976 131.214C240.731 134.074 241.735 139.891 241.773 140.139L241.783 173.345C241.773 173.613 241.563 173.824 241.295 173.824Z" fill="#2C0F6B"/>
<path d="M86.5733 173.421H33.5357V169.489H81.5604V160.296H86.5255L86.5733 173.421Z" fill="#E6E2EE"/>
<path d="M112.614 148.214V173.422H107.237V144.894C107.237 144.894 105.802 144.894 99.1535 141.862C94.7815 139.862 91.7871 135.376 90.2469 132.534C91.6341 131.176 93.49 129.98 95.9295 129.396C98.0916 133.156 103.525 136.237 107.62 138.829C110.538 140.676 112.633 142.876 112.633 142.876C112.489 144.502 112.499 146.32 112.614 148.214Z" fill="#E6E2EE"/>
<path d="M104.75 92.947C104.712 92.947 104.683 92.947 104.654 92.947C103.659 92.9087 102.808 92.3826 102.569 91.8947C102.511 91.7799 102.559 91.6364 102.674 91.5694C102.789 91.512 102.932 91.5598 102.999 91.6746C103.152 91.9903 103.822 92.44 104.673 92.4687C105.295 92.4974 106.175 92.2869 106.816 91.2059C107.926 89.3212 107.276 85.5615 107.266 85.5233C107.247 85.3893 107.333 85.265 107.457 85.2458C107.582 85.2267 107.716 85.3128 107.735 85.4372C107.763 85.5998 108.424 89.4169 107.228 91.4546C106.453 92.7365 105.381 92.947 104.75 92.947Z" fill="#2C0F6B"/>
<path d="M105.085 90.0483C104.96 90.0483 104.855 89.9526 104.846 89.8378C104.836 89.7039 104.932 89.5891 105.056 89.5795C105.152 89.503 105.075 89.1873 105.037 89.0055L104.989 88.8046C104.884 88.3071 104.865 87.8001 104.865 87.781C104.865 87.647 104.96 87.5418 105.094 87.5322C105.238 87.5418 105.334 87.6279 105.343 87.7618C105.343 87.7618 105.362 88.2593 105.458 88.7089L105.496 88.9003C105.582 89.2638 105.659 89.6082 105.487 89.8474C105.429 89.9335 105.314 90.0291 105.094 90.0578C105.104 90.0483 105.094 90.0483 105.085 90.0483Z" fill="#2C0F6B"/>
<path d="M103.554 88.5559C103.42 88.5559 103.315 88.4507 103.315 88.3168V87.3983C103.315 87.2644 103.42 87.1592 103.554 87.1592C103.688 87.1592 103.793 87.2644 103.793 87.3983V88.3168C103.793 88.4507 103.688 88.5559 103.554 88.5559Z" fill="#2C0F6B"/>
<path d="M106.252 88.3928C106.118 88.3928 106.013 88.2876 106.013 88.1537V87.2831C106.013 87.1492 106.118 87.0439 106.252 87.0439C106.386 87.0439 106.491 87.1492 106.491 87.2831V88.1537C106.491 88.2876 106.386 88.3928 106.252 88.3928Z" fill="#2C0F6B"/>
<path d="M102.712 87.063C102.664 87.063 102.626 87.0534 102.578 87.0247C102.464 86.9482 102.435 86.8047 102.511 86.6899C102.98 85.9628 103.726 85.9915 104.052 86.0967C104.176 86.135 104.243 86.2785 104.205 86.4029C104.166 86.5272 104.023 86.5942 103.899 86.5559C103.841 86.5368 103.286 86.3742 102.913 86.9577C102.865 87.0247 102.789 87.063 102.712 87.063Z" fill="#2C0F6B"/>
<path d="M106.941 86.8917C106.864 86.8917 106.797 86.8534 106.749 86.796C106.443 86.3847 106.041 86.4995 106.003 86.509C105.879 86.5473 105.745 86.4803 105.697 86.356C105.659 86.2316 105.716 86.0977 105.841 86.0498C106.108 85.9542 106.711 85.935 107.132 86.4995C107.209 86.6047 107.189 86.7578 107.084 86.8343C107.036 86.8726 106.989 86.8917 106.941 86.8917Z" fill="#2C0F6B"/>
<path d="M104.827 91.0622C104.444 91.0622 103.956 90.9092 103.631 90.3543C103.564 90.2395 103.602 90.096 103.717 90.029C103.832 89.9621 103.975 90.0004 104.042 90.1152C104.406 90.7561 105.037 90.5552 105.056 90.5457C105.18 90.5074 105.314 90.5744 105.362 90.6987C105.401 90.8231 105.334 90.957 105.209 91.0048C105.113 91.0431 104.98 91.0622 104.827 91.0622Z" fill="#2C0F6B"/>
<path d="M105.209 95.6063C104.941 95.6063 104.731 95.3958 104.731 95.1279V93.0711C104.731 92.8032 104.941 92.5928 105.209 92.5928C105.477 92.5928 105.688 92.8032 105.688 93.0711V95.1279C105.688 95.3958 105.477 95.6063 105.209 95.6063Z" fill="#2C0F6B"/>
<path d="M114.489 107.938C114.479 107.938 114.46 107.938 114.451 107.938C114.192 107.919 113.991 107.69 114.011 107.422C114.011 107.364 114.451 101.94 112.748 98.6395C110.978 95.2051 105.238 94.7842 105.18 94.7842C104.913 94.765 104.721 94.5354 104.731 94.2771C104.75 94.0093 104.97 93.8179 105.238 93.8275C105.496 93.8466 111.581 94.2867 113.59 98.1995C115.417 101.749 114.977 107.269 114.948 107.508C114.938 107.747 114.728 107.938 114.489 107.938Z" fill="#2C0F6B"/>
<path d="M96.4748 110.559C96.3887 110.559 96.2931 110.53 96.2165 110.482C95.9965 110.339 95.9295 110.042 96.073 109.822C96.1209 109.755 97.2019 108.119 100.196 107.966C101.287 107.909 102.827 107.909 104.319 107.899C106.491 107.89 108.959 107.88 109.505 107.698C109.839 107.583 111.035 107.258 112.097 107.842C112.719 108.186 113.15 108.77 113.341 109.554C113.408 109.812 113.245 110.071 112.996 110.138C112.738 110.205 112.48 110.042 112.413 109.793C112.279 109.277 112.021 108.904 111.638 108.693C111.064 108.377 110.318 108.444 109.811 108.617C109.17 108.827 107.304 108.856 104.329 108.865C102.846 108.875 101.325 108.875 100.254 108.932C97.7855 109.057 96.9245 110.3 96.8862 110.358C96.781 110.482 96.6279 110.559 96.4748 110.559Z" fill="#2C0F6B"/>
<path d="M97.795 114.903C96.5418 114.903 95.4607 114.73 94.4467 114.558C91.6532 114.109 91.8158 107.221 91.8445 106.436C91.8541 106.168 92.0837 105.967 92.342 105.977C92.6099 105.986 92.8108 106.206 92.8012 106.474C92.7055 109.306 93.1934 113.391 94.5997 113.611C96.8479 113.975 99.3926 114.386 103.583 112.664L104.807 112.157C108.184 110.76 109.725 110.119 111.38 110.626C111.628 110.703 111.772 110.971 111.695 111.219C111.619 111.468 111.351 111.612 111.102 111.535C109.772 111.133 108.433 111.688 105.171 113.037L103.946 113.544C101.421 114.596 99.4596 114.903 97.795 114.903Z" fill="#2C0F6B"/>
<path d="M110.184 108.464C109.916 108.464 109.706 108.254 109.706 107.986V101.442C109.706 101.174 109.916 100.964 110.184 100.964C110.452 100.964 110.662 101.174 110.662 101.442V107.986C110.662 108.254 110.452 108.464 110.184 108.464Z" fill="#2C0F6B"/>
<path d="M114.431 106.293H110.423C110.155 106.293 109.945 106.082 109.945 105.814C109.945 105.546 110.155 105.336 110.423 105.336H114.431C114.699 105.336 114.91 105.546 114.91 105.814C114.91 106.082 114.699 106.293 114.431 106.293Z" fill="#2C0F6B"/>
<path d="M119.377 110.195C119.11 110.195 118.899 109.975 118.899 109.707C118.899 109.621 118.909 107.66 117.378 107.564C115.522 107.469 112.853 109.162 112.824 109.181C112.604 109.325 112.308 109.258 112.164 109.038C112.021 108.818 112.088 108.521 112.308 108.378C112.432 108.301 115.273 106.483 117.435 106.617C119.397 106.732 119.875 108.703 119.856 109.727C119.856 109.985 119.636 110.195 119.377 110.195Z" fill="#2C0F6B"/>
<path d="M149.761 174.11C149.493 174.11 149.283 173.9 149.283 173.632V113.687C149.283 113.419 149.493 113.209 149.761 113.209C150.029 113.209 150.239 113.419 150.239 113.687V173.632C150.239 173.9 150.019 174.11 149.761 174.11Z" fill="#2C0F6B"/>
<path d="M154.506 111.955L109.007 111.773V113.304H154.478L154.506 111.955Z" fill="#C2B6D6"/>
<path d="M154.477 113.783H108.998C108.73 113.783 108.519 113.573 108.519 113.305V111.774C108.519 111.65 108.567 111.525 108.663 111.439C108.749 111.353 108.883 111.267 108.998 111.296L154.497 111.477C154.621 111.477 154.745 111.525 154.831 111.621C154.918 111.717 154.975 111.831 154.965 111.965L154.946 113.314C154.956 113.573 154.745 113.783 154.477 113.783ZM109.485 112.826H154.009L154.018 112.434L109.485 112.262V112.826Z" fill="#2C0F6B"/>
<path d="M139.362 173.642C139.228 173.642 139.104 173.585 139.008 173.489C138.913 173.384 129.336 162.717 123.539 149.438C123.434 149.199 123.548 148.912 123.788 148.807C124.027 148.702 124.314 148.817 124.419 149.056C129.652 161.052 138.004 170.896 139.487 172.59L145.303 170.026C145.667 169.873 146.231 169.538 146.336 169.27C146.154 168.84 144.949 168.361 143.925 168.132C143.744 168.093 143.6 167.95 143.562 167.768C143.533 167.644 140.816 154.997 136.081 145.344C131.154 135.299 119.339 124.058 114.106 120.595C108.156 116.653 109.533 113.391 109.6 113.248C109.706 113.009 109.992 112.903 110.232 113.009C110.471 113.114 110.576 113.401 110.471 113.64C110.461 113.659 109.419 116.347 114.632 119.791C119.942 123.312 131.938 134.715 136.942 144.913C141.323 153.849 143.992 165.29 144.433 167.261C145.169 167.452 146.776 167.95 147.188 168.753C147.322 169.021 147.331 169.318 147.226 169.595C146.949 170.332 145.887 170.801 145.676 170.896L139.544 173.594C139.496 173.623 139.429 173.642 139.362 173.642Z" fill="#2C0F6B"/>
<path d="M137.698 171.556C137.525 171.556 137.363 171.47 137.277 171.307C137.152 171.078 137.238 170.781 137.468 170.657L143.801 167.242C144.031 167.117 144.327 167.203 144.452 167.433C144.576 167.662 144.49 167.959 144.26 168.083L137.927 171.499C137.86 171.537 137.774 171.556 137.698 171.556Z" fill="#2C0F6B"/>
<path d="M124.869 174.13H117.837C117.627 174.13 117.445 173.996 117.378 173.795C117.359 173.737 115.618 168.237 114.135 161.482C113.035 156.46 112.365 152.031 112.126 148.309C112.126 148.3 112.126 148.214 112.126 148.204C112.011 146.281 112.011 144.54 112.126 143.038C111.609 142.512 109.753 140.732 107.352 139.221C106.893 138.934 106.424 138.637 105.936 138.331C101.976 135.863 97.4889 133.06 95.5086 129.625C95.2885 129.262 95.0972 128.87 94.9346 128.439C93.5091 124.737 93.2604 121.188 94.1692 117.591C94.3414 116.902 94.5328 116.309 94.6954 115.802C94.8963 115.18 95.0972 114.548 95.0494 114.338C94.9824 114.08 95.145 113.821 95.3938 113.754C95.6521 113.687 95.9104 113.85 95.9773 114.099C96.0921 114.568 95.9008 115.17 95.6042 116.079C95.4512 116.567 95.2598 117.141 95.0972 117.811C94.2362 121.207 94.4754 124.565 95.8243 128.076C95.9678 128.458 96.1304 128.793 96.3217 129.118C98.1872 132.362 102.569 135.088 106.434 137.499C106.922 137.805 107.4 138.102 107.859 138.389C110.796 140.244 112.872 142.416 112.958 142.512C113.054 142.607 113.102 142.751 113.092 142.885C112.958 144.387 112.949 146.157 113.073 148.156C113.073 148.166 113.073 148.252 113.073 148.261C113.303 151.906 113.972 156.288 115.063 161.262C116.326 167.022 117.78 171.872 118.182 173.154H124.859C125.223 173.154 125.653 173.077 125.816 172.991C125.682 172.714 125.05 172.025 124.371 171.441C124.256 171.346 124.199 171.212 124.199 171.068C124.199 171.001 124.381 164.611 123.998 156.603C123.893 154.528 123.768 152.509 123.615 150.605C122.764 139.891 117.923 132.381 114.049 129.195C111.207 126.88 108.978 124.172 107.897 122.776C107.476 122.221 107.237 121.886 107.237 121.886C107.084 121.666 107.142 121.369 107.362 121.216C107.582 121.063 107.878 121.121 108.031 121.341C108.031 121.35 108.261 121.666 108.663 122.192C109.715 123.56 111.896 126.201 114.661 128.458C118.689 131.759 123.692 139.517 124.572 150.529C124.725 152.442 124.859 154.47 124.955 156.556C125.29 163.759 125.184 169.652 125.156 170.867C125.835 171.461 126.782 172.417 126.782 173.049C126.811 174.063 125.328 174.13 124.869 174.13Z" fill="#2C0F6B"/>
<path d="M124.696 171.585H117.043C116.775 171.585 116.565 171.374 116.565 171.106C116.565 170.838 116.775 170.628 117.043 170.628H124.696C124.964 170.628 125.175 170.838 125.175 171.106C125.175 171.374 124.964 171.585 124.696 171.585Z" fill="#2C0F6B"/>
<path d="M117.454 174.11C117.187 174.11 116.976 173.9 116.976 173.632V113.687C116.976 113.419 117.187 113.209 117.454 113.209C117.722 113.209 117.933 113.419 117.933 113.687V173.632C117.933 173.9 117.713 174.11 117.454 174.11Z" fill="#2C0F6B"/>
<path d="M134.56 112.214C134.292 112.214 134.081 112.004 134.081 111.736V110.884H111.925V111.621C111.925 111.889 111.715 112.099 111.447 112.099C111.179 112.099 110.968 111.889 110.968 111.621V110.406C110.968 110.138 111.179 109.928 111.447 109.928H134.56C134.828 109.928 135.038 110.138 135.038 110.406V111.736C135.038 112.004 134.818 112.214 134.56 112.214Z" fill="#2C0F6B"/>
<path d="M135.067 109.822H128.15V111.496H135.067V109.822Z" fill="#2C0F6B"/>
<path d="M133.039 104.896H130.044V110.349H133.039V104.896Z" fill="#2C0F6B"/>
<path d="M119.913 87.8096H142.998C143.505 87.8096 143.916 88.2209 143.916 88.728V104.226C143.916 104.733 143.505 105.144 142.998 105.144H119.913C119.406 105.144 118.995 104.733 118.995 104.226V88.728C118.995 88.2209 119.406 87.8096 119.913 87.8096Z" fill="#C2B6D6"/>
<path d="M142.988 105.623H119.904C119.138 105.623 118.507 105.001 118.507 104.226V88.7278C118.507 87.9624 119.129 87.3311 119.904 87.3311H142.988C143.753 87.3311 144.385 87.9529 144.385 88.7278V104.226C144.385 104.991 143.763 105.623 142.988 105.623ZM119.913 88.2877C119.674 88.2877 119.473 88.4886 119.473 88.7278V104.226C119.473 104.465 119.674 104.666 119.913 104.666H142.998C143.237 104.666 143.438 104.465 143.438 104.226V88.7278C143.438 88.4886 143.237 88.2877 142.998 88.2877H119.913Z" fill="#2C0F6B"/>
<path d="M100.895 94.707C100.627 94.707 100.416 94.4965 100.416 94.2287V89.9715C100.416 89.7036 100.627 89.4932 100.895 89.4932C101.162 89.4932 101.373 89.7036 101.373 89.9715V94.2287C101.373 94.487 101.153 94.707 100.895 94.707Z" fill="#2C0F6B"/>
<path d="M102.31 85.0447C102.31 85.0447 103.803 85.5709 105.391 85.6952C106.979 85.8196 108.012 85.5231 108.012 85.5231C108.012 85.5231 108.156 82.2512 104.233 81.572C100.187 80.8736 99.1535 84.0498 99.1535 84.0498C99.1535 84.0498 97.9768 86.7667 99.297 88.3835C100.875 90.3064 100.885 90.9091 100.885 90.9091C100.885 90.9091 101.344 89.0723 100.569 88.6418C99.871 88.2591 99.4118 87.4555 99.8231 86.671C100.081 86.1736 100.608 86.0875 100.856 86.3075C101.172 86.5849 101.115 87.3407 101.134 87.0633C101.249 85.5231 101.899 84.9299 102.31 85.0447Z" fill="#2C0F6B"/>
<path d="M100.895 91.158C100.885 91.158 100.875 91.158 100.866 91.158C100.742 91.1485 100.655 91.0432 100.655 90.9189C100.655 90.9189 100.569 90.3066 99.1248 88.5368C97.728 86.8339 98.8952 84.0691 98.943 83.9543C98.943 83.9448 100.081 80.606 104.281 81.3331C108.366 82.0314 108.261 85.4946 108.261 85.5233C108.261 85.6285 108.184 85.7146 108.089 85.7433C108.041 85.7529 106.998 86.0399 105.381 85.9251C103.841 85.8103 102.406 85.3224 102.253 85.265C102.196 85.2554 102.119 85.2745 102.033 85.3319C101.909 85.4276 101.478 85.8198 101.392 87.0826C101.382 87.207 101.277 87.3601 101.143 87.3601C101.019 87.3601 100.914 87.2357 100.904 87.1113C100.875 86.6713 100.761 86.5278 100.713 86.4895C100.655 86.4417 100.56 86.4225 100.464 86.4417C100.292 86.4704 100.148 86.5947 100.043 86.7861C99.6988 87.4462 100.11 88.1158 100.694 88.4411C101.603 88.9386 101.172 90.7658 101.124 90.9763C101.095 91.0815 101 91.158 100.895 91.158ZM103.143 81.7157C100.206 81.7157 99.3926 84.0978 99.3926 84.1265C99.3735 84.1744 98.2829 86.7574 99.4979 88.2306C100.158 89.0342 100.56 89.6178 100.789 90.0387C100.818 89.5508 100.77 89.0247 100.474 88.862C99.6892 88.4315 99.1439 87.5036 99.6318 86.566C99.7944 86.2503 100.072 86.0303 100.388 85.9729C100.636 85.9251 100.875 85.9825 101.038 86.1355C101.048 86.1451 101.057 86.1547 101.067 86.1547C101.21 85.5902 101.459 85.1693 101.765 84.9493C101.966 84.8058 102.186 84.7579 102.387 84.8058C102.397 84.8058 102.397 84.8058 102.406 84.8153C102.425 84.8249 103.889 85.3319 105.429 85.4563C106.577 85.5424 107.438 85.4085 107.792 85.3319C107.754 84.6623 107.4 82.3567 104.214 81.8114C103.812 81.7444 103.468 81.7157 103.143 81.7157Z" fill="#2C0F6B"/>
<path d="M103.325 97.7785C103.191 97.7785 103.057 97.7211 102.961 97.6158L100.388 94.6597L99.8136 95.7121C99.6892 95.9417 99.3926 96.0278 99.163 95.9034C98.9334 95.779 98.8473 95.4825 98.9717 95.2529L99.871 93.5883C99.9475 93.4543 100.081 93.3587 100.244 93.3395C100.397 93.3204 100.55 93.3778 100.655 93.5022L103.258 96.4965L104.807 94.0475C104.951 93.8274 105.247 93.7605 105.467 93.8944C105.688 94.0379 105.754 94.3345 105.621 94.5545L103.726 97.5489C103.65 97.6732 103.506 97.7593 103.363 97.7689C103.344 97.7785 103.334 97.7785 103.325 97.7785Z" fill="#2C0F6B"/>
<path d="M91.3375 106.656C91.0888 106.656 90.8879 106.474 90.8592 106.225C90.84 106.024 90.3521 101.231 92.275 98.1223C94.571 94.4105 99.6509 94.1043 99.8614 94.0852C100.12 94.0661 100.349 94.2765 100.368 94.5348C100.388 94.8027 100.177 95.0227 99.9188 95.0419C99.871 95.0419 95.1259 95.348 93.0882 98.6198C91.6532 100.935 91.7106 104.465 91.7776 105.68L97.9002 105.594C98.1777 105.575 98.3786 105.804 98.3881 106.063C98.3977 106.321 98.1777 106.541 97.9194 106.551L91.3375 106.656Z" fill="#2C0F6B"/>
<path d="M103.277 100.543C103.009 100.543 102.798 100.332 102.798 100.065V98.8113C102.798 98.5435 103.009 98.333 103.277 98.333C103.545 98.333 103.755 98.5435 103.755 98.8113V100.065C103.755 100.332 103.535 100.543 103.277 100.543Z" fill="#2C0F6B"/>
<path d="M103.277 103.71C103.009 103.71 102.798 103.499 102.798 103.232V101.978C102.798 101.71 103.009 101.5 103.277 101.5C103.545 101.5 103.755 101.71 103.755 101.978V103.232C103.755 103.49 103.535 103.71 103.277 103.71Z" fill="#2C0F6B"/>
<path d="M103.277 107.077C103.009 107.077 102.798 106.867 102.798 106.599V105.346C102.798 105.078 103.009 104.867 103.277 104.867C103.545 104.867 103.755 105.078 103.755 105.346V106.599C103.755 106.867 103.535 107.077 103.277 107.077Z" fill="#2C0F6B"/>
<path d="M97.6707 109.574C97.4028 109.574 97.1923 109.363 97.1923 109.095V106.082C97.1923 105.814 97.4028 105.604 97.6707 105.604C97.9385 105.604 98.149 105.814 98.149 106.082V109.095C98.149 109.363 97.929 109.574 97.6707 109.574Z" fill="#2C0F6B"/>
<path d="M112.614 173.9H86.5733C86.3054 173.9 86.095 173.689 86.095 173.421V138.388C86.095 138.34 86.1045 138.292 86.1141 138.254C86.1524 138.12 87.1282 134.896 89.9312 132.189C91.5958 130.563 93.5857 129.462 95.8338 128.927C96.1208 128.86 96.427 129.089 96.427 129.395C96.427 129.635 96.2548 129.836 96.0156 129.874C93.9492 130.371 92.122 131.385 90.5913 132.878C88.1805 135.202 87.1951 138.015 87.0516 138.465V172.943H112.135V148.28C112.135 148.012 112.346 147.763 112.614 147.763C112.882 147.763 113.092 147.945 113.092 148.204V173.412C113.092 173.68 112.882 173.9 112.614 173.9Z" fill="#2C0F6B"/>
<path d="M35.1238 160.297C35.1238 160.297 34.3297 158.077 35.9465 157.455C37.5633 156.834 39.2948 158.489 39.2948 158.489C39.2948 158.489 38.7878 157.312 39.9167 156.633C41.0455 155.954 42.0309 157.159 42.0309 157.159C42.0309 157.159 41.4569 156.441 42.1266 156.078C42.7962 155.714 43.3033 156.489 43.3033 156.489C43.3033 156.489 39.0939 151.649 42.1266 148.884C43.4563 147.669 45.7236 148.453 47.1778 149.946C49.0528 151.869 49.9904 154.834 49.9904 154.834C49.9904 154.834 49.7703 153.313 51.1192 153.198C52.4873 153.074 52.4203 154.863 52.4203 154.863C52.4203 154.863 52.803 153.131 54.1327 153.294C55.8069 153.504 55.3381 155.408 55.3381 155.408C55.3381 155.408 56.5627 148.836 60.131 148.377C63.6898 147.918 63.9577 155.236 63.9577 155.236C63.9577 155.236 64.0342 153.791 65.7371 153.6C67.4495 153.409 67.4495 155.236 67.4495 155.236C67.4495 155.236 67.7844 153.552 69.5159 154.011C71.2571 154.471 70.3578 156.661 70.3578 156.661C70.3578 156.661 70.7692 155.552 71.9746 155.533C73.18 155.513 73.3426 156.853 73.3426 156.853C73.3426 156.853 74.2993 151.467 77.8198 152.376C80.9959 153.198 78.853 157.14 78.853 157.14C78.853 157.14 79.6949 155.867 80.8524 156.346C82.01 156.824 81.4743 158.154 81.4743 158.154C81.4743 158.154 82.3448 156.901 83.3015 157.168C84.5069 157.503 84.2677 158.804 84.2677 158.804C84.2677 158.804 85.9515 158.087 86.095 160.297" fill="#C2B6D6"/>
<path d="M86.1141 160.775C85.8654 160.775 85.6549 160.584 85.6358 160.325C85.6071 159.943 85.521 159.445 85.2148 159.254C84.9183 159.062 84.4686 159.244 84.4686 159.244C84.306 159.311 84.1147 159.283 83.9807 159.177C83.8468 159.062 83.7798 158.89 83.8085 158.718C83.8372 158.575 83.9233 157.828 83.1867 157.627C82.6797 157.494 82.0578 158.173 81.8761 158.431C81.7421 158.632 81.4743 158.689 81.2542 158.575C81.0438 158.46 80.9481 158.201 81.0342 157.972C81.0916 157.828 81.3403 157.063 80.6707 156.786C79.8958 156.47 79.2835 157.369 79.2548 157.407C79.1113 157.618 78.8243 157.685 78.6138 157.551C78.3938 157.417 78.3173 157.14 78.4416 156.92C78.7286 156.384 79.3792 154.777 78.9391 153.763C78.7382 153.303 78.3364 153.007 77.705 152.844C77.0258 152.662 76.4326 152.748 75.8969 153.093C74.3375 154.097 73.8209 156.91 73.8114 156.939C73.7731 157.168 73.5626 157.34 73.3235 157.331C73.0843 157.321 72.893 157.149 72.8643 156.91C72.8547 156.814 72.7399 155.972 71.9746 156.001C71.171 156.02 70.8553 156.69 70.8074 156.805C70.7979 156.814 70.7979 156.824 70.7979 156.833C70.7022 157.073 70.4248 157.197 70.1856 157.101C69.9464 157.006 69.8221 156.738 69.9082 156.489C69.9082 156.489 69.9082 156.479 69.9177 156.46C70.023 156.183 70.243 155.398 69.9943 154.911C69.889 154.691 69.6881 154.547 69.3916 154.47C68.9993 154.365 68.6836 154.394 68.4349 154.537C68.0235 154.786 67.9087 155.322 67.9087 155.331C67.8609 155.571 67.6217 155.724 67.3921 155.705C67.153 155.676 66.9616 155.475 66.9616 155.226C66.9616 155.054 66.8851 154.528 66.579 154.25C66.3876 154.088 66.1293 154.021 65.7849 154.059C64.4934 154.203 64.4265 155.198 64.4265 155.245C64.4169 155.504 64.2064 155.705 63.9481 155.705C63.6898 155.705 63.4794 155.504 63.4698 155.245C63.4698 155.198 63.288 150.72 61.5565 149.247C61.1547 148.903 60.705 148.769 60.1789 148.836C57.2419 149.209 55.9982 154.528 55.8165 155.37C55.8069 155.437 55.7973 155.485 55.7878 155.504C55.7304 155.752 55.4721 155.915 55.2233 155.858C54.9746 155.8 54.8024 155.561 54.8502 155.303C54.8502 155.284 54.8598 155.245 54.8789 155.178C54.9172 154.92 54.9459 154.413 54.7259 154.097C54.5919 153.906 54.3719 153.791 54.0658 153.753C53.1665 153.629 52.8891 154.93 52.8795 154.949C52.8221 155.188 52.6021 155.351 52.3533 155.322C52.1046 155.293 51.9228 155.083 51.9324 154.834C51.942 154.643 51.8941 154.05 51.6167 153.791C51.5497 153.724 51.4158 153.638 51.1479 153.657C50.9088 153.676 50.7461 153.753 50.6313 153.896C50.4209 154.155 50.4304 154.604 50.4496 154.757C50.4783 155.006 50.3252 155.236 50.0765 155.284C49.8373 155.341 49.5886 155.198 49.5216 154.958C49.512 154.93 48.5936 152.079 46.8238 150.261C45.5419 148.951 43.552 148.204 42.4327 149.218C40.0889 151.361 42.8058 155.092 43.4946 155.972C43.5711 156.059 43.6381 156.135 43.6859 156.212C43.8199 156.422 43.772 156.7 43.5711 156.853C43.3702 157.006 43.0832 156.977 42.9206 156.786C42.9015 156.766 42.8441 156.7 42.758 156.594C42.6527 156.499 42.4901 156.393 42.3275 156.479C42.2414 156.604 42.3179 156.766 42.3753 156.843C42.5379 157.044 42.5092 157.35 42.2988 157.513C42.0883 157.675 41.7917 157.647 41.6291 157.446C41.6004 157.407 40.8829 156.575 40.1271 157.025C39.3618 157.474 39.6871 158.249 39.6966 158.278C39.7827 158.488 39.7158 158.728 39.534 158.862C39.3427 158.996 39.0939 158.967 38.9313 158.814C38.9122 158.795 37.4006 157.369 36.09 157.876C34.9324 158.326 35.5256 160.038 35.5447 160.115C35.6308 160.364 35.5064 160.641 35.2577 160.727C35.009 160.813 34.7411 160.689 34.6454 160.44C34.3202 159.522 34.1193 157.618 35.7456 156.996C36.8553 156.566 37.9651 157.015 38.7113 157.465C38.8069 157.015 39.0652 156.556 39.6488 156.212C40.2802 155.839 40.902 155.896 41.4091 156.116C41.4856 155.953 41.6291 155.781 41.8874 155.647C41.9352 155.618 41.9831 155.599 42.0309 155.58C40.902 153.858 39.4096 150.692 41.7917 148.52C43.3894 147.056 45.9341 147.984 47.5126 149.601C48.6319 150.749 49.4259 152.232 49.9043 153.294C50.1817 152.949 50.5835 152.748 51.081 152.71C51.5593 152.662 51.9802 152.806 52.2959 153.102C52.4107 153.217 52.5064 153.342 52.5829 153.476C52.9465 153.045 53.4822 152.729 54.1901 152.815C54.7737 152.892 55.1468 153.141 55.3764 153.389C56.0556 151.304 57.4906 148.243 60.0641 147.908C60.8581 147.803 61.566 148.013 62.1783 148.539C63.5176 149.678 64.0629 152.088 64.283 153.686C64.6178 153.418 65.0674 153.208 65.6797 153.131C66.4642 153.045 66.9521 153.313 67.2199 153.562C67.373 153.696 67.4878 153.849 67.5835 154.011C67.6791 153.916 67.7939 153.82 67.9183 153.743C68.3966 153.447 68.9706 153.38 69.6307 153.552C70.1952 153.705 70.6161 154.03 70.8457 154.49C70.9701 154.738 71.0275 154.997 71.0466 155.255C71.2953 155.14 71.5919 155.054 71.9459 155.054C72.472 155.054 72.893 155.245 73.1895 155.523C73.5435 154.47 74.2036 153.035 75.3612 152.289C76.1265 151.801 76.9875 151.667 77.925 151.916C78.8434 152.155 79.4748 152.643 79.8001 153.38C80.1349 154.155 80.0488 155.073 79.8575 155.829C80.2115 155.733 80.6037 155.733 81.0246 155.915C81.5891 156.154 81.8761 156.556 82.0004 156.996C82.3927 156.738 82.8901 156.566 83.4259 156.719C84.3251 156.967 84.66 157.637 84.7461 158.23C85.0331 158.211 85.3775 158.259 85.6932 158.46C86.2193 158.775 86.5063 159.397 86.5637 160.287C86.5829 160.555 86.382 160.775 86.1141 160.794C86.1332 160.775 86.1237 160.775 86.1141 160.775Z" fill="#2C0F6B"/>
<path d="M86.5733 173.9H33.5357C33.2678 173.9 33.0574 173.69 33.0574 173.422V160.297C33.0574 160.029 33.2678 159.818 33.5357 159.818H86.5255C86.7933 159.818 87.0038 160.029 87.0038 160.297L87.0516 173.422C87.0516 173.547 87.0038 173.671 86.9081 173.757C86.822 173.843 86.6977 173.9 86.5733 173.9ZM34.014 172.944H86.095L86.0471 160.775H34.014V172.944Z" fill="#2C0F6B"/>
<path d="M120.994 42.8749V64.7443C120.994 68.083 123.702 70.7904 127.04 70.7904H158.429H167H200.053C203.392 70.7904 206.099 68.083 206.099 64.7443V22.4309C206.099 19.0921 203.392 16.3848 200.053 16.3848H184.612" fill="#F8F8FB"/>
<path d="M186.459 16.3945H127.05C123.712 16.3945 121.004 19.1019 121.004 22.4407V46.96" fill="#F8F8FB"/>
<path d="M120.994 42.8749V64.7443C120.994 68.083 123.702 70.7904 127.04 70.7904H136.416L136.234 77.1905L147.561 70.7904H158.429H167H179.992L191.74 77.2575L192.036 70.7904H200.044C203.382 70.7904 206.09 68.083 206.09 64.7443V22.4309C206.09 19.0921 203.382 16.3848 200.044 16.3848H184.603" fill="white"/>
<path d="M120.994 40.7316C120.726 40.7316 120.516 40.5211 120.516 40.2533V38.5408C120.516 38.273 120.726 38.0625 120.994 38.0625C121.262 38.0625 121.472 38.273 121.472 38.5408V40.2533C121.472 40.5116 121.262 40.7316 120.994 40.7316Z" fill="#2C0F6B"/>
<path d="M120.994 35.5468C120.726 35.5468 120.516 35.3363 120.516 35.0685V22.4405C120.516 18.8434 123.443 15.916 127.04 15.916H158.658C158.926 15.916 159.136 16.1265 159.136 16.3943C159.136 16.6622 158.926 16.8727 158.658 16.8727H127.04C123.969 16.8727 121.472 19.3696 121.472 22.4405V35.0685C121.472 35.3268 121.262 35.5468 120.994 35.5468Z" fill="#2C0F6B"/>
<path d="M142.414 36.1882C141.381 36.1882 140.481 35.8343 140.089 35.3846C140.003 35.289 140.013 35.1359 140.108 35.0498C140.204 34.9637 140.357 34.9733 140.443 35.0689C140.864 35.5473 142.108 35.8821 143.285 35.6142C144.222 35.4038 145.456 34.7628 145.982 32.8973C146.891 29.7116 144.499 24.4786 144.471 24.4212C144.413 24.2969 144.471 24.1629 144.586 24.1055C144.71 24.0481 144.844 24.1055 144.901 24.2203C145.006 24.4404 147.389 29.6733 146.441 33.0217C145.973 34.6576 144.892 35.7386 143.39 36.083C143.064 36.15 142.73 36.1882 142.414 36.1882Z" fill="#2C0F6B"/>
<path d="M142.854 31.7293C142.758 31.7293 142.663 31.6719 142.634 31.5762C142.586 31.4519 142.653 31.3179 142.777 31.2701C142.892 31.2318 142.911 31.184 142.911 31.1649C142.969 31.0022 142.768 30.6196 142.596 30.2752L142.452 30.0073C142.117 29.3472 141.897 28.6201 141.888 28.5914C141.849 28.4671 141.916 28.3331 142.05 28.2949C142.175 28.2566 142.309 28.3236 142.347 28.4575C142.347 28.4671 142.567 29.175 142.883 29.7968L143.017 30.0551C143.275 30.543 143.495 30.9735 143.361 31.3371C143.294 31.5093 143.151 31.6336 142.95 31.7197C142.911 31.7293 142.883 31.7293 142.854 31.7293Z" fill="#2C0F6B"/>
<path d="M140.08 30.1512C139.974 30.1512 139.879 30.0842 139.85 29.9694L139.506 28.6492C139.467 28.5248 139.544 28.3909 139.678 28.3526C139.802 28.3144 139.936 28.3909 139.974 28.5248L140.319 29.845C140.357 29.9694 140.281 30.1033 140.147 30.1416C140.118 30.1512 140.099 30.1512 140.08 30.1512Z" fill="#2C0F6B"/>
<path d="M143.916 28.8986C143.811 28.8986 143.715 28.8317 143.686 28.7169L143.361 27.4636C143.323 27.3393 143.399 27.2053 143.533 27.1671C143.658 27.1288 143.792 27.2053 143.83 27.3393L144.155 28.5925C144.193 28.7169 144.117 28.8508 143.983 28.8891C143.954 28.8986 143.935 28.8986 143.916 28.8986Z" fill="#2C0F6B"/>
<path d="M138.3 28.3141C138.272 28.3141 138.252 28.3141 138.224 28.3046C138.099 28.2663 138.032 28.1228 138.071 27.9984C138.453 26.8409 139.467 26.6113 139.955 26.64C140.089 26.6495 140.185 26.7643 140.175 26.8983C140.166 27.0322 140.06 27.1279 139.917 27.1183C139.879 27.1087 138.884 27.0705 138.52 28.1515C138.492 28.2568 138.396 28.3141 138.3 28.3141Z" fill="#2C0F6B"/>
<path d="M144.337 26.4685C144.279 26.4685 144.212 26.4494 144.174 26.4016C143.6 25.8467 142.94 26.3441 142.911 26.3633C142.806 26.4398 142.653 26.4302 142.577 26.325C142.5 26.2198 142.519 26.0667 142.615 25.9902C142.969 25.7223 143.811 25.3875 144.499 26.0667C144.595 26.1624 144.595 26.3059 144.499 26.4016C144.461 26.4398 144.394 26.4685 144.337 26.4685Z" fill="#2C0F6B"/>
<path d="M142.433 33.356C142.003 33.356 141.505 33.2029 141.055 32.7533C140.96 32.6576 140.96 32.5045 141.055 32.4184C141.151 32.3228 141.304 32.3228 141.39 32.4184C142.232 33.2699 143.141 32.6959 143.179 32.6767C143.294 32.6002 143.438 32.6385 143.514 32.7437C143.591 32.8585 143.552 33.002 143.447 33.0785C143.227 33.2125 142.854 33.356 142.433 33.356Z" fill="#2C0F6B"/>
<path d="M142.777 40.1388C142.51 40.1388 142.299 39.9283 142.299 39.6605V36.3504C142.299 36.0825 142.51 35.8721 142.777 35.8721C143.045 35.8721 143.256 36.0825 143.256 36.3504V39.6605C143.256 39.9188 143.036 40.1388 142.777 40.1388Z" fill="#2C0F6B"/>
<path d="M155.846 48.2516C155.635 48.2516 155.444 48.1177 155.386 47.9072C152.822 38.7998 143.189 38.8954 142.787 38.905C142.529 38.8954 142.309 38.7041 142.299 38.4362C142.29 38.1684 142.5 37.9579 142.768 37.9483C142.873 37.9388 153.55 37.8144 156.314 47.6489C156.381 47.9072 156.238 48.1655 155.979 48.2421C155.932 48.2421 155.893 48.2516 155.846 48.2516Z" fill="#2C0F6B"/>
<path d="M149.015 71.2589C148.747 71.2589 148.537 71.0484 148.537 70.7806V52.5848C148.537 52.3169 148.747 52.1064 149.015 52.1064C149.283 52.1064 149.493 52.3169 149.493 52.5848V70.7806C149.493 71.0389 149.283 71.2589 149.015 71.2589Z" fill="#2C0F6B"/>
<path d="M137.037 25.6554C137.037 25.6554 139.4 25.8563 141.735 25.4258C144.069 24.9953 145.466 24.1821 145.466 24.1821C145.466 24.1821 144.432 19.3988 138.501 19.9058C132.388 20.432 132.101 25.4162 132.101 25.4162C132.101 25.4162 131.431 29.7977 133.957 31.625C136.97 33.8062 136.31 34.6959 136.31 34.6959C136.31 34.6959 137.181 31.8546 135.899 31.5293C134.741 31.2327 133.775 30.2474 134.072 28.9559C134.254 28.1427 134.981 27.8174 135.43 28.0375C135.985 28.3149 136.291 29.262 136.215 28.8506C135.794 26.5738 136.406 25.6554 137.037 25.6554Z" fill="#2C0F6B"/>
<path d="M136.31 34.9444C136.272 34.9444 136.234 34.9348 136.205 34.9157C136.1 34.8583 136.052 34.7435 136.081 34.6287C136.1 34.5808 136.109 34.5139 136.129 34.4469C136.129 34.1695 135.909 33.3467 133.813 31.8256C131.202 29.9314 131.833 25.569 131.862 25.3873C131.862 25.3586 132.225 20.2213 138.482 19.676C144.557 19.1498 145.686 24.0862 145.695 24.134C145.714 24.2393 145.676 24.3349 145.58 24.3923C145.523 24.4306 144.126 25.2246 141.773 25.6647C139.486 26.0856 137.219 25.9134 137.018 25.8943C136.884 25.8943 136.76 25.9613 136.645 26.0952C136.473 26.3057 136.1 26.9945 136.444 28.8217C136.463 28.8982 136.502 29.1183 136.301 29.1852C136.1 29.2618 135.995 29.0896 135.928 28.9556C135.822 28.7739 135.593 28.3912 135.315 28.2573C135.181 28.1903 135 28.1999 134.837 28.2764C134.569 28.4008 134.378 28.6686 134.301 29.013C134.033 30.1706 134.933 31.0412 135.956 31.2995C136.243 31.3664 136.463 31.5386 136.607 31.8065C137.037 32.5623 136.75 33.9494 136.607 34.5139C136.588 34.7052 136.521 34.8104 136.502 34.8391C136.463 34.9061 136.387 34.9444 136.31 34.9444ZM139.381 20.116C139.113 20.116 138.826 20.1256 138.53 20.1543C132.685 20.6613 132.35 25.3968 132.35 25.4447C132.34 25.5116 131.728 29.721 134.1 31.443C135.344 32.3422 135.995 33.0406 136.32 33.5668C136.396 33.0119 136.406 32.3996 136.205 32.0457C136.119 31.8926 136.004 31.8065 135.851 31.7682C134.607 31.4525 133.517 30.3715 133.852 28.9174C133.967 28.4295 134.254 28.0468 134.655 27.8555C134.961 27.712 135.287 27.7024 135.555 27.8363C135.679 27.8937 135.784 27.9798 135.88 28.0755C135.784 27.0232 135.928 26.2387 136.301 25.7891C136.511 25.5403 136.789 25.4064 137.066 25.416C137.085 25.416 139.42 25.6073 141.706 25.1864C143.533 24.8515 144.777 24.2775 145.198 24.0575C144.959 23.273 143.753 20.116 139.381 20.116Z" fill="#2C0F6B"/>
<path d="M136.31 38.79C136.043 38.79 135.832 38.5795 135.832 38.3116V32.9735C135.832 32.7056 136.043 32.4951 136.31 32.4951C136.578 32.4951 136.789 32.7056 136.789 32.9735V38.3116C136.789 38.5699 136.578 38.79 136.31 38.79Z" fill="#2C0F6B"/>
<path d="M139.946 43.3727C139.812 43.3727 139.678 43.3153 139.582 43.2101L135.516 38.532L134.493 40.4071C134.368 40.6367 134.072 40.7228 133.842 40.5984C133.613 40.474 133.526 40.1775 133.651 39.9479L135 37.4701C135.076 37.3362 135.21 37.2405 135.373 37.2214C135.535 37.2022 135.679 37.2597 135.784 37.384L139.879 42.1004L142.366 38.1685C142.51 37.9485 142.806 37.8815 143.026 38.0154C143.246 38.1589 143.313 38.4555 143.179 38.6755L140.357 43.1527C140.281 43.2771 140.137 43.3632 139.994 43.3727C139.974 43.3727 139.965 43.3727 139.946 43.3727Z" fill="#2C0F6B"/>
<path d="M122.037 56.6506C121.836 56.6506 121.664 56.5262 121.587 56.3444C121.482 56.067 119.004 49.466 121.874 44.8262C125.232 39.4019 134.387 38.3878 134.77 38.3495C135.038 38.3208 135.268 38.5122 135.296 38.78C135.325 39.0383 135.134 39.2775 134.866 39.3062C134.78 39.3158 125.797 40.3107 122.687 45.3332C120.401 49.0259 121.932 54.3546 122.372 55.6939L131.374 55.56V51.6663C131.374 51.3985 131.584 51.188 131.852 51.188C132.12 51.188 132.331 51.3985 132.331 51.6663V56.0287C132.331 56.287 132.12 56.5071 131.862 56.5071L122.037 56.6506Z" fill="#2C0F6B"/>
<path d="M139.879 47.5153C139.611 47.5153 139.4 47.3049 139.4 47.037V45.1619C139.4 44.8941 139.611 44.6836 139.879 44.6836C140.147 44.6836 140.357 44.8941 140.357 45.1619V47.037C140.357 47.2953 140.137 47.5153 139.879 47.5153Z" fill="#2C0F6B"/>
<path d="M139.879 51.236C139.611 51.236 139.4 51.0256 139.4 50.7577V48.8826C139.4 48.6148 139.611 48.4043 139.879 48.4043C140.147 48.4043 140.357 48.6148 140.357 48.8826V50.7577C140.357 51.016 140.137 51.236 139.879 51.236Z" fill="#2C0F6B"/>
<path d="M186.478 34.906C185.005 34.906 183.732 34.1311 182.9 32.7248C181.121 29.7209 182.106 24.0574 182.154 23.8183C182.173 23.6843 182.297 23.6078 182.431 23.6269C182.565 23.6461 182.651 23.7704 182.623 23.9044C182.613 23.9618 181.628 29.6348 183.311 32.4857C184.297 34.1598 185.646 34.4564 186.612 34.4373C187.817 34.399 188.937 33.758 189.224 33.184C189.281 33.0692 189.425 33.0214 189.549 33.0788C189.664 33.1362 189.712 33.2797 189.654 33.4041C189.3 34.112 188.076 34.8678 186.631 34.9156C186.583 34.906 186.526 34.906 186.478 34.906Z" fill="#2C0F6B"/>
<path d="M185.98 30.5721C185.971 30.5721 185.961 30.5721 185.952 30.5721C185.732 30.553 185.56 30.4669 185.454 30.3138C185.234 29.9981 185.34 29.5293 185.464 28.9936L185.531 28.7066C185.674 28.0178 185.703 27.2812 185.703 27.2716C185.713 27.1377 185.827 27.042 185.952 27.042C186.086 27.0516 186.191 27.1568 186.181 27.2907C186.181 27.3194 186.153 28.0752 186 28.8023L185.933 29.0988C185.847 29.4719 185.751 29.9024 185.847 30.0364C185.856 30.0459 185.885 30.0842 186 30.1033C186.134 30.1129 186.229 30.2373 186.21 30.3616C186.21 30.4764 186.105 30.5721 185.98 30.5721Z" fill="#2C0F6B"/>
<path d="M188.324 28.0466C188.19 28.0466 188.085 27.9413 188.085 27.8074V26.4394C188.085 26.3054 188.19 26.2002 188.324 26.2002C188.458 26.2002 188.564 26.3054 188.564 26.4394V27.8074C188.564 27.9413 188.458 28.0466 188.324 28.0466Z" fill="#2C0F6B"/>
<path d="M184.239 28.1038C184.105 28.1038 184 27.9986 184 27.8646V26.5732C184 26.4392 184.105 26.334 184.239 26.334C184.373 26.334 184.479 26.4392 184.479 26.5732V27.8646C184.479 27.9986 184.373 28.1038 184.239 28.1038Z" fill="#2C0F6B"/>
<path d="M189.664 25.99C189.587 25.99 189.511 25.9518 189.463 25.8848C188.831 24.9186 187.865 25.2438 187.856 25.2438C187.731 25.2917 187.597 25.2247 187.549 25.0908C187.511 24.9664 187.569 24.8325 187.703 24.7846C188.162 24.622 189.204 24.5933 189.865 25.6169C189.941 25.7317 189.903 25.8752 189.798 25.9518C189.75 25.9805 189.702 25.99 189.664 25.99Z" fill="#2C0F6B"/>
<path d="M183.225 25.913C183.177 25.913 183.13 25.9034 183.091 25.8747C182.986 25.7982 182.948 25.6547 183.024 25.5399C183.57 24.7267 184.44 24.765 184.823 24.8893C184.947 24.9372 185.014 25.0711 184.966 25.1955C184.919 25.3198 184.785 25.3868 184.66 25.339C184.632 25.3294 183.885 25.0902 183.407 25.7982C183.378 25.8747 183.302 25.913 183.225 25.913Z" fill="#2C0F6B"/>
<path d="M186.363 32.0936C186.153 32.0936 185.961 32.0553 185.818 32.0171C185.693 31.9788 185.627 31.8448 185.665 31.7205C185.703 31.5961 185.837 31.5292 185.961 31.5674C186.009 31.577 187.033 31.8927 187.626 30.869C187.693 30.7542 187.836 30.716 187.951 30.783C188.066 30.8499 188.104 30.9934 188.037 31.1082C187.597 31.8831 186.899 32.0936 186.363 32.0936Z" fill="#2C0F6B"/>
<path d="M192.199 34.3992C195.365 36.0543 197.384 32.926 197.384 32.926C194.724 33.3565 196.14 26.1528 193.892 22.0295C192.763 19.9536 191.338 18.3272 187.846 18.4707C180.968 18.7577 181.953 24.6986 181.953 24.6986C185.942 24.7273 187.664 21.6756 187.664 21.6756C187.664 21.6756 191.041 22.4313 191.52 26.7076C192.036 31.3379 192.199 34.3992 192.199 34.3992Z" fill="#2C0F6B"/>
<path d="M194.017 35.1167C193.433 35.1167 192.782 34.9732 192.084 34.6097C192.008 34.5714 191.96 34.4949 191.96 34.4088C191.96 34.3801 191.787 31.2996 191.28 26.7172C190.888 23.1488 188.439 22.1443 187.779 21.9338C187.349 22.5844 185.569 24.9186 181.963 24.9186C181.848 24.9186 181.742 24.8325 181.723 24.7177C181.704 24.6125 181.322 22.1826 182.852 20.2979C183.905 19.0064 185.579 18.308 187.836 18.2124C191.28 18.0784 192.84 19.5804 194.103 21.8956C195.136 23.7898 195.404 26.258 195.643 28.4296C195.853 30.3621 196.035 32.0267 196.695 32.5337C196.867 32.6676 197.087 32.7155 197.346 32.6676C197.441 32.6485 197.537 32.6963 197.585 32.7729C197.633 32.8494 197.633 32.9546 197.585 33.0312C197.575 33.079 196.226 35.1167 194.017 35.1167ZM192.438 34.2461C194.696 35.3463 196.303 33.8826 196.915 33.1555C196.733 33.1172 196.561 33.0407 196.418 32.9259C195.595 32.2945 195.413 30.6204 195.174 28.4966C194.944 26.3632 194.677 23.9428 193.691 22.1347C192.486 19.9153 191.08 18.5664 187.865 18.7003C185.751 18.7864 184.192 19.4273 183.225 20.6136C182.068 22.039 182.116 23.8471 182.173 24.4499C185.818 24.3733 187.444 21.5799 187.463 21.5512C187.511 21.4555 187.626 21.4172 187.722 21.4363C187.76 21.4459 191.271 22.2782 191.759 26.6789C192.208 30.716 192.4 33.5956 192.438 34.2461Z" fill="#2C0F6B"/>
<path d="M185.789 39.2492C185.521 39.2492 185.311 39.0387 185.311 38.7708V34.992C185.311 34.7241 185.521 34.5137 185.789 34.5137C186.057 34.5137 186.268 34.7241 186.268 34.992V38.7708C186.268 39.0387 186.057 39.2492 185.789 39.2492Z" fill="#2C0F6B"/>
<path d="M171.41 70.4267C171.162 70.4267 170.951 70.2258 170.932 69.9771C170.884 69.1735 169.88 50.1645 173.152 43.6688C176.05 37.9288 185.33 36.6277 185.722 36.5703C185.981 36.532 186.22 36.7234 186.258 36.9817C186.296 37.24 186.105 37.4887 185.847 37.5174C185.751 37.527 176.672 38.8089 174.003 44.0993C170.836 50.3654 171.87 69.7284 171.879 69.9293C171.898 70.1971 171.688 70.4172 171.43 70.4363C171.43 70.4267 171.42 70.4267 171.41 70.4267Z" fill="#2C0F6B"/>
<path d="M185.933 44.6445C185.789 44.6445 185.646 44.5775 185.56 44.4627L184.584 43.2191C183.589 41.9563 182.422 39.5646 182.374 39.4689C182.259 39.2298 182.355 38.9428 182.594 38.828C182.833 38.7132 183.12 38.8088 183.235 39.048C183.244 39.0671 184.412 41.4492 185.34 42.6355L185.914 43.3626L187.808 40.6074C187.894 40.4734 188.056 40.3873 188.21 40.3969C188.372 40.3969 188.516 40.483 188.602 40.6169L190.41 43.3913C191.252 42.6164 193.222 40.6743 194.303 38.3592C194.418 38.12 194.696 38.0148 194.935 38.1296C195.174 38.2444 195.279 38.5218 195.165 38.761C193.682 41.9563 190.735 44.3862 190.611 44.4914C190.506 44.5775 190.372 44.6158 190.238 44.5967C190.104 44.5775 189.979 44.501 189.912 44.3862L188.2 41.7458L186.334 44.4532C186.248 44.5775 186.105 44.6541 185.952 44.6636C185.942 44.6445 185.933 44.6445 185.933 44.6445Z" fill="#2C0F6B"/>
<path d="M206.176 56.9763H197.288C197.02 56.9763 196.81 56.7659 196.81 56.498L196.781 49.7152C196.781 49.4474 196.992 49.2369 197.26 49.2369C197.556 49.2369 197.738 49.4474 197.738 49.7152L197.767 56.0197H205.822C206.338 54.2977 208.529 46.2904 205.248 43.2769C201 39.3737 192.515 38.3405 192.428 38.3309C192.189 38.3022 192.008 38.1013 192.008 37.8526V34.2938C192.008 34.0259 192.218 33.8154 192.486 33.8154C192.754 33.8154 192.964 34.0259 192.964 34.2938V37.4316C194.791 37.6899 201.928 38.924 205.889 42.5689C210.012 46.3478 206.759 56.2206 206.625 56.6415C206.558 56.8424 206.377 56.9763 206.176 56.9763Z" fill="#2C0F6B"/>
<path d="M178.318 55.0535C178.318 55.0535 178.308 55.0535 178.318 55.0535C178.05 55.0535 177.839 54.8334 177.839 54.5656L177.954 47.7158C177.954 47.4575 178.174 47.2471 178.432 47.2471H178.442C178.71 47.2471 178.92 47.4671 178.911 47.735L178.796 54.5847C178.796 54.843 178.576 55.0535 178.318 55.0535Z" fill="#2C0F6B"/>
<path d="M202.234 70.8955C201.976 70.8955 201.766 70.685 201.756 70.4267L201.641 65.1842C201.632 64.9163 201.842 64.7059 202.11 64.6963C202.387 64.7059 202.588 64.8972 202.598 65.1651L202.713 70.4076C202.722 70.6755 202.512 70.8859 202.244 70.8955H202.234Z" fill="#2C0F6B"/>
<path d="M124.783 70.3988C124.524 70.3988 124.304 70.1884 124.304 69.9205L124.256 62.6785C124.256 62.4107 124.467 62.2002 124.735 62.2002C124.974 62.1619 125.213 62.4107 125.213 62.6785L125.261 69.9205C125.261 70.1788 125.05 70.3988 124.783 70.3988Z" fill="#2C0F6B"/>
<path d="M178.432 70.8953C178.165 70.8953 177.954 70.6848 177.954 70.4169V57.9324C177.954 57.6646 178.165 57.4541 178.432 57.4541C178.7 57.4541 178.911 57.6646 178.911 57.9324V70.4169C178.911 70.6848 178.691 70.8953 178.432 70.8953Z" fill="#2C0F6B"/>
<path d="M178.432 54.7379H171.831C171.564 54.7379 171.353 54.5274 171.353 54.2596C171.353 53.9917 171.564 53.7812 171.831 53.7812H178.432C178.7 53.7812 178.911 53.9917 178.911 54.2596C178.911 54.5274 178.691 54.7379 178.432 54.7379Z" fill="#2C0F6B"/>
<path d="M188.066 47.505C187.798 47.505 187.588 47.2945 187.588 47.0266V45.1229C187.588 44.855 187.798 44.6445 188.066 44.6445C188.334 44.6445 188.544 44.855 188.544 45.1229V47.0266C188.544 47.2945 188.334 47.505 188.066 47.505Z" fill="#2C0F6B"/>
<path d="M188.066 51.1212C187.798 51.1212 187.588 50.9107 187.588 50.6428V48.7391C187.588 48.4712 187.798 48.2607 188.066 48.2607C188.334 48.2607 188.544 48.4712 188.544 48.7391V50.6428C188.544 50.9107 188.334 51.1212 188.066 51.1212Z" fill="#2C0F6B"/>
<path d="M134.081 69.4036C125.089 69.4036 121.712 56.8234 121.568 56.2877C121.501 56.0294 121.654 55.7711 121.913 55.7041C122.161 55.6371 122.429 55.7902 122.496 56.0485C122.525 56.1729 125.835 68.4469 134.081 68.4469C134.11 68.4469 134.139 68.4469 134.167 68.4469C139.161 68.3991 142.261 61.3771 144.117 57.1869C145.102 54.9579 145.533 54.0395 146.097 53.8482C147.264 53.4559 147.484 53.3507 147.503 53.3411C147.551 53.3029 147.551 53.3124 147.609 53.2933C147.924 53.2072 148.278 53.0637 148.355 52.9872C148.412 52.8915 148.422 52.7097 148.364 52.6045C148.345 52.5758 148.297 52.4801 148.058 52.4706C147.79 52.461 147.589 52.241 147.599 51.9731C147.609 51.7052 147.867 51.4948 148.097 51.5139C148.604 51.533 148.996 51.7626 149.206 52.1549C149.426 52.5567 149.398 53.1115 149.149 53.5229C148.929 53.8864 148.288 54.1065 147.896 54.2213C147.743 54.2882 147.379 54.4317 146.394 54.7666C146.154 54.9388 145.533 56.3451 144.987 57.5887C143.045 61.9894 139.783 69.3557 134.177 69.4131C134.148 69.4036 134.11 69.4036 134.081 69.4036Z" fill="#2C0F6B"/>
<path d="M146.04 53.1692C145.839 53.1692 145.647 53.0448 145.58 52.8439C145.494 52.5951 145.638 52.3273 145.887 52.2412C146.757 51.9542 148.135 51.495 148.374 51.3898C148.431 51.3706 148.517 51.141 148.45 50.921C148.403 50.7583 148.336 50.7679 148.259 50.7775C148.001 50.8253 147.752 50.6435 147.704 50.3852C147.656 50.1269 147.838 49.8782 148.097 49.8304C148.69 49.7347 149.187 50.0504 149.359 50.6435C149.532 51.2175 149.34 52.002 148.737 52.2603C148.384 52.4134 146.403 53.0639 146.174 53.1404C146.135 53.1596 146.088 53.1692 146.04 53.1692Z" fill="#2C0F6B"/>
<path d="M149.015 48.5773L149.398 42.9712L144.528 42.7129L144.184 47.7737V49.8496L149.015 48.5773Z" fill="#74DCB9"/>
<path d="M144.184 50.3279C144.079 50.3279 143.973 50.2896 143.887 50.2322C143.772 50.1461 143.705 50.0026 143.705 49.8496V47.7736L144.05 42.6746C144.069 42.4163 144.299 42.2154 144.557 42.2249L149.426 42.4832C149.551 42.4928 149.675 42.5502 149.761 42.6459C149.847 42.7415 149.885 42.8659 149.876 42.9998L149.484 48.6059C149.465 48.8068 149.331 48.979 149.13 49.0364L144.299 50.3183C144.27 50.3279 144.222 50.3279 144.184 50.3279ZM144.978 43.2103L144.662 47.8119V49.2373L148.565 48.2041L148.9 43.4208L144.978 43.2103Z" fill="#74DCB9"/>
<path d="M128.227 60.6117C128.16 60.6117 128.093 60.5926 128.026 60.5639C127.786 60.4491 127.681 60.1717 127.796 59.9325C129.308 56.7085 132.618 55.6466 135.277 54.8048C135.995 54.5752 136.674 54.3647 137.248 54.1255C140.596 52.7479 141.773 50.7198 141.84 50.6146C141.83 50.6146 142.117 49.6292 142.251 48.3377C142.28 48.0507 142.28 47.7828 142.28 47.5532C142.28 46.9792 142.28 46.1948 143.045 46.1565C143.61 46.1374 143.964 46.3478 144.165 46.5392C144.653 47.0079 144.672 47.7063 144.672 47.7924V49.2465L148.163 48.3281C148.967 48.1081 149.512 48.5099 149.723 48.9308C149.972 49.4092 149.876 49.9832 149.493 50.2893C149.034 50.6624 146.805 51.2651 145.867 51.5138C145.609 51.5808 145.351 51.4277 145.284 51.1694C145.217 50.9111 145.37 50.6528 145.628 50.5859C147.006 50.2223 148.651 49.7153 148.9 49.5335C148.91 49.5144 148.919 49.4092 148.852 49.3231C148.757 49.1891 148.565 49.2083 148.412 49.2465L144.308 50.3276C144.165 50.3658 144.012 50.3371 143.897 50.2415C143.782 50.1554 143.715 50.0119 143.715 49.8588V47.7828C143.715 47.6872 143.677 47.381 143.505 47.2279C143.476 47.1992 143.409 47.1419 143.246 47.1132C143.237 47.2375 143.237 47.4097 143.237 47.5532C143.237 47.8115 143.237 48.1177 143.198 48.4334C143.045 49.8684 142.73 50.9303 142.72 50.9685C142.634 51.1503 141.381 53.4559 137.611 55.0057C136.999 55.2544 136.31 55.4744 135.574 55.7136C132.962 56.5459 129.996 57.493 128.667 60.3343C128.581 60.5065 128.408 60.6117 128.227 60.6117Z" fill="#2C0F6B"/>
<path d="M196.332 67.8914C191.347 67.8914 187.406 64.103 184.45 61.2617C183.216 60.085 182.154 59.0613 181.389 58.7074C180.011 58.0664 178.557 57.8177 177.399 57.6168C176.299 57.4254 175.629 57.3106 175.304 56.9375C174.797 56.3444 174.826 55.8469 174.95 55.5408C175.342 54.5172 177.179 54.2302 177.543 54.1823L181.14 53.7614L180.91 53.1683C180.738 52.8239 180.355 51.8863 180.767 51.3315C180.92 51.1401 181.207 50.9201 181.762 51.0253C181.943 51.054 182.412 51.1497 184.354 54.1058C184.364 54.1058 185.646 55.3973 187.234 55.5504C188.076 55.6269 189.042 55.6652 190.056 55.7034C193.71 55.8374 197.862 56 200.187 58.0951C200.388 58.2769 200.397 58.5734 200.225 58.7743C200.044 58.9752 199.747 58.9848 199.546 58.8126C197.47 56.9471 193.509 56.794 190.018 56.6601C188.984 56.6218 188.009 56.5836 187.138 56.507C185.158 56.3253 183.665 54.7755 183.598 54.7085C182.804 53.5127 181.829 52.1925 181.522 51.9629C181.522 52.1351 181.628 52.4986 181.771 52.7856L182.25 53.991C182.307 54.1249 182.288 54.2876 182.211 54.4119C182.135 54.5363 182.001 54.6224 181.857 54.6415L177.648 55.1294C176.892 55.2347 175.955 55.5695 175.83 55.8852C175.782 56.0096 175.926 56.2105 176.022 56.3157C176.165 56.4401 176.93 56.574 177.552 56.6792C178.71 56.8801 180.288 57.148 181.781 57.8368C182.699 58.2577 183.761 59.2814 185.1 60.5729C188.19 63.5385 192.428 67.6139 197.633 66.839C203.822 65.9206 205.238 56.5166 205.248 56.4209C205.286 56.1626 205.525 55.9809 205.793 56.0191C206.051 56.0574 206.233 56.2966 206.195 56.5644C206.138 56.9854 204.655 66.7625 197.767 67.7861C197.298 67.8627 196.81 67.8914 196.332 67.8914Z" fill="#2C0F6B"/>
<path d="M149.015 55.4743C148.9 55.4743 148.776 55.4264 148.69 55.3403C148.498 55.1586 148.489 54.8524 148.67 54.6611L155.444 47.4957C156.276 45.5919 157.07 44.0517 157.701 42.808C158.304 41.6313 158.83 40.6077 158.849 40.2537C158.897 39.6032 161.232 31.8733 162.466 31.0697C162.714 30.9071 162.934 30.9453 163.049 30.9836C163.355 31.0888 164.274 31.4237 162.877 36.4462C162.81 36.7045 162.542 36.848 162.284 36.781C162.026 36.714 161.882 36.4462 161.949 36.1879C162.38 34.6285 162.667 33.0787 162.676 32.2847C161.748 33.9206 159.854 39.4979 159.797 40.3207C159.758 40.8755 159.299 41.7652 158.543 43.2481C157.902 44.4917 157.108 46.0415 156.276 47.9549C156.257 48.0027 156.219 48.0505 156.19 48.0888L149.359 55.3212C149.264 55.4264 149.139 55.4743 149.015 55.4743Z" fill="#2C0F6B"/>
<path d="M163.642 37.2398C163.585 37.2398 163.528 37.2302 163.47 37.2111C163.221 37.1154 163.107 36.838 163.202 36.5892C163.595 35.5847 163.489 35.1351 163.403 34.9533C163.346 34.8385 163.25 34.7907 163.25 34.7907C162.992 34.7333 162.839 34.475 162.896 34.2167C162.954 33.9584 163.212 33.7958 163.47 33.8627C163.518 33.8723 163.977 33.9967 164.245 34.5133C164.551 35.0873 164.494 35.91 164.092 36.9432C164.015 37.125 163.834 37.2398 163.642 37.2398Z" fill="#2C0F6B"/>
<path d="M155.004 65.5384C152.612 65.5384 150.297 63.7495 148.594 60.5733C148.47 60.3437 148.556 60.0472 148.785 59.9228C149.015 59.7984 149.311 59.8845 149.436 60.1141C151.024 63.0798 153.215 64.7444 155.329 64.5626C157.692 64.3617 159.749 61.9701 161.117 57.8468C163.929 49.3516 162.437 40.1676 162.418 40.0815C162.38 39.8615 162.504 39.6415 162.705 39.5554C162.705 39.5554 163.499 39.144 164.102 37.2115C164.398 36.2357 164.274 35.8148 164.178 35.6426C164.082 35.4895 163.958 35.4704 163.948 35.4608C163.7 35.413 163.508 35.1834 163.547 34.9251C163.575 34.6668 163.795 34.485 164.054 34.5137C164.111 34.5233 164.628 34.5807 164.963 35.0973C165.326 35.633 165.345 36.4462 165.02 37.4889C164.503 39.1631 163.824 39.9093 163.413 40.225C163.652 41.9374 164.618 50.3179 162.026 58.1338C160.533 62.6493 158.18 65.261 155.415 65.5002C155.281 65.5384 155.138 65.5384 155.004 65.5384Z" fill="#2C0F6B"/>
<path d="M153.071 55.5601C153.023 55.5601 152.975 55.5506 152.918 55.541C152.669 55.4549 152.535 55.187 152.612 54.9383C154.592 48.9209 155.673 46.9693 155.721 46.8927C155.855 46.6631 156.142 46.577 156.372 46.711C156.601 46.8449 156.687 47.1319 156.553 47.3615C156.544 47.3806 155.463 49.3418 153.521 55.2349C153.454 55.4358 153.272 55.5601 153.071 55.5601Z" fill="#2C0F6B"/>
<path d="M129.346 23.9712C129.327 23.9712 129.317 23.9712 129.298 23.9712L120.439 23.1676C120.181 23.1485 119.98 22.9093 120.009 22.651C120.037 22.3927 120.267 22.1918 120.525 22.2205L129.384 23.0241C129.642 23.0432 129.843 23.2824 129.815 23.5407C129.805 23.7799 129.595 23.9712 129.346 23.9712Z" fill="#74DCB9"/>
<path d="M131.192 19.7139C131.087 19.7139 130.982 19.6756 130.896 19.6087L114.795 6.84672C114.584 6.68409 114.556 6.37795 114.718 6.17705C114.881 5.96659 115.187 5.93788 115.388 6.10052L131.489 18.8625C131.699 19.0251 131.728 19.3312 131.565 19.5321C131.47 19.6469 131.326 19.7139 131.192 19.7139Z" fill="#74DCB9"/>
<path d="M135.44 15.9161C135.229 15.9161 135.038 15.7726 134.981 15.5622L131.757 3.25944C131.69 3.00114 131.843 2.74284 132.101 2.67587C132.359 2.60891 132.618 2.76197 132.685 3.02027L135.909 15.323C135.976 15.5813 135.822 15.8396 135.564 15.9066C135.526 15.9161 135.488 15.9161 135.44 15.9161Z" fill="#74DCB9"/>
<path d="M140.386 15.2277C140.376 15.2277 140.357 15.2277 140.348 15.2277C140.089 15.2086 139.888 14.9694 139.907 14.7111L140.252 10.6836C140.271 10.4157 140.51 10.2244 140.768 10.2435C141.036 10.2626 141.228 10.5018 141.209 10.7601L140.864 14.7877C140.845 15.0364 140.635 15.2277 140.386 15.2277Z" fill="#74DCB9"/>
<path d="M229.93 73.8709C231.177 73.8709 232.188 72.8601 232.188 71.6132C232.188 70.3663 231.177 69.3555 229.93 69.3555C228.683 69.3555 227.672 70.3663 227.672 71.6132C227.672 72.8601 228.683 73.8709 229.93 73.8709Z" fill="#2C0F6B"/>
<path d="M231.958 74.818L236.1 67.6047C236.263 67.3177 236.569 67.1455 236.904 67.1455L240.29 67.1551C240.989 67.1551 241.429 67.9204 241.085 68.5231L235.316 78.6064C234.971 79.2091 234.101 79.2282 233.737 78.6255L231.977 75.7459C231.795 75.4589 231.786 75.105 231.958 74.818Z" fill="#74DCB9"/>
<path d="M192.897 27.1854C192.821 27.1854 192.744 27.1471 192.696 27.0706C192.629 26.9558 192.658 26.8123 192.773 26.7453C192.802 26.7262 195.652 24.8798 194.954 22.0194C194.323 19.4555 192.103 19.1685 192.084 19.1685C191.95 19.1494 191.854 19.0346 191.874 18.9006C191.893 18.7667 192.008 18.6806 192.141 18.6902C192.17 18.6902 194.715 19.0154 195.423 21.9046C196.207 25.1094 193.06 27.128 193.031 27.1471C192.993 27.1758 192.945 27.1854 192.897 27.1854Z" fill="#74DCB9"/>
<path d="M193.213 28.8124C194.069 28.8124 194.763 27.8444 194.763 26.6503C194.763 25.4563 194.069 24.4883 193.213 24.4883C192.357 24.4883 191.663 25.4563 191.663 26.6503C191.663 27.8444 192.357 28.8124 193.213 28.8124Z" fill="#74DCB9"/>
<path d="M181.121 33.4518C181.063 33.4518 181.006 33.4327 180.968 33.3944C180.547 33.0309 180.327 32.5813 180.307 32.0742C180.269 30.9549 181.245 29.9313 181.293 29.893C181.389 29.7974 181.532 29.7974 181.628 29.893C181.723 29.9887 181.723 30.1322 181.628 30.2279C181.618 30.2374 180.748 31.1463 180.776 32.0551C180.795 32.4282 180.958 32.7535 181.274 33.0309C181.369 33.117 181.379 33.2701 181.293 33.3657C181.255 33.4231 181.188 33.4518 181.121 33.4518Z" fill="#74DCB9"/>
<path d="M182.63 34.1963C182.9 33.7857 182.682 33.1658 182.143 32.8119C181.605 32.4579 180.949 32.5039 180.679 32.9146C180.41 33.3253 180.628 33.9451 181.166 34.2991C181.705 34.653 182.361 34.607 182.63 34.1963Z" fill="#74DCB9"/>
<path d="M206.099 43.9844C205.831 43.9844 205.621 43.7739 205.621 43.5061V22.4307C205.621 19.3598 203.124 16.8629 200.053 16.8629H158.658C158.39 16.8629 158.18 16.6524 158.18 16.3846C158.18 16.1167 158.39 15.9062 158.658 15.9062H200.053C203.65 15.9062 206.578 18.8336 206.578 22.4307V43.4965C206.578 43.774 206.358 43.9844 206.099 43.9844Z" fill="#2C0F6B"/>
<path d="M191.749 78.0993C191.673 78.0993 191.587 78.0802 191.51 78.0419L179.571 71.2591H147.953L136.473 77.9271C136.32 78.0132 136.138 78.0132 135.995 77.9271C135.842 77.841 135.756 77.6783 135.756 77.5061L135.794 71.2495H127.04C123.443 71.2495 120.516 68.3221 120.516 64.7251V42.8748C120.516 42.607 120.726 42.3965 120.994 42.3965C121.262 42.3965 121.472 42.607 121.472 42.8748V64.7346C121.472 67.8056 123.969 70.3025 127.04 70.3025H136.282C136.406 70.3025 136.53 70.3503 136.617 70.446C136.703 70.5321 136.76 70.6564 136.76 70.7904L136.722 76.693L147.589 70.379C147.666 70.3407 147.743 70.312 147.829 70.312H179.705C179.791 70.312 179.867 70.3312 179.944 70.3694L191.28 76.7982L191.242 70.886C191.242 70.6277 191.453 70.4077 191.711 70.4077L200.063 70.3025C203.134 70.3025 205.63 67.8056 205.63 64.7346V56.9187C205.63 56.6508 205.841 56.4404 206.109 56.4404C206.377 56.4404 206.587 56.6508 206.587 56.9187V64.7346C206.587 68.3317 203.66 71.2591 200.063 71.2591L192.189 71.3548L192.237 77.6114C192.237 77.7836 192.151 77.9366 191.998 78.0228C191.912 78.0706 191.835 78.0993 191.749 78.0993Z" fill="#2C0F6B"/>
</g>
<defs>
<clipPath id="clip0">
<rect width="285.306" height="180" fill="white" transform="translate(0.346924)"/>
</clipPath>
</defs>
</svg>
