<svg width="286" height="180" viewBox="0 0 286 180" fill="none" xmlns="http://www.w3.org/2000/svg">
<g clip-path="url(#clip0)">
<path d="M80.6 74.5479C76.7325 75.2917 73.0324 76.7321 69.68 78.7988C69.3056 79.0328 68.9468 79.2824 68.588 79.5788C67.1786 80.5937 65.9138 81.7955 64.8284 83.1512C63.8769 84.3608 63.019 85.6411 62.2622 86.9811H61.0142C59.2233 86.9955 57.4901 86.3483 56.147 85.1637C55.5088 84.6167 54.9944 83.9401 54.638 83.1789C54.2816 82.4177 54.0914 81.5893 54.08 80.7488C54.08 77.3246 57.2 74.5479 60.9596 74.5479H80.6Z" fill="#F2EFF8"/>
<path d="M149.872 75.3203C149.817 77.7461 149.692 81.0845 149.411 83.9627C149.521 81.1469 149.708 77.9489 149.872 75.3203Z" fill="#F2EFF8"/>
<path d="M151.151 91.0375C151.669 91.2073 152.124 91.5311 152.454 91.9657H145.34C145.715 91.6171 146.158 91.3513 146.643 91.1857C149.903 90.5305 148.983 88.5259 149.396 84.1657C149.4 84.1034 149.4 84.0409 149.396 83.9785C149.334 85.6243 149.295 87.1375 149.295 88.3387C149.258 88.9312 149.422 89.5187 149.758 90.0078C150.094 90.4968 150.585 90.8593 151.151 91.0375Z" fill="#F2EFF8"/>
<path d="M215.056 37.5213V60.3597C215.05 60.843 214.943 61.3196 214.741 61.7588C214.54 62.1981 214.249 62.5904 213.886 62.9103C213.103 63.5955 212.096 63.9701 211.055 63.9633H210.86C211.024 58.7685 211.055 44.7441 206.632 42.6849C201.172 40.1421 190.744 46.0155 190.744 46.0155C190.744 46.0155 188.497 54.3069 189.184 61.6155C189.372 63.7257 190.099 65.7521 191.295 67.5004C192.492 69.2487 194.118 70.6602 196.017 71.5995L195.814 76.7553C195.814 76.7553 194.776 76.8021 190.658 78.1593C187.897 79.0641 184.668 82.0593 182.858 83.9079C182.77 83.9634 182.686 84.026 182.608 84.0951C182.368 84.2974 182.155 84.5309 181.977 84.7893L181.555 85.2885L181.423 85.4367C179.774 87.4442 178.336 89.6163 177.133 91.9185H163.163C162.071 91.0293 161.229 90.2883 160.69 89.7501C154.45 83.4555 153.592 77.5977 153.195 74.9301C152.766 72.0207 152.937 67.4733 151.837 67.2861C150.511 67.0677 150.277 68.6979 150.231 69.9303C150.231 70.2969 150.051 72.4419 149.872 75.2343C149.919 73.4091 149.919 72.1143 149.919 71.9271C149.919 70.8273 150.285 67.2471 148.819 67.3875C147.352 67.5279 147.259 72.5433 146.869 74.7117C146.604 76.3107 144.209 83.0421 141.705 85.4211C140.145 86.8875 134.17 88.9545 126.932 91.9263H123.664C121.839 81.6615 109.905 76.3263 109.444 76.1625L110.287 69.6261C111.332 69.5593 112.374 69.4369 113.407 69.2595C116.113 68.8851 119.405 65.4141 119.889 58.7451C120.372 52.0761 117.588 44.0031 117.588 44.0031L102.939 38.6757C102.939 38.6757 91.6213 49.9233 92.0191 53.9871C92.4169 58.0509 97.1749 61.5843 97.1749 61.5843L95.6149 73.9785L93.8599 71.2797L92.1829 73.5573C92.1829 73.5573 91.6213 73.5573 90.6229 73.5573C90.7798 72.9776 90.8585 72.3795 90.8569 71.7789C90.8569 67.4655 86.9569 63.9789 82.1911 63.9789H81.3097C76.9733 64.0149 72.7762 62.4483 69.5239 59.5797C68.0086 58.2541 66.7909 56.623 65.9507 54.7934C65.1105 52.9638 64.6669 50.9771 64.6489 48.9639C64.6489 40.6725 72.1057 33.9489 81.3097 33.9489H211.055C212.057 33.8998 213.039 34.2469 213.788 34.9153C214.536 35.5837 214.992 36.5198 215.056 37.5213Z" fill="#F2EFF8"/>
<path d="M149.864 101.59C149.864 102.784 149.39 103.929 148.546 104.773C147.702 105.617 146.557 106.091 145.363 106.091H132.985C134.794 103.79 136.479 101.614 138.102 99.6716C138.593 99.0788 139.396 98.1116 140.332 97.082H145.34C145.932 97.082 146.517 97.1987 147.064 97.4254C147.611 97.652 148.107 97.9842 148.525 98.403C148.943 98.8217 149.274 99.3188 149.5 99.8657C149.726 100.413 149.842 100.999 149.841 101.59H149.864Z" fill="#F2EFF8"/>
<path d="M180.144 1.57129H145.761C143.03 1.57129 140.816 3.78533 140.816 6.51649C140.816 9.24765 143.03 11.4617 145.761 11.4617H180.144C182.875 11.4617 185.089 9.24765 185.089 6.51649C185.089 3.78533 182.875 1.57129 180.144 1.57129Z" fill="#F2EFF8"/>
<path d="M211.071 26.8125H183.576C180.022 26.8125 177.141 29.6935 177.141 33.2475V33.2553C177.141 36.8093 180.022 39.6903 183.576 39.6903H211.071C214.624 39.6903 217.506 36.8093 217.506 33.2553V33.2475C217.506 29.6935 214.624 26.8125 211.071 26.8125Z" fill="#F2EFF8"/>
<path d="M175.495 15.0186H122.798C115.983 15.0186 110.458 20.5432 110.458 27.3582V27.366C110.458 34.1809 115.983 39.7056 122.798 39.7056H175.495C182.31 39.7056 187.834 34.1809 187.834 27.366V27.3582C187.834 20.5432 182.31 15.0186 175.495 15.0186Z" fill="#F2EFF8"/>
<path d="M199.152 9.25488H193.24C190.47 9.25488 188.224 11.5004 188.224 14.2703C188.224 17.0402 190.47 19.2857 193.24 19.2857H199.152C201.922 19.2857 204.168 17.0402 204.168 14.2703C204.168 11.5004 201.922 9.25488 199.152 9.25488Z" fill="#F2EFF8"/>
<path d="M97.7677 15.0811H89.2891C85.3087 15.0811 82.0819 18.3061 82.0819 22.2844C82.0819 26.2626 85.3087 29.4877 89.2891 29.4877H97.7677C101.748 29.4877 104.975 26.2626 104.975 22.2844C104.975 18.3061 101.748 15.0811 97.7677 15.0811Z" fill="#F2EFF8"/>
<path d="M227.279 56.5615H218.8C214.82 56.5615 211.593 59.7866 211.593 63.7648C211.593 67.7431 214.82 70.9681 218.8 70.9681H227.279C231.259 70.9681 234.486 67.7431 234.486 63.7648C234.486 59.7866 231.259 56.5615 227.279 56.5615Z" fill="#F2EFF8"/>
<path d="M184.831 147.635L169.294 163.375L161.275 163.297C161.275 163.297 176.407 145.552 177.492 140.981C178.576 136.41 174.816 126.793 174.816 126.793L185.658 132.822V133.017C185.658 133.017 184.995 148.711 184.831 147.635Z" fill="#E6E2EE"/>
<path d="M206.96 163.406H188.669C187.436 159.374 186.41 155.281 185.596 151.144C185.401 150.076 184.933 148.407 184.769 147.33C184.41 145.068 182.866 144.21 182.78 142.284C182.421 134.234 182.608 132.768 182.608 132.768L185.658 133.017L188.271 133.228C188.271 133.228 190.159 160.715 206.96 163.406Z" fill="#E6E2EE"/>
<path d="M222.412 127.292L219.924 124.609C214.232 130.08 207.105 133.826 199.371 135.412C187.21 137.838 174.84 130.326 165.175 114.672C160.8 107.581 158.218 101.256 155.815 96.9032C161.182 105.124 174.925 121.512 182.905 126.832C186.493 129.226 193.045 130.209 196.726 129.772C202.576 128.975 208.162 126.84 213.052 123.532L206.18 109.82L220.922 119.64C220.922 119.64 232.622 109.875 228.613 94.4072C236.023 112.534 222.412 127.292 222.412 127.292Z" fill="#E6E2EE"/>
<path d="M121.324 163.406H105.334C108.524 148.929 111.145 126.481 111.145 126.481C110.536 126.754 109.92 127.003 109.312 127.222C109.312 127.222 111.02 126.528 112.72 125.709L112.806 125.67C114.273 124.968 115.716 124.188 116.035 123.696C116.035 123.696 112.401 145.232 116.542 154.701C119.834 162.22 120.988 163.32 121.324 163.406Z" fill="#E6E2EE"/>
<path d="M52.0052 129.514C48.6668 162.017 60.71 163.405 60.71 163.405H33.2852C33.2852 163.405 40.781 143.617 46.7792 128.5C53.183 112.362 57.2702 92.5502 64.7738 83.1278C66.1414 81.4296 67.7808 79.9695 69.6254 78.8066C69.2744 79.142 55.3904 96.5438 52.0052 129.514Z" fill="#E6E2EE"/>
<path d="M195.034 93.7518L199.94 88.479L201.5 95.1714C201.5 95.1714 205.743 94.7424 211.141 90.6864C214.393 88.2041 216.677 84.6649 217.599 80.679L216.195 80.2656C211.765 90.975 202.756 92.4102 202.756 92.4102L200.985 84.4776L195.26 91.0998C195.26 91.0998 194.34 90.4524 192.865 87.621C192.225 86.3202 191.872 84.8972 191.828 83.448C191.512 87.1692 192.663 90.8666 195.034 93.7518Z" fill="#E6E2EE"/>
<path d="M197.99 72.0993C194.792 72.0993 192.109 70.3911 190.432 67.2945C186.961 60.8985 189.449 49.1361 189.558 48.6369C189.58 48.5335 189.642 48.4429 189.73 48.3851C189.819 48.3274 189.927 48.3071 190.03 48.3288C190.134 48.3505 190.224 48.4125 190.282 48.501C190.34 48.5895 190.36 48.6973 190.338 48.8007C190.338 48.9255 187.803 60.7815 191.118 66.9201C193.084 70.5549 195.939 71.3193 197.99 71.3193C200.642 71.3193 202.99 70.0323 203.637 68.8467C203.662 68.8017 203.695 68.7619 203.735 68.7296C203.775 68.6974 203.821 68.6734 203.87 68.6589C203.919 68.6444 203.971 68.6397 204.022 68.6452C204.073 68.6507 204.123 68.6661 204.168 68.6907C204.213 68.7153 204.253 68.7485 204.285 68.7885C204.317 68.8284 204.341 68.8744 204.356 68.9236C204.37 68.9729 204.375 69.0245 204.369 69.0755C204.364 69.1266 204.348 69.1761 204.324 69.2211C203.551 70.6329 200.97 72.0993 197.99 72.0993Z" fill="#2C0F6B"/>
<path d="M196.968 62.9654H196.914C196.727 62.9499 196.545 62.8937 196.382 62.8008C196.219 62.7078 196.078 62.5803 195.97 62.4272C195.549 61.7954 195.806 60.8672 196.102 59.744C196.157 59.549 196.204 59.3462 196.258 59.1512C196.488 58.1571 196.649 57.1486 196.742 56.1326C196.745 56.0817 196.758 56.0318 196.781 55.986C196.803 55.9403 196.835 55.8995 196.873 55.866C196.912 55.8326 196.956 55.8072 197.005 55.7914C197.053 55.7755 197.105 55.7695 197.155 55.7738C197.207 55.7777 197.257 55.7918 197.303 55.8151C197.348 55.8384 197.389 55.8706 197.422 55.9097C197.456 55.9489 197.481 55.9942 197.497 56.0432C197.513 56.0922 197.519 56.1437 197.514 56.195C197.428 57.2462 197.261 58.2892 197.015 59.315C196.96 59.5178 196.906 59.7284 196.851 59.9234C196.625 60.7658 196.391 61.6394 196.617 61.9748C196.617 62.0138 196.719 62.1308 197.023 62.1698C197.126 62.177 197.223 62.2251 197.291 62.3033C197.359 62.3816 197.393 62.4837 197.386 62.5871C197.378 62.6905 197.33 62.7868 197.252 62.8549C197.174 62.9229 197.072 62.957 196.968 62.9498V62.9654Z" fill="#2C0F6B"/>
<path d="M204.62 53.8787C204.552 53.8798 204.486 53.8631 204.427 53.8303C204.368 53.7974 204.319 53.7495 204.285 53.6915C203.96 53.0881 203.445 52.6084 202.821 52.3264C202.196 52.0445 201.496 51.976 200.829 52.1315C200.73 52.161 200.623 52.1506 200.531 52.1026C200.439 52.0545 200.37 51.9725 200.338 51.8741C200.309 51.7748 200.32 51.668 200.37 51.5773C200.42 51.4866 200.504 51.4194 200.603 51.3905C201.432 51.1807 202.308 51.2496 203.094 51.5865C203.881 51.9234 204.535 52.5095 204.955 53.2547C205.007 53.3437 205.02 53.4494 204.994 53.5487C204.968 53.648 204.903 53.733 204.815 53.7851C204.761 53.8352 204.693 53.8678 204.62 53.8787Z" fill="#2C0F6B"/>
<path d="M191.36 52.8565C191.286 52.8571 191.214 52.8383 191.149 52.8019C191.063 52.7459 191.002 52.6584 190.978 52.558C190.955 52.4577 190.972 52.3522 191.025 52.2638C191.426 51.6904 192.003 51.2627 192.668 51.0447C193.333 50.8268 194.051 50.8303 194.714 51.0547C194.817 51.0847 194.905 51.1546 194.957 51.249C195.009 51.3433 195.021 51.4544 194.991 51.5578C194.961 51.6613 194.891 51.7486 194.797 51.8005C194.702 51.8524 194.591 51.8647 194.488 51.8347C194.41 51.8347 192.585 51.2809 191.688 52.7161C191.648 52.7644 191.598 52.8024 191.541 52.8269C191.484 52.8513 191.422 52.8615 191.36 52.8565Z" fill="#2C0F6B"/>
<path d="M201.929 58.4643C201.878 58.4622 201.827 58.4502 201.781 58.4287C201.734 58.4072 201.693 58.3768 201.658 58.3391C201.623 58.3014 201.596 58.2572 201.578 58.2091C201.561 58.161 201.553 58.1099 201.555 58.0587L201.664 55.196C201.663 55.1445 201.672 55.0933 201.692 55.0457C201.712 54.9981 201.742 54.9553 201.779 54.92C201.817 54.8846 201.861 54.8576 201.91 54.8407C201.959 54.8237 202.01 54.8172 202.062 54.8217C202.114 54.8226 202.165 54.834 202.212 54.855C202.26 54.876 202.302 54.9063 202.338 54.9441C202.374 54.9819 202.401 55.0264 202.419 55.075C202.438 55.1236 202.446 55.1754 202.444 55.2272L202.335 58.0898C202.333 58.1411 202.321 58.1914 202.299 58.238C202.278 58.2845 202.247 58.3264 202.209 58.3612C202.172 58.3959 202.128 58.4229 202.08 58.4406C202.031 58.4583 201.98 58.4663 201.929 58.4643Z" fill="#2C0F6B"/>
<path d="M193.505 57.6539C193.454 57.6529 193.403 57.6418 193.356 57.6212C193.309 57.6007 193.267 57.5711 193.231 57.5342C193.196 57.4972 193.168 57.4537 193.149 57.406C193.131 57.3582 193.122 57.3073 193.123 57.2561L193.224 54.5339C193.224 54.482 193.235 54.4306 193.255 54.383C193.276 54.3354 193.306 54.2927 193.345 54.2575C193.383 54.2223 193.428 54.1954 193.477 54.1785C193.526 54.1617 193.578 54.1552 193.63 54.1595C193.681 54.1615 193.731 54.1736 193.778 54.1951C193.824 54.2166 193.866 54.247 193.901 54.2847C193.936 54.3223 193.963 54.3665 193.981 54.4146C193.998 54.4627 194.006 54.5139 194.004 54.5651L193.903 57.2795C193.899 57.3816 193.855 57.478 193.78 57.548C193.706 57.618 193.607 57.656 193.505 57.6539Z" fill="#2C0F6B"/>
<path d="M198.692 66.6938C198.619 66.6959 198.546 66.6763 198.484 66.6374C198.421 66.5986 198.372 66.5422 198.341 66.4754C198.319 66.4288 198.306 66.3783 198.303 66.3267C198.3 66.2752 198.308 66.2236 198.325 66.175C198.343 66.1263 198.37 66.0817 198.405 66.0435C198.439 66.0054 198.481 65.9745 198.528 65.9528C198.828 65.8291 199.096 65.6393 199.312 65.3975C199.528 65.1557 199.687 64.8683 199.776 64.5566C199.254 65.0079 198.625 65.3168 197.948 65.4535C197.272 65.5901 196.572 65.5498 195.915 65.3366C195.866 65.3202 195.82 65.2941 195.781 65.2598C195.741 65.2255 195.71 65.1836 195.687 65.1367C195.664 65.0898 195.651 65.0389 195.648 64.9868C195.645 64.9347 195.653 64.8826 195.671 64.8336C195.688 64.7846 195.716 64.7396 195.751 64.7013C195.787 64.663 195.829 64.6323 195.877 64.6108C195.924 64.5893 195.976 64.5776 196.028 64.5764C196.08 64.5751 196.132 64.5843 196.18 64.6034C196.859 64.8279 197.594 64.8125 198.263 64.5598C198.932 64.307 199.494 63.8323 199.854 63.215C199.895 63.1499 199.954 63.0983 200.024 63.0667C200.094 63.0351 200.172 63.0249 200.248 63.0374C200.324 63.0499 200.394 63.0846 200.451 63.137C200.507 63.1894 200.546 63.2572 200.564 63.332C200.709 63.9959 200.618 64.6896 200.306 65.2934C199.994 65.8972 199.481 66.3732 198.856 66.6392C198.806 66.6689 198.75 66.6876 198.692 66.6938Z" fill="#2C0F6B"/>
<path d="M209.838 71.8802C212.958 74.2982 217.459 73.4402 220.119 71.8802C221.564 71.0518 222.711 69.7878 223.395 68.2688C214.885 69.3296 220.017 54.9308 215.595 46.1012C213.387 41.6708 210.259 37.2014 202.927 37.1156C188.7 36.9596 189.176 50.5784 189.176 50.5784C193.986 50.2364 198.531 48.2476 202.046 44.9468C202.046 44.9468 210.556 48.4178 210.306 57.4268C210.08 67.2002 209.838 71.8802 209.838 71.8802Z" fill="#2C0F6B"/>
<path d="M195.954 79.6256C195.902 79.6246 195.851 79.6132 195.804 79.5922C195.756 79.5712 195.713 79.5409 195.678 79.5031C195.642 79.4653 195.615 79.4208 195.596 79.3722C195.578 79.3236 195.57 79.2718 195.572 79.22L195.829 71.6852C195.827 71.6333 195.836 71.5815 195.855 71.5333C195.874 71.4851 195.904 71.4417 195.942 71.4061C195.98 71.3705 196.025 71.3435 196.074 71.3271C196.123 71.3106 196.176 71.3051 196.227 71.3108C196.278 71.3118 196.329 71.3229 196.376 71.3434C196.423 71.364 196.465 71.3935 196.501 71.4305C196.536 71.4674 196.564 71.511 196.583 71.5587C196.601 71.6064 196.61 71.6574 196.609 71.7086L196.352 79.2512C196.348 79.3532 196.304 79.4496 196.23 79.5197C196.155 79.5897 196.056 79.6277 195.954 79.6256Z" fill="#2C0F6B"/>
<path d="M173.638 100.515C173.597 100.522 173.555 100.522 173.514 100.515C173.417 100.481 173.336 100.411 173.29 100.319C173.243 100.228 173.234 100.122 173.264 100.023C174.188 97.19 175.349 94.4398 176.735 91.802C178.085 89.2233 179.726 86.8078 181.626 84.6026C181.828 84.3686 182.023 84.158 182.226 83.9396C189.02 76.6388 195.751 76.28 196.04 76.2722C196.091 76.2691 196.142 76.2761 196.19 76.2929C196.238 76.3097 196.282 76.336 196.32 76.3701C196.358 76.4043 196.388 76.4457 196.41 76.4918C196.432 76.5379 196.444 76.5879 196.446 76.6388C196.448 76.69 196.44 76.7412 196.422 76.7893C196.404 76.8374 196.377 76.8816 196.343 76.9193C196.308 76.9569 196.266 76.9874 196.219 77.0088C196.173 77.0303 196.122 77.0424 196.071 77.0444C196.001 77.0444 189.363 77.4188 182.811 84.431C182.577 84.6806 182.382 84.8912 182.195 85.1096C180.328 87.2691 178.719 89.6379 177.398 92.1686C176.035 94.767 174.892 97.4754 173.982 100.265C173.955 100.335 173.908 100.396 173.847 100.441C173.786 100.485 173.714 100.511 173.638 100.515Z" fill="#2C0F6B"/>
<path d="M202.717 92.8002C202.629 92.8003 202.544 92.7701 202.476 92.7146C202.407 92.6592 202.36 92.582 202.342 92.496L200.72 85.32L195.51 91.3572C195.446 91.4289 195.359 91.4749 195.264 91.4864C195.169 91.4979 195.073 91.4741 194.995 91.4196C194.886 91.3494 193.95 90.6396 192.468 87.8004C191.799 86.4527 191.431 84.9755 191.391 83.4714C191.328 82.2029 191.428 80.9316 191.688 79.6884C191.699 79.6372 191.721 79.5888 191.752 79.546C191.782 79.5032 191.821 79.4668 191.865 79.4389C191.91 79.411 191.959 79.3922 192.011 79.3835C192.063 79.3748 192.116 79.3763 192.167 79.3881C192.219 79.3999 192.267 79.4216 192.31 79.4521C192.353 79.4826 192.389 79.5212 192.417 79.5658C192.445 79.6103 192.464 79.6599 192.472 79.7117C192.481 79.7636 192.479 79.8166 192.468 79.8678C192.223 81.0366 192.129 82.2319 192.187 83.4246C192.22 84.8174 192.558 86.186 193.177 87.4338C193.712 88.5595 194.394 89.6087 195.205 90.5538L200.665 84.2436C200.712 84.1881 200.773 84.1467 200.842 84.1241C200.911 84.1015 200.985 84.0985 201.055 84.1155C201.126 84.1325 201.19 84.1689 201.241 84.2204C201.292 84.272 201.328 84.3367 201.344 84.4074L203.06 91.95C204.753 91.5366 212.046 89.2902 215.836 80.133C215.863 80.0547 215.914 79.9866 215.981 79.9378C216.048 79.889 216.128 79.8618 216.211 79.86C216.314 79.86 216.413 79.9011 216.487 79.9742C216.56 80.0474 216.601 80.1466 216.601 80.25C216.612 80.2988 216.612 80.3494 216.601 80.3982C212.139 91.1778 202.951 92.7534 202.857 92.769L202.717 92.8002Z" fill="#2C0F6B"/>
<path d="M251.685 163.789C251.601 163.79 251.518 163.763 251.45 163.712C251.382 163.661 251.333 163.589 251.311 163.508C251.155 162.962 235.648 108.994 229.978 92.5278C224.518 76.686 210.197 76.8186 210.033 76.8264C209.979 76.8298 209.926 76.8211 209.876 76.8008C209.826 76.7806 209.781 76.7493 209.745 76.7094C209.706 76.6706 209.677 76.6241 209.658 76.573C209.639 76.5219 209.631 76.4673 209.635 76.413L209.908 71.3976C209.911 71.3464 209.925 71.2963 209.947 71.2501C209.97 71.204 210.001 71.1627 210.039 71.1287C210.078 71.0946 210.122 71.0685 210.171 71.0517C210.219 71.0349 210.271 71.0279 210.322 71.031C210.373 71.034 210.423 71.0472 210.469 71.0696C210.515 71.0921 210.557 71.1234 210.591 71.1617C210.625 71.2001 210.651 71.2449 210.668 71.2933C210.684 71.3418 210.691 71.3932 210.688 71.4444L210.439 76.0542C212.911 76.1556 225.618 77.4192 230.719 92.2704C236.397 108.791 251.904 162.782 252.06 163.321C252.074 163.37 252.078 163.421 252.073 163.472C252.067 163.523 252.052 163.572 252.027 163.617C252.003 163.662 251.969 163.702 251.929 163.734C251.889 163.766 251.844 163.79 251.794 163.804C251.757 163.806 251.72 163.801 251.685 163.789Z" fill="#2C0F6B"/>
<path d="M213.239 54.9001C213.203 54.8986 213.169 54.8878 213.139 54.8686C213.108 54.8494 213.084 54.8226 213.067 54.7909C213.054 54.7682 213.046 54.7429 213.043 54.7168C213.04 54.6906 213.043 54.6642 213.051 54.6392C213.059 54.6142 213.072 54.5911 213.09 54.5716C213.108 54.552 213.129 54.5364 213.153 54.5257C213.216 54.5257 219.51 51.2575 218.192 45.8053C217.006 40.9147 212.124 40.3453 212.077 40.3453C212.051 40.3434 212.026 40.3363 212.003 40.3247C211.98 40.313 211.96 40.2969 211.943 40.2773C211.927 40.2578 211.914 40.2351 211.906 40.2106C211.898 40.1861 211.895 40.1603 211.897 40.1347C211.905 40.0831 211.932 40.0361 211.972 40.0029C212.012 39.9698 212.064 39.9528 212.116 39.9553C212.163 39.9553 217.318 40.5169 218.574 45.6883C219.963 51.4369 213.395 54.8143 213.325 54.8455C213.302 54.8716 213.272 54.8906 213.239 54.9001Z" fill="#74DCB9"/>
<path d="M217.151 54.2659C217.231 52.0833 215.841 50.2606 214.045 50.1948C212.25 50.129 210.73 51.8449 210.65 54.0275C210.57 56.2101 211.96 58.0329 213.756 58.0987C215.551 58.1645 217.071 56.4485 217.151 54.2659Z" fill="#74DCB9"/>
<path d="M207.607 63.9013C207.568 63.9008 207.531 63.8887 207.499 63.8664C207.467 63.8442 207.442 63.8129 207.428 63.7765C207.418 63.7525 207.413 63.7267 207.413 63.7006C207.413 63.6745 207.418 63.6487 207.428 63.6248C207.438 63.6008 207.453 63.579 207.472 63.5609C207.491 63.5428 207.513 63.5285 207.537 63.5191C213.45 61.1791 214.089 53.9485 214.097 53.8783C214.099 53.8527 214.106 53.8277 214.118 53.8048C214.129 53.7819 214.145 53.7615 214.165 53.7448C214.185 53.7281 214.207 53.7155 214.232 53.7076C214.256 53.6997 214.282 53.6968 214.308 53.6989C214.333 53.7009 214.358 53.7079 214.381 53.7196C214.404 53.7312 214.424 53.7473 214.441 53.7669C214.458 53.7865 214.47 53.8091 214.478 53.8336C214.486 53.8581 214.489 53.8839 214.487 53.9095C214.487 53.9797 213.816 61.4521 207.678 63.8857L207.607 63.9013Z" fill="#74DCB9"/>
<path d="M206.974 65.521C208.166 64.9692 208.793 63.7867 208.373 62.8797C207.953 61.9726 206.647 61.6846 205.454 62.2363C204.262 62.7881 203.635 63.9706 204.055 64.8777C204.475 65.7847 205.781 66.0727 206.974 65.521Z" fill="#74DCB9"/>
<path d="M196.617 97.441H196.539C196.489 97.4308 196.441 97.4108 196.399 97.3821C196.356 97.3535 196.32 97.3167 196.292 97.274C196.263 97.2312 196.244 97.1834 196.234 97.1331C196.224 97.0828 196.225 97.031 196.235 96.9809L196.921 93.4943C196.931 93.4436 196.95 93.3953 196.978 93.3523C197.007 93.3093 197.044 93.2724 197.087 93.244C197.13 93.2156 197.178 93.1962 197.229 93.1869C197.279 93.1776 197.331 93.1787 197.382 93.1901C197.432 93.2003 197.479 93.2203 197.522 93.249C197.564 93.2776 197.601 93.3144 197.629 93.3571C197.657 93.3999 197.677 93.4478 197.687 93.498C197.696 93.5483 197.696 93.6001 197.686 93.6502L196.999 97.1291C196.981 97.2171 196.933 97.2963 196.864 97.3532C196.794 97.41 196.707 97.4411 196.617 97.441Z" fill="#2C0F6B"/>
<path d="M195.627 105.171H195.58C195.478 105.16 195.384 105.108 195.32 105.028C195.256 104.947 195.226 104.845 195.237 104.742L195.666 101.217C195.681 101.115 195.735 101.023 195.816 100.959C195.897 100.895 196 100.865 196.102 100.874C196.205 100.887 196.299 100.941 196.363 101.022C196.427 101.104 196.457 101.207 196.446 101.31L196.04 104.82C196.03 104.921 195.981 105.014 195.904 105.08C195.827 105.145 195.728 105.178 195.627 105.171Z" fill="#2C0F6B"/>
<path d="M194.823 112.503H194.769C194.718 112.497 194.669 112.481 194.625 112.456C194.581 112.432 194.542 112.398 194.511 112.358C194.48 112.318 194.457 112.273 194.443 112.224C194.43 112.175 194.427 112.124 194.433 112.074L194.917 108.236C194.93 108.133 194.984 108.04 195.065 107.976C195.147 107.912 195.25 107.882 195.354 107.893C195.456 107.906 195.549 107.96 195.611 108.042C195.674 108.124 195.702 108.227 195.689 108.33L195.205 112.167C195.192 112.26 195.147 112.344 195.076 112.406C195.006 112.467 194.916 112.502 194.823 112.503Z" fill="#2C0F6B"/>
<path d="M110.841 70.0709C108.048 70.0709 105.622 68.8697 104.772 67.5749C104.715 67.488 104.695 67.3821 104.717 67.2804C104.738 67.1788 104.798 67.0897 104.885 67.0328C104.972 66.9759 105.078 66.9559 105.18 66.9771C105.281 66.9983 105.371 67.059 105.427 67.1459C106.207 68.3393 108.781 69.4859 111.566 69.2597C113.711 69.0803 116.636 68.0351 118.383 64.0727C121.347 57.3725 117.712 45.2045 117.673 45.0797C117.659 45.0285 117.654 44.9749 117.66 44.9219C117.666 44.8689 117.682 44.8175 117.708 44.7708C117.733 44.7241 117.768 44.6829 117.81 44.6496C117.851 44.6163 117.899 44.5915 117.95 44.5766C118.002 44.5618 118.055 44.5571 118.108 44.563C118.161 44.5689 118.213 44.5852 118.259 44.6109C118.306 44.6366 118.347 44.6712 118.38 44.7129C118.414 44.7545 118.439 44.8023 118.453 44.8535C118.609 45.3605 122.205 57.4271 119.132 64.3535C117.642 67.7231 114.99 69.7277 111.667 70.0007C111.363 70.0553 111.098 70.0709 110.841 70.0709Z" fill="#2C0F6B"/>
<path d="M111.878 60.4226C111.775 60.434 111.671 60.4038 111.59 60.3387C111.508 60.2736 111.456 60.1789 111.445 60.0755C111.434 59.9721 111.464 59.8683 111.529 59.7872C111.594 59.706 111.689 59.654 111.792 59.6426C112.104 59.5724 112.182 59.4398 112.206 59.393C112.416 59.0186 112.096 58.1216 111.784 57.2636C111.714 57.0608 111.636 56.8502 111.566 56.6396C111.222 55.5827 110.961 54.5004 110.786 53.4026C110.777 53.3523 110.778 53.3008 110.79 53.251C110.801 53.2012 110.822 53.1543 110.852 53.1128C110.882 53.0714 110.92 53.0363 110.963 53.0097C111.007 52.9831 111.055 52.9656 111.106 52.958C111.156 52.9491 111.208 52.9504 111.257 52.9617C111.307 52.9731 111.354 52.9943 111.396 53.0241C111.437 53.0539 111.472 53.0917 111.499 53.1353C111.525 53.1788 111.543 53.2273 111.55 53.2778C111.738 54.3347 111.998 55.3772 112.33 56.3978L112.541 57.0062C112.947 58.1294 113.321 59.0888 112.908 59.783C112.809 59.9501 112.675 60.0934 112.514 60.2027C112.354 60.3119 112.171 60.3843 111.979 60.4148L111.878 60.4226Z" fill="#2C0F6B"/>
<path d="M106.34 56.1481C106.244 56.1467 106.153 56.1101 106.082 56.0454C106.012 55.9807 105.967 55.8923 105.958 55.7971L105.599 52.8175C105.587 52.7141 105.616 52.61 105.68 52.528C105.744 52.4461 105.839 52.3931 105.942 52.3807C106.046 52.3683 106.15 52.3975 106.232 52.4619C106.314 52.5262 106.367 52.6205 106.379 52.7239L106.73 55.7113C106.741 55.8137 106.711 55.9162 106.647 55.9965C106.582 56.0769 106.489 56.1286 106.387 56.1403L106.34 56.1481Z" fill="#2C0F6B"/>
<path d="M115.029 54.5797C114.935 54.5785 114.844 54.5431 114.774 54.4799C114.703 54.4168 114.658 54.3303 114.647 54.2365L114.312 51.4129C114.305 51.3617 114.309 51.3096 114.323 51.2598C114.336 51.21 114.36 51.1634 114.392 51.1227C114.424 51.0821 114.463 51.0482 114.509 51.023C114.554 50.9979 114.603 50.9819 114.655 50.9761C114.757 50.9672 114.858 50.9979 114.938 51.0618C115.018 51.1257 115.07 51.2179 115.084 51.3193L115.419 54.1429C115.426 54.1942 115.422 54.2463 115.408 54.2961C115.394 54.3459 115.371 54.3925 115.339 54.4331C115.307 54.4738 115.267 54.5077 115.222 54.5328C115.177 54.558 115.127 54.5739 115.076 54.5797H115.029Z" fill="#2C0F6B"/>
<path d="M102.986 51.6005C102.93 51.6158 102.871 51.6158 102.814 51.6005C102.768 51.5781 102.727 51.5467 102.693 51.5083C102.659 51.4698 102.633 51.425 102.616 51.3765C102.6 51.3279 102.593 51.2766 102.596 51.2253C102.599 51.1741 102.612 51.124 102.635 51.0779C103.004 50.2631 103.631 49.5925 104.419 49.1696C105.207 48.7466 106.112 48.5949 106.995 48.7379C107.096 48.7622 107.184 48.8242 107.241 48.9113C107.297 48.9984 107.318 49.1038 107.299 49.2059C107.277 49.3059 107.216 49.393 107.13 49.4484C107.044 49.5039 106.939 49.5233 106.839 49.5023C106.128 49.3814 105.396 49.5024 104.761 49.8459C104.126 50.1895 103.625 50.7358 103.337 51.3977C103.302 51.4599 103.251 51.5115 103.189 51.5472C103.128 51.5829 103.057 51.6013 102.986 51.6005Z" fill="#2C0F6B"/>
<path d="M116.308 49.0263C116.217 49.0261 116.128 48.9929 116.059 48.9327C115.695 48.65 115.254 48.4851 114.794 48.46C114.334 48.4349 113.877 48.5508 113.485 48.7923C113.398 48.8418 113.296 48.8561 113.199 48.8323C113.102 48.8086 113.018 48.7485 112.964 48.6645C112.91 48.5805 112.89 48.4789 112.908 48.3808C112.927 48.2827 112.983 48.1955 113.064 48.1371C113.595 47.7996 114.219 47.6376 114.847 47.674C115.476 47.7104 116.077 47.9433 116.566 48.3399C116.627 48.392 116.67 48.4615 116.69 48.539C116.71 48.6165 116.706 48.6983 116.678 48.7733C116.649 48.8483 116.599 48.9127 116.533 48.958C116.467 49.0033 116.389 49.0271 116.308 49.0263Z" fill="#2C0F6B"/>
<path d="M110.591 64.6269C110.542 64.6344 110.492 64.6344 110.443 64.6269C109.745 64.3752 109.137 63.9236 108.695 63.3285C108.252 62.7334 107.995 62.0212 107.955 61.2807C107.955 61.1985 107.98 61.1185 108.028 61.0514C108.075 60.9844 108.142 60.9337 108.22 60.9063C108.298 60.8779 108.383 60.8763 108.462 60.9017C108.541 60.9272 108.61 60.9782 108.657 61.0467C109.085 61.6675 109.716 62.1203 110.442 62.328C111.167 62.5357 111.942 62.4853 112.635 62.1855C112.681 62.1633 112.731 62.1505 112.782 62.1479C112.833 62.1453 112.884 62.153 112.932 62.1704C112.979 62.1879 113.023 62.2148 113.061 62.2495C113.098 62.2843 113.128 62.3261 113.149 62.3727C113.172 62.4192 113.185 62.4698 113.187 62.5213C113.19 62.5729 113.182 62.6245 113.165 62.6731C113.148 62.7217 113.121 62.7664 113.086 62.8046C113.051 62.8427 113.009 62.8735 112.962 62.8953C112.343 63.1478 111.674 63.2498 111.008 63.1929C110.342 63.1359 109.699 62.9217 109.132 62.5677C109.483 63.1788 110.034 63.6499 110.692 63.9015C110.744 63.9107 110.793 63.9299 110.836 63.9581C110.88 63.9862 110.918 64.0226 110.948 64.0654C110.977 64.1081 110.998 64.1563 111.009 64.2071C111.02 64.258 111.021 64.3105 111.012 64.3617C111.003 64.4129 110.984 64.4618 110.956 64.5056C110.928 64.5494 110.891 64.5872 110.848 64.6169C110.806 64.6466 110.757 64.6676 110.707 64.6787C110.656 64.6898 110.603 64.6907 110.552 64.6815L110.591 64.6269Z" fill="#2C0F6B"/>
<path d="M109.218 78.1674H109.164C109.062 78.1519 108.971 78.0978 108.908 78.0164C108.846 77.935 108.817 77.8326 108.828 77.7306L109.873 69.9306C109.889 69.8291 109.943 69.7376 110.024 69.6751C110.106 69.6126 110.208 69.5839 110.31 69.5952C110.413 69.6088 110.505 69.6624 110.568 69.7443C110.631 69.8261 110.659 69.9296 110.646 70.032L109.6 77.832C109.589 77.925 109.544 78.0106 109.473 78.0725C109.403 78.1343 109.312 78.1681 109.218 78.1674Z" fill="#2C0F6B"/>
<path d="M123.804 93.3308C123.708 93.3296 123.615 93.2933 123.543 93.2287C123.471 93.1642 123.426 93.0757 123.414 92.9798C123.414 92.66 123.328 92.3402 123.274 92.0282C121.472 81.8882 109.398 76.5998 109.273 76.5452C109.221 76.5288 109.172 76.5015 109.131 76.4652C109.09 76.4288 109.057 76.3842 109.035 76.3343C109.012 76.2844 109 76.2303 109 76.1755C109 76.1207 109.011 76.0664 109.033 76.0163C109.055 75.9661 109.087 75.9211 109.128 75.8843C109.168 75.8475 109.216 75.8196 109.268 75.8026C109.321 75.7855 109.376 75.7796 109.43 75.7853C109.485 75.7909 109.537 75.808 109.585 75.8354C109.71 75.8822 122.166 81.3422 124.046 91.8956C124.101 92.2232 124.147 92.5586 124.186 92.894C124.193 92.9443 124.189 92.9953 124.176 93.0442C124.163 93.0931 124.14 93.1388 124.109 93.1787C124.077 93.2186 124.038 93.252 123.994 93.2767C123.95 93.3015 123.901 93.3172 123.851 93.323L123.804 93.3308Z" fill="#2C0F6B"/>
<path d="M100.981 45.5407C104.366 46.2468 107.821 46.5557 111.277 46.4611C114.013 46.4327 116.726 45.9612 119.311 45.0649C119.311 45.0649 118.984 32.9203 105.919 32.5849C94.9208 32.2807 90.74 38.5207 89.531 42.2803C88.322 46.0399 87.62 52.7869 92.4638 57.6385C97.3076 62.4901 96.6524 65.0407 96.6524 65.0407C96.6524 65.0407 98.9924 59.1361 96.7226 57.9739C94.4528 56.8117 92.495 54.5497 93.5246 51.8275C94.1798 50.1115 95.81 49.8151 96.6446 50.3221C97.8068 51.0475 98.267 52.6621 98.2514 52.2721C98.0798 47.1865 99.593 45.3691 100.981 45.5407Z" fill="#2C0F6B"/>
<path d="M96.6524 65.4614H96.5432C96.4502 65.4325 96.3711 65.3705 96.3207 65.2871C96.2704 65.2037 96.2524 65.1048 96.2702 65.009C96.2702 65.009 96.668 62.4116 92.183 57.9266C86.4968 52.217 88.4 44.417 89.18 42.1628C89.96 39.737 93.5168 31.8434 105.95 32.1866C119.21 32.5532 119.725 44.9552 119.725 45.08C119.729 45.1579 119.708 45.2351 119.666 45.3008C119.625 45.3665 119.563 45.4175 119.491 45.4466C119.366 45.5012 116.558 46.6556 111.324 46.874C107.819 46.9718 104.313 46.6603 100.88 45.9458C100.711 45.9286 100.54 45.9491 100.379 46.0057C100.219 46.0624 100.073 46.1538 99.9518 46.2734C99.4994 46.679 98.4698 48.0752 98.5868 52.2872C98.5887 52.3827 98.5613 52.4765 98.5083 52.556C98.4553 52.6355 98.3793 52.6968 98.2904 52.7318C97.9628 52.8098 97.8302 52.5446 97.7054 52.3184C97.4146 51.67 96.9604 51.1083 96.3872 50.6882C96.2039 50.591 96.002 50.5337 95.795 50.5203C95.5879 50.5069 95.3803 50.5375 95.186 50.6102C94.8758 50.7288 94.5959 50.9149 94.3666 51.1551C94.1373 51.3952 93.9642 51.6834 93.86 51.9986C92.8928 54.557 94.7804 56.6006 96.8708 57.6614C99.4058 58.9406 97.2374 64.5722 96.98 65.2118C96.9558 65.2809 96.9118 65.3414 96.8536 65.3857C96.7954 65.4301 96.7254 65.4564 96.6524 65.4614ZM105.139 32.9588C93.86 32.9588 90.623 40.1504 89.8976 42.4202C89.1722 44.69 87.3626 52.0064 92.7368 57.3884C95.3654 60.017 96.4106 62.0684 96.8162 63.3866C97.3544 61.5146 97.76 58.9952 96.551 58.379C94.1564 57.1622 92.0036 54.7832 93.1658 51.7412C93.3088 51.318 93.5449 50.9322 93.8567 50.6123C94.1685 50.2923 94.5482 50.0464 94.9676 49.8926C95.271 49.7816 95.595 49.7381 95.9169 49.765C96.2389 49.7919 96.5511 49.8887 96.8318 50.0486C97.2222 50.3021 97.5632 50.6245 97.838 51.0002C97.9238 48.4418 98.4854 46.5854 99.4604 45.7118C99.6654 45.5145 99.9117 45.3652 100.182 45.2749C100.451 45.1845 100.738 45.1552 101.02 45.1892C104.373 45.882 107.793 46.1882 111.215 46.1018C113.81 46.0437 116.384 45.6155 118.859 44.8304C118.726 43.013 117.471 33.2942 105.856 32.9744L105.139 32.9588Z" fill="#2C0F6B"/>
<path d="M95.5059 74.2436H95.4201C95.3177 74.2301 95.225 74.1764 95.1621 74.0946C95.0992 74.0127 95.0714 73.9092 95.0847 73.8068L96.7617 61.2332C96.7771 61.1303 96.8324 61.0375 96.9155 60.9748C96.9986 60.9121 97.103 60.8844 97.2063 60.8978C97.2571 60.9035 97.3063 60.9195 97.3507 60.9448C97.3952 60.9702 97.4339 61.0044 97.4646 61.0453C97.4953 61.0863 97.5173 61.1331 97.5292 61.1828C97.5411 61.2326 97.5427 61.2842 97.5339 61.3346L95.8881 73.9004C95.8767 73.9942 95.8317 74.0807 95.7614 74.1438C95.6912 74.207 95.6003 74.2424 95.5059 74.2436Z" fill="#2C0F6B"/>
<path d="M102.081 84.3603C102.021 84.3579 101.961 84.3411 101.908 84.3113C101.855 84.2814 101.81 84.2394 101.777 84.1887L93.8054 71.9583L90.4514 76.5057C90.3892 76.588 90.2976 76.6429 90.1957 76.6589C90.0939 76.6749 89.9898 76.6507 89.9054 76.5915C89.8226 76.5294 89.7679 76.437 89.7533 76.3346C89.7387 76.2322 89.7653 76.1282 89.8274 76.0455L93.5168 71.0457C93.5543 70.9966 93.6028 70.957 93.6583 70.9299C93.7138 70.9029 93.7748 70.8891 93.8366 70.8897C93.9001 70.8888 93.9627 70.9041 94.0187 70.9341C94.0746 70.9642 94.122 71.0079 94.1564 71.0613L102.12 83.3151L109.281 74.8365L109.593 75.0783L109.873 75.3435L102.378 84.2199C102.341 84.263 102.296 84.2978 102.245 84.322C102.193 84.3463 102.138 84.3593 102.081 84.3603Z" fill="#2C0F6B"/>
<path d="M33.2852 163.788C33.2387 163.796 33.1913 163.796 33.1448 163.788C33.0968 163.771 33.0527 163.744 33.0151 163.709C32.9776 163.675 32.9474 163.633 32.9263 163.586C32.9052 163.54 32.8937 163.49 32.8923 163.439C32.891 163.387 32.9 163.337 32.9186 163.289C32.9966 163.086 40.4846 143.321 46.4126 128.376C48.5888 122.916 50.5154 116.941 52.3718 111.216C54.6494 104.196 56.8022 97.4883 59.3216 91.8567C60.0858 90.1158 60.9398 88.4157 61.88 86.7633C62.6461 85.3977 63.5171 84.0938 64.4852 82.8633C65.592 81.4794 66.8832 80.2538 68.3228 79.2206C68.6816 78.9554 69.0482 78.698 69.4304 78.4406C72.8312 76.3352 76.5914 74.8756 80.522 74.1351C83.8593 73.4538 87.256 73.1063 90.662 73.0977C91.6448 73.0977 92.222 73.0977 92.222 73.0977C92.3241 73.1037 92.4197 73.1496 92.4883 73.2255C92.5569 73.3013 92.5929 73.4011 92.5886 73.5033C92.5867 73.5549 92.5743 73.6055 92.5523 73.6522C92.5302 73.6989 92.4989 73.7406 92.4603 73.7749C92.4216 73.8092 92.3765 73.8352 92.3275 73.8516C92.2785 73.8679 92.2267 73.8741 92.1752 73.8699C92.1752 73.8699 91.6136 73.8699 90.6698 73.8699C87.3243 73.8773 83.9877 74.217 80.7092 74.8839C76.876 75.6111 73.209 77.0361 69.8906 79.0881C69.5084 79.3221 69.1652 79.5639 68.8142 79.8291C67.4312 80.8237 66.1901 82.0019 65.1248 83.3313C64.1826 84.5215 63.335 85.7838 62.5898 87.1064C61.6685 88.7214 60.8302 90.3824 60.0782 92.0829C57.5744 97.6755 55.3982 104.321 53.1596 111.364C51.2954 117.129 49.3766 123.064 47.1848 128.602C41.21 143.578 33.722 163.32 33.6518 163.539C33.6224 163.612 33.5718 163.675 33.5065 163.719C33.4413 163.764 33.3642 163.788 33.2852 163.788Z" fill="#2C0F6B"/>
<path d="M100.669 93.3383H100.615C100.512 93.3247 100.42 93.271 100.357 93.1892C100.294 93.1073 100.266 93.0038 100.279 92.9015L100.88 88.8299C100.894 88.7275 100.947 88.6347 101.029 88.5719C101.111 88.509 101.214 88.4812 101.317 88.4945C101.419 88.5081 101.512 88.5617 101.575 88.6435C101.638 88.7254 101.665 88.8289 101.652 88.9313L101.083 93.0029C101.069 93.1007 101.019 93.1898 100.942 93.2521C100.865 93.3143 100.768 93.3451 100.669 93.3383Z" fill="#2C0F6B"/>
<path d="M99.5383 101.443H99.4837C99.4333 101.436 99.3848 101.419 99.3409 101.394C99.297 101.368 99.2587 101.334 99.2282 101.293C99.1977 101.253 99.1756 101.206 99.1632 101.157C99.1508 101.108 99.1484 101.056 99.1561 101.006L99.7177 96.9344C99.7332 96.8314 99.7884 96.7386 99.8716 96.6759C99.9547 96.6132 100.059 96.5856 100.162 96.599C100.213 96.6066 100.262 96.6242 100.306 96.6507C100.35 96.6772 100.388 96.712 100.418 96.7533C100.449 96.7946 100.471 96.8415 100.483 96.8913C100.495 96.9412 100.498 96.9929 100.49 97.0436L99.9283 101.115C99.9119 101.207 99.8639 101.29 99.7927 101.35C99.7214 101.409 99.6314 101.442 99.5383 101.443Z" fill="#2C0F6B"/>
<path d="M194.909 136.238C184.114 136.238 173.365 128.68 164.84 114.874C162.367 110.779 160.113 106.556 158.085 102.223C157.134 100.265 156.315 98.58 155.503 97.0824C154.528 95.3723 153.411 93.7468 152.165 92.223C151.572 91.599 151.26 91.443 151.096 91.443H150.995C150.361 91.2277 149.815 90.8107 149.44 90.2557C149.066 89.7007 148.883 89.0384 148.92 88.3698C148.92 87.2388 148.92 85.7646 149.022 83.994C149.139 81.0066 149.341 77.6214 149.482 75.336C149.614 73.23 149.731 71.514 149.794 70.656L149.841 70.0242C149.919 68.9166 150.082 67.809 150.745 67.2864C150.908 67.1622 151.095 67.0742 151.294 67.0284C151.493 66.9827 151.7 66.9802 151.9 67.0212C152.914 67.1928 153.085 68.94 153.296 72.0054C153.374 73.035 153.444 74.1036 153.577 74.9928C153.982 77.7306 154.833 83.409 160.963 89.6022C161.502 90.1404 162.344 90.8814 163.405 91.7472C165.331 93.3072 167.968 95.3508 171.025 97.6986C177.718 102.854 186.04 109.258 191.664 114.593C191.74 114.665 191.784 114.763 191.787 114.867C191.79 114.971 191.751 115.072 191.68 115.147C191.608 115.223 191.51 115.267 191.406 115.27C191.302 115.273 191.201 115.234 191.126 115.163C185.533 109.859 177.226 103.463 170.55 98.3226C167.492 95.9826 164.848 93.9312 162.913 92.3478C161.837 91.4664 160.971 90.7098 160.41 90.156C154.092 83.7756 153.226 77.9256 152.812 75.1176C152.672 74.1894 152.594 73.1052 152.524 72.06C152.415 70.5936 152.227 67.8714 151.744 67.7934C151.652 67.7694 151.555 67.7667 151.462 67.7856C151.369 67.8046 151.281 67.8446 151.206 67.9026C150.722 68.2848 150.636 69.4626 150.597 70.0788L150.55 70.7106C150.488 71.6076 150.371 73.3158 150.238 75.3906C150.09 77.7306 149.895 81.0924 149.778 84.0642C149.708 85.8348 149.677 87.2934 149.677 88.4166C149.63 88.9262 149.76 89.4364 150.043 89.8622C150.327 90.2879 150.748 90.6036 151.237 90.7566C151.822 90.9451 152.336 91.3069 152.711 91.794C154.004 93.3593 155.158 95.0349 156.159 96.8016C156.985 98.3226 157.851 100.101 158.764 101.981C160.779 106.29 163.021 110.49 165.48 114.562C175.019 130.014 187.32 137.502 199.269 135.131C206.94 133.516 213.999 129.769 219.635 124.32C219.67 124.283 219.713 124.253 219.76 124.232C219.807 124.211 219.857 124.199 219.909 124.198C219.96 124.196 220.011 124.205 220.059 124.223C220.107 124.241 220.151 124.269 220.189 124.304C220.226 124.34 220.256 124.382 220.277 124.429C220.298 124.476 220.31 124.527 220.311 124.578C220.313 124.63 220.304 124.681 220.286 124.729C220.267 124.777 220.24 124.821 220.204 124.858C214.444 130.369 207.253 134.153 199.449 135.778C197.954 136.078 196.433 136.232 194.909 136.238Z" fill="#2C0F6B"/>
<path d="M222.412 127.682C222.357 127.682 222.303 127.669 222.253 127.647C222.204 127.624 222.159 127.591 222.123 127.55L205.876 110.085L205.837 110.031L202.576 106.529L191.656 115.109C191.573 115.172 191.469 115.2 191.365 115.187C191.261 115.174 191.167 115.12 191.103 115.038C191.04 114.957 191.012 114.853 191.025 114.751C191.038 114.649 191.091 114.556 191.173 114.492L202.397 105.702C202.468 105.635 202.561 105.599 202.658 105.599C202.755 105.599 202.849 105.635 202.92 105.702L206.461 109.508L206.508 109.563L222.42 126.676C224.299 124.43 234.9 110.756 228.262 94.5244C228.264 94.5063 228.264 94.4879 228.262 94.4698C227.205 91.9337 225.854 89.5305 224.237 87.3094C224.176 87.2256 224.151 87.121 224.167 87.0186C224.183 86.9162 224.239 86.8244 224.323 86.7634C224.407 86.7024 224.511 86.6771 224.614 86.6932C224.716 86.7093 224.808 86.7654 224.869 86.8492C226.527 89.1311 227.912 91.5998 228.995 94.2046C229 94.2225 229 94.2413 228.995 94.2592C236.389 112.386 222.849 127.37 222.716 127.518C222.68 127.56 222.636 127.593 222.586 127.615C222.536 127.638 222.482 127.65 222.427 127.651L222.412 127.682Z" fill="#2C0F6B"/>
<path d="M202.623 106.38C202.567 106.381 202.511 106.37 202.46 106.347C202.409 106.324 202.363 106.29 202.327 106.247C202.261 106.167 202.229 106.064 202.237 105.961C202.246 105.857 202.295 105.761 202.374 105.693L207.958 100.92C207.997 100.886 208.041 100.86 208.089 100.844C208.138 100.827 208.189 100.821 208.24 100.824C208.291 100.828 208.34 100.842 208.386 100.865C208.431 100.888 208.472 100.92 208.504 100.959C208.576 101.033 208.617 101.132 208.617 101.236C208.617 101.339 208.576 101.438 208.504 101.513L202.92 106.286C202.879 106.321 202.832 106.347 202.781 106.363C202.73 106.379 202.676 106.384 202.623 106.38Z" fill="#2C0F6B"/>
<path d="M138.102 99.6717C135.161 103.197 131.986 107.472 128.313 111.902C116.129 126.504 106.644 130.724 93.275 127.908C86.6685 126.367 80.6017 123.068 75.7172 118.361L73.502 120.786C73.502 120.786 55.1564 104.289 67.6286 86.7783C67.5194 87.0747 64.6022 95.1867 68.7674 102.02C73.0106 108.985 79.898 113.782 79.898 113.782L87.698 104.305L87.5186 105.428L85.9586 115.295C85.9586 115.295 89.7884 121.839 105.654 120.521C116.847 119.593 130.832 107.012 138.102 99.6717Z" fill="#E6E2EE"/>
<path d="M100.576 129.117C98.0912 129.096 95.6157 128.816 93.1891 128.282C82.6747 126.067 75.5065 118.704 75.4363 118.626C75.3964 118.59 75.3644 118.546 75.3422 118.497C75.3199 118.449 75.308 118.396 75.3072 118.342C75.3063 118.288 75.3166 118.235 75.3372 118.186C75.3579 118.136 75.3885 118.091 75.4273 118.054C75.466 118.017 75.512 117.988 75.5624 117.97C75.6127 117.951 75.6663 117.943 75.7199 117.946C75.7735 117.95 75.8258 117.964 75.8736 117.988C75.9215 118.012 75.9638 118.046 75.9979 118.088C76.0681 118.158 83.0803 125.349 93.3529 127.526C99.3745 128.797 104.406 128.579 109.179 126.855C109.772 126.636 110.38 126.395 110.981 126.122C111.582 125.849 112.011 125.646 112.541 125.342L112.658 125.287C113.734 124.702 114.776 124.056 115.778 123.353C119.616 120.716 123.578 116.879 127.977 111.653C129.576 109.742 131.097 107.815 132.657 105.857L133.656 104.578C135.099 102.745 136.456 101.006 137.774 99.4222C138.078 99.0634 138.905 98.0806 140.013 96.8248C141.588 95.0024 143.276 93.2804 145.067 91.669C145.488 91.2655 145.995 90.9616 146.549 90.7798C148.733 90.343 148.756 89.3836 148.834 86.833C148.834 86.053 148.881 85.1482 148.983 84.1186C148.985 84.0692 148.985 84.0197 148.983 83.9704C149.263 81.0142 149.388 77.6368 149.443 75.3124C149.49 73.4482 149.49 72.1456 149.49 71.9662C149.49 71.7868 149.49 71.5996 149.49 71.3656C149.49 70.4062 149.591 68.4172 149.061 67.9102C149.026 67.8759 148.984 67.8497 148.938 67.8335C148.893 67.8173 148.844 67.8115 148.795 67.8166C147.976 67.8868 147.618 71.2018 147.423 72.9802C147.352 73.6666 147.282 74.314 147.196 74.821C146.947 76.3186 144.537 83.2606 141.916 85.741C140.722 86.872 137.236 88.2526 132.392 90.1714C130.731 90.8266 128.921 91.5442 127.026 92.3242C122.704 94.0792 119.015 95.7484 115.747 97.4254C112.069 99.256 108.561 101.409 105.264 103.86C104.161 104.695 103.101 105.585 102.089 106.528C102.052 106.567 102.008 106.598 101.959 106.619C101.91 106.641 101.857 106.652 101.804 106.651C101.75 106.651 101.697 106.64 101.648 106.619C101.599 106.598 101.555 106.566 101.519 106.527C101.482 106.488 101.454 106.442 101.437 106.392C101.419 106.341 101.411 106.288 101.415 106.234C101.419 106.181 101.434 106.129 101.458 106.082C101.483 106.034 101.517 105.992 101.559 105.959C102.589 105 103.667 104.094 104.788 103.244C108.122 100.764 111.669 98.5848 115.388 96.7312C118.68 95.0464 122.408 93.3694 126.729 91.5988C128.625 90.8188 130.442 90.1012 132.111 89.446C136.76 87.6598 140.348 86.2012 141.44 85.1716C143.78 82.9486 146.214 76.3654 146.487 74.6806C146.572 74.197 146.635 73.573 146.713 72.8866C147.072 69.5326 147.438 67.1458 148.795 67.0366C148.953 67.0209 149.112 67.04 149.262 67.0926C149.412 67.1451 149.548 67.2298 149.661 67.3408C150.387 68.035 150.387 69.6808 150.332 71.3812C150.332 71.6152 150.332 71.8102 150.332 71.9584C150.332 72.1066 150.332 73.4482 150.285 75.2812C150.231 77.6602 150.106 81.061 149.825 83.9938C149.831 84.0613 149.831 84.1291 149.825 84.1966C149.731 85.195 149.708 86.0686 149.685 86.8486C149.607 89.4226 149.568 90.9748 146.767 91.5286C146.341 91.6803 145.955 91.9255 145.636 92.2462C143.865 93.8219 142.205 95.5186 140.668 97.324C139.568 98.5642 138.749 99.5392 138.445 99.898C137.127 101.458 135.777 103.205 134.342 105.038L133.336 106.31C131.776 108.283 130.263 110.21 128.656 112.136C124.241 117.44 120.201 121.317 116.308 123.992C115.253 124.719 114.16 125.388 113.032 125.997H112.947C112.408 126.293 111.862 126.551 111.387 126.777C110.763 127.058 110.131 127.307 109.522 127.557C106.657 128.605 103.627 129.133 100.576 129.117Z" fill="#2C0F6B"/>
<path d="M73.502 121.2C73.4046 121.197 73.3111 121.161 73.2368 121.098C73.0574 120.927 54.782 104.164 67.3088 86.5754C67.6754 86.0528 68.0888 85.499 68.5958 84.8984C68.6259 84.8529 68.6652 84.8143 68.7111 84.7849C68.7571 84.7556 68.8087 84.7362 68.8626 84.728C68.9166 84.7199 68.9716 84.7231 69.0242 84.7375C69.0768 84.752 69.1258 84.7773 69.168 84.8118C69.2102 84.8463 69.2447 84.8893 69.2692 84.938C69.2938 84.9867 69.3079 85.04 69.3105 85.0945C69.3132 85.149 69.3044 85.2034 69.2848 85.2543C69.2651 85.3051 69.235 85.3513 69.1964 85.3898C68.7128 85.9904 68.2916 86.5286 67.9328 87.0434C56.6774 102.854 71.24 118.08 73.4786 120.225L92.69 99.1646C92.756 99.0911 92.8475 99.0453 92.9459 99.0366C93.0444 99.0279 93.1425 99.057 93.2204 99.1178L104.445 107.94C104.525 108.004 104.577 108.097 104.588 108.2C104.6 108.302 104.571 108.405 104.507 108.486C104.444 108.567 104.351 108.62 104.248 108.633C104.146 108.647 104.043 108.619 103.961 108.556L93.041 99.9758L73.814 121.036C73.778 121.085 73.7312 121.126 73.6771 121.154C73.623 121.183 73.5631 121.198 73.502 121.2Z" fill="#2C0F6B"/>
<path d="M92.9785 99.844C92.8845 99.8436 92.7935 99.8105 92.7211 99.7504L87.1363 94.969C87.1 94.9334 87.0711 94.891 87.0515 94.8441C87.0318 94.7972 87.0216 94.7469 87.0216 94.696C87.0216 94.6452 87.0318 94.5948 87.0515 94.548C87.0711 94.5011 87.1 94.4586 87.1363 94.423C87.2029 94.345 87.2975 94.2963 87.3997 94.2876C87.5019 94.2788 87.6034 94.3107 87.6823 94.3762L93.2671 99.1576C93.3457 99.2256 93.3945 99.3215 93.4033 99.425C93.412 99.5285 93.38 99.6313 93.3139 99.7114C93.272 99.7579 93.22 99.794 93.1618 99.817C93.1036 99.84 93.0409 99.8493 92.9785 99.844Z" fill="#2C0F6B"/>
<path d="M105.334 163.788H105.248C105.198 163.778 105.151 163.757 105.108 163.729C105.066 163.7 105.03 163.663 105.003 163.62C104.975 163.577 104.956 163.529 104.948 163.479C104.939 163.429 104.94 163.377 104.952 163.327C108.072 149.038 110.731 126.667 110.755 126.441C110.766 126.338 110.818 126.243 110.899 126.178C110.981 126.113 111.084 126.083 111.188 126.094C111.291 126.106 111.386 126.158 111.451 126.239C111.516 126.32 111.546 126.424 111.535 126.527C111.535 126.753 108.875 149.147 105.716 163.491C105.696 163.577 105.647 163.654 105.578 163.708C105.508 163.762 105.422 163.79 105.334 163.788Z" fill="#2C0F6B"/>
<path d="M189.02 163.788C188.939 163.787 188.86 163.761 188.794 163.714C188.729 163.666 188.679 163.6 188.653 163.523C185.394 153.428 183.181 143.026 182.047 132.479C182.042 132.427 182.048 132.376 182.064 132.327C182.08 132.278 182.105 132.233 182.139 132.193C182.172 132.154 182.213 132.122 182.258 132.099C182.304 132.075 182.354 132.061 182.406 132.057C182.507 132.051 182.608 132.084 182.686 132.149C182.765 132.214 182.815 132.307 182.827 132.408C183.955 142.894 186.155 153.237 189.394 163.273C189.411 163.322 189.418 163.374 189.415 163.426C189.412 163.478 189.398 163.529 189.375 163.575C189.351 163.622 189.319 163.663 189.28 163.697C189.24 163.731 189.194 163.756 189.145 163.772L189.02 163.788Z" fill="#2C0F6B"/>
<path d="M186.064 100.569C186.727 100.569 187.265 100.032 187.265 99.3682C187.265 98.7048 186.727 98.167 186.064 98.167C185.4 98.167 184.863 98.7048 184.863 99.3682C184.863 100.032 185.4 100.569 186.064 100.569Z" fill="#2C0F6B"/>
<path d="M186.781 101.248L189.699 97.9326C189.755 97.867 189.829 97.8179 189.911 97.7904C189.994 97.763 190.082 97.7582 190.167 97.7766L191.929 98.1432C192.01 98.1615 192.084 98.2002 192.146 98.2555C192.207 98.3108 192.253 98.3809 192.28 98.4591C192.307 98.5373 192.313 98.621 192.298 98.7023C192.283 98.7835 192.247 98.8596 192.195 98.9232L188.123 103.564C188.067 103.619 187.998 103.658 187.923 103.68C187.848 103.702 187.769 103.706 187.692 103.691C187.615 103.675 187.544 103.642 187.483 103.592C187.422 103.543 187.374 103.48 187.343 103.408L186.727 101.723C186.695 101.646 186.683 101.562 186.692 101.478C186.702 101.395 186.732 101.316 186.781 101.248Z" fill="#74DCB9"/>
<path d="M146.494 61.6391C146.44 61.6399 146.386 61.6293 146.337 61.6077C146.287 61.5862 146.242 61.5544 146.206 61.5143L138.172 52.6145C138.136 52.5789 138.107 52.5364 138.087 52.4895C138.067 52.4427 138.057 52.3923 138.057 52.3415C138.057 52.2906 138.067 52.2403 138.087 52.1934C138.107 52.1465 138.136 52.1041 138.172 52.0685C138.208 52.0319 138.251 52.0029 138.299 51.9831C138.346 51.9633 138.397 51.9531 138.449 51.9531C138.5 51.9531 138.551 51.9633 138.599 51.9831C138.646 52.0029 138.689 52.0319 138.726 52.0685L146.76 60.9683C146.796 61.0039 146.825 61.0463 146.845 61.0932C146.864 61.1401 146.874 61.1904 146.874 61.2413C146.874 61.2921 146.864 61.3425 146.845 61.3893C146.825 61.4362 146.796 61.4787 146.76 61.5143C146.691 61.5888 146.596 61.6336 146.494 61.6391Z" fill="#74DCB9"/>
<path d="M149.724 60.5078C149.632 60.509 149.543 60.4774 149.473 60.4187C149.403 60.3601 149.356 60.2782 149.341 60.188L144.56 35.15C144.542 35.0487 144.564 34.9442 144.623 34.8595C144.681 34.7747 144.771 34.7165 144.872 34.6976C144.973 34.6793 145.078 34.7019 145.162 34.7604C145.247 34.8188 145.305 34.9084 145.324 35.0096L150.075 60.0476C150.093 60.1489 150.07 60.2533 150.012 60.3381C149.953 60.4228 149.864 60.481 149.763 60.5L149.724 60.5078Z" fill="#74DCB9"/>
<path d="M152.75 60.7499C152.701 60.758 152.651 60.758 152.602 60.7499C152.554 60.731 152.511 60.7028 152.474 60.6671C152.437 60.6314 152.408 60.5887 152.388 60.5417C152.367 60.4946 152.356 60.4439 152.356 60.3927C152.355 60.3414 152.364 60.2905 152.383 60.2429L159.029 43.6289C159.048 43.5812 159.076 43.5378 159.112 43.501C159.148 43.4643 159.19 43.4349 159.237 43.4147C159.284 43.3944 159.335 43.3836 159.386 43.3829C159.438 43.3821 159.488 43.3915 159.536 43.4105C159.584 43.4294 159.627 43.4576 159.664 43.4933C159.701 43.529 159.73 43.5717 159.75 43.6187C159.771 43.6658 159.781 43.7164 159.782 43.7677C159.783 43.8189 159.773 43.8698 159.754 43.9175L153.14 60.5081C153.108 60.5837 153.053 60.6476 152.983 60.6909C152.914 60.7342 152.832 60.7548 152.75 60.7499Z" fill="#74DCB9"/>
<path d="M156.026 61.9743C155.971 61.9732 155.918 61.9609 155.868 61.9381C155.818 61.9152 155.774 61.8824 155.737 61.8417C155.701 61.8061 155.672 61.7636 155.653 61.7168C155.633 61.6699 155.623 61.6195 155.623 61.5687C155.623 61.5179 155.633 61.4675 155.653 61.4206C155.672 61.3738 155.701 61.3313 155.737 61.2957L159.754 57.6219C159.792 57.5871 159.837 57.5601 159.885 57.5424C159.933 57.5247 159.985 57.5167 160.036 57.5189C160.088 57.5211 160.138 57.5334 160.185 57.555C160.231 57.5767 160.273 57.6074 160.308 57.6453C160.343 57.6832 160.37 57.7276 160.388 57.7759C160.405 57.8243 160.413 57.8756 160.411 57.927C160.409 57.9785 160.397 58.029 160.375 58.0756C160.353 58.1223 160.323 58.1643 160.285 58.1991L156.26 61.8729C156.195 61.9305 156.113 61.966 156.026 61.9743Z" fill="#74DCB9"/>
<path d="M129.787 163.788C129.727 163.799 129.667 163.799 129.607 163.788C114.678 156.261 120.871 120.685 121.144 119.172C121.163 119.07 121.222 118.981 121.306 118.922C121.391 118.864 121.495 118.841 121.597 118.86C121.647 118.868 121.696 118.887 121.739 118.914C121.782 118.942 121.82 118.978 121.849 119.02C121.878 119.062 121.898 119.11 121.908 119.16C121.919 119.21 121.919 119.262 121.909 119.312C121.846 119.671 115.552 155.824 129.958 163.093C130.005 163.116 130.046 163.147 130.08 163.186C130.114 163.224 130.14 163.269 130.157 163.318C130.173 163.366 130.18 163.417 130.177 163.469C130.174 163.52 130.16 163.57 130.138 163.616C130.099 163.672 130.046 163.718 129.985 163.748C129.923 163.778 129.855 163.792 129.787 163.788Z" fill="#2C0F6B"/>
<path d="M153.585 163.788H153.491C153.441 163.775 153.395 163.753 153.354 163.722C153.313 163.691 153.278 163.652 153.252 163.608C153.226 163.564 153.209 163.515 153.202 163.464C153.194 163.413 153.197 163.362 153.21 163.312C155.971 152.244 169.855 132.689 170.994 131.098V123.189C170.996 123.086 171.038 122.988 171.111 122.915C171.183 122.843 171.281 122.801 171.384 122.799C171.488 122.799 171.587 122.84 171.66 122.913C171.733 122.986 171.774 123.085 171.774 123.189V131.215C171.774 131.296 171.749 131.374 171.704 131.441C171.556 131.644 156.798 152.158 153.967 163.491C153.946 163.577 153.897 163.652 153.827 163.706C153.758 163.76 153.672 163.789 153.585 163.788Z" fill="#2C0F6B"/>
<path d="M169.575 163.64L169.263 163.398L168.982 163.125L183.201 148.43L184.48 147.065C184.517 147.028 184.56 146.999 184.607 146.979C184.655 146.959 184.706 146.949 184.757 146.949C184.809 146.949 184.86 146.959 184.907 146.979C184.955 146.999 184.998 147.028 185.034 147.065C185.071 147.101 185.1 147.144 185.12 147.191C185.139 147.239 185.15 147.29 185.15 147.341C185.15 147.393 185.139 147.444 185.12 147.491C185.1 147.539 185.071 147.582 185.034 147.618L183.747 148.991L169.575 163.64Z" fill="#2C0F6B"/>
</g>
<defs>
<clipPath id="clip0">
<rect width="285.306" height="180" fill="white" transform="translate(0.346924)"/>
</clipPath>
</defs>
</svg>
