<svg width="286" height="180" viewBox="0 0 286 180" fill="none" xmlns="http://www.w3.org/2000/svg">
<g clip-path="url(#clip0)">
<path d="M165.513 49.164H127.557C127.445 49.164 127.337 49.1194 127.257 49.0401C127.178 48.9607 127.133 48.853 127.133 48.7407C127.133 48.6284 127.178 48.5208 127.257 48.4414C127.337 48.362 127.445 48.3174 127.557 48.3174H165.513C165.625 48.3174 165.733 48.362 165.812 48.4414C165.892 48.5208 165.936 48.6284 165.936 48.7407C165.936 48.853 165.892 48.9607 165.812 49.0401C165.733 49.1194 165.625 49.164 165.513 49.164Z" fill="#3F3F3F"/>
<path d="M120.14 49.164H108.287C108.174 49.164 108.067 49.1194 107.987 49.0401C107.908 48.9607 107.863 48.853 107.863 48.7407C107.863 48.6284 107.908 48.5208 107.987 48.4414C108.067 48.362 108.174 48.3174 108.287 48.3174H120.14C120.252 48.3174 120.36 48.362 120.439 48.4414C120.519 48.5208 120.563 48.6284 120.563 48.7407C120.563 48.853 120.519 48.9607 120.439 49.0401C120.36 49.1194 120.252 49.164 120.14 49.164Z" fill="#3F3F3F"/>
<path d="M125.33 49.164H122.375C122.263 49.164 122.155 49.1194 122.076 49.0401C121.996 48.9607 121.952 48.853 121.952 48.7407C121.954 48.6291 121.999 48.5227 122.078 48.4438C122.157 48.3648 122.264 48.3196 122.375 48.3174H125.33C125.442 48.3196 125.548 48.3648 125.627 48.4438C125.706 48.5227 125.751 48.6291 125.753 48.7407C125.753 48.853 125.709 48.9607 125.629 49.0401C125.55 49.1194 125.442 49.164 125.33 49.164Z" fill="#3F3F3F"/>
<path d="M92.2 78.3066H54.227C54.1147 78.3066 54.007 78.262 53.9276 78.1826C53.8483 78.1032 53.8036 77.9956 53.8036 77.8833C53.8036 77.771 53.8483 77.6633 53.9276 77.584C54.007 77.5046 54.1147 77.46 54.227 77.46H92.2C92.3123 77.46 92.4199 77.5046 92.4993 77.584C92.5787 77.6633 92.6233 77.771 92.6233 77.8833C92.6233 77.9956 92.5787 78.1032 92.4993 78.1826C92.4199 78.262 92.3123 78.3066 92.2 78.3066Z" fill="#3F3F3F"/>
<path d="M46.8271 78.3066H35.0161C34.9038 78.3066 34.7962 78.262 34.7168 78.1826C34.6374 78.1032 34.5928 77.9956 34.5928 77.8833C34.5928 77.771 34.6374 77.6633 34.7168 77.584C34.7962 77.5046 34.9038 77.46 35.0161 77.46H46.8271C46.9394 77.46 47.0471 77.5046 47.1264 77.584C47.2058 77.6633 47.2504 77.771 47.2504 77.8833C47.2504 77.9956 47.2058 78.1032 47.1264 78.1826C47.0471 78.262 46.9394 78.3066 46.8271 78.3066Z" fill="#3F3F3F"/>
<path d="M52.0003 78.3066H49.02C48.9077 78.3066 48.8001 78.262 48.7207 78.1826C48.6413 78.1032 48.5967 77.9956 48.5967 77.8833C48.5967 77.771 48.6413 77.6633 48.7207 77.584C48.8001 77.5046 48.9077 77.46 49.02 77.46H51.9664C52.0787 77.46 52.1864 77.5046 52.2658 77.584C52.3451 77.6633 52.3897 77.771 52.3897 77.8833C52.3897 77.9956 52.3451 78.1032 52.2658 78.1826C52.1864 78.262 52.0787 78.3066 51.9664 78.3066H52.0003Z" fill="#3F3F3F"/>
<path d="M243.525 60.1709H207.965C207.853 60.1687 207.747 60.1234 207.668 60.0445C207.589 59.9656 207.544 59.8591 207.541 59.7476C207.541 59.6353 207.586 59.5276 207.665 59.4482C207.745 59.3688 207.852 59.3242 207.965 59.3242H243.525C243.637 59.3242 243.745 59.3688 243.824 59.4482C243.903 59.5276 243.948 59.6353 243.948 59.7476C243.948 59.8598 243.903 59.9675 243.824 60.0469C243.745 60.1263 243.637 60.1709 243.525 60.1709Z" fill="#3F3F3F"/>
<path d="M200.573 60.1709H188.83C188.718 60.1709 188.61 60.1263 188.531 60.0469C188.451 59.9675 188.407 59.8598 188.407 59.7476C188.407 59.6353 188.451 59.5276 188.531 59.4482C188.61 59.3688 188.718 59.3242 188.83 59.3242H200.573C200.686 59.3242 200.793 59.3688 200.873 59.4482C200.952 59.5276 200.997 59.6353 200.997 59.7476C200.997 59.8598 200.952 59.9675 200.873 60.0469C200.793 60.1263 200.686 60.1709 200.573 60.1709Z" fill="#3F3F3F"/>
<path d="M205.738 60.1709H202.792C202.679 60.1709 202.572 60.1263 202.492 60.0469C202.413 59.9675 202.368 59.8598 202.368 59.7476C202.368 59.6353 202.413 59.5276 202.492 59.4482C202.572 59.3688 202.679 59.3242 202.792 59.3242H205.738C205.85 59.3242 205.958 59.3688 206.037 59.4482C206.117 59.5276 206.161 59.6353 206.161 59.7476C206.161 59.8598 206.117 59.9675 206.037 60.0469C205.958 60.1263 205.85 60.1709 205.738 60.1709Z" fill="#3F3F3F"/>
<path d="M145.887 120.259L141.163 115.179L139.69 121.622C139.69 121.622 135.609 121.208 130.376 117.304C127.244 114.915 125.044 111.507 124.153 107.669L125.508 107.271C129.741 117.584 138.453 118.964 138.453 118.964L140.147 111.344L145.65 117.719C145.65 117.719 146.497 117.093 147.961 114.333C148.579 113.082 148.92 111.713 148.961 110.319C149.271 113.907 148.168 117.473 145.887 120.259Z" fill="#E6E2EE"/>
<path d="M206.906 159.129C197.906 166.809 177.273 151.569 172.235 147.632L170.178 128.751C170.178 128.751 183.835 150.392 198.118 153.575C212.401 156.759 212.096 142.873 212.808 132.341C214.222 141.908 214.416 152.737 206.906 159.129Z" fill="#E6E2EE"/>
<path d="M116.228 154.456C114.213 163.134 109.066 178.036 98.1266 176.275C88.0598 174.649 80.2366 162.635 78.1114 147.107C75.9863 131.579 76.8584 127.735 73.8781 122.731C74.0898 122.833 77.5442 124.628 79.373 133.637C81.261 142.95 86.1463 165.505 96.2216 170.17C97.915 170.949 102.995 170.34 104.18 165.996C106.229 158.757 102.326 150.68 102.326 150.68L112.097 152.83L111.03 140.554L116.228 154.456Z" fill="#E6E2EE"/>
<path d="M110.928 139.597C110.928 139.597 124.56 171.77 147.716 177.908H114.086L110.928 139.597Z" fill="#E6E2EE"/>
<path d="M143.042 99.4477C140.155 99.4477 137.649 98.0253 136.896 96.6453C136.869 96.5963 136.852 96.5427 136.846 96.4872C136.84 96.4318 136.845 96.3758 136.861 96.3223C136.877 96.2689 136.903 96.219 136.938 96.1757C136.973 96.1323 137.016 96.0962 137.065 96.0695C137.114 96.0429 137.167 96.0261 137.223 96.0201C137.278 96.0142 137.334 96.0192 137.388 96.035C137.441 96.0507 137.491 96.0768 137.534 96.1118C137.578 96.1468 137.614 96.19 137.641 96.2389C138.267 97.3819 140.579 98.6011 143.042 98.6011C145.007 98.6011 147.741 97.8645 149.629 94.3677C152.83 88.4411 150.417 77.0619 150.391 76.9433C150.38 76.8877 150.379 76.8304 150.39 76.7746C150.4 76.7187 150.421 76.6655 150.453 76.618C150.484 76.5704 150.524 76.5294 150.571 76.4974C150.617 76.4653 150.67 76.4428 150.726 76.4311C150.781 76.4194 150.839 76.4188 150.895 76.4293C150.95 76.4398 151.004 76.4612 151.051 76.4922C151.099 76.5233 151.14 76.5634 151.172 76.6103C151.204 76.6572 151.226 76.7099 151.238 76.7655C151.348 77.2481 153.778 88.6189 150.391 94.7657C149.73 96.1489 148.694 97.3187 147.401 98.142C146.108 98.9653 144.609 99.4089 143.076 99.4223L143.042 99.4477Z" fill="#2C0F6B"/>
<path d="M144.024 90.6506C143.969 90.6545 143.913 90.6474 143.86 90.6297C143.807 90.612 143.758 90.5841 143.716 90.5475C143.631 90.4737 143.579 90.3691 143.571 90.2569C143.564 90.1446 143.601 90.0338 143.675 89.9488C143.748 89.8639 143.853 89.8118 143.965 89.8039C144.236 89.7616 144.295 89.6684 144.321 89.6346C144.524 89.3298 144.321 88.4577 144.084 87.6957L143.931 87.1115C143.696 86.1116 143.534 85.0957 143.449 84.072C143.442 83.9579 143.479 83.8455 143.553 83.7586C143.628 83.6717 143.733 83.6171 143.847 83.6063C143.96 83.5993 144.071 83.6371 144.157 83.7116C144.242 83.786 144.295 83.8911 144.304 84.0042C144.383 84.9795 144.536 85.9474 144.761 86.8998L144.913 87.4671C145.201 88.5424 145.447 89.4652 145.032 90.0918C144.925 90.2459 144.785 90.3744 144.623 90.4681C144.46 90.5618 144.279 90.6183 144.092 90.6336L144.024 90.6506Z" fill="#2C0F6B"/>
<path d="M136.675 81.9129C136.598 81.9146 136.521 81.894 136.455 81.8537C136.408 81.8258 136.366 81.7886 136.333 81.7444C136.299 81.7001 136.275 81.6497 136.262 81.5961C136.249 81.5425 136.246 81.4867 136.255 81.432C136.263 81.3774 136.282 81.325 136.311 81.2779C136.714 80.5467 137.349 79.9707 138.115 79.641C138.882 79.3113 139.737 79.2467 140.545 79.4576C140.598 79.4732 140.648 79.4991 140.691 79.5339C140.734 79.5687 140.771 79.6117 140.797 79.6604C140.824 79.7092 140.841 79.7627 140.847 79.818C140.853 79.8732 140.848 79.9292 140.833 79.9825C140.817 80.0368 140.791 80.0875 140.755 80.1315C140.72 80.1756 140.676 80.2121 140.626 80.2389C140.577 80.2657 140.522 80.2823 140.466 80.2877C140.41 80.2931 140.353 80.2872 140.299 80.2704C139.672 80.112 139.01 80.1676 138.418 80.4284C137.826 80.6891 137.338 81.1401 137.031 81.7097C136.994 81.7709 136.942 81.8217 136.879 81.8572C136.817 81.8927 136.747 81.9119 136.675 81.9129Z" fill="#2C0F6B"/>
<path d="M149.392 80.9148C149.329 80.9151 149.266 80.9008 149.208 80.8729C149.151 80.845 149.101 80.8043 149.062 80.7539C148.77 80.3509 148.358 80.0514 147.884 79.8992C147.411 79.7469 146.901 79.7497 146.429 79.9072C146.376 79.9322 146.319 79.9461 146.261 79.948C146.203 79.9499 146.145 79.9397 146.091 79.9182C146.037 79.8966 145.988 79.8642 145.947 79.8228C145.906 79.7814 145.874 79.732 145.853 79.6777C145.831 79.6234 145.822 79.5653 145.824 79.5071C145.827 79.4489 145.841 79.3919 145.867 79.3395C145.892 79.2872 145.928 79.2406 145.973 79.2028C146.017 79.165 146.068 79.1368 146.124 79.1198C146.77 78.8905 147.473 78.8736 148.129 79.0716C148.786 79.2696 149.362 79.6722 149.773 80.2205C149.842 80.3093 149.872 80.4215 149.858 80.5326C149.843 80.6437 149.786 80.7446 149.697 80.8132C149.657 80.8513 149.609 80.8801 149.556 80.8977C149.503 80.9152 149.447 80.9211 149.392 80.9148Z" fill="#2C0F6B"/>
<path d="M139.249 86.3158C139.14 86.3159 139.035 86.2736 138.956 86.1978C138.877 86.1221 138.83 86.0187 138.826 85.9094L138.724 83.1493C138.722 83.0937 138.731 83.0381 138.75 82.9859C138.769 82.9337 138.799 82.8857 138.836 82.8449C138.874 82.804 138.919 82.7709 138.97 82.7476C139.021 82.7243 139.075 82.7112 139.131 82.709C139.24 82.7109 139.344 82.7539 139.422 82.8292C139.501 82.9046 139.548 83.0068 139.554 83.1154L139.656 85.8755C139.658 85.9318 139.649 85.988 139.629 86.0408C139.61 86.0935 139.579 86.1419 139.541 86.1829C139.502 86.2239 139.456 86.2567 139.404 86.2796C139.353 86.3024 139.297 86.3147 139.241 86.3158H139.249Z" fill="#2C0F6B"/>
<path d="M147.36 85.5374C147.251 85.5375 147.146 85.4952 147.067 85.4195C146.988 85.3437 146.941 85.2403 146.937 85.131L146.835 82.5148C146.833 82.4592 146.842 82.4037 146.861 82.3515C146.88 82.2992 146.91 82.2513 146.947 82.2104C146.985 82.1695 147.031 82.1365 147.081 82.1132C147.132 82.0898 147.186 82.0767 147.242 82.0745C147.298 82.0685 147.355 82.0746 147.409 82.0924C147.463 82.1102 147.513 82.1393 147.554 82.1778C147.596 82.2163 147.629 82.2632 147.651 82.3155C147.673 82.3678 147.684 82.4242 147.682 82.4809L147.784 85.0971C147.786 85.1534 147.777 85.2096 147.757 85.2624C147.738 85.3152 147.707 85.3635 147.669 85.4045C147.63 85.4455 147.584 85.4784 147.532 85.5012C147.481 85.524 147.425 85.5363 147.369 85.5374H147.36Z" fill="#2C0F6B"/>
<path d="M143.237 93.7668C142.577 93.7708 141.927 93.6007 141.353 93.2737C140.78 92.9467 140.302 92.4743 139.969 91.9042C139.935 91.8575 139.912 91.8045 139.899 91.7484C139.887 91.6923 139.886 91.6343 139.897 91.5778C139.907 91.5213 139.929 91.4676 139.962 91.42C139.994 91.3723 140.035 91.3317 140.084 91.3006C140.132 91.2696 140.186 91.2486 140.243 91.2392C140.299 91.2297 140.357 91.2319 140.413 91.2456C140.469 91.2593 140.522 91.2842 140.567 91.3188C140.613 91.3534 140.652 91.397 140.68 91.447C141.016 92.0374 141.547 92.4923 142.182 92.7334C142.818 92.9745 143.517 92.9866 144.16 92.7678C144.265 92.7297 144.382 92.735 144.483 92.7826C144.585 92.8302 144.664 92.9163 144.702 93.0218C144.722 93.0734 144.732 93.1286 144.73 93.184C144.729 93.2395 144.716 93.294 144.694 93.3446C144.671 93.3951 144.638 93.4405 144.597 93.4781C144.556 93.5158 144.508 93.5448 144.456 93.5636C144.064 93.6994 143.652 93.7681 143.237 93.7668Z" fill="#2C0F6B"/>
<path d="M131.629 99.185C128.598 101.522 124.289 100.701 121.723 99.185C120.332 98.3832 119.23 97.1623 118.574 95.6968C126.769 96.7212 121.825 82.8613 126.058 74.3608C128.183 70.1274 132.332 66.4021 139.385 66.546C153.228 66.8424 151.526 78.6872 151.526 78.6872C146.895 78.3565 142.518 76.4433 139.131 73.2686C139.131 73.2686 130.943 76.5875 131.147 85.2997C131.435 94.6808 131.629 99.185 131.629 99.185Z" fill="#2C0F6B"/>
<path d="M144.998 106.696C144.889 106.696 144.784 106.654 144.705 106.578C144.626 106.502 144.579 106.399 144.575 106.289L144.329 99.025C144.328 98.9694 144.338 98.9141 144.358 98.8623C144.378 98.8105 144.409 98.7632 144.447 98.7231C144.486 98.683 144.532 98.6509 144.583 98.6286C144.634 98.6063 144.689 98.5943 144.744 98.5932C144.8 98.587 144.857 98.593 144.91 98.6109C144.964 98.6288 145.013 98.658 145.054 98.6967C145.095 98.7353 145.127 98.7824 145.148 98.8347C145.169 98.887 145.179 98.9433 145.176 98.9996L145.421 106.256C145.424 106.311 145.415 106.367 145.396 106.419C145.377 106.471 145.347 106.519 145.31 106.56C145.272 106.601 145.226 106.634 145.176 106.657C145.125 106.68 145.071 106.694 145.015 106.696H144.998Z" fill="#2C0F6B"/>
<path d="M197.102 134.407C196.996 134.408 196.893 134.368 196.814 134.297L175.783 115.162C171.666 111.33 166.807 108.381 161.507 106.499C156.206 104.616 150.577 103.839 144.964 104.215C144.852 104.229 144.739 104.199 144.649 104.13C144.559 104.061 144.501 103.959 144.486 103.847C144.471 103.734 144.502 103.621 144.571 103.531C144.64 103.441 144.742 103.383 144.854 103.368C150.587 102.983 156.339 103.773 161.756 105.689C167.173 107.605 172.142 110.607 176.359 114.51L197.381 133.645C197.444 133.702 197.489 133.777 197.508 133.86C197.528 133.942 197.523 134.029 197.493 134.108C197.462 134.188 197.409 134.256 197.339 134.305C197.27 134.354 197.187 134.38 197.102 134.382V134.407Z" fill="#2C0F6B"/>
<path d="M99.2527 144.211H99.1935C99.138 144.205 99.0844 144.188 99.0358 144.16C98.9871 144.133 98.9446 144.096 98.9106 144.051C98.8766 144.007 98.8519 143.957 98.8379 143.902C98.824 143.848 98.8211 143.792 98.8294 143.737C98.9395 142.89 101.632 123.417 109.328 115.797C117.024 108.177 128.801 105.908 131.011 105.552L130.766 98.7789C130.763 98.7233 130.772 98.6678 130.791 98.6156C130.811 98.5634 130.84 98.5154 130.878 98.4745C130.915 98.4336 130.961 98.4006 131.011 98.3773C131.062 98.354 131.116 98.3408 131.172 98.3387C131.229 98.3352 131.285 98.3434 131.339 98.3627C131.392 98.3819 131.441 98.412 131.482 98.4508C131.523 98.4897 131.556 98.5366 131.579 98.5887C131.601 98.6407 131.612 98.6969 131.612 98.7535L131.875 105.933C131.88 106.039 131.844 106.143 131.774 106.223C131.705 106.304 131.608 106.354 131.502 106.365C131.375 106.365 118.337 108.126 109.929 116.432C102.428 123.84 99.693 143.695 99.6676 143.898C99.6431 143.989 99.5891 144.069 99.5139 144.126C99.4388 144.182 99.3469 144.212 99.2527 144.211Z" fill="#2C0F6B"/>
<path d="M128.353 82.8273C128.322 82.8348 128.29 82.8348 128.26 82.8273C128.192 82.8273 121.85 79.5337 123.18 73.9796C124.39 68.9927 129.953 68.3662 129.953 68.3662C129.981 68.3614 130.01 68.3625 130.037 68.3695C130.065 68.3765 130.09 68.3891 130.113 68.4067C130.135 68.4243 130.153 68.4463 130.167 68.4714C130.18 68.4965 130.188 68.5241 130.19 68.5525C130.192 68.5803 130.189 68.6083 130.18 68.6349C130.172 68.6614 130.158 68.686 130.14 68.7073C130.122 68.7285 130.1 68.746 130.075 68.7587C130.05 68.7713 130.023 68.7789 129.995 68.7811C129.944 68.7811 124.712 69.3822 123.569 74.0812C122.307 79.3051 128.353 82.4209 128.412 82.4463C128.438 82.4581 128.461 82.475 128.48 82.496C128.5 82.517 128.515 82.5417 128.524 82.5686C128.534 82.5955 128.537 82.624 128.536 82.6524C128.534 82.6809 128.526 82.7087 128.514 82.7341C128.495 82.7601 128.471 82.7817 128.443 82.7978C128.415 82.8138 128.384 82.8239 128.353 82.8273Z" fill="#74DCB9"/>
<path d="M127.84 85.922C129.569 85.8586 130.909 84.1025 130.831 81.9997C130.754 79.8969 129.29 78.2437 127.561 78.3071C125.832 78.3705 124.493 80.1265 124.57 82.2293C124.647 84.3321 126.111 85.9854 127.84 85.922Z" fill="#74DCB9"/>
<path d="M133.78 91.5228C133.752 91.53 133.723 91.53 133.695 91.5228C127.768 89.1776 127.133 81.964 127.125 81.8962C127.125 81.8401 127.147 81.7863 127.187 81.7466C127.227 81.7069 127.281 81.6846 127.337 81.6846C127.393 81.6846 127.447 81.7069 127.486 81.7466C127.526 81.7863 127.548 81.8401 127.548 81.8962C127.548 81.964 128.183 88.9236 133.856 91.2096C133.9 91.2284 133.937 91.2619 133.96 91.3044C133.983 91.347 133.99 91.396 133.981 91.4434C133.972 91.4908 133.948 91.5338 133.911 91.5652C133.874 91.5966 133.828 91.6145 133.78 91.616V91.5228Z" fill="#74DCB9"/>
<path d="M137.2 92.434C137.605 91.5597 137 90.4197 135.85 89.8876C134.7 89.3554 133.44 89.6327 133.035 90.5069C132.631 91.3812 133.235 92.5212 134.385 93.0533C135.535 93.5855 136.796 93.3082 137.2 92.434Z" fill="#74DCB9"/>
<path d="M114.408 178.332C114.303 178.333 114.201 178.294 114.123 178.224C114.044 178.153 113.995 178.056 113.985 177.951C111.182 148.513 110.446 138.81 110.437 138.717C110.433 138.661 110.44 138.605 110.458 138.552C110.476 138.5 110.504 138.451 110.54 138.409C110.614 138.324 110.719 138.272 110.831 138.264C110.943 138.256 111.054 138.293 111.139 138.367C111.224 138.441 111.276 138.545 111.284 138.657C111.284 138.751 112.029 148.445 114.831 177.867C114.841 177.979 114.806 178.09 114.735 178.177C114.664 178.264 114.562 178.319 114.45 178.332H114.408Z" fill="#2C0F6B"/>
<path d="M175.36 177.586C175.257 177.587 175.157 177.549 175.08 177.48C175.004 177.411 174.955 177.316 174.945 177.214C174.894 176.748 170.127 131.079 169.348 125.398C169.336 125.287 169.367 125.176 169.435 125.087C169.503 124.999 169.602 124.94 169.712 124.924C169.768 124.915 169.824 124.918 169.878 124.932C169.932 124.946 169.983 124.971 170.027 125.005C170.071 125.039 170.108 125.081 170.136 125.13C170.163 125.179 170.18 125.232 170.187 125.288C170.965 130.977 175.732 176.663 175.783 177.121C175.789 177.176 175.784 177.232 175.768 177.286C175.752 177.34 175.725 177.39 175.69 177.433C175.654 177.476 175.611 177.512 175.561 177.538C175.512 177.565 175.458 177.581 175.402 177.586H175.36Z" fill="#2C0F6B"/>
<path d="M200.446 161.687C190.447 161.687 176.74 151.671 171.973 147.962C171.892 147.891 171.841 147.792 171.83 147.685C171.82 147.577 171.851 147.47 171.917 147.385C171.983 147.3 172.079 147.243 172.185 147.226C172.291 147.209 172.4 147.233 172.489 147.293C176.638 150.545 197.779 166.352 206.627 158.8C214.247 152.339 213.705 141.316 212.401 132.426C212.397 132.398 212.397 132.369 212.401 132.341C212.029 129.801 211.555 127.261 211.131 125.034C210.285 120.335 209.54 116.619 210.022 114.485C211.665 107.161 212.444 98.5338 210.632 96.9505C210.508 96.8409 210.357 96.7666 210.195 96.7353C210.032 96.7041 209.865 96.717 209.709 96.7727C209.23 98.5637 208.893 100.39 208.701 102.234C208.74 102.302 208.795 102.358 208.862 102.398C208.928 102.439 209.004 102.461 209.082 102.462C209.26 102.462 209.497 102.2 209.65 101.556C209.946 100.278 210.361 98.2967 210.361 98.2967L211.207 98.4745C211.207 98.4745 210.784 100.456 210.488 101.751C210.191 103.047 209.548 103.267 209.184 103.301C208.922 103.317 208.661 103.253 208.437 103.117C208.213 102.981 208.036 102.779 207.931 102.539C207.736 102.124 208.075 100.041 208.938 96.3494C208.953 96.2817 208.985 96.219 209.031 96.1671C209.077 96.1152 209.135 96.076 209.201 96.053C209.524 95.9024 209.883 95.8478 210.236 95.8959C210.588 95.9439 210.92 96.0925 211.191 96.324C214.315 99.0587 210.987 114.036 210.843 114.68C210.403 116.644 211.123 120.462 211.961 124.891C212.384 127.134 212.867 129.683 213.248 132.273C214.586 141.384 215.102 152.695 207.194 159.426C205.296 160.977 202.896 161.781 200.446 161.687Z" fill="#2C0F6B"/>
<path d="M206.864 102.885C206.509 102.886 206.168 102.746 205.916 102.496C205.693 102.257 205.535 101.965 205.458 101.648C205.38 101.33 205.387 100.998 205.476 100.684C205.526 100.481 205.603 100.058 205.696 99.4988C206.348 95.5618 206.881 93.3689 207.778 93.0726C208.061 92.9652 208.367 92.9352 208.664 92.9859C208.962 93.0365 209.241 93.1658 209.472 93.3604C210.064 93.9192 210.175 94.9437 209.785 96.383C209.771 96.437 209.747 96.4877 209.713 96.5323C209.68 96.5768 209.638 96.6143 209.59 96.6427C209.542 96.671 209.489 96.6895 209.434 96.6973C209.379 96.705 209.323 96.7018 209.269 96.6878C209.159 96.658 209.065 96.5862 209.008 96.488C208.951 96.3897 208.935 96.2729 208.964 96.1629C209.252 95.0876 209.226 94.2918 208.888 93.97C208.765 93.8856 208.624 93.8329 208.476 93.8166C208.328 93.8004 208.179 93.8211 208.041 93.8769C207.643 94.0886 207.127 96.0359 206.525 99.6427C206.432 100.218 206.356 100.676 206.297 100.887C206.246 101.058 206.24 101.239 206.276 101.414C206.313 101.588 206.393 101.75 206.508 101.886C206.575 101.952 206.658 101.999 206.749 102.021C206.84 102.044 206.935 102.041 207.025 102.013C207.397 101.912 207.872 100.684 208.066 99.6427C208.087 99.5329 208.15 99.4356 208.242 99.3722C208.334 99.3087 208.447 99.2842 208.557 99.304C208.667 99.3246 208.764 99.3878 208.828 99.4798C208.891 99.5718 208.916 99.6851 208.896 99.7951C208.778 100.439 208.303 102.547 207.203 102.826C207.093 102.859 206.979 102.879 206.864 102.885Z" fill="#2C0F6B"/>
<path d="M204.714 102.335C204.332 102.324 203.967 102.18 203.681 101.929C202.834 101.201 203.537 97.069 203.774 96.0022C204.476 92.861 205.281 92.6155 205.543 92.6155C205.781 92.5371 206.033 92.5094 206.282 92.5342C206.532 92.559 206.773 92.6357 206.991 92.7594C207.409 93.0298 207.711 93.4465 207.838 93.9278C207.852 93.9818 207.855 94.0379 207.847 94.0931C207.839 94.1483 207.821 94.2014 207.793 94.2493C207.764 94.2973 207.727 94.3392 207.682 94.3727C207.638 94.4062 207.587 94.4305 207.533 94.4443C207.424 94.4703 207.309 94.453 207.213 94.3962C207.117 94.3393 207.046 94.2473 207.016 94.1395C206.988 94.0035 206.931 93.8751 206.849 93.7631C206.767 93.6511 206.662 93.5582 206.54 93.4907C206.419 93.4232 206.284 93.3827 206.146 93.3719C206.008 93.3611 205.868 93.3804 205.738 93.4283C205.636 93.4283 205.357 93.7331 205.044 94.5882C204.155 96.9928 203.909 100.879 204.197 101.362C204.277 101.438 204.375 101.492 204.481 101.521C204.588 101.549 204.7 101.549 204.807 101.522C204.943 101.477 205.068 101.4 205.171 101.299C205.273 101.198 205.351 101.074 205.399 100.938C205.438 100.833 205.516 100.746 205.617 100.697C205.718 100.648 205.834 100.64 205.941 100.676C206.047 100.714 206.133 100.792 206.182 100.893C206.231 100.995 206.239 101.111 206.204 101.218C206.109 101.483 205.955 101.723 205.752 101.918C205.549 102.113 205.304 102.259 205.035 102.344C204.928 102.353 204.82 102.35 204.714 102.335Z" fill="#2C0F6B"/>
<path d="M201.098 103.368H200.997C200.943 103.354 200.892 103.33 200.847 103.297C200.803 103.263 200.765 103.221 200.737 103.173C200.709 103.125 200.69 103.072 200.682 103.017C200.675 102.962 200.678 102.906 200.692 102.852C201.539 99.5413 201.318 95.2318 201.141 92.0907C201.064 90.8969 201.005 89.8555 201.022 89.1019C201.022 87.4086 201.31 86.5619 201.869 86.1301C202.092 86.0031 202.342 85.9287 202.599 85.9125C202.856 85.8964 203.113 85.9389 203.35 86.037C204.781 86.4942 205.044 92.1076 205.044 94.5036C205.045 94.5588 205.035 94.6137 205.015 94.665C204.994 94.7163 204.964 94.7631 204.925 94.8025C204.887 94.8419 204.841 94.8732 204.79 94.8946C204.739 94.916 204.684 94.927 204.629 94.927C204.517 94.9271 204.41 94.8839 204.329 94.8066C204.249 94.7292 204.201 94.6237 204.197 94.5121C204.138 90.6767 203.613 87.0953 203.079 86.8498C202.546 86.6043 202.428 86.7651 202.343 86.8498C202.258 86.9345 201.886 87.5102 201.852 89.1442C201.852 89.8639 201.894 90.8884 201.962 92.0653C202.148 95.2741 202.402 99.6853 201.496 103.072C201.469 103.157 201.417 103.231 201.345 103.284C201.274 103.338 201.187 103.367 201.098 103.368Z" fill="#2C0F6B"/>
<path d="M194.791 146.869C194.683 146.87 194.58 146.828 194.503 146.754C194.426 146.68 194.38 146.579 194.376 146.472C194.079 141.815 195.739 136.591 197.5 131.071C197.856 129.962 198.211 128.835 198.558 127.684C200.565 121.114 201.539 112.385 199.777 109.845C199.303 109.167 198.812 108.558 198.33 107.974C196.958 106.28 195.79 104.849 196.459 102.97C196.732 102.063 196.942 101.138 197.085 100.201C197.508 97.8305 197.813 96.3573 198.668 96.061C198.852 96.0045 199.048 96.0007 199.233 96.0501C199.419 96.0995 199.587 96.2001 199.718 96.3404C201.285 97.7035 200.269 100.862 199.845 101.979L200.76 102.487C202.072 103.207 203.867 106.297 204.062 106.644C204.09 106.692 204.109 106.745 204.117 106.8C204.125 106.855 204.121 106.911 204.107 106.964C204.093 107.018 204.068 107.068 204.034 107.112C204 107.156 203.958 107.193 203.909 107.22C203.811 107.276 203.695 107.291 203.586 107.263C203.477 107.234 203.383 107.164 203.325 107.068C202.817 106.17 201.293 103.74 200.353 103.224L199.109 102.538C199.015 102.487 198.944 102.404 198.91 102.303C198.875 102.203 198.88 102.093 198.922 101.996C199.38 100.938 200.311 97.9745 199.159 96.9839C199.041 96.8738 198.965 96.8484 198.948 96.8569C198.516 97.0093 198.101 99.1005 197.915 100.345C197.772 101.332 197.551 102.306 197.254 103.258C196.738 104.68 197.678 105.84 198.948 107.44C199.43 108.033 199.938 108.659 200.429 109.362C202.394 112.19 201.386 121.215 199.329 127.93C198.982 129.064 198.618 130.199 198.27 131.316C196.535 136.769 194.884 141.916 195.172 146.412C195.176 146.467 195.17 146.523 195.153 146.576C195.135 146.628 195.108 146.677 195.071 146.719C195.035 146.761 194.991 146.795 194.941 146.819C194.891 146.844 194.837 146.858 194.782 146.861L194.791 146.869Z" fill="#2C0F6B"/>
<path d="M172.159 144.897C172.078 144.898 171.998 144.875 171.931 144.829C171.836 144.769 171.77 144.673 171.746 144.563C171.723 144.454 171.743 144.339 171.804 144.245L185.333 123.324C185.362 123.274 185.4 123.23 185.446 123.196C185.492 123.161 185.544 123.136 185.6 123.123C185.656 123.109 185.714 123.107 185.771 123.116C185.827 123.126 185.882 123.147 185.93 123.178C185.978 123.209 186.02 123.249 186.052 123.297C186.084 123.345 186.106 123.398 186.117 123.455C186.128 123.511 186.127 123.569 186.114 123.625C186.102 123.682 186.078 123.734 186.045 123.781L172.54 144.702C172.501 144.767 172.445 144.819 172.377 144.854C172.31 144.888 172.235 144.903 172.159 144.897Z" fill="#2C0F6B"/>
<path d="M99.9385 176.842C99.3062 176.84 98.6749 176.789 98.0505 176.69C88.0683 175.047 79.8895 163.194 77.6881 147.175C76.9769 142.002 76.6044 138.149 76.2996 135.059C75.7154 129.005 75.4529 126.228 73.5141 122.985L73.3109 122.647C70.4999 117.956 70.2036 117.465 69.9665 113.833C69.714 111.908 69.1627 110.034 68.3325 108.279C67.6636 106.653 67.1387 105.375 67.3503 104.554C67.562 103.732 68.0107 103.495 68.3409 103.461C69.34 103.36 70.1359 104.757 70.4407 105.358C71.2365 106.958 73.3193 112.021 73.4125 112.241C73.4524 112.345 73.4509 112.46 73.4083 112.562C73.3658 112.665 73.2854 112.747 73.1839 112.792C73.0791 112.832 72.963 112.831 72.8591 112.788C72.7553 112.746 72.6715 112.665 72.6251 112.563C72.6251 112.504 70.4661 107.305 69.6871 105.739C69.1199 104.63 68.5611 104.283 68.4256 104.308C68.2901 104.333 68.2478 104.46 68.1716 104.765C68.0361 105.307 68.5611 106.594 69.1114 107.957C69.9781 109.795 70.5495 111.758 70.8047 113.774C71.0333 117.16 71.2619 117.584 74.0305 122.24L74.2168 122.545V122.588C76.2657 125.974 76.5451 128.836 77.1463 135.034C77.4426 138.124 77.8151 141.959 78.5263 147.124C80.6769 162.787 88.5763 174.361 98.1859 175.911C108.634 177.604 112.622 163.795 112.664 163.651C112.694 163.539 112.768 163.443 112.869 163.385C112.97 163.327 113.089 163.312 113.202 163.342C113.314 163.372 113.409 163.446 113.467 163.547C113.525 163.647 113.541 163.767 113.511 163.879C113.443 163.964 109.709 176.842 99.9385 176.842Z" fill="#2C0F6B"/>
<path d="M75.3513 111.834C75.2677 111.834 75.1862 111.809 75.1168 111.762C75.0475 111.715 74.9936 111.649 74.9619 111.572C74.8349 111.275 71.9223 104.231 71.4567 102.961C70.7116 100.921 69.6787 99.2104 69.1537 99.1512C69.0775 99.1512 69.0013 99.202 68.9167 99.329C68.2224 100.337 69.2299 103.131 70.0173 104.646C70.0481 104.695 70.0684 104.75 70.0771 104.808C70.0857 104.865 70.0825 104.924 70.0675 104.98C70.0526 105.036 70.0262 105.088 69.9902 105.134C69.9541 105.179 69.9091 105.217 69.8579 105.244C69.8067 105.271 69.7504 105.288 69.6926 105.293C69.6347 105.297 69.5765 105.29 69.5216 105.271C69.4667 105.252 69.4162 105.223 69.3733 105.183C69.3304 105.144 69.296 105.097 69.2722 105.044C69.0352 104.595 67.0116 100.607 68.2139 98.8548C68.3151 98.6717 68.4676 98.5221 68.6526 98.4244C68.8375 98.3266 69.047 98.285 69.2553 98.3045C70.61 98.4823 71.8885 101.691 72.2441 102.665C72.7097 103.926 75.7154 111.174 75.7408 111.25C75.7628 111.301 75.7744 111.356 75.7748 111.412C75.7751 111.467 75.7643 111.522 75.743 111.574C75.7217 111.625 75.6903 111.671 75.6506 111.71C75.611 111.749 75.5639 111.78 75.5122 111.8C75.462 111.824 75.4069 111.836 75.3513 111.834Z" fill="#2C0F6B"/>
<path d="M78.0607 110.7C77.9728 110.7 77.8871 110.673 77.8147 110.623C77.7422 110.573 77.6864 110.503 77.6543 110.421C75.9609 105.603 72.7182 97.7209 71.245 97.1367C71.245 97.1367 71.1773 97.1367 71.1603 97.1367C70.0004 97.6955 71.1603 100.21 71.1603 100.236C71.1844 100.285 71.1983 100.34 71.2011 100.395C71.2039 100.45 71.1956 100.506 71.1767 100.558C71.1577 100.61 71.1286 100.658 71.0908 100.698C71.0531 100.739 71.0077 100.772 70.9571 100.794C70.9066 100.819 70.8518 100.833 70.7958 100.836C70.7398 100.838 70.6838 100.83 70.631 100.811C70.5782 100.792 70.5298 100.763 70.4884 100.725C70.447 100.688 70.4135 100.642 70.3899 100.591C70.3306 100.456 68.8743 97.3061 70.7963 96.3578C70.9184 96.3016 71.0513 96.2725 71.1857 96.2725C71.3202 96.2725 71.4531 96.3016 71.5752 96.3578C73.8781 97.3061 78.0014 108.829 78.4671 110.142C78.5025 110.248 78.4949 110.365 78.4458 110.466C78.3968 110.567 78.3103 110.645 78.2046 110.683C78.1581 110.698 78.1093 110.704 78.0607 110.7Z" fill="#2C0F6B"/>
<path d="M81.9045 112.393C81.8175 112.393 81.7326 112.366 81.6614 112.316C81.5902 112.266 81.5362 112.196 81.5066 112.114C78.9666 105.07 75.6392 97.4158 74.5639 97.3312C74.4423 97.3474 74.3261 97.3918 74.2247 97.4609C74.1232 97.53 74.0394 97.6218 73.9797 97.7291C73.7844 98.4325 73.8444 99.1823 74.1491 99.8458C74.1917 99.9502 74.1912 100.067 74.1475 100.171C74.1038 100.275 74.0206 100.358 73.9162 100.4C73.8118 100.443 73.6947 100.442 73.5907 100.399C73.4867 100.355 73.4043 100.272 73.3617 100.167C73.2855 99.9897 72.6674 98.398 73.2347 97.3312C73.3498 97.1069 73.5165 96.9133 73.7211 96.7661C73.9257 96.6189 74.1623 96.5224 74.4115 96.4845C76.452 96.0442 80.6176 107.059 82.3025 111.809C82.3406 111.915 82.3352 112.031 82.2876 112.133C82.24 112.234 82.154 112.313 82.0485 112.351L81.9045 112.393Z" fill="#2C0F6B"/>
<path d="M104.273 157.588C104.178 157.587 104.087 157.553 104.013 157.493C103.939 157.434 103.888 157.351 103.867 157.258C101.005 144.829 92.7927 133.484 88.3731 127.388C87.4793 126.218 86.6511 125 85.8923 123.738C84.6393 121.266 84.7409 114.425 84.8001 110.344C84.8001 109.396 84.8001 108.651 84.8001 108.202C84.8001 107.101 84.5038 106.847 84.4276 106.797C84.3863 106.783 84.3418 106.783 84.3006 106.797C82.6072 107.279 82.548 110.598 82.675 111.877C82.6819 111.975 82.6582 112.072 82.6072 112.156C81.9084 113.23 81.429 114.431 81.1965 115.691C80.964 116.951 80.983 118.244 81.2526 119.497C81.268 119.551 81.2725 119.607 81.2659 119.663C81.2594 119.718 81.2418 119.772 81.2142 119.821C81.1866 119.87 81.1496 119.913 81.1053 119.947C81.0611 119.982 81.0104 120.007 80.9562 120.022C80.8485 120.05 80.7338 120.035 80.6371 119.98C80.5404 119.924 80.4695 119.833 80.4398 119.725C80.1331 118.38 80.0972 116.987 80.3341 115.628C80.571 114.269 81.0761 112.971 81.8198 111.809C81.7521 110.962 81.5574 106.729 84.0212 106.035C84.1622 105.99 84.3114 105.977 84.458 105.998C84.6045 106.018 84.7445 106.071 84.8678 106.153C85.3504 106.458 85.6044 107.144 85.6298 108.244C85.6298 108.702 85.6298 109.464 85.6298 110.42C85.5706 114.163 85.469 121.131 86.6289 123.425C87.3672 124.648 88.1758 125.827 89.0504 126.956C93.4954 133.103 101.75 144.541 104.671 157.131C104.697 157.24 104.678 157.354 104.619 157.45C104.561 157.545 104.467 157.613 104.358 157.639L104.273 157.588Z" fill="#2C0F6B"/>
<path d="M112.08 153.27H111.987L102.216 151.119C102.104 151.095 102.006 151.026 101.944 150.93C101.882 150.833 101.861 150.715 101.886 150.603C101.911 150.491 101.979 150.393 102.076 150.331C102.173 150.269 102.29 150.248 102.402 150.273L112.173 152.423C112.285 152.436 112.388 152.492 112.459 152.58C112.529 152.668 112.562 152.781 112.55 152.893C112.537 153.006 112.481 153.108 112.393 153.179C112.305 153.25 112.192 153.282 112.08 153.27Z" fill="#2C0F6B"/>
<path d="M144.82 126.178C144.722 126.176 144.627 126.14 144.552 126.077C144.476 126.014 144.425 125.927 144.405 125.83L143.288 120.166C143.276 120.112 143.274 120.055 143.284 120C143.294 119.945 143.316 119.893 143.346 119.846C143.377 119.799 143.417 119.76 143.464 119.729C143.511 119.698 143.563 119.677 143.618 119.667C143.673 119.656 143.729 119.655 143.783 119.666C143.838 119.676 143.89 119.698 143.936 119.728C143.983 119.759 144.023 119.799 144.054 119.845C144.085 119.891 144.106 119.942 144.118 119.997L145.235 125.67C145.246 125.724 145.247 125.78 145.236 125.835C145.225 125.889 145.204 125.941 145.174 125.988C145.143 126.034 145.103 126.074 145.057 126.105C145.011 126.136 144.959 126.158 144.905 126.169L144.82 126.178Z" fill="#2C0F6B"/>
<path d="M146.691 135.32C146.594 135.32 146.499 135.287 146.424 135.225C146.348 135.163 146.296 135.077 146.277 134.982L145.159 129.309C145.148 129.255 145.148 129.198 145.158 129.144C145.169 129.089 145.19 129.037 145.221 128.991C145.251 128.945 145.291 128.905 145.337 128.874C145.383 128.842 145.435 128.821 145.489 128.81C145.6 128.79 145.715 128.814 145.808 128.877C145.901 128.94 145.966 129.038 145.989 129.148L147.106 134.812C147.119 134.867 147.12 134.923 147.11 134.978C147.1 135.034 147.079 135.086 147.048 135.133C147.017 135.179 146.977 135.219 146.93 135.25C146.884 135.281 146.831 135.302 146.776 135.312L146.691 135.32Z" fill="#2C0F6B"/>
<path d="M148.639 144.414C148.542 144.416 148.447 144.382 148.373 144.32C148.298 144.258 148.249 144.171 148.232 144.076L147.106 138.403C147.095 138.349 147.095 138.293 147.106 138.239C147.116 138.185 147.138 138.134 147.168 138.088C147.199 138.042 147.239 138.003 147.285 137.973C147.331 137.943 147.382 137.922 147.437 137.912C147.491 137.901 147.547 137.9 147.602 137.911C147.656 137.922 147.708 137.943 147.755 137.973C147.801 138.004 147.841 138.044 147.872 138.09C147.903 138.136 147.925 138.188 147.936 138.242L149.062 143.915C149.082 144.026 149.058 144.14 148.995 144.234C148.931 144.327 148.834 144.392 148.723 144.414H148.639Z" fill="#2C0F6B"/>
<path d="M84.2159 42.4085H38.4959C36.9398 42.4085 35.4474 43.0267 34.347 44.127C33.2467 45.2274 32.6285 46.7197 32.6285 48.2759C32.6285 49.0485 32.7811 49.8136 33.0776 50.5271C33.374 51.2406 33.8085 51.8886 34.356 52.4338C34.9035 52.9789 35.5534 53.4106 36.2682 53.704C36.983 53.9973 37.7487 54.1466 38.5213 54.1433H38.86C39.6684 54.1433 40.4436 54.4644 41.0152 55.036C41.5869 55.6076 41.908 56.3829 41.908 57.1913C41.908 57.9997 41.5869 58.7749 41.0152 59.3465C40.4436 59.9181 39.6684 60.2393 38.86 60.2393H27.0067C26.3629 60.2415 25.7461 60.4982 25.2909 60.9535C24.8357 61.4087 24.579 62.0254 24.5767 62.6692C24.579 63.3122 24.836 63.9281 25.2914 64.382C25.7469 64.8358 26.3637 65.0907 27.0067 65.0907H72.388C72.7607 65.0907 73.1182 64.9426 73.3818 64.679C73.6454 64.4155 73.7935 64.058 73.7935 63.6852V63.0587C73.7935 62.6859 73.9415 62.3284 74.2051 62.0649C74.4687 61.8013 74.8262 61.6532 75.1989 61.6532H81.4558C81.8308 61.6532 82.1904 61.5042 82.4556 61.2391C82.7208 60.9739 82.8697 60.6143 82.8697 60.2393V55.5487C82.8697 55.176 83.0178 54.8185 83.2814 54.5549C83.545 54.2914 83.9024 54.1433 84.2752 54.1433C84.6479 54.1433 85.0054 53.9952 85.269 53.7316C85.5326 53.4681 85.6807 53.1106 85.6807 52.7378V43.8139C85.6808 43.6243 85.6426 43.4365 85.5683 43.262C85.494 43.0875 85.3851 42.9299 85.2483 42.7986C85.1114 42.6673 84.9494 42.565 84.772 42.498C84.5946 42.4309 84.4054 42.4005 84.2159 42.4085Z" fill="#F2EFF8"/>
<path d="M51.2467 66.7334H37.0905C36.1179 66.7334 35.3294 67.5219 35.3294 68.4945C35.3294 69.4671 36.1179 70.2555 37.0905 70.2555H51.2467C52.2194 70.2555 53.0078 69.4671 53.0078 68.4945C53.0078 67.5219 52.2194 66.7334 51.2467 66.7334Z" fill="#F2EFF8"/>
<path d="M90.9385 34.5342H79.1359C78.1961 34.5342 77.4341 35.2942 77.4341 36.2317C77.4341 37.1693 78.1961 37.9293 79.1359 37.9293H90.9385C91.8784 37.9293 92.6403 37.1693 92.6403 36.2317C92.6403 35.2942 91.8784 34.5342 90.9385 34.5342Z" fill="#F2EFF8"/>
<path d="M86.9845 40.8164H71.4397C69.4291 40.8164 67.7991 42.4464 67.7991 44.4571C67.7991 46.4678 69.4291 48.0977 71.4397 48.0977H86.9845C88.9952 48.0977 90.6252 46.4678 90.6252 44.4571C90.6252 42.4464 88.9952 40.8164 86.9845 40.8164Z" fill="#F2EFF8"/>
<path d="M97.5764 39.4111H95.5867C94.6468 39.4111 93.8849 40.1712 93.8849 41.1087C93.8849 42.0462 94.6468 42.8063 95.5867 42.8063H97.5764C98.5162 42.8063 99.2782 42.0462 99.2782 41.1087C99.2782 40.1712 98.5162 39.4111 97.5764 39.4111Z" fill="#F2EFF8"/>
<path d="M82.5056 52.1787H45.8788V73.4639H82.5056V52.1787Z" fill="#C2B6D6"/>
<path d="M50.9166 52.2793H42.3314V54.0912H50.9166V52.2793Z" fill="white"/>
<path d="M50.9166 54.515H42.3314C42.2191 54.515 42.1114 54.4704 42.032 54.391C41.9526 54.3116 41.908 54.2039 41.908 54.0916V52.2798C41.908 52.1675 41.9526 52.0598 42.032 51.9804C42.1114 51.901 42.2191 51.8564 42.3314 51.8564H50.9166C51.0288 51.8564 51.1365 51.901 51.2159 51.9804C51.2953 52.0598 51.3399 52.1675 51.3399 52.2798V54.0916C51.3399 54.2039 51.2953 54.3116 51.2159 54.391C51.1365 54.4704 51.0288 54.515 50.9166 54.515ZM42.7547 53.6683H50.4932V52.7031H42.7547V53.6683Z" fill="#2C0F6B"/>
<path d="M50.9166 71.6514H42.3314V73.4632H50.9166V71.6514Z" fill="white"/>
<path d="M50.9166 73.887H42.3314C42.2191 73.887 42.1114 73.8424 42.032 73.7631C41.9526 73.6837 41.908 73.576 41.908 73.4637V71.6518C41.9102 71.5403 41.9555 71.4338 42.0344 71.3549C42.1133 71.276 42.2198 71.2307 42.3314 71.2285H50.9166C51.0288 71.2285 51.1365 71.2731 51.2159 71.3525C51.2953 71.4319 51.3399 71.5396 51.3399 71.6518V73.4468C51.3422 73.5038 51.3329 73.5607 51.3127 73.614C51.2924 73.6673 51.2616 73.716 51.222 73.7571C51.1825 73.7983 51.1351 73.831 51.0826 73.8533C51.0301 73.8756 50.9736 73.8871 50.9166 73.887ZM42.7547 73.0404H50.4932V72.0752H42.7547V73.0404Z" fill="#2C0F6B"/>
<path d="M90.3034 73.5654H38.2589V75.3773H90.3034V73.5654Z" fill="#2C0F6B"/>
<path d="M90.295 75.8001H38.2588C38.1466 75.8001 38.0389 75.7555 37.9595 75.6761C37.8801 75.5968 37.8355 75.4891 37.8355 75.3768V73.5649C37.8355 73.4527 37.8801 73.345 37.9595 73.2656C38.0389 73.1862 38.1466 73.1416 38.2588 73.1416H90.295C90.4072 73.1416 90.5149 73.1862 90.5943 73.2656C90.6737 73.345 90.7183 73.4527 90.7183 73.5649V75.3768C90.7183 75.4891 90.6737 75.5968 90.5943 75.6761C90.5149 75.7555 90.4072 75.8001 90.295 75.8001ZM38.6483 74.9535H89.8716V73.9883H38.6822L38.6483 74.9535Z" fill="#2C0F6B"/>
<path d="M91.184 50.3662H37.3699V52.1781H91.184V50.3662Z" fill="white"/>
<path d="M91.184 52.6019H37.3699C37.2576 52.6019 37.1499 52.5573 37.0705 52.4779C36.9911 52.3985 36.9465 52.2908 36.9465 52.1786V50.3667C36.9487 50.2551 36.994 50.1487 37.0729 50.0698C37.1518 49.9908 37.2583 49.9455 37.3699 49.9434H91.184C91.2963 49.9434 91.404 49.988 91.4833 50.0674C91.5627 50.1467 91.6073 50.2544 91.6073 50.3667V52.1786C91.6073 52.2908 91.5627 52.3985 91.4833 52.4779C91.404 52.5573 91.2963 52.6019 91.184 52.6019ZM37.7932 51.7552H90.7607V50.79H37.7932V51.7552Z" fill="#2C0F6B"/>
<path d="M89.7701 50.2728H38.7923V48.4609L64.1923 32.5859L89.7701 48.4609V50.2728Z" fill="white"/>
<path d="M89.7701 50.6966H38.7923C38.68 50.6966 38.5723 50.652 38.4929 50.5726C38.4136 50.4933 38.369 50.3856 38.369 50.2733V48.4614C38.3706 48.3897 38.3891 48.3194 38.4229 48.2562C38.4567 48.1929 38.5049 48.1385 38.5637 48.0974L63.9637 32.2308C64.0313 32.1897 64.1089 32.168 64.1881 32.168C64.2672 32.168 64.3448 32.1897 64.4124 32.2308L89.9902 48.0974C90.0515 48.1365 90.1022 48.1903 90.1377 48.2538C90.1731 48.3174 90.1923 48.3887 90.1934 48.4614V50.2733C90.1913 50.3849 90.146 50.4913 90.067 50.5702C89.9881 50.6492 89.8817 50.6945 89.7701 50.6966ZM39.2156 49.85H89.3468V48.6985L64.1923 33.086L39.2156 48.6985V49.85Z" fill="#2C0F6B"/>
<path d="M49.3079 54.0908H43.9485V71.6507H49.3079V54.0908Z" fill="white"/>
<path d="M49.2994 72.0745H43.94C43.8277 72.0745 43.72 72.0299 43.6407 71.9505C43.5613 71.8711 43.5167 71.7634 43.5167 71.6512V54.0913C43.5167 53.979 43.5613 53.8714 43.6407 53.792C43.72 53.7126 43.8277 53.668 43.94 53.668H49.2909C49.4032 53.668 49.5109 53.7126 49.5903 53.792C49.6697 53.8714 49.7143 53.979 49.7143 54.0913V71.6512C49.7143 71.762 49.6708 71.8684 49.5933 71.9476C49.5157 72.0267 49.4102 72.0723 49.2994 72.0745ZM44.3718 71.2278H48.8761V54.5146H44.3718V71.2278Z" fill="#2C0F6B"/>
<path d="M62.5751 52.2793H53.9899V54.0912H62.5751V52.2793Z" fill="white"/>
<path d="M62.5667 54.515H53.9899C53.8776 54.515 53.77 54.4704 53.6906 54.391C53.6112 54.3116 53.5666 54.2039 53.5666 54.0916V52.2798C53.5666 52.1675 53.6112 52.0598 53.6906 51.9804C53.77 51.901 53.8776 51.8564 53.9899 51.8564H62.5667C62.6789 51.8564 62.7866 51.901 62.866 51.9804C62.9454 52.0598 62.99 52.1675 62.99 52.2798V54.0916C62.99 54.2039 62.9454 54.3116 62.866 54.391C62.7866 54.4704 62.6789 54.515 62.5667 54.515ZM54.4048 53.6683H62.1433V52.7031H54.4133L54.4048 53.6683Z" fill="#2C0F6B"/>
<path d="M62.5751 71.6514H53.9899V73.4632H62.5751V71.6514Z" fill="white"/>
<path d="M62.5667 73.887H53.9899C53.8776 73.887 53.77 73.8424 53.6906 73.7631C53.6112 73.6837 53.5666 73.576 53.5666 73.4637V71.6518C53.5666 71.5396 53.6112 71.4319 53.6906 71.3525C53.77 71.2731 53.8776 71.2285 53.9899 71.2285H62.5667C62.6789 71.2285 62.7866 71.2731 62.866 71.3525C62.9454 71.4319 62.99 71.5396 62.99 71.6518V73.4468C62.9923 73.5038 62.983 73.5607 62.9628 73.614C62.9425 73.6673 62.9117 73.716 62.8721 73.7571C62.8326 73.7983 62.7852 73.831 62.7327 73.8533C62.6802 73.8756 62.6237 73.8871 62.5667 73.887ZM54.4048 73.0404H62.1433V72.0752H54.4133L54.4048 73.0404Z" fill="#2C0F6B"/>
<path d="M60.9665 54.0908H55.6071V71.6507H60.9665V54.0908Z" fill="white"/>
<path d="M60.958 72.0745H55.607C55.4948 72.0745 55.3871 72.0299 55.3077 71.9505C55.2283 71.8711 55.1837 71.7634 55.1837 71.6512V54.0913C55.1837 53.979 55.2283 53.8714 55.3077 53.792C55.3871 53.7126 55.4948 53.668 55.607 53.668H60.958C61.0703 53.668 61.1779 53.7126 61.2573 53.792C61.3367 53.8714 61.3813 53.979 61.3813 54.0913V71.6512C61.3813 71.7634 61.3367 71.8711 61.2573 71.9505C61.1779 72.0299 61.0703 72.0745 60.958 72.0745ZM56.0304 71.2278H60.5346V54.5146H56.0304V71.2278Z" fill="#2C0F6B"/>
<path d="M74.3523 52.2793H65.7671V54.0912H74.3523V52.2793Z" fill="white"/>
<path d="M74.3523 54.515H65.7671C65.6548 54.515 65.5471 54.4704 65.4677 54.391C65.3884 54.3116 65.3438 54.2039 65.3438 54.0916V52.2798C65.3438 52.1675 65.3884 52.0598 65.4677 51.9804C65.5471 51.901 65.6548 51.8564 65.7671 51.8564H74.3523C74.4646 51.8564 74.5722 51.901 74.6516 51.9804C74.731 52.0598 74.7756 52.1675 74.7756 52.2798V54.0916C74.7756 54.2039 74.731 54.3116 74.6516 54.391C74.5722 54.4704 74.4646 54.515 74.3523 54.515ZM66.1904 53.6683H73.9289V52.7031H66.1904V53.6683Z" fill="#2C0F6B"/>
<path d="M74.3523 71.6514H65.7671V73.4632H74.3523V71.6514Z" fill="white"/>
<path d="M74.3523 73.887H65.7671C65.6548 73.887 65.5471 73.8424 65.4677 73.7631C65.3884 73.6837 65.3438 73.576 65.3438 73.4637V71.6518C65.3438 71.5396 65.3884 71.4319 65.4677 71.3525C65.5471 71.2731 65.6548 71.2285 65.7671 71.2285H74.3523C74.4639 71.2307 74.5703 71.276 74.6492 71.3549C74.7282 71.4338 74.7734 71.5403 74.7756 71.6518V73.4468C74.7779 73.5038 74.7686 73.5607 74.7484 73.614C74.7281 73.6673 74.6973 73.716 74.6578 73.7571C74.6182 73.7983 74.5708 73.831 74.5183 73.8533C74.4658 73.8756 74.4093 73.8871 74.3523 73.887ZM66.1904 73.0404H73.9289V72.0752H66.1904V73.0404Z" fill="#2C0F6B"/>
<path d="M72.7351 54.0908H67.3757V71.6507H72.7351V54.0908Z" fill="white"/>
<path d="M72.7267 72.0745H67.3757C67.2635 72.0745 67.1558 72.0299 67.0764 71.9505C66.997 71.8711 66.9524 71.7634 66.9524 71.6512V54.0913C66.9524 53.979 66.997 53.8714 67.0764 53.792C67.1558 53.7126 67.2635 53.668 67.3757 53.668H72.7267C72.8389 53.668 72.9466 53.7126 73.026 53.792C73.1054 53.8714 73.15 53.979 73.15 54.0913V71.6512C73.15 71.7634 73.1054 71.8711 73.026 71.9505C72.9466 72.0299 72.8389 72.0745 72.7267 72.0745ZM67.7906 71.2278H72.3033V54.5146H67.7991L67.7906 71.2278Z" fill="#2C0F6B"/>
<path d="M86.358 52.2793H77.7728V54.0912H86.358V52.2793Z" fill="white"/>
<path d="M86.358 54.515H77.8066C77.6944 54.515 77.5867 54.4704 77.5073 54.391C77.4279 54.3116 77.3833 54.2039 77.3833 54.0916V52.2798C77.3833 52.1675 77.4279 52.0598 77.5073 51.9804C77.5867 51.901 77.6944 51.8564 77.8066 51.8564H86.358C86.4702 51.8564 86.5779 51.901 86.6573 51.9804C86.7367 52.0598 86.7813 52.1675 86.7813 52.2798V54.0916C86.7813 54.2039 86.7367 54.3116 86.6573 54.391C86.5779 54.4704 86.4702 54.515 86.358 54.515ZM78.1961 53.6683H85.9346V52.7031H78.1961V53.6683Z" fill="#2C0F6B"/>
<path d="M86.358 71.6514H77.7728V73.4632H86.358V71.6514Z" fill="white"/>
<path d="M86.358 73.887H77.8066C77.6944 73.887 77.5867 73.8424 77.5073 73.7631C77.4279 73.6837 77.3833 73.576 77.3833 73.4637V71.6518C77.3855 71.5403 77.4308 71.4338 77.5097 71.3549C77.5886 71.276 77.695 71.2307 77.8066 71.2285H86.358C86.4702 71.2285 86.5779 71.2731 86.6573 71.3525C86.7367 71.4319 86.7813 71.5396 86.7813 71.6518V73.4468C86.7836 73.5038 86.7743 73.5607 86.7541 73.614C86.7338 73.6673 86.703 73.716 86.6635 73.7571C86.6239 73.7983 86.5765 73.831 86.524 73.8533C86.4715 73.8756 86.415 73.8871 86.358 73.887ZM78.1961 73.0404H85.9346V72.0752H78.1961V73.0404Z" fill="#2C0F6B"/>
<path d="M84.7493 54.0908H79.39V71.6507H84.7493V54.0908Z" fill="white"/>
<path d="M84.7493 72.0745H79.3899C79.2777 72.0745 79.17 72.0299 79.0906 71.9505C79.0112 71.8711 78.9666 71.7634 78.9666 71.6512V54.0913C78.9666 53.979 79.0112 53.8714 79.0906 53.792C79.17 53.7126 79.2777 53.668 79.3899 53.668H84.7493C84.8616 53.668 84.9693 53.7126 85.0487 53.792C85.1281 53.8714 85.1727 53.979 85.1727 54.0913V71.6512C85.1727 71.7634 85.1281 71.8711 85.0487 71.9505C84.9693 72.0299 84.8616 72.0745 84.7493 72.0745ZM79.8133 71.2278H84.326V54.5146H79.8133V71.2278Z" fill="#2C0F6B"/>
<path d="M64.2261 47.8682C66.7044 47.8682 68.7134 45.8592 68.7134 43.3809C68.7134 40.9026 66.7044 38.8936 64.2261 38.8936C61.7478 38.8936 59.7388 40.9026 59.7388 43.3809C59.7388 45.8592 61.7478 47.8682 64.2261 47.8682Z" fill="#C2B6D6"/>
<path d="M64.26 48.292C63.2887 48.292 62.3393 48.004 61.5318 47.4644C60.7242 46.9249 60.0948 46.1579 59.7231 45.2606C59.3514 44.3633 59.2542 43.3759 59.4437 42.4233C59.6331 41.4708 60.1008 40.5958 60.7876 39.909C61.4744 39.2222 62.3494 38.7545 63.3019 38.5651C64.2545 38.3756 65.2419 38.4728 66.1392 38.8445C67.0365 39.2162 67.8035 39.8456 68.343 40.6532C68.8826 41.4607 69.1706 42.4101 69.1706 43.3814C69.1706 44.6838 68.6533 45.9328 67.7323 46.8537C66.8114 47.7747 65.5624 48.292 64.26 48.292ZM64.26 39.3174C63.4562 39.3174 62.6705 39.5557 62.0021 40.0023C61.3338 40.4488 60.8129 41.0835 60.5053 41.8261C60.1977 42.5687 60.1173 43.3859 60.2741 44.1742C60.4309 44.9626 60.8179 45.6867 61.3863 46.2551C61.9547 46.8234 62.6788 47.2105 63.4671 47.3673C64.2555 47.5241 65.0726 47.4436 65.8152 47.136C66.5578 46.8284 67.1925 46.3075 67.6391 45.6392C68.0856 44.9709 68.324 44.1852 68.324 43.3814C68.324 42.3035 67.8958 41.2698 67.1337 40.5077C66.3715 39.7455 65.3378 39.3174 64.26 39.3174Z" fill="#2C0F6B"/>
<path d="M64.9797 41.9248H63.5234V44.9135H64.9797V41.9248Z" fill="#2C0F6B"/>
<path d="M64.9797 45.3374H63.5234C63.4112 45.3374 63.3035 45.2928 63.2241 45.2134C63.1447 45.134 63.1001 45.0263 63.1001 44.914V41.9253C63.1001 41.813 63.1447 41.7053 63.2241 41.6259C63.3035 41.5466 63.4112 41.502 63.5234 41.502H64.9797C65.092 41.502 65.1996 41.5466 65.279 41.6259C65.3584 41.7053 65.403 41.813 65.403 41.9253V44.914C65.403 45.0263 65.3584 45.134 65.279 45.2134C65.1996 45.2928 65.092 45.3374 64.9797 45.3374ZM63.9468 44.4907H64.5564V42.3486H63.9468V44.4907Z" fill="#2C0F6B"/>
<path d="M157.224 13.4512H111.504C109.948 13.4512 108.455 14.0693 107.355 15.1697C106.255 16.27 105.637 17.7624 105.637 19.3186C105.637 20.0912 105.789 20.8563 106.086 21.5698C106.382 22.2833 106.817 22.9313 107.364 23.4765C107.912 24.0216 108.561 24.4533 109.276 24.7467C109.991 25.04 110.757 25.1893 111.529 25.186H111.843C112.651 25.186 113.426 25.5071 113.998 26.0787C114.57 26.6503 114.891 27.4256 114.891 28.234C114.891 29.0424 114.57 29.8176 113.998 30.3892C113.426 30.9608 112.651 31.282 111.843 31.282H99.9894C99.6706 31.282 99.3551 31.3449 99.0607 31.4671C98.7664 31.5893 98.4991 31.7684 98.2741 31.9942C98.0492 32.2199 97.871 32.4879 97.7498 32.7827C97.6286 33.0774 97.5668 33.3932 97.5679 33.7119C97.5679 34.3541 97.823 34.97 98.2771 35.4241C98.7312 35.8783 99.3471 36.1334 99.9894 36.1334H145.371C145.743 36.1334 146.101 35.9853 146.365 35.7217C146.628 35.4581 146.776 35.1007 146.776 34.7279V34.1014C146.776 33.9161 146.813 33.7326 146.884 33.5616C146.955 33.3905 147.059 33.2352 147.191 33.1046C147.322 32.9739 147.478 32.8706 147.65 32.8004C147.821 32.7303 148.005 32.6948 148.19 32.6959H154.447C154.82 32.6937 155.178 32.5437 155.441 32.2788C155.705 32.0139 155.852 31.6555 155.852 31.282V26.5914C155.852 26.2245 155.996 25.872 156.252 25.6094C156.508 25.3468 156.857 25.1948 157.224 25.186C157.597 25.186 157.954 25.0379 158.218 24.7743C158.481 24.5107 158.629 24.1533 158.629 23.7805V14.8651C158.631 14.6798 158.595 14.4962 158.525 14.3247C158.455 14.1532 158.351 13.9972 158.221 13.8658C158.09 13.7344 157.935 13.6301 157.764 13.559C157.593 13.4878 157.409 13.4512 157.224 13.4512Z" fill="#F2EFF8"/>
<path d="M124.263 37.7754H110.107C109.134 37.7754 108.346 38.5638 108.346 39.5365C108.346 40.5091 109.134 41.2975 110.107 41.2975H124.263C125.236 41.2975 126.024 40.5091 126.024 39.5365C126.024 38.5638 125.236 37.7754 124.263 37.7754Z" fill="#F2EFF8"/>
<path d="M163.955 5.57715H152.152C151.213 5.57715 150.451 6.33718 150.451 7.27472C150.451 8.21226 151.213 8.97228 152.152 8.97228H163.955C164.895 8.97228 165.657 8.21226 165.657 7.27472C165.657 6.33718 164.895 5.57715 163.955 5.57715Z" fill="#F2EFF8"/>
<path d="M159.993 11.8594H144.448C142.437 11.8594 140.807 13.4894 140.807 15.5C140.807 17.5107 142.437 19.1407 144.448 19.1407H159.993C162.003 19.1407 163.633 17.5107 163.633 15.5C163.633 13.4894 162.003 11.8594 159.993 11.8594Z" fill="#F2EFF8"/>
<path d="M170.584 10.4541H168.595C167.655 10.4541 166.893 11.2141 166.893 12.1517C166.893 13.0892 167.655 13.8492 168.595 13.8492H170.584C171.524 13.8492 172.286 13.0892 172.286 12.1517C172.286 11.2141 171.524 10.4541 170.584 10.4541Z" fill="#F2EFF8"/>
<path d="M155.514 23.2227H118.887V44.5079H155.514V23.2227Z" fill="#C2B6D6"/>
<path d="M123.925 23.3232H115.339V25.1351H123.925V23.3232Z" fill="white"/>
<path d="M123.925 25.5589H115.339C115.227 25.5589 115.119 25.5143 115.04 25.4349C114.961 25.3555 114.916 25.2479 114.916 25.1356V23.3237C114.916 23.2114 114.961 23.1038 115.04 23.0244C115.119 22.945 115.227 22.9004 115.339 22.9004H123.925C124.037 22.9004 124.145 22.945 124.224 23.0244C124.303 23.1038 124.348 23.2114 124.348 23.3237V25.1356C124.348 25.2479 124.303 25.3555 124.224 25.4349C124.145 25.5143 124.037 25.5589 123.925 25.5589ZM115.763 24.7123H123.527V23.7471H115.788L115.763 24.7123Z" fill="#2C0F6B"/>
<path d="M123.925 42.6953H115.339V44.5072H123.925V42.6953Z" fill="white"/>
<path d="M123.925 44.931H115.339C115.227 44.931 115.119 44.8864 115.04 44.807C114.961 44.7276 114.916 44.6199 114.916 44.5077V42.6958C114.918 42.5842 114.964 42.4778 115.042 42.3988C115.121 42.3199 115.228 42.2746 115.339 42.2725H123.925C124.037 42.2725 124.145 42.3171 124.224 42.3965C124.303 42.4758 124.348 42.5835 124.348 42.6958V44.5077C124.348 44.6199 124.303 44.7276 124.224 44.807C124.145 44.8864 124.037 44.931 123.925 44.931ZM115.763 44.0843H123.527V43.1191H115.788L115.763 44.0843Z" fill="#2C0F6B"/>
<path d="M163.312 44.6084H111.267V46.4203H163.312V44.6084Z" fill="#2C0F6B"/>
<path d="M163.32 46.8441H111.267C111.155 46.8441 111.047 46.7995 110.968 46.7201C110.888 46.6407 110.844 46.533 110.844 46.4207V44.6089C110.844 44.4966 110.888 44.3889 110.968 44.3095C111.047 44.2301 111.155 44.1855 111.267 44.1855H163.32C163.432 44.1855 163.54 44.2301 163.619 44.3095C163.699 44.3889 163.743 44.4966 163.743 44.6089V46.4207C163.741 46.5323 163.696 46.6388 163.617 46.7177C163.538 46.7966 163.432 46.8419 163.32 46.8441ZM111.673 45.9974H162.871V45.0322H111.673V45.9974Z" fill="#2C0F6B"/>
<path d="M164.192 21.4102H110.378V23.222H164.192V21.4102Z" fill="white"/>
<path d="M164.167 23.6449H110.378C110.266 23.6449 110.158 23.6003 110.079 23.5209C109.999 23.4415 109.955 23.3338 109.955 23.2215V21.4097C109.957 21.2981 110.002 21.1916 110.081 21.1127C110.16 21.0338 110.266 20.9885 110.378 20.9863H164.167C164.279 20.9863 164.387 21.0309 164.466 21.1103C164.545 21.1897 164.59 21.2974 164.59 21.4097V23.2215C164.59 23.3338 164.545 23.4415 164.466 23.5209C164.387 23.6003 164.279 23.6449 164.167 23.6449ZM110.776 22.7982H163.743V21.7991H110.827L110.776 22.7982Z" fill="#2C0F6B"/>
<path d="M162.778 21.3167H111.8V19.5049L137.2 3.62988L162.778 19.5049V21.3167Z" fill="white"/>
<path d="M162.778 21.7406H111.8C111.688 21.7406 111.58 21.696 111.501 21.6166C111.422 21.5372 111.377 21.4295 111.377 21.3172V19.5054C111.379 19.4337 111.397 19.3634 111.431 19.3001C111.465 19.2369 111.513 19.1825 111.572 19.1413L136.972 3.27478C137.039 3.23366 137.117 3.21191 137.196 3.21191C137.275 3.21191 137.353 3.23366 137.42 3.27478L162.998 19.1413C163.061 19.1793 163.112 19.2328 163.148 19.2966C163.183 19.3604 163.202 19.4323 163.201 19.5054V21.3172C163.199 21.4288 163.154 21.5353 163.075 21.6142C162.996 21.6931 162.89 21.7384 162.778 21.7406ZM112.224 20.8939H162.355V19.7424L137.2 4.12992L112.224 19.734V20.8939Z" fill="#2C0F6B"/>
<path d="M122.316 25.1348H116.957V42.6946H122.316V25.1348Z" fill="white"/>
<path d="M122.316 43.1184H116.957C116.844 43.1184 116.737 43.0738 116.657 42.9945C116.578 42.9151 116.533 42.8074 116.533 42.6951V25.1352C116.533 25.023 116.578 24.9153 116.657 24.8359C116.737 24.7565 116.844 24.7119 116.957 24.7119H122.316C122.428 24.7119 122.536 24.7565 122.615 24.8359C122.695 24.9153 122.739 25.023 122.739 25.1352V42.6951C122.739 42.8074 122.695 42.9151 122.615 42.9945C122.536 43.0738 122.428 43.1184 122.316 43.1184ZM117.38 42.2718H121.893V25.5586H117.38V42.2718Z" fill="#2C0F6B"/>
<path d="M135.583 23.3232H126.998V25.1351H135.583V23.3232Z" fill="white"/>
<path d="M135.583 25.5589H126.998C126.886 25.5589 126.778 25.5143 126.699 25.4349C126.619 25.3555 126.575 25.2479 126.575 25.1356V23.3237C126.575 23.2114 126.619 23.1038 126.699 23.0244C126.778 22.945 126.886 22.9004 126.998 22.9004H135.583C135.696 22.9004 135.803 22.945 135.883 23.0244C135.962 23.1038 136.007 23.2114 136.007 23.3237V25.1356C136.007 25.2479 135.962 25.3555 135.883 25.4349C135.803 25.5143 135.696 25.5589 135.583 25.5589ZM127.421 24.7123H135.16V23.7471H127.421V24.7123Z" fill="#2C0F6B"/>
<path d="M135.583 42.6953H126.998V44.5072H135.583V42.6953Z" fill="white"/>
<path d="M135.583 44.931H126.998C126.886 44.931 126.778 44.8864 126.699 44.807C126.619 44.7276 126.575 44.6199 126.575 44.5077V42.6958C126.577 42.5842 126.622 42.4778 126.701 42.3988C126.78 42.3199 126.886 42.2746 126.998 42.2725H135.583C135.696 42.2725 135.803 42.3171 135.883 42.3965C135.962 42.4758 136.007 42.5835 136.007 42.6958V44.5077C136.007 44.6199 135.962 44.7276 135.883 44.807C135.803 44.8864 135.696 44.931 135.583 44.931ZM127.421 44.0843H135.16V43.1191H127.421V44.0843Z" fill="#2C0F6B"/>
<path d="M133.975 25.1348H128.615V42.6946H133.975V25.1348Z" fill="white"/>
<path d="M133.966 43.1184H128.607C128.494 43.1184 128.387 43.0738 128.307 42.9945C128.228 42.9151 128.183 42.8074 128.183 42.6951V25.1352C128.183 25.023 128.228 24.9153 128.307 24.8359C128.387 24.7565 128.494 24.7119 128.607 24.7119H133.958C134.07 24.7119 134.178 24.7565 134.257 24.8359C134.336 24.9153 134.381 25.023 134.381 25.1352V42.6951C134.381 42.8059 134.338 42.9124 134.26 42.9915C134.182 43.0707 134.077 43.1162 133.966 43.1184ZM129.038 42.2718H133.543V25.5586H129.038V42.2718Z" fill="#2C0F6B"/>
<path d="M147.36 23.3232H138.775V25.1351H147.36V23.3232Z" fill="white"/>
<path d="M147.36 25.5589H138.767C138.654 25.5589 138.547 25.5143 138.467 25.4349C138.388 25.3555 138.343 25.2479 138.343 25.1356V23.3237C138.343 23.2114 138.388 23.1038 138.467 23.0244C138.547 22.945 138.654 22.9004 138.767 22.9004H147.352C147.464 22.9004 147.572 22.945 147.651 23.0244C147.731 23.1038 147.775 23.2114 147.775 23.3237V25.1356C147.775 25.2464 147.732 25.3528 147.654 25.432C147.577 25.5111 147.471 25.5567 147.36 25.5589ZM139.198 24.7123H146.937V23.7471H139.198V24.7123Z" fill="#2C0F6B"/>
<path d="M147.36 42.6953H138.775V44.5072H147.36V42.6953Z" fill="white"/>
<path d="M147.36 44.931H138.767C138.654 44.931 138.547 44.8864 138.467 44.807C138.388 44.7276 138.343 44.6199 138.343 44.5077V42.6958C138.343 42.5835 138.388 42.4758 138.467 42.3965C138.547 42.3171 138.654 42.2725 138.767 42.2725H147.352C147.464 42.2725 147.572 42.3171 147.651 42.3965C147.731 42.4758 147.775 42.5835 147.775 42.6958V44.5077C147.775 44.6185 147.732 44.7249 147.654 44.8041C147.577 44.8832 147.471 44.9288 147.36 44.931ZM139.198 44.0843H146.937V43.1191H139.198V44.0843Z" fill="#2C0F6B"/>
<path d="M145.752 25.1348H140.392V42.6946H145.752V25.1348Z" fill="white"/>
<path d="M145.743 43.1184H140.392C140.28 43.1184 140.172 43.0738 140.093 42.9945C140.014 42.9151 139.969 42.8074 139.969 42.6951V25.1352C139.969 25.023 140.014 24.9153 140.093 24.8359C140.172 24.7565 140.28 24.7119 140.392 24.7119H145.743C145.855 24.7119 145.963 24.7565 146.043 24.8359C146.122 24.9153 146.167 25.023 146.167 25.1352V42.6951C146.167 42.8074 146.122 42.9151 146.043 42.9945C145.963 43.0738 145.855 43.1184 145.743 43.1184ZM140.816 42.2718H145.32V25.5586H140.816V42.2718Z" fill="#2C0F6B"/>
<path d="M159.375 23.3232H150.789V25.1351H159.375V23.3232Z" fill="white"/>
<path d="M159.366 25.5589H150.789C150.677 25.5589 150.569 25.5143 150.49 25.4349C150.411 25.3555 150.366 25.2479 150.366 25.1356V23.3237C150.366 23.2114 150.411 23.1038 150.49 23.0244C150.569 22.945 150.677 22.9004 150.789 22.9004H159.366C159.478 22.9004 159.586 22.945 159.665 23.0244C159.745 23.1038 159.789 23.2114 159.789 23.3237V25.1356C159.789 25.2479 159.745 25.3555 159.665 25.4349C159.586 25.5143 159.478 25.5589 159.366 25.5589ZM151.213 24.7123H158.943V23.7471H151.213V24.7123Z" fill="#2C0F6B"/>
<path d="M159.375 42.6953H150.789V44.5072H159.375V42.6953Z" fill="white"/>
<path d="M159.366 44.931H150.789C150.677 44.931 150.569 44.8864 150.49 44.807C150.411 44.7276 150.366 44.6199 150.366 44.5077V42.6958C150.366 42.5835 150.411 42.4758 150.49 42.3965C150.569 42.3171 150.677 42.2725 150.789 42.2725H159.366C159.478 42.2725 159.586 42.3171 159.665 42.3965C159.745 42.4758 159.789 42.5835 159.789 42.6958V44.5077C159.789 44.6199 159.745 44.7276 159.665 44.807C159.586 44.8864 159.478 44.931 159.366 44.931ZM151.213 44.0843H158.943V43.1191H151.213V44.0843Z" fill="#2C0F6B"/>
<path d="M157.757 25.1348H152.398V42.6946H157.757V25.1348Z" fill="white"/>
<path d="M157.757 43.1184H152.398C152.286 43.1184 152.178 43.0738 152.099 42.9945C152.019 42.9151 151.975 42.8074 151.975 42.6951V25.1352C151.975 25.023 152.019 24.9153 152.099 24.8359C152.178 24.7565 152.286 24.7119 152.398 24.7119H157.757C157.87 24.7119 157.977 24.7565 158.057 24.8359C158.136 24.9153 158.181 25.023 158.181 25.1352V42.6951C158.181 42.8074 158.136 42.9151 158.057 42.9945C157.977 43.0738 157.87 43.1184 157.757 43.1184ZM152.821 42.2718H157.334V25.5586H152.821V42.2718Z" fill="#2C0F6B"/>
<path d="M137.243 18.9131C139.721 18.9131 141.73 16.9041 141.73 14.4258C141.73 11.9475 139.721 9.93848 137.243 9.93848C134.764 9.93848 132.755 11.9475 132.755 14.4258C132.755 16.9041 134.764 18.9131 137.243 18.9131Z" fill="#C2B6D6"/>
<path d="M137.243 19.336C136.271 19.336 135.322 19.048 134.514 18.5084C133.707 17.9688 133.078 17.2019 132.706 16.3045C132.334 15.4072 132.237 14.4199 132.426 13.4673C132.616 12.5147 133.084 11.6397 133.77 10.953C134.457 10.2662 135.332 9.79849 136.285 9.60901C137.237 9.41953 138.225 9.51678 139.122 9.88845C140.019 10.2601 140.786 10.8895 141.326 11.6971C141.865 12.5047 142.153 13.4541 142.153 14.4253C142.151 15.727 141.633 16.9748 140.713 17.8952C139.792 18.8157 138.544 19.3337 137.243 19.336ZM137.243 10.3613C136.439 10.3613 135.653 10.5997 134.985 11.0462C134.317 11.4928 133.796 12.1275 133.488 12.8701C133.18 13.6127 133.1 14.4298 133.257 15.2182C133.414 16.0065 133.801 16.7306 134.369 17.299C134.937 17.8674 135.662 18.2544 136.45 18.4112C137.238 18.568 138.055 18.4876 138.798 18.18C139.541 17.8724 140.175 17.3515 140.622 16.6832C141.068 16.0148 141.307 15.2291 141.307 14.4253C141.304 13.3482 140.876 12.3158 140.114 11.5541C139.352 10.7924 138.32 10.3636 137.243 10.3613Z" fill="#2C0F6B"/>
<path d="M137.988 12.9688H136.531V15.9575H137.988V12.9688Z" fill="#2C0F6B"/>
<path d="M137.988 16.3813H136.531C136.419 16.3813 136.312 16.3367 136.232 16.2573C136.153 16.1779 136.108 16.0702 136.108 15.958V12.9692C136.108 12.857 136.153 12.7493 136.232 12.6699C136.312 12.5905 136.419 12.5459 136.531 12.5459H137.988C138.1 12.5459 138.208 12.5905 138.287 12.6699C138.366 12.7493 138.411 12.857 138.411 12.9692V15.958C138.411 16.0702 138.366 16.1779 138.287 16.2573C138.208 16.3367 138.1 16.3813 137.988 16.3813ZM136.955 15.5346H137.564V13.3926H136.955V15.5346Z" fill="#2C0F6B"/>
<path d="M236.98 24.4414H191.26C189.704 24.4414 188.212 25.0596 187.111 26.16C186.011 27.2603 185.393 28.7527 185.393 30.3088C185.39 31.0851 185.542 31.854 185.839 32.5712C186.136 33.2884 186.573 33.9394 187.123 34.4868C187.674 35.0341 188.327 35.4667 189.046 35.7596C189.765 36.0525 190.535 36.1999 191.311 36.1932H191.624C192.433 36.1954 193.209 36.5184 193.78 37.0914C194.351 37.6643 194.672 38.4405 194.672 39.2496C194.672 40.058 194.351 40.8333 193.779 41.4049C193.208 41.9765 192.432 42.2976 191.624 42.2976H179.771C179.133 42.2885 178.517 42.5315 178.057 42.9738C177.598 43.4162 177.331 44.022 177.315 44.6598C177.315 45.3028 177.57 45.9196 178.024 46.3751C178.478 46.8305 179.094 47.0875 179.737 47.0898H225.127C225.502 47.0898 225.861 46.9408 226.126 46.6756C226.392 46.4105 226.541 46.0508 226.541 45.6758V45.0832C226.541 44.7104 226.689 44.3529 226.952 44.0894C227.216 43.8258 227.573 43.6777 227.946 43.6777H234.203C234.576 43.6777 234.933 43.5296 235.197 43.266C235.46 43.0025 235.608 42.645 235.608 42.2722V37.5817C235.615 37.2183 235.761 36.8714 236.016 36.6128C236.272 36.3543 236.617 36.204 236.98 36.1932C237.165 36.1943 237.349 36.1588 237.52 36.0886C237.692 36.0185 237.848 35.9151 237.979 35.7845C238.111 35.6539 238.215 35.4986 238.286 35.3275C238.357 35.1564 238.394 34.973 238.394 34.7877V25.8469C238.394 25.6616 238.357 25.4782 238.286 25.3071C238.215 25.136 238.111 24.9807 237.979 24.8501C237.848 24.7195 237.692 24.6161 237.52 24.546C237.349 24.4758 237.165 24.4403 236.98 24.4414Z" fill="#F2EFF8"/>
<path d="M204.045 48.7656H189.888C188.916 48.7656 188.127 49.5541 188.127 50.5267C188.127 51.4993 188.916 52.2878 189.888 52.2878H204.045C205.017 52.2878 205.806 51.4993 205.806 50.5267C205.806 49.5541 205.017 48.7656 204.045 48.7656Z" fill="#F2EFF8"/>
<path d="M243.736 16.5674H231.934C230.994 16.5674 230.232 17.3274 230.232 18.265C230.232 19.2025 230.994 19.9625 231.934 19.9625H243.736C244.676 19.9625 245.438 19.2025 245.438 18.265C245.438 17.3274 244.676 16.5674 243.736 16.5674Z" fill="#F2EFF8"/>
<path d="M239.774 22.8496H224.229C222.219 22.8496 220.589 24.4796 220.589 26.4903C220.589 28.501 222.219 30.1309 224.229 30.1309H239.774C241.785 30.1309 243.415 28.501 243.415 26.4903C243.415 24.4796 241.785 22.8496 239.774 22.8496Z" fill="#F2EFF8"/>
<path d="M250.374 21.4443H248.385C247.445 21.4443 246.683 22.2044 246.683 23.1419C246.683 24.0794 247.445 24.8395 248.385 24.8395H250.374C251.314 24.8395 252.076 24.0794 252.076 23.1419C252.076 22.2044 251.314 21.4443 250.374 21.4443Z" fill="#F2EFF8"/>
<path d="M235.295 34.2119H198.668V55.4971H235.295V34.2119Z" fill="#C2B6D6"/>
<path d="M203.715 34.3135H195.129V36.1253H203.715V34.3135Z" fill="white"/>
<path d="M203.715 36.5492H195.129C195.017 36.5492 194.909 36.5046 194.83 36.4252C194.751 36.3458 194.706 36.2381 194.706 36.1258V34.314C194.706 34.2017 194.751 34.094 194.83 34.0146C194.909 33.9352 195.017 33.8906 195.129 33.8906H203.715C203.827 33.8906 203.934 33.9352 204.014 34.0146C204.093 34.094 204.138 34.2017 204.138 34.314V36.1258C204.136 36.2374 204.09 36.3438 204.011 36.4228C203.933 36.5017 203.826 36.547 203.715 36.5492ZM195.553 35.7025H203.291V34.7373H195.553V35.7025Z" fill="#2C0F6B"/>
<path d="M203.715 53.6855H195.129V55.4974H203.715V53.6855Z" fill="white"/>
<path d="M203.715 55.9203H195.129C195.017 55.9203 194.909 55.8757 194.83 55.7963C194.751 55.7169 194.706 55.6092 194.706 55.4969V53.6851C194.706 53.5728 194.751 53.4651 194.83 53.3857C194.909 53.3063 195.017 53.2617 195.129 53.2617H203.715C203.827 53.2617 203.934 53.3063 204.014 53.3857C204.093 53.4651 204.138 53.5728 204.138 53.6851V55.4969C204.138 55.6092 204.093 55.7169 204.014 55.7963C203.934 55.8757 203.827 55.9203 203.715 55.9203ZM195.553 55.0736H203.291V54.1084H195.553V55.0736Z" fill="#2C0F6B"/>
<path d="M243.093 55.5996H191.048V57.4115H243.093V55.5996Z" fill="#2C0F6B"/>
<path d="M243.093 57.8343H191.048C190.937 57.8321 190.83 57.7869 190.751 57.7079C190.672 57.629 190.627 57.5226 190.625 57.411V55.5991C190.625 55.4868 190.67 55.3792 190.749 55.2998C190.828 55.2204 190.936 55.1758 191.048 55.1758H243.093C243.205 55.1758 243.313 55.2204 243.392 55.2998C243.472 55.3792 243.516 55.4868 243.516 55.5991V57.411C243.514 57.5226 243.469 57.629 243.39 57.7079C243.311 57.7869 243.205 57.8321 243.093 57.8343ZM191.446 56.9876H242.644V56.0224H191.472L191.446 56.9876Z" fill="#2C0F6B"/>
<path d="M243.982 32.3994H190.168V34.2113H243.982V32.3994Z" fill="white"/>
<path d="M243.974 34.6351H190.168C190.056 34.6351 189.948 34.5905 189.868 34.5111C189.789 34.4317 189.745 34.324 189.745 34.2118V32.3999C189.745 32.2876 189.789 32.1799 189.868 32.1006C189.948 32.0212 190.056 31.9766 190.168 31.9766H243.974C244.086 31.9766 244.193 32.0212 244.273 32.1006C244.352 32.1799 244.397 32.2876 244.397 32.3999V34.2118C244.397 34.324 244.352 34.4317 244.273 34.5111C244.193 34.5905 244.086 34.6351 243.974 34.6351ZM190.633 33.7884H243.593V32.8063H190.591L190.633 33.7884Z" fill="#2C0F6B"/>
<path d="M242.56 32.2985H191.582V30.4867L216.982 14.6201L242.56 30.4867V32.2985Z" fill="white"/>
<path d="M242.56 32.7217H191.582C191.47 32.7217 191.362 32.6771 191.282 32.5977C191.203 32.5183 191.158 32.4107 191.158 32.2984V30.4865C191.159 30.4147 191.177 30.3442 191.213 30.2819C191.249 30.2196 191.3 30.1675 191.362 30.1309L216.762 14.2644C216.828 14.2231 216.904 14.2012 216.982 14.2012C217.06 14.2012 217.136 14.2231 217.202 14.2644L242.78 30.1309C242.841 30.1675 242.893 30.2196 242.928 30.2819C242.964 30.3442 242.983 30.4147 242.983 30.4865V32.2984C242.983 32.354 242.972 32.409 242.951 32.4604C242.929 32.5118 242.898 32.5584 242.859 32.5977C242.82 32.637 242.773 32.6682 242.722 32.6895C242.67 32.7108 242.615 32.7217 242.56 32.7217ZM192.005 31.8751H242.136V30.7236L216.982 15.1195L192.005 30.7236V31.8751Z" fill="#2C0F6B"/>
<path d="M202.097 36.125H196.738V53.6849H202.097V36.125Z" fill="white"/>
<path d="M202.097 54.1087H196.738C196.626 54.1087 196.518 54.0641 196.439 53.9847C196.359 53.9053 196.315 53.7976 196.315 53.6854V36.1255C196.315 36.0132 196.359 35.9055 196.439 35.8261C196.518 35.7467 196.626 35.7021 196.738 35.7021H202.097C202.21 35.7021 202.317 35.7467 202.397 35.8261C202.476 35.9055 202.521 36.0132 202.521 36.1255V53.6854C202.521 53.7976 202.476 53.9053 202.397 53.9847C202.317 54.0641 202.21 54.1087 202.097 54.1087ZM197.161 53.262H201.674V36.5488H197.187L197.161 53.262Z" fill="#2C0F6B"/>
<path d="M215.365 34.3135H206.779V36.1253H215.365V34.3135Z" fill="white"/>
<path d="M215.365 36.5492H206.779C206.668 36.547 206.561 36.5017 206.482 36.4228C206.404 36.3438 206.358 36.2374 206.356 36.1258V34.314C206.356 34.2017 206.401 34.094 206.48 34.0146C206.559 33.9352 206.667 33.8906 206.779 33.8906H215.365C215.477 33.8906 215.585 33.9352 215.664 34.0146C215.743 34.094 215.788 34.2017 215.788 34.314V36.1258C215.788 36.1814 215.777 36.2365 215.756 36.2878C215.734 36.3392 215.703 36.3859 215.664 36.4252C215.625 36.4645 215.578 36.4957 215.527 36.5169C215.475 36.5382 215.42 36.5492 215.365 36.5492ZM207.203 35.7025H214.967V34.7373H207.228L207.203 35.7025Z" fill="#2C0F6B"/>
<path d="M215.365 53.6855H206.779V55.4974H215.365V53.6855Z" fill="white"/>
<path d="M215.365 55.9203H206.779C206.667 55.9203 206.559 55.8757 206.48 55.7963C206.401 55.7169 206.356 55.6092 206.356 55.4969V53.6851C206.356 53.5728 206.401 53.4651 206.48 53.3857C206.559 53.3063 206.667 53.2617 206.779 53.2617H215.365C215.477 53.2617 215.585 53.3063 215.664 53.3857C215.743 53.4651 215.788 53.5728 215.788 53.6851V55.4969C215.788 55.5525 215.777 55.6076 215.756 55.6589C215.734 55.7103 215.703 55.757 215.664 55.7963C215.625 55.8356 215.578 55.8668 215.527 55.888C215.475 55.9093 215.42 55.9203 215.365 55.9203ZM207.203 55.0736H214.967V54.1084H207.228L207.203 55.0736Z" fill="#2C0F6B"/>
<path d="M213.756 36.125H208.397V53.6849H213.756V36.125Z" fill="white"/>
<path d="M213.756 54.1087H208.397C208.284 54.1087 208.177 54.0641 208.097 53.9847C208.018 53.9053 207.973 53.7976 207.973 53.6854V36.1255C207.973 36.0132 208.018 35.9055 208.097 35.8261C208.177 35.7467 208.284 35.7021 208.397 35.7021H213.756C213.868 35.7021 213.976 35.7467 214.055 35.8261C214.135 35.9055 214.179 36.0132 214.179 36.1255V53.6854C214.179 53.7976 214.135 53.9053 214.055 53.9847C213.976 54.0641 213.868 54.1087 213.756 54.1087ZM208.82 53.262H213.333V36.5488H208.82V53.262Z" fill="#2C0F6B"/>
<path d="M227.142 34.3135H218.557V36.1253H227.142V34.3135Z" fill="white"/>
<path d="M227.142 36.5492H218.557C218.445 36.547 218.339 36.5017 218.26 36.4228C218.181 36.3438 218.135 36.2374 218.133 36.1258V34.314C218.133 34.2017 218.178 34.094 218.257 34.0146C218.337 33.9352 218.444 33.8906 218.557 33.8906H227.142C227.254 33.8906 227.362 33.9352 227.441 34.0146C227.52 34.094 227.565 34.2017 227.565 34.314V36.1258C227.565 36.2381 227.52 36.3458 227.441 36.4252C227.362 36.5046 227.254 36.5492 227.142 36.5492ZM218.98 35.7025H226.718V34.7373H218.98V35.7025Z" fill="#2C0F6B"/>
<path d="M227.142 53.6855H218.557V55.4974H227.142V53.6855Z" fill="white"/>
<path d="M227.142 55.9203H218.557C218.444 55.9203 218.337 55.8757 218.257 55.7963C218.178 55.7169 218.133 55.6092 218.133 55.4969V53.6851C218.133 53.5728 218.178 53.4651 218.257 53.3857C218.337 53.3063 218.444 53.2617 218.557 53.2617H227.142C227.254 53.2617 227.362 53.3063 227.441 53.3857C227.52 53.4651 227.565 53.5728 227.565 53.6851V55.4969C227.565 55.6092 227.52 55.7169 227.441 55.7963C227.362 55.8757 227.254 55.9203 227.142 55.9203ZM218.98 55.0736H226.718V54.1084H218.98V55.0736Z" fill="#2C0F6B"/>
<path d="M225.533 36.125H220.174V53.6849H225.533V36.125Z" fill="white"/>
<path d="M225.525 54.1087H220.174C220.061 54.1087 219.954 54.0641 219.874 53.9847C219.795 53.9053 219.75 53.7976 219.75 53.6854V36.1255C219.75 36.0132 219.795 35.9055 219.874 35.8261C219.954 35.7467 220.061 35.7021 220.174 35.7021H225.525C225.637 35.7021 225.745 35.7467 225.824 35.8261C225.903 35.9055 225.948 36.0132 225.948 36.1255V53.6854C225.948 53.7976 225.903 53.9053 225.824 53.9847C225.745 54.0641 225.637 54.1087 225.525 54.1087ZM220.597 53.262H225.127V36.5488H220.622L220.597 53.262Z" fill="#2C0F6B"/>
<path d="M239.156 34.3135H230.571V36.1253H239.156V34.3135Z" fill="white"/>
<path d="M239.156 36.5492H230.571C230.458 36.5492 230.351 36.5046 230.271 36.4252C230.192 36.3458 230.147 36.2381 230.147 36.1258V34.314C230.147 34.2017 230.192 34.094 230.271 34.0146C230.351 33.9352 230.458 33.8906 230.571 33.8906H239.156C239.268 33.8906 239.376 33.9352 239.455 34.0146C239.535 34.094 239.579 34.2017 239.579 34.314V36.1258C239.577 36.2374 239.532 36.3438 239.453 36.4228C239.374 36.5017 239.268 36.547 239.156 36.5492ZM230.994 35.7025H238.733V34.7373H230.994V35.7025Z" fill="#2C0F6B"/>
<path d="M239.156 53.6855H230.571V55.4974H239.156V53.6855Z" fill="white"/>
<path d="M239.156 55.9203H230.571C230.458 55.9203 230.351 55.8757 230.271 55.7963C230.192 55.7169 230.147 55.6092 230.147 55.4969V53.6851C230.147 53.5728 230.192 53.4651 230.271 53.3857C230.351 53.3063 230.458 53.2617 230.571 53.2617H239.156C239.268 53.2617 239.376 53.3063 239.455 53.3857C239.535 53.4651 239.579 53.5728 239.579 53.6851V55.4969C239.579 55.6092 239.535 55.7169 239.455 55.7963C239.376 55.8757 239.268 55.9203 239.156 55.9203ZM230.994 55.0736H238.733V54.1084H230.994V55.0736Z" fill="#2C0F6B"/>
<path d="M237.539 36.125H232.179V53.6849H237.539V36.125Z" fill="white"/>
<path d="M237.539 54.1087H232.179C232.067 54.1087 231.959 54.0641 231.88 53.9847C231.801 53.9053 231.756 53.7976 231.756 53.6854V36.1255C231.756 36.0132 231.801 35.9055 231.88 35.8261C231.959 35.7467 232.067 35.7021 232.179 35.7021H237.539C237.651 35.7021 237.759 35.7467 237.838 35.8261C237.918 35.9055 237.962 36.0132 237.962 36.1255V53.6854C237.962 53.7976 237.918 53.9053 237.838 53.9847C237.759 54.0641 237.651 54.1087 237.539 54.1087ZM232.603 53.262H237.116V36.5488H232.603V53.262Z" fill="#2C0F6B"/>
<path d="M217.024 29.8936C219.502 29.8936 221.511 27.8846 221.511 25.4063C221.511 22.928 219.502 20.9189 217.024 20.9189C214.546 20.9189 212.537 22.928 212.537 25.4063C212.537 27.8846 214.546 29.8936 217.024 29.8936Z" fill="#C2B6D6"/>
<path d="M217.024 30.3256C216.051 30.3272 215.099 30.0402 214.289 29.5007C213.479 28.9612 212.847 28.1935 212.473 27.2948C212.1 26.3961 212.001 25.4067 212.19 24.452C212.379 23.4972 212.847 22.6199 213.534 21.9311C214.222 21.2423 215.098 20.7729 216.053 20.5824C217.007 20.392 217.997 20.4889 218.896 20.8609C219.795 21.233 220.564 21.8635 221.105 22.6726C221.646 23.4818 221.935 24.4332 221.935 25.4064C221.935 26.7096 221.418 27.9595 220.497 28.8818C219.576 29.8041 218.327 30.3233 217.024 30.3256ZM217.024 21.3424C216.218 21.3408 215.429 21.5784 214.758 22.0252C214.087 22.4721 213.564 23.108 213.255 23.8525C212.946 24.597 212.864 25.4165 213.021 26.2073C213.178 26.9981 213.566 27.7245 214.136 28.2946C214.706 28.8646 215.432 29.2526 216.223 29.4095C217.014 29.5664 217.834 29.485 218.578 29.1757C219.323 28.8665 219.958 28.3432 220.405 27.6722C220.852 27.0011 221.09 26.2126 221.088 25.4064C221.086 24.3293 220.657 23.2969 219.895 22.5352C219.134 21.7736 218.101 21.3447 217.024 21.3424Z" fill="#2C0F6B"/>
<path d="M217.769 23.9512H216.313V26.9399H217.769V23.9512Z" fill="#2C0F6B"/>
<path d="M217.769 27.3712H216.313C216.201 27.3712 216.093 27.3266 216.014 27.2472C215.934 27.1678 215.89 27.0602 215.89 26.9479V23.9507C215.89 23.8384 215.934 23.7307 216.014 23.6513C216.093 23.5719 216.201 23.5273 216.313 23.5273H217.769C217.881 23.5273 217.989 23.5719 218.069 23.6513C218.148 23.7307 218.193 23.8384 218.193 23.9507V26.9479C218.193 27.0602 218.148 27.1678 218.069 27.2472C217.989 27.3266 217.881 27.3712 217.769 27.3712ZM216.736 26.5245H217.346V24.3401H216.736V26.5245Z" fill="#2C0F6B"/>
<path d="M198.999 18.5152C198.899 18.5166 198.802 18.4803 198.728 18.4136L185.333 7.1699C185.253 7.08896 185.207 6.97936 185.207 6.86509C185.207 6.75083 185.253 6.64123 185.333 6.56029C185.368 6.51738 185.412 6.48194 185.461 6.45608C185.51 6.43022 185.564 6.41445 185.619 6.40972C185.674 6.40498 185.73 6.41137 185.783 6.42851C185.835 6.44565 185.884 6.47318 185.926 6.50949L199.286 17.7617C199.352 17.8177 199.399 17.8924 199.421 17.9757C199.443 18.0591 199.439 18.1471 199.409 18.2281C199.38 18.3091 199.326 18.3792 199.256 18.429C199.186 18.4788 199.102 18.5059 199.015 18.5068L198.999 18.5152Z" fill="#74DCB9"/>
<path d="M202.622 15.0271C202.531 15.0271 202.442 14.9974 202.368 14.9424C202.295 14.8874 202.242 14.8102 202.216 14.7223L198.922 3.96113C198.905 3.90834 198.899 3.85269 198.904 3.79748C198.909 3.74227 198.925 3.68861 198.951 3.63968C198.977 3.59075 199.013 3.54753 199.056 3.51258C199.099 3.47763 199.149 3.45166 199.202 3.4362C199.254 3.41804 199.31 3.41093 199.366 3.41532C199.422 3.41971 199.476 3.43551 199.525 3.46172C199.574 3.48793 199.618 3.52399 199.652 3.56767C199.687 3.61135 199.712 3.6617 199.727 3.7156L203.029 14.4767C203.06 14.5845 203.047 14.7004 202.993 14.7988C202.939 14.8973 202.849 14.9702 202.741 15.0017C202.704 15.019 202.663 15.0277 202.622 15.0271Z" fill="#74DCB9"/>
<path d="M237.471 20.4963C237.383 20.4958 237.298 20.4693 237.226 20.4201C237.18 20.388 237.141 20.3471 237.111 20.2999C237.081 20.2527 237.061 20.2 237.051 20.1449C237.042 20.0898 237.043 20.0334 237.056 19.9789C237.068 19.9244 237.091 19.8729 237.124 19.8274L241.213 14.0447C241.245 13.9989 241.286 13.9599 241.334 13.93C241.381 13.9001 241.433 13.8798 241.489 13.8703C241.544 13.8609 241.6 13.8625 241.655 13.8749C241.709 13.8874 241.761 13.9106 241.806 13.9431C241.897 14.0093 241.958 14.1082 241.977 14.2188C241.996 14.3294 241.971 14.4431 241.908 14.5357L237.827 20.31C237.788 20.3686 237.735 20.4164 237.673 20.449C237.611 20.4816 237.541 20.4978 237.471 20.4963Z" fill="#74DCB9"/>
<path d="M241.281 23.7986C241.169 23.82 241.053 23.7958 240.958 23.7315C240.864 23.6672 240.799 23.568 240.777 23.4557C240.756 23.3435 240.78 23.2273 240.844 23.1328C240.909 23.0384 241.008 22.9733 241.12 22.952L257.054 16.5427C257.159 16.5012 257.276 16.5028 257.379 16.5473C257.482 16.5917 257.563 16.6754 257.605 16.7798C257.646 16.8842 257.645 17.0008 257.6 17.104C257.556 17.2072 257.472 17.2886 257.368 17.3301L241.433 23.7394C241.386 23.7677 241.335 23.7877 241.281 23.7986Z" fill="#74DCB9"/>
<path d="M186.053 67.4521C185.965 67.4517 185.88 67.4251 185.807 67.3759C185.718 67.3084 185.659 67.2089 185.641 67.0984C185.624 66.9878 185.65 66.8748 185.714 66.7832L188.314 63.1426C188.379 63.0505 188.478 62.9881 188.589 62.969C188.7 62.95 188.814 62.9758 188.906 63.041C188.998 63.1061 189.061 63.2051 189.08 63.3162C189.099 63.4274 189.073 63.5416 189.008 63.6336L186.4 67.2743C186.361 67.3301 186.309 67.3755 186.249 67.4065C186.188 67.4375 186.121 67.4532 186.053 67.4521Z" fill="#74DCB9"/>
<path d="M184.537 55.9291L177.095 55.8614C177.04 55.8603 176.985 55.8483 176.934 55.826C176.883 55.8037 176.837 55.7715 176.798 55.7314C176.76 55.6913 176.73 55.644 176.709 55.5923C176.689 55.5405 176.679 55.4852 176.68 55.4296C176.68 55.3744 176.691 55.3197 176.713 55.2689C176.734 55.218 176.765 55.1718 176.805 55.1332C176.844 55.0946 176.891 55.0642 176.942 55.0438C176.994 55.0235 177.049 55.0136 177.104 55.0147L184.546 55.0825C184.658 55.0825 184.766 55.1271 184.845 55.2065C184.925 55.2858 184.969 55.3935 184.969 55.5058C184.969 55.6181 184.925 55.7257 184.845 55.8051C184.766 55.8845 184.658 55.9291 184.546 55.9291H184.537Z" fill="#74DCB9"/>
<path d="M173.48 65.4967C173.396 65.4999 173.312 65.4762 173.242 65.4291C173.172 65.3819 173.119 65.3137 173.091 65.2342C173.07 65.1826 173.06 65.1273 173.06 65.0716C173.061 65.016 173.073 64.961 173.095 64.9099C173.117 64.8588 173.149 64.8125 173.189 64.7737C173.229 64.735 173.276 64.7044 173.328 64.6839L185.486 59.9002C185.537 59.8796 185.593 59.8694 185.648 59.8702C185.704 59.8709 185.759 59.8826 185.81 59.9047C185.861 59.9267 185.907 59.9586 185.946 59.9985C185.985 60.0384 186.016 60.0856 186.036 60.1373C186.075 60.2419 186.073 60.3577 186.029 60.4603C185.984 60.5629 185.902 60.6444 185.799 60.6876L173.624 65.4882C173.577 65.4976 173.528 65.5004 173.48 65.4967Z" fill="#74DCB9"/>
<path d="M196.001 22.0966L189.05 21.6733C188.995 21.67 188.94 21.6558 188.89 21.6315C188.84 21.6072 188.795 21.5732 188.758 21.5315C188.721 21.4898 188.693 21.4413 188.675 21.3886C188.656 21.3359 188.649 21.2802 188.652 21.2245C188.654 21.1685 188.668 21.1135 188.692 21.0628C188.716 21.0122 188.75 20.9669 188.792 20.9297C188.834 20.8925 188.883 20.8642 188.936 20.8465C188.989 20.8287 189.045 20.822 189.101 20.8266L196.061 21.2499C196.173 21.2499 196.281 21.2945 196.36 21.3739C196.439 21.4533 196.484 21.561 196.484 21.6733C196.484 21.7855 196.439 21.8932 196.36 21.9726C196.281 22.052 196.173 22.0966 196.061 22.0966H196.001Z" fill="#74DCB9"/>
<path d="M239.19 62.8038C244.848 62.8038 249.434 58.2171 249.434 52.5591C249.434 46.9011 244.848 42.3145 239.19 42.3145C233.532 42.3145 228.945 46.9011 228.945 52.5591C228.945 58.2171 233.532 62.8038 239.19 62.8038Z" fill="white"/>
<path d="M239.19 63.2276C237.08 63.2276 235.017 62.6019 233.263 61.4297C231.509 60.2575 230.141 58.5914 229.334 56.6421C228.526 54.6927 228.315 52.5478 228.727 50.4784C229.138 48.409 230.154 46.5081 231.646 45.0162C233.138 43.5242 235.039 42.5082 237.109 42.0966C239.178 41.685 241.323 41.8962 243.272 42.7037C245.222 43.5111 246.888 44.8784 248.06 46.6328C249.232 48.3871 249.858 50.4497 249.858 52.5596C249.856 55.3882 248.731 58.1004 246.731 60.1005C244.731 62.1007 242.018 63.2254 239.19 63.2276ZM239.19 42.7467C237.247 42.7467 235.348 43.323 233.732 44.4025C232.117 45.4821 230.858 47.0165 230.115 48.8116C229.372 50.6067 229.178 52.5819 229.558 54.4872C229.937 56.3926 230.874 58.1426 232.248 59.5158C233.622 60.889 235.373 61.8237 237.279 62.2017C239.185 62.5797 241.16 62.384 242.954 61.6394C244.749 60.8947 246.282 59.6346 247.36 58.0184C248.438 56.4021 249.013 54.5024 249.011 52.5596C249.009 49.9563 247.973 47.4604 246.132 45.6203C244.29 43.7803 241.793 42.7467 239.19 42.7467Z" fill="#2C0F6B"/>
<path d="M235.456 53.9141C236.475 53.9141 237.302 53.0878 237.302 52.0684C237.302 51.049 236.475 50.2227 235.456 50.2227C234.437 50.2227 233.61 51.049 233.61 52.0684C233.61 53.0878 234.437 53.9141 235.456 53.9141Z" fill="#2C0F6B"/>
<path d="M237.107 54.6844L240.494 48.7578C240.557 48.6411 240.651 48.5443 240.766 48.4785C240.882 48.4126 241.013 48.3803 241.146 48.3853H243.914C244.045 48.3856 244.173 48.4202 244.286 48.4857C244.399 48.5513 244.493 48.6453 244.558 48.7586C244.623 48.8718 244.658 49.0001 244.657 49.1308C244.657 49.2614 244.623 49.3897 244.558 49.5029L239.842 57.7494C239.776 57.8618 239.682 57.9551 239.569 58.0199C239.456 58.0847 239.328 58.1188 239.198 58.1188C239.068 58.1188 238.94 58.0847 238.827 58.0199C238.714 57.9551 238.62 57.8618 238.555 57.7494L237.115 55.3872C237.056 55.2798 237.025 55.1595 237.023 55.0369C237.022 54.9143 237.05 54.7932 237.107 54.6844Z" fill="#74DCB9"/>
</g>
<defs>
<clipPath id="clip0">
<rect width="285.306" height="180" fill="white" transform="translate(0.346924)"/>
</clipPath>
</defs>
</svg>
