<svg width="254" height="285" viewBox="0 0 254 285" fill="none" xmlns="http://www.w3.org/2000/svg">
<path fill-rule="evenodd" clip-rule="evenodd" d="M103.775 110.13L28.8572 225.679C26.365 229.523 29.3307 234.562 33.9011 234.25L66.4796 232.022L77.7405 262.673C79.3203 266.973 85.1312 267.624 87.6234 263.78L162.541 148.231" fill="#E8E2F9"/>
<path d="M103.775 110.13L28.8572 225.679C26.365 229.523 29.3307 234.562 33.9011 234.25L66.4796 232.022L77.7405 262.673C79.3203 266.973 85.1312 267.624 87.6234 263.78L162.541 148.231" stroke="#200A52" stroke-width="4.19727" stroke-linecap="round" stroke-linejoin="round"/>
<path fill-rule="evenodd" clip-rule="evenodd" d="M157.088 110.13L232.006 225.679C234.498 229.523 231.532 234.562 226.962 234.25L194.383 232.022L183.122 262.673C181.542 266.973 175.732 267.624 173.239 263.78L98.3215 148.231" fill="#E8E2F9"/>
<path d="M157.088 110.13L232.006 225.679C234.498 229.523 231.532 234.562 226.962 234.25L194.383 232.022L183.122 262.673C181.542 266.973 175.732 267.624 173.239 263.78L98.3215 148.231" stroke="#200A52" stroke-width="4.19727" stroke-linecap="round" stroke-linejoin="round"/>
<path d="M159.38 41.8555C161.507 41.1064 163.856 42.0868 164.82 44.1258L177.929 71.8552C178.861 73.8274 180.444 75.4184 182.411 76.3611L210.071 89.6148C212.105 90.5894 213.073 92.9438 212.313 95.0673L201.974 123.944C201.239 125.998 201.233 128.242 201.958 130.299L212.145 159.23C212.894 161.357 211.913 163.707 209.874 164.671L182.145 177.779C180.173 178.711 178.582 180.294 177.639 182.261L164.385 209.921C163.411 211.955 161.056 212.923 158.933 212.163L130.056 201.825C128.002 201.089 125.758 201.083 123.701 201.808L94.7701 211.995C92.6427 212.744 90.2933 211.763 89.3294 209.724L76.2211 181.995C75.2888 180.023 73.706 178.432 71.7388 177.489L44.0786 164.235C42.0446 163.261 41.0766 160.906 41.8368 158.783L52.1755 129.906C52.9108 127.853 52.9167 125.608 52.1922 123.551L42.0052 94.6203C41.2561 92.4929 42.2365 90.1435 44.2756 89.1796L72.005 76.0713C73.9771 75.139 75.5682 73.5563 76.5108 71.5891L89.7645 43.9288C90.7391 41.8949 93.0936 40.9268 95.217 41.6871L124.094 52.0257C126.147 52.761 128.392 52.7669 130.449 52.0424L159.38 41.8555Z" fill="#C5B8EB" stroke="#200A52" stroke-width="5.09602"/>
<path fill-rule="evenodd" clip-rule="evenodd" d="M175.294 127.016C175.294 153.882 153.517 175.661 126.65 175.661C99.7865 175.661 78.0059 153.882 78.0059 127.016C78.0059 100.153 99.7865 78.3733 126.65 78.3733C153.517 78.3733 175.294 100.153 175.294 127.016Z" fill="#5230A2"/>
<path d="M134.388 107.855H145.54C147.704 107.855 149.057 110.197 147.971 112.069L129.388 144.195C128.318 146.051 125.644 146.067 124.541 144.227L118.868 134.713C118.35 133.837 118.341 132.751 118.852 131.868L131.957 109.249C132.459 108.39 133.383 107.855 134.388 107.855Z" fill="#44E0B7"/>
<path d="M112.369 129.753C116.545 129.753 119.93 126.368 119.93 122.192C119.93 118.015 116.545 114.63 112.369 114.63C108.192 114.63 104.807 118.015 104.807 122.192C104.807 126.368 108.192 129.753 112.369 129.753Z" fill="white"/>
<path fill-rule="evenodd" clip-rule="evenodd" d="M126.783 175.157C100.303 175.157 78.8354 153.585 78.8354 126.976C78.8354 100.366 100.303 78.7961 126.783 78.7961C153.266 78.7961 174.733 100.366 174.733 126.976C174.733 153.585 153.266 175.157 126.783 175.157Z" stroke="#200A52" stroke-width="4.19727"/>
</svg>
