<svg width="128" height="117" viewBox="0 0 128 117" fill="none" xmlns="http://www.w3.org/2000/svg">
<path d="M117.28 69.8534L117.182 69.0919H119.603C121.156 69.0872 122.643 68.4686 123.74 67.3711C124.838 66.2736 125.456 64.7864 125.461 63.2343C125.461 61.6808 124.844 60.1909 123.745 59.0924C122.647 57.9939 121.157 57.3767 119.603 57.3767H115.718L115.445 55.2094C114.911 50.9595 112.846 47.0502 109.636 44.2141C106.426 41.3781 102.292 39.8101 98.0085 39.804H82.6227C78.3394 39.8101 74.2054 41.3781 70.9955 44.2141C67.7856 47.0502 65.7203 50.9595 65.1866 55.2094L64.9133 57.3767H61.0277C59.8948 57.3717 58.785 57.6968 57.8338 58.3122C56.8826 58.9276 56.1313 59.8067 55.6715 60.8422C55.2118 61.8776 55.0636 63.0245 55.245 64.1428C55.4264 65.2611 55.9296 66.3024 56.6931 67.1393H37.5975C36.0454 67.144 34.5582 67.7626 33.4607 68.8601C32.3631 69.9576 31.7445 71.4448 31.7399 72.9969V86.6646H27.8348V63.2343H29.7874C31.3395 63.2297 32.8267 62.611 33.9242 61.5135C35.0217 60.416 35.6403 58.9288 35.6449 57.3767V41.7565C35.6403 40.2044 35.0217 38.7172 33.9242 37.6197C32.8267 36.5222 31.3395 35.9036 29.7874 35.899H27.8348V30.0414C27.8348 29.5235 27.6291 29.0269 27.263 28.6607C26.8968 28.2946 26.4002 28.0889 25.8823 28.0889H2.45204C1.93419 28.0889 1.43756 28.2946 1.07139 28.6607C0.705223 29.0269 0.499512 29.5235 0.499512 30.0414L0.499512 112.047C0.499512 112.565 0.705223 113.062 1.07139 113.428C1.43756 113.794 1.93419 114 2.45204 114H29.7874C30.3052 114 30.8018 113.794 31.168 113.428C31.5342 113.062 31.7399 112.565 31.7399 112.047V104.237C31.7399 103.719 31.5342 103.223 31.168 102.857C30.8018 102.49 30.3052 102.285 29.7874 102.285H27.8348V98.3797H37.5975C39.1496 98.3751 40.6368 97.7565 41.7343 96.659C42.8318 95.5615 43.4504 94.0743 43.455 92.5222V82.7595H45.4076C45.9254 82.7595 46.422 82.5538 46.7882 82.1877C47.1544 81.8215 47.3601 81.3249 47.3601 80.807V76.902H57.0446C55.9234 79.1216 55.2896 81.5553 55.1856 84.0399C55.0816 86.5245 55.5099 89.0027 56.4418 91.3083C57.3736 93.6139 58.7875 95.6936 60.5887 97.4082C62.3898 99.1228 64.5367 100.433 66.8853 101.25V108.142C66.8853 109.696 67.5024 111.186 68.601 112.284C69.6995 113.383 71.1894 114 72.7429 114C74.2964 114 75.7863 113.383 76.8848 112.284C77.9833 111.186 78.6005 109.696 78.6005 108.142V102.285H102.031V108.142C102.031 109.696 102.648 111.186 103.746 112.284C104.845 113.383 106.335 114 107.888 114C109.442 114 110.932 113.383 112.03 112.284C113.129 111.186 113.746 109.696 113.746 108.142V101.25C116.856 100.153 119.593 98.2033 121.646 95.6227C123.699 93.0422 124.983 89.9357 125.352 86.6591C125.721 83.3825 125.159 80.0683 123.732 77.096C122.304 74.1238 120.068 71.6137 117.28 69.8534ZM27.8348 39.804H29.7874C30.3052 39.804 30.8018 40.0097 31.168 40.3759C31.5342 40.7421 31.7399 41.2387 31.7399 41.7565V57.3767C31.7399 57.8946 31.5342 58.3912 31.168 58.7574C30.8018 59.1235 30.3052 59.3292 29.7874 59.3292H27.8348V39.804ZM4.40456 31.9939H23.9298V86.6646H20.0247V72.9969C20.0252 71.7414 19.6137 70.5204 18.8532 69.5214C18.4655 68.9839 17.9903 68.5153 17.4474 68.1351C16.565 67.5427 15.5383 67.2011 14.4769 67.1468C13.4155 67.0924 12.3593 67.3274 11.421 67.8266C10.4827 68.3258 9.69769 69.0705 9.14969 69.9811C8.6017 70.8917 8.31133 71.9341 8.30961 72.9969V92.5222C8.31424 94.0743 8.93287 95.5615 10.0304 96.659C11.1279 97.7565 12.6151 98.3751 14.1672 98.3797H23.9298V102.285H4.40456V31.9939ZM27.8348 110.095H4.40456V106.19H27.8348V110.095ZM39.55 92.5222C39.55 93.04 39.3443 93.5366 38.9781 93.9028C38.6119 94.269 38.1153 94.4747 37.5975 94.4747H14.1672C13.6493 94.4747 13.1527 94.269 12.7865 93.9028C12.4204 93.5366 12.2147 93.04 12.2147 92.5222V72.9969C12.2147 72.4791 12.4204 71.9824 12.7865 71.6163C13.1527 71.2501 13.6493 71.0444 14.1672 71.0444C14.4228 71.0431 14.6757 71.0964 14.9091 71.2006C15.155 71.2998 15.3753 71.4533 15.5535 71.6497C15.7291 71.8221 15.8686 72.0279 15.9635 72.255C16.0677 72.4884 16.121 72.7413 16.1197 72.9969V88.6171C16.1197 89.1349 16.3254 89.6316 16.6916 89.9977C17.0578 90.3639 17.5544 90.5696 18.0722 90.5696H33.6924C34.2103 90.5696 34.7069 90.3639 35.0731 89.9977C35.4392 89.6316 35.6449 89.1349 35.6449 88.6171V82.7595H39.55V92.5222ZM43.455 78.8545H35.6449V72.9969C35.6449 72.4791 35.8506 71.9824 36.2168 71.6163C36.583 71.2501 37.0796 71.0444 37.5975 71.0444H43.455V78.8545ZM119.603 61.2818C119.864 61.2795 120.122 61.3322 120.361 61.4365C120.6 61.5408 120.814 61.6943 120.99 61.8871C121.172 62.06 121.317 62.2691 121.415 62.5011C121.512 62.733 121.56 62.9827 121.556 63.2343C121.556 63.7521 121.35 64.2488 120.984 64.6149C120.618 64.9811 120.121 65.1868 119.603 65.1868H116.694L116.206 61.2818H119.603ZM59.6805 61.848C59.8534 61.6653 60.0625 61.5205 60.2945 61.423C60.5265 61.3256 60.7762 61.2774 61.0277 61.2818H64.4251L63.937 65.1868H61.0277C60.5099 65.1868 60.0133 64.9811 59.6471 64.6149C59.2809 64.2488 59.0752 63.7521 59.0752 63.2343C59.0729 62.9736 59.1257 62.7155 59.23 62.4766C59.3343 62.2377 59.4878 62.0235 59.6805 61.848ZM47.3601 72.9969V71.0444H61.6916L61.633 71.103C60.9792 71.6432 60.3658 72.2305 59.7977 72.8602C59.7586 72.8993 59.7 72.9383 59.6415 72.9969H47.3601ZM74.6954 108.142C74.6954 108.66 74.4897 109.157 74.1235 109.523C73.7574 109.889 73.2607 110.095 72.7429 110.095C72.225 110.095 71.7284 109.889 71.3622 109.523C70.9961 109.157 70.7904 108.66 70.7904 108.142V102.285H74.6954V108.142ZM109.841 108.142C109.841 108.66 109.635 109.157 109.269 109.523C108.903 109.889 108.406 110.095 107.888 110.095C107.37 110.095 106.874 109.889 106.508 109.523C106.141 109.157 105.936 108.66 105.936 108.142V102.285H109.841V108.142ZM107.888 98.3797H72.7429C70.0359 98.3826 67.3891 97.5808 65.1388 96.0762C62.8885 94.5715 61.1363 92.432 60.1046 89.9293C59.073 87.4266 58.8086 84.6737 59.3449 82.0204C59.8813 79.3671 61.1942 76.933 63.1169 75.0275C63.197 74.9446 63.2817 74.8664 63.3708 74.7932C63.6832 74.5004 64.0151 74.2075 64.3666 73.9341C64.4819 73.8322 64.606 73.7407 64.7375 73.6608C65.1766 73.3214 65.6399 73.0147 66.1238 72.7431C66.2605 72.6845 66.3386 72.5478 66.4362 72.4502C66.5668 72.3623 66.6851 72.2572 66.7877 72.1378C66.8463 72.0402 66.8658 71.9035 66.9244 71.7864C67.0031 71.6316 67.0621 71.4676 67.1001 71.2982V71.2787L67.1196 71.142L67.3539 69.3457V69.3066L69.0526 55.678C69.476 52.3756 71.0863 49.34 73.5833 47.1377C76.0803 44.9353 79.2932 43.7166 82.6227 43.7091H98.0085C101.338 43.7166 104.551 44.9353 107.048 47.1377C109.545 49.34 111.155 52.3756 111.579 55.678L113.531 71.2787C113.564 71.5833 113.67 71.8754 113.84 72.1303C114.01 72.3853 114.239 72.5954 114.507 72.7431C117.164 74.2077 119.258 76.5145 120.459 79.3001C121.66 82.0857 121.9 85.1917 121.142 88.1288C120.384 91.066 118.67 93.6675 116.27 95.5234C113.871 97.3793 110.922 98.3841 107.888 98.3797Z" fill="#200A52"/>
<path d="M80.553 3.90505H78.6005V1.95252C78.6005 0.874175 77.7263 0 76.648 0C75.5696 0 74.6955 0.874174 74.6955 1.95252V3.90505H70.7904V1.95252C70.7904 0.874175 69.9162 0 68.8379 0C67.7595 0 66.8854 0.874174 66.8854 1.95252V3.90505H59.0753V1.95252C59.0753 0.874176 58.2011 0 57.1227 0C56.0444 0 55.1702 0.874174 55.1702 1.95252V3.90505H51.2652V1.95252C51.2652 0.874176 50.391 0 49.3126 0C48.2343 0 47.3601 0.874174 47.3601 1.95252V3.90505H45.4076C44.8898 3.90505 44.3931 4.11076 44.027 4.47693C43.6608 4.8431 43.4551 5.33973 43.4551 5.85757V29.2879C43.4551 29.8057 43.6608 30.3023 44.027 30.6685C44.3931 31.0347 44.8898 31.2404 45.4076 31.2404H80.553C81.0709 31.2404 81.5675 31.0347 81.9337 30.6685C82.2998 30.3023 82.5056 29.8057 82.5056 29.2879V5.85757C82.5056 5.33973 82.2998 4.8431 81.9337 4.47693C81.5675 4.11076 81.0709 3.90505 80.553 3.90505ZM78.6005 27.3353H47.3601V7.81009H78.6005V27.3353Z" fill="#44E0B7"/>
<path d="M64.4661 10.4462C64.2761 10.2429 64.0464 10.0807 63.7911 9.96983C63.5358 9.85897 63.2605 9.80176 62.9822 9.80176C62.7039 9.80176 62.4285 9.85897 62.1733 9.96983C61.918 10.0807 61.6882 10.2429 61.4983 10.4462C61.0492 10.9734 57.1246 15.679 57.1246 19.5255C57.0377 20.3159 57.1294 21.1158 57.393 21.866C57.6566 22.6162 58.0854 23.2976 58.6477 23.8599C59.21 24.4222 59.8914 24.851 60.6417 25.1146C61.3919 25.3783 62.1917 25.47 62.9822 25.383C63.7726 25.47 64.5725 25.3783 65.3227 25.1146C66.0729 24.851 66.7543 24.4222 67.3166 23.8599C67.8789 23.2976 68.3077 22.6162 68.5713 21.866C68.835 21.1158 68.9267 20.3159 68.8397 19.5255C68.8397 15.679 64.9152 10.9734 64.4661 10.4462ZM62.9822 21.478C61.4202 21.478 61.0297 21.2437 61.0297 19.5255C61.2979 17.8719 61.9684 16.3097 62.9822 14.9761C63.9896 16.3134 64.6594 17.874 64.9347 19.5255C64.9347 21.2437 64.5442 21.478 62.9822 21.478Z" fill="#44E0B7"/>
<path d="M18.0722 59.3291H10.2621C9.18374 59.3291 8.30957 60.2033 8.30957 61.2816C8.30957 62.36 9.18374 63.2341 10.2621 63.2341H18.0722C19.1505 63.2341 20.0247 62.36 20.0247 61.2816C20.0247 60.2033 19.1505 59.3291 18.0722 59.3291Z" fill="#200A52"/>
<rect x="54.9814" y="35" width="73" height="81" fill="white"/>
<g clip-path="url(#clip0)">
<path d="M70.5598 41.3784L70.5615 41.3784C73.0349 41.3811 75.4063 42.3647 77.1555 44.1135C78.9045 45.8622 79.8886 48.2333 79.8918 50.7066M70.5598 41.3784L79.7751 50.7072M70.5598 41.3784C68.0961 41.4109 65.7425 42.404 64.0002 44.1462C62.258 45.8884 61.2649 48.2421 61.2325 50.7057H61.2325L61.2325 50.7078C61.2415 52.6294 61.8765 54.4944 63.0392 56.0211C60.5031 57.3372 58.3524 59.2909 56.7993 61.691C55.2207 64.1305 54.3157 66.9444 54.1762 69.8468C54.0368 72.7492 54.6678 75.6369 56.0053 78.2165C57.333 80.7772 59.3098 82.9439 61.7374 84.5001L61.7374 108.482L61.7374 108.483C61.7626 110.443 62.5641 112.313 63.9661 113.683C65.3679 115.053 67.2556 115.811 69.2154 115.791C69.2156 115.791 69.2158 115.791 69.2161 115.791L72.0777 115.791H72.0778C74.0156 115.789 75.8734 115.018 77.2437 113.648C78.6139 112.277 79.3847 110.42 79.3869 108.482V108.482V84.5441C81.7732 83.0998 83.7428 81.0591 85.1016 78.6222C86.471 76.1662 87.172 73.3939 87.1345 70.5821M70.5598 41.3784L87.1345 70.5821M79.8918 50.7066C79.8918 50.7067 79.8918 50.7069 79.8918 50.707L79.7751 50.7072M79.8918 50.7066C79.8918 50.7065 79.8918 50.7064 79.8918 50.7064L79.7751 50.7072M79.8918 50.7066C79.9053 52.6567 79.2975 54.5592 78.1583 56.1391M79.7751 50.7072C79.7885 52.6392 79.1842 54.5239 78.0521 56.087C78.0876 56.1042 78.123 56.1216 78.1583 56.1391M78.1583 56.1391C80.829 57.4611 83.0821 59.4974 84.6669 62.0231C86.2764 64.588 87.1315 67.5541 87.1345 70.5821M78.1583 56.1391C78.1353 56.1711 78.112 56.203 78.0885 56.2347C80.7477 57.5469 82.9912 59.572 84.5681 62.0851C86.166 64.6317 87.015 67.5767 87.0178 70.5832L87.1345 70.5821M66.4839 58.9902L66.4837 58.9901C66.3336 58.9042 66.185 58.8151 66.0396 58.7173C66.0051 58.694 65.9688 58.6733 65.9281 58.6501C65.9229 58.6472 65.9176 58.6442 65.9123 58.6411C65.8839 58.6249 65.8536 58.6074 65.8232 58.5879C63.4366 59.5488 61.3873 61.1947 59.934 63.3189C58.4692 65.46 57.6767 67.9895 57.6579 70.5837C57.6547 72.4547 58.0516 74.3048 58.8222 76.0098C59.5667 77.6571 60.6432 79.1322 61.9837 80.343C62.1928 79.5794 62.527 78.8551 62.9731 78.1999C63.0246 78.1235 63.0868 78.047 63.1447 77.9756C63.1765 77.9365 63.2071 77.8989 63.2339 77.8638C63.234 77.8636 63.2342 77.8634 63.2343 77.8633L63.3271 77.934C63.5036 77.6972 63.6944 77.4713 63.8985 77.2577L66.4839 58.9902ZM66.4839 58.9902C66.7342 59.1328 66.9927 59.2604 67.258 59.3725L67.3034 59.265L67.2577 59.3724C67.2737 59.3792 67.2898 59.3861 67.3059 59.393C67.4451 59.4525 67.5881 59.5136 67.7374 59.5653L67.7384 59.5657M66.4839 58.9902L67.7384 59.5657M67.7384 59.5657C68.0389 59.6667 68.345 59.7497 68.6553 59.8144C68.7023 59.8246 68.7522 59.837 68.8039 59.8497C68.8992 59.8733 69.0005 59.8983 69.0997 59.9144C69.5826 59.9946 70.0713 60.0358 70.5609 60.0376L70.5617 60.0376C71.0359 60.036 71.5092 59.999 71.9779 59.9272C72.0731 59.9129 72.1708 59.8905 72.263 59.8694C72.314 59.8577 72.3632 59.8465 72.4094 59.8371C72.7144 59.7791 73.016 59.7046 73.3129 59.6139L73.314 59.6136M67.7384 59.5657L73.314 59.6136M73.314 59.6136C73.4479 59.5713 73.5774 59.5209 73.7031 59.4719C73.7316 59.4608 73.7598 59.4498 73.7878 59.439L73.314 59.6136ZM76.3912 50.706L76.391 50.706L76.3913 50.7121C76.4288 51.6081 76.2331 52.4985 75.8235 53.2962C75.4142 54.093 74.8055 54.7702 74.0566 55.2616C73.9672 55.3141 73.8826 55.3745 73.8039 55.442C72.8911 56.1846 71.7412 56.5734 70.5649 56.5371L70.5649 56.5367L70.5553 56.5372C69.9799 56.5672 69.4045 56.4786 68.8649 56.2768C68.3256 56.0752 67.8335 55.765 67.4191 55.3653C67.3292 55.2751 67.2295 55.1951 67.1219 55.127C66.3871 54.6477 65.7838 53.9925 65.3666 53.2208C64.9494 52.4491 64.7316 51.5853 64.7331 50.708C64.7535 49.1684 65.3742 47.6976 66.4629 46.6088C67.5519 45.5199 69.0229 44.8992 70.5627 44.879C71.3303 44.8707 72.0918 45.0157 72.8026 45.3055C73.5134 45.5953 74.1592 46.0242 74.7021 46.567C75.245 47.1097 75.674 47.7554 75.9641 48.4661C76.2541 49.1769 76.3993 49.9384 76.3912 50.706ZM75.8863 82.2059V108.481C75.8728 109.487 75.4671 110.448 74.7556 111.159C74.0441 111.871 73.0829 112.277 72.0768 112.29C72.0766 112.29 72.0764 112.29 72.0762 112.29L69.2149 112.29L69.2126 112.29C68.1806 112.31 67.1828 111.92 66.4378 111.206C65.693 110.492 65.2616 109.512 65.238 108.48V82.2064C65.2619 81.1752 65.6934 80.1954 66.4381 79.4816C67.1831 78.7675 68.1808 78.3778 69.2126 78.3981H69.2149H72.0767C73.0827 78.4113 74.0438 78.8167 74.7553 79.528C75.4668 80.2392 75.8726 81.2 75.8863 82.2059Z" fill="#200A52" stroke="#200A52" stroke-width="0.233372"/>
<path d="M57.8705 84.438H57.8705C57.4063 84.438 56.9611 84.6224 56.6329 84.9507C56.3047 85.2789 56.1203 85.7241 56.1202 86.1883V95.2H52.243C51.7788 95.2 51.3336 95.3844 51.0053 95.7126C50.6771 96.0409 50.4927 96.4861 50.4927 96.9503C50.4927 97.4145 50.6771 97.8597 51.0053 98.1879C51.3336 98.5162 51.7788 98.7006 52.243 98.7006H57.8704C58.3346 98.7006 58.7798 98.5162 59.1081 98.1879C59.4363 97.8597 59.6207 97.4145 59.6207 96.9503V86.1883C59.6207 85.7241 59.4363 85.2789 59.1081 84.9507C58.7799 84.6225 58.3347 84.438 57.8705 84.438Z" fill="#200A52" stroke="#200A52" stroke-width="0.233372"/>
<path d="M88.9507 95.2H85.0743V86.1883C85.0743 85.7241 84.8899 85.2789 84.5617 84.9507C84.2334 84.6224 83.7882 84.438 83.324 84.438C82.8598 84.438 82.4146 84.6224 82.0864 84.9507C81.7581 85.2789 81.5737 85.7241 81.5737 86.1883V96.9503C81.5738 97.4145 81.7582 97.8597 82.0864 98.1879C82.4147 98.5161 82.8598 98.7005 83.324 98.7006H88.9507C89.4149 98.7006 89.8601 98.5162 90.1884 98.1879C90.5166 97.8597 90.701 97.4145 90.701 96.9503C90.701 96.4861 90.5166 96.0409 90.1884 95.7126C89.8601 95.3844 89.4149 95.2 88.9507 95.2Z" fill="#200A52" stroke="#200A52" stroke-width="0.233372"/>
<path d="M59.6206 50.7088C59.6206 50.2446 59.4361 49.7994 59.1079 49.4712C58.7797 49.1429 58.3345 48.9585 57.8703 48.9585H48.3582C47.894 48.9585 47.4488 49.1429 47.1206 49.4712C46.7923 49.7994 46.6079 50.2446 46.6079 50.7088C46.6079 51.173 46.7923 51.6182 47.1206 51.9464C47.4488 52.2747 47.894 52.4591 48.3582 52.4591H57.8703C58.3345 52.4591 58.7796 52.2746 59.1079 51.9464C59.4361 51.6182 59.6205 51.173 59.6206 50.7088Z" fill="#200A52" stroke="#200A52" stroke-width="0.233372"/>
<path d="M93.7067 48.9585H84.1946C83.7304 48.9585 83.2852 49.1429 82.957 49.4712C82.6288 49.7994 82.4443 50.2446 82.4443 50.7088C82.4443 51.173 82.6288 51.6182 82.957 51.9464C83.2852 52.2747 83.7304 52.4591 84.1946 52.4591H93.7067C94.1709 52.4591 94.6161 52.2747 94.9443 51.9464C95.2726 51.6182 95.457 51.173 95.457 50.7088C95.457 50.2446 95.2726 49.7994 94.9443 49.4712C94.6161 49.1429 94.1709 48.9585 93.7067 48.9585Z" fill="#200A52" stroke="#200A52" stroke-width="0.233372"/>
</g>
<defs>
<clipPath id="clip0">
<rect width="49.0081" height="75.1457" fill="white" transform="translate(46.5288 41.0098)"/>
</clipPath>
</defs>
</svg>
