<svg width="152" height="114" viewBox="0 0 152 114" fill="none" xmlns="http://www.w3.org/2000/svg">
<path d="M141.798 65.0593C142.37 65.0593 142.918 64.8322 143.322 64.428C143.727 64.0237 143.954 63.4755 143.954 62.9038V54.2817C144.074 50.1166 142.853 46.0231 140.469 42.6053C138.086 39.1875 134.667 36.6264 130.717 35.3001L128.8 25.6757C128.123 21.0596 125.813 16.8395 122.288 13.7824C118.764 10.7252 114.26 9.03384 109.595 9.01562H100.714C96.0674 9.02771 91.5787 10.7025 88.0599 13.7369C84.5411 16.7714 82.2247 20.9651 81.5296 25.5593L79.5897 35.3023C77.2331 36.0617 75.051 37.2821 73.1704 38.8926C71.2898 40.5031 69.7482 42.4714 68.6353 44.6831C67.1329 47.6595 66.3517 50.9476 66.3547 54.2817V62.9038C66.3547 63.4755 66.5818 64.0237 66.9861 64.428C67.3903 64.8322 67.9386 65.0593 68.5103 65.0593H75.1924C75.5249 66.6278 76.2064 68.1012 77.1862 69.3704H62.0437V28.4154C62.0437 26.7003 61.3624 25.0555 60.1497 23.8428C58.9369 22.6301 57.2921 21.9488 55.5771 21.9488H33.483C31.9152 21.9578 30.4029 22.5304 29.2224 23.5621C28.0419 24.5938 27.2719 26.0158 27.053 27.5682L25.2833 41.9284L23.4942 56.4372H16.7776C13.9203 56.4406 11.1809 57.5772 9.16048 59.5977C7.14002 61.6181 6.00342 64.3575 6 67.2148L6 88.7701C6.00342 91.6274 7.14002 94.3668 9.16048 96.3872C11.1809 98.4077 13.9203 99.5443 16.7776 99.5477H25.5722C26.0876 103.136 27.8795 106.419 30.6192 108.793C33.359 111.168 36.8629 112.475 40.4884 112.475C44.1139 112.475 47.6178 111.168 50.3576 108.793C53.0974 106.419 54.8893 103.136 55.4047 99.5477H96.7045C97.2199 103.136 99.0118 106.419 101.752 108.793C104.491 111.168 107.995 112.475 111.621 112.475C115.246 112.475 118.75 111.168 121.49 108.793C124.23 106.419 126.022 103.136 126.537 99.5477H133.176C136.033 99.5443 138.773 98.4077 140.793 96.3872C142.814 94.3668 143.95 91.6274 143.954 88.7701V71.5259C143.954 70.9542 143.727 70.4059 143.322 70.0017C142.918 69.5975 142.37 69.3704 141.798 69.3704H133.12C134.1 68.1012 134.781 66.6278 135.114 65.0593H141.798ZM70.8964 51.6476C70.9762 51.1325 71.0667 50.6194 71.1939 50.115C71.2564 49.865 71.3405 49.6257 71.4094 49.38C71.5388 48.9489 71.6746 48.5178 71.8405 48.1061C71.8793 48.0069 71.9268 47.9121 71.9677 47.8151H72.8213C73.393 47.8151 73.9413 48.0422 74.3455 48.4464C74.7497 48.8507 74.9768 49.3989 74.9768 49.9706C74.9778 50.258 74.9197 50.5424 74.8062 50.8064C74.6928 51.0704 74.5264 51.3083 74.3172 51.5054C74.1227 51.7044 73.8898 51.862 73.6327 51.9687C73.3757 52.0754 73.0996 52.129 72.8213 52.1261H70.8102C70.8317 51.9645 70.8813 51.8093 70.8964 51.6476ZM70.6658 56.4372H72.8213C74.5337 56.4287 76.1736 55.7447 77.3845 54.5338C78.5954 53.3229 79.2794 51.683 79.2879 49.9706C79.2825 48.5419 78.8042 47.1552 77.9276 46.027C77.0509 44.8989 75.8254 44.0928 74.4423 43.7347C76.3677 41.4328 78.9902 39.8204 81.9133 39.1413C82.3211 39.0503 82.6937 38.8427 82.9857 38.5438C83.2777 38.2449 83.4765 37.8676 83.558 37.4578L85.776 26.2835C86.3028 22.6934 88.1001 19.4114 90.8411 17.0338C93.5822 14.6562 97.0853 13.3409 100.714 13.3267H109.595C113.242 13.3469 116.761 14.6789 119.507 17.0792C122.254 19.4795 124.045 22.7879 124.554 26.3999L126.753 37.4578C126.834 37.8676 127.033 38.2449 127.325 38.5438C127.617 38.8427 127.989 39.0503 128.397 39.1413C131.719 40.0015 134.646 41.9727 136.692 44.7271C138.737 47.4816 139.779 50.8533 139.643 54.2817V60.7483H135.116C135.116 60.7095 135.09 60.675 135.082 60.6362C134.948 60.0224 134.762 59.4216 134.523 58.8406C134.439 58.6358 134.327 58.4483 134.23 58.25C134.045 57.854 133.836 57.4696 133.605 57.0989C133.467 56.8834 133.312 56.6916 133.159 56.4889C132.922 56.1657 132.668 55.8562 132.396 55.5621C132.215 55.3702 132.027 55.1913 131.833 55.0124C131.544 54.7455 131.241 54.4951 130.924 54.2623C130.708 54.1049 130.492 53.954 130.277 53.8118C129.933 53.5994 129.578 53.4065 129.212 53.2341C128.984 53.122 128.759 53.0056 128.522 52.9108C128.1 52.7516 127.668 52.6184 127.229 52.512C127.013 52.4559 126.811 52.3827 126.593 52.3395C125.242 52.0637 123.849 52.0637 122.498 52.3395C122.282 52.3827 122.066 52.4559 121.862 52.512C121.423 52.6184 120.991 52.7516 120.568 52.9108C120.331 53.0056 120.107 53.1263 119.879 53.2341C119.513 53.4065 119.158 53.5994 118.814 53.8118C118.598 53.954 118.383 54.1049 118.167 54.2623C117.85 54.4951 117.546 54.7455 117.257 55.0124C117.063 55.1913 116.876 55.3702 116.695 55.5621C116.423 55.8562 116.168 56.1657 115.932 56.4889C115.779 56.6916 115.624 56.8855 115.486 57.0989C115.254 57.4696 115.045 57.854 114.861 58.25C114.764 58.4483 114.645 58.6358 114.567 58.8406C114.329 59.4216 114.142 60.0224 114.009 60.6362C114.009 60.675 113.983 60.7095 113.975 60.7483H96.3165C96.3165 60.7095 96.2907 60.675 96.282 60.6362C96.1489 60.0224 95.9621 59.4216 95.7238 58.8406C95.6397 58.6358 95.5276 58.4483 95.4306 58.25C95.2458 57.854 95.037 57.4696 94.8055 57.0989C94.6676 56.8834 94.5124 56.6916 94.3593 56.4889C94.1229 56.1657 93.8681 55.8562 93.5963 55.5621C93.4152 55.3702 93.2277 55.1913 93.0337 55.0124C92.7447 54.7455 92.4411 54.4951 92.124 54.2623C91.9085 54.1049 91.6929 53.954 91.4774 53.8118C91.1335 53.5994 90.778 53.4065 90.4126 53.2341C90.1841 53.122 89.9599 53.0056 89.7228 52.9108C89.3002 52.7516 88.8683 52.6184 88.4295 52.512C88.2139 52.4559 88.0113 52.3827 87.7936 52.3395C86.4424 52.0637 85.0493 52.0637 83.6981 52.3395C83.4825 52.3827 83.267 52.4559 83.0622 52.512C82.6234 52.6184 82.1915 52.7516 81.7689 52.9108C81.5318 53.0056 81.3076 53.1263 81.0791 53.2341C80.7136 53.4065 80.3581 53.5994 80.0143 53.8118C79.7987 53.954 79.5832 54.1049 79.3676 54.2623C79.0506 54.4951 78.7469 54.7455 78.458 55.0124C78.264 55.1913 78.0765 55.3702 77.8954 55.5621C77.6236 55.8562 77.3688 56.1657 77.1324 56.4889C76.9793 56.6916 76.8241 56.8855 76.6862 57.0989C76.4547 57.4696 76.2459 57.854 76.0611 58.25C75.9641 58.4483 75.8455 58.6358 75.7679 58.8406C75.5296 59.4216 75.3428 60.0224 75.2096 60.6362C75.2096 60.675 75.1838 60.7095 75.1751 60.7483H70.6658V56.4372ZM96.3165 65.0593H113.992C114.324 66.6278 115.006 68.1012 115.986 69.3704H94.3205C95.3011 68.1014 95.9834 66.628 96.3165 65.0593ZM79.2879 62.9038C79.2879 61.6248 79.6671 60.3746 80.3777 59.3111C81.0883 58.2477 82.0982 57.4189 83.2798 56.9294C84.4614 56.44 85.7616 56.3119 87.016 56.5615C88.2704 56.811 89.4227 57.4268 90.327 58.3312C91.2314 59.2356 91.8473 60.3878 92.0968 61.6422C92.3463 62.8966 92.2182 64.1968 91.7288 65.3784C91.2394 66.56 90.4105 67.57 89.3471 68.2805C88.2837 68.9911 87.0334 69.3704 85.7545 69.3704C84.0394 69.3704 82.3946 68.6891 81.1819 67.4763C79.9692 66.2636 79.2879 64.6188 79.2879 62.9038ZM30.4954 34.8819H49.1105V56.4372H27.8376L29.3465 44.1507L30.4954 34.8819ZM16.7776 69.3704C17.3493 69.3704 17.8976 69.5975 18.3018 70.0017C18.7061 70.4059 18.9332 70.9542 18.9332 71.5259V75.8369C18.9332 76.4086 18.7061 76.9569 18.3018 77.3611C17.8976 77.7654 17.3493 77.9925 16.7776 77.9925H10.3111V69.3704H16.7776ZM10.3111 88.7701V82.3035H16.7776C18.4927 82.3035 20.1375 81.6222 21.3502 80.4095C22.5629 79.1968 23.2442 77.552 23.2442 75.8369V71.5259C23.2442 69.8108 22.5629 68.166 21.3502 66.9533C20.1375 65.7406 18.4927 65.0593 16.7776 65.0593H10.7077C11.1519 63.8028 11.9735 62.7143 13.06 61.9426C14.1465 61.1709 15.445 60.7538 16.7776 60.7483H51.266C51.8377 60.7483 52.386 60.5212 52.7902 60.1169C53.1945 59.7127 53.4216 59.1644 53.4216 58.5927V32.7264C53.4216 32.1547 53.1945 31.6065 52.7902 31.2022C52.386 30.798 51.8377 30.5709 51.266 30.5709H31.0278L31.3274 28.1351C31.4023 27.6161 31.6612 27.1413 32.0568 26.7971C32.4524 26.4529 32.9586 26.2622 33.483 26.2598H55.5771C56.1488 26.2598 56.697 26.4869 57.1013 26.8912C57.5055 27.2954 57.7326 27.8437 57.7326 28.4154V95.2367H55.4241C55.4003 95.0707 55.3594 94.9112 55.3292 94.7474C55.2926 94.5318 55.2581 94.3357 55.2128 94.133C55.1525 93.8614 55.0792 93.5942 54.9973 93.329C54.9434 93.1372 54.8938 92.9432 54.8313 92.7557C54.7429 92.4798 54.6373 92.2103 54.5338 91.9409C54.467 91.7706 54.4088 91.5981 54.3355 91.4322C54.2062 91.1304 54.0596 90.8394 53.9044 90.5484C53.8397 90.4234 53.7837 90.2919 53.7169 90.169C53.5013 89.7638 53.2534 89.3672 52.9948 88.9835C52.9301 88.8886 52.8568 88.8003 52.7792 88.7076C52.5788 88.4209 52.374 88.1385 52.1541 87.8691C52.042 87.7333 51.9213 87.6061 51.8049 87.4746C51.6152 87.2591 51.4256 87.0435 51.2251 86.828C51.0914 86.69 50.9492 86.5607 50.8091 86.4292C50.6108 86.2438 50.4125 86.0584 50.2055 85.8817C50.0546 85.7524 49.8973 85.6316 49.7399 85.5088C49.5244 85.345 49.3196 85.1854 49.0933 85.0324C48.9273 84.916 48.7592 84.8039 48.5867 84.694C48.3712 84.5517 48.1405 84.4159 47.912 84.2844C47.7353 84.1831 47.5542 84.084 47.3732 83.9891C47.1382 83.8684 46.8968 83.7542 46.6554 83.6443C46.47 83.5602 46.2846 83.4761 46.0971 83.4007C45.8427 83.2972 45.5841 83.2067 45.3254 83.1161C45.1357 83.0536 44.9504 82.9847 44.7585 82.9286C44.4826 82.8467 44.2024 82.7799 43.9222 82.7131C43.7368 82.67 43.5557 82.6204 43.3682 82.5837C43.0535 82.5212 42.7215 82.4781 42.409 82.4372C42.2495 82.4156 42.0921 82.3854 41.9305 82.3703C41.48 82.3315 40.9863 82.3035 40.4884 82.3035C39.9905 82.3035 39.4969 82.3315 39.0119 82.379C38.8502 82.394 38.6929 82.4242 38.5334 82.4458C38.21 82.4867 37.8867 82.5298 37.5741 82.5924C37.3866 82.629 37.2055 82.6786 37.0202 82.7217C36.74 82.7885 36.4597 82.8553 36.1838 82.9372C35.992 82.9933 35.8066 83.0623 35.6169 83.1248C35.3583 83.2153 35.0996 83.3058 34.8452 83.4093C34.6577 83.4847 34.4723 83.5688 34.287 83.6529C34.0455 83.7628 33.8041 83.8684 33.5692 83.9978C33.3881 84.0926 33.207 84.1918 33.0303 84.2931C32.8018 84.4246 32.5755 84.5603 32.3556 84.7026C32.1832 84.8125 32.015 84.9182 31.8491 85.041C31.6335 85.1941 31.418 85.3536 31.2024 85.5174C31.0451 85.6403 30.8877 85.761 30.7368 85.8903C30.5213 86.0671 30.3316 86.2524 30.1333 86.4378C29.9932 86.5693 29.8509 86.6986 29.7173 86.8366C29.5168 87.0414 29.3271 87.2677 29.1374 87.4832C29.021 87.6147 28.9003 87.7419 28.7882 87.8777C28.5727 88.1471 28.3571 88.4295 28.1631 88.7162C28.0963 88.8089 28.023 88.8973 27.9583 88.9921C27.6997 89.3758 27.4604 89.7724 27.2362 90.1777C27.1694 90.3005 27.1134 90.432 27.0487 90.557C26.9 90.848 26.7534 91.139 26.6176 91.4408C26.5443 91.6068 26.4861 91.7792 26.4193 91.9495C26.3158 92.2189 26.2037 92.4884 26.1218 92.7643C26.0593 92.9518 26.0097 93.1458 25.9559 93.3377C25.8826 93.6028 25.8093 93.8701 25.7403 94.1417C25.695 94.3443 25.6606 94.5512 25.6239 94.756C25.5937 94.9198 25.5528 95.0793 25.5291 95.2453H16.7776C15.9277 95.2453 15.0861 95.0777 14.301 94.7522C13.5159 94.4267 12.8026 93.9496 12.202 93.3482C11.6014 92.7468 11.1253 92.033 10.8008 91.2474C10.4763 90.4618 10.3099 89.62 10.3111 88.7701ZM40.4884 108.17C38.3568 108.17 36.2731 107.538 34.5007 106.353C32.7283 105.169 31.3469 103.486 30.5312 101.517C29.7154 99.5473 29.502 97.3802 29.9179 95.2896C30.3337 93.1989 31.3602 91.2785 32.8675 89.7713C34.3748 88.264 36.2951 87.2375 38.3858 86.8217C40.4765 86.4058 42.6435 86.6192 44.6128 87.435C46.5822 88.2507 48.2654 89.6321 49.4497 91.4045C50.6339 93.1768 51.266 95.2606 51.266 97.3922C51.2626 100.25 50.126 102.989 48.1056 105.009C46.0851 107.03 43.3458 108.166 40.4884 108.17ZM111.621 108.17C109.489 108.17 107.405 107.538 105.633 106.353C103.861 105.169 102.479 103.486 101.664 101.517C100.848 99.5473 100.634 97.3802 101.05 95.2896C101.466 93.1989 102.493 91.2785 104 89.7713C105.507 88.264 107.428 87.2375 109.518 86.8217C111.609 86.4058 113.776 86.6192 115.745 87.435C117.715 88.2507 119.398 89.6321 120.582 91.4045C121.766 93.1768 122.398 95.2606 122.398 97.3922C122.395 100.25 121.258 102.989 119.238 105.009C117.217 107.03 114.478 108.166 111.621 108.17ZM139.643 86.6146H131.021V90.9256H139.246C138.802 92.1821 137.98 93.2706 136.894 94.0423C135.807 94.814 134.509 95.2311 133.176 95.2367H126.556C126.533 95.0707 126.492 94.9112 126.462 94.7474C126.425 94.5318 126.39 94.3357 126.345 94.133C126.285 93.8614 126.212 93.5942 126.13 93.329C126.076 93.1372 126.026 92.9432 125.964 92.7557C125.875 92.4798 125.77 92.2103 125.666 91.9409C125.599 91.7706 125.541 91.5981 125.468 91.4322C125.339 91.1304 125.192 90.8394 125.037 90.5484C124.972 90.4234 124.916 90.2919 124.849 90.169C124.634 89.7638 124.386 89.3672 124.127 88.9835C124.062 88.8886 123.989 88.8003 123.922 88.7076C123.722 88.4209 123.517 88.1385 123.297 87.8691C123.185 87.7333 123.064 87.6061 122.948 87.4746C122.758 87.2591 122.569 87.0435 122.368 86.828C122.235 86.69 122.092 86.5607 121.952 86.4292C121.754 86.2438 121.556 86.0584 121.349 85.8817C121.198 85.7524 121.04 85.6316 120.883 85.5088C120.668 85.345 120.452 85.1854 120.236 85.0324C120.07 84.916 119.902 84.8039 119.73 84.694C119.514 84.5517 119.284 84.4159 119.055 84.2844C118.878 84.1831 118.697 84.084 118.516 83.9891C118.281 83.8684 118.04 83.7542 117.799 83.6443C117.613 83.5602 117.428 83.4761 117.24 83.4007C116.986 83.2972 116.727 83.2067 116.469 83.1161C116.279 83.0536 116.093 82.9847 115.902 82.9286C115.626 82.8467 115.346 82.7799 115.065 82.7131C114.88 82.67 114.699 82.6204 114.511 82.5837C114.197 82.5212 113.875 82.4781 113.552 82.4372C113.393 82.4156 113.235 82.3854 113.074 82.3703C112.612 82.3315 112.119 82.3035 111.621 82.3035C111.123 82.3035 110.629 82.3315 110.144 82.379C109.983 82.394 109.825 82.4242 109.666 82.4458C109.342 82.4867 109.019 82.5298 108.706 82.5924C108.519 82.629 108.338 82.6786 108.153 82.7217C107.872 82.7885 107.592 82.8553 107.316 82.9372C107.124 82.9933 106.939 83.0623 106.749 83.1248C106.491 83.2153 106.232 83.3058 105.978 83.4093C105.79 83.4847 105.605 83.5688 105.419 83.6529C105.178 83.7628 104.936 83.8684 104.702 83.9978C104.52 84.0926 104.339 84.1918 104.163 84.2931C103.934 84.4246 103.708 84.5603 103.488 84.7026C103.316 84.8125 103.147 84.9182 102.981 85.041C102.766 85.1941 102.55 85.3536 102.335 85.5174C102.177 85.6403 102.02 85.761 101.869 85.8903C101.654 86.0671 101.464 86.2524 101.266 86.4378C101.126 86.5693 100.983 86.6986 100.85 86.8366C100.649 87.0414 100.459 87.2677 100.27 87.4832C100.153 87.6147 100.033 87.7419 99.9206 87.8777C99.705 88.1471 99.4895 88.4295 99.2955 88.7162C99.2287 88.8089 99.1554 88.8973 99.0907 88.9921C98.832 89.3758 98.5928 89.7724 98.3686 90.1777C98.3018 90.3005 98.2457 90.432 98.1811 90.557C98.0323 90.848 97.8858 91.139 97.75 91.4408C97.6767 91.6068 97.6185 91.7792 97.5517 91.9495C97.4482 92.2189 97.3361 92.4884 97.2542 92.7643C97.1917 92.9518 97.1421 93.1458 97.0882 93.3377C97.0149 93.6028 96.9416 93.8701 96.8727 94.1417C96.8274 94.3443 96.7929 94.5512 96.7563 94.756C96.7261 94.9198 96.6851 95.0793 96.6614 95.2453H62.0437V90.9256H92.221V86.6146H62.0437V73.6814H139.643V86.6146ZM118.087 62.9038C118.087 61.6248 118.467 60.3746 119.177 59.3111C119.888 58.2477 120.898 57.4189 122.079 56.9294C123.261 56.44 124.561 56.3119 125.815 56.5615C127.07 56.811 128.222 57.4268 129.126 58.3312C130.031 59.2356 130.647 60.3878 130.896 61.6422C131.146 62.8966 131.018 64.1968 130.528 65.3784C130.039 66.56 129.21 67.57 128.147 68.2805C127.083 68.9911 125.833 69.3704 124.554 69.3704C122.839 69.3704 121.194 68.6891 119.981 67.4763C118.769 66.2636 118.087 64.6188 118.087 62.9038Z" fill="#200A52"/>
<rect x="62" y="6" width="83" height="63.4" fill="white"/>
<path d="M86.9929 47.5793L82.6275 54.9701L82.6274 54.9703C82.1002 55.8644 82.396 57.0187 83.29 57.5483M86.9929 47.5793L90.0419 49.3257C90.1057 49.3819 90.1688 49.4391 90.231 49.4971M86.9929 47.5793C86.1273 47.2914 85.2061 47.1289 84.2477 47.1289C79.4002 47.1289 75.4565 51.0761 75.4565 55.9282C75.4565 60.7786 79.4002 64.7259 84.2477 64.7259C89.094 64.7259 93.0388 60.7786 93.0388 55.9271C93.0388 53.39 91.955 51.1048 90.231 49.4971M86.9929 47.5793L90.231 49.4971M83.29 57.5483L83.4174 57.3332L83.29 57.5483C83.29 57.5483 83.29 57.5483 83.29 57.5483ZM83.29 57.5483C83.5896 57.7258 83.9203 57.8107 84.2455 57.8107C84.889 57.8107 85.515 57.4794 85.8666 56.8854L85.8667 56.8852L90.231 49.4971M100.404 24.8729L100.477 24.75H100.62H108.151C109.191 24.75 110.033 25.5929 110.033 26.6325C110.033 27.672 109.191 28.5149 108.151 28.5149H102.624L99.6121 33.6147C100.228 33.4998 100.862 33.4347 101.514 33.4347H106.624C109.288 33.4347 111.719 34.4273 113.587 36.0499H129.817C132.557 36.0499 134.784 38.2799 134.784 41.021C134.784 42.1324 134.416 43.1571 133.798 43.9844C138.82 45.6274 142.461 50.3581 142.461 55.9277C142.461 62.8555 136.83 68.4914 129.908 68.4914C123.624 68.4914 118.409 63.8475 117.499 57.8101H101.572C100.793 57.8101 100.096 57.3306 99.8154 56.6042L99.8153 56.6041L95.7248 45.9753H92.7446H92.7445H92.7445H92.7444H92.7444H92.7443H92.7443H92.7442H92.7442H92.7441H92.7441H92.744H92.744H92.7439H92.7439H92.7438H92.7438H92.7437H92.7437H92.7436H92.7436H92.7435H92.7435H92.7434H92.7434H92.7433H92.7433H92.7432H92.7432H92.7431H92.7431H92.743H92.743H92.7429H92.7429H92.7428H92.7428H92.7427H92.7427H92.7426H92.7426H92.7425H92.7425H92.7424H92.7424H92.7423H92.7423H92.7422H92.7422H92.7421H92.7421H92.742H92.742H92.7419H92.7419H92.7418H92.7418H92.7417H92.7417H92.7416H92.7416H92.7415H92.7415H92.7414H92.7414H92.7413H92.7413H92.7412H92.7412H92.7411H92.7411H92.741H92.741H92.7409H92.7409H92.7408H92.7408H92.7407H92.7407H92.7406H92.7406H92.7405H92.7405H92.7404H92.7404H92.7403H92.7403H92.7402H92.7402H92.7401H92.7401H92.7401H92.74H92.74H92.7399H92.7399H92.7398H92.7398H92.7397H92.7397H92.7396H92.7396H92.7395H92.7395H92.7394H92.7394H92.7393H92.7393H92.7393H92.7392H92.7392H92.7391H92.7391H92.739H92.739H92.7389H92.7389H92.7388H92.7388H92.7387H92.7387H92.7387H92.7386H92.7386H92.7385H92.7385H92.7384H92.7384H92.7383H92.7383H92.7382H92.7382H92.7382H92.7381H92.7381H92.738H92.738H92.7379H92.7379H92.7379H92.7378H92.7378H92.7377H92.7377H92.7376H92.7376H92.7376H92.7375H92.7375H92.7374H92.7374H92.7373H92.7373H92.7373H92.7372H92.7372H92.7371H92.7371H92.737H92.737H92.737H92.7369H92.7369H92.7368H92.7368H92.7368H92.7367H92.7367H92.7366H92.7366H92.7366H92.7365H92.7365H92.7364H92.7364H92.7364H92.7363H92.7363H92.7362H92.7362H92.7362H92.7361H92.7361H92.7361H92.736H92.736H92.7359H92.7359H92.7359H92.7358H92.7358H92.7358H92.7357H92.7357H92.7356H92.7356H92.7356H92.7355H92.7355H92.7355H92.7354H92.7354H92.7354H92.7353H92.7353H92.7353H92.7352H92.7352H92.7352H92.7351H92.7351H92.7351H92.735H92.735H92.735H92.7349H92.7349H92.7349H92.7348H92.7348H92.7348H92.7347H92.7347H92.7347H92.7346H92.7346H92.7346H92.7345H92.7345H92.7345H92.7344H92.7344H92.7344H92.7344H92.7343H92.7343H92.7342H92.7342H92.7342H92.7341H92.7341H92.7341H92.734H92.734H92.7339H92.7339H92.7339H92.7338H92.7338H92.7337C92.5949 45.9753 92.463 45.9573 92.3382 45.9282L92.1777 46.1999C94.9951 48.5052 96.8005 52.008 96.8005 55.9277C96.8005 62.8555 91.1691 68.4914 84.2471 68.4914C77.324 68.4914 71.6937 62.8555 71.6937 55.9277C71.6937 48.9998 77.3251 43.3634 84.2477 43.3634C85.9068 43.3634 87.492 43.6877 88.9438 44.2759L100.404 24.8729ZM129.817 39.8143H116.363C116.697 40.572 116.943 41.3747 117.093 42.2117L129.817 42.2267C129.817 42.2267 129.817 42.2267 129.818 42.2267C130.482 42.2265 131.022 41.6857 131.022 41.0205C131.022 40.3552 130.482 39.8143 129.817 39.8143ZM129.908 57.8096H121.326C122.191 61.7591 125.707 64.7259 129.908 64.7259C134.754 64.7259 138.699 60.7786 138.699 55.9271C138.699 51.0751 134.754 47.1278 129.908 47.1278C125.707 47.1278 122.191 50.0946 121.326 54.0446H129.908C130.947 54.0446 131.789 54.8876 131.789 55.9271C131.789 56.9667 130.947 57.8096 129.908 57.8096ZM99.757 45.9747L102.863 54.0446H117.499C117.991 50.7773 119.743 47.9182 122.244 45.9826L115.389 45.9747H115.389H99.757ZM113.249 42.2098C112.429 39.3205 109.768 37.1991 106.623 37.1991H101.513C98.368 37.1991 95.7071 39.321 94.8872 42.2098H113.249Z" fill="#44E0B7" stroke="#44E0B7" stroke-width="0.5"/>
</svg>
