<svg width="829" height="402" viewBox="0 0 829 402" fill="none" xmlns="http://www.w3.org/2000/svg">
<path d="M1.00488 245.998C3.64981 241.589 10.5266 231.186 16.8745 224.838C24.8092 216.903 30.0991 209.85 44.2054 204.56C58.3116 199.271 71.5363 187.809 76.8261 157.833L78.5894 104.935H97.9856L106.802 109.343L115.618 104.935H159.701V165.768C161.758 171.646 168.517 185.164 179.097 192.217C182.035 190.454 187.913 176.877 187.913 136.674H209.954C208.191 160.184 216.126 210.732 261.971 224.838L273.244 215.412C291.387 200.24 314.321 191.991 337.971 192.127L353.5 192.217M552.031 186.046C561.142 178.699 585.005 169.295 607.575 190.454C630.145 211.614 651.069 210.438 658.71 207.205C666.351 201.915 686.217 181.461 704.556 141.964H726.597V106.698C730.711 107.58 739.645 106.874 742.466 97H806.826V157.833C813.879 161.36 827.986 171.411 827.986 183.401" stroke="black" stroke-width="1.1"/>
<path d="M371.748 101.035H401.531C401.574 101.023 401.604 100.983 401.604 100.938C401.604 100.893 401.574 100.854 401.531 100.841H371.748C371.705 100.854 371.675 100.893 371.675 100.938C371.675 100.983 371.705 101.023 371.748 101.035Z" fill="black"/>
<path d="M480.12 125.947H512.079C512.123 125.935 512.152 125.895 512.152 125.85C512.152 125.805 512.123 125.766 512.079 125.753H480.12C480.077 125.766 480.047 125.805 480.047 125.85C480.047 125.895 480.077 125.935 480.12 125.947Z" fill="black"/>
<path d="M264.626 315.718C264.669 315.706 264.699 315.667 264.699 315.622C264.699 315.577 264.669 315.537 264.626 315.525C264.582 315.537 264.553 315.577 264.553 315.622C264.553 315.667 264.582 315.706 264.626 315.718Z" fill="black"/>
<path d="M562.963 267.095H553.939V280.263L569.431 277.218C569.445 277.178 569.463 277.139 569.485 277.102C570.455 274.897 570.247 272.352 568.932 270.334C567.617 268.315 565.372 267.097 562.963 267.095V267.095Z" fill="black"/>
<path d="M574.315 257.092H582.611C582.994 257.095 583.329 256.835 583.422 256.463C585.195 248.293 584.157 239.865 582.385 231.707C582.293 231.337 581.961 231.078 581.581 231.078H570.11C561.179 231.078 553.939 238.318 553.939 247.25V268.462L566.509 265.992C568.351 262.032 565.359 257.438 574.315 257.092Z" fill="#E9E9E9"/>
<path d="M575.971 231.68C575.879 231.311 575.547 231.052 575.167 231.052H570.767C570.428 233.535 570.26 236.038 570.264 238.544C570.264 246.01 572.734 252.679 574.984 257.11H576.241C576.624 257.112 576.959 256.853 577.052 256.481C578.78 248.279 577.743 239.838 575.971 231.68Z" fill="#F4F4F4"/>
<path d="M581.372 257.091H582.629C583.012 257.094 583.347 256.834 583.44 256.462C585.213 248.292 584.176 239.864 582.403 231.706C582.311 231.336 581.979 231.077 581.599 231.077H577.199C576.86 233.56 576.692 236.063 576.696 238.569" stroke="black" stroke-width="0.641332"/>
<path fill-rule="evenodd" clip-rule="evenodd" d="M574.315 257.092H582.611C582.994 257.095 583.329 256.835 583.422 256.463C585.195 248.293 584.157 239.865 582.385 231.707C582.293 231.337 581.961 231.078 581.581 231.078H570.11C561.179 231.078 553.939 238.318 553.939 247.25V268.462L566.509 265.992C568.351 262.032 565.359 257.438 574.315 257.092V257.092Z" stroke="black" stroke-width="0.641332"/>
<mask id="path-10-inside-1" fill="white">
<path d="M345.542 322.2C345.542 322.2 345.887 322.016 346.499 321.805C347.113 321.587 347.997 321.334 349.065 321.221C350.13 321.113 351.392 321.115 352.765 321.397C354.15 321.649 355.585 322.336 357.22 323.038C360.489 324.443 364.451 326.168 368.967 328.218C371.221 329.254 373.62 330.356 376.148 331.518C378.662 332.718 381.304 333.979 384.063 335.295C389.565 337.962 395.501 340.915 401.765 344.072C408.031 347.229 414.646 350.537 421.505 353.919C424.944 355.583 428.442 357.276 431.982 358.989L432.646 359.31L432.813 359.39C432.527 359.288 432.783 359.382 432.742 359.368L432.827 359.403L433.169 359.544L434.535 360.11C435.278 360.31 435.928 360.627 436.803 360.737C437.627 360.942 438.477 360.952 439.325 361.015C440.266 361.036 441.303 361.021 442.292 361.027C450.293 361.03 458.422 361.033 466.55 361.038C474.679 361.036 482.807 361.035 490.809 361.033C494.81 361.031 498.778 361.03 502.699 361.028C504.661 361.027 506.609 361.025 508.544 361.025H508.907H508.998C508.548 361.044 508.924 361.027 508.848 361.03L509.028 361.018L509.75 360.969L510.471 360.919C510.685 360.895 510.768 360.838 510.923 360.806C511.21 360.708 511.453 360.733 511.79 360.58C512.115 360.45 512.443 360.327 512.773 360.211C514.031 359.592 515.13 358.694 515.983 357.616C516.174 357.33 516.392 357.062 516.579 356.775C516.728 356.465 516.883 356.159 517.044 355.856L517.166 355.622L517.3 355.302L517.568 354.664L518.105 353.393C519.529 350.014 520.924 346.707 522.281 343.489C524.99 337.05 527.553 330.964 529.863 325.321C530.444 323.912 531.013 322.532 531.569 321.184C531.847 320.51 532.122 319.844 532.393 319.185C532.52 318.883 532.94 317.756 532.924 317.532C532.97 317.34 533.019 317.13 533.036 316.861C533.063 316.613 533.105 316.366 533.091 316.119C533.113 315.626 533.061 315.139 532.988 314.665C532.832 313.716 532.498 312.822 532.029 312.048C531.101 310.485 529.72 309.386 528.261 308.85C528.077 308.788 527.894 308.727 527.713 308.665C527.55 308.603 527.236 308.525 527.008 308.456C526.514 308.315 526.03 308.178 525.558 308.043C524.613 307.774 523.712 307.518 522.857 307.274C519.441 306.286 516.737 305.576 514.902 305.062C513.061 304.567 512.079 304.304 512.079 304.304L513.949 298.09C513.949 298.09 514.913 298.412 516.722 299.015C518.536 299.599 521.183 300.499 524.576 301.561C525.424 301.829 526.317 302.113 527.253 302.41C527.722 302.558 528.201 302.71 528.69 302.865C528.953 302.953 529.143 303 529.472 303.121C529.785 303.238 530.1 303.356 530.42 303.475C532.936 304.517 535.374 306.46 536.941 309.196C538.523 311.929 539.192 315.352 538.339 318.94L538.158 319.649L537.982 320.157L537.806 320.656L537.658 321.045L537.558 321.293C537.291 321.953 537.021 322.621 536.748 323.298C536.201 324.65 535.641 326.033 535.07 327.445C532.767 333.09 530.336 339.231 527.762 345.725C526.477 348.973 525.157 352.309 523.808 355.72L523.301 357.002L523.047 357.646L522.917 357.968L522.734 358.357L521.954 359.932C521.648 360.431 521.299 360.908 520.962 361.394C519.532 363.275 517.66 364.842 515.498 365.919L513.814 366.592C513.273 366.825 512.542 366.94 511.905 367.093C511.591 367.156 511.211 367.244 510.948 367.275L510.229 367.334L509.507 367.393L509.327 367.408C509.191 367.414 509.507 367.405 508.997 367.424H508.906H508.543C506.609 367.422 504.659 367.421 502.698 367.421C498.777 367.419 494.809 367.418 490.808 367.416C482.807 367.415 474.678 367.414 466.549 367.411C458.42 367.415 450.292 367.419 442.291 367.422C441.283 367.421 440.275 367.419 439.27 367.418C438.128 367.388 436.987 367.357 435.856 367.207C434.753 367.121 433.503 366.853 432.322 366.623L430.892 366.24L430.535 366.145L430.445 366.12C430.346 366.087 430.543 366.162 430.199 366.038L430.022 365.984L429.316 365.767C425.556 364.614 421.842 363.474 418.189 362.354C410.862 360.166 403.763 358.09 397.024 356.14C390.286 354.191 383.926 352.316 378.08 350.526C375.163 349.613 372.367 348.74 369.71 347.91C367.066 347.04 364.559 346.216 362.201 345.442C357.496 343.871 353.419 342.439 350.069 341.244C348.393 340.647 346.874 340.174 345.687 339.416C344.489 338.688 343.563 337.831 342.856 337.027C342.151 336.217 341.675 335.43 341.373 334.853C341.069 334.281 340.941 333.912 340.941 333.912L345.542 322.2Z"/>
</mask>
<path d="M345.542 322.2C345.542 322.2 345.887 322.016 346.499 321.805C347.113 321.587 347.997 321.334 349.065 321.221C350.13 321.113 351.392 321.115 352.765 321.397C354.15 321.649 355.585 322.336 357.22 323.038C360.489 324.443 364.451 326.168 368.967 328.218C371.221 329.254 373.62 330.356 376.148 331.518C378.662 332.718 381.304 333.979 384.063 335.295C389.565 337.962 395.501 340.915 401.765 344.072C408.031 347.229 414.646 350.537 421.505 353.919C424.944 355.583 428.442 357.276 431.982 358.989L432.646 359.31L432.813 359.39C432.527 359.288 432.783 359.382 432.742 359.368L432.827 359.403L433.169 359.544L434.535 360.11C435.278 360.31 435.928 360.627 436.803 360.737C437.627 360.942 438.477 360.952 439.325 361.015C440.266 361.036 441.303 361.021 442.292 361.027C450.293 361.03 458.422 361.033 466.55 361.038C474.679 361.036 482.807 361.035 490.809 361.033C494.81 361.031 498.778 361.03 502.699 361.028C504.661 361.027 506.609 361.025 508.544 361.025H508.907H508.998C508.548 361.044 508.924 361.027 508.848 361.03L509.028 361.018L509.75 360.969L510.471 360.919C510.685 360.895 510.768 360.838 510.923 360.806C511.21 360.708 511.453 360.733 511.79 360.58C512.115 360.45 512.443 360.327 512.773 360.211C514.031 359.592 515.13 358.694 515.983 357.616C516.174 357.33 516.392 357.062 516.579 356.775C516.728 356.465 516.883 356.159 517.044 355.856L517.166 355.622L517.3 355.302L517.568 354.664L518.105 353.393C519.529 350.014 520.924 346.707 522.281 343.489C524.99 337.05 527.553 330.964 529.863 325.321C530.444 323.912 531.013 322.532 531.569 321.184C531.847 320.51 532.122 319.844 532.393 319.185C532.52 318.883 532.94 317.756 532.924 317.532C532.97 317.34 533.019 317.13 533.036 316.861C533.063 316.613 533.105 316.366 533.091 316.119C533.113 315.626 533.061 315.139 532.988 314.665C532.832 313.716 532.498 312.822 532.029 312.048C531.101 310.485 529.72 309.386 528.261 308.85C528.077 308.788 527.894 308.727 527.713 308.665C527.55 308.603 527.236 308.525 527.008 308.456C526.514 308.315 526.03 308.178 525.558 308.043C524.613 307.774 523.712 307.518 522.857 307.274C519.441 306.286 516.737 305.576 514.902 305.062C513.061 304.567 512.079 304.304 512.079 304.304L513.949 298.09C513.949 298.09 514.913 298.412 516.722 299.015C518.536 299.599 521.183 300.499 524.576 301.561C525.424 301.829 526.317 302.113 527.253 302.41C527.722 302.558 528.201 302.71 528.69 302.865C528.953 302.953 529.143 303 529.472 303.121C529.785 303.238 530.1 303.356 530.42 303.475C532.936 304.517 535.374 306.46 536.941 309.196C538.523 311.929 539.192 315.352 538.339 318.94L538.158 319.649L537.982 320.157L537.806 320.656L537.658 321.045L537.558 321.293C537.291 321.953 537.021 322.621 536.748 323.298C536.201 324.65 535.641 326.033 535.07 327.445C532.767 333.09 530.336 339.231 527.762 345.725C526.477 348.973 525.157 352.309 523.808 355.72L523.301 357.002L523.047 357.646L522.917 357.968L522.734 358.357L521.954 359.932C521.648 360.431 521.299 360.908 520.962 361.394C519.532 363.275 517.66 364.842 515.498 365.919L513.814 366.592C513.273 366.825 512.542 366.94 511.905 367.093C511.591 367.156 511.211 367.244 510.948 367.275L510.229 367.334L509.507 367.393L509.327 367.408C509.191 367.414 509.507 367.405 508.997 367.424H508.906H508.543C506.609 367.422 504.659 367.421 502.698 367.421C498.777 367.419 494.809 367.418 490.808 367.416C482.807 367.415 474.678 367.414 466.549 367.411C458.42 367.415 450.292 367.419 442.291 367.422C441.283 367.421 440.275 367.419 439.27 367.418C438.128 367.388 436.987 367.357 435.856 367.207C434.753 367.121 433.503 366.853 432.322 366.623L430.892 366.24L430.535 366.145L430.445 366.12C430.346 366.087 430.543 366.162 430.199 366.038L430.022 365.984L429.316 365.767C425.556 364.614 421.842 363.474 418.189 362.354C410.862 360.166 403.763 358.09 397.024 356.14C390.286 354.191 383.926 352.316 378.08 350.526C375.163 349.613 372.367 348.74 369.71 347.91C367.066 347.04 364.559 346.216 362.201 345.442C357.496 343.871 353.419 342.439 350.069 341.244C348.393 340.647 346.874 340.174 345.687 339.416C344.489 338.688 343.563 337.831 342.856 337.027C342.151 336.217 341.675 335.43 341.373 334.853C341.069 334.281 340.941 333.912 340.941 333.912L345.542 322.2Z" fill="#B7B7B7" stroke="black" stroke-width="1.58077" mask="url(#path-10-inside-1)"/>
<path d="M604.969 308.33C625.753 308.33 642.662 325.239 642.662 346.023C642.662 366.807 625.753 383.716 604.969 383.716C584.185 383.716 567.276 366.807 567.276 346.023C567.276 325.239 584.185 308.33 604.969 308.33ZM604.969 290.992C574.576 290.992 549.938 315.631 549.938 346.023C549.938 376.416 574.576 401.054 604.969 401.054C635.361 401.054 660 376.416 660 346.023C660 315.631 635.361 290.992 604.969 290.992Z" fill="black"/>
<path d="M604.969 312.853C623.258 312.853 638.138 327.733 638.138 346.023C638.138 364.313 623.258 379.192 604.969 379.192C586.679 379.192 571.799 364.313 571.799 346.023C571.799 327.733 586.679 312.853 604.969 312.853ZM604.969 308.33C584.185 308.33 567.276 325.239 567.276 346.023C567.276 366.807 584.185 383.716 604.969 383.716C625.753 383.716 642.662 366.807 642.662 346.023C642.662 325.239 625.753 308.33 604.969 308.33Z" fill="#E3E3E3"/>
<path d="M614.209 355.359C619.313 350.255 619.313 341.98 614.209 336.876C609.105 331.772 600.83 331.772 595.726 336.876C590.622 341.98 590.622 350.255 595.726 355.359C600.83 360.463 609.105 360.463 614.209 355.359Z" fill="#1A1A1A"/>
<path d="M559.208 307.33C559.208 307.33 565.135 299.279 576.823 293.253C588.51 287.227 598.848 286.695 598.848 286.695C598.848 286.695 598.383 289.145 596.244 290.991C594.104 292.838 589.771 293.18 581.657 297.012C573.544 300.845 566.523 306.654 566.523 306.654C566.523 306.654 567.343 306.576 563.98 307.329C560.618 308.084 559.208 307.33 559.208 307.33Z" fill="#CCCCCC"/>
<path d="M552.889 233.21L552.712 232.857L552.359 233.034L547.008 235.723L546.655 235.901L546.832 236.254L602.866 347.759L603.043 348.112L603.396 347.934L608.747 345.246L609.1 345.068L608.923 344.715L552.889 233.21Z" fill="#EAEAE8" stroke="black" stroke-width="0.790385"/>
<path d="M603.084 352.289C603.084 352.289 595.975 338.061 588.865 323.832C585.311 316.718 581.757 309.604 579.091 304.268C578.972 304.119 579.022 303.887 578.95 303.719C578.841 303.569 578.7 303.439 578.573 303.303C578.303 303.039 578.001 302.802 577.721 302.562C577.14 302.093 576.717 301.585 576.409 301.062C575.732 300.047 575.199 299.133 574.785 298.367C573.953 296.839 573.64 295.883 573.64 295.883L584.597 290.358C584.597 290.358 585.179 291.179 585.913 292.756C586.283 293.544 586.701 294.516 587.116 295.665C587.353 296.223 587.51 296.866 587.542 297.612C587.567 297.98 587.58 298.364 587.631 298.736C587.665 298.919 587.686 299.111 587.742 299.287C587.834 299.445 588.051 299.542 588.1 299.726C590.805 305.042 594.412 312.13 598.018 319.218C605.231 333.394 612.444 347.571 612.444 347.571L603.084 352.289Z" fill="#1C1C1C"/>
<path d="M401.817 283.003L435.776 361.071H509.677L539.499 290.253C534.164 283.018 532.422 280.656 527.088 273.42L459.602 276.925L401.817 283.003Z" fill="#F4F4F4"/>
<path d="M358.638 328.142C368.549 328.142 376.613 336.205 376.613 346.116C376.613 356.027 368.549 364.09 358.638 364.09C348.728 364.09 340.664 356.027 340.664 346.116C340.664 336.205 348.728 328.142 358.638 328.142ZM358.638 321.566C345.102 321.566 334.09 332.579 334.09 346.115C334.09 359.651 345.102 370.664 358.638 370.664C372.175 370.664 383.187 359.651 383.187 346.115C383.187 332.579 372.175 321.566 358.638 321.566Z" fill="#C3C4C0"/>
<path d="M357.708 308.33C378.492 308.33 395.401 325.239 395.401 346.023C395.401 366.807 378.492 383.716 357.708 383.716C336.924 383.716 320.015 366.807 320.015 346.023C320.015 325.239 336.924 308.33 357.708 308.33ZM357.708 290.992C327.315 290.992 302.677 315.631 302.677 346.023C302.677 376.416 327.315 401.054 357.708 401.054C388.1 401.054 412.739 376.416 412.739 346.023C412.739 315.631 388.1 290.992 357.708 290.992Z" fill="black"/>
<path d="M357.707 312.853C375.997 312.853 390.876 327.733 390.876 346.023C390.876 364.313 375.997 379.192 357.707 379.192C339.417 379.192 324.538 364.313 324.538 346.023C324.538 327.733 339.417 312.853 357.707 312.853ZM357.707 308.33C336.923 308.33 320.014 325.239 320.014 346.023C320.014 366.807 336.923 383.716 357.707 383.716C378.491 383.716 395.4 366.807 395.4 346.023C395.4 325.239 378.491 308.33 357.707 308.33Z" fill="#E3E3E3"/>
<path d="M357.706 342.254C359.785 342.254 361.475 343.945 361.475 346.023C361.475 348.101 359.785 349.792 357.706 349.792C355.628 349.792 353.937 348.101 353.937 346.023C353.937 343.945 355.628 342.254 357.706 342.254ZM357.706 326.423C346.899 326.423 338.106 335.216 338.106 346.023C338.106 356.831 346.899 365.623 357.706 365.623C368.514 365.623 377.307 356.832 377.307 346.023C377.307 335.216 368.514 326.423 357.706 326.423Z" fill="#CCCCCC"/>
<path d="M359.419 366.877C353.448 366.877 339.416 365.139 337.202 349.091C336.449 343.622 337.545 338.939 340.461 335.173C345.989 328.033 356.019 326.789 356.444 326.74L356.524 326.731L356.604 326.734L420.759 328.27L422.013 330.694L356.633 328.997C355.74 329.12 346.945 330.481 342.239 336.569C339.715 339.834 338.773 343.944 339.441 348.782C341.893 366.562 360.175 364.705 361.72 364.513L429.129 345.106L429.748 347.281L362.18 366.734L362.099 366.743C362.055 366.75 361.03 366.877 359.419 366.877Z" fill="black"/>
<path d="M454.777 291.264L453.754 298.732L479.307 302.232L480.33 294.764L454.777 291.264Z" fill="#777C7F"/>
<path d="M515.76 298.496H479.833V289.677C479.833 284.16 484.304 279.688 489.821 279.688H505.772C511.288 279.688 515.76 284.16 515.76 289.677V298.496Z" fill="black"/>
<path d="M357.72 274.619L357.72 274.619L357.73 274.618L357.709 274.224L357.73 274.618L357.731 274.618L357.732 274.618L357.736 274.618L357.754 274.617L357.823 274.613C357.884 274.61 357.974 274.605 358.09 274.6C358.322 274.588 358.658 274.572 359.074 274.554C359.906 274.519 361.057 274.476 362.332 274.448C364.889 274.39 367.917 274.391 369.876 274.614L357.72 274.619ZM357.72 274.619L357.72 274.619L357.718 274.619L357.71 274.619L357.676 274.62C357.645 274.621 357.598 274.623 357.536 274.627C357.413 274.633 357.228 274.643 356.988 274.66C356.507 274.694 355.801 274.754 354.909 274.86C353.123 275.07 350.589 275.46 347.602 276.178M357.72 274.619L369.876 274.614C371.83 274.838 376.375 275.96 380.466 277.037C382.504 277.573 384.418 278.095 385.823 278.483C386.525 278.677 387.1 278.838 387.499 278.95C387.567 278.969 387.631 278.987 387.689 279.003L386.153 282.588C386.15 282.592 386.148 282.596 386.144 282.602C386.13 282.625 386.107 282.661 386.075 282.707C386.011 282.8 385.912 282.934 385.777 283.09C385.507 283.404 385.095 283.806 384.532 284.156C383.42 284.846 381.68 285.357 379.183 284.506L379.055 284.88L379.183 284.506C374.26 282.829 368.548 281.875 363.243 280.99C362.874 280.928 362.507 280.867 362.143 280.806C359.29 280.327 355.288 280.329 351.648 280.447C349.877 280.504 348.199 280.588 346.768 280.66C345.23 280.737 343.977 280.8 343.198 280.8C341.803 280.8 340.71 280.234 339.958 279.657C339.597 279.38 339.318 279.103 339.126 278.891C339.156 278.878 339.187 278.864 339.219 278.85C339.588 278.689 340.144 278.458 340.888 278.182C342.376 277.63 344.614 276.897 347.602 276.178M347.602 276.178L347.51 275.794L347.602 276.178Z" fill="#CCCCCC" stroke="black" stroke-width="0.790385"/>
<path d="M379.055 281.551L377.796 285.347C377.796 285.347 385.035 286.085 393.139 290.991C401.243 295.896 412.74 310.973 412.74 310.973L398.805 282.849L379.055 281.551Z" fill="#333333"/>
<path d="M536.945 249.254L541.624 247.193L539.987 243.81L555.764 235.562L557.667 239.169L548.467 243.975L562.001 272.905L571.263 268.546L572.838 272.15L556.599 279.689L552.767 272.15L529.46 279.689L534.989 253.29L536.945 249.254Z" fill="#222222"/>
<path d="M538.348 251.615C538.367 251.643 538.383 251.668 538.397 251.688L538.413 251.792C538.432 251.916 538.46 252.098 538.495 252.332C538.564 252.8 538.659 253.475 538.765 254.299C538.978 255.948 539.232 258.195 539.402 260.589C539.572 262.984 539.656 265.517 539.529 267.741C539.402 269.983 539.063 271.844 538.432 272.944C537.102 275.247 534.844 276.845 532.886 277.872C531.911 278.384 531.02 278.749 530.373 278.985C530.051 279.104 529.789 279.19 529.61 279.246C529.52 279.274 529.451 279.295 529.404 279.308C529.398 279.31 529.391 279.312 529.386 279.313H455.664C455.635 279.174 455.598 278.989 455.558 278.762C455.46 278.21 455.341 277.412 455.263 276.435C455.105 274.479 455.105 271.816 455.735 268.973L455.735 268.972C456.464 265.61 457.752 262.542 461.326 259.01L461.328 259.008C462.227 258.108 463.207 257.211 464.391 256.271C466.565 254.548 469.236 252.699 472.611 250.64C485.366 242.889 503.371 240.126 517.374 240.373L517.374 240.373C522.214 240.455 526.196 241.837 529.366 243.666L529.374 243.67L529.381 243.674C530.392 244.2 531.322 244.806 532.175 245.454L532.175 245.454L532.182 245.46C534.259 246.967 535.828 248.545 536.876 249.746C537.4 250.347 537.793 250.852 538.055 251.206C538.185 251.382 538.283 251.521 538.348 251.615Z" fill="#E9E9E9" stroke="black" stroke-width="0.790385"/>
<path d="M485.176 279.266H518.198C518.684 279.265 519.149 279.065 519.481 278.713C519.813 278.361 519.982 277.889 519.949 277.409C518.949 263.756 507.446 253.184 493.59 253.184L485.176 279.266Z" fill="#CCCCCC"/>
<path d="M489.994 258.657C491.088 258.204 491.607 256.949 491.154 255.855C490.701 254.761 489.447 254.242 488.353 254.695C487.259 255.148 486.739 256.402 487.193 257.496C487.646 258.59 488.9 259.11 489.994 258.657Z" fill="#ED5A5A"/>
<path d="M489.994 270.182C491.088 269.729 491.607 268.475 491.154 267.381C490.701 266.287 489.447 265.767 488.353 266.221C487.259 266.674 486.739 267.928 487.193 269.022C487.646 270.116 488.9 270.635 489.994 270.182Z" fill="#ED5A5A"/>
<path d="M477.184 269.397C478.021 268.56 478.021 267.202 477.184 266.365C476.347 265.528 474.989 265.528 474.152 266.365C473.314 267.202 473.314 268.56 474.152 269.397C474.989 270.234 476.347 270.234 477.184 269.397Z" fill="#ED5A5A"/>
<path d="M462.354 270.746C463.538 270.746 464.498 269.786 464.498 268.602C464.498 267.418 463.538 266.458 462.354 266.458C461.17 266.458 460.21 267.418 460.21 268.602C460.21 269.786 461.17 270.746 462.354 270.746Z" fill="#ED5A5A"/>
<path d="M457.716 275.795H491.136C491.136 275.795 495.031 275.544 496.665 270.518C498.298 265.492 496.665 256.697 496.665 256.697C496.665 256.697 496.162 253.431 492.393 253.305C488.624 253.179 485.068 253.933 482.951 254.561C480.834 255.189 470.281 258.958 464.25 263.104C458.218 267.25 457.465 268.255 456.962 270.643C456.46 273.03 457.716 275.795 457.716 275.795Z" fill="#222222"/>
<path d="M460.401 286.7L457.965 302.724L468.584 304.338L471.02 288.315L460.401 286.7Z" fill="#777C7F"/>
<path d="M469.033 302.975C470.279 307.406 466.509 311.381 462.117 310.504C459.825 310.046 457.988 308.209 457.53 305.917C456.653 301.526 460.628 297.755 465.059 299.001C466.968 299.539 468.496 301.066 469.033 302.975Z" fill="#B0B1AC"/>
<path d="M472.314 293.014L471.183 301.688L474.921 302.176L476.052 293.502L472.314 293.014Z" fill="black"/>
<path d="M389.81 284.865L365.913 335.544L367.958 336.508L391.855 285.83L389.81 284.865Z" fill="#CCCCCC"/>
<path d="M375.672 310.063L365.752 332.279L371.22 334.721L381.14 312.504L375.672 310.063Z" fill="#222222"/>
<path d="M392.964 288.557C394.287 287.233 394.287 285.087 392.964 283.764C391.641 282.44 389.495 282.44 388.171 283.764C386.848 285.087 386.848 287.233 388.171 288.557C389.495 289.88 391.641 289.88 392.964 288.557Z" fill="#B0B1AC"/>
<path d="M369.335 338.428C370.659 337.104 370.659 334.958 369.335 333.635C368.012 332.311 365.866 332.311 364.542 333.635C363.219 334.958 363.219 337.104 364.542 338.428C365.866 339.751 368.012 339.751 369.335 338.428Z" fill="#B0B1AC"/>
<path d="M382.79 286.25L380.331 291.462L392.602 297.252L395.062 292.04L382.79 286.25Z" fill="#222222"/>
<path d="M365.619 322.963L363.16 328.175L375.432 333.965L377.891 328.753L365.619 322.963Z" fill="#222222"/>
<path d="M376.851 327.662C376.794 327.662 376.737 327.656 376.679 327.642L366.762 325.336C366.357 325.242 366.105 324.837 366.199 324.432C366.294 324.026 366.699 323.77 367.103 323.869L377.021 326.175C377.426 326.269 377.678 326.674 377.584 327.079C377.503 327.427 377.193 327.662 376.851 327.662Z" fill="#222222"/>
<path d="M378.404 324.3C378.347 324.3 378.29 324.295 378.232 324.281L368.314 321.975C367.909 321.881 367.658 321.475 367.752 321.07C367.846 320.665 368.253 320.409 368.656 320.507L378.573 322.813C378.979 322.908 379.23 323.313 379.136 323.718C379.056 324.065 378.746 324.3 378.404 324.3Z" fill="#222222"/>
<path d="M379.957 320.939C379.9 320.939 379.843 320.933 379.785 320.919L369.868 318.613C369.463 318.519 369.211 318.114 369.305 317.708C369.399 317.302 369.802 317.046 370.209 317.146L380.127 319.452C380.532 319.546 380.784 319.951 380.689 320.356C380.61 320.704 380.3 320.939 379.957 320.939Z" fill="#222222"/>
<path d="M381.512 317.576C381.455 317.576 381.398 317.57 381.34 317.556L371.423 315.251C371.018 315.157 370.766 314.752 370.86 314.347C370.953 313.94 371.358 313.685 371.765 313.784L381.682 316.089C382.087 316.183 382.339 316.588 382.245 316.993C382.165 317.34 381.854 317.576 381.512 317.576Z" fill="#222222"/>
<path d="M383.065 314.213C383.008 314.213 382.951 314.208 382.893 314.194L372.976 311.889C372.57 311.794 372.319 311.389 372.413 310.984C372.506 310.578 372.913 310.321 373.317 310.421L383.235 312.726C383.64 312.82 383.892 313.226 383.797 313.631C383.717 313.979 383.408 314.213 383.065 314.213Z" fill="#222222"/>
<path d="M384.618 310.852C384.561 310.852 384.504 310.847 384.446 310.832L374.529 308.527C374.124 308.433 373.872 308.028 373.966 307.623C374.059 307.218 374.468 306.962 374.87 307.06L384.788 309.365C385.193 309.459 385.445 309.864 385.351 310.27C385.271 310.617 384.96 310.852 384.618 310.852Z" fill="#222222"/>
<path d="M386.171 307.489C386.114 307.489 386.057 307.484 385.999 307.469L376.082 305.165C375.676 305.07 375.425 304.665 375.519 304.26C375.612 303.855 376.016 303.598 376.423 303.697L386.341 306.002C386.746 306.096 386.998 306.502 386.903 306.907C386.823 307.255 386.512 307.489 386.171 307.489Z" fill="#222222"/>
<path d="M387.724 304.128C387.667 304.128 387.61 304.123 387.552 304.109L377.634 301.803C377.229 301.708 376.977 301.303 377.071 300.898C377.166 300.493 377.571 300.235 377.976 300.335L387.893 302.641C388.298 302.736 388.55 303.141 388.456 303.546C388.376 303.893 388.066 304.128 387.724 304.128Z" fill="#222222"/>
<path d="M389.277 300.766C389.22 300.766 389.163 300.761 389.105 300.747L379.188 298.441C378.782 298.346 378.531 297.941 378.625 297.536C378.718 297.131 379.125 296.875 379.529 296.973L389.447 299.279C389.852 299.373 390.103 299.779 390.009 300.184C389.929 300.532 389.618 300.766 389.277 300.766Z" fill="#222222"/>
<path d="M390.83 297.404C390.773 297.404 390.716 297.399 390.658 297.385L380.74 295.079C380.335 294.984 380.083 294.579 380.177 294.174C380.272 293.768 380.679 293.512 381.082 293.611L390.999 295.917C391.404 296.012 391.656 296.417 391.562 296.822C391.482 297.169 391.172 297.404 390.83 297.404Z" fill="#222222"/>
<path d="M546.296 228.428L537.501 232.95L539.987 236.217L545.291 239.971L548.468 238.429V232.197L546.296 228.428Z" fill="#CCCCCC"/>
<path d="M544.786 236.837C543.577 236.837 542.486 236.001 542.213 234.772C541.034 229.489 538.711 223.971 537.388 223.276C535.954 223.284 535.144 223.418 534.738 223.52L534.672 223.654L516.86 231.83C515.536 232.439 513.968 231.857 513.362 230.532C512.754 229.207 513.334 227.642 514.659 227.034L531.207 219.437C532.977 217.998 536.281 217.998 537.502 217.998C543.06 217.998 546.067 227.788 547.366 233.625C547.681 235.047 546.785 236.455 545.363 236.773C545.168 236.817 544.975 236.837 544.786 236.837Z" fill="#1A1A1A"/>
<path d="M523.908 240.323C523.619 240.323 523.329 240.213 523.107 239.992L521.838 238.72L522.166 238.006C522.261 237.796 524.554 232.842 527.731 230.196C530.657 227.756 536.737 226.57 538.027 226.342L540.317 224.881L536.991 219.096C536.68 218.554 536.866 217.863 537.408 217.551C537.95 217.242 538.64 217.426 538.953 217.968L543.356 225.628L538.855 228.495L538.625 228.533C538.558 228.544 531.919 229.649 529.178 231.933C527.043 233.712 525.281 236.857 524.566 238.251L524.708 238.392C525.15 238.834 525.15 239.55 524.707 239.992C524.486 240.214 524.197 240.323 523.908 240.323Z" fill="#B0B1AC"/>
<path d="M532.978 226.308C535.554 226.308 537.642 224.219 537.642 221.643C537.642 219.067 535.554 216.979 532.978 216.979C530.401 216.979 528.313 219.067 528.313 221.643C528.313 224.219 530.401 226.308 532.978 226.308Z" fill="#231717"/>
<path d="M513.664 233.579C512.367 233.579 511.13 232.832 510.566 231.573C509.8 229.864 510.565 227.857 512.274 227.09L531.339 218.547C533.051 217.779 535.056 218.546 535.822 220.255C536.589 221.965 535.823 223.972 534.114 224.738L515.049 233.281C514.599 233.483 514.127 233.579 513.664 233.579Z" fill="black"/>
<path d="M513.107 232.837C514.571 232.837 515.758 231.65 515.758 230.186C515.758 228.722 514.571 227.535 513.107 227.535C511.643 227.535 510.456 228.722 510.456 230.186C510.456 231.65 511.643 232.837 513.107 232.837Z" fill="#231717"/>
<path d="M453.634 269.237V269.006L451.938 267.815C451.938 267.815 425.56 268.946 415.188 268.946C400.676 268.946 384.657 265.93 379.053 265.051C373.449 264.172 373.349 262.915 368.28 262.35C363.21 261.785 363.366 262.35 363.366 262.35L361.717 264.322C391.278 273.71 423.24 275.421 453.634 269.237Z" fill="black"/>
<path d="M453.633 269.238C423.24 275.421 391.277 273.711 361.717 264.322L358.639 268.005C358.639 268.005 363.549 272.34 367.491 274.789C368.476 275.401 369.569 275.943 370.655 276.412C373.775 277.758 377.088 278.581 380.463 278.975C386.434 279.674 399.852 281.072 416.695 281.762C439.688 282.705 449.111 282.893 451.749 282.705C454.388 282.517 453.633 280.444 453.633 280.444V269.238Z" fill="#CCCCCC"/>
<path d="M454.276 286.296C454.276 286.296 453.829 306.147 450.06 309.414C446.291 312.682 444.281 312.065 444.281 312.065H421.162C421.162 312.065 416.891 311.425 415.131 309.665C413.373 307.906 410.608 300.619 408.849 296.849C407.091 293.08 406.218 288.054 406.218 288.054C406.218 288.054 405.835 286.923 407.719 285.667C409.604 284.411 417.394 285.039 417.394 285.039C417.394 285.039 430.712 285.667 432.847 285.792C434.982 285.917 450.814 286.42 452.071 285.918C453.327 285.415 454.276 285.541 454.276 285.541V286.296Z" fill="#222222"/>
<path d="M452.285 287.041C452.285 287.041 451.899 304.203 448.64 307.027C445.382 309.851 443.644 309.319 443.644 309.319H423.658C423.658 309.319 419.965 308.765 418.445 307.244C416.924 305.723 414.535 299.424 413.014 296.165C411.493 292.906 410.738 288.561 410.738 288.561C410.738 288.561 410.406 287.583 412.036 286.497C413.665 285.411 420.399 285.954 420.399 285.954C420.399 285.954 431.913 286.497 433.759 286.606C435.605 286.714 449.292 287.149 450.378 286.714C451.464 286.279 452.284 286.388 452.284 286.388V287.041H452.285Z" fill="#E9E9E9"/>
<path d="M608.509 346.327C608.848 344.892 607.959 343.454 606.524 343.116C605.089 342.777 603.651 343.665 603.313 345.1C602.974 346.535 603.862 347.973 605.297 348.312C606.732 348.651 608.17 347.762 608.509 346.327Z" fill="#EAEBED"/>
<path d="M479.833 298.496H515.605L507.347 324.364H482.954L479.833 298.496Z" fill="black"/>
<path d="M400.604 285.984L435.381 360.675L437.752 361.466H508.885C509.843 361.466 510.707 360.889 511.075 360.005L539.712 291.121L531.018 279.266H454.35" stroke="black" stroke-width="0.790385"/>
<path d="M422.34 282.032C405.215 281.768 368.515 278.712 358.714 268.595L358.319 268.2L362.271 264.248" stroke="black" stroke-width="0.790385"/>
<path d="M382.046 256.157C381.403 254.024 381.117 251.799 381.202 249.573C381.202 249.077 380.428 249.077 380.428 249.573C380.342 251.87 380.638 254.166 381.303 256.366C381.361 256.58 381.581 256.706 381.795 256.649C382.009 256.591 382.135 256.371 382.077 256.157H382.046Z" fill="black"/>
<path d="M388.096 256.157C387.448 254.025 387.162 251.799 387.251 249.573C387.251 249.077 386.477 249.077 386.477 249.573C386.388 251.87 386.682 254.165 387.344 256.366C387.402 256.58 387.622 256.706 387.836 256.649C388.05 256.591 388.177 256.371 388.119 256.157H388.096Z" fill="black"/>
<path d="M394.137 256.157C393.494 254.024 393.208 251.799 393.293 249.573C393.293 249.077 392.518 249.077 392.518 249.573C392.433 251.87 392.728 254.166 393.394 256.366C393.451 256.58 393.672 256.706 393.885 256.649C394.099 256.591 394.226 256.371 394.168 256.157H394.137Z" fill="black"/>
<path d="M400.179 256.157C399.536 254.024 399.25 251.799 399.335 249.573C399.335 249.077 398.56 249.077 398.56 249.573C398.475 251.87 398.77 254.166 399.436 256.366C399.493 256.58 399.714 256.706 399.927 256.649C400.141 256.591 400.268 256.371 400.21 256.157H400.179Z" fill="black"/>
<path d="M406.228 256.157C405.581 254.025 405.295 251.799 405.384 249.573C405.384 249.077 404.61 249.077 404.61 249.573C404.521 251.87 404.814 254.165 405.477 256.366C405.535 256.58 405.755 256.706 405.969 256.649C406.183 256.591 406.309 256.371 406.252 256.157H406.228Z" fill="black"/>
<path d="M422.789 231.712C423.17 233.62 424.526 235.188 426.36 235.84C439.218 240.403 486.847 259.271 493.159 274.724C499.883 291.192 473.874 347.421 469.637 356.948C469.33 357.625 469.448 358.42 469.939 358.978L470.45 359.567C470.943 360.129 471.061 360.927 470.752 361.608C470.443 362.289 469.765 362.726 469.017 362.727H450.327C449.722 362.724 449.155 362.435 448.796 361.948C448.438 361.462 448.33 360.834 448.507 360.256C450.559 353.703 452.029 347.441 453.261 335.621C456.15 307.737 464.477 289.921 464.477 289.921C464.477 289.921 380.373 280.564 377.345 247.901C376.798 241.845 378.091 235.766 381.055 230.457" fill="white"/>
<path d="M434.981 132.41C434.874 132.45 434.777 132.511 434.694 132.588C434.63 132.645 434.577 132.713 434.539 132.79C434.449 132.953 434.411 133.139 434.431 133.324C434.431 133.568 434.546 133.798 434.741 133.944C434.887 134.037 435.074 134.037 435.221 133.944C435.364 133.854 435.45 133.695 435.446 133.526C435.439 133.426 435.421 133.327 435.391 133.231L435.337 132.968C435.314 132.871 435.248 132.788 435.159 132.743C435.071 132.689 434.965 132.672 434.865 132.697C434.768 132.726 434.685 132.789 434.632 132.875C434.585 132.968 434.571 133.075 434.593 133.177C434.629 133.315 434.658 133.455 434.679 133.595V133.495C434.686 133.515 434.686 133.537 434.679 133.557V133.448L434.717 133.355L434.779 133.278L434.857 133.216L434.95 133.177H435.05H435.151L435.244 133.216L435.322 133.278L435.384 133.355C435.379 133.335 435.379 133.314 435.384 133.293V133.386C435.354 133.323 435.335 133.255 435.329 133.185V133.293C435.322 133.239 435.322 133.185 435.329 133.131V133.231C435.322 133.185 435.322 133.138 435.329 133.092V133.185C435.345 133.149 435.366 133.115 435.391 133.084L435.329 133.162L435.407 133.084L435.329 133.146L435.407 133.092L435.322 133.131C435.37 133.117 435.415 133.093 435.453 133.061C435.494 133.033 435.529 132.996 435.554 132.952C435.592 132.855 435.592 132.747 435.554 132.65C435.527 132.553 435.463 132.469 435.376 132.418C435.285 132.363 435.175 132.348 435.074 132.379L434.981 132.41Z" fill="black"/>
<path d="M423.881 137.081C422.909 136.944 421.997 136.53 421.255 135.888C420.406 135.207 419.851 134.225 419.706 133.146C419.644 132.661 419.792 132.173 420.113 131.805C420.435 131.436 420.898 131.222 421.387 131.218C422.373 131.276 423.238 131.897 423.61 132.813C423.834 133.262 424.501 132.867 424.284 132.418C423.864 131.534 423.104 130.858 422.177 130.544C421.272 130.275 420.292 130.515 419.613 131.171C418.064 132.821 419.419 135.377 420.883 136.593C421.758 137.29 422.804 137.737 423.912 137.887C424.124 137.883 424.295 137.712 424.299 137.499C424.299 137.285 424.126 137.112 423.912 137.112L423.881 137.081Z" fill="black"/>
<path d="M421.046 133.123C421.214 132.912 421.513 132.859 421.743 132.999C422.007 133.154 422.23 133.369 422.394 133.627C422.77 134.128 423.053 134.692 423.231 135.292C423.231 135.408 423.455 135.354 423.416 135.238C423.208 134.536 422.86 133.882 422.394 133.317C422.206 133.045 421.934 132.844 421.619 132.744C421.343 132.682 421.056 132.792 420.891 133.022C420.875 133.068 420.893 133.119 420.935 133.144C420.976 133.168 421.03 133.16 421.062 133.123H421.046Z" fill="black"/>
<path d="M422.077 134.084C422.079 134.026 422.111 133.974 422.162 133.945C422.213 133.914 422.272 133.898 422.332 133.898C422.49 133.925 422.629 134.014 422.719 134.146C422.758 134.183 422.82 134.183 422.859 134.146C422.893 134.106 422.893 134.047 422.859 134.007C422.728 133.835 422.532 133.725 422.317 133.705C422.113 133.695 421.931 133.831 421.883 134.03C421.876 134.055 421.879 134.081 421.893 134.103C421.906 134.125 421.928 134.141 421.953 134.146C422.003 134.158 422.056 134.132 422.077 134.084Z" fill="black"/>
<path d="M433.896 130.622C433.995 130.511 434.101 130.407 434.214 130.312H434.261C434.261 130.312 434.206 130.358 434.261 130.312L434.353 130.25L434.547 130.126L434.741 130.033H434.787L434.896 129.994C435.039 129.945 435.187 129.909 435.337 129.886C435.434 129.858 435.517 129.794 435.57 129.708C435.621 129.618 435.635 129.513 435.608 129.413C435.579 129.316 435.516 129.234 435.43 129.181C435.337 129.134 435.23 129.12 435.128 129.142C434.448 129.252 433.826 129.594 433.37 130.11C433.218 130.262 433.218 130.508 433.37 130.66C433.522 130.812 433.768 130.812 433.92 130.66L433.896 130.622Z" fill="black"/>
<path d="M435.415 121.505C436.755 125.378 438.126 128.925 438.722 133.054C438.954 134.384 439.404 135.666 440.054 136.849C440.286 137.207 440.186 137.684 439.83 137.918H439.768C439.371 138.132 439.122 138.544 439.117 138.995C439.024 142.287 439.992 145.486 437.429 147.515C434.547 149.839 429.629 148.801 426.584 146.865" stroke="black" stroke-width="0.790385"/>
<path d="M436.112 138.599C435.949 138.553 435.789 138.499 435.631 138.437H435.57L435.453 138.382L435.213 138.258C435.059 138.183 434.911 138.095 434.772 137.995C434.698 137.952 434.628 137.903 434.563 137.848C434.563 137.848 434.501 137.801 434.563 137.848L434.454 137.755C434.301 137.606 434.057 137.606 433.904 137.755C433.757 137.906 433.757 138.147 433.904 138.297C434.504 138.809 435.207 139.186 435.965 139.405C436.17 139.459 436.38 139.338 436.437 139.134C436.488 138.927 436.369 138.717 436.166 138.653L436.112 138.599Z" fill="black"/>
<path d="M414.214 147.29C419.013 149.359 424.118 150.628 429.326 151.047C429.822 151.047 429.822 150.272 429.326 150.272C424.256 149.861 419.285 148.629 414.61 146.624C414.16 146.43 413.765 147.096 414.222 147.29H414.214Z" fill="black"/>
<path d="M428.25 147.879C427.953 148.603 427.733 149.355 427.592 150.125C427.554 150.263 427.593 150.411 427.695 150.513C427.796 150.614 427.943 150.654 428.082 150.617C428.22 150.58 428.329 150.472 428.366 150.334C428.507 149.562 428.728 148.807 429.024 148.08C429.06 147.976 429.05 147.862 428.997 147.766C428.944 147.67 428.853 147.601 428.746 147.576C428.54 147.522 428.33 147.643 428.273 147.848L428.25 147.879Z" fill="black"/>
<path d="M416.352 147.522L418.769 141.891C419.57 140.205 420.173 138.432 420.566 136.608C420.651 136.12 419.908 135.911 419.791 136.399C419.395 138.222 418.792 139.995 417.994 141.681L415.671 147.103C415.477 147.56 416.143 147.956 416.345 147.499L416.352 147.522Z" fill="black"/>
<path d="M430.294 152.155C431.101 153.846 431.084 155.815 430.248 157.492C429.388 159.273 428.015 160.756 426.305 161.752C424.494 162.798 422.591 163.677 420.62 164.378L413.804 167.042L400.171 172.387C395.733 174.122 391.318 175.965 386.771 177.39C381.837 178.94 376.701 179.854 371.93 181.821C371.473 182.007 371.674 182.758 372.131 182.596C376.531 180.791 381.21 179.861 385.756 178.529C390.497 177.15 395.051 175.245 399.66 173.44L413.742 167.925L420.829 165.152C422.812 164.448 424.73 163.572 426.561 162.534C428.502 161.435 430.053 159.759 430.999 157.739C431.906 155.86 431.906 153.67 430.999 151.791C430.767 151.349 430.093 151.744 430.333 152.186L430.294 152.155Z" fill="black"/>
<path d="M420.063 151.217C419.024 152.32 417.708 153.123 416.252 153.541C414.532 154.168 412.789 154.734 411.039 155.291C407.491 156.422 403.928 157.514 400.373 158.606C393.286 160.775 386.175 162.89 378.995 164.726C376.981 165.237 374.959 165.733 372.93 166.197C371.055 166.623 369.057 166.871 367.291 167.746C366.849 167.971 367.236 168.637 367.686 168.413C369.235 167.638 371.148 167.406 372.86 167.018C374.572 166.631 376.477 166.166 378.282 165.709C381.891 164.803 385.478 163.819 389.056 162.797C396.244 160.737 403.394 158.529 410.528 156.275C412.511 155.648 414.501 155.005 416.453 154.292C418.043 153.838 419.48 152.963 420.613 151.759C420.93 151.372 420.38 150.822 420.063 151.209V151.217Z" fill="black"/>
<path d="M364.734 170.683L367.259 170.179C367.464 170.122 367.585 169.912 367.531 169.707C367.467 169.504 367.257 169.385 367.05 169.435L364.525 169.939C364.427 169.966 364.344 170.031 364.295 170.12C364.245 170.209 364.233 170.314 364.262 170.411C364.318 170.616 364.529 170.737 364.734 170.683Z" fill="black"/>
<path d="M365.501 173.501C366.422 173.206 367.322 172.852 368.197 172.44C368.381 172.329 368.443 172.092 368.336 171.906C368.223 171.725 367.989 171.664 367.802 171.766C366.989 172.152 366.15 172.481 365.292 172.75C365.089 172.813 364.97 173.024 365.021 173.23C365.084 173.433 365.295 173.552 365.501 173.501Z" fill="black"/>
<path d="M366.361 176.236C367.119 175.756 367.968 175.437 368.855 175.299C368.955 175.272 369.04 175.206 369.091 175.115C369.142 175.025 369.155 174.918 369.126 174.819C369.099 174.721 369.034 174.638 368.945 174.588C368.856 174.539 368.751 174.527 368.654 174.555C367.701 174.708 366.789 175.053 365.974 175.57C365.791 175.678 365.728 175.913 365.834 176.097C365.884 176.186 365.969 176.252 366.068 176.278C366.167 176.304 366.273 176.289 366.361 176.236Z" fill="black"/>
<path d="M367.027 179.272C367.815 178.832 368.663 178.509 369.544 178.312C369.758 178.254 369.885 178.034 369.827 177.82C369.769 177.606 369.549 177.48 369.335 177.537C368.393 177.757 367.486 178.106 366.64 178.575C366.456 178.686 366.394 178.923 366.5 179.11C366.611 179.289 366.842 179.351 367.027 179.249V179.272Z" fill="black"/>
<path d="M368.452 182.2C369.261 181.64 370.141 181.191 371.07 180.868C371.271 180.802 371.388 180.594 371.342 180.388C371.281 180.182 371.068 180.062 370.861 180.117C369.868 180.464 368.925 180.94 368.057 181.534C367.936 181.604 367.861 181.733 367.862 181.873C367.863 182.013 367.939 182.142 368.061 182.209C368.184 182.277 368.333 182.274 368.452 182.2Z" fill="black"/>
<path d="M416.825 145.516C416.093 145.144 415.31 144.883 414.501 144.741C413.759 144.571 412.985 144.595 412.255 144.811C411.629 145.143 411.167 145.717 410.977 146.399C410.675 147.096 410.411 147.809 410.148 148.521C409.667 150.01 408.998 151.431 408.157 152.751C407.937 153.054 407.702 153.346 407.452 153.626C407.196 153.848 407.024 154.152 406.964 154.486C406.965 154.79 407.084 155.082 407.297 155.299C407.6 155.686 407.909 156.074 408.219 156.445C408.529 156.817 409.071 156.283 408.769 155.895L408.072 155.036C407.94 154.873 407.716 154.672 407.778 154.431C407.84 154.191 408.057 154.114 408.149 153.998C408.544 153.554 408.897 153.074 409.203 152.565C409.82 151.482 410.338 150.347 410.752 149.172C410.977 148.583 411.186 147.995 411.418 147.414C411.575 146.785 411.872 146.2 412.286 145.702C412.789 145.26 413.711 145.4 414.315 145.493C415.061 145.603 415.786 145.83 416.461 146.167C416.91 146.384 417.305 145.717 416.856 145.493L416.825 145.516Z" fill="black"/>
<path d="M418.064 174.943C418.064 174.943 424.144 205.871 439.04 218.009C453.935 230.147 505.31 227.492 505.062 228.251C504.814 229.01 507.835 220.172 505.062 215.858C505.062 215.858 470.456 207.08 462.13 206.073C453.803 205.066 453.23 204.679 453.23 204.679C453.23 204.679 443.005 175.245 440.201 167.05C437.397 158.855 434.005 157.445 430.295 158.196" stroke="black" stroke-width="0.790385"/>
<path d="M402.363 171.643C400.489 175.887 398.39 180.039 396.229 184.152C393.781 188.8 391.225 193.447 388.638 198.017C386.051 202.587 383.41 207.188 380.776 211.766C378.413 215.879 376.051 219.984 373.743 224.159C373.27 225.027 372.279 226.243 373.03 227.203C373.458 227.655 373.968 228.02 374.533 228.28C375.14 228.637 375.766 228.963 376.407 229.256C378.951 230.387 381.63 231.186 384.378 231.634C387.158 232.129 389.978 232.408 392.79 232.633C395.764 232.896 398.738 233.136 401.721 233.26C406.241 233.486 410.771 233.422 415.283 233.067C418.769 232.772 422.255 232.246 425.67 231.649C429.086 231.053 432.766 230.402 436.336 229.945C437.367 229.813 438.699 229.852 439.241 228.791C439.783 227.73 439.241 226.754 438.885 225.77C438.11 223.4 437.514 220.983 436.948 218.559C436.685 217.413 436.437 216.235 436.22 215.104C436.127 214.616 435.376 214.825 435.446 215.313C435.903 217.715 436.468 220.1 437.103 222.463C437.398 223.578 437.715 224.694 438.064 225.801C438.327 226.645 439.21 228.202 438.172 228.822C437.656 229.033 437.103 229.141 436.545 229.14L435.066 229.333C434.152 229.457 433.238 229.597 432.332 229.736C430.643 229.999 428.962 230.286 427.282 230.58C424.005 231.154 420.729 231.719 417.421 232.083C413.341 232.513 409.238 232.683 405.136 232.594C399.575 232.494 393.998 232.068 388.475 231.44C385.719 231.165 382.992 230.647 380.327 229.891C378.999 229.509 377.704 229.022 376.454 228.435C375.865 228.148 375.284 227.846 374.726 227.513C374.455 227.35 374.169 227.195 373.913 227.01C373.727 226.914 373.588 226.747 373.527 226.548C373.465 226.348 373.487 226.132 373.588 225.948C374.014 224.988 374.618 224.074 375.137 223.16L376.756 220.294C377.918 218.241 379.08 216.204 380.257 214.159C382.798 209.736 385.346 205.314 387.863 200.875C392.728 192.308 397.577 183.695 401.751 174.764C402.17 173.866 402.588 172.96 402.991 172.046C403.192 171.596 402.518 171.201 402.317 171.658L402.363 171.643Z" fill="black"/>
<path d="M427.057 147.329C427.057 147.329 427.46 149.49 427.832 149.653C428.204 149.815 428.482 148.599 428.482 148.599L427.956 147.623" fill="black"/>
<path d="M419.845 182.192C418.635 190.121 419.51 198.229 422.386 205.716C427.181 217.575 437.761 223.276 437.761 223.276L436.359 217.668C436.359 217.668 435.802 213.919 434.284 213.075C432.765 212.23 420.302 189.59 419.845 182.192Z" fill="black"/>
<path d="M422.789 231.712C423.17 233.62 424.526 235.188 426.36 235.84C439.218 240.403 486.846 259.271 493.159 274.724C499.883 291.192 473.874 347.421 469.637 356.948C469.33 357.625 469.448 358.42 469.939 358.978L470.45 359.567C470.942 360.129 471.06 360.927 470.752 361.608C470.443 362.289 469.765 362.726 469.017 362.727H450.272C449.673 362.728 449.108 362.448 448.747 361.969C448.386 361.491 448.271 360.871 448.437 360.295C450.451 353.323 456.144 333.053 457.577 321.086C461.612 287.43 464.469 289.952 464.469 289.952C464.469 289.952 380.365 280.595 377.337 247.931C376.786 241.865 378.082 235.774 381.055 230.457" stroke="black" stroke-width="0.790385"/>
<path d="M437.343 285.188C436.336 284.638 461.316 296.698 461.316 296.698L464.477 289.952C464.477 289.952 440.867 287.109 437.343 285.188Z" fill="black"/>
<path d="M424.307 234.755C423.284 233.523 423.099 231.262 421.596 231.858C420.093 232.454 401.387 234.182 389.064 231.858L382.263 230.797C381.841 230.606 381.357 230.614 380.942 230.818C380.527 231.022 380.224 231.4 380.117 231.85L379.11 234.174C379.11 234.174 406.174 246.443 429.303 236.955C429.264 236.978 425.337 235.986 424.307 234.755Z" fill="black"/>
<path d="M417.328 166.066L404.485 171.101C403.051 171.552 401.966 172.732 401.635 174.199L398.537 180.496C398.537 180.496 423.385 166.043 427.033 161.713C427.057 161.705 417.901 165.849 417.328 166.066Z" fill="black"/>
<path d="M505.559 218.117C510.206 218.946 522.757 220.14 527.366 220.977C527.854 221.07 528.063 220.319 527.567 220.202C522.92 219.358 510.369 218.164 505.768 217.343C505.28 217.25 505.071 218.001 505.559 218.117Z" fill="black"/>
<path d="M505.382 227.188C507.544 226.795 509.771 227.326 511.524 228.652C512.294 229.272 513.14 229.793 514.041 230.201C515.102 230.604 515.908 230.201 516.745 229.527C517.132 229.217 516.582 228.675 516.195 228.977C515.809 229.376 515.278 229.6 514.723 229.597C514.202 229.475 513.712 229.248 513.282 228.93C512.453 228.388 511.733 227.714 510.827 227.242C509.107 226.334 507.128 226.041 505.219 226.413C504.723 226.506 504.932 227.25 505.42 227.188H505.382Z" fill="black"/>
<path d="M462.122 290.099L470.991 291.082C471.486 291.137 471.479 290.362 470.991 290.308L462.122 289.324C461.626 289.27 461.634 290.044 462.122 290.099Z" fill="black"/>
<path d="M455.788 334.702C458.53 334.485 461.21 335.392 463.882 335.585C465.129 335.678 466.477 335.585 467.631 336.19C468.592 336.654 469.475 337.692 469.18 338.831C469.14 338.998 469.214 339.171 469.363 339.257C469.511 339.343 469.699 339.321 469.823 339.203L472.34 336.616L471.961 336.716L477.917 337.956C478.405 338.056 478.615 337.305 478.127 337.181L473.007 336.12C472.674 335.989 472.318 335.928 471.961 335.942C471.659 336.027 471.341 336.507 471.132 336.716L469.304 338.691L469.947 339.063C470.171 337.907 469.71 336.726 468.762 336.027C467.677 335.285 466.389 334.896 465.075 334.911C463.517 334.809 461.965 334.621 460.427 334.346C458.901 334.021 457.339 333.891 455.78 333.959C455.292 333.959 455.284 334.733 455.78 334.733L455.788 334.702Z" fill="black"/>
<path d="M454.206 206.53C454.002 205.772 453.759 205.025 453.478 204.292C453.414 204.089 453.204 203.97 452.998 204.02C452.899 204.049 452.816 204.116 452.766 204.206C452.717 204.296 452.705 204.402 452.734 204.501C453.014 205.234 453.254 205.981 453.455 206.739C453.512 206.953 453.733 207.08 453.946 207.022C454.16 206.964 454.287 206.744 454.229 206.53H454.206Z" fill="black"/>
<path d="M442.285 173.138C442.285 173.138 456.754 182.967 458.722 183.471C460.689 183.974 490.665 175.198 492.292 175.64C493.918 176.081 497.536 184.935 494.616 187.475C491.695 190.016 464.771 208.443 451.239 198.985" stroke="black" stroke-width="0.790385"/>
<path d="M442.959 175.074C442.959 175.074 450.596 193.664 456.777 197.398C462.959 201.131 466.646 201.023 466.646 201.023C466.646 201.023 459.241 202.572 455.631 201.023C452.022 199.473 451.34 199.288 450.209 195.957" fill="black"/>
<path d="M493.407 176.654C495.085 175.9 496.774 175.172 498.473 174.47C499.918 173.779 501.438 173.259 503.004 172.92C504.822 172.751 506.647 172.687 508.472 172.727C508.968 172.727 508.968 171.952 508.472 171.952C506.595 171.912 504.717 171.984 502.849 172.169C501.205 172.522 499.609 173.068 498.093 173.796C496.389 174.498 494.698 175.229 493.02 175.988C492.563 176.189 492.958 176.863 493.407 176.654Z" fill="black"/>
<path d="M496.002 183.981C496.856 183.416 497.815 183.029 498.822 182.843C499.86 182.649 500.959 182.843 501.92 182.448C503.763 181.766 504.639 179.868 504.724 178.009C504.724 177.514 503.949 177.514 503.949 178.009C503.864 179.899 502.803 181.712 500.774 181.882C499.869 181.913 498.967 182.014 498.078 182.184C497.186 182.412 496.338 182.786 495.568 183.292C495.158 183.563 495.568 184.237 495.963 183.958L496.002 183.981Z" fill="black"/>
<path d="M503.655 175.353C504.288 175.426 504.865 175.75 505.258 176.251C505.432 176.475 505.537 176.744 505.56 177.026C505.587 177.294 505.49 177.559 505.297 177.746C504.933 178.095 505.483 178.645 505.847 178.296C506.463 177.622 506.496 176.6 505.924 175.887C505.383 175.159 504.558 174.694 503.655 174.609C503.443 174.613 503.272 174.785 503.268 174.997C503.276 175.207 503.444 175.376 503.655 175.384V175.353Z" fill="black"/>
<path d="M371.907 181.456L375.183 166.073L375.021 166.12C377.437 168.203 380.52 169.133 383.394 170.395C386.572 171.936 389.546 173.867 392.247 176.143C392.272 176.166 392.306 176.175 392.339 176.167C392.372 176.159 392.398 176.136 392.41 176.104C394.122 170.512 396.144 165.019 398.467 159.652L398.336 159.691C403.277 162.541 408.289 165.26 413.37 167.847C413.408 167.88 413.464 167.88 413.502 167.847C416.044 163.416 417.714 158.538 418.42 153.479L418.273 153.541C421.573 155.864 424.764 158.374 427.986 160.806C428.012 160.822 428.044 160.824 428.072 160.812C428.1 160.799 428.12 160.774 428.126 160.744C428.776 157.375 429.404 153.37 426.817 150.62C426.732 150.528 426.592 150.667 426.677 150.76C429.21 153.455 428.575 157.406 427.94 160.698L428.087 160.636C424.857 158.204 421.674 155.709 418.374 153.37C418.348 153.354 418.316 153.352 418.288 153.365C418.26 153.377 418.24 153.402 418.234 153.432C417.525 158.462 415.861 163.31 413.331 167.715H413.463C408.382 165.133 403.37 162.412 398.428 159.551C398.381 159.528 398.324 159.545 398.297 159.59C395.964 164.968 393.936 170.474 392.224 176.081L392.387 176.034C389.768 173.808 386.892 171.905 383.82 170.364C380.884 169.032 377.685 168.126 375.199 165.98C375.173 165.958 375.138 165.95 375.105 165.959C375.072 165.969 375.046 165.994 375.036 166.027L371.76 181.402C371.76 181.526 371.922 181.573 371.946 181.456H371.907Z" fill="black"/>
<path d="M407.677 154.664C410.894 152.557 414.054 150.363 417.158 148.08L417.011 148.026C417.592 149.546 418.002 151.125 418.235 152.736C418.235 152.86 418.436 152.805 418.42 152.681C418.187 151.071 417.777 149.492 417.197 147.972C417.189 147.943 417.168 147.92 417.141 147.91C417.113 147.899 417.082 147.902 417.057 147.918C413.959 150.195 410.799 152.39 407.576 154.502C407.476 154.571 407.576 154.734 407.677 154.664Z" fill="black"/>
<path d="M413.502 218.683C416.203 217.053 418.791 215.241 421.247 213.261C422.487 212.259 423.687 211.226 424.849 210.163C425.438 209.62 426.019 209.055 426.592 208.489C426.933 208.149 427.367 207.715 427.142 207.242C427.088 207.134 426.917 207.242 426.972 207.343C427.196 207.785 426.538 208.273 426.274 208.536L425.5 209.311C424.996 209.791 424.485 210.255 423.951 210.72C422.882 211.688 421.774 212.618 420.643 213.516C418.343 215.336 415.929 217.008 413.416 218.52C413.384 218.552 413.376 218.601 413.398 218.641C413.42 218.681 413.465 218.701 413.509 218.691L413.502 218.683Z" fill="black"/>
<path d="M431.464 209.69C432.949 209.062 434.595 208.921 436.166 209.287C437.507 209.517 438.811 209.932 440.039 210.519C442.594 211.658 444.522 213.861 445.314 216.545C445.71 218.298 445.879 220.094 445.817 221.889C445.829 221.933 445.869 221.963 445.914 221.963C445.959 221.963 445.998 221.933 446.011 221.889C446.011 218.791 445.825 215.515 443.687 213.021C441.754 210.949 439.182 209.585 436.383 209.148C434.71 208.741 432.952 208.879 431.363 209.543C431.255 209.597 431.363 209.767 431.464 209.713V209.69Z" fill="black"/>
<path d="M451.317 194.299C453.939 193.452 456.797 193.761 459.177 195.149C461.557 196.537 463.234 198.873 463.788 201.572C463.788 201.688 464.004 201.642 463.981 201.518C463.415 198.768 461.705 196.389 459.28 194.976C456.854 193.563 453.941 193.249 451.27 194.113C451.146 194.151 451.201 194.337 451.317 194.299Z" fill="black"/>
<path d="M406.492 255.243C409.843 252.169 412.334 248.274 413.719 243.942C413.719 243.818 413.571 243.772 413.533 243.888C412.156 248.19 409.681 252.058 406.352 255.112C406.259 255.189 406.399 255.329 406.492 255.243Z" fill="black"/>
<path d="M473.238 348.003C472.213 347.429 471.078 347.078 469.908 346.973C469.878 346.974 469.85 346.989 469.832 347.013C469.814 347.037 469.808 347.067 469.815 347.097L471.558 351.357L471.705 351.248L468.126 349.699C468.057 349.699 467.948 349.699 467.987 349.808C468.71 351.534 469.552 353.208 470.504 354.819L470.613 354.68C469.823 354.475 469.012 354.365 468.196 354.354C467.878 354.354 467.29 354.246 467.297 354.718C467.365 355.023 467.488 355.312 467.661 355.57C467.847 355.919 468.041 356.26 468.258 356.593C468.66 357.211 469.111 357.796 469.606 358.343C469.691 358.436 469.83 358.297 469.745 358.204C468.976 357.357 468.32 356.415 467.793 355.4C467.685 355.191 467.344 354.734 467.638 354.556C467.946 354.501 468.26 354.501 468.568 354.556C469.24 354.589 469.908 354.693 470.558 354.866C470.596 354.879 470.638 354.867 470.663 354.835C470.688 354.803 470.689 354.759 470.667 354.726C469.728 353.125 468.895 351.464 468.173 349.753L468.026 349.87L471.604 351.419C471.674 351.419 471.782 351.419 471.751 351.303L470.001 347.042L469.908 347.166C471.044 347.269 472.145 347.612 473.138 348.173C473.183 348.19 473.234 348.172 473.259 348.13C473.283 348.088 473.275 348.035 473.238 348.003Z" fill="black"/>
<path d="M410.404 248.272C409.769 248.122 409.118 248.057 408.467 248.078C408.153 248.092 407.84 248.126 407.53 248.179C407.298 248.189 407.107 248.366 407.081 248.597C407.097 249.223 407.261 249.836 407.561 250.386L408.335 252.369C408.382 252.478 408.568 252.431 408.521 252.315L407.855 250.673C407.607 250.152 407.412 249.607 407.274 249.046C407.247 248.892 407.247 248.735 407.274 248.581C407.313 248.388 407.53 248.372 407.685 248.349C407.99 248.303 408.298 248.277 408.606 248.272C409.201 248.26 409.794 248.322 410.373 248.458C410.417 248.458 410.457 248.428 410.47 248.385C410.482 248.342 410.465 248.296 410.427 248.272H410.404Z" fill="black"/>
<path d="M440.434 107.558L444.81 103.182C444.895 103.096 444.763 102.957 444.671 103.042L440.294 107.419C440.209 107.512 440.348 107.643 440.434 107.558Z" fill="black"/>
<path d="M434.073 104.491L435.042 101.447C435.053 101.395 435.022 101.342 434.971 101.328C434.919 101.314 434.865 101.342 434.848 101.393L433.888 104.437C433.849 104.553 434.035 104.607 434.073 104.491Z" fill="black"/>
<path d="M446.475 112.972L449.496 111.593C449.604 111.547 449.496 111.376 449.395 111.43L446.382 112.801C446.266 112.856 446.382 113.018 446.475 112.972Z" fill="black"/>
<path d="M449.116 123.398H451.44C451.483 123.386 451.513 123.346 451.513 123.301C451.513 123.256 451.483 123.217 451.44 123.205H449.116C449.073 123.217 449.043 123.256 449.043 123.301C449.043 123.346 449.073 123.386 449.116 123.398Z" fill="black"/>
<path d="M428.549 130.045L428.803 143.193C427.908 146.238 425.384 145.913 424.234 145.37L415.869 141.681C411.426 139.722 406.835 137.126 405.192 132.556C403.251 127.156 405.324 122.48 407.007 119.463C407.671 118.272 408.452 117.148 409.393 116.161C412.655 112.74 416.452 110.518 420.794 110.415C434.829 110.082 439.852 120.158 440.847 126.292C440.96 126.99 440.399 127.588 439.693 127.577C437.768 127.545 434.821 127.465 432.44 127.296C429.411 127.081 428.584 129.039 428.549 130.045Z" fill="white" stroke="black" stroke-width="0.845385"/>
<path d="M406.435 120.678L405.093 123.942L404.422 127.859L405.093 133.081L408.448 136.998L416.499 142.22C412.742 137.52 406.882 122.854 407.776 118.066L406.435 120.678Z" fill="black"/>
<path d="M124.256 245.588C128.166 250.354 134.155 255.043 142.192 255.765V293V295.15H144.342H164.433H166.583V293V228.069L168.293 227.794C178.159 226.203 186.247 219.114 189.12 209.542C189.849 207.111 190.22 204.586 190.22 202.047V182.372C190.22 177.84 186.545 174.165 182.013 174.165C177.481 174.165 173.806 177.84 173.806 182.372V200.538V202.604C173.806 207.041 170.723 210.758 166.583 211.73V168.046C166.583 161.31 161.123 155.85 154.387 155.85C147.652 155.85 142.192 161.31 142.192 168.046V239.131C141.808 239.02 141.426 238.883 141.048 238.722C137.643 237.276 136.15 233.055 136.15 228.121V189.314C136.15 184.537 132.277 180.664 127.5 180.664C122.723 180.664 118.85 184.537 118.85 189.314V226.355C118.85 232.831 119.721 240.061 124.256 245.588Z" fill="#F4F4F4" stroke="white" stroke-width="4.29936"/>
<path d="M164.433 293V226.239L167.951 225.671C177.003 224.211 184.425 217.707 187.061 208.925V208.925C187.73 206.694 188.07 204.377 188.07 202.047V182.372C188.07 179.027 185.358 176.315 182.013 176.315V176.315C178.668 176.315 175.956 179.027 175.956 182.372V200.538V202.604C175.956 208.968 170.797 214.127 164.433 214.127V214.127V168.046C164.433 162.498 159.935 158 154.387 158V158C148.839 158 144.342 162.498 144.342 168.046V241.6C142.887 241.6 141.489 241.246 140.207 240.701C135.518 238.709 134 233.216 134 228.121V189.314C134 185.724 131.09 182.814 127.5 182.814V182.814C123.91 182.814 121 185.724 121 189.314V226.355C121 232.722 121.879 239.302 125.918 244.224C129.932 249.116 136.087 253.711 144.342 253.711V293" stroke="black"/>
<path d="M708.92 204.121V165.314C708.92 160.537 712.793 156.664 717.57 156.664C722.347 156.664 726.22 160.537 726.22 165.314V202.355C726.22 208.831 725.349 216.061 720.814 221.588C716.904 226.354 710.915 231.043 702.878 231.765V258.954C702.878 265.69 697.418 271.15 690.683 271.15C683.948 271.15 678.488 265.69 678.488 258.954V204.069L676.777 203.794C666.912 202.203 658.823 195.114 655.951 185.542C655.221 183.111 654.851 180.586 654.851 178.047V158.372C654.851 153.84 658.525 150.165 663.057 150.165C667.59 150.165 671.264 153.84 671.264 158.372V176.538V178.604C671.264 183.041 674.347 186.758 678.488 187.73V144.046C678.488 137.31 683.948 131.85 690.683 131.85C697.418 131.85 702.878 137.31 702.878 144.046V215.131C703.263 215.02 703.645 214.883 704.023 214.722L704.863 216.701L704.023 214.722C707.428 213.276 708.92 209.055 708.92 204.121Z" fill="white" stroke="white" stroke-width="4.29936"/>
<path d="M680.637 269V202.239L677.12 201.671C668.067 200.211 660.645 193.707 658.01 184.925V184.925C657.34 182.694 657 180.377 657 178.047V158.372C657 155.027 659.712 152.315 663.057 152.315V152.315C666.402 152.315 669.114 155.027 669.114 158.372V176.538V178.604C669.114 184.968 674.273 190.127 680.637 190.127V190.127V144.046C680.637 138.498 685.135 134 690.683 134V134C696.231 134 700.729 138.498 700.729 144.046V217.6C702.183 217.6 703.581 217.246 704.863 216.701C709.552 214.709 711.07 209.216 711.07 204.121V165.314C711.07 161.724 713.98 158.814 717.57 158.814V158.814C721.16 158.814 724.07 161.724 724.07 165.314V202.355C724.07 208.722 723.191 215.302 719.153 220.224C715.139 225.116 708.983 229.711 700.729 229.711V269" stroke="black"/>
<path d="M795.874 273.376C793.506 276.262 789.888 279.166 785.035 279.846V302V304.15H782.885H770.533H768.383V302V260.954V253.508V225.176C768.383 220.578 772.111 216.85 776.709 216.85C781.307 216.85 785.035 220.578 785.035 225.176V267.628C786.354 266.769 787.093 264.793 787.093 262.112V238.252C787.093 234.858 789.845 232.106 793.239 232.106C796.634 232.106 799.386 234.858 799.386 238.252V261.026C799.386 265.049 798.853 269.745 795.874 273.376Z" fill="#F4F4F4" stroke="white" stroke-width="4.29936"/>
<path d="M770.533 302V260.954V253.508V225.176C770.533 221.765 773.298 219 776.709 219V219C780.12 219 782.885 221.765 782.885 225.176V270.398C783.779 270.398 784.639 270.181 785.427 269.846C788.31 268.621 789.243 265.244 789.243 262.112V238.252C789.243 236.045 791.032 234.256 793.239 234.256V234.256C795.447 234.256 797.236 236.045 797.236 238.252V261.026C797.236 264.94 796.695 268.986 794.212 272.012C791.745 275.02 787.96 277.845 782.885 277.845V302" stroke="black"/>
<path d="M230.49 105.4H271.885C272.156 105.4 272.375 105.146 272.375 104.832C272.375 104.517 272.156 104.263 271.885 104.263H230.49C230.219 104.263 230 104.517 230 104.832C230 105.146 230.219 105.4 230.49 105.4Z" fill="black"/>
<path d="M273.052 103.933C270.376 100.022 267.417 95.6897 267.221 90.4708C267.064 86.2525 268.936 81.7159 272.924 81.2725C274.732 80.9549 276.542 81.8317 277.618 83.5465L278.461 82.978C274.071 76.0081 278.05 65.7182 284.341 62.5119C288.502 60.5754 293.134 60.4903 297.346 62.2731C301.663 64.0607 305.545 67.0286 308.665 70.9257C312.25 75.492 315.456 80.441 318.239 85.7068C318.367 85.9417 318.622 86.0353 318.843 85.9284C319.064 85.8214 319.185 85.5451 319.131 85.2747C318.885 83.1488 319.631 81.0313 321.091 79.7148C322.537 78.2616 324.471 77.6433 326.354 78.032C330.44 78.8734 333.214 83.1144 334.507 87.4009C335.294 90.1793 335.868 93.0329 336.222 95.9285C336.33 96.6107 337.134 96.3605 337.202 95.7807C337.447 93.2451 339.986 92.1991 341.887 92.3696C344.543 92.5743 346.679 95.1098 348.58 96.9973C352.524 100.991 357.504 103.344 362.731 103.683C365.661 103.862 368.594 103.379 371.365 102.262C371.953 102.023 371.698 100.92 371.101 101.125C365.78 103.257 359.96 102.972 354.813 100.329C353.582 99.6989 352.404 98.9376 351.295 98.0547C350.105 97.0475 348.963 95.9657 347.875 94.8142C345.983 92.9609 343.778 91.0735 341.171 91.2099C338.849 91.335 336.467 92.904 336.193 95.7579L337.173 95.5987C336.35 90.1184 335.399 84.1718 331.783 80.1582C330.284 78.4116 328.351 77.2544 326.256 76.8495C324.232 76.5166 322.18 77.1849 320.601 78.6915C318.782 80.2812 317.864 82.9021 318.21 85.5135L319.102 85.0814C313.81 75.7011 307.989 65.6045 298.522 61.4772C294.163 59.4195 289.314 59.2381 284.851 60.9655C281.252 62.5484 278.359 65.7565 276.834 69.8569C275.168 74.2571 275.08 79.5215 277.599 83.501C277.961 84.0809 278.785 83.5578 278.442 82.9325C276.384 79.1917 271.513 79.2372 268.857 82.0456C265.476 85.5931 265.751 91.6988 267.446 96.1331C268.766 99.2018 270.412 102.067 272.346 104.661C272.738 105.229 273.434 104.422 273.042 103.853L273.052 103.933Z" fill="black"/>
<path d="M545.58 142.421H575.578C575.848 142.421 576.068 142.166 576.068 141.852C576.068 141.538 575.848 141.283 575.578 141.283H545.58C545.309 141.283 545.09 141.538 545.09 141.852C545.09 142.166 545.309 142.421 545.58 142.421Z" fill="black"/>
<path d="M575.225 141.624C573.688 139.3 573.601 136.096 575.01 133.665C575.723 132.526 576.822 131.796 578.029 131.657C579.237 131.518 580.438 131.984 581.331 132.937C581.454 133.077 581.632 133.131 581.799 133.08C581.965 133.029 582.096 132.88 582.144 132.687C582.467 130.697 582.781 128.31 584.104 126.82C585.084 125.683 586.985 125.524 587.671 127.173C587.916 127.753 588.73 127.343 588.573 126.729C586.966 120.555 586.113 111.448 591.807 107.628C592.817 106.903 594.006 106.588 595.188 106.729C596.621 107.076 597.913 107.974 598.853 109.276C600.961 111.869 602.815 114.725 604.38 117.792C606.222 121.322 607.727 125.073 608.869 128.98C609.035 129.56 609.849 129.504 609.849 128.833C609.832 127.491 610.287 126.2 611.107 125.254C611.927 124.309 613.044 123.791 614.2 123.819C617.14 123.705 618.982 126.9 619.992 129.697C620.654 131.655 621.16 133.68 621.501 135.746C621.628 136.405 622.432 136.2 622.481 135.598C622.626 133.698 623.756 132.093 625.333 131.55C626.906 130.914 628.638 131.765 629.341 133.517C629.88 134.654 630.213 135.95 630.752 137.11C631.252 138.203 632.001 139.115 632.918 139.748C634.819 141.067 637.22 141.237 639.366 141.499C642.54 141.883 645.732 142.024 648.921 141.92C649.548 141.92 649.548 140.783 648.921 140.783C645.893 140.878 642.862 140.756 639.846 140.419C637.543 140.157 634.662 140.066 632.79 138.27C630.919 136.473 630.948 133.233 629.164 131.368C627.928 130.152 626.205 129.853 624.715 130.595C622.897 131.397 621.644 133.348 621.501 135.598L622.481 135.439C621.765 131.573 620.795 127.161 618.139 124.432C616.029 122.219 612.84 122.132 610.642 124.228C609.448 125.341 608.797 127.059 608.898 128.833L609.878 128.685C607.76 121.162 604.252 114.266 599.598 108.48C598.578 107.087 597.207 106.101 595.678 105.661C594.461 105.422 593.211 105.616 592.091 106.218C589.502 107.691 587.613 110.424 586.936 113.676C585.956 118.065 586.574 122.772 587.681 127.036L588.583 126.593C588.147 125.69 587.397 125.048 586.525 124.83C585.653 124.613 584.743 124.841 584.026 125.456C582.134 126.923 581.664 129.947 581.282 132.346L582.105 132.096C581.033 130.942 579.595 130.358 578.137 130.485C576.679 130.613 575.332 131.439 574.422 132.767C572.622 135.656 572.698 139.582 574.608 142.374C575.019 142.932 575.705 142.124 575.304 141.567L575.225 141.624Z" fill="black"/>
<path d="M422.375 35.0645H450.746C451.016 35.0645 451.236 34.8098 451.236 34.4956C451.236 34.1814 451.016 33.9268 450.746 33.9268H422.375C422.104 33.9268 421.885 34.1814 421.885 34.4956C421.885 34.8098 422.104 35.0645 422.375 35.0645Z" fill="black"/>
<path d="M449.893 33.1881C446.687 30.079 445.689 24.8543 447.462 20.4649C449.246 16.0988 453.548 14.4274 457.439 15.644C459.632 16.2986 461.514 17.9337 462.672 20.1921C462.936 20.7378 463.76 20.374 463.564 19.76C461.76 14.2 463.711 7.67361 467.66 4.03518C469.655 2.15658 472.179 1.20079 474.745 1.35184C477.444 1.59519 480 2.8617 482.017 4.95616C484.299 7.19418 485.74 10.3751 486.035 13.8248C485.997 14.1388 486.186 14.429 486.456 14.4729C486.727 14.5169 486.977 14.298 487.015 13.984C487.64 11.1539 488.667 8.46416 490.053 6.02495C491.481 3.64629 493.826 2.23479 496.325 2.25008C498.842 2.40212 501.248 3.49505 503.185 5.36548C505.268 7.41171 506.986 9.91075 508.242 12.7219C509.692 15.6554 510.927 18.7367 512.485 21.5906C513.828 24.0352 515.66 26.7981 518.257 27.4234C519.476 27.6681 520.73 27.4021 521.795 26.673C522.431 26.2383 523.122 25.9236 523.843 25.7407C524.709 25.6152 525.588 25.6847 526.431 25.9453C527.959 26.366 529.449 26.98 530.968 27.4689C532.487 27.9578 534.055 28.4126 535.623 28.8106C542.66 30.6342 549.855 31.5116 557.065 31.4257C557.336 31.4257 557.555 31.1712 557.555 30.8572C557.555 30.5432 557.336 30.2887 557.065 30.2887C550.393 30.3976 543.729 29.6695 537.191 28.117C533.977 27.3552 530.85 26.3319 527.714 25.2631C526.301 24.6676 524.781 24.4955 523.295 24.7628C521.874 25.1153 520.717 26.4456 519.208 26.4683C516.346 26.5366 514.308 23.0573 512.985 20.5673C511.427 17.6111 510.172 14.4615 508.653 11.4712C507.332 8.69425 505.554 6.24509 503.42 4.26258C501.458 2.49284 499.095 1.42237 496.619 1.18129C493.917 1.02809 491.316 2.385 489.622 4.83109C487.809 7.37798 486.878 10.5957 486.035 13.7111L487.015 13.8589C486.574 7.15058 481.674 1.48828 476.019 0.419496C470.365 -0.649292 465.063 3.51216 462.907 9.57241C461.679 12.8929 461.577 16.6292 462.623 20.0329L463.515 19.6008C461.29 15.121 456.272 13.1767 452.058 14.5866C447.58 16.0875 445.198 21.3404 445.718 26.5593C445.975 29.4838 447.227 32.1684 449.197 34.0181C449.687 34.4615 450.392 33.6656 449.893 33.2108V33.1881Z" fill="black"/>
</svg>
