<svg width="152" height="114" viewBox="0 0 152 114" fill="none" xmlns="http://www.w3.org/2000/svg">
<path d="M140.96 30.3685C141.639 29.3757 142.002 28.2009 142 26.9983V14.9975C142 13.4061 141.368 11.8798 140.243 10.7545C139.118 9.62925 137.591 8.99707 136 8.99707H132C130.408 8.99707 128.882 9.62925 127.757 10.7545C126.632 11.8798 125.999 13.4061 125.999 14.9975V16.9976H119.999C118.894 16.9976 117.999 17.8931 117.999 18.9977C117.999 20.1024 118.894 20.9979 119.999 20.9979H125.999V26.9983C125.998 28.2009 126.361 29.3757 127.039 30.3685C125.514 31.2359 124.244 32.4908 123.359 34.0063C122.474 35.5218 122.005 37.2441 121.999 38.9991V46.9996H112.212C110.766 46.9814 109.359 47.4723 108.238 48.3863C107.116 49.3003 106.352 50.5794 106.078 51.9999C105.933 52.8607 105.977 53.7428 106.207 54.5847C106.438 55.4267 106.849 56.2082 107.413 56.8747C107.977 57.5413 108.679 58.0768 109.471 58.4439C110.263 58.8111 111.126 59.001 111.998 59.0004H121.999V63.0007C121.999 63.5311 122.21 64.0399 122.585 64.415C122.96 64.7901 123.469 65.0008 123.999 65.0008H125.999V93.3707C124.833 93.7829 123.823 94.5452 123.107 95.5534C122.391 96.5616 122.004 97.7665 121.999 99.0031V103.003C121.999 103.534 122.21 104.043 122.585 104.418C122.96 104.793 123.469 105.003 123.999 105.003H144.001C144.531 105.003 145.04 104.793 145.415 104.418C145.79 104.043 146.001 103.534 146.001 103.003V38.9991C145.995 37.2441 145.526 35.5218 144.641 34.0063C143.756 32.4908 142.486 31.2359 140.96 30.3685ZM138 65.0008H142V93.0027H138V65.0008ZM130 14.9975C130 14.467 130.21 13.9583 130.585 13.5832C130.961 13.2081 131.469 12.9973 132 12.9973H136C136.531 12.9973 137.039 13.2081 137.414 13.5832C137.789 13.9583 138 14.467 138 14.9975V16.9976H130V14.9975ZM130 26.9983V20.9979H138V26.9983C138 27.5287 137.789 28.0375 137.414 28.4126C137.039 28.7877 136.531 28.9984 136 28.9984H132C131.469 28.9984 130.961 28.7877 130.585 28.4126C130.21 28.0375 130 27.5287 130 26.9983ZM110.472 54.2941C110.282 54.0696 110.143 53.8058 110.067 53.5216C109.99 53.2374 109.977 52.9398 110.028 52.65C110.147 52.1655 110.429 51.7368 110.827 51.4362C111.225 51.1356 111.714 50.9814 112.212 50.9999H130C130.53 50.9999 131.039 50.7891 131.414 50.414C131.789 50.0389 132 49.5302 132 48.9997V42.9993C132 42.7363 132.053 42.476 132.154 42.2333C132.263 41.986 132.419 41.7624 132.614 41.5752C132.788 41.3941 132.998 41.2511 133.23 41.1552C133.534 41.0285 133.864 40.9787 134.192 41.0103C134.519 41.0418 134.834 41.1538 135.108 41.3362C135.382 41.5186 135.607 41.7659 135.763 42.056C135.918 42.3461 136 42.6701 136 42.9993V53C136 53.5305 135.789 54.0392 135.414 54.4143C135.039 54.7894 134.53 55.0001 134 55.0001H111.998C111.708 55.0003 111.421 54.9372 111.158 54.8153C110.894 54.6933 110.66 54.5155 110.472 54.2941ZM134 59.0004C135.591 59.0004 137.118 58.3682 138.243 57.2429C139.368 56.1176 140 54.5914 140 53V42.9993C140 41.4079 139.368 39.8817 138.243 38.7564C137.118 37.6311 135.591 36.9989 134 36.9989C132.762 36.9961 131.555 37.3831 130.55 38.105C129.952 38.5237 129.434 39.0476 129.024 39.6511C128.351 40.6379 127.994 41.8054 128 42.9993V46.9996H125.999V38.9991C125.999 37.4077 126.632 35.8814 127.757 34.7561C128.882 33.6308 130.408 32.9987 132 32.9987H136C137.591 32.9987 139.118 33.6308 140.243 34.7561C141.368 35.8814 142 37.4077 142 38.9991V61.0005H125.999V59.0004H134ZM134 65.0008V93.0027H130V65.0008H134ZM125.999 99.0031C125.999 98.4726 126.21 97.9638 126.585 97.5887C126.96 97.2137 127.469 97.0029 128 97.0029H134V101.003H125.999V99.0031ZM142 101.003H138V97.0029H142V101.003Z" fill="#44E0B7"/>
<path d="M25.2612 67.2708C27.9261 67.2708 30.4659 67.8185 32.7767 68.8069L50.8906 38H62.6814C64.0918 38 65.2348 39.1492 65.2348 40.5672C65.2348 41.9851 64.0918 43.1343 62.6814 43.1343H53.8049L48.5236 52.1177C49.7356 51.8276 50.9919 51.6573 52.2907 51.6573H60.2897C64.4135 51.6573 68.1721 53.2199 71.0438 55.7699H96.5983C100.67 55.7699 103.983 59.1004 103.983 63.1942C103.983 65.0554 103.293 66.754 102.164 68.0581C110.15 70.4199 116 77.8519 116 86.6359C116 97.3136 107.36 106 96.7396 106C86.9856 106 78.9075 98.6707 77.6538 89.203H52.381C51.3239 89.203 50.3774 88.5492 49.9969 87.5583L43.4968 70.5919H38.5628H38.5457C38.2632 70.5919 37.9968 70.5354 37.7431 70.4499L37.1661 71.4314C41.6396 74.9809 44.5207 80.4747 44.5207 86.6359C44.5207 97.3136 35.88 106 25.2604 106C14.639 106 6 97.3136 6 86.6359C6 75.9581 14.6407 67.2708 25.2612 67.2708ZM96.5983 60.9034H74.9242C75.6102 62.3213 76.0945 63.8505 76.3481 65.4593L96.5983 65.4832C97.8546 65.4832 98.876 64.4564 98.876 63.1933C98.876 61.9303 97.8546 60.9034 96.5983 60.9034ZM96.7396 89.2022H82.8287C84.0356 95.8255 89.808 100.865 96.7396 100.865C104.544 100.865 110.893 94.4811 110.893 86.635C110.893 78.788 104.544 72.4043 96.7396 72.4043C89.808 72.4043 84.0356 77.4437 82.8287 84.0678H96.7396C98.15 84.0678 99.293 85.2171 99.293 86.635C99.293 88.0529 98.15 89.2022 96.7396 89.2022ZM54.1335 84.0678H77.6538C78.3934 78.48 81.5077 73.6357 85.9455 70.6047L74.0117 70.5911H48.9705L54.1335 84.0678ZM71.1672 65.4567C70.0097 60.4952 65.5719 56.7908 60.2889 56.7908H52.2899C47.0069 56.7908 42.5682 60.4961 41.4115 65.4567H71.1672ZM25.2612 100.865C33.0644 100.865 39.4148 94.4811 39.4148 86.635C39.4148 82.3555 37.5167 78.5202 34.5343 75.9094L27.4588 87.9417C26.9814 88.7521 26.1319 89.2039 25.2578 89.2039C24.8169 89.2039 24.3684 89.0884 23.9615 88.8462C22.7478 88.124 22.3461 86.5494 23.0619 85.33L30.1382 73.2951C28.6155 72.7304 26.9762 72.406 25.2612 72.406C17.4563 72.406 11.1077 78.7897 11.1077 86.6367C11.1077 94.4811 17.4563 100.865 25.2612 100.865Z" fill="#200A52"/>
<path d="M25.2612 67.2708C27.9261 67.2708 30.4659 67.8185 32.7767 68.8069L50.8906 38H62.6814C64.0918 38 65.2348 39.1492 65.2348 40.5672C65.2348 41.9851 64.0918 43.1343 62.6814 43.1343H53.8049L48.5236 52.1177C49.7356 51.8276 50.9919 51.6573 52.2907 51.6573H60.2897C64.4135 51.6573 68.1721 53.2199 71.0438 55.7699H96.5983C100.67 55.7699 103.983 59.1004 103.983 63.1942C103.983 65.0554 103.293 66.754 102.164 68.0581C110.15 70.4199 116 77.8519 116 86.6359C116 97.3136 107.36 106 96.7396 106C86.9856 106 78.9075 98.6707 77.6538 89.203H52.381C51.3239 89.203 50.3774 88.5492 49.9969 87.5583L43.4968 70.5919H38.5628H38.5457C38.2632 70.5919 37.9968 70.5354 37.7431 70.4499L37.1661 71.4314C41.6396 74.9809 44.5207 80.4747 44.5207 86.6359C44.5207 97.3136 35.88 106 25.2604 106C14.639 106 6 97.3136 6 86.6359C6 75.9581 14.6407 67.2708 25.2612 67.2708ZM96.5983 60.9034H74.9242C75.6102 62.3213 76.0945 63.8505 76.3481 65.4593L96.5983 65.4832C97.8546 65.4832 98.876 64.4564 98.876 63.1933C98.876 61.9303 97.8546 60.9034 96.5983 60.9034ZM96.7396 89.2022H82.8287C84.0356 95.8255 89.808 100.865 96.7396 100.865C104.544 100.865 110.893 94.4811 110.893 86.635C110.893 78.788 104.544 72.4043 96.7396 72.4043C89.808 72.4043 84.0356 77.4437 82.8287 84.0678H96.7396C98.15 84.0678 99.293 85.2171 99.293 86.635C99.293 88.0529 98.15 89.2022 96.7396 89.2022ZM54.1335 84.0678H77.6538C78.3934 78.48 81.5077 73.6357 85.9455 70.6047L74.0117 70.5911H48.9705L54.1335 84.0678ZM71.1672 65.4567C70.0097 60.4952 65.5719 56.7908 60.2889 56.7908H52.2899C47.0069 56.7908 42.5682 60.4961 41.4115 65.4567H71.1672ZM25.2612 100.865C33.0644 100.865 39.4148 94.4811 39.4148 86.635C39.4148 82.3555 37.5167 78.5202 34.5343 75.9094L27.4588 87.9417C26.9814 88.7521 26.1319 89.2039 25.2578 89.2039C24.8169 89.2039 24.3684 89.0884 23.9615 88.8462C22.7478 88.124 22.3461 86.5494 23.0619 85.33L30.1382 73.2951C28.6155 72.7304 26.9762 72.406 25.2612 72.406C17.4563 72.406 11.1077 78.7897 11.1077 86.6367C11.1077 94.4811 17.4563 100.865 25.2612 100.865Z" stroke="#200A52"/>
</svg>
