<svg width="454" height="835" viewBox="0 0 454 835" fill="none" xmlns="http://www.w3.org/2000/svg">
<g opacity="0.5">
<g opacity="0.12">
<path d="M207.406 189.204C205.266 191.269 205.392 194.503 207.688 196.417C209.984 198.331 213.588 198.209 215.698 196.145C217.838 194.08 217.713 190.875 215.417 188.96C213.12 187.018 209.546 187.139 207.406 189.204Z" fill="#6B29D1"/>
<path d="M180.311 166.551C178.171 168.616 178.297 171.849 180.593 173.763C182.889 175.677 186.494 175.555 188.634 173.49C190.775 171.425 190.648 168.193 188.352 166.279C186.056 164.364 182.452 164.487 180.311 166.551Z" fill="#6B29D1"/>
<path d="M153.217 143.869C151.076 145.934 151.203 149.167 153.498 151.054C155.793 152.968 159.398 152.846 161.507 150.782C163.648 148.717 163.521 145.484 161.226 143.597C158.961 141.682 155.357 141.804 153.217 143.869Z" fill="#6B29D1"/>
<path d="M126.153 121.214C124.013 123.279 124.139 126.512 126.434 128.399C128.728 130.286 132.334 130.191 134.443 128.127C136.584 126.062 136.457 122.829 134.163 120.943C131.868 119.056 128.293 119.149 126.153 121.214Z" fill="#6B29D1"/>
<path d="M182.204 213.591C180.064 215.655 180.19 218.888 182.485 220.775C184.781 222.689 188.386 222.567 190.495 220.503C192.636 218.438 192.51 215.233 190.214 213.319C187.949 211.404 184.345 211.526 182.204 213.591Z" fill="#6B29D1"/>
<path d="M155.14 190.909C152.999 192.974 153.126 196.207 155.42 198.093C157.716 200.007 161.29 199.886 163.431 197.821C165.571 195.757 165.446 192.551 163.15 190.637C160.854 188.723 157.249 188.846 155.14 190.909Z" fill="#6B29D1"/>
<path d="M128.045 168.255C125.905 170.32 126.031 173.553 128.327 175.467C130.623 177.381 134.197 177.26 136.338 175.195C138.478 173.131 138.352 169.898 136.056 167.984C133.76 166.069 130.186 166.191 128.045 168.255Z" fill="#6B29D1"/>
<path d="M100.95 145.573C98.8094 147.638 98.9358 150.871 101.232 152.785C103.528 154.699 107.132 154.577 109.242 152.513C111.352 150.45 111.256 147.216 108.96 145.302C106.695 143.386 103.09 143.509 100.95 145.573Z" fill="#6B29D1"/>
<path d="M73.8865 122.92C71.746 124.985 71.8724 128.217 74.1673 130.104C76.4633 132.018 80.037 131.897 82.1774 129.832C84.3179 127.767 84.1915 124.535 81.8966 122.648C79.6006 120.734 76.0269 120.855 73.8865 122.92Z" fill="#6B29D1"/>
<path d="M157.032 237.948C154.892 240.013 155.018 243.245 157.314 245.16C159.61 247.074 163.215 246.951 165.355 244.887C167.496 242.822 167.369 239.589 165.073 237.675C162.746 235.762 159.142 235.884 157.032 237.948Z" fill="#6B29D1"/>
<path d="M129.938 215.295C127.798 217.36 127.924 220.592 130.219 222.479C132.515 224.393 136.12 224.271 138.229 222.207C140.37 220.142 140.244 216.937 137.948 215.023C135.683 213.108 132.079 213.23 129.938 215.295Z" fill="#6B29D1"/>
<path d="M102.843 192.612C100.703 194.677 100.83 197.91 103.124 199.797C105.42 201.711 109.025 201.589 111.165 199.524C113.305 197.459 113.18 194.254 110.884 192.339C108.588 190.425 104.984 190.547 102.843 192.612Z" fill="#6B29D1"/>
<path d="M75.7801 169.957C73.6398 172.022 73.7662 175.256 76.0621 177.17C78.3579 179.084 81.9315 178.963 84.0718 176.898C86.2121 174.833 86.0868 171.627 83.7909 169.713C81.494 167.771 77.9204 167.892 75.7801 169.957Z" fill="#6B29D1"/>
<path d="M48.6847 147.277C46.5444 149.342 46.6708 152.575 48.9666 154.489C51.2625 156.404 54.836 156.282 56.9763 154.217C59.1167 152.152 58.9903 148.919 56.6944 147.005C54.4294 145.089 50.825 145.212 48.6847 147.277Z" fill="#6B29D1"/>
<path d="M131.831 262.334C129.691 264.399 129.817 267.632 132.113 269.546C134.409 271.46 137.983 271.339 140.123 269.274C142.264 267.209 142.138 264.004 139.842 262.09C137.576 260.147 133.972 260.269 131.831 262.334Z" fill="#6B29D1"/>
<path d="M104.736 239.653C102.595 241.718 102.722 244.95 105.018 246.865C107.314 248.779 110.887 248.657 113.028 246.593C115.168 244.528 115.042 241.295 112.746 239.381C110.482 237.494 106.877 237.616 104.736 239.653Z" fill="#6B29D1"/>
<path d="M77.6724 216.998C75.532 219.063 75.6584 222.296 77.9533 224.182C80.2492 226.096 83.8538 225.974 85.9942 223.909C88.1346 221.844 88.0083 218.612 85.7134 216.725C83.3866 214.812 79.8129 214.933 77.6724 216.998Z" fill="#6B29D1"/>
<path d="M50.577 194.317C48.4366 196.382 48.5629 199.615 50.8578 201.501C53.1538 203.415 56.7275 203.294 58.868 201.229C61.0084 199.165 60.882 195.932 58.5871 194.046C56.322 192.13 52.7174 192.253 50.577 194.317Z" fill="#6B29D1"/>
<path d="M23.5133 171.663C21.3728 173.728 21.4992 176.96 23.7941 178.847C26.0901 180.761 29.6946 180.639 31.8043 178.575C33.9447 176.51 33.8194 173.305 31.5234 171.391C29.2275 169.477 25.6537 169.598 23.5133 171.663Z" fill="#6B29D1"/>
<path d="M106.66 286.718C104.52 288.783 104.646 292.016 106.941 293.903C109.237 295.817 112.842 295.694 114.951 293.631C117.092 291.566 116.965 288.333 114.67 286.446C112.374 284.532 108.77 284.655 106.66 286.718Z" fill="#6B29D1"/>
<path d="M79.5653 264.037C77.4248 266.102 77.5512 269.334 79.8461 271.221C82.1421 273.135 85.7466 273.013 87.8563 270.949C89.9967 268.885 89.8714 265.679 87.5754 263.765C85.2795 261.851 81.7057 261.972 79.5653 264.037Z" fill="#6B29D1"/>
<path d="M52.4704 241.355C50.3301 243.42 50.4565 246.653 52.7512 248.54C55.0471 250.454 58.6514 250.332 60.7609 248.268C62.9012 246.203 62.7759 242.998 60.48 241.084C58.2161 239.196 54.6117 239.318 52.4704 241.355Z" fill="#6B29D1"/>
<path d="M25.4066 218.702C23.2661 220.767 23.3925 223.999 25.6885 225.913C27.9845 227.827 31.589 227.705 33.6987 225.642C35.8391 223.577 35.7127 220.344 33.4167 218.43C31.1208 216.516 27.547 216.637 25.4066 218.702Z" fill="#6B29D1"/>
<path d="M-1.68837 196.019C-3.82868 198.084 -3.7023 201.317 -1.40643 203.231C0.889429 205.146 4.49379 205.024 6.6033 202.96C8.74361 200.895 8.61722 197.661 6.32136 195.747C4.0563 193.831 0.45194 193.954 -1.68837 196.019Z" fill="#6B29D1"/>
<path d="M81.4576 311.076C79.3172 313.141 79.4435 316.374 81.7395 318.288C84.0355 320.202 87.6401 320.08 89.7497 318.016C91.8594 315.953 91.7638 312.719 89.4678 310.805C87.2026 308.889 83.5981 309.012 81.4576 311.076Z" fill="#6B29D1"/>
<path d="M54.3645 288.422C52.2242 290.487 52.3506 293.72 54.6464 295.635C56.9423 297.549 60.5466 297.427 62.6869 295.362C64.8272 293.297 64.7008 290.063 62.405 288.149C60.1091 286.234 56.5048 286.357 54.3645 288.422Z" fill="#6B29D1"/>
<path d="M27.2994 265.741C25.159 267.806 25.2853 271.038 27.5802 272.925C29.8762 274.839 33.45 274.718 35.5904 272.653C37.7308 270.588 37.6055 267.383 35.3096 265.469C33.0136 263.555 29.4398 263.676 27.2994 265.741Z" fill="#6B29D1"/>
<path d="M0.205443 243.087C-1.93486 245.152 -1.80847 248.385 0.486302 250.272C2.78216 252.186 6.38651 252.064 8.496 250C10.6363 247.935 10.511 244.729 8.21514 242.815C5.9501 240.899 2.34575 241.022 0.205443 243.087Z" fill="#6B29D1"/>
<path d="M56.2563 335.462C54.1159 337.527 54.2422 340.76 56.5371 342.647C58.8331 344.561 62.4377 344.439 64.5473 342.375C66.6877 340.31 66.5624 337.105 64.2665 335.191C62.0013 333.275 58.3967 333.398 56.2563 335.462Z" fill="#6B29D1"/>
<path d="M29.1921 312.78C27.0516 314.845 27.178 318.078 29.474 319.992C31.77 321.907 35.3745 321.784 37.4842 319.721C39.6246 317.656 39.4993 314.45 37.2033 312.536C34.9063 310.594 31.3325 310.716 29.1921 312.78Z" fill="#6B29D1"/>
<path d="M2.098 290.125C-0.0423056 292.19 0.0840825 295.424 2.37994 297.338C4.67581 299.252 8.28017 299.13 10.3897 297.066C12.53 295.001 12.4036 291.768 10.1077 289.853C7.84268 287.938 4.23832 288.06 2.098 290.125Z" fill="#6B29D1"/>
<path d="M31.0849 359.819C28.9445 361.884 29.0709 365.117 31.3657 367.003C33.6617 368.917 37.2663 368.795 39.4067 366.73C41.5471 364.666 41.4207 361.433 39.1259 359.546C36.8002 357.661 33.2264 357.782 31.0849 359.819Z" fill="#6B29D1"/>
<path d="M3.99043 337.166C1.85 339.231 1.97638 342.463 4.27127 344.35C6.56725 346.264 10.1718 346.142 12.2814 344.078C14.4219 342.013 14.2966 338.808 12.0006 336.894C9.73543 334.979 6.13087 335.101 3.99043 337.166Z" fill="#6B29D1"/>
<path d="M5.88361 384.206C3.74317 386.27 3.86955 389.503 6.16553 391.417C8.46152 393.331 12.0353 393.21 14.1757 391.145C16.3162 389.081 16.1909 385.875 13.8949 383.961C11.6286 382.018 8.02405 382.141 5.88361 384.206Z" fill="#6B29D1"/>
</g>
<g opacity="0.12">
<path d="M232.429 164.991C230.289 167.056 230.415 170.289 232.711 172.203C235.007 174.118 238.611 173.995 240.721 171.931C242.861 169.867 242.736 166.661 240.44 164.747C238.143 162.805 234.569 162.926 232.429 164.991Z" fill="#6B29D1"/>
<path d="M205.335 142.337C203.195 144.402 203.321 147.635 205.617 149.55C207.913 151.464 211.517 151.342 213.657 149.277C215.798 147.212 215.671 143.979 213.376 142.064C211.08 140.15 207.475 140.272 205.335 142.337Z" fill="#6B29D1"/>
<path d="M178.24 119.656C176.099 121.721 176.226 124.954 178.521 126.841C180.816 128.755 184.421 128.633 186.53 126.569C188.671 124.504 188.544 121.271 186.249 119.384C183.984 117.469 180.38 117.591 178.24 119.656Z" fill="#6B29D1"/>
<path d="M151.176 97.0007C149.036 99.0658 149.162 102.299 151.457 104.186C153.752 106.073 157.357 105.978 159.467 103.914C161.607 101.849 161.481 98.6158 159.186 96.7289C156.891 94.842 153.316 94.9356 151.176 97.0007Z" fill="#6B29D1"/>
<path d="M207.228 189.376C205.088 191.441 205.214 194.675 207.509 196.562C209.805 198.476 213.409 198.354 215.518 196.29C217.659 194.225 217.533 191.019 215.238 189.104C212.973 187.189 209.368 187.311 207.228 189.376Z" fill="#6B29D1"/>
<path d="M180.163 166.694C178.023 168.759 178.149 171.992 180.444 173.879C182.74 175.793 186.314 175.672 188.454 173.607C190.594 171.542 190.469 168.336 188.173 166.422C185.877 164.507 182.273 164.63 180.163 166.694Z" fill="#6B29D1"/>
<path d="M153.069 144.041C150.929 146.106 151.055 149.339 153.351 151.253C155.647 153.167 159.221 153.046 161.361 150.981C163.501 148.916 163.375 145.683 161.079 143.769C158.783 141.854 155.209 141.976 153.069 144.041Z" fill="#6B29D1"/>
<path d="M125.974 121.358C123.833 123.423 123.96 126.657 126.256 128.571C128.551 130.485 132.156 130.363 134.265 128.299C136.375 126.235 136.279 123.001 133.983 121.086C131.718 119.171 128.114 119.293 125.974 121.358Z" fill="#6B29D1"/>
<path d="M98.9095 98.7056C96.7691 100.77 96.8955 104.003 99.1904 105.89C101.486 107.804 105.06 107.683 107.201 105.618C109.341 103.553 109.215 100.32 106.92 98.4338C104.624 96.5196 101.05 96.6409 98.9095 98.7056Z" fill="#6B29D1"/>
<path d="M182.056 213.733C179.916 215.798 180.042 219.032 182.338 220.946C184.634 222.861 188.238 222.739 190.378 220.673C192.519 218.608 192.392 215.375 190.096 213.46C187.77 211.547 184.165 211.669 182.056 213.733Z" fill="#6B29D1"/>
<path d="M154.962 191.08C152.822 193.145 152.948 196.378 155.243 198.265C157.539 200.179 161.143 200.057 163.252 197.993C165.393 195.928 165.267 192.722 162.972 190.808C160.707 188.892 157.102 189.015 154.962 191.08Z" fill="#6B29D1"/>
<path d="M127.867 168.398C125.726 170.463 125.853 173.696 128.147 175.583C130.443 177.498 134.048 177.375 136.188 175.31C138.328 173.245 138.203 170.039 135.907 168.125C133.611 166.211 130.007 166.333 127.867 168.398Z" fill="#6B29D1"/>
<path d="M100.803 145.744C98.6629 147.809 98.7893 151.043 101.085 152.957C103.381 154.872 106.955 154.75 109.095 152.685C111.235 150.62 111.11 147.415 108.814 145.5C106.517 143.558 102.944 143.679 100.803 145.744Z" fill="#6B29D1"/>
<path d="M73.7077 123.063C71.5674 125.128 71.6938 128.361 73.9897 130.275C76.2855 132.19 79.8591 132.069 81.9994 130.004C84.1397 127.939 84.0133 124.706 81.7175 122.791C79.4524 120.876 75.848 120.998 73.7077 123.063Z" fill="#6B29D1"/>
<path d="M156.855 238.119C154.714 240.184 154.841 243.417 157.137 245.332C159.432 247.247 163.006 247.125 165.146 245.06C167.287 242.995 167.161 239.789 164.866 237.875C162.599 235.932 158.995 236.054 156.855 238.119Z" fill="#6B29D1"/>
<path d="M129.759 215.438C127.619 217.503 127.745 220.736 130.041 222.65C132.337 224.565 135.911 224.444 138.051 222.379C140.191 220.314 140.065 217.08 137.769 215.166C135.505 213.278 131.901 213.4 129.759 215.438Z" fill="#6B29D1"/>
<path d="M102.696 192.783C100.556 194.848 100.682 198.081 102.977 199.968C105.273 201.882 108.877 201.76 111.017 199.695C113.158 197.63 113.031 194.397 110.737 192.51C108.41 190.597 104.836 190.718 102.696 192.783Z" fill="#6B29D1"/>
<path d="M75.6006 170.102C73.4603 172.167 73.5867 175.4 75.8815 177.287C78.1773 179.202 81.7508 179.08 83.8911 177.015C86.0314 174.95 85.9051 171.717 83.6103 169.83C81.3452 167.915 77.7409 168.037 75.6006 170.102Z" fill="#6B29D1"/>
<path d="M48.537 147.447C46.3967 149.512 46.5231 152.745 48.8178 154.632C51.1137 156.546 54.7181 156.424 56.8275 154.36C58.9678 152.295 58.8425 149.09 56.5467 147.176C54.2508 145.261 50.6773 145.382 48.537 147.447Z" fill="#6B29D1"/>
<path d="M131.684 262.504C129.544 264.569 129.67 267.803 131.965 269.689C134.261 271.604 137.865 271.482 139.975 269.418C142.115 267.353 141.988 264.119 139.694 262.232C137.398 260.318 133.793 260.44 131.684 262.504Z" fill="#6B29D1"/>
<path d="M104.589 239.823C102.449 241.888 102.575 245.121 104.87 247.008C107.166 248.922 110.77 248.8 112.879 246.736C115.02 244.671 114.894 241.465 112.599 239.551C110.303 237.636 106.729 237.757 104.589 239.823Z" fill="#6B29D1"/>
<path d="M77.4934 217.141C75.3531 219.206 75.4795 222.439 77.7743 224.326C80.0701 226.241 83.6745 226.118 85.784 224.054C87.9243 221.989 87.799 218.784 85.5031 216.869C83.2392 214.981 79.6348 215.104 77.4934 217.141Z" fill="#6B29D1"/>
<path d="M50.43 194.487C48.2897 196.552 48.4161 199.786 50.712 201.7C53.0078 203.615 56.6122 203.492 58.7217 201.428C60.862 199.363 60.7356 196.13 58.4398 194.215C56.1439 192.301 52.5703 192.422 50.43 194.487Z" fill="#6B29D1"/>
<path d="M23.3346 171.805C21.1943 173.871 21.3206 177.104 23.6165 179.019C25.9124 180.933 29.5167 180.811 31.6262 178.747C33.7666 176.682 33.6402 173.448 31.3443 171.534C29.0792 169.618 25.4749 169.74 23.3346 171.805Z" fill="#6B29D1"/>
<path d="M106.481 286.862C104.341 288.927 104.467 292.16 106.763 294.075C109.059 295.989 112.664 295.867 114.773 293.803C116.883 291.739 116.787 288.504 114.491 286.59C112.226 284.674 108.622 284.797 106.481 286.862Z" fill="#6B29D1"/>
<path d="M79.3876 264.208C77.2473 266.273 77.3737 269.506 79.6695 271.421C81.9654 273.335 85.5697 273.213 87.71 271.148C89.8503 269.083 89.7239 265.85 87.4281 263.935C85.1322 262.021 81.5279 262.143 79.3876 264.208Z" fill="#6B29D1"/>
<path d="M52.323 241.526C50.1827 243.591 50.3091 246.824 52.6039 248.711C54.8997 250.625 58.4733 250.504 60.6136 248.439C62.7539 246.374 62.6286 243.168 60.3327 241.254C58.0368 239.339 54.4633 239.461 52.323 241.526Z" fill="#6B29D1"/>
<path d="M25.2285 218.873C23.0882 220.938 23.2146 224.171 25.5094 226.058C27.8052 227.972 31.4096 227.85 33.5191 225.786C35.6594 223.721 35.5341 220.515 33.2382 218.601C30.9732 216.685 27.3688 216.808 25.2285 218.873Z" fill="#6B29D1"/>
<path d="M-1.83599 196.19C-3.97629 198.255 -3.84991 201.488 -1.55405 203.402C0.741802 205.317 4.34618 205.195 6.48648 203.13C8.62678 201.065 8.50148 197.859 6.20563 195.945C3.87788 194.004 0.273504 194.126 -1.83599 196.19Z" fill="#6B29D1"/>
<path d="M81.28 311.247C79.1397 313.312 79.2661 316.546 81.5609 318.433C83.8567 320.347 87.4611 320.225 89.5706 318.161C91.7109 316.096 91.5856 312.89 89.2897 310.975C87.0247 309.059 83.4203 309.182 81.28 311.247Z" fill="#6B29D1"/>
<path d="M54.2157 288.565C52.0754 290.63 52.2018 293.864 54.4976 295.778C56.7935 297.693 60.3978 297.571 62.5074 295.506C64.6477 293.441 64.5224 290.236 62.2265 288.321C59.9295 286.379 56.356 286.5 54.2157 288.565Z" fill="#6B29D1"/>
<path d="M27.1212 265.912C24.9809 267.977 25.1073 271.21 27.4031 273.125C29.699 275.04 33.3034 274.917 35.4129 272.853C37.5532 270.788 37.4268 267.555 35.1309 265.64C32.8659 263.725 29.2615 263.847 27.1212 265.912Z" fill="#6B29D1"/>
<path d="M0.0568439 243.23C-2.08345 245.295 -1.95706 248.528 0.337705 250.415C2.63355 252.33 6.23792 252.207 8.37821 250.142C10.5185 248.077 10.3921 244.844 8.09735 242.957C5.7707 241.044 2.19714 241.165 0.0568439 243.23Z" fill="#6B29D1"/>
<path d="M56.1086 335.605C53.9683 337.67 54.0947 340.903 56.3895 342.79C58.6853 344.705 62.2897 344.582 64.43 342.517C66.5703 340.452 66.4439 337.219 64.1491 335.332C61.8235 333.446 58.25 333.567 56.1086 335.605Z" fill="#6B29D1"/>
<path d="M29.014 312.951C26.8737 315.016 27.0001 318.25 29.2949 320.137C31.5908 322.051 35.1951 321.929 37.3046 319.865C39.4449 317.8 39.3196 314.594 37.0237 312.68C34.7587 310.764 31.1543 310.886 29.014 312.951Z" fill="#6B29D1"/>
<path d="M1.94967 290.269C-0.190624 292.334 -0.0642363 295.567 2.23053 297.454C4.52638 299.369 8.13074 299.246 10.271 297.181C12.4113 295.116 12.286 291.911 9.99017 289.996C7.66352 288.083 4.08996 288.204 1.94967 290.269Z" fill="#6B29D1"/>
<path d="M30.9072 359.99C28.7669 362.055 28.8933 365.289 31.1892 367.203C33.485 369.118 37.0586 368.996 39.1989 366.931C41.3392 364.866 41.2139 361.66 38.918 359.746C36.6519 357.803 33.0475 357.925 30.9072 359.99Z" fill="#6B29D1"/>
<path d="M3.84249 337.309C1.70219 339.374 1.82858 342.607 4.12443 344.522C6.42029 346.436 10.0247 346.314 12.1342 344.25C14.2745 342.185 14.1481 338.951 11.8522 337.037C9.55747 335.15 5.98388 335.271 3.84249 337.309Z" fill="#6B29D1"/>
</g>
<g opacity="0.12">
<path d="M25.4018 36.8167C23.2616 38.8817 19.6572 39.004 17.3614 37.0896C15.0655 35.1751 14.9392 31.9419 17.0805 29.9046C19.2208 27.8396 22.7943 27.7183 25.0902 29.6328C27.4168 31.5461 27.5421 34.7517 25.4018 36.8167Z" fill="#6B29D1"/>
<path d="M52.4668 59.4987C50.3265 61.5637 46.7222 61.686 44.4263 59.7716C42.1305 57.8571 42.0041 54.6238 44.1444 52.5589C46.2847 50.4939 49.889 50.3716 52.1849 52.286C54.4807 54.2004 54.6071 57.4337 52.4668 59.4987Z" fill="#6B29D1"/>
<path d="M79.562 82.18C77.4217 84.245 73.8174 84.3673 71.5523 82.4518C69.2565 80.5374 69.1301 77.3042 71.2715 75.2669C73.4118 73.2019 77.0161 73.0796 79.2811 74.9951C81.5759 76.8818 81.7023 80.1151 79.562 82.18Z" fill="#6B29D1"/>
<path d="M106.625 104.834C104.485 106.899 100.881 107.021 98.6157 105.106C96.3507 103.19 96.1935 99.958 98.3349 97.9206C100.475 95.8556 104.079 95.7333 106.345 97.6488C108.61 99.5643 108.766 102.769 106.625 104.834Z" fill="#6B29D1"/>
<path d="M0.20073 61.2025C-1.93957 63.2674 -5.54397 63.3897 -7.80902 61.4743C-10.1049 59.5599 -10.2313 56.3266 -8.08988 54.2893C-5.94957 52.2244 -2.37598 52.1031 -0.0801294 54.0175C2.21465 55.9043 2.34103 59.1375 0.20073 61.2025Z" fill="#6B29D1"/>
<path d="M27.2951 83.8558C25.1548 85.9207 21.5504 86.0431 19.2853 84.1276C16.9895 82.2132 16.8642 79.0076 19.0045 76.9426C21.1448 74.8777 24.7184 74.7564 27.0142 76.6708C29.3101 78.5852 29.4365 81.8185 27.2951 83.8558Z" fill="#6B29D1"/>
<path d="M54.3594 106.538C52.2191 108.603 48.6148 108.725 46.3189 106.811C44.0231 104.896 43.8978 101.69 46.038 99.6253C48.1783 97.5603 51.7827 97.438 54.0785 99.3525C56.3744 101.267 56.4997 104.473 54.3594 106.538Z" fill="#6B29D1"/>
<path d="M81.4548 129.219C79.3145 131.284 75.7102 131.407 73.4143 129.492C71.1185 127.578 70.9921 124.345 73.1335 122.307C75.2748 120.27 78.8781 120.12 81.1739 122.034C83.4687 123.921 83.5951 127.154 81.4548 129.219Z" fill="#6B29D1"/>
<path d="M108.518 151.873C106.378 153.938 102.773 154.061 100.508 152.145C98.2125 150.231 98.0872 147.025 100.228 144.96C102.368 142.895 105.972 142.773 108.237 144.688C110.533 146.603 110.658 149.808 108.518 151.873Z" fill="#6B29D1"/>
<path d="M2.09344 108.242C-0.0468667 110.306 -3.65126 110.429 -5.91631 108.513C-8.21217 106.599 -8.33856 103.366 -6.19718 101.328C-4.05687 99.2634 -0.483282 99.1422 1.81257 101.057C4.10735 102.943 4.23374 106.177 2.09344 108.242Z" fill="#6B29D1"/>
<path d="M29.1889 130.923C27.0486 132.988 23.4442 133.11 21.1791 131.195C18.8833 129.28 18.7569 126.047 20.8972 123.982C23.0375 121.917 26.6111 121.795 28.907 123.71C31.2028 125.625 31.3292 128.858 29.1889 130.923Z" fill="#6B29D1"/>
<path d="M56.2521 153.577C54.1118 155.642 50.5075 155.765 48.2116 153.85C45.9158 151.936 45.7905 148.73 47.9307 146.665C50.071 144.6 53.6446 144.479 55.9405 146.394C58.2671 148.307 58.3924 151.512 56.2521 153.577Z" fill="#6B29D1"/>
<path d="M83.3475 176.258C81.2072 178.323 77.6029 178.445 75.3071 176.531C73.0112 174.616 72.8859 171.411 75.0262 169.346C77.1665 167.281 80.7708 167.159 83.0667 169.073C85.3614 170.96 85.4878 174.193 83.3475 176.258Z" fill="#6B29D1"/>
<path d="M3.98639 155.281C1.84608 157.346 -1.75833 157.468 -4.02338 155.553C-6.31925 153.638 -6.44563 150.405 -4.30532 148.34C-2.16501 146.275 1.43939 146.153 3.70445 148.068C6.0014 150.01 6.1267 153.216 3.98639 155.281Z" fill="#6B29D1"/>
<path d="M31.0817 177.962C28.9414 180.027 25.337 180.15 23.072 178.234C20.7761 176.32 20.6508 173.114 22.7911 171.049C24.9314 168.984 28.5358 168.862 30.8009 170.777C33.0956 172.664 33.222 175.897 31.0817 177.962Z" fill="#6B29D1"/>
<path d="M58.1448 200.617C56.0045 202.682 52.4002 202.804 50.1352 200.889C47.8393 198.974 47.713 195.741 49.8543 193.703C51.9946 191.638 55.5681 191.517 57.864 193.432C60.1598 195.346 60.2852 198.552 58.1448 200.617Z" fill="#6B29D1"/>
<path d="M5.87889 202.321C3.7386 204.385 0.134282 204.508 -2.16156 202.593C-4.45741 200.679 -4.5838 197.446 -2.44242 195.408C-0.302129 193.344 3.30219 193.221 5.59803 195.136C7.89388 197.05 8.01919 200.256 5.87889 202.321Z" fill="#6B29D1"/>
<path d="M32.9745 225.001C30.8342 227.066 27.2299 227.188 24.934 225.274C22.6382 223.36 22.5118 220.126 24.6532 218.089C26.7935 216.024 30.3978 215.902 32.6936 217.816C34.9884 219.703 35.1148 222.936 32.9745 225.001Z" fill="#6B29D1"/>
<path d="M7.77187 249.359C5.63156 251.424 2.02723 251.546 -0.268628 249.632C-2.56448 247.717 -2.69087 244.484 -0.550569 242.419C1.58973 240.354 5.16323 240.233 7.45909 242.147C9.78683 244.088 9.91325 247.321 7.77187 249.359Z" fill="#6B29D1"/>
</g>
<g opacity="0.12">
<path d="M50.4248 12.6038C48.2845 14.6688 44.6802 14.7911 42.3843 12.8767C40.0885 10.9622 39.9621 7.72901 42.1035 5.69168C44.2438 3.62671 47.8172 3.50544 50.1131 5.41987C52.4397 7.33325 52.5651 10.5388 50.4248 12.6038Z" fill="#6B29D1"/>
<path d="M77.4896 35.2858C75.3493 37.3508 71.745 37.4731 69.4491 35.5587C67.1533 33.6442 67.0269 30.411 69.1672 28.346C71.3075 26.281 74.9118 26.1587 77.2077 28.0731C79.5035 29.9876 79.6299 33.2208 77.4896 35.2858Z" fill="#6B29D1"/>
<path d="M104.585 57.9667C102.445 60.0316 98.8404 60.1539 96.5754 58.2385C94.2795 56.3242 94.1531 53.0911 96.2945 51.0539C98.4348 48.989 102.039 48.8667 104.304 50.7821C106.599 52.6688 106.725 55.9019 104.585 57.9667Z" fill="#6B29D1"/>
<path d="M131.648 80.6211C129.508 82.6861 125.904 82.8084 123.639 80.8929C121.374 78.9774 121.216 75.7451 123.358 73.7077C125.498 71.6427 129.102 71.5204 131.367 73.4359C133.633 75.3514 133.789 78.5561 131.648 80.6211Z" fill="#6B29D1"/>
<path d="M25.2237 36.9896C23.0834 39.0545 19.479 39.1768 17.2139 37.2614C14.9181 35.347 14.7917 32.1138 16.9331 30.0764C19.0734 28.0115 22.647 27.8902 24.9428 29.8046C27.2376 31.6914 27.364 34.9246 25.2237 36.9896Z" fill="#6B29D1"/>
<path d="M52.318 59.6429C50.1777 61.7079 46.5733 61.8302 44.3083 59.9147C42.0124 58.0003 41.8871 54.7947 44.0274 52.7298C46.1677 50.6648 49.7413 50.5435 52.0372 52.4579C54.333 54.3723 54.4594 57.6056 52.318 59.6429Z" fill="#6B29D1"/>
<path d="M79.3823 82.3254C77.242 84.3903 73.6377 84.5126 71.3419 82.5983C69.046 80.6839 68.9207 77.4783 71.061 75.4133C73.2013 73.3484 76.8056 73.2261 79.1015 75.1405C81.3973 77.0549 81.5226 80.2605 79.3823 82.3254Z" fill="#6B29D1"/>
<path d="M106.478 105.007C104.337 107.071 100.733 107.194 98.4373 105.279C96.1414 103.365 96.015 100.132 98.1564 98.0944C100.298 96.0571 103.901 95.9071 106.197 97.8216C108.492 99.7083 108.618 102.942 106.478 105.007Z" fill="#6B29D1"/>
<path d="M133.541 127.66C131.401 129.725 127.796 129.848 125.531 127.932C123.235 126.018 123.11 122.812 125.25 120.747C127.391 118.682 130.995 118.56 133.26 120.476C135.556 122.39 135.681 125.596 133.541 127.66Z" fill="#6B29D1"/>
<path d="M0.0518617 61.3463C-2.08844 63.4113 -5.69287 63.5336 -7.98872 61.6192C-10.2846 59.7048 -10.411 56.4715 -8.27066 54.4065C-6.13036 52.3416 -2.52593 52.2192 -0.230078 54.1337C2.06686 56.0757 2.19324 59.309 0.0518617 61.3463Z" fill="#6B29D1"/>
<path d="M27.1165 84.0286C24.9762 86.0936 21.3718 86.2159 19.1068 84.3005C16.8109 82.3861 16.6845 79.1528 18.8259 77.1155C20.9662 75.0505 24.5398 74.9293 26.8356 76.8437C29.1304 78.7305 29.2568 81.9637 27.1165 84.0286Z" fill="#6B29D1"/>
<path d="M54.212 106.71C52.0717 108.775 48.4673 108.898 46.2022 106.982C43.9063 105.067 43.78 101.834 45.9203 99.7689C48.0606 97.7038 51.6342 97.5825 53.93 99.4971C56.2259 101.412 56.3523 104.645 54.212 106.71Z" fill="#6B29D1"/>
<path d="M81.2751 129.364C79.1348 131.429 75.5305 131.551 73.2347 129.636C70.9388 127.722 70.8135 124.516 72.9538 122.451C75.0941 120.386 78.6677 120.265 80.9635 122.18C83.2902 124.093 83.4154 127.299 81.2751 129.364Z" fill="#6B29D1"/>
<path d="M108.37 152.045C106.23 154.11 102.626 154.232 100.33 152.318C98.0342 150.404 97.9089 147.198 100.049 145.133C102.189 143.068 105.794 142.946 108.09 144.86C110.384 146.747 110.511 149.98 108.37 152.045Z" fill="#6B29D1"/>
<path d="M1.94603 108.414C-0.194266 110.479 -3.79869 110.601 -6.09454 108.686C-8.39039 106.772 -8.5157 103.566 -6.3754 101.501C-4.2351 99.4363 -0.63068 99.314 1.66517 101.228C3.92914 103.116 4.05553 106.35 1.94603 108.414Z" fill="#6B29D1"/>
<path d="M29.0093 131.068C26.869 133.133 23.2646 133.255 20.9996 131.34C18.7037 129.426 18.5773 126.192 20.7176 124.127C22.8579 122.062 26.4623 121.94 28.7274 123.855C31.0243 125.798 31.1497 129.003 29.0093 131.068Z" fill="#6B29D1"/>
<path d="M56.1047 153.749C53.9644 155.814 50.36 155.937 48.0949 154.021C45.7991 152.107 45.6738 148.901 47.8141 146.836C49.9544 144.771 53.5588 144.649 55.8238 146.564C58.1186 148.451 58.245 151.684 56.1047 153.749Z" fill="#6B29D1"/>
<path d="M83.1678 176.404C81.0275 178.469 77.4232 178.591 75.1581 176.676C72.8623 174.761 72.7359 171.528 74.8773 169.491C77.0176 167.426 80.5911 167.304 82.887 169.219C85.1828 171.133 85.3081 174.339 83.1678 176.404Z" fill="#6B29D1"/>
<path d="M3.83882 155.453C1.69851 157.518 -1.9059 157.64 -4.17095 155.725C-6.46681 153.81 -6.5932 150.577 -4.45181 148.539C-2.3115 146.474 1.2621 146.353 3.55796 148.268C5.82193 150.155 5.94832 153.389 3.83882 155.453Z" fill="#6B29D1"/>
<path d="M30.902 178.108C28.7617 180.173 25.1574 180.295 22.8615 178.38C20.5657 176.466 20.4393 173.233 22.5806 171.196C24.7209 169.131 28.3253 169.008 30.6211 170.923C32.9169 172.837 33.0423 176.043 30.902 178.108Z" fill="#6B29D1"/>
<path d="M57.9975 200.788C55.8573 202.853 52.2529 202.976 49.9571 201.061C47.6612 199.147 47.5349 195.914 49.6762 193.876C51.8165 191.811 55.4208 191.689 57.7167 193.603C60.0115 195.49 60.1378 198.723 57.9975 200.788Z" fill="#6B29D1"/>
<path d="M5.70073 202.493C3.56043 204.558 -0.0439688 204.681 -2.30902 202.765C-4.60487 200.851 -4.73126 197.618 -2.58988 195.58C-0.449575 193.515 3.12401 193.394 5.41987 195.309C7.71464 197.195 7.84103 200.429 5.70073 202.493Z" fill="#6B29D1"/>
<path d="M32.7949 225.146C30.6546 227.211 27.0503 227.334 24.7544 225.419C22.4586 223.505 22.3322 220.271 24.4725 218.206C26.6128 216.141 30.1863 216.02 32.4822 217.935C34.8099 219.876 34.9363 223.109 32.7949 225.146Z" fill="#6B29D1"/>
<path d="M7.59355 249.533C5.45325 251.598 1.84885 251.72 -0.416193 249.804C-2.71205 247.89 -2.83844 244.657 -0.697054 242.619C1.44325 240.554 5.01683 240.433 7.31269 242.348C9.60746 244.234 9.73385 247.468 7.59355 249.533Z" fill="#6B29D1"/>
</g>
</g>
<path d="M399.852 353.908C386.87 342.214 365.846 342.214 352.865 353.908L338.774 366.602C325.792 378.296 304.769 378.296 291.787 366.602C278.806 354.908 278.806 335.97 291.787 324.276L443.599 187.521C456.58 175.827 456.58 156.889 443.599 145.195C430.617 133.521 409.593 133.501 396.612 145.195L182.159 338.357C169.178 350.031 148.154 350.031 135.173 338.357C122.192 326.663 122.192 307.725 135.173 296.031L211.906 226.909C224.887 215.215 224.887 196.276 211.906 184.603C198.924 172.909 177.9 172.909 164.919 184.603L138.073 208.786C125.091 220.46 104.068 220.46 91.0862 208.786C78.1049 197.092 78.1049 178.154 91.0862 166.46L176.314 89.6847C189.296 77.9908 189.296 59.0521 176.314 47.3583C163.333 35.6644 142.309 35.6644 129.328 47.3583L-343.596 473.459C-356.577 485.153 -356.577 504.091 -343.596 515.785C-330.615 527.479 -309.591 527.479 -296.609 515.785L-233.062 458.541C-220.081 446.847 -199.057 446.867 -186.076 458.541C-173.094 470.234 -173.094 489.173 -186.076 500.867L-311.947 614.234C-324.928 625.928 -324.928 644.867 -311.947 656.56C-298.966 668.254 -277.942 668.254 -264.96 656.56L-195.364 593.867C-182.383 582.173 -161.359 582.173 -148.378 593.867C-135.396 605.56 -135.396 624.499 -148.378 636.193L-155.672 642.744C-168.654 654.438 -168.654 673.377 -155.672 685.07C-142.691 696.764 -121.667 696.764 -108.686 685.07L12.9489 575.499C25.9303 563.806 46.9542 563.806 59.9129 575.499C72.8942 587.193 72.8942 606.132 59.9129 617.826L-124.046 783.519C-137.027 795.213 -137.027 814.152 -124.046 825.825C-111.065 837.499 -90.0408 837.519 -77.0822 825.825L399.852 396.235C412.81 384.561 412.81 365.602 399.852 353.908Z" fill="#F7F5FB"/>
</svg>
