<svg width="133" height="114" viewBox="0 0 133 114" fill="none" xmlns="http://www.w3.org/2000/svg">
<path d="M22.9725 53.893C26.013 53.893 28.9108 54.5136 31.5473 55.6337L52.2141 20.7207H65.6667C67.2758 20.7207 68.58 22.0231 68.58 23.63C68.58 25.237 67.2758 26.5394 65.6667 26.5394H55.5392L49.5135 36.7201C50.8964 36.3914 52.3297 36.1984 53.8116 36.1984H62.9379C67.6429 36.1984 71.9313 37.9692 75.2077 40.8591H104.364C109.01 40.8591 112.789 44.6335 112.789 49.2729C112.789 51.3822 112.003 53.3072 110.714 54.7851C119.826 57.4617 126.5 65.8843 126.5 75.8391C126.5 87.9399 116.642 97.7842 104.525 97.7842C93.3963 97.7842 84.1797 89.478 82.7493 78.7484H53.9145C52.7084 78.7484 51.6286 78.0075 51.1945 76.8845L43.7782 57.6567H38.1488C38.141 57.6567 38.1333 57.6567 38.1294 57.6567C37.807 57.6567 37.503 57.5927 37.2136 57.4957L36.5552 58.608C41.6593 62.6307 44.9465 68.8566 44.9465 75.8391C44.9465 87.9399 35.0879 97.7842 22.9716 97.7842C10.8533 97.7842 0.996651 87.9399 0.996651 75.8391C0.996651 63.7382 10.8552 53.893 22.9725 53.893ZM104.364 46.6768H79.635C80.4177 48.2838 80.9702 50.0167 81.2596 51.8399L104.364 51.8671C105.797 51.8671 106.963 50.7034 106.963 49.272C106.963 47.8406 105.797 46.6768 104.364 46.6768ZM104.525 78.7474H88.6535C90.0305 86.2535 96.6165 91.9645 104.525 91.9645C113.429 91.9645 120.673 84.73 120.673 75.8381C120.673 66.9452 113.429 59.7107 104.525 59.7107C96.6165 59.7107 90.0305 65.4217 88.6535 72.9287H104.525C106.134 72.9287 107.438 74.2311 107.438 75.8381C107.438 77.445 106.134 78.7474 104.525 78.7474ZM55.914 72.9287H82.7493C83.5931 66.5961 87.1464 61.1062 92.2097 57.6712L78.5939 57.6557H50.0233L55.914 72.9287ZM75.3485 51.837C74.0279 46.2142 68.9646 42.0161 62.937 42.0161H53.8106C47.783 42.0161 42.7188 46.2152 41.3991 51.837H75.3485ZM22.9725 91.9645C31.8755 91.9645 39.1209 84.73 39.1209 75.8381C39.1209 70.9882 36.9553 66.6417 33.5526 63.6829L25.4799 77.3189C24.9351 78.2373 23.966 78.7494 22.9686 78.7494C22.4656 78.7494 21.9538 78.6184 21.4897 78.344C20.1049 77.5255 19.6465 75.7411 20.4632 74.3592L28.5369 60.7202C26.7996 60.0801 24.9293 59.7126 22.9725 59.7126C14.0676 59.7126 6.8242 66.9471 6.8242 75.84C6.8242 84.73 14.0676 91.9645 22.9725 91.9645Z" fill="#200A52" stroke="white" stroke-width="1.10091"/>
<path d="M91.0815 49.8653V41.6815L106.995 39.4082L124.271 62.5957L113.36 64.4143L99.72 61.6864L94.2641 55.7758L91.0815 49.8653Z" fill="#F9F8FB"/>
<path d="M109.853 65.399C109.819 65.399 109.788 65.3969 109.758 65.3948C107.986 65.3613 100.261 64.8695 94.9993 58.9676C91.1128 54.6123 89.5578 48.411 90.374 40.5313C90.4242 40.0269 90.8093 39.6188 91.3095 39.5372C91.8055 39.4493 92.3037 39.7151 92.5192 40.1755C93.2455 41.7515 94.1663 43.6183 94.97 45.2236C94.8256 43.903 94.4447 42.373 93.6075 40.8348C93.5594 40.7573 93.5238 40.6715 93.5029 40.5794L93.4192 40.2634C92.5213 36.8541 90.8491 30.5064 96.5585 23.918C96.908 23.514 97.4898 23.4178 97.9545 23.6668C98.4191 23.9242 98.643 24.4705 98.4902 24.979C97.7033 27.6035 98.1407 30.9124 98.6284 32.4967C99.4237 35.0835 100.215 35.996 101.454 35.8035C101.429 35.7888 101.607 35.7386 101.772 35.6946C101.864 35.6674 101.952 35.6528 102.029 35.6151C102.019 35.5753 102.222 35.0165 102.063 32.3314C102.073 31.8354 102.077 31.4272 102.082 31.0066C102.132 26.4817 102.203 20.2868 111.391 15.3497C111.809 15.1257 112.324 15.1864 112.676 15.5045C113.03 15.8248 113.147 16.327 112.967 16.7686C111.391 20.6384 110.091 24.9477 111.701 28.4302C112.487 26.622 113.846 24.483 118.142 22.1181C118.559 21.8983 119.07 21.9423 119.423 22.2541C119.779 22.5618 119.907 23.0599 119.739 23.5015C118.967 25.563 118.084 27.9154 118.599 29.1523C119.237 30.6864 122.862 37.5824 123.301 38.4196C123.358 38.4949 123.435 38.6059 123.527 38.7544C124.281 36.1927 125.767 33.3129 129.26 32.4381C129.718 32.3293 130.193 32.5051 130.459 32.8923C130.725 33.2774 130.725 33.788 130.459 34.1731C129.75 35.1986 128.343 38.2647 130.593 44.5664L130.813 45.3031C131.587 47.8543 133.402 53.8316 130.038 58.6432C127.244 62.6406 121.537 64.9114 113.078 65.3865C112.385 65.4576 111.924 64.9449 111.889 64.3254C111.853 63.7017 112.328 63.1722 112.95 63.1366C120.687 62.7013 125.815 60.7549 128.193 57.3519C130.928 53.4382 129.394 48.3838 128.659 45.9561L128.448 45.2466C127.006 41.2115 126.912 38.2459 127.307 36.1467C126.06 37.5803 125.532 39.7318 125.118 41.8896C124.879 43.1202 124.737 43.8653 124.27 44.332C123.933 44.6669 123.423 44.7589 122.992 44.5538C122.561 44.3487 122.305 43.8946 122.353 43.4216C122.579 41.1487 121.518 39.7946 121.474 39.7381C121.181 39.2316 117.232 31.7349 116.514 30.0187C115.999 28.7776 116.16 27.3063 116.564 25.8099C114.486 27.4382 113.938 28.8446 113.404 30.2113C113.253 30.5964 113.109 30.9689 112.94 31.331C112.776 31.6784 112.448 31.9212 112.065 31.9714C111.688 32.0216 111.305 31.873 111.056 31.58C107.766 27.6831 108.561 22.6518 109.708 19.0457C104.421 22.928 104.373 27.1996 104.329 31.0296C104.325 31.4649 104.321 31.8877 104.306 32.2979C104.528 35.9939 104.277 37.3459 102.354 37.8671C102.251 37.8964 102.14 37.9236 102.025 37.9654C98.1491 38.6372 96.9352 34.6587 96.4748 33.1602C96.1441 32.0886 95.8951 30.6654 95.826 29.1544C93.9424 33.3904 94.9407 37.1931 95.6 39.6921L95.6502 39.8804C98.2851 44.8322 97.0022 49.56 96.9478 49.7609C96.8222 50.2046 96.4371 50.529 95.9788 50.5751C95.489 50.6232 95.0746 50.3825 94.8633 49.9744C94.8465 49.9409 93.6912 47.7246 92.425 45.1754C92.5485 50.3093 93.9738 54.4344 96.6799 57.4691C101.521 62.8959 109.028 63.1345 109.869 63.1429C110.478 63.1492 111.006 63.6431 111.014 64.2521C111.022 64.8632 110.51 65.3718 109.899 65.3969C109.882 65.399 109.867 65.399 109.853 65.399Z" fill="#44E0B7" stroke="#44E0B7" stroke-width="0.5"/>
<path d="M111.723 65.3952C111.128 65.3952 110.63 64.9306 110.597 64.3299C110.561 63.7083 111.038 63.1767 111.66 63.1432C118.508 62.7686 123.31 59.5414 124.71 55.7198C121.069 58.9009 118.053 58.8549 115.715 58.8319L115.07 58.8256C114.556 58.8256 114.106 58.4761 113.978 57.978C113.85 57.4778 114.076 56.9567 114.528 56.7097C116.345 55.7177 117.49 54.2778 118.026 52.3083C119.154 48.1833 117.303 42.8255 115.78 39.4245C115.592 40.7619 115.332 42.1495 115.003 43.0536C114.899 43.3445 114.675 43.5789 114.392 43.7024C114.106 43.8259 113.787 43.8238 113.501 43.7045C112.873 43.4345 112.155 42.679 111.469 41.6932C113.176 49.2485 110.14 51.5675 107.226 52.7332C107.155 52.7625 107.084 52.7834 107.009 52.7981C105.447 53.089 104.02 52.6725 102.904 51.6177C102.038 50.7973 101.421 49.6315 101.038 48.3737C100.468 50.431 100.483 52.4004 101.082 54.2652C102.919 59.9851 110.673 63.0156 110.74 63.0428C111.307 63.2939 111.569 63.9595 111.32 64.5287C111.068 65.1022 110.405 65.3575 109.836 65.1085C109.522 64.9724 101.098 61.6615 98.9384 54.9705C97.7643 51.3331 98.3796 47.4424 100.763 43.4094C101.038 42.951 101.592 42.7438 102.101 42.9176C102.605 43.0892 102.919 43.5936 102.854 44.1231C102.62 45.9878 103.166 48.7567 104.455 49.9769C105.018 50.5127 105.684 50.7115 106.502 50.5943C108.285 49.8785 111.079 48.583 108.953 40.9356C107.938 39.0897 107.867 36.3375 108.806 34.4602C109.03 34.006 109.524 33.7549 110.031 33.8595C110.529 33.9558 110.901 34.3723 110.939 34.8788C111.06 36.4694 112.318 38.962 113.337 40.4438C113.664 38.6606 113.88 36.4149 113.949 35.4438C113.986 34.952 114.336 34.5439 114.813 34.4309C115.303 34.3116 115.788 34.5272 116.041 34.9499C116.295 35.3769 122.232 45.4688 120.202 52.9027C119.832 54.261 119.221 55.4477 118.377 56.4544C120.52 56.1195 122.967 54.9475 126.016 50.9961C126.33 50.5817 126.887 50.4415 127.368 50.655C127.843 50.8684 128.111 51.3791 128.015 51.8898C127.245 56.0609 125.639 64.7464 113.785 65.3931C113.762 65.3952 111.741 65.3952 111.723 65.3952Z" fill="#44E0B7" stroke="#44E0B7" stroke-width="0.5"/>
</svg>
