<svg width="114" height="114" viewBox="0 0 114 114" fill="none" xmlns="http://www.w3.org/2000/svg">
<path d="M108.656 0H5.34375C3.9265 0 2.5673 0.563001 1.56515 1.56515C0.563001 2.5673 0 3.9265 0 5.34375L0 76.5938C0 78.011 0.563001 79.3702 1.56515 80.3724C2.5673 81.3745 3.9265 81.9375 5.34375 81.9375H46.3125V103.312H37.4062C35.989 103.312 34.6298 103.876 33.6276 104.878C32.6255 105.88 32.0625 107.239 32.0625 108.656C32.0625 110.074 32.6255 111.433 33.6276 112.435C34.6298 113.437 35.989 114 37.4062 114H76.5938C78.011 114 79.3702 113.437 80.3724 112.435C81.3745 111.433 81.9375 110.074 81.9375 108.656C81.9375 107.239 81.3745 105.88 80.3724 104.878C79.3702 103.876 78.011 103.312 76.5938 103.312H67.6875V81.9375H108.656C110.074 81.9375 111.433 81.3745 112.435 80.3724C113.437 79.3702 114 78.011 114 76.5938V5.34375C114 3.9265 113.437 2.5673 112.435 1.56515C111.433 0.563001 110.074 0 108.656 0V0ZM78.375 108.656C78.375 109.129 78.1873 109.582 77.8533 109.916C77.5192 110.25 77.0662 110.438 76.5938 110.438H37.4062C36.9338 110.438 36.4808 110.25 36.1467 109.916C35.8127 109.582 35.625 109.129 35.625 108.656C35.625 108.184 35.8127 107.731 36.1467 107.397C36.4808 107.063 36.9338 106.875 37.4062 106.875H76.5938C77.0662 106.875 77.5192 107.063 77.8533 107.397C78.1873 107.731 78.375 108.184 78.375 108.656ZM64.125 103.312H49.875V81.9375H64.125V103.312ZM110.438 76.5938C110.438 77.0662 110.25 77.5192 109.916 77.8533C109.582 78.1873 109.129 78.375 108.656 78.375H5.34375C4.87133 78.375 4.41827 78.1873 4.08422 77.8533C3.75017 77.5192 3.5625 77.0662 3.5625 76.5938V5.34375C3.5625 4.87133 3.75017 4.41827 4.08422 4.08422C4.41827 3.75017 4.87133 3.5625 5.34375 3.5625H108.656C109.129 3.5625 109.582 3.75017 109.916 4.08422C110.25 4.41827 110.438 4.87133 110.438 5.34375V76.5938Z" fill="#200A52"/>
<path d="M105.094 7.125H8.90625C8.43383 7.125 7.98077 7.31267 7.64672 7.64672C7.31267 7.98077 7.125 8.43383 7.125 8.90625V73.0312C7.125 73.5037 7.31267 73.9567 7.64672 74.2908C7.98077 74.6248 8.43383 74.8125 8.90625 74.8125H105.094C105.566 74.8125 106.019 74.6248 106.353 74.2908C106.687 73.9567 106.875 73.5037 106.875 73.0312V8.90625C106.875 8.43383 106.687 7.98077 106.353 7.64672C106.019 7.31267 105.566 7.125 105.094 7.125ZM103.312 71.25H10.6875V10.6875H103.312V71.25Z" fill="#200A52"/>
<path d="M33.8439 39.1875H58.7814C59.0471 39.1876 59.3095 39.1282 59.5492 39.0137C59.789 38.8993 60.0002 38.7326 60.1672 38.526C60.3342 38.3193 60.4529 38.0779 60.5146 37.8194C60.5762 37.561 60.5792 37.292 60.5234 37.0322L58.8027 29.0166C58.4893 26.8991 57.4276 24.964 55.81 23.5621C54.1924 22.1602 52.1261 21.3843 49.9856 21.375H42.6397C40.5176 21.3756 38.4655 22.1339 36.8529 23.5133C35.2403 24.8927 34.1732 26.8026 33.8439 28.899L32.1 37.0322C32.0442 37.2921 32.0473 37.5613 32.109 37.8199C32.1707 38.0785 32.2896 38.32 32.4568 38.5266C32.624 38.7333 32.8354 38.9 33.0754 39.0143C33.3154 39.1287 33.578 39.1878 33.8439 39.1875ZM37.3511 29.5242C37.5379 28.2533 38.1742 27.0915 39.1446 26.2499C40.1151 25.4083 41.3551 24.9426 42.6397 24.9375H49.9856C51.2902 24.9502 52.5464 25.4341 53.5225 26.2999C54.4986 27.1656 55.1289 28.3551 55.2972 29.6489L56.578 35.625H36.0455L37.3511 29.5242Z" fill="#200A52"/>
<path d="M16.0313 60.5625H21.5531C21.962 62.5758 23.0542 64.3859 24.6449 65.686C26.2356 66.9862 28.2268 67.6964 30.2813 67.6964C32.3357 67.6964 34.3269 66.9862 35.9176 65.686C37.5083 64.3859 38.6006 62.5758 39.0094 60.5625H53.6156C54.0245 62.5758 55.1167 64.3859 56.7074 65.686C58.2981 66.9862 60.2893 67.6964 62.3438 67.6964C64.3982 67.6964 66.3894 66.9862 67.9801 65.686C69.5708 64.3859 70.6631 62.5758 71.0719 60.5625H76.5938C77.0662 60.5625 77.5192 60.3748 77.8533 60.0408C78.1873 59.7067 78.375 59.2537 78.375 58.7812V51.6562C78.4746 48.2144 77.4652 44.8317 75.4956 42.0073C73.526 39.183 70.7006 37.0666 67.4364 35.9706L65.8546 28.0173C65.2948 24.2025 63.385 20.7152 60.4724 18.1889C57.5597 15.6626 53.8375 14.265 49.9819 14.25H42.6431C38.8035 14.26 35.0942 15.644 32.1864 18.1515C29.2786 20.6591 27.3644 24.1246 26.79 27.9211L25.1869 35.9723C23.2394 36.5998 21.4362 37.6083 19.8821 38.9391C18.3281 40.27 17.0542 41.8966 16.1346 43.7243C14.8931 46.1839 14.2475 48.9011 14.25 51.6562V58.7812C14.25 59.2537 14.4377 59.7067 14.7717 60.0408C15.1058 60.3748 15.5588 60.5625 16.0313 60.5625ZM30.2813 64.125C29.2244 64.125 28.1912 63.8116 27.3124 63.2244C26.4337 62.6372 25.7487 61.8027 25.3443 60.8262C24.9398 59.8498 24.834 58.7753 25.0402 57.7387C25.2464 56.7022 25.7553 55.75 26.5027 55.0026C27.25 54.2553 28.2022 53.7464 29.2387 53.5402C30.2753 53.334 31.3498 53.4398 32.3262 53.8443C33.3027 54.2487 34.1372 54.9336 34.7244 55.8124C35.3116 56.6912 35.625 57.7244 35.625 58.7812C35.625 60.1985 35.062 61.5577 34.0599 62.5598C33.0577 63.562 31.6985 64.125 30.2813 64.125ZM62.3438 64.125C61.2869 64.125 60.2537 63.8116 59.3749 63.2244C58.4962 62.6372 57.8112 61.8027 57.4068 60.8262C57.0023 59.8498 56.8965 58.7753 57.1027 57.7387C57.3089 56.7022 57.8178 55.75 58.5652 55.0026C59.3125 54.2553 60.2647 53.7464 61.3012 53.5402C62.3378 53.334 63.4123 53.4398 64.3887 53.8443C65.3652 54.2487 66.1997 54.9336 66.7869 55.8124C67.3741 56.6912 67.6875 57.7244 67.6875 58.7812C67.6875 60.1985 67.1245 61.5577 66.1224 62.5598C65.1202 63.562 63.761 64.125 62.3438 64.125ZM17.8125 51.6562C17.8097 49.4665 18.321 47.3067 19.3052 45.3506C20.0722 43.8083 21.1685 42.4531 22.5166 41.3808C23.8647 40.3085 25.4317 39.5452 27.1071 39.1448C27.4437 39.0692 27.7512 38.8976 27.9922 38.6506C28.2331 38.4037 28.3972 38.092 28.4644 37.7536L30.2991 28.5196C30.7344 25.5529 32.2196 22.8407 34.4847 20.876C36.7498 18.9112 39.6446 17.8242 42.6431 17.8125H49.9819C52.996 17.8296 55.9034 18.9304 58.1731 20.9139C60.4427 22.8974 61.923 25.6311 62.3438 28.6158L64.1606 37.7536C64.2278 38.092 64.3919 38.4037 64.6328 38.6506C64.8738 38.8976 65.1813 39.0692 65.518 39.1448C68.263 39.8553 70.6822 41.4841 72.3732 43.7603C74.0641 46.0365 74.9249 48.8229 74.8125 51.6562V57H71.0719C71.0719 56.9679 71.0505 56.9394 71.0434 56.9074C70.9334 56.4002 70.779 55.9037 70.582 55.4236C70.5126 55.2455 70.4182 55.0958 70.338 54.9302C70.1852 54.6056 70.0133 54.2904 69.8232 53.9861C69.7092 53.808 69.5792 53.6459 69.4545 53.4785C69.2581 53.2127 69.0476 52.9576 68.8239 52.7143C68.6743 52.5558 68.5194 52.4079 68.359 52.2601C68.1207 52.0391 67.8697 51.8321 67.6074 51.6402C67.4292 51.5102 67.2511 51.3855 67.073 51.2679C66.785 51.0923 66.4877 50.9323 66.1824 50.7888C65.9935 50.6979 65.8101 50.6017 65.6141 50.5234C65.2652 50.391 64.9083 50.2809 64.5454 50.1938C64.3673 50.1475 64.1998 50.087 64.0199 50.0513C62.9033 49.8234 61.7521 49.8234 60.6355 50.0513C60.4574 50.087 60.2793 50.1475 60.1101 50.1938C59.7472 50.2809 59.3902 50.391 59.0413 50.5234C58.8454 50.6017 58.6619 50.7015 58.4731 50.7888C58.1678 50.9323 57.8705 51.0923 57.5825 51.2679C57.4044 51.3855 57.2262 51.5102 57.0481 51.6402C56.7857 51.8321 56.5347 52.0391 56.2964 52.2601C56.1361 52.4079 55.9811 52.5558 55.8315 52.7143C55.6078 52.9576 55.3974 53.2127 55.2009 53.4785C55.0763 53.6459 54.9462 53.808 54.8322 53.9861C54.6422 54.2904 54.4703 54.6056 54.3174 54.9302C54.2373 55.0958 54.1393 55.2526 54.0734 55.4236C53.8765 55.9037 53.7221 56.4002 53.6121 56.9074C53.6121 56.9394 53.5907 56.9679 53.5836 57H39.0094C39.0094 56.9679 38.988 56.9394 38.9809 56.9074C38.8709 56.4002 38.7165 55.9037 38.5195 55.4236C38.4501 55.2455 38.3557 55.0958 38.2755 54.9302C38.1227 54.6056 37.9508 54.2904 37.7607 53.9861C37.6467 53.808 37.5167 53.6459 37.392 53.4785C37.1956 53.2127 36.9851 52.9576 36.7614 52.7143C36.6118 52.5558 36.4569 52.4079 36.2965 52.2601C36.0582 52.0391 35.8072 51.8321 35.5449 51.6402C35.3667 51.5102 35.1886 51.3855 35.0105 51.2679C34.7225 51.0923 34.4252 50.9323 34.1199 50.7888C33.931 50.6979 33.7476 50.6017 33.5516 50.5234C33.2056 50.3914 32.8516 50.2813 32.4918 50.1938C32.3137 50.1475 32.1462 50.087 31.9574 50.0513C30.8408 49.8234 29.6896 49.8234 28.573 50.0513C28.3949 50.087 28.2168 50.1475 28.0476 50.1938C27.6847 50.2809 27.3277 50.391 26.9788 50.5234C26.7829 50.6017 26.5994 50.7015 26.4106 50.7888C26.1083 50.9326 25.814 51.0925 25.5289 51.2679C25.3508 51.3855 25.1726 51.5102 24.9945 51.6402C24.7321 51.8321 24.4811 52.0391 24.2428 52.2601C24.0825 52.4079 23.9275 52.5558 23.7779 52.7143C23.5542 52.9576 23.3438 53.2127 23.1474 53.4785C23.0227 53.6459 22.8926 53.808 22.7786 53.9861C22.5886 54.2904 22.4167 54.6056 22.2639 54.9302C22.1837 55.0958 22.0857 55.2526 22.0198 55.4236C21.8229 55.9037 21.6685 56.4002 21.5585 56.9074C21.5585 56.9394 21.5371 56.9679 21.53 57H17.8125V51.6562Z" fill="#200A52"/>
<path fill-rule="evenodd" clip-rule="evenodd" d="M100 27.5C100 34.4037 94.4037 40 87.5 40C80.5963 40 75 34.4037 75 27.5C75 20.5963 80.5963 15 87.5 15C94.4037 15 100 20.5963 100 27.5Z" fill="#44E0B7"/>
<path d="M84.1667 28.5078L87.3426 31.8995L90.7909 28.4512" stroke="white" stroke-width="2.5035" stroke-linecap="round" stroke-linejoin="round"/>
<path d="M87.3948 23.334L87.3948 30.8445" stroke="white" stroke-width="2.5035" stroke-linecap="round"/>
<path d="M37.4062 42.75C37.4062 43.7338 38.2037 44.5312 39.1875 44.5312C40.1713 44.5312 40.9688 43.7338 40.9688 42.75C40.9688 41.7662 40.1713 40.9688 39.1875 40.9688C38.2037 40.9688 37.4062 41.7662 37.4062 42.75Z" fill="#200A52"/>
<path d="M57 42.75C57 43.7338 57.7975 44.5312 58.7812 44.5312C59.765 44.5312 60.5625 43.7338 60.5625 42.75C60.5625 41.7662 59.765 40.9688 58.7812 40.9688C57.7975 40.9688 57 41.7662 57 42.75Z" fill="#200A52"/>
<path d="M48.0938 51.6562V42.75C48.0938 41.7662 47.2963 40.9688 46.3125 40.9688C45.3287 40.9688 44.5312 41.7662 44.5312 42.75V51.6562C44.5312 52.64 45.3287 53.4375 46.3125 53.4375C47.2963 53.4375 48.0938 52.64 48.0938 51.6562Z" fill="#200A52"/>
<path d="M94.4062 46.875H83.7188C82.735 46.875 81.9375 47.6725 81.9375 48.6562C81.9375 49.64 82.735 50.4375 83.7188 50.4375H94.4062C95.39 50.4375 96.1875 49.64 96.1875 48.6562C96.1875 47.6725 95.39 46.875 94.4062 46.875Z" fill="#44E0B7"/>
<path d="M97.9688 54H83.7188C82.735 54 81.9375 54.7975 81.9375 55.7812C81.9375 56.765 82.735 57.5625 83.7188 57.5625H97.9688C98.9525 57.5625 99.75 56.765 99.75 55.7812C99.75 54.7975 98.9525 54 97.9688 54Z" fill="#44E0B7"/>
<path d="M94.4062 61.125H83.7188C82.735 61.125 81.9375 61.9225 81.9375 62.9062C81.9375 63.89 82.735 64.6875 83.7188 64.6875H94.4062C95.39 64.6875 96.1875 63.89 96.1875 62.9062C96.1875 61.9225 95.39 61.125 94.4062 61.125Z" fill="#44E0B7"/>
</svg>
