<svg width="148" height="114" viewBox="0 0 148 114" fill="none" xmlns="http://www.w3.org/2000/svg">
<path d="M69.9337 67.1445H65.8704C64.7472 67.1445 63.8367 68.0551 63.8367 69.1782C63.8367 70.3014 64.7472 71.2119 65.8704 71.2119H69.9337C71.0569 71.2119 71.9674 70.3014 71.9674 69.1782C71.9674 68.0551 71.0569 67.1445 69.9337 67.1445Z" fill="#44E0B7"/>
<path d="M39.4445 85.4492C38.2384 85.4492 37.0594 85.8069 36.0566 86.4769C35.0538 87.147 34.2722 88.0994 33.8106 89.2137C33.3491 90.3279 33.2283 91.554 33.4636 92.7369C33.6989 93.9198 34.2797 95.0064 35.1325 95.8592C35.9853 96.7121 37.0719 97.2929 38.2548 97.5282C39.4377 97.7634 40.6638 97.6427 41.7781 97.1811C42.8924 96.7196 43.8448 95.938 44.5148 94.9352C45.1849 93.9323 45.5425 92.7534 45.5425 91.5473C45.5425 89.93 44.9001 88.3789 43.7565 87.2353C42.6129 86.0917 41.0618 85.4492 39.4445 85.4492ZM39.4445 93.58C39.0425 93.58 38.6495 93.4607 38.3152 93.2374C37.9809 93.014 37.7204 92.6966 37.5665 92.3251C37.4127 91.9537 37.3724 91.545 37.4509 91.1507C37.5293 90.7564 37.7229 90.3942 38.0072 90.1099C38.2914 89.8257 38.6536 89.6321 39.0479 89.5536C39.4422 89.4752 39.8509 89.5155 40.2224 89.6693C40.5938 89.8232 40.9113 90.0837 41.1346 90.418C41.358 90.7522 41.4772 91.1452 41.4772 91.5473C41.4772 92.0864 41.263 92.6034 40.8818 92.9846C40.5006 93.3658 39.9836 93.58 39.4445 93.58Z" fill="#44E0B7"/>
<path d="M89.4204 42.7464L84.1634 48.0049C83.3697 48.7988 83.3699 50.0858 84.1638 50.8795C84.9578 51.6732 86.2448 51.673 87.0385 50.8791L92.2955 45.6206C93.0892 44.8267 93.089 43.5397 92.2951 42.746C91.5012 41.9523 90.2141 41.9525 89.4204 42.7464Z" fill="#44E0B7"/>
<path d="M96.781 49.2651L95.9388 48.4227C95.3777 47.8614 94.4678 47.8613 93.9065 48.4224C93.3452 48.9836 93.345 49.8935 93.9062 50.4548L94.7483 51.2972C95.3095 51.8585 96.2194 51.8586 96.7807 51.2975C97.342 50.7363 97.3421 49.8264 96.781 49.2651Z" fill="#44E0B7"/>
<path d="M99.5848 42.7426L98.3931 43.934C97.5992 44.7277 97.599 46.0147 98.3927 46.8086C99.1864 47.6025 100.473 47.6027 101.267 46.809L102.459 45.6176C103.253 44.8239 103.253 43.5369 102.459 42.743C101.666 41.9491 100.379 41.9489 99.5848 42.7426Z" fill="#44E0B7"/>
<path d="M128.476 53.7159C128.258 53.4281 127.967 53.2036 127.633 53.0655C127.3 52.9274 126.935 52.8807 126.577 52.9302C126.22 52.9796 125.882 53.1235 125.598 53.347C125.314 53.5705 125.095 53.8655 124.963 54.2018C124.951 54.2302 124.093 56.4052 122.707 59.0802C122.54 58.8241 122.372 58.5741 122.203 58.322L117.554 38.5643C116.622 34.5422 114.352 30.9556 111.116 28.3918C107.879 25.828 103.869 24.4387 99.7399 24.4514H60.255C57.9845 20.7275 55.7831 17.7679 55.2932 17.1236C55.0772 16.8333 54.7867 16.6069 54.4524 16.4684C54.1182 16.3299 53.7527 16.2845 53.3947 16.3369C53.0371 16.3863 52.6991 16.53 52.4154 16.7533C52.1318 16.9766 51.9127 17.2713 51.7807 17.6073C51.7685 17.6378 50.9107 19.8128 49.5244 22.4858C46.3286 17.68 42.7785 13.1196 38.9037 8.84241C38.7091 8.64402 38.477 8.48642 38.2208 8.37883C37.9646 8.27124 37.6895 8.21582 37.4117 8.21582C37.1338 8.21582 36.8588 8.27124 36.6026 8.37883C36.3464 8.48642 36.1142 8.64402 35.9197 8.84241C32.0453 13.1163 28.4951 17.6734 25.2989 22.4756C23.9126 19.8067 23.063 17.6317 23.0426 17.5972C22.9107 17.26 22.6912 16.9642 22.4066 16.7403C22.1221 16.5165 21.783 16.3726 21.4243 16.3237C21.0655 16.2748 20.7003 16.3226 20.3662 16.4622C20.0321 16.6017 19.7414 16.8279 19.5241 17.1175C18.4427 18.5403 8.9541 31.2893 8.9541 38.6782C8.9541 46.6585 14.3123 52.9069 21.1502 52.9069C22.2704 52.8723 23.3739 52.6261 24.4025 52.1813C25.1492 52.8742 25.9583 53.4968 26.8194 54.0412L25.6363 59.0233C23.0852 59.1132 20.5858 59.7683 18.3186 60.9413C16.0513 62.1143 14.0727 63.7759 12.5255 65.8064L12.4706 65.8816C12.1779 66.2698 11.8974 66.6642 11.6372 67.0768C11.5661 67.1886 11.5051 67.3044 11.434 67.4162C11.2307 67.7516 11.0274 68.0891 10.8547 68.4326C10.7652 68.6074 10.688 68.7883 10.6026 68.9672C10.4603 69.268 10.318 69.577 10.1961 69.8799C10.1087 70.1014 10.0355 70.327 9.95621 70.5506C9.85661 70.8332 9.75295 71.1137 9.66554 71.4044C9.59033 71.6625 9.53342 71.9268 9.46227 72.191C9.39113 72.4553 9.32405 72.7154 9.2712 72.9858C9.21022 73.307 9.16957 73.6322 9.12688 73.9574C9.09639 74.1769 9.0537 74.3944 9.03338 74.616C8.98256 75.173 8.9541 75.7299 8.9541 76.3011C8.96063 77.0923 9.02107 77.8821 9.13501 78.6651C9.16144 78.8481 9.18786 79.029 9.21835 79.2099C9.34553 79.984 9.52481 80.7487 9.75498 81.4987L9.77327 81.5434C10.0191 82.2991 10.3173 83.0367 10.6656 83.7509C10.7185 83.8607 10.7713 83.9725 10.8262 84.0842C11.1953 84.8146 11.6151 85.5183 12.0824 86.1901L12.1109 86.2348C12.1227 86.25 12.1356 86.2643 12.1495 86.2775C13.6593 88.4107 15.6341 90.1729 17.9247 91.4311C20.2153 92.6892 22.7619 93.4105 25.3721 93.5403C25.8457 96.932 27.5283 100.038 30.1103 102.288C32.6923 104.538 36 105.779 39.4245 105.784C42.8491 105.789 46.1602 104.556 48.7483 102.314C51.3365 100.071 53.0276 96.9693 53.5105 93.5789H94.4895C95.0282 97.1164 96.88 100.321 99.6759 102.554C102.472 104.787 106.007 105.885 109.576 105.629C113.145 105.372 116.486 103.781 118.934 101.171C121.382 98.5609 122.757 95.1244 122.784 91.5462C122.78 90.8971 122.73 90.2491 122.634 89.6071C122.965 89.3408 123.299 89.0745 123.608 88.794C124.634 89.2354 125.733 89.4795 126.85 89.5135C133.688 89.5135 139.046 83.261 139.046 75.2848C139.046 67.8878 129.551 55.1449 128.476 53.7159ZM37.4117 52.9029C36.941 52.8951 36.4715 52.8523 36.0071 52.7748C35.7652 52.7382 35.5314 52.6894 35.2997 52.6346C34.999 52.5644 34.7025 52.4775 34.4114 52.3744C34.2082 52.3032 34.0232 52.226 33.8342 52.1406C33.5253 52.0007 33.2265 51.8398 32.9398 51.6589C32.8097 51.5776 32.6796 51.4942 32.5556 51.4048C32.2346 51.1742 31.9341 50.9164 31.6572 50.6344C31.5901 50.5673 31.521 50.5023 31.4539 50.4311C29.98 48.7233 29.2042 46.5226 29.2809 44.268C29.2809 40.1214 34.2204 32.326 37.4117 27.8582C40.603 32.3301 45.5424 40.1214 45.5424 44.268C45.6405 45.3842 45.5015 46.5085 45.1346 47.5672C44.7677 48.6259 44.1812 49.5951 43.4135 50.4112C42.6457 51.2273 41.7141 51.8719 40.6798 52.3027C39.6455 52.7335 38.5318 52.9408 37.4117 52.911V52.9029ZM38.6618 56.9357C38.7797 56.9357 38.8935 56.9113 39.0094 56.9032C39.2696 56.8849 39.5257 56.8564 39.7818 56.83C40.1213 56.7934 40.4607 56.7528 40.7981 56.702C41.0522 56.6613 41.3002 56.6186 41.5502 56.5698C41.8775 56.5068 42.2007 56.4357 42.5198 56.3666C42.7637 56.3083 43.0056 56.2453 43.2455 56.1775C43.5606 56.0881 43.8675 55.9885 44.1744 55.8828C44.4061 55.8035 44.6379 55.7263 44.8635 55.6389C45.1664 55.523 45.4611 55.3929 45.7558 55.2608C45.9713 55.1653 46.1888 55.0717 46.4002 54.966C46.697 54.8197 46.9836 54.6571 47.2682 54.4945C47.4613 54.3847 47.6584 54.2912 47.8475 54.1652C48.1524 53.9741 48.4451 53.7586 48.7358 53.5554C48.8902 53.4456 49.0488 53.3521 49.1972 53.2322C49.6301 52.9008 50.0468 52.5512 50.4432 52.1813C51.4648 52.6244 52.5603 52.8719 53.6732 52.911C60.5111 52.911 65.8693 46.6585 65.8693 38.6822C65.8598 38.0815 65.8013 37.4826 65.6944 36.8914C65.6802 36.806 65.6944 36.7349 65.6701 36.6475H67.9019V59.007H38.1739L38.6618 56.9357ZM24.1809 47.8882C23.9269 47.9817 23.6707 48.0915 23.4085 48.1931C22.7003 48.5423 21.9356 48.7626 21.1502 48.8436C16.5909 48.8436 13.0195 44.3717 13.0195 38.6802C13.0195 34.5864 17.5402 27.0939 20.7294 22.4187C21.4388 23.9026 22.3759 25.7218 23.4797 27.535C23.661 27.8329 23.9159 28.0791 24.22 28.2499C24.524 28.4208 24.8668 28.5106 25.2156 28.5107H25.2379C25.5902 28.5061 25.9353 28.41 26.2393 28.2318C26.5432 28.0536 26.7957 27.7995 26.9718 27.4943C30.0382 22.4684 33.531 17.7154 37.4117 13.2879C41.2941 17.722 44.787 22.4825 47.8515 27.5167C48.0277 27.8218 48.2801 28.076 48.5841 28.2541C48.8881 28.4323 49.2331 28.5284 49.5854 28.533C49.9345 28.5217 50.2758 28.4277 50.5815 28.2588C50.8871 28.0899 51.1484 27.8509 51.3437 27.5614C52.4474 25.7482 53.3764 23.929 54.0939 22.4431C55.2526 24.1343 56.584 26.2036 57.8117 28.3379C57.8849 28.468 57.9601 28.596 58.0312 28.7241C58.3321 29.2546 58.6166 29.7852 58.8972 30.3177C59.0029 30.521 59.1187 30.7243 59.2203 30.9275C59.5131 31.5028 59.7834 32.0699 60.0334 32.6329C60.1899 32.9765 60.3241 33.3017 60.4603 33.629C60.5714 33.9 60.6771 34.1642 60.7774 34.4217C60.8871 34.7103 60.9949 34.997 61.0884 35.2673V35.2836C61.2833 35.8482 61.4449 36.4237 61.5722 37.0073C61.5925 37.0927 61.6067 37.176 61.623 37.2593C61.7224 37.7276 61.7795 38.2038 61.7937 38.6822C61.7937 44.3737 58.2223 48.8456 53.663 48.8456C52.9119 48.7705 52.1799 48.5641 51.5002 48.2358L51.4047 48.1972C51.1425 48.0915 50.8863 47.9939 50.6323 47.8923C50.1519 47.7157 49.6219 47.731 49.1525 47.935C49.4494 46.7381 49.5989 45.5094 49.5976 44.2762C49.5976 37.052 40.0908 24.6018 39.0073 23.2054C38.8096 22.9723 38.5636 22.7851 38.2863 22.6567C38.009 22.5283 37.7071 22.4618 37.4015 22.4618C37.0959 22.4618 36.794 22.5283 36.5167 22.6567C36.2394 22.7851 35.9934 22.9723 35.7957 23.2054C34.7224 24.5937 25.2156 37.0439 25.2156 44.268C25.2127 45.5012 25.3616 46.73 25.6587 47.9269C25.4175 47.8241 25.1586 47.7695 24.8964 47.7663C24.6525 47.7627 24.4099 47.804 24.1809 47.8882ZM26.2319 63.0765H27.2483C27.7066 63.0767 28.1516 62.9221 28.511 62.6376C28.8704 62.3531 29.1231 61.9555 29.2281 61.5093L30.5595 55.8523C31.8468 56.2929 33.1755 56.6014 34.5253 56.7731L33.6268 60.5742C33.556 60.8726 33.5536 61.1832 33.6198 61.4827C33.686 61.7821 33.8191 62.0627 34.0092 62.3034C34.1993 62.5442 34.4413 62.7387 34.7173 62.8726C34.9932 63.0065 35.2959 63.0762 35.6026 63.0765H69.9346C70.4737 63.0765 70.9908 62.8623 71.372 62.4811C71.7532 62.0999 71.9673 61.5829 71.9673 61.0438V34.6189C71.9673 34.0798 71.7532 33.5628 71.372 33.1816C70.9908 32.8004 70.4737 32.5862 69.9346 32.5862H64.4464C64.3386 32.3098 64.2187 32.0313 64.0988 31.7528C64.0358 31.6044 63.9728 31.456 63.9057 31.3036C63.4991 30.3807 63.054 29.4559 62.5783 28.5412L62.5682 28.5188H99.7338C102.945 28.509 106.065 29.5895 108.582 31.5835C111.099 33.5775 112.865 36.367 113.591 39.4953L116.077 50.0937L115.989 49.988C115.802 49.7583 115.621 49.5388 115.444 49.3253L115.125 48.9412L114.792 48.5346C114.65 48.3639 114.509 48.1992 114.375 48.0407L114.19 47.8232C114.032 47.6362 113.877 47.4573 113.733 47.2906L113.656 47.2012C113.491 47.0122 113.334 46.8312 113.192 46.6707V46.6605C112.548 45.9287 112.139 45.4815 112.08 45.4206C111.898 45.2307 111.679 45.0791 111.437 44.9744C111.195 44.8697 110.935 44.8141 110.672 44.8108L109.637 40.3937C109.114 38.1619 107.85 36.1731 106.052 34.7519C104.253 33.3306 102.026 32.5608 99.7338 32.5679H78.0654C77.5263 32.5679 77.0092 32.7821 76.628 33.1633C76.2468 33.5445 76.0327 34.0615 76.0327 34.6006V61.0255C76.0327 61.5646 76.2468 62.0816 76.628 62.4628C77.0092 62.844 77.5263 63.0582 78.0654 63.0582H86.5498C84.504 66.3627 83.046 69.9967 82.2405 73.7989C82.1687 74.2909 82.132 74.7875 82.1307 75.2848C82.1307 83.2651 87.4889 89.5135 94.3268 89.5135H53.5288C53.5065 89.355 53.4678 89.2046 53.4394 89.0481C53.4048 88.857 53.3723 88.6659 53.3317 88.4769C53.2727 88.2147 53.2036 87.9585 53.1284 87.7024C53.0796 87.5256 53.0349 87.3508 52.978 87.178C52.8906 86.9056 52.7889 86.6414 52.6853 86.3771C52.6263 86.2287 52.5755 86.0783 52.5125 85.932C52.3783 85.621 52.2279 85.3222 52.0734 85.0234C52.0246 84.9298 51.984 84.8323 51.9352 84.7408C51.7225 84.3532 51.4928 83.9758 51.2461 83.6086C51.2075 83.5517 51.1648 83.5009 51.1262 83.444C50.9128 83.1391 50.6932 82.8341 50.4595 82.5557C50.37 82.4439 50.2704 82.3422 50.1769 82.2345C49.9838 82.0109 49.7887 81.7893 49.5834 81.58C49.4675 81.4621 49.3435 81.3503 49.2236 81.2365C49.0203 81.0495 48.8293 80.8645 48.6138 80.6897C48.4776 80.5758 48.3394 80.4681 48.2073 80.3583C48.004 80.1978 47.8007 80.0392 47.5812 79.8888C47.4308 79.7831 47.2783 79.6855 47.1238 79.5839C46.9084 79.4457 46.6889 79.3115 46.4653 79.1774C46.3047 79.0859 46.1421 78.9964 45.9754 78.9111C45.7477 78.7932 45.516 78.6814 45.2802 78.5757C45.1115 78.4984 44.9407 78.4212 44.768 78.3521C44.5261 78.2525 44.2781 78.1651 44.0301 78.0797C43.8553 78.0208 43.6805 77.9598 43.5036 77.9049C43.2414 77.8277 42.9751 77.7646 42.7089 77.7016C42.5361 77.6589 42.3653 77.6142 42.1905 77.5797C41.8917 77.5207 41.5807 77.4801 41.2839 77.4414C41.1335 77.4211 40.9872 77.3926 40.8347 77.3784C40.3794 77.3357 39.9139 77.3174 39.4444 77.3174C38.9748 77.3174 38.5114 77.3439 38.052 77.3886C37.8995 77.4028 37.7532 77.4313 37.6007 77.4516C37.2979 77.4902 36.9909 77.5309 36.6962 77.5898C36.5234 77.6244 36.3547 77.6691 36.1839 77.7098C35.9156 77.7728 35.6473 77.8378 35.3831 77.913C35.2083 77.9659 35.0375 78.0268 34.8647 78.0858C34.6127 78.1712 34.3627 78.2606 34.1187 78.3602C33.948 78.4293 33.7813 78.5025 33.6146 78.5777C33.3768 78.6875 33.139 78.7993 32.9073 78.9192C32.7467 79.0046 32.5881 79.0899 32.4316 79.1794C32.2019 79.3115 31.9783 79.4477 31.7568 79.5859C31.6084 79.6815 31.462 79.777 31.3177 79.8786C31.0961 80.0331 30.8827 80.1957 30.6713 80.3624C30.5371 80.4681 30.403 80.5657 30.2749 80.6795C30.0595 80.8604 29.8542 81.0535 29.6489 81.2466C29.5371 81.3543 29.4212 81.4499 29.3114 81.5678C29.0939 81.7894 28.8886 82.0231 28.6854 82.2589C28.602 82.3544 28.5146 82.4459 28.4333 82.5435C28.1609 82.8768 27.9028 83.2204 27.6609 83.5781L27.6487 83.5944C27.4007 83.9616 27.1697 84.3417 26.9556 84.7347C26.9027 84.8302 26.86 84.938 26.8092 85.0274C26.6567 85.3222 26.5104 85.6169 26.3783 85.9218C26.3153 86.0682 26.2624 86.2186 26.2055 86.367C26.1018 86.6312 26.0022 86.8955 25.9108 87.1678C25.8559 87.3386 25.8091 87.5134 25.7603 87.6882C25.6892 87.9443 25.618 88.2025 25.5571 88.4647C25.5144 88.6537 25.4819 88.8428 25.4473 89.0318C25.4209 89.1842 25.3823 89.3306 25.3599 89.4831C22.2516 89.2722 19.3191 87.9648 17.0848 85.7937C18.928 84.7242 20.46 83.1922 21.5295 81.3491C22.599 79.506 23.1689 77.4156 23.1829 75.2848C23.1783 73.4239 22.7474 71.5888 21.9232 69.9203C21.0991 68.2519 19.9035 66.7945 18.4284 65.66C20.686 63.9857 23.4213 63.0802 26.2319 63.0765ZM98.5162 59.0111H98.4471C98.2235 58.5822 98.0182 58.1736 97.8251 57.7773C97.2011 56.5028 96.7376 55.4478 96.4754 54.8217C96.3168 54.4477 96.2233 54.2119 96.2213 54.2119C96.1658 54.0893 96.0977 53.9728 96.018 53.8643C95.9936 53.8237 95.9774 53.7769 95.9489 53.7383C95.8728 53.6442 95.7885 53.5572 95.6969 53.4781C95.6562 53.4395 95.6217 53.3907 95.579 53.3562C95.4754 53.2778 95.3644 53.2098 95.2476 53.1529C95.2064 53.1254 95.1636 53.1003 95.1196 53.0777C95.029 53.0446 94.9358 53.0188 94.8411 53.0004C94.7648 52.9707 94.6867 52.9456 94.6073 52.9252C94.2492 52.8755 93.8843 52.9221 93.5502 53.0604C93.2161 53.1987 92.925 53.4236 92.7068 53.7119L92.6011 53.8521C92.1051 54.5128 90.6822 56.4418 89.0215 59.005H80.0981V36.6455H99.7338C101.109 36.6425 102.446 37.1048 103.525 37.9572C104.605 38.8097 105.365 40.0022 105.681 41.341L107.153 47.6301C104.039 51.2384 101.154 55.0388 98.5162 59.0091V59.0111ZM108.07 93.4204L108.222 93.4387C108.409 93.459 108.592 93.4874 108.781 93.5017L109.013 93.5179C108.574 93.6166 108.115 93.571 107.704 93.3878C107.818 93.4 107.946 93.4061 108.062 93.4183L108.07 93.4204ZM110.588 89.5135C109.468 89.5433 108.355 89.3361 107.321 88.9054C106.287 88.4747 105.355 87.8303 104.587 87.0144C103.82 86.1985 103.233 85.2296 102.866 84.1711C102.499 83.1127 102.36 81.9886 102.458 80.8726C102.458 76.7239 107.397 68.9286 110.588 64.4607C113.78 68.9326 118.719 76.7239 118.719 80.8726C118.817 81.9886 118.678 83.1127 118.311 84.1711C117.944 85.2296 117.357 86.1985 116.589 87.0144C115.822 87.8303 114.89 88.4747 113.856 88.9054C112.822 89.3361 111.708 89.5433 110.588 89.5135ZM13.9321 81.1043C13.9159 81.0616 13.9037 81.0169 13.8874 80.9742C13.7297 80.5596 13.594 80.1369 13.4809 79.7079C13.4443 79.5737 13.4118 79.4396 13.3793 79.3013C13.2959 78.9395 13.2288 78.5757 13.176 78.2078C13.1557 78.0675 13.1313 77.9293 13.115 77.789C13.055 77.2953 13.0231 76.7985 13.0195 76.3011C13.0239 75.6757 13.0735 75.0514 13.1679 74.4331C13.1861 74.303 13.2044 74.1708 13.2268 74.0408C13.329 73.4351 13.4737 72.8374 13.6598 72.252C13.674 72.2073 13.6943 72.1626 13.7085 72.1178C13.9041 71.5368 14.1405 70.9703 14.4159 70.4226C14.4423 70.3697 14.4667 70.3148 14.4932 70.264C14.7976 69.6737 15.1469 69.1077 15.538 68.5708L15.5481 68.5586C16.6469 69.3032 17.5467 70.3055 18.1689 71.478C18.7911 72.6505 19.1168 73.9574 19.1175 75.2848C19.1111 76.7957 18.6864 78.2754 17.8907 79.5598C17.0949 80.8442 15.9591 81.8832 14.609 82.5618V82.5496C14.3547 82.0818 14.1287 81.5992 13.9321 81.1043ZM39.4444 101.71C37.4342 101.71 35.4692 101.114 33.7979 99.9968C32.1265 98.88 30.8238 97.2927 30.0546 95.4356C29.2853 93.5785 29.0841 91.535 29.4762 89.5634C29.8684 87.5919 30.8364 85.781 32.2577 84.3596C33.6791 82.9382 35.4901 81.9703 37.4616 81.5781C39.4331 81.1859 41.4766 81.3872 43.3337 82.1565C45.1909 82.9257 46.7782 84.2284 47.8949 85.8997C49.0117 87.5711 49.6078 89.5361 49.6078 91.5462C49.6046 94.2408 48.5327 96.824 46.6274 98.7293C44.7221 100.635 42.1389 101.706 39.4444 101.71ZM118.719 91.9528C118.679 93.3596 118.347 94.7427 117.745 96.0146C117.143 97.2865 116.283 98.4195 115.219 99.3417C114.156 100.264 112.913 100.955 111.569 101.372C110.225 101.789 108.808 101.922 107.41 101.762C106.012 101.603 104.662 101.155 103.446 100.447C102.229 99.7389 101.174 98.7859 100.345 97.6484C99.5162 96.5108 98.9328 95.2136 98.6317 93.8388C98.3306 92.464 98.3182 91.0417 98.5955 89.6619C98.6666 89.7189 98.7459 89.7676 98.8191 89.8225C98.8922 89.8774 98.9837 89.9404 99.0671 90.0014C99.4187 90.2616 99.7785 90.5096 100.153 90.7433C100.283 90.8246 100.417 90.8998 100.559 90.9771C100.896 91.1804 101.238 91.3633 101.59 91.5381C101.754 91.6194 101.919 91.6987 102.086 91.7739C102.252 91.8491 102.374 91.9202 102.523 91.9772C102.619 93.4001 103.214 94.7434 104.204 95.7709C105.193 96.7985 106.512 97.4445 107.93 97.5955C109.349 97.7465 110.775 97.3927 111.958 96.5964C113.141 95.8001 114.006 94.6122 114.4 93.2415C114.495 93.2232 114.585 93.1968 114.68 93.1805C114.847 93.148 115.009 93.1073 115.176 93.0707C115.676 92.963 116.168 92.8411 116.65 92.6967C116.786 92.6561 116.922 92.6114 117.056 92.5687C117.573 92.402 118.076 92.215 118.567 92.0077C118.601 91.9955 118.658 91.9812 118.719 91.9528ZM126.85 85.4482C126.064 85.3671 125.3 85.1469 124.591 84.7977C124.329 84.692 124.073 84.5945 123.819 84.4928C123.338 84.3173 122.809 84.3325 122.339 84.5355C122.636 83.3386 122.786 82.1099 122.784 80.8767C122.784 73.6505 113.278 61.2003 112.194 59.8038C111.996 59.5708 111.75 59.3836 111.473 59.2552C111.196 59.1268 110.894 59.0603 110.588 59.0603C110.283 59.0603 109.981 59.1268 109.704 59.2552C109.426 59.3836 109.18 59.5708 108.982 59.8038C107.899 61.2003 98.3922 73.6505 98.3922 80.8767C98.3892 82.1098 98.5381 83.3387 98.8353 84.5355C98.8008 84.5213 98.7642 84.5253 98.7296 84.5131C98.5757 84.4608 98.416 84.4273 98.254 84.4136C98.191 84.4136 98.1341 84.3749 98.0731 84.3749C98.0487 84.3749 98.0243 84.3871 97.9999 84.3871C97.8167 84.3964 97.6356 84.4299 97.4612 84.4867C97.4267 84.4969 97.3921 84.4867 97.3576 84.505C97.1055 84.5985 96.8514 84.7083 96.5912 84.8079H96.573C95.8665 85.1486 95.1067 85.3652 94.3268 85.4482C89.7675 85.4482 86.1961 80.9763 86.1961 75.2848C86.2049 74.7182 86.273 74.1541 86.3994 73.6017C87.6302 69.5266 89.4761 65.6633 91.8734 62.1455V62.1333C92.595 60.9848 93.2963 59.9319 93.9061 59.0395C94.6134 60.5193 95.5485 62.3325 96.6522 64.1457C96.83 64.4515 97.0874 64.7034 97.3971 64.8745C97.7067 65.0456 98.0569 65.1295 98.4105 65.1173C98.7628 65.1127 99.1079 65.0166 99.4118 64.8384C99.7158 64.6602 99.9682 64.4061 100.144 64.1009C100.527 63.4444 100.931 62.7899 101.342 62.1394C101.653 61.6475 101.976 61.1617 102.299 60.6738C102.425 60.4868 102.547 60.2957 102.675 60.1087C102.945 59.7022 103.222 59.316 103.488 58.9237C103.681 58.6513 103.872 58.3749 104.065 58.1106C104.311 57.7691 104.557 57.4358 104.803 57.0943C105.025 56.7934 105.248 56.4845 105.468 56.1999C105.688 55.9153 105.913 55.6165 106.133 55.3299C106.352 55.0433 106.618 54.6977 106.856 54.3949L107.409 53.6977C107.68 53.3602 107.944 53.0289 108.2 52.7138L108.59 52.2362C108.911 51.8459 109.224 51.4678 109.513 51.1263L109.617 51.0003C109.962 50.5937 110.285 50.2136 110.57 49.8843C110.853 50.2116 111.18 50.5876 111.517 50.9942L111.635 51.1324C111.954 51.5146 112.298 51.9272 112.651 52.3662L112.778 52.5187C113.578 53.4984 114.459 54.6063 115.369 55.8035L115.597 56.1064C115.928 56.5454 116.264 56.9967 116.599 57.4541C116.802 57.7264 117.005 58.0029 117.193 58.2814C117.38 58.5598 117.573 58.816 117.762 59.0944C118.038 59.501 118.315 59.8872 118.585 60.2917C119.43 61.5438 120.254 62.8264 121.004 64.1152C121.18 64.4203 121.432 64.6744 121.736 64.8526C122.04 65.0308 122.385 65.1269 122.738 65.1315C123.092 65.1512 123.446 65.0704 123.757 64.8986C124.068 64.7267 124.324 64.4707 124.496 64.1599C125.6 62.3467 126.529 60.5275 127.246 59.0416C130.462 63.6802 134.981 71.1787 134.981 75.2848C134.981 80.9763 131.409 85.4482 126.85 85.4482Z" fill="#200A52"/>
</svg>
