<svg width="114" height="114" viewBox="0 0 114 114" fill="none" xmlns="http://www.w3.org/2000/svg">
<mask id="path-1-outside-1" maskUnits="userSpaceOnUse" x="8.29761" y="8.29395" width="97" height="97" fill="black">
<rect fill="white" x="8.29761" y="8.29395" width="97" height="97"/>
<path d="M70.1635 9.29395C65.5275 9.29663 61.2108 11.4836 58.4395 15.0997C54.6133 11.5127 49.4858 9.30037 43.8399 9.30037C34.9638 9.30037 27.3365 14.7365 24.106 22.4541H17.5227C12.9945 22.4541 9.29761 26.151 9.29761 30.6793V96.4802C9.29761 101.008 12.9945 104.705 17.5227 104.705H24.1028C26.3293 104.736 26.3293 101.382 24.1028 101.415H17.5227C14.7603 101.415 12.5877 99.2426 12.5877 96.4802V91.5451H94.8388V96.4802C94.8388 99.2426 92.6662 101.415 89.9038 101.415H30.6829C28.4564 101.384 28.4564 104.739 30.6829 104.705H89.9038C94.432 104.705 98.1289 101.008 98.1289 96.4802V78.2146C101.87 77.4452 104.703 74.1109 104.703 70.1502V56.9996C104.703 53.0389 101.87 49.7119 98.1289 48.9448V30.6793C98.1289 26.151 94.432 22.4541 89.9038 22.4541H84.8723C84.0494 15.0672 77.7652 9.28955 70.1635 9.29395ZM43.8399 12.5776C53.8531 12.5776 61.9352 20.6693 61.9352 30.6825C61.9352 40.6957 53.8531 48.7777 43.8399 48.7777C33.8267 48.7777 25.7478 40.6957 25.7478 30.6825C25.7478 20.6693 33.8267 12.5776 43.8399 12.5776ZM70.1635 12.584C75.981 12.5806 80.754 16.8618 81.5501 22.4541H63.5737C62.8388 20.6985 61.8642 19.0721 60.711 17.5897C62.8426 14.4867 66.3545 12.5862 70.1635 12.584ZM17.5227 25.7442H23.0554C22.6776 27.3329 22.4546 28.9798 22.4546 30.6825C22.4546 32.3819 22.6758 34.0283 23.0522 35.6143H12.5877V30.6793C12.5877 27.9169 14.7603 25.7442 17.5227 25.7442ZM64.6276 25.7442H89.9038C92.6662 25.7442 94.8388 27.9169 94.8388 30.6793V35.6143H83.3237C81.1001 35.5832 81.1001 38.9348 83.3237 38.9044H94.8388V48.7777H83.3301C81.1458 48.7777 79.0469 49.6488 77.5018 51.1939L70.9314 57.7643C67.7304 60.9653 67.7346 66.1957 70.9314 69.3983L77.5018 75.9784C79.0503 77.5297 81.1547 78.3817 83.3301 78.3817H94.8388V88.2551H12.5877V38.9044H24.1028C27.3311 46.6269 34.9603 52.0678 43.8399 52.0678C52.7195 52.0678 60.3487 46.6269 63.577 38.9044H76.7436C78.9672 38.9355 78.9672 35.5839 76.7436 35.6143H64.6276C65.0041 34.0282 65.2252 32.3821 65.2252 30.6825C65.2252 28.9799 65.0053 27.3328 64.6276 25.7442ZM30.6829 29.0342C30.4669 29.0342 30.253 29.0768 30.0534 29.1595C29.8538 29.2421 29.6725 29.3633 29.5197 29.516C29.367 29.6688 29.2458 29.8501 29.1631 30.0497C29.0804 30.2493 29.0379 30.4632 29.0379 30.6793C29.0379 30.8953 29.0804 31.1092 29.1631 31.3088C29.2458 31.5084 29.367 31.6897 29.5197 31.8425C29.6725 31.9952 29.8538 32.1164 30.0534 32.1991C30.253 32.2817 30.4669 32.3243 30.6829 32.3243C30.8989 32.3243 31.1129 32.2817 31.3124 32.1991C31.512 32.1164 31.6934 31.9952 31.8461 31.8425C31.9989 31.6897 32.12 31.5084 32.2027 31.3088C32.2854 31.1092 32.3279 30.8953 32.3279 30.6793C32.3279 30.4632 32.2854 30.2493 32.2027 30.0497C32.12 29.8501 31.9989 29.6688 31.8461 29.516C31.6934 29.3633 31.512 29.2421 31.3124 29.1595C31.1129 29.0768 30.8989 29.0342 30.6829 29.0342ZM57.0033 29.0342C56.7873 29.0342 56.5734 29.0768 56.3738 29.1595C56.1742 29.2421 55.9928 29.3633 55.8401 29.516C55.6873 29.6688 55.5662 29.8501 55.4835 30.0497C55.4008 30.2493 55.3583 30.4632 55.3583 30.6793C55.3583 30.8953 55.4008 31.1092 55.4835 31.3088C55.5662 31.5084 55.6873 31.6897 55.8401 31.8425C55.9928 31.9952 56.1742 32.1164 56.3738 32.1991C56.5734 32.2817 56.7873 32.3243 57.0033 32.3243C57.2193 32.3243 57.4332 32.2817 57.6328 32.1991C57.8324 32.1164 58.0137 31.9952 58.1665 31.8425C58.3193 31.6897 58.4404 31.5084 58.5231 31.3088C58.6058 31.1092 58.6483 30.8953 58.6483 30.6793C58.6483 30.4632 58.6058 30.2493 58.5231 30.0497C58.4404 29.8501 58.3193 29.6688 58.1665 29.516C58.0137 29.3633 57.8324 29.2421 57.6328 29.1595C57.4332 29.0768 57.2193 29.0342 57.0033 29.0342ZM83.3301 52.0678H96.4806C99.2269 52.0678 101.425 54.2534 101.425 56.9996V70.1502C101.425 72.8964 99.2269 75.0917 96.4806 75.0917H83.3301C82.0106 75.0917 80.7549 74.5812 79.8344 73.6587L73.264 67.0786C71.3198 65.1309 71.3193 62.0287 73.264 60.084L79.8344 53.5136C80.7631 52.5848 82.016 52.0678 83.3301 52.0678Z"/>
</mask>
<path d="M70.1635 9.29395C65.5275 9.29663 61.2108 11.4836 58.4395 15.0997C54.6133 11.5127 49.4858 9.30037 43.8399 9.30037C34.9638 9.30037 27.3365 14.7365 24.106 22.4541H17.5227C12.9945 22.4541 9.29761 26.151 9.29761 30.6793V96.4802C9.29761 101.008 12.9945 104.705 17.5227 104.705H24.1028C26.3293 104.736 26.3293 101.382 24.1028 101.415H17.5227C14.7603 101.415 12.5877 99.2426 12.5877 96.4802V91.5451H94.8388V96.4802C94.8388 99.2426 92.6662 101.415 89.9038 101.415H30.6829C28.4564 101.384 28.4564 104.739 30.6829 104.705H89.9038C94.432 104.705 98.1289 101.008 98.1289 96.4802V78.2146C101.87 77.4452 104.703 74.1109 104.703 70.1502V56.9996C104.703 53.0389 101.87 49.7119 98.1289 48.9448V30.6793C98.1289 26.151 94.432 22.4541 89.9038 22.4541H84.8723C84.0494 15.0672 77.7652 9.28955 70.1635 9.29395ZM43.8399 12.5776C53.8531 12.5776 61.9352 20.6693 61.9352 30.6825C61.9352 40.6957 53.8531 48.7777 43.8399 48.7777C33.8267 48.7777 25.7478 40.6957 25.7478 30.6825C25.7478 20.6693 33.8267 12.5776 43.8399 12.5776ZM70.1635 12.584C75.981 12.5806 80.754 16.8618 81.5501 22.4541H63.5737C62.8388 20.6985 61.8642 19.0721 60.711 17.5897C62.8426 14.4867 66.3545 12.5862 70.1635 12.584ZM17.5227 25.7442H23.0554C22.6776 27.3329 22.4546 28.9798 22.4546 30.6825C22.4546 32.3819 22.6758 34.0283 23.0522 35.6143H12.5877V30.6793C12.5877 27.9169 14.7603 25.7442 17.5227 25.7442ZM64.6276 25.7442H89.9038C92.6662 25.7442 94.8388 27.9169 94.8388 30.6793V35.6143H83.3237C81.1001 35.5832 81.1001 38.9348 83.3237 38.9044H94.8388V48.7777H83.3301C81.1458 48.7777 79.0469 49.6488 77.5018 51.1939L70.9314 57.7643C67.7304 60.9653 67.7346 66.1957 70.9314 69.3983L77.5018 75.9784C79.0503 77.5297 81.1547 78.3817 83.3301 78.3817H94.8388V88.2551H12.5877V38.9044H24.1028C27.3311 46.6269 34.9603 52.0678 43.8399 52.0678C52.7195 52.0678 60.3487 46.6269 63.577 38.9044H76.7436C78.9672 38.9355 78.9672 35.5839 76.7436 35.6143H64.6276C65.0041 34.0282 65.2252 32.3821 65.2252 30.6825C65.2252 28.9799 65.0053 27.3328 64.6276 25.7442ZM30.6829 29.0342C30.4669 29.0342 30.253 29.0768 30.0534 29.1595C29.8538 29.2421 29.6725 29.3633 29.5197 29.516C29.367 29.6688 29.2458 29.8501 29.1631 30.0497C29.0804 30.2493 29.0379 30.4632 29.0379 30.6793C29.0379 30.8953 29.0804 31.1092 29.1631 31.3088C29.2458 31.5084 29.367 31.6897 29.5197 31.8425C29.6725 31.9952 29.8538 32.1164 30.0534 32.1991C30.253 32.2817 30.4669 32.3243 30.6829 32.3243C30.8989 32.3243 31.1129 32.2817 31.3124 32.1991C31.512 32.1164 31.6934 31.9952 31.8461 31.8425C31.9989 31.6897 32.12 31.5084 32.2027 31.3088C32.2854 31.1092 32.3279 30.8953 32.3279 30.6793C32.3279 30.4632 32.2854 30.2493 32.2027 30.0497C32.12 29.8501 31.9989 29.6688 31.8461 29.516C31.6934 29.3633 31.512 29.2421 31.3124 29.1595C31.1129 29.0768 30.8989 29.0342 30.6829 29.0342ZM57.0033 29.0342C56.7873 29.0342 56.5734 29.0768 56.3738 29.1595C56.1742 29.2421 55.9928 29.3633 55.8401 29.516C55.6873 29.6688 55.5662 29.8501 55.4835 30.0497C55.4008 30.2493 55.3583 30.4632 55.3583 30.6793C55.3583 30.8953 55.4008 31.1092 55.4835 31.3088C55.5662 31.5084 55.6873 31.6897 55.8401 31.8425C55.9928 31.9952 56.1742 32.1164 56.3738 32.1991C56.5734 32.2817 56.7873 32.3243 57.0033 32.3243C57.2193 32.3243 57.4332 32.2817 57.6328 32.1991C57.8324 32.1164 58.0137 31.9952 58.1665 31.8425C58.3193 31.6897 58.4404 31.5084 58.5231 31.3088C58.6058 31.1092 58.6483 30.8953 58.6483 30.6793C58.6483 30.4632 58.6058 30.2493 58.5231 30.0497C58.4404 29.8501 58.3193 29.6688 58.1665 29.516C58.0137 29.3633 57.8324 29.2421 57.6328 29.1595C57.4332 29.0768 57.2193 29.0342 57.0033 29.0342ZM83.3301 52.0678H96.4806C99.2269 52.0678 101.425 54.2534 101.425 56.9996V70.1502C101.425 72.8964 99.2269 75.0917 96.4806 75.0917H83.3301C82.0106 75.0917 80.7549 74.5812 79.8344 73.6587L73.264 67.0786C71.3198 65.1309 71.3193 62.0287 73.264 60.084L79.8344 53.5136C80.7631 52.5848 82.016 52.0678 83.3301 52.0678Z" fill="#200A52"/>
<path d="M70.1635 9.29395C65.5275 9.29663 61.2108 11.4836 58.4395 15.0997C54.6133 11.5127 49.4858 9.30037 43.8399 9.30037C34.9638 9.30037 27.3365 14.7365 24.106 22.4541H17.5227C12.9945 22.4541 9.29761 26.151 9.29761 30.6793V96.4802C9.29761 101.008 12.9945 104.705 17.5227 104.705H24.1028C26.3293 104.736 26.3293 101.382 24.1028 101.415H17.5227C14.7603 101.415 12.5877 99.2426 12.5877 96.4802V91.5451H94.8388V96.4802C94.8388 99.2426 92.6662 101.415 89.9038 101.415H30.6829C28.4564 101.384 28.4564 104.739 30.6829 104.705H89.9038C94.432 104.705 98.1289 101.008 98.1289 96.4802V78.2146C101.87 77.4452 104.703 74.1109 104.703 70.1502V56.9996C104.703 53.0389 101.87 49.7119 98.1289 48.9448V30.6793C98.1289 26.151 94.432 22.4541 89.9038 22.4541H84.8723C84.0494 15.0672 77.7652 9.28955 70.1635 9.29395ZM43.8399 12.5776C53.8531 12.5776 61.9352 20.6693 61.9352 30.6825C61.9352 40.6957 53.8531 48.7777 43.8399 48.7777C33.8267 48.7777 25.7478 40.6957 25.7478 30.6825C25.7478 20.6693 33.8267 12.5776 43.8399 12.5776ZM70.1635 12.584C75.981 12.5806 80.754 16.8618 81.5501 22.4541H63.5737C62.8388 20.6985 61.8642 19.0721 60.711 17.5897C62.8426 14.4867 66.3545 12.5862 70.1635 12.584ZM17.5227 25.7442H23.0554C22.6776 27.3329 22.4546 28.9798 22.4546 30.6825C22.4546 32.3819 22.6758 34.0283 23.0522 35.6143H12.5877V30.6793C12.5877 27.9169 14.7603 25.7442 17.5227 25.7442ZM64.6276 25.7442H89.9038C92.6662 25.7442 94.8388 27.9169 94.8388 30.6793V35.6143H83.3237C81.1001 35.5832 81.1001 38.9348 83.3237 38.9044H94.8388V48.7777H83.3301C81.1458 48.7777 79.0469 49.6488 77.5018 51.1939L70.9314 57.7643C67.7304 60.9653 67.7346 66.1957 70.9314 69.3983L77.5018 75.9784C79.0503 77.5297 81.1547 78.3817 83.3301 78.3817H94.8388V88.2551H12.5877V38.9044H24.1028C27.3311 46.6269 34.9603 52.0678 43.8399 52.0678C52.7195 52.0678 60.3487 46.6269 63.577 38.9044H76.7436C78.9672 38.9355 78.9672 35.5839 76.7436 35.6143H64.6276C65.0041 34.0282 65.2252 32.3821 65.2252 30.6825C65.2252 28.9799 65.0053 27.3328 64.6276 25.7442ZM30.6829 29.0342C30.4669 29.0342 30.253 29.0768 30.0534 29.1595C29.8538 29.2421 29.6725 29.3633 29.5197 29.516C29.367 29.6688 29.2458 29.8501 29.1631 30.0497C29.0804 30.2493 29.0379 30.4632 29.0379 30.6793C29.0379 30.8953 29.0804 31.1092 29.1631 31.3088C29.2458 31.5084 29.367 31.6897 29.5197 31.8425C29.6725 31.9952 29.8538 32.1164 30.0534 32.1991C30.253 32.2817 30.4669 32.3243 30.6829 32.3243C30.8989 32.3243 31.1129 32.2817 31.3124 32.1991C31.512 32.1164 31.6934 31.9952 31.8461 31.8425C31.9989 31.6897 32.12 31.5084 32.2027 31.3088C32.2854 31.1092 32.3279 30.8953 32.3279 30.6793C32.3279 30.4632 32.2854 30.2493 32.2027 30.0497C32.12 29.8501 31.9989 29.6688 31.8461 29.516C31.6934 29.3633 31.512 29.2421 31.3124 29.1595C31.1129 29.0768 30.8989 29.0342 30.6829 29.0342ZM57.0033 29.0342C56.7873 29.0342 56.5734 29.0768 56.3738 29.1595C56.1742 29.2421 55.9928 29.3633 55.8401 29.516C55.6873 29.6688 55.5662 29.8501 55.4835 30.0497C55.4008 30.2493 55.3583 30.4632 55.3583 30.6793C55.3583 30.8953 55.4008 31.1092 55.4835 31.3088C55.5662 31.5084 55.6873 31.6897 55.8401 31.8425C55.9928 31.9952 56.1742 32.1164 56.3738 32.1991C56.5734 32.2817 56.7873 32.3243 57.0033 32.3243C57.2193 32.3243 57.4332 32.2817 57.6328 32.1991C57.8324 32.1164 58.0137 31.9952 58.1665 31.8425C58.3193 31.6897 58.4404 31.5084 58.5231 31.3088C58.6058 31.1092 58.6483 30.8953 58.6483 30.6793C58.6483 30.4632 58.6058 30.2493 58.5231 30.0497C58.4404 29.8501 58.3193 29.6688 58.1665 29.516C58.0137 29.3633 57.8324 29.2421 57.6328 29.1595C57.4332 29.0768 57.2193 29.0342 57.0033 29.0342ZM83.3301 52.0678H96.4806C99.2269 52.0678 101.425 54.2534 101.425 56.9996V70.1502C101.425 72.8964 99.2269 75.0917 96.4806 75.0917H83.3301C82.0106 75.0917 80.7549 74.5812 79.8344 73.6587L73.264 67.0786C71.3198 65.1309 71.3193 62.0287 73.264 60.084L79.8344 53.5136C80.7631 52.5848 82.016 52.0678 83.3301 52.0678Z" stroke="#200A52" stroke-width="0.8" mask="url(#path-1-outside-1)"/>
<path d="M45.1768 21.0537H51.4235C52.6356 21.0537 53.3938 22.3657 52.7854 23.4144L42.3758 41.4099C41.7766 42.4495 40.2784 42.4586 39.661 41.428L36.4832 36.0984C36.1927 35.6081 36.1881 34.9998 36.4741 34.5049L43.8149 21.8345C44.0964 21.3533 44.6139 21.0537 45.1768 21.0537Z" fill="#44E0B7"/>
</svg>
