<svg width="114" height="114" viewBox="0 0 114 114" fill="none" xmlns="http://www.w3.org/2000/svg">
<path d="M44.8937 96.2155C43.7215 96.2155 42.7703 95.2664 42.7703 94.0921V47.0965C42.7703 45.9245 43.7217 44.973 44.8937 44.973C46.0658 44.973 47.0172 45.9245 47.0172 47.0965V94.0921C47.0172 95.2664 46.066 96.2155 44.8937 96.2155Z" fill="#200A52" stroke="white" stroke-width="0.7"/>
<path d="M44.8238 22.3623C44.156 22.3623 43.5376 22.0902 43.0676 21.645C42.5977 21.175 42.3503 20.5319 42.3503 19.8888C42.3503 19.2457 42.5977 18.6026 43.0676 18.1327C43.9828 17.2175 45.6648 17.2175 46.5799 18.1327C47.0252 18.6026 47.2972 19.2457 47.2972 19.8888C47.2972 20.5319 47.0252 21.175 46.5552 21.645C46.11 22.0902 45.4669 22.3623 44.8238 22.3623Z" fill="#200A52"/>
<path d="M44.8938 49.2198C39.6307 49.2198 35.35 44.9392 35.35 39.676C35.35 34.4129 39.6307 30.1322 44.8938 30.1322C50.1569 30.1322 54.4376 34.4129 54.4376 39.676C54.4376 44.9392 50.1569 49.2198 44.8938 49.2198ZM44.8938 34.3791C41.9723 34.3791 39.5969 36.7545 39.5969 39.676C39.5969 42.5975 41.9723 44.9729 44.8938 44.9729C47.8153 44.9729 50.1907 42.5975 50.1907 39.676C50.1907 36.7545 47.8153 34.3791 44.8938 34.3791Z" fill="#200A52" stroke="white" stroke-width="0.7"/>
<path d="M99.861 22.3623C99.2179 22.3623 98.5748 22.0902 98.1049 21.645C97.6597 21.175 97.3876 20.5319 97.3876 19.8888C97.3876 19.2457 97.6597 18.6026 98.1049 18.1327C99.0448 17.2175 100.677 17.2175 101.617 18.1327C102.087 18.6026 102.334 19.2457 102.334 19.8888C102.334 20.5319 102.087 21.175 101.617 21.645C101.147 22.0902 100.504 22.3623 99.861 22.3623Z" fill="#200A52"/>
<path d="M99.8937 81.3747C98.7192 81.3747 97.7703 80.4258 97.7703 79.2513V32.2557C97.7703 31.0834 98.7194 30.1322 99.8937 30.1322C101.068 30.1322 102.017 31.0834 102.017 32.2557V79.2513C102.017 80.4258 101.068 81.3747 99.8937 81.3747Z" fill="#200A52" stroke="white" stroke-width="0.7"/>
<path d="M99.8938 96.215C94.6307 96.215 90.35 91.9343 90.35 86.6711C90.35 81.408 94.6307 77.1273 99.8938 77.1273C105.157 77.1273 109.438 81.408 109.438 86.6711C109.438 91.9343 105.157 96.215 99.8938 96.215ZM99.8938 81.3742C96.9723 81.3742 94.5969 83.7496 94.5969 86.6711C94.5969 89.5927 96.9723 91.9681 99.8938 91.9681C102.815 91.9681 105.191 89.5927 105.191 86.6711C105.191 83.7496 102.815 81.3742 99.8938 81.3742Z" fill="#200A52" stroke="white" stroke-width="0.7"/>
<path d="M72.4238 22.3623C71.7807 22.3623 71.1376 22.0902 70.6676 21.645C70.2224 21.175 69.9503 20.5319 69.9503 19.8888C69.9503 19.2457 70.2224 18.6026 70.6676 18.1327C71.6075 17.2175 73.24 17.2175 74.1799 18.1327C74.6251 18.6026 74.8972 19.2457 74.8972 19.8888C74.8972 20.5319 74.6251 21.175 74.1799 21.645C73.71 22.0902 73.0669 22.3623 72.4238 22.3623Z" fill="#200A52"/>
<path d="M72.4238 96.2152C71.2515 96.2152 70.3003 95.266 70.3003 94.0918V69.3572C70.3003 68.1829 71.2515 67.2338 72.4238 67.2338C73.596 67.2338 74.5472 68.1829 74.5472 69.3572V94.0918C74.5472 95.266 73.596 96.2152 72.4238 96.2152Z" fill="#200A52" stroke="white" stroke-width="0.7"/>
<path d="M72.4238 56.6398C71.2517 56.6398 70.3003 55.6884 70.3003 54.5163V33.3807C70.3003 32.2086 71.2517 31.2572 72.4238 31.2572C73.5958 31.2572 74.5472 32.2086 74.5472 33.3807V54.5163C74.5472 55.6884 73.5958 56.6398 72.4238 56.6398Z" fill="#200A52" stroke="white" stroke-width="0.7"/>
<path d="M72.4238 71.4806C67.1607 71.4806 62.88 67.1999 62.88 61.9368C62.88 56.6736 67.1607 52.393 72.4238 52.393C77.687 52.393 81.9676 56.6736 81.9676 61.9368C81.9676 67.1999 77.687 71.4806 72.4238 71.4806ZM72.4238 56.6399C69.5023 56.6399 67.1269 59.0153 67.1269 61.9368C67.1269 64.8583 69.5023 67.2337 72.4238 67.2337C75.3454 67.2337 77.7207 64.8583 77.7207 61.9368C77.7207 59.0153 75.3454 56.6399 72.4238 56.6399Z" fill="#200A52" stroke="white" stroke-width="0.7"/>
<path d="M6.15404 89.2516L6.15554 89.253C8.11431 91.1579 10.73 92.2798 13.982 92.6342V95.0051C13.982 95.898 14.7058 96.6219 15.5987 96.6219C16.4916 96.6219 17.2154 95.898 17.2154 95.0051V92.6378C18.7384 92.4956 20.1436 92.1753 21.4296 91.6751C22.7806 91.1495 23.9505 90.4415 24.936 89.5491L24.936 89.5492L24.9393 89.5461C25.9247 88.6208 26.6895 87.5301 27.233 86.2758C27.8129 85.0141 28.0996 83.5768 28.0996 81.9691C28.0996 80.4545 27.7949 79.1386 27.1745 78.0312C26.5983 76.9442 25.884 76.0335 25.0302 75.3027C24.1861 74.5804 23.3048 74.019 22.3859 73.6214C21.4845 73.1996 20.6913 72.9032 20.0083 72.737C20.0077 72.7368 20.0071 72.7367 20.0065 72.7365L17.2154 72.0127V60.6206C19.4765 61.1051 21.0037 62.3725 21.8288 64.4292C22.2159 65.3938 23.0962 66.1731 24.1887 66.1731C25.6471 66.1731 26.7883 64.7929 26.2418 63.3788C25.5755 61.6546 24.681 60.2188 23.5546 59.0777C21.9614 57.4638 19.8421 56.4866 17.2154 56.1332V54.482C17.2154 53.5891 16.4916 52.8652 15.5987 52.8652C14.7058 52.8652 13.982 53.5891 13.982 54.482V56.0734C12.6181 56.1882 11.3276 56.4941 10.1116 56.9921L10.1116 56.992L10.1095 56.993C8.85559 57.5202 7.75235 58.2462 6.80164 59.1708C5.88233 60.0648 5.15209 61.1393 4.60995 62.391C4.06442 63.6183 3.79368 64.9741 3.79368 66.4547C3.79368 67.8945 3.99541 69.136 4.40779 70.172C4.82059 71.2091 5.45771 72.0962 6.31638 72.8311L6.31624 72.8312L6.32451 72.8377C7.20792 73.5316 8.28944 74.1385 9.56495 74.6608L9.5649 74.6609L9.5721 74.6636C10.8288 75.1336 12.2992 75.5721 13.982 75.9797V88.2929C12.1682 87.9505 10.6557 87.1987 9.43527 86.042C8.60246 85.2317 8.03327 84.225 7.72934 83.0145C7.439 81.8582 6.48643 80.8491 5.22717 80.8491C3.89252 80.8491 2.78046 82.0012 3.06913 83.355C3.58012 85.7514 4.60629 87.7209 6.15404 89.2516ZM17.2154 88.3196V76.7935C17.9845 77.025 18.7148 77.2808 19.4062 77.561L19.4062 77.5611L19.4145 77.5642C20.1884 77.8464 20.8428 78.2046 21.3815 78.636C21.9172 79.0651 22.342 79.5852 22.6573 80.1985L22.6573 80.1985L22.6598 80.2032C22.9657 80.7685 23.1266 81.4976 23.1266 82.4041C23.1266 83.4087 22.9652 84.2762 22.6498 85.0122L22.6498 85.0122L22.6477 85.0173C22.3642 85.7218 21.9403 86.317 21.3747 86.8061C20.8396 87.2652 20.1906 87.6206 19.423 87.8694L19.42 87.8704C18.7542 88.0956 18.0197 88.2458 17.2154 88.3196ZM10.3191 62.0533L10.3195 62.053C11.3391 61.178 12.5573 60.6435 13.982 60.4527V71.1515C13.2843 70.9503 12.6377 70.7254 12.042 70.4771C11.3649 70.1949 10.7719 69.8675 10.2614 69.4961C9.79502 69.1016 9.42169 68.6326 9.14034 68.0877C8.894 67.5153 8.7666 66.8282 8.7666 66.0197C8.7666 64.2345 9.29595 62.9277 10.3191 62.0533Z" fill="#44E0B7" stroke="#44E0B7" stroke-width="0.5"/>
</svg>
