<svg width="126" height="114" viewBox="0 0 126 114" fill="none" xmlns="http://www.w3.org/2000/svg">
<g clip-path="url(#clip0)">
<path d="M119.188 18.25H117.25V16.3125C117.25 14.7709 116.638 13.2925 115.548 12.2024C114.457 11.1124 112.979 10.5 111.438 10.5C109.896 10.5 108.418 11.1124 107.327 12.2024C106.237 13.2925 105.625 14.7709 105.625 16.3125V18.25H101.75V16.3125C101.75 14.7709 101.138 13.2925 100.048 12.2024C98.9575 11.1124 97.4791 10.5 95.9375 10.5C94.3959 10.5 92.9175 11.1124 91.8274 12.2024C90.7374 13.2925 90.125 14.7709 90.125 16.3125V18.25H86.25V16.3125C86.25 14.7709 85.6376 13.2925 84.5476 12.2024C83.4575 11.1124 81.9791 10.5 80.4375 10.5C78.8959 10.5 77.4175 11.1124 76.3274 12.2024C75.2374 13.2925 74.625 14.7709 74.625 16.3125V18.25H51.375V16.3125C51.375 14.7709 50.7626 13.2925 49.6726 12.2024C48.5825 11.1124 47.1041 10.5 45.5625 10.5C44.0209 10.5 42.5425 11.1124 41.4524 12.2024C40.3624 13.2925 39.75 14.7709 39.75 16.3125V18.25H35.875V16.3125C35.875 14.7709 35.2626 13.2925 34.1726 12.2024C33.0825 11.1124 31.6041 10.5 30.0625 10.5C28.5209 10.5 27.0425 11.1124 25.9524 12.2024C24.8624 13.2925 24.25 14.7709 24.25 16.3125V18.25H20.375V16.3125C20.375 14.7709 19.7626 13.2925 18.6726 12.2024C17.5825 11.1124 16.1041 10.5 14.5625 10.5C13.0209 10.5 11.5425 11.1124 10.4524 12.2024C9.36239 13.2925 8.75 14.7709 8.75 16.3125V18.25H6.8125C5.27093 18.25 3.7925 18.8624 2.70244 19.9524C1.61239 21.0425 1 22.5209 1 24.0625L1 35.6875C1 36.2014 1.20413 36.6942 1.56748 37.0575C1.93083 37.4209 2.42364 37.625 2.9375 37.625H115.312C115.826 37.625 116.319 37.4209 116.683 37.0575C117.046 36.6942 117.25 36.2014 117.25 35.6875C117.25 35.1736 117.046 34.6808 116.683 34.3175C116.319 33.9541 115.826 33.75 115.312 33.75H4.875V24.0625C4.875 23.5486 5.07913 23.0558 5.44248 22.6925C5.80583 22.3291 6.29864 22.125 6.8125 22.125H8.75V24.0625C8.75 25.6041 9.36239 27.0825 10.4524 28.1726C11.5425 29.2626 13.0209 29.875 14.5625 29.875C16.1041 29.875 17.5825 29.2626 18.6726 28.1726C19.7626 27.0825 20.375 25.6041 20.375 24.0625V22.125H24.25V24.0625C24.25 25.6041 24.8624 27.0825 25.9524 28.1726C27.0425 29.2626 28.5209 29.875 30.0625 29.875C31.6041 29.875 33.0825 29.2626 34.1726 28.1726C35.2626 27.0825 35.875 25.6041 35.875 24.0625V22.125H39.75V24.0625C39.75 25.6041 40.3624 27.0825 41.4524 28.1726C42.5425 29.2626 44.0209 29.875 45.5625 29.875C47.1041 29.875 48.5825 29.2626 49.6726 28.1726C50.7626 27.0825 51.375 25.6041 51.375 24.0625V22.125H74.625V24.0625C74.625 25.6041 75.2374 27.0825 76.3274 28.1726C77.4175 29.2626 78.8959 29.875 80.4375 29.875C81.9791 29.875 83.4575 29.2626 84.5476 28.1726C85.6376 27.0825 86.25 25.6041 86.25 24.0625V22.125H90.125V24.0625C90.125 25.6041 90.7374 27.0825 91.8274 28.1726C92.9175 29.2626 94.3959 29.875 95.9375 29.875C97.4791 29.875 98.9575 29.2626 100.048 28.1726C101.138 27.0825 101.75 25.6041 101.75 24.0625V22.125H105.625V24.0625C105.625 25.6041 106.237 27.0825 107.327 28.1726C108.418 29.2626 109.896 29.875 111.438 29.875C112.979 29.875 114.457 29.2626 115.548 28.1726C116.638 27.0825 117.25 25.6041 117.25 24.0625V22.125H119.188C119.701 22.125 120.194 22.3291 120.558 22.6925C120.921 23.0558 121.125 23.5486 121.125 24.0625V97.6875C121.125 98.2014 120.921 98.6942 120.558 99.0575C120.194 99.4209 119.701 99.625 119.188 99.625H6.8125C6.29864 99.625 5.80583 99.4209 5.44248 99.0575C5.07913 98.6942 4.875 98.2014 4.875 97.6875V43.4375C4.875 42.9236 4.67087 42.4308 4.30752 42.0675C3.94417 41.7041 3.45136 41.5 2.9375 41.5C2.42364 41.5 1.93083 41.7041 1.56748 42.0675C1.20413 42.4308 1 42.9236 1 43.4375L1 97.6875C1 99.2291 1.61239 100.707 2.70244 101.798C3.7925 102.888 5.27093 103.5 6.8125 103.5H119.188C120.729 103.5 122.207 102.888 123.298 101.798C124.388 100.707 125 99.2291 125 97.6875V24.0625C125 22.5209 124.388 21.0425 123.298 19.9524C122.207 18.8624 120.729 18.25 119.188 18.25ZM16.5 24.0625C16.5 24.5764 16.2959 25.0692 15.9325 25.4325C15.5692 25.7959 15.0764 26 14.5625 26C14.0486 26 13.5558 25.7959 13.1925 25.4325C12.8291 25.0692 12.625 24.5764 12.625 24.0625V16.3125C12.625 15.7986 12.8291 15.3058 13.1925 14.9425C13.5558 14.5791 14.0486 14.375 14.5625 14.375C15.0764 14.375 15.5692 14.5791 15.9325 14.9425C16.2959 15.3058 16.5 15.7986 16.5 16.3125V24.0625ZM32 24.0625C32 24.5764 31.7959 25.0692 31.4325 25.4325C31.0692 25.7959 30.5764 26 30.0625 26C29.5486 26 29.0558 25.7959 28.6925 25.4325C28.3291 25.0692 28.125 24.5764 28.125 24.0625V16.3125C28.125 15.7986 28.3291 15.3058 28.6925 14.9425C29.0558 14.5791 29.5486 14.375 30.0625 14.375C30.5764 14.375 31.0692 14.5791 31.4325 14.9425C31.7959 15.3058 32 15.7986 32 16.3125V24.0625ZM47.5 24.0625C47.5 24.5764 47.2959 25.0692 46.9325 25.4325C46.5692 25.7959 46.0764 26 45.5625 26C45.0486 26 44.5558 25.7959 44.1925 25.4325C43.8291 25.0692 43.625 24.5764 43.625 24.0625V16.3125C43.625 15.7986 43.8291 15.3058 44.1925 14.9425C44.5558 14.5791 45.0486 14.375 45.5625 14.375C46.0764 14.375 46.5692 14.5791 46.9325 14.9425C47.2959 15.3058 47.5 15.7986 47.5 16.3125V24.0625ZM82.375 24.0625C82.375 24.5764 82.1709 25.0692 81.8075 25.4325C81.4442 25.7959 80.9514 26 80.4375 26C79.9236 26 79.4308 25.7959 79.0675 25.4325C78.7041 25.0692 78.5 24.5764 78.5 24.0625V16.3125C78.5 15.7986 78.7041 15.3058 79.0675 14.9425C79.4308 14.5791 79.9236 14.375 80.4375 14.375C80.9514 14.375 81.4442 14.5791 81.8075 14.9425C82.1709 15.3058 82.375 15.7986 82.375 16.3125V24.0625ZM97.875 24.0625C97.875 24.5764 97.6709 25.0692 97.3075 25.4325C96.9442 25.7959 96.4514 26 95.9375 26C95.4236 26 94.9308 25.7959 94.5675 25.4325C94.2041 25.0692 94 24.5764 94 24.0625V16.3125C94 15.7986 94.2041 15.3058 94.5675 14.9425C94.9308 14.5791 95.4236 14.375 95.9375 14.375C96.4514 14.375 96.9442 14.5791 97.3075 14.9425C97.6709 15.3058 97.875 15.7986 97.875 16.3125V24.0625ZM113.375 24.0625C113.375 24.5764 113.171 25.0692 112.808 25.4325C112.444 25.7959 111.951 26 111.438 26C110.924 26 110.431 25.7959 110.067 25.4325C109.704 25.0692 109.5 24.5764 109.5 24.0625V16.3125C109.5 15.7986 109.704 15.3058 110.067 14.9425C110.431 14.5791 110.924 14.375 111.438 14.375C111.951 14.375 112.444 14.5791 112.808 14.9425C113.171 15.3058 113.375 15.7986 113.375 16.3125V24.0625Z" fill="#200A52"/>
<rect x="16" y="48" width="10" height="10" rx="1" stroke="#320170" stroke-width="2"/>
<rect x="16" y="64" width="10" height="10" rx="1" stroke="#320170" stroke-width="2"/>
<rect x="16" y="80" width="10" height="10" rx="1" stroke="#320170" stroke-width="2"/>
<rect x="30" y="48" width="10" height="10" rx="1" stroke="#44E0B7" stroke-width="2"/>
<rect x="30" y="64" width="10" height="10" rx="1" stroke="#320170" stroke-width="2"/>
<rect x="30" y="80" width="10" height="10" rx="1" stroke="#320170" stroke-width="2"/>
<rect x="44" y="48" width="10" height="10" rx="1" stroke="#320170" stroke-width="2"/>
<rect x="44" y="64" width="10" height="10" rx="1" stroke="#320170" stroke-width="2"/>
<rect x="44" y="80" width="10" height="10" rx="1" stroke="#44E0B7" stroke-width="2"/>
<path d="M49.5403 81H48.4645V81.7218C48.0379 81.8383 47.6888 82.0667 47.4171 82.4069C47.139 82.7533 47 83.1456 47 83.5839C47 84.1847 47.2148 84.6475 47.6445 84.9724C47.891 85.1563 48.2891 85.328 48.8389 85.4874C49.278 85.6161 49.5624 85.731 49.6919 85.8322C49.8468 85.9517 49.9242 86.1448 49.9242 86.4115C49.9242 86.6567 49.8341 86.8667 49.654 87.0414C49.4739 87.2161 49.2559 87.3034 49 87.3034C48.7441 87.3034 48.5261 87.2161 48.346 87.0414C48.1659 86.8667 48.0758 86.6567 48.0758 86.4115V85.892H47V86.4115C47 86.8498 47.139 87.2437 47.4171 87.5931C47.6888 87.9333 48.0379 88.1617 48.4645 88.2782V89H49.5403V88.2782C49.9637 88.1617 50.3128 87.9333 50.5877 87.5931C50.8626 87.2437 51 86.8498 51 86.4115C51 85.8077 50.7836 85.3418 50.3507 85.0138C50.1043 84.8268 49.703 84.6521 49.1469 84.4897C48.7141 84.364 48.4344 84.2521 48.3081 84.154C48.1532 84.0345 48.0758 83.8444 48.0758 83.5839C48.0758 83.3387 48.1659 83.1287 48.346 82.954C48.5261 82.7793 48.7441 82.692 49 82.692C49.2559 82.692 49.4739 82.7793 49.654 82.954C49.8341 83.1287 49.9242 83.3387 49.9242 83.5839V84.108H51V83.5839C51 83.1456 50.8626 82.7533 50.5877 82.4069C50.3128 82.0667 49.9637 81.8383 49.5403 81.7218V81Z" fill="#44E0B7"/>
<rect x="58" y="48" width="10" height="10" rx="1" stroke="#320170" stroke-width="2"/>
<rect x="58" y="64" width="10" height="10" rx="1" stroke="#320170" stroke-width="2"/>
<rect x="58" y="80" width="10" height="10" rx="1" stroke="#320170" stroke-width="2"/>
<rect x="72" y="48" width="10" height="10" rx="1" stroke="#320170" stroke-width="2"/>
<rect x="72" y="64" width="10" height="10" rx="1" stroke="#44E0B7" stroke-width="2"/>
<rect x="72" y="80" width="10" height="10" rx="1" stroke="#320170" stroke-width="2"/>
<rect x="86" y="48" width="10" height="10" rx="1" stroke="#320170" stroke-width="2"/>
<rect x="86" y="64" width="10" height="10" rx="1" stroke="#320170" stroke-width="2"/>
<rect x="86" y="80" width="10" height="10" rx="1" stroke="#320170" stroke-width="2"/>
<rect x="100" y="48" width="10" height="10" rx="1" stroke="#320170" stroke-width="2"/>
<rect x="100" y="64" width="10" height="10" rx="1" stroke="#320170" stroke-width="2"/>
<rect x="100" y="80" width="10" height="10" rx="1" stroke="#320170" stroke-width="2"/>
<path d="M77.5403 65H76.4645V65.7218C76.0379 65.8383 75.6888 66.0667 75.4171 66.4069C75.139 66.7533 75 67.1456 75 67.5839C75 68.1847 75.2148 68.6475 75.6445 68.9724C75.891 69.1563 76.2891 69.328 76.8389 69.4874C77.278 69.6161 77.5624 69.731 77.6919 69.8322C77.8468 69.9517 77.9242 70.1448 77.9242 70.4115C77.9242 70.6567 77.8341 70.8667 77.654 71.0414C77.4739 71.2161 77.2559 71.3034 77 71.3034C76.7441 71.3034 76.5261 71.2161 76.346 71.0414C76.1659 70.8667 76.0758 70.6567 76.0758 70.4115V69.892H75V70.4115C75 70.8498 75.139 71.2437 75.4171 71.5931C75.6888 71.9333 76.0379 72.1617 76.4645 72.2782V73H77.5403V72.2782C77.9637 72.1617 78.3128 71.9333 78.5877 71.5931C78.8626 71.2437 79 70.8498 79 70.4115C79 69.8077 78.7836 69.3418 78.3507 69.0138C78.1043 68.8268 77.703 68.6521 77.1469 68.4897C76.7141 68.364 76.4344 68.2521 76.3081 68.154C76.1532 68.0345 76.0758 67.8444 76.0758 67.5839C76.0758 67.3387 76.1659 67.1287 76.346 66.954C76.5261 66.7793 76.7441 66.692 77 66.692C77.2559 66.692 77.4739 66.7793 77.654 66.954C77.8341 67.1287 77.9242 67.3387 77.9242 67.5839V68.108H79V67.5839C79 67.1456 78.8626 66.7533 78.5877 66.4069C78.3128 66.0667 77.9637 65.8383 77.5403 65.7218V65Z" fill="#44E0B7"/>
<path d="M35.5403 49H34.4645V49.7218C34.0379 49.8383 33.6888 50.0667 33.4171 50.4069C33.139 50.7533 33 51.1456 33 51.5839C33 52.1847 33.2148 52.6475 33.6445 52.9724C33.891 53.1563 34.2891 53.328 34.8389 53.4874C35.278 53.6161 35.5624 53.731 35.6919 53.8322C35.8468 53.9517 35.9242 54.1448 35.9242 54.4115C35.9242 54.6567 35.8341 54.8667 35.654 55.0414C35.4739 55.2161 35.2559 55.3034 35 55.3034C34.7441 55.3034 34.5261 55.2161 34.346 55.0414C34.1659 54.8667 34.0758 54.6567 34.0758 54.4115V53.892H33V54.4115C33 54.8498 33.139 55.2437 33.4171 55.5931C33.6888 55.9333 34.0379 56.1617 34.4645 56.2782V57H35.5403V56.2782C35.9637 56.1617 36.3128 55.9333 36.5877 55.5931C36.8626 55.2437 37 54.8498 37 54.4115C37 53.8077 36.7836 53.3418 36.3507 53.0138C36.1043 52.8268 35.703 52.6521 35.1469 52.4897C34.7141 52.364 34.4344 52.2521 34.3081 52.154C34.1532 52.0345 34.0758 51.8444 34.0758 51.5839C34.0758 51.3387 34.1659 51.1287 34.346 50.954C34.5261 50.7793 34.7441 50.692 35 50.692C35.2559 50.692 35.4739 50.7793 35.654 50.954C35.8341 51.1287 35.9242 51.3387 35.9242 51.5839V52.108H37V51.5839C37 51.1456 36.8626 50.7533 36.5877 50.4069C36.3128 50.0667 35.9637 49.8383 35.5403 49.7218V49Z" fill="#44E0B7"/>
</g>
<defs>
<clipPath id="clip0">
<rect width="124.963" height="114" fill="white" transform="translate(0.518494)"/>
</clipPath>
</defs>
</svg>
