<svg width="714" height="492" viewBox="0 0 714 492" fill="none" xmlns="http://www.w3.org/2000/svg">
<path d="M78.4835 93.9014H233.45V402.247H78.4835L78.4835 93.9014Z" fill="#F4F4F4"/>
<circle cx="155.97" cy="190.064" r="56.7543" fill="black"/>
<circle cx="155.97" cy="185.746" r="56.7543" fill="white"/>
<path fill-rule="evenodd" clip-rule="evenodd" d="M78.4834 93.9023H233.45V402.248H78.4834L78.4834 93.9023Z" stroke="black" stroke-width="0.714"/>
<circle cx="155.97" cy="185.747" r="56.7543" stroke="black" stroke-width="0.714"/>
<path d="M124.742 273.163H187.199" stroke="black" stroke-width="0.714"/>
<path d="M124.742 285.777H187.199" stroke="black" stroke-width="0.714"/>
<path d="M124.742 298.4H187.199" stroke="black" stroke-width="0.714"/>
<path d="M132.439 311.018H179.495" stroke="black" stroke-width="0.714"/>
<path d="M123.287 331.261L124.511 333.745L127.247 334.144L125.267 336.075L125.736 338.804L123.287 337.516L120.83 338.804L121.299 336.075L119.319 334.144L122.062 333.745L123.287 331.261Z" fill="black"/>
<path d="M139.625 331.261L140.849 333.745L143.592 334.144L141.605 336.075L142.074 338.804L139.625 337.516L137.176 338.804L137.645 336.075L135.665 334.144L138.4 333.745L139.625 331.261Z" fill="black"/>
<path d="M155.97 331.263L157.195 333.747L159.931 334.146L157.951 336.077L158.419 338.806L155.97 337.518L153.521 338.806L153.99 336.077L152.003 334.146L154.746 333.747L155.97 331.263Z" fill="#CCCCCC"/>
<path d="M172.316 331.263L173.54 333.747L176.276 334.146L174.296 336.077L174.765 338.806L172.316 337.519L169.867 338.806L170.329 336.077L168.348 334.146L171.091 333.747L172.316 331.263Z" fill="#CCCCCC"/>
<path d="M188.654 331.263L189.879 333.747L192.622 334.146L190.642 336.077L191.103 338.806L188.654 337.519L186.205 338.806L186.674 336.077L184.694 334.146L187.43 333.747L188.654 331.263Z" fill="#CCCCCC"/>
<path d="M143.312 172.802C143.508 172.662 143.725 172.865 143.823 173.005C143.877 173.086 143.922 173.173 143.956 173.264C144.064 173.509 144.135 173.768 144.166 174.034C144.166 174.139 144.348 174.146 144.341 174.034C144.292 173.607 143.921 172.165 143.222 172.634C143.131 172.697 143.222 172.851 143.312 172.788V172.802Z" fill="black"/>
<path d="M143.746 173.369L144.026 173.453C144.089 173.544 144.243 173.453 144.173 173.362C144.103 173.271 143.809 173.026 143.62 173.243C143.55 173.327 143.676 173.453 143.746 173.369Z" fill="black"/>
<path d="M168.719 172.648C168.02 172.165 167.649 173.607 167.6 174.047C167.6 174.159 167.761 174.152 167.775 174.047C167.81 173.754 168.111 172.452 168.628 172.816C168.719 172.879 168.81 172.725 168.719 172.662V172.648Z" fill="black"/>
<path d="M168.314 173.229C168.125 173.012 167.894 173.152 167.761 173.348C167.628 173.544 167.852 173.53 167.915 173.439L168.195 173.355C168.265 173.439 168.39 173.313 168.314 173.229Z" fill="black"/>
<path d="M150.583 172.375C150.359 172.514 150.213 172.749 150.187 173.01C150.161 173.272 150.258 173.531 150.45 173.711C150.616 173.877 150.885 173.877 151.051 173.711C151.261 173.459 151.1 173.159 151.009 172.893C150.862 172.473 150.184 172.655 150.31 173.082C150.367 173.225 150.414 173.372 150.45 173.522L150.485 173.257L150.443 173.32L150.751 173.152C150.883 173.271 150.925 173.285 150.876 173.152C150.858 173.125 150.852 173.092 150.858 173.06C150.865 173.029 150.884 173.001 150.911 172.984C151.289 172.739 150.911 172.137 150.555 172.375H150.583Z" fill="black"/>
<path d="M161.155 172.375C160.932 172.514 160.786 172.749 160.76 173.011C160.733 173.272 160.831 173.531 161.022 173.712C161.101 173.791 161.208 173.835 161.32 173.835C161.431 173.835 161.538 173.791 161.617 173.712C161.834 173.46 161.673 173.159 161.575 172.893C161.428 172.473 160.757 172.655 160.876 173.082C160.933 173.225 160.979 173.373 161.015 173.523L161.078 173.229L161.043 173.292L161.344 173.124C161.477 173.243 161.526 173.257 161.47 173.124C161.436 173.067 161.451 172.994 161.505 172.956C161.883 172.711 161.505 172.109 161.155 172.347V172.375Z" fill="black"/>
<path d="M155.544 172.809C155.628 174.272 155.67 175.741 155.691 177.204C155.691 177.397 155.847 177.554 156.04 177.554C156.234 177.554 156.39 177.397 156.39 177.204C156.39 175.741 156.327 174.272 156.243 172.809C156.243 172.362 155.544 172.362 155.544 172.809Z" fill="black"/>
<path d="M149.554 170.235C150.039 170.016 150.58 169.957 151.1 170.067C151.541 170.158 151.73 169.486 151.289 169.367C150.582 169.216 149.845 169.299 149.19 169.605C148.784 169.794 149.141 170.396 149.547 170.207L149.554 170.235Z" fill="black"/>
<path d="M162.674 169.632C162.019 169.324 161.281 169.241 160.575 169.394C160.134 169.485 160.316 170.157 160.757 170.094C161.279 169.984 161.823 170.043 162.31 170.262C162.716 170.451 163.073 169.849 162.66 169.66L162.674 169.632Z" fill="black"/>
<path d="M153.703 179.162C154.556 179.582 155.496 179.79 156.446 179.771C156.639 179.771 156.796 179.614 156.796 179.421C156.796 179.228 156.639 179.071 156.446 179.071C155.619 179.096 154.798 178.921 154.053 178.56C153.654 178.364 153.297 178.966 153.703 179.162Z" fill="black"/>
<path d="M145.468 162.845C145.125 165.833 144.768 168.821 144.509 171.823L145.16 171.648C144.334 170.36 142.676 169.276 141.78 171.116C140.814 173.11 141.899 175.314 143.62 176.406C144.25 176.805 144.257 176.609 144.432 177.392C144.524 178.102 144.571 178.817 144.572 179.533C144.628 180.519 144.781 181.496 145.027 182.451C145.549 184.215 146.614 185.77 148.071 186.895C152.203 190.197 157.958 190.566 162.478 187.818C164.208 186.87 165.596 185.401 166.445 183.62C167.376 181.584 167.082 179.498 167.488 177.364C167.684 176.308 168.887 176.154 169.587 175.265C170.324 174.307 170.62 173.081 170.399 171.893C169.923 169.416 167.887 169.835 166.753 171.606L167.411 171.781C167.18 168.779 166.795 165.791 166.452 162.803C166.396 162.355 165.697 162.355 165.753 162.803C166.095 165.791 166.452 168.779 166.711 171.781C166.71 171.939 166.814 172.078 166.967 172.121C167.119 172.164 167.281 172.099 167.362 171.962C168.852 169.632 170.119 171.767 169.664 173.551C169.322 174.8 168.337 175.77 167.082 176.091C166.931 176.134 166.826 176.27 166.823 176.427C166.725 179.142 166.76 182.143 165.158 184.473C163.255 187.272 159.245 189.043 155.949 189.043C152.654 189.043 148.777 187.293 146.853 184.62C145.153 182.276 145.188 179.198 145.083 176.427C145.078 176.273 144.977 176.138 144.831 176.091C143.575 175.772 142.588 174.801 142.249 173.551C141.794 171.767 143.061 169.632 144.551 171.962C144.632 172.099 144.794 172.164 144.946 172.121C145.098 172.078 145.203 171.939 145.202 171.781C145.433 168.779 145.817 165.791 146.16 162.803C146.216 162.355 145.517 162.355 145.461 162.803L145.468 162.845Z" fill="black"/>
<path d="M147.686 186.524L147.532 191.051C147.583 192.47 147.51 193.891 147.315 195.298C146.734 197.95 142.823 199.349 140.535 200.273C136.182 202.036 131.571 203.072 127.24 204.835C123.706 206.284 119.697 208.138 118.759 212.189C117.612 217.185 117.738 222.769 117.829 227.863C117.829 228.311 118.528 228.311 118.528 227.863C118.48 225.064 118.528 222.265 118.696 219.466C118.85 216.842 118.815 213.806 119.739 211.315C120.663 208.824 123.371 207.389 125.687 206.27C128.003 205.208 130.393 204.314 132.838 203.597C137.127 202.246 141.549 201.022 145.433 198.636C146.776 197.796 147.791 196.977 148.085 195.347C148.581 192.548 148.33 189.385 148.428 186.517C148.428 186.069 147.728 186.069 147.728 186.517L147.686 186.524Z" fill="black"/>
<path d="M163.555 186.523C163.646 189.322 163.555 192.261 163.87 195.06C164.073 196.858 165.088 197.733 166.55 198.642C170.406 201.028 174.828 202.253 179.145 203.603C181.578 204.332 183.959 205.227 186.268 206.283C188.584 207.396 191.299 208.781 192.223 211.328C193.098 213.742 193.084 216.611 193.245 219.144C193.426 222.046 193.487 224.954 193.426 227.87C193.426 228.063 193.583 228.22 193.776 228.22C193.97 228.22 194.126 228.063 194.126 227.87C194.217 222.776 194.357 217.185 193.196 212.196C192.258 208.145 188.256 206.29 184.715 204.842C180.377 203.058 175.766 202.043 171.42 200.28C169.356 199.447 165.536 198.125 164.724 195.829C164.269 194.549 164.479 192.751 164.43 191.407L164.269 186.509C164.269 186.061 163.569 186.061 163.569 186.509L163.555 186.523Z" fill="black"/>
<path d="M149.379 187.377C149.379 187.377 156.152 193.191 164.143 193.674L163.94 187.741C163.94 187.741 164.43 186.11 162.499 187.44C160.568 188.769 157.643 189.693 155.97 189.462C154.298 189.231 149.379 187.377 149.379 187.377Z" fill="black"/>
<rect x="126.687" y="358.971" width="58.5666" height="15.8067" rx="1.6779" fill="#CCCCCC"/>
<path d="M472.146 93.9014H627.113V402.247H472.146V93.9014Z" fill="#F4F4F4"/>
<circle cx="549.633" cy="190.064" r="56.7543" fill="black"/>
<circle cx="549.633" cy="185.746" r="56.7543" fill="white"/>
<path fill-rule="evenodd" clip-rule="evenodd" d="M472.146 93.9023H627.113V402.248H472.146V93.9023Z" stroke="black" stroke-width="0.714"/>
<circle cx="549.633" cy="185.747" r="56.7543" stroke="black" stroke-width="0.714"/>
<path d="M518.404 273.163H580.861" stroke="black" stroke-width="0.714"/>
<path d="M518.404 285.777H580.861" stroke="black" stroke-width="0.714"/>
<path d="M518.404 298.4H580.861" stroke="black" stroke-width="0.714"/>
<path d="M526.108 311.018H573.164" stroke="black" stroke-width="0.714"/>
<path d="M516.949 331.261L518.173 333.745L520.909 334.144L518.929 336.075L519.398 338.804L516.949 337.516L514.5 338.804L514.962 336.075L512.982 334.144L515.724 333.745L516.949 331.261Z" fill="black"/>
<path d="M533.287 331.261L534.519 333.745L537.255 334.144L535.275 336.075L535.743 338.804L533.287 337.516L530.838 338.804L531.307 336.075L529.327 334.144L532.063 333.745L533.287 331.261Z" fill="black"/>
<path d="M549.633 331.261L550.857 333.745L553.6 334.144L551.613 336.075L552.082 338.804L549.633 337.516L547.184 338.804L547.653 336.075L545.672 334.144L548.408 333.745L549.633 331.261Z" fill="black"/>
<path d="M565.978 331.261L567.203 333.745L569.939 334.144L567.959 336.075L568.427 338.804L565.978 337.516L563.529 338.804L563.998 336.075L562.011 334.144L564.754 333.745L565.978 331.261Z" fill="#CCCCCC"/>
<path d="M582.317 331.261L583.541 333.745L586.284 334.144L584.304 336.075L584.773 338.804L582.317 337.516L579.868 338.804L580.337 336.075L578.356 334.144L581.092 333.745L582.317 331.261Z" fill="#CCCCCC"/>
<path d="M536.975 172.802C537.171 172.662 537.388 172.865 537.486 173.005C537.539 173.087 537.586 173.174 537.626 173.264C537.728 173.51 537.797 173.769 537.829 174.034C537.829 174.139 538.018 174.146 538.004 174.034C537.955 173.607 537.584 172.165 536.884 172.634C536.793 172.697 536.884 172.851 536.975 172.788V172.802Z" fill="black"/>
<path d="M537.409 173.369L537.689 173.453C537.752 173.544 537.906 173.453 537.843 173.362C537.78 173.271 537.472 173.026 537.29 173.243C537.213 173.327 537.339 173.453 537.409 173.369Z" fill="black"/>
<path d="M562.382 172.648C561.682 172.165 561.311 173.607 561.262 174.047C561.262 174.159 561.43 174.152 561.437 174.047C561.472 173.754 561.773 172.452 562.291 172.816C562.389 172.879 562.473 172.725 562.382 172.662V172.648Z" fill="black"/>
<path d="M562.018 173.229C561.829 173.012 561.591 173.152 561.465 173.348C561.339 173.544 561.549 173.53 561.612 173.439L561.892 173.355C561.962 173.439 562.088 173.313 562.018 173.229Z" fill="black"/>
<path d="M544.28 172.375C544.055 172.513 543.908 172.747 543.88 173.009C543.853 173.271 543.949 173.53 544.14 173.711C544.307 173.877 544.575 173.877 544.742 173.711C544.952 173.459 544.791 173.159 544.7 172.893C544.553 172.473 543.874 172.655 544 173.082C544.057 173.225 544.104 173.372 544.14 173.522V173.257V173.32L544.441 173.152C544.574 173.271 544.616 173.285 544.567 173.152C544.521 173.105 544.521 173.03 544.567 172.984C544.945 172.739 544.567 172.137 544.217 172.375H544.28Z" fill="black"/>
<path d="M554.818 172.375C554.594 172.514 554.448 172.749 554.422 173.01C554.396 173.272 554.493 173.531 554.685 173.711C554.764 173.79 554.871 173.835 554.982 173.835C555.094 173.835 555.201 173.79 555.28 173.711C555.497 173.459 555.336 173.159 555.28 172.893C555.133 172.473 554.454 172.655 554.58 173.082C554.64 173.224 554.687 173.371 554.72 173.522L554.755 173.257L554.72 173.32L555.021 173.152C555.161 173.271 555.203 173.285 555.154 173.152C555.105 173.019 555.154 173.04 555.154 172.984C555.539 172.739 555.154 172.137 554.804 172.375H554.818Z" fill="black"/>
<path d="M549.213 172.809C549.29 174.272 549.339 175.741 549.36 177.204C549.36 177.397 549.517 177.554 549.71 177.554C549.903 177.554 550.06 177.397 550.06 177.204C550.06 175.741 549.99 174.272 549.913 172.809C549.913 172.362 549.213 172.362 549.213 172.809Z" fill="black"/>
<path d="M543.217 170.234C543.703 170.015 544.247 169.956 544.77 170.066C545.204 170.157 545.393 169.485 544.952 169.366C544.245 169.213 543.507 169.297 542.853 169.604C542.44 169.793 542.797 170.395 543.203 170.206L543.217 170.234Z" fill="black"/>
<path d="M556.343 169.633C555.688 169.327 554.951 169.243 554.244 169.395C553.803 169.486 553.992 170.158 554.433 170.095C554.953 169.985 555.495 170.044 555.979 170.263C556.385 170.452 556.742 169.85 556.336 169.661L556.343 169.633Z" fill="black"/>
<path d="M547.366 179.162C548.218 179.582 549.159 179.79 550.109 179.771C550.302 179.771 550.459 179.614 550.459 179.421C550.459 179.228 550.302 179.071 550.109 179.071C549.284 179.096 548.465 178.92 547.723 178.56C547.317 178.364 546.96 178.966 547.366 179.162Z" fill="black"/>
<path d="M539.13 162.846C538.787 165.834 538.43 168.821 538.171 171.823L538.829 171.648C538.004 170.361 536.338 169.276 535.443 171.116C534.477 173.111 535.562 175.315 537.283 176.406C537.913 176.805 537.927 176.609 538.095 177.393C538.184 178.101 538.229 178.814 538.227 179.527C538.287 180.512 538.44 181.489 538.682 182.445C539.205 184.211 540.273 185.766 541.733 186.888C545.869 190.201 551.636 190.57 556.161 187.812C557.888 186.859 559.275 185.392 560.129 183.613C561.059 181.577 560.758 179.492 561.164 177.358C561.367 176.301 562.564 176.147 563.263 175.259C564.001 174.301 564.296 173.075 564.075 171.886C563.599 169.409 561.57 169.829 560.437 171.599L561.087 171.774C560.856 168.772 560.472 165.785 560.129 162.797C560.073 162.349 559.373 162.349 559.429 162.797C559.772 165.785 560.129 168.772 560.388 171.774C560.396 171.927 560.501 172.057 560.648 172.098C560.795 172.139 560.952 172.082 561.038 171.956C562.529 169.626 563.795 171.76 563.34 173.545C563.001 174.795 562.014 175.766 560.758 176.084C560.609 176.128 560.507 176.265 560.507 176.42C560.402 179.135 560.437 182.137 558.834 184.467C556.931 187.266 552.929 189.036 549.626 189.036C546.323 189.036 542.461 187.287 540.53 184.614C538.829 182.27 538.871 179.191 538.766 176.42C538.763 176.264 538.658 176.127 538.507 176.084C537.253 175.763 536.267 174.794 535.925 173.545C535.471 171.76 536.737 169.626 538.227 171.956C538.308 172.092 538.47 172.157 538.623 172.115C538.775 172.072 538.88 171.932 538.878 171.774C539.109 168.772 539.494 165.785 539.837 162.797C539.893 162.349 539.193 162.349 539.137 162.797L539.13 162.846Z" fill="black"/>
<path d="M542.048 187.224C541.997 188.689 541.943 190.152 541.887 191.612C541.831 192.906 542.02 194.599 541.593 195.81C540.795 198.105 536.947 199.413 534.897 200.225C530.489 201.96 525.8 202.94 521.413 204.647C517.957 205.984 513.674 207.775 512.548 211.645C511.848 214.017 511.848 216.676 511.666 219.125C511.484 222.026 511.424 224.935 511.484 227.85C511.484 228.043 511.641 228.2 511.834 228.2C512.027 228.2 512.184 228.043 512.184 227.85C512.128 224.939 512.184 222.028 512.366 219.125C512.534 216.473 512.457 213.31 513.59 210.861C514.724 208.412 517.39 207.173 519.664 206.131C522.005 205.111 524.413 204.253 526.871 203.563C531.104 202.282 535.478 201.135 539.326 198.882C540.809 198.014 542.125 197.139 542.405 195.341C542.839 192.731 542.657 189.855 542.748 187.21C542.748 186.763 542.048 186.763 542.048 187.21V187.224Z" fill="black"/>
<path d="M556.518 187.223C556.609 189.861 556.399 192.758 556.861 195.354C557.169 197.068 558.26 197.901 559.716 198.762C563.613 201.099 568.077 202.26 572.395 203.576C574.762 204.248 577.085 205.069 579.35 206.032C581.526 207.004 584.248 208.271 585.473 210.419C586.872 212.889 586.732 216.388 586.872 219.137C587.061 222.041 587.11 224.952 587.061 227.863C587.061 228.311 587.761 228.311 587.761 227.863C587.81 224.952 587.761 222.041 587.572 219.137C587.526 216.713 587.254 214.298 586.76 211.923C585.724 207.879 581.393 206.039 577.832 204.66C573.493 202.988 568.931 202.015 564.6 200.336C562.501 199.524 558.463 198.174 557.645 195.823C557.204 194.563 557.407 192.933 557.358 191.624C557.302 190.162 557.239 188.7 557.19 187.237C557.19 186.789 556.49 186.789 556.49 187.237L556.518 187.223Z" fill="black"/>
<path d="M543.042 187.377C543.042 187.377 549.815 193.192 557.169 193.675L556.973 187.258C556.973 187.258 558.092 186.111 556.161 187.44C554.23 188.77 551.305 189.693 549.633 189.463C547.961 189.232 543.042 187.377 543.042 187.377H543.042Z" fill="black"/>
<path d="M536.02 73.8028C543.54 66.2827 555.733 66.2827 563.253 73.8028C570.773 81.3228 570.773 93.5152 563.253 101.035C555.733 108.555 543.54 108.555 536.02 101.035C528.5 93.5152 528.5 81.3228 536.02 73.8028Z" fill="#9F87DF"/>
<rect x="520.35" y="358.971" width="58.5666" height="15.8067" rx="1.6779" fill="#CCCCCC"/>
<path d="M258.598 51.8618H446.403V425.533H258.598V51.8618Z" fill="#E9E9E9"/>
<circle cx="352.494" cy="168.401" r="68.7755" fill="black"/>
<circle cx="352.494" cy="163.174" r="68.7755" fill="white"/>
<path fill-rule="evenodd" clip-rule="evenodd" d="M258.598 51.8618H446.403V425.533H258.598V51.8618Z" stroke="black" stroke-width="0.714"/>
<circle cx="352.494" cy="163.173" r="68.7755" stroke="black" stroke-width="0.714"/>
<path d="M314.646 269.11H390.342" stroke="black" stroke-width="0.714"/>
<path d="M314.646 284.401H390.342" stroke="black" stroke-width="0.714"/>
<path d="M314.646 299.696H390.342" stroke="black" stroke-width="0.714"/>
<path d="M323.98 314.985H381.007" stroke="black" stroke-width="0.714"/>
<path d="M312.883 339.518L314.366 342.526L317.69 343.009L315.283 345.353L315.849 348.656L312.883 347.096L309.916 348.656L310.483 345.353L308.083 343.009L311.399 342.526L312.883 339.518Z" fill="black"/>
<path d="M332.692 339.518L334.175 342.526L337.492 343.009L335.092 345.353L335.659 348.656L332.692 347.096L329.725 348.656L330.292 345.353L327.885 343.009L331.208 342.526L332.692 339.518Z" fill="black"/>
<path d="M352.494 339.518L353.984 342.526L357.301 343.009L354.901 345.353L355.467 348.656L352.494 347.096L349.527 348.656L350.094 345.353L347.694 343.009L351.01 342.526L352.494 339.518Z" fill="black"/>
<path d="M372.303 339.518L373.786 342.526L377.103 343.009L374.703 345.353L375.27 348.656L372.303 347.096L369.336 348.656L369.903 345.353L367.496 343.009L370.819 342.526L372.303 339.518Z" fill="black"/>
<path d="M392.105 339.518L393.595 342.526L396.912 343.009L394.512 345.353L395.079 348.656L392.105 347.096L389.138 348.656L389.705 345.353L387.305 343.009L390.621 342.526L392.105 339.518Z" fill="black"/>
<path d="M337.142 147.466C337.786 146.997 338.164 148.606 338.206 148.977C338.206 149.089 338.394 149.089 338.38 148.977C338.331 148.508 337.877 146.717 337.058 147.312C336.967 147.382 337.058 147.535 337.142 147.466Z" fill="black"/>
<path d="M337.688 148.137L338.038 148.263C338.1 148.354 338.254 148.263 338.191 148.172C338.031 147.941 337.737 147.773 337.534 148.053C337.464 148.144 337.618 148.228 337.688 148.137Z" fill="black"/>
<path d="M367.936 147.339C367.118 146.745 366.663 148.536 366.614 149.005C366.614 149.117 366.775 149.117 366.789 149.005C366.789 148.627 367.209 147.032 367.846 147.493C367.936 147.563 368.027 147.409 367.936 147.339Z" fill="black"/>
<path d="M367.496 148.039C367.286 147.759 366.999 147.927 366.838 148.158C366.775 148.256 366.929 148.34 366.992 148.249L367.342 148.123C367.412 148.214 367.559 148.123 367.496 148.039Z" fill="black"/>
<path d="M346.042 147.031C345.784 147.189 345.617 147.462 345.594 147.763C345.57 148.065 345.693 148.36 345.923 148.557C346.019 148.63 346.14 148.661 346.259 148.642C346.378 148.624 346.484 148.557 346.553 148.459C346.735 148.186 346.553 147.857 346.448 147.584C346.301 147.157 345.623 147.339 345.748 147.766C345.821 147.919 345.87 148.081 345.895 148.249L346 147.997L345.958 148.046L346.21 147.948C346.343 148.06 346.364 148.032 346.266 147.871C346.232 147.78 346.275 147.678 346.364 147.64C346.532 147.543 346.59 147.329 346.494 147.161C346.397 146.992 346.182 146.935 346.014 147.031H346.042Z" fill="black"/>
<path d="M358.812 147.032C358.555 147.191 358.389 147.464 358.367 147.766C358.345 148.068 358.469 148.362 358.7 148.557C358.795 148.63 358.915 148.661 359.033 148.642C359.151 148.624 359.256 148.558 359.323 148.459C359.505 148.186 359.323 147.858 359.225 147.585C359.071 147.158 358.399 147.34 358.525 147.767C358.603 147.918 358.655 148.081 358.679 148.249L358.784 147.998L358.742 148.046L358.987 147.949C359.127 148.06 359.148 148.032 359.05 147.872C359.03 147.828 359.029 147.778 359.047 147.734C359.066 147.69 359.103 147.656 359.148 147.641C359.316 147.542 359.373 147.326 359.274 147.158C359.175 146.99 358.959 146.933 358.791 147.032H358.812Z" fill="black"/>
<path d="M352.06 147.493C352.149 149.27 352.207 151.045 352.235 152.818C352.235 153.011 352.392 153.168 352.585 153.168C352.778 153.168 352.935 153.011 352.935 152.818C352.907 151.05 352.848 149.275 352.76 147.493C352.76 147.045 352.06 147.045 352.06 147.493Z" fill="black"/>
<path d="M344.685 144.31C345.29 144.035 345.966 143.962 346.616 144.1C347.057 144.191 347.246 143.519 346.805 143.4C345.971 143.222 345.101 143.32 344.328 143.68C343.922 143.869 344.279 144.471 344.685 144.282V144.31Z" fill="black"/>
<path d="M360.589 143.708C359.816 143.348 358.947 143.25 358.112 143.428C357.672 143.519 357.861 144.191 358.294 144.128C358.946 143.989 359.625 144.063 360.233 144.338C360.638 144.527 360.995 143.925 360.589 143.736V143.708Z" fill="black"/>
<path d="M349.786 155.135C350.812 155.623 351.939 155.863 353.075 155.834C353.522 155.834 353.522 155.135 353.075 155.135C352.061 155.157 351.056 154.939 350.143 154.498C349.737 154.302 349.38 154.911 349.786 155.107V155.135Z" fill="black"/>
<path d="M339.843 135.444C339.423 139.069 338.961 142.693 338.681 146.332L339.332 146.157C338.317 144.484 336.183 143.358 335.26 145.744C334.833 146.937 334.875 148.248 335.379 149.41C335.619 149.968 335.958 150.478 336.379 150.915C336.911 151.461 337.688 151.615 338.212 152.104C338.975 152.804 338.688 154.98 338.793 156.03C338.87 157.232 339.081 158.422 339.423 159.577C340.097 161.545 341.333 163.272 342.978 164.545C345.336 166.358 348.126 167.523 351.073 167.925C354.271 168.317 357.567 167.225 360.331 165.672C362.323 164.588 363.952 162.94 365.012 160.935C366.096 158.745 366.222 156.275 366.362 153.882C366.418 152.958 366.236 152.482 367.062 151.999C367.799 151.64 368.456 151.136 368.993 150.516C369.781 149.508 370.151 148.235 370.029 146.961C369.938 145.926 369.462 144.394 368.209 144.296C367.097 144.205 366.201 145.324 365.69 146.157L366.341 146.332C366.068 142.693 365.599 139.069 365.18 135.444C365.131 135.003 364.431 134.996 364.48 135.444C364.9 139.069 365.369 142.693 365.641 146.332C365.649 146.487 365.756 146.62 365.906 146.66C366.057 146.7 366.216 146.638 366.299 146.507C366.81 145.667 367.895 144.275 369 145.723C369.469 146.332 369.392 147.479 369.266 148.158C368.955 149.839 367.701 151.189 366.047 151.622C365.895 151.663 365.789 151.8 365.788 151.957C365.662 155.281 365.704 158.955 363.689 161.803C361.345 165.154 356.51 167.309 352.494 167.316C348.477 167.323 343.642 165.147 341.298 161.803C339.311 158.962 339.353 155.281 339.199 151.957C339.198 151.8 339.092 151.663 338.94 151.622C337.277 151.205 336.016 149.847 335.721 148.158C335.63 147.563 335.498 146.192 335.98 145.723L337.471 145.191C337.989 145.51 338.41 145.965 338.688 146.507C338.768 146.642 338.928 146.707 339.08 146.666C339.232 146.625 339.337 146.489 339.339 146.332C339.619 142.693 340.081 139.069 340.501 135.444C340.557 134.996 339.857 135.003 339.801 135.444H339.843Z" fill="black"/>
<path d="M343.23 164.832C343.174 166.462 343.111 168.086 343.048 169.73C342.985 171.375 343.153 173.355 342.775 175.027C342.11 178.022 337.345 179.701 334.791 180.73C329.564 182.829 324.022 184.025 318.76 186.02C314.457 187.643 308.964 189.847 307.607 194.682C306.823 197.481 306.76 200.532 306.578 203.401C306.34 207.004 306.27 210.622 306.333 214.239C306.333 214.433 306.49 214.589 306.683 214.589C306.876 214.589 307.033 214.433 307.033 214.239C306.97 210.622 307.033 207.011 307.278 203.401C307.481 200.21 307.383 196.403 308.803 193.437C310.133 190.708 313.338 189.154 315.961 187.937C318.66 186.739 321.438 185.727 324.274 184.907C329.445 183.319 334.77 181.94 339.521 179.239C341.515 178.106 343.244 176.979 343.544 174.565C343.95 171.389 343.817 168.044 343.929 164.846C343.929 164.398 343.23 164.398 343.23 164.846V164.832Z" fill="black"/>
<path d="M361.058 164.833C361.17 168.03 361.058 171.375 361.443 174.552C361.751 176.973 363.479 178.092 365.467 179.226C370.204 181.927 375.55 183.305 380.72 184.894C383.557 185.714 386.334 186.727 389.033 187.924C391.657 189.141 394.862 190.722 396.184 193.423C397.584 196.362 397.507 200.19 397.717 203.387C397.955 206.991 398.025 210.608 397.955 214.226C397.955 214.419 398.111 214.576 398.304 214.576C398.498 214.576 398.654 214.419 398.654 214.226C398.724 210.608 398.654 206.998 398.416 203.387C398.227 200.518 398.172 197.447 397.388 194.669C395.988 189.834 390.531 187.63 386.234 186.006C380.965 184.012 375.431 182.823 370.204 180.716C367.636 179.681 362.892 178.036 362.213 175.014C361.842 173.341 362.01 171.424 361.94 169.717C361.87 168.009 361.814 166.463 361.758 164.819C361.758 164.371 361.058 164.371 361.058 164.819V164.833Z" fill="black"/>
<path d="M343.831 165.148C343.831 165.148 352.046 172.201 361.73 172.747L361.485 165.532C361.485 165.532 362.073 163.552 359.736 165.162C357.399 166.771 353.844 167.897 351.822 167.611C349.8 167.324 343.831 165.148 343.831 165.148H343.831Z" fill="black"/>
<rect x="317.011" y="373.097" width="70.9726" height="19.1513" rx="2.0349" fill="#CCCCCC"/>
<path d="M343.663 140.986C348.099 139.95 354.803 137.69 357.35 133.184C357.35 133.184 356.65 139.845 354.845 141.763C357.742 140.737 359.745 138.078 359.932 135.01C359.932 135.01 363.171 144.149 365.956 146.304L368.055 144.603C368.055 144.603 371.302 129.762 361.387 128.398C361.387 128.398 353.69 121.1 342.817 126.999C330.746 133.583 336.89 144.575 336.89 144.575C336.89 144.575 338.919 145.485 338.772 146.08L339.395 146.038C339.5 143.578 341.255 141.5 343.663 140.986Z" fill="black"/>
<path d="M337.1 132.093C337.1 132.093 332.797 137.362 330.145 152.182C327.549 166.701 323.847 169.675 322.448 174.335C321.048 178.995 322.063 183.186 326.534 183.83C326.534 183.83 322.448 190.177 330.655 193.136C330.655 193.136 340.347 197.013 342.285 185.957C343.443 179.731 343.871 173.39 343.558 167.065C343.558 167.065 344.104 164.672 342.509 163.643C340.913 162.615 339.759 160.215 339.486 158.577C339.213 156.94 338.905 152.846 338.905 152.846C338.905 152.846 339.115 152.189 338.275 151.762C337.436 151.335 334.777 149.383 335.33 147.333C335.882 145.282 336.771 144.492 337.59 144.037C338.408 143.582 338.289 141.133 338.289 141.133" fill="black"/>
<path d="M364.424 129.413C364.424 129.413 370.288 132.093 371.197 143.275C372.023 153.344 375.172 166.806 377.103 171.963C379.034 177.12 382.757 188.483 373.457 190.814C361.408 193.822 360.653 175.916 360.408 170.445C360.163 164.973 361.408 164.847 361.408 164.847C361.938 164.502 362.437 164.111 362.899 163.678L364.417 161.698C364.417 161.698 366.082 157.346 365.893 155.534C365.796 154.336 365.867 153.13 366.103 151.951C366.103 151.951 368.517 151.706 369.014 149.852C369.511 147.998 369.882 147.053 369.427 145.94C368.972 144.828 366.369 144.282 366.166 145.318C365.963 146.353 366.313 140.679 366.313 140.679" fill="black"/>
<path d="M538.521 171.829C538.521 171.829 538.241 165.616 541.271 164.419C542.615 163.881 547.128 163.482 550.053 163.678C551.168 163.741 552.155 162.959 552.348 161.858L552.712 159.808L553.327 164.209C553.327 164.209 557.526 164.552 558.925 166.19C560.325 167.827 560.661 171.088 560.661 171.088L562.473 170.43C562.473 170.43 564.719 162.6 560.556 158.15C555.105 152.328 544.462 151.153 538.64 157.142C536.583 159.241 535.701 162.257 535.499 165.133C535.436 166.008 535.114 170.129 536.345 170.542C537.109 170.902 537.838 171.333 538.521 171.829Z" fill="black"/>
<path d="M560.576 158.143C560.576 158.143 558.183 147.773 565.705 145.492C573.227 143.211 579.84 152.49 576.425 162.544C575.715 164.412 575.548 166.442 575.942 168.401C576.411 170.332 577.797 171.774 578.881 173.369C580.616 175.815 581.28 178.862 580.721 181.808C580.351 183.809 579.322 185.796 577.426 186.51C576.774 186.736 576.327 187.339 576.299 188.028V188.126C575.984 191.891 571.401 193.283 568.525 191.401C564.39 188.693 564.061 182.836 564.607 178.428C564.845 176.483 565.307 174.573 565.544 172.62C565.792 170.194 565.85 167.751 565.719 165.315C565.621 163.307 565.139 157.786 561.843 159.935" fill="black"/>
<path d="M144.859 171.83C144.859 171.83 145.195 161.747 149.673 162.425C154.151 163.104 160.924 162.6 163.052 160.774C163.052 160.774 164.08 163.398 166.228 163.755L167.082 171.83C167.082 171.83 167.551 170.857 168.188 170.647L168.824 170.43C168.824 170.43 171.56 158.346 164.871 157.282C164.871 157.282 157.503 149.396 150.289 153.196C143.075 156.995 142.354 161.914 142.459 164.65C142.557 166.588 142.774 168.519 143.11 170.43L144.859 171.83Z" fill="black"/>
<path d="M140.877 201.308C145.685 204.751 151.373 207.298 157.391 207.256C162.739 207.321 167.85 205.049 171.385 201.035C171.672 200.699 171.182 200.195 170.888 200.545C167.36 204.544 162.224 206.75 156.894 206.556C151.177 206.43 145.838 203.981 141.262 200.699C140.898 200.44 140.563 201.042 140.912 201.308H140.877Z" fill="black"/>
<path d="M319.418 186.467C320.167 191.736 323.833 195.977 327.78 199.314C331.916 202.798 336.749 205.355 341.956 206.815C353.595 209.971 366.026 208.073 376.193 201.588C378.583 200.06 380.68 198.117 382.386 195.851C384.366 193.129 385.493 189.987 386.584 186.824C386.724 186.397 386.052 186.216 385.884 186.635C384.03 192.17 381.616 196.872 376.788 200.35C372.253 203.454 367.131 205.597 361.737 206.647C350.94 208.928 339.395 206.962 330.397 200.427C325.688 197.012 320.971 192.226 320.118 186.251C320.055 185.803 319.383 185.992 319.418 186.432V186.467Z" fill="black"/>
<path d="M537.395 200.126C540.544 205.406 544.907 209.858 550.123 213.113C550.259 213.193 550.432 213.17 550.542 213.057C554.678 208.935 559.541 204.954 561.738 199.363C561.899 198.943 561.227 198.761 561.038 199.174C559.839 201.951 558.13 204.479 556 206.626C555.007 207.711 553.957 208.725 552.901 209.782L551.774 210.874C551.487 211.153 550.752 212.161 550.375 212.238C549.5 212.427 547.653 210.629 546.981 210.09C545.813 209.162 544.706 208.162 543.664 207.095C541.517 204.868 539.626 202.409 538.024 199.762C537.787 199.384 537.185 199.762 537.416 200.119L537.395 200.126Z" fill="black"/>
<path d="M142.774 240.289C141.332 231.095 147.161 221.173 156.257 218.598C161.701 217.051 166.753 219.703 169.552 224.419C172.54 229.38 172.393 235.489 171.987 241.066C171.987 241.178 172.148 241.178 172.162 241.066C172.596 235.132 172.694 228.569 169.153 223.468C166.354 219.409 161.757 217.079 156.817 218.269C147.287 220.564 141.115 230.864 142.592 240.359C142.592 240.471 142.781 240.422 142.767 240.31L142.774 240.289Z" fill="black"/>
<path d="M146.482 241.711C146.228 237.691 147.037 233.675 148.826 230.067C149.672 228.272 150.831 226.642 152.248 225.253C154.151 223.504 156.481 223.112 158.979 222.916C168.076 222.216 168.642 235.588 168.488 241.92C168.488 242.032 168.656 242.032 168.663 241.92C168.817 235.518 168.216 222.027 158.979 222.741C156.88 222.902 154.781 223.154 152.99 224.42C151.504 225.578 150.274 227.031 149.379 228.689C147.087 232.629 146.018 237.161 146.307 241.711C146.307 241.822 146.489 241.822 146.482 241.711Z" fill="black"/>
<path d="M150.331 242.838C149.833 239.845 150.235 236.772 151.485 234.007C152.584 231.572 154.424 228.738 157.132 227.962C164.241 225.919 165.109 238.877 164.409 243.09C164.409 243.202 164.556 243.251 164.577 243.139C165.155 239.268 164.717 235.313 163.304 231.663C162.415 229.424 160.47 227.332 157.86 227.626C154.9 227.948 152.787 230.964 151.562 233.399C150.108 236.335 149.618 239.656 150.163 242.887C150.163 242.999 150.352 242.95 150.331 242.838Z" fill="black"/>
<path d="M153.416 242.606C153.493 240.409 154.116 234.273 157.321 234.21C160.889 234.147 160.952 240.808 160.708 243.054C160.708 243.166 160.875 243.166 160.882 243.054C161.141 240.703 161.029 234 157.321 234.035C153.941 234.07 153.318 240.332 153.242 242.606C153.242 242.718 153.409 242.718 153.416 242.606Z" fill="black"/>
<path d="M156.362 240.402C156.636 240.122 156.923 239.855 157.223 239.604C157.377 239.492 157.384 239.38 157.573 239.471C157.762 239.562 157.692 240.122 157.713 240.213C157.862 241.156 157.949 242.107 157.972 243.061C157.983 243.1 158.018 243.127 158.059 243.127C158.1 243.127 158.135 243.1 158.147 243.061C158.113 241.738 157.956 240.422 157.678 239.128C157.669 239.099 157.645 239.076 157.616 239.067C157.586 239.059 157.554 239.066 157.531 239.086L156.236 240.276C156.152 240.353 156.278 240.479 156.362 240.402Z" fill="black"/>
<path d="M307.432 212.106C309.734 211.322 311.28 214.513 311.812 216.192C312.292 217.783 312.35 219.471 311.98 221.09C311.968 221.137 311.997 221.184 312.043 221.195C312.089 221.207 312.136 221.179 312.148 221.132C312.661 218.938 312.383 216.634 311.364 214.625C310.623 213.176 309.265 211.28 307.383 211.91C307.278 211.945 307.32 212.113 307.432 212.078V212.106Z" fill="black"/>
<path d="M312.162 189.932C311.35 195.243 319.341 197.272 323.05 195.404C323.155 195.355 323.05 195.201 322.966 195.25C320.977 196.228 318.661 196.295 316.619 195.432C314.429 194.564 311.924 192.633 312.33 189.974C312.33 189.869 312.176 189.82 312.162 189.932Z" fill="black"/>
<path d="M322.567 220.208C320.811 217.836 320.985 214.344 323.434 212.511C325.883 210.678 329.291 211.349 331.446 213.491C333.301 215.331 333.503 219.571 332.146 221.747C330.585 224.027 327.522 224.7 325.149 223.287C325.051 223.231 324.96 223.385 325.058 223.441C327.376 224.822 330.356 224.291 332.055 222.195C333.741 219.998 333.706 215.275 331.6 213.372C329.284 211.272 326.051 210.314 323.358 212.35C320.839 214.246 320.636 217.857 322.448 220.292C322.511 220.383 322.665 220.292 322.595 220.208H322.567Z" fill="black"/>
<path d="M341.277 231.37C340.76 229.194 340.256 226.647 342.117 224.925C343.654 223.646 345.761 223.293 347.631 224.002C351.542 225.261 353.047 228.697 352.662 232.573C352.662 232.685 352.83 232.685 352.837 232.573C353.264 228.235 351.164 224.261 346.539 223.554C344.734 223.214 342.882 223.83 341.641 225.184C340.151 226.968 340.634 229.347 341.123 231.419C341.123 231.531 341.312 231.482 341.291 231.37H341.277Z" fill="black"/>
<path d="M346.504 208.404C347.116 211.048 348.837 213.299 351.227 214.583C353.618 215.867 356.446 216.058 358.987 215.108C359.092 215.066 359.05 214.898 358.945 214.94C356.448 215.877 353.668 215.691 351.318 214.43C348.968 213.169 347.277 210.954 346.679 208.355C346.679 208.243 346.483 208.292 346.504 208.404Z" fill="black"/>
<path d="M361.569 211.414C361.802 210.74 361.865 210.018 361.751 209.314C361.751 209.202 361.562 209.244 361.583 209.356C361.688 210.033 361.625 210.725 361.401 211.372C361.366 211.477 361.534 211.526 361.569 211.421V211.414Z" fill="black"/>
<path d="M365.698 229.955C364.403 227.394 365.858 223.839 368.035 222.153C371.106 219.76 376.193 223.748 375.417 227.282C375.405 227.328 375.433 227.375 375.48 227.387C375.526 227.398 375.573 227.37 375.585 227.324C375.945 225.673 375.328 223.962 373.996 222.923C372.751 221.866 370.631 220.824 368.979 221.376C365.935 222.461 364.137 227.247 365.551 230.046C365.6 230.144 365.754 230.046 365.698 229.955Z" fill="black"/>
<path d="M381.994 202.835C379.377 203.724 377.649 206.718 378.607 209.419C379.7 212.083 382.729 213.376 385.409 212.323C388.207 211.12 390.419 206.69 389.831 203.724C389.355 201.31 385.108 200.309 383.582 202.233C383.512 202.317 383.631 202.443 383.701 202.359C384.653 201.163 386.423 201.394 387.732 201.792C389.971 202.492 389.831 204.864 389.362 206.69C388.704 209.07 387.13 211.826 384.534 212.421C382.197 212.96 379.384 211.533 378.705 209.167C378.036 206.56 379.492 203.878 382.043 203.017C382.148 202.975 382.106 202.807 381.994 202.842V202.835Z" fill="black"/>
<path d="M385.765 190.925C387.802 192.423 390.069 190.925 391.741 189.61C391.832 189.54 391.741 189.421 391.615 189.491C390.006 190.751 387.823 192.227 385.849 190.779C385.758 190.709 385.675 190.862 385.765 190.925Z" fill="black"/>
<path d="M396.513 211.56C394.599 213.09 393.383 215.328 393.141 217.767C393.141 217.879 393.301 217.879 393.315 217.767C393.559 215.376 394.755 213.185 396.632 211.686C396.723 211.616 396.632 211.49 396.513 211.56Z" fill="black"/>
<path d="M512.555 213.862C536.513 217.543 561.332 219.187 584.969 212.701C585.015 212.689 585.043 212.642 585.032 212.596C585.02 212.549 584.973 212.521 584.927 212.533C561.311 219.005 536.527 217.368 512.597 213.694C512.492 213.694 512.443 213.848 512.555 213.862Z" fill="black"/>
<path d="M514.143 224.938C520.314 227.037 526.738 227.989 533.238 228.584C539.536 229.157 545.833 229.563 552.18 229.577C564.292 229.577 576.537 228.017 587.502 222.58C587.607 222.531 587.502 222.377 587.418 222.426C576.292 227.919 563.844 229.458 551.564 229.381C545.553 229.339 539.543 228.954 533.56 228.416C526.997 227.828 520.447 226.897 514.192 224.749C514.087 224.714 514.038 224.882 514.143 224.917V224.938Z" fill="black"/>
<path d="M523.533 237.444C540.916 241.501 559.024 241.273 576.299 236.779C576.346 236.767 576.374 236.72 576.362 236.674C576.351 236.628 576.304 236.599 576.257 236.611C559.012 241.098 540.935 241.326 523.582 237.276C523.47 237.276 523.421 237.416 523.533 237.444Z" fill="black"/>
<circle cx="352.494" cy="167.009" r="137.327" stroke="black" stroke-width="5.712"/>
<path d="M352.494 304.336V409.441" stroke="black" stroke-width="5.712"/>
<path d="M348.009 409.44H356.979V475.193H348.009V409.44Z" fill="black" stroke="black" stroke-width="5.712"/>
<path d="M181.136 82.001L154.1 111.178C153.555 111.771 152.748 112.019 151.98 111.831C151.212 111.643 150.597 111.046 150.364 110.262L139.193 72.9462C138.957 72.1637 139.137 71.31 139.666 70.702C140.196 70.094 140.995 69.8225 141.768 69.9883L179.984 78.1477C180.771 78.3225 181.406 78.9252 181.645 79.724C181.884 80.5228 181.689 81.3934 181.136 82.001Z" fill="#5230A2"/>
<path d="M356.947 10.4727H377.57C381.572 10.4727 384.075 14.7569 382.067 18.1814L347.699 76.9455C345.721 80.3403 340.775 80.3699 338.737 77.0048L328.245 59.6009C327.286 57.9998 327.271 56.0134 328.215 54.3975L352.451 13.0225C353.38 11.4511 355.088 10.4727 356.947 10.4727Z" fill="#44E0B7"/>
</svg>
