<svg width="871" height="487" viewBox="0 0 871 487" fill="none" xmlns="http://www.w3.org/2000/svg">
<path d="M345.094 205.954H389.137V241.976H345.094L345.094 205.954Z" fill="#F4F4F4"/>
<path fill-rule="evenodd" clip-rule="evenodd" d="M345.094 205.954H389.137V241.976H345.094L345.094 205.954Z" stroke="black" stroke-width="0.565931"/>
<path d="M362.965 205.955H371.266V216.17H362.965V205.955Z" fill="white"/>
<path fill-rule="evenodd" clip-rule="evenodd" d="M362.965 205.955H371.266V216.17H362.965V205.955Z" stroke="black" stroke-width="0.565931"/>
<path d="M389.136 205.852H433.179V241.874H389.136L389.136 205.852Z" fill="#F4F4F4"/>
<path fill-rule="evenodd" clip-rule="evenodd" d="M389.136 205.852H433.179V241.874H389.136L389.136 205.852Z" stroke="black" stroke-width="0.565931"/>
<path d="M407.008 205.852H415.308V216.067H407.008V205.852Z" fill="white"/>
<path fill-rule="evenodd" clip-rule="evenodd" d="M407.008 205.852H415.308V216.067H407.008V205.852Z" stroke="black" stroke-width="0.565931"/>
<path d="M371.195 170.013H379.496V180.228H371.195V170.013Z" fill="white"/>
<path d="M137.799 75.6017H163.816C163.986 75.6017 164.124 75.4646 164.124 75.2955C164.124 75.1264 163.986 74.9893 163.816 74.9893H137.799C137.629 74.9893 137.491 75.1264 137.491 75.2955C137.491 75.4646 137.629 75.6017 137.799 75.6017Z" fill="black"/>
<path d="M164.586 74.8118C162.904 72.7051 161.043 70.3718 160.92 67.5608C160.821 65.2887 161.998 62.8452 164.506 62.6002C165.643 62.4292 166.781 62.9014 167.458 63.825L167.988 63.5188C165.227 59.7647 167.729 54.2224 171.685 52.4954C174.3 51.4527 177.21 51.4069 179.857 52.3668C182.573 53.327 185.015 54.926 186.974 57.0272C189.231 59.4852 191.247 62.151 192.995 64.9886C193.079 65.1108 193.239 65.157 193.376 65.0991C193.514 65.0412 193.591 64.8952 193.562 64.7498C193.405 63.6063 193.875 62.4668 194.794 61.7612C195.704 60.9793 196.919 60.6463 198.103 60.8548C200.673 61.308 202.417 63.5923 203.237 65.9011C203.729 67.3978 204.088 68.9348 204.309 70.4943C204.377 70.8617 204.882 70.727 204.925 70.4146C205.073 69.049 206.669 68.4855 207.871 68.5774C209.535 68.6876 210.878 70.0533 212.073 71.0699C214.561 73.2238 217.702 74.4892 220.997 74.6648C222.837 74.7611 224.679 74.5011 226.419 73.8993C226.789 73.7707 226.629 73.1766 226.253 73.2869C222.907 74.4352 219.248 74.282 216.011 72.8582C215.238 72.5203 214.5 72.1101 213.805 71.6333C213.055 71.0909 212.335 70.5083 211.648 69.888C210.459 68.8897 209.072 67.8731 207.433 67.9466C205.973 68.014 204.475 68.8591 204.309 70.3963L204.925 70.3105C204.408 67.3587 203.81 64.1558 201.542 61.9878C200.596 61.0495 199.379 60.4285 198.06 60.2118C196.788 60.0325 195.497 60.3924 194.505 61.2039C193.363 62.0619 192.786 63.4722 193.001 64.8784L193.562 64.6457C190.234 59.5933 186.574 54.155 180.621 51.9319C177.871 50.8161 174.81 50.7183 171.994 51.6564C169.73 52.5089 167.912 54.2369 166.953 56.4454C165.905 58.8094 165.85 61.651 167.433 63.7944C167.661 64.1068 168.179 63.825 167.963 63.4882C166.675 61.4734 163.613 61.4979 161.937 63.0105C159.811 64.9213 159.989 68.2099 161.055 70.5984C161.881 72.2538 162.916 73.7974 164.137 75.1915C164.383 75.4977 164.814 75.0629 164.568 74.7567L164.586 74.8118Z" fill="black"/>
<path d="M277.539 241.561H498.096C504.725 241.559 510.875 244.989 514.328 250.612L564.181 331.812L632.885 353.216C643.503 356.527 650.538 366.538 650.011 377.584L646.892 442.439H181.111V400.856C181.11 364.611 193.806 329.496 217.019 301.541L260.014 249.767C264.33 244.569 270.758 241.559 277.539 241.561V241.561Z" fill="#E9E9E9"/>
<path d="M634.629 386.881V397.58C634.629 403.367 639.35 408.058 645.173 408.058H648.532L649.998 377.584C649.998 377.192 649.998 376.794 649.998 376.402H645.149C639.335 376.416 634.629 381.103 634.629 386.881H634.629Z" fill="#CCCCCC"/>
<path d="M634.629 386.881V397.58C634.629 403.367 639.35 408.058 645.173 408.058" stroke="black" stroke-width="0.565931"/>
<path d="M191.612 406.704V391.566C191.612 388.183 188.853 385.441 185.449 385.441H181.881C181.368 390.545 181.109 395.681 181.105 400.85V412.829H185.419C187.058 412.837 188.634 412.195 189.796 411.046C190.958 409.896 191.612 408.334 191.612 406.704Z" fill="#CCCCCC"/>
<path d="M564.169 331.812L518.05 256.693H388.468V314.291C388.467 318.937 390.323 323.394 393.628 326.68C396.934 329.966 401.417 331.812 406.093 331.812H564.169Z" fill="#F4F4F4"/>
<path d="M557.544 331.813L550.353 320.103C546.768 314.268 541.356 309.763 534.947 307.279L528.908 304.934C528.374 304.723 527.777 304.733 527.251 304.964C526.725 305.194 526.314 305.624 526.11 306.159C525.552 307.333 525.978 308.738 527.096 309.41C529.037 310.703 527.86 313.661 526.936 315.375C526.783 315.659 526.491 315.84 526.168 315.853C525.845 315.865 525.539 315.707 525.365 315.437L514.383 298.448C514.173 298.122 513.776 297.965 513.398 298.058C513.019 298.15 512.741 298.472 512.707 298.859C512.69 299.056 512.737 299.254 512.843 299.422L524.49 318.015C524.688 318.329 524.673 318.732 524.453 319.032C521.52 323.016 519.04 327.311 517.058 331.837L557.544 331.813Z" fill="#CCCCCC"/>
<path d="M514.765 302.49L524.477 317.99C524.675 318.305 524.661 318.708 524.44 319.007C521.508 322.992 519.028 327.286 517.045 331.813H557.514L550.353 320.103C546.768 314.268 541.356 309.763 534.947 307.279L528.908 304.934C528.374 304.723 527.777 304.733 527.251 304.964C526.725 305.194 526.314 305.624 526.11 306.159C525.552 307.333 525.978 308.738 527.096 309.41C529.037 310.703 527.86 313.661 526.936 315.375C526.783 315.659 526.491 315.84 526.168 315.853C525.845 315.865 525.539 315.707 525.365 315.437L514.383 298.448" stroke="black" stroke-width="0.565931"/>
<path d="M423.976 311.56C424.29 305.436 423.852 301.112 423.242 298.154C422.544 294.931 419.671 292.632 416.353 292.643H407.984C405.378 292.633 402.982 294.063 401.766 296.354C397.705 304.15 394.791 317.507 393.17 326.228C396.506 329.811 401.198 331.845 406.111 331.837H425.658C424.214 325.179 423.648 318.363 423.976 311.56Z" fill="#CCCCCC"/>
<path d="M372.15 314.291V256.693H254.264L217.019 301.541C209.293 310.842 202.676 321 197.299 331.812H354.513C359.191 331.815 363.678 329.971 366.986 326.684C370.294 323.398 372.152 318.94 372.15 314.291Z" fill="#F4F4F4"/>
<path d="M277.435 292.617H269.072C266.466 292.605 264.068 294.036 262.855 296.329C257.752 306.127 254.461 324.677 253.278 331.812H282.858C283.99 325.109 284.737 318.347 285.095 311.559C285.409 305.435 284.971 301.112 284.361 298.154C283.67 294.907 280.774 292.592 277.435 292.617Z" fill="#CCCCCC"/>
<path fill-rule="evenodd" clip-rule="evenodd" d="M423.976 311.559C424.29 305.435 423.852 301.111 423.242 298.153C422.544 294.93 419.671 292.631 416.353 292.642H407.984C405.378 292.632 402.982 294.062 401.766 296.353C397.705 304.149 394.791 317.506 393.17 326.227C396.506 329.81 401.198 331.844 406.111 331.836H425.658C424.214 325.178 423.648 318.362 423.976 311.559V311.559Z" stroke="black" stroke-width="0.565931"/>
<path fill-rule="evenodd" clip-rule="evenodd" d="M277.435 292.617H269.072C266.466 292.605 264.068 294.036 262.855 296.329C257.752 306.127 254.461 324.677 253.278 331.812H282.858C283.99 325.109 284.737 318.347 285.095 311.559C285.409 305.435 284.971 301.112 284.361 298.154C283.67 294.907 280.774 292.592 277.435 292.617V292.617Z" stroke="black" stroke-width="0.565931"/>
<path fill-rule="evenodd" clip-rule="evenodd" d="M564.169 331.812L518.05 256.693H388.468V314.291C388.466 318.937 390.322 323.394 393.628 326.68C396.933 329.966 401.417 331.812 406.092 331.812H564.169Z" stroke="black" stroke-width="0.565931"/>
<path fill-rule="evenodd" clip-rule="evenodd" d="M372.15 314.291V256.693H254.264L217.019 301.541C209.293 310.842 202.676 321 197.299 331.812H354.513C359.191 331.816 363.678 329.971 366.986 326.684C370.294 323.398 372.152 318.94 372.15 314.291V314.291Z" stroke="black" stroke-width="0.565931"/>
<path d="M181.111 437.577H647.127V448.307C647.127 451.351 644.644 453.818 641.58 453.818H189.264C184.775 453.818 181.135 450.202 181.135 445.741V437.577L181.111 437.577Z" fill="#F4F4F4"/>
<path fill-rule="evenodd" clip-rule="evenodd" d="M632.873 353.216L564.169 331.812L514.316 250.612C510.865 244.993 504.72 241.564 498.096 241.561H277.539C270.758 241.559 264.33 244.569 260.014 249.767L217.019 301.541C193.806 329.496 181.11 364.611 181.111 400.856V445.74C181.111 450.201 184.75 453.818 189.239 453.818H641.556C644.619 453.818 647.102 451.35 647.102 448.306V437.576L649.986 377.56C650.503 366.525 643.476 356.529 632.873 353.216V353.216Z" stroke="black" stroke-width="0.565931"/>
<path d="M305.036 441.95H285.316C285.064 423.209 269.706 408.149 250.847 408.149C231.989 408.149 216.63 423.209 216.378 441.95H196.659C196.975 412.431 221.144 388.668 250.847 388.668C280.551 388.668 304.719 412.431 305.036 441.95Z" fill="#F4F4F4"/>
<ellipse cx="250.85" cy="441.949" rx="44.3258" ry="44.0511" fill="black" stroke="black" stroke-width="0.565931"/>
<ellipse cx="250.85" cy="441.949" rx="22.166" ry="22.0286" fill="#CCCCCC"/>
<ellipse cx="250.85" cy="441.95" rx="15.5106" ry="15.4145" fill="#E9E9E9"/>
<path d="M632.103 441.95H612.383C612.131 423.209 596.773 408.149 577.914 408.149C559.056 408.149 543.697 423.209 543.445 441.95H523.726C524.042 412.431 548.21 388.668 577.914 388.668C607.618 388.668 631.786 412.431 632.103 441.95Z" fill="#F4F4F4"/>
<ellipse cx="577.918" cy="441.949" rx="44.3259" ry="44.0511" fill="black" stroke="black" stroke-width="0.565931"/>
<ellipse cx="577.917" cy="441.949" rx="22.166" ry="22.0286" fill="#CCCCCC"/>
<ellipse cx="577.917" cy="441.95" rx="15.5107" ry="15.4145" fill="#E9E9E9"/>
<rect x="284.737" y="349.664" width="15.0177" height="4.78907" rx="1.61856" fill="white"/>
<path d="M297.992 354.454H286.5" stroke="black" stroke-width="0.565931"/>
<rect x="404.798" y="349.664" width="15.0177" height="4.78907" rx="1.61856" fill="white"/>
<path d="M418.054 354.454H406.555" stroke="black" stroke-width="0.565931"/>
<path d="M449.574 271.281C449.488 271.313 449.408 271.361 449.34 271.422C449.291 271.466 449.249 271.518 449.217 271.575C449.146 271.705 449.116 271.852 449.13 271.998C449.129 272.193 449.22 272.377 449.377 272.494C449.494 272.565 449.642 272.565 449.759 272.494C449.873 272.423 449.941 272.297 449.938 272.163C449.931 272.083 449.919 272.003 449.901 271.925L449.858 271.722C449.826 271.601 449.724 271.511 449.599 271.495C449.474 271.479 449.352 271.54 449.291 271.649C449.263 271.726 449.263 271.81 449.291 271.888C449.319 271.997 449.342 272.107 449.358 272.218V272.102V272.029L449.408 271.967L449.469 271.918L449.543 271.888H449.623H449.704L449.771 271.918L449.833 271.967L449.882 272.029C449.87 272.014 449.859 271.997 449.851 271.98L449.882 272.053C449.862 272.002 449.848 271.948 449.839 271.894V271.974C449.833 271.933 449.833 271.892 449.839 271.851V271.931C449.847 271.893 449.857 271.856 449.87 271.82L449.839 271.894C449.853 271.864 449.87 271.835 449.888 271.808L449.839 271.869C449.857 271.848 449.877 271.829 449.901 271.814L449.839 271.857L449.907 271.82H449.833C449.871 271.81 449.907 271.791 449.938 271.765C449.971 271.743 449.998 271.714 450.018 271.68C450.048 271.603 450.048 271.517 450.018 271.441C449.997 271.363 449.946 271.297 449.876 271.257C449.806 271.213 449.721 271.202 449.642 271.226L449.574 271.281Z" fill="black"/>
<path d="M440.743 274.968C439.969 274.862 439.242 274.537 438.648 274.031C437.973 273.493 437.532 272.716 437.416 271.864C437.362 271.48 437.478 271.093 437.733 270.801C437.988 270.509 438.358 270.34 438.747 270.339C439.533 270.387 440.221 270.877 440.522 271.6C440.694 271.949 441.23 271.643 441.052 271.288C440.723 270.585 440.116 270.048 439.375 269.806C438.655 269.591 437.875 269.781 437.336 270.302C436.103 271.606 437.182 273.627 438.352 274.589C439.043 275.147 439.878 275.502 440.762 275.611C440.928 275.611 441.064 275.458 441.07 275.305C441.064 275.139 440.929 275.005 440.762 274.999L440.743 274.968Z" fill="black"/>
<path d="M438.482 271.845C438.617 271.677 438.857 271.635 439.042 271.747C439.249 271.872 439.424 272.042 439.554 272.244C439.854 272.637 440.079 273.081 440.219 273.554C440.234 273.591 440.274 273.611 440.312 273.602C440.351 273.592 440.377 273.557 440.374 273.517C440.205 272.954 439.926 272.43 439.554 271.974C439.406 271.76 439.188 271.602 438.938 271.527C438.72 271.481 438.495 271.567 438.365 271.747C438.309 271.833 438.439 271.907 438.494 271.827L438.482 271.845Z" fill="black"/>
<path d="M439.302 272.586C439.307 272.541 439.331 272.501 439.369 272.476C439.41 272.445 439.461 272.432 439.511 272.439C439.634 272.462 439.743 272.532 439.813 272.635C439.845 272.662 439.892 272.662 439.924 272.635C439.954 272.604 439.954 272.556 439.924 272.525C439.82 272.389 439.664 272.302 439.493 272.286C439.332 272.279 439.189 272.387 439.154 272.543C439.148 272.562 439.15 272.582 439.159 272.599C439.168 272.616 439.184 272.629 439.203 272.635C439.244 272.647 439.287 272.626 439.302 272.586Z" fill="black"/>
<path d="M448.705 269.867C448.783 269.779 448.867 269.697 448.958 269.622C448.958 269.622 448.958 269.622 449.001 269.591L449.075 269.536L449.235 269.444L449.383 269.371H449.42L449.506 269.34C449.62 269.3 449.738 269.272 449.857 269.255C449.935 269.233 450.001 269.183 450.042 269.114C450.072 269.039 450.072 268.956 450.042 268.881C450.023 268.803 449.971 268.736 449.9 268.697C449.825 268.667 449.741 268.667 449.666 268.697C449.124 268.781 448.629 269.052 448.267 269.463C448.149 269.584 448.149 269.776 448.267 269.898C448.387 270.014 448.579 270.014 448.699 269.898L448.705 269.867Z" fill="black"/>
<path d="M449.913 262.659C450.979 265.721 452.07 268.52 452.544 271.79C452.729 272.843 453.089 273.857 453.61 274.791C453.707 274.924 453.742 275.092 453.707 275.252C453.671 275.412 453.569 275.55 453.425 275.63H453.376C453.063 275.805 452.867 276.131 452.858 276.488C452.784 279.09 453.555 281.613 451.521 283.224C449.229 285.061 445.642 283.763 443.227 282.232" stroke="black" stroke-width="0.565931"/>
<path d="M434.747 283.156C435.364 281.625 435.567 279.916 435.98 278.318C436.097 277.556 436.428 276.843 436.935 276.26C437.169 276.068 437.393 275.863 437.607 275.648C437.852 275.339 438.011 274.972 438.069 274.582C438.143 274.203 437.551 274.037 437.453 274.423C437.408 274.795 437.236 275.141 436.966 275.403C436.721 275.594 436.486 275.799 436.263 276.015C435.81 276.647 435.503 277.371 435.364 278.134C434.951 279.733 434.747 281.441 434.131 282.966C433.977 283.328 434.575 283.487 434.747 283.132V283.156Z" fill="black"/>
<path d="M367.38 260.044C367.415 260.034 367.438 260.003 367.438 259.967C367.438 259.932 367.415 259.901 367.38 259.891C367.346 259.901 367.322 259.932 367.322 259.967C367.322 260.003 367.346 260.034 367.38 260.044Z" fill="black"/>
<path d="M367.38 260.044C367.415 260.034 367.438 260.003 367.438 259.967C367.438 259.932 367.415 259.901 367.38 259.891C367.346 259.901 367.322 259.932 367.322 259.967C367.322 260.003 367.346 260.034 367.38 260.044Z" fill="black"/>
<path d="M307.273 271.281C307.186 271.312 307.107 271.36 307.039 271.422C306.991 271.468 306.949 271.519 306.915 271.575C306.847 271.705 306.818 271.852 306.829 271.998C306.833 272.191 306.923 272.373 307.076 272.494C307.195 272.564 307.344 272.564 307.464 272.494C307.574 272.42 307.639 272.295 307.636 272.163C307.633 272.082 307.621 272.002 307.599 271.924L307.556 271.722C307.535 271.645 307.484 271.579 307.415 271.538C307.268 271.455 307.081 271.504 306.995 271.649C306.955 271.721 306.944 271.807 306.965 271.888C306.965 271.998 307.014 272.108 307.032 272.218V272.132V272.188V272.102L307.063 272.028L307.113 271.967L307.174 271.918L307.248 271.888H307.334H307.415L307.488 271.918L307.55 271.967L307.599 272.028C307.587 272.013 307.577 271.997 307.569 271.979L307.599 272.053C307.581 272.001 307.569 271.948 307.562 271.894V271.973C307.559 271.932 307.559 271.892 307.562 271.851V271.973C307.557 271.937 307.557 271.9 307.562 271.863V271.937L307.612 271.851L307.569 271.912C307.586 271.891 307.607 271.872 307.63 271.857L307.562 271.9L307.63 271.863H307.556C307.594 271.851 307.63 271.832 307.661 271.808C307.691 271.782 307.718 271.754 307.741 271.722C307.768 271.645 307.768 271.561 307.741 271.483C307.718 271.407 307.668 271.341 307.599 271.3C307.527 271.256 307.44 271.245 307.359 271.269L307.273 271.281Z" fill="black"/>
<path d="M298.436 274.968C297.662 274.861 296.935 274.536 296.341 274.031C295.667 273.491 295.226 272.715 295.108 271.863C295.055 271.48 295.171 271.093 295.426 270.801C295.681 270.508 296.05 270.34 296.439 270.338C297.225 270.385 297.915 270.876 298.214 271.6C298.393 271.949 298.923 271.643 298.744 271.287C298.418 270.585 297.813 270.048 297.074 269.805C296.352 269.589 295.569 269.779 295.028 270.301C293.796 271.606 294.874 273.627 296.045 274.588C296.737 275.145 297.571 275.499 298.454 275.611C298.621 275.611 298.762 275.458 298.762 275.305C298.759 275.137 298.623 275.002 298.454 274.999L298.436 274.968Z" fill="black"/>
<path d="M296.181 271.845C296.318 271.679 296.556 271.638 296.742 271.747C296.949 271.87 297.125 272.04 297.253 272.243C297.555 272.636 297.782 273.08 297.925 273.553C297.925 273.651 298.103 273.609 298.073 273.517C297.906 272.958 297.628 272.44 297.253 271.992C297.105 271.777 296.888 271.619 296.637 271.545C296.417 271.496 296.188 271.583 296.058 271.765C296.002 271.851 296.138 271.924 296.187 271.845H296.181Z" fill="black"/>
<path d="M297 272.585C297.005 272.541 297.03 272.5 297.068 272.475C297.109 272.445 297.159 272.432 297.21 272.438C297.334 272.461 297.445 272.531 297.518 272.634C297.549 272.655 297.591 272.651 297.618 272.624C297.645 272.597 297.649 272.556 297.629 272.524C297.523 272.387 297.364 272.3 297.191 272.285C297.031 272.281 296.89 272.388 296.852 272.543C296.844 272.583 296.868 272.623 296.908 272.634C296.926 272.64 296.947 272.638 296.964 272.629C296.981 272.62 296.994 272.604 297 272.585Z" fill="black"/>
<path d="M306.41 269.867C306.487 269.778 306.571 269.696 306.663 269.622L306.7 269.592C306.7 269.592 306.651 269.628 306.7 269.592L306.774 269.537L306.928 269.445L307.082 269.371H307.125L307.205 269.341C307.321 269.3 307.441 269.271 307.563 269.255C307.639 269.234 307.703 269.183 307.741 269.114C307.785 269.045 307.796 268.96 307.772 268.881C307.755 268.804 307.706 268.737 307.637 268.698C307.559 268.667 307.473 268.667 307.396 268.698C306.854 268.781 306.359 269.053 305.997 269.463C305.877 269.583 305.877 269.778 305.997 269.898C306.118 270.018 306.314 270.018 306.435 269.898L306.41 269.867Z" fill="black"/>
<path d="M307.618 262.659C308.684 265.721 309.769 268.52 310.249 271.79C310.438 272.842 310.798 273.855 311.315 274.791C311.412 274.924 311.447 275.092 311.412 275.252C311.377 275.412 311.274 275.55 311.131 275.63H311.087C310.771 275.803 310.572 276.129 310.564 276.488C310.496 279.09 311.266 281.613 309.226 283.224C306.934 285.061 303.021 284.241 300.599 282.704" stroke="black" stroke-width="0.565931"/>
<path d="M308.173 276.175C308.041 276.138 307.912 276.095 307.784 276.046H307.741L307.649 276.004L307.452 275.906C307.331 275.843 307.213 275.773 307.1 275.697L306.934 275.581L306.842 275.514C306.722 275.395 306.529 275.395 306.41 275.514C306.291 275.632 306.291 275.824 306.41 275.942C306.886 276.345 307.443 276.641 308.043 276.812C308.122 276.835 308.206 276.825 308.278 276.786C308.349 276.747 308.402 276.682 308.425 276.604C308.465 276.44 308.371 276.274 308.21 276.224L308.173 276.175Z" fill="black"/>
<path d="M301.912 283.505C301.824 283.764 301.76 284.03 301.721 284.301C301.647 284.705 301.591 285.103 301.53 285.526C301.431 286.199 301.357 286.879 301.24 287.553C301.166 287.939 301.764 288.104 301.856 287.718C301.98 287.045 302.047 286.365 302.146 285.691C302.208 285.287 302.269 284.883 302.343 284.466C302.382 284.196 302.446 283.929 302.534 283.67C302.578 283.506 302.482 283.338 302.319 283.29C302.154 283.25 301.987 283.344 301.937 283.505H301.912Z" fill="black"/>
<path d="M292.027 286.58C292.524 285.269 292.926 283.924 293.229 282.556C293.559 281.115 293.996 279.701 294.535 278.324C295.086 277.131 295.5 275.88 295.768 274.595C295.836 274.209 295.244 274.043 295.152 274.435C294.831 275.866 294.356 277.258 293.734 278.588C293.446 279.346 293.204 280.121 293.007 280.909C292.73 281.913 292.471 282.923 292.2 283.934C292.006 284.728 291.763 285.509 291.473 286.273C291.319 286.629 291.849 286.941 292.003 286.58H292.027Z" fill="black"/>
<path d="M300.962 283.07C300.962 283.07 301.289 284.785 301.579 284.908C301.868 285.03 302.09 284.075 302.09 284.075L301.677 283.297" fill="black"/>
<path d="M297.999 270.749C297.999 270.749 298.153 272.469 299.151 272.482C300.149 272.494 304.974 267.582 305.313 264.667C305.313 264.667 308.53 269.156 313.448 267.209V264.318C313.448 264.318 311.79 264.618 311.414 264.318C311.414 264.318 313.263 263.816 313.694 263.02L309.029 256.688C309.029 256.688 306.872 259.48 303.859 259.137C300.846 258.794 299.04 259.786 298.892 260.883C296.787 260.657 294.666 261.124 292.853 262.211C290.105 264.006 286.426 271.79 288.971 275.685C291.516 279.58 292.323 281.558 293.056 281.956C293.79 282.354 297.253 274.607 296.612 274.607C295.971 274.607 293.531 271.888 295.201 270.534C295.583 270.155 296.112 269.961 296.649 270.002C297.187 270.044 297.68 270.316 297.999 270.749Z" fill="black"/>
<path d="M442.45 277.4C442.45 277.4 441.427 272.158 440.059 270.964C438.691 269.77 437.323 270.351 437.083 271.821C436.843 273.291 438.784 274.755 438.784 274.755C438.784 274.755 437.372 277.952 436.374 278.631C435.943 279.012 435.324 279.097 434.805 278.846C434.287 278.595 433.972 278.058 434.008 277.486C433.94 276.09 430.877 273.395 430.631 270.137C430.631 270.137 428.32 271.619 428.419 268.98C428.47 267.592 429.274 266.891 430.024 266.539C429.376 266.593 428.771 266.388 428.973 265.342C429.374 263.272 434.193 263.443 434.193 263.443C434.193 263.443 433.792 263.094 433.841 261.049C433.891 259.003 435.838 257.693 437.058 256.958C439.083 255.741 439.093 258.219 438.985 259.455C439.238 258.484 440.271 256.661 444.385 255.727C449.503 254.565 452.239 256.079 453.353 257.653C454.326 257.61 455.138 257.884 455.379 258.807C456.081 261.502 452.359 264.589 447.793 265.544C447.793 265.544 449.093 266.046 447.793 267.338C447.338 267.756 446.823 268.102 446.265 268.367C444.156 269.426 443.13 271.848 443.843 274.087C444.25 275.312 444.773 276.316 445.39 276.102L442.45 277.4Z" fill="black"/>
<path d="M452.44 261.979C452.587 261.979 454.997 262.077 454.794 264.373C454.59 266.67 451.595 267.619 451.595 267.619C451.595 267.619 450.868 263.693 450.363 263.173" fill="black"/>
<path d="M445.84 286.672C446.368 285.643 446.839 284.586 447.251 283.505C447.295 283.336 447.193 283.164 447.023 283.12C446.853 283.076 446.679 283.177 446.635 283.346C446.241 284.374 445.79 285.38 445.285 286.359C445.1 286.708 445.63 287.021 445.815 286.672H445.84Z" fill="black"/>
<path d="M425.165 331.819C424.549 325.371 423.994 318.873 424.444 312.394C424.643 309.162 425.163 305.958 425.997 302.828C426.736 300.127 428.098 297.689 429.294 295.172C430.409 292.808 431.531 290.212 431.376 287.542C431.29 286.103 430.711 284.48 431.771 283.255L431.839 283.187C431.802 283.187 431.839 283.187 431.839 283.187H431.937C432.092 283.196 432.246 283.212 432.399 283.236C433.689 283.462 434.964 283.758 436.22 284.124C437.915 284.584 439.603 285.086 441.273 285.619C442.678 286.06 444.089 286.519 445.464 287.058C445.843 287.199 446.212 287.367 446.567 287.56L446.634 287.603C446.69 287.634 446.634 287.603 446.634 287.603L446.678 287.64C446.662 287.584 446.639 287.53 446.61 287.48C446.591 287.596 446.591 287.714 446.61 287.83V289.287C446.61 289.456 446.748 289.593 446.918 289.593C447.088 289.593 447.226 289.456 447.226 289.287C447.263 288.675 447.263 288.062 447.226 287.45C447.183 287.125 446.807 286.972 446.542 286.837C445.366 286.318 444.16 285.868 442.931 285.49C439.765 284.389 436.537 283.475 433.262 282.753C432.831 282.65 432.392 282.585 431.95 282.557C431.266 282.557 430.883 283.261 430.68 283.837C430.187 285.288 430.803 286.837 430.742 288.313C430.651 289.669 430.345 291.002 429.836 292.263C428.825 294.964 427.328 297.457 426.225 300.115C425.119 303.099 424.42 306.218 424.148 309.387C423.328 316.031 423.766 322.749 424.358 329.388C424.425 330.203 424.505 331.011 424.579 331.838C424.616 332.23 425.233 332.23 425.196 331.838L425.165 331.819Z" fill="black"/>
<path d="M437.773 288.808C437.773 288.808 448.921 285.415 460.364 298.687C471.808 311.958 475.425 311.811 475.425 311.811C475.425 311.811 494.288 296.757 495.896 296.678C497.505 296.598 503.02 301.449 501.966 306.121C501.966 306.121 489.678 321.952 480.244 326.882C470.809 331.812 446.967 312.754 446.967 312.754" stroke="black" stroke-width="0.565931"/>
<path d="M460.944 322.191C460.944 322.191 460.328 327.636 460.944 329.332C461.56 331.029 461.776 331.831 461.776 331.831" stroke="black" stroke-width="0.565931"/>
<path d="M507.864 294.633L506.915 295.417C506.86 295.475 506.829 295.551 506.828 295.631C506.825 295.713 506.856 295.793 506.915 295.851C506.973 295.909 507.054 295.941 507.137 295.937C507.211 295.933 507.282 295.905 507.34 295.857L508.289 295.074C508.349 295.016 508.383 294.936 508.381 294.853C508.378 294.773 508.345 294.696 508.289 294.639C508.232 294.582 508.154 294.549 508.073 294.547C507.991 294.553 507.913 294.585 507.851 294.639L507.864 294.633Z" fill="black"/>
<path d="M450.474 276.174C450.342 276.139 450.212 276.096 450.085 276.046H450.036L449.944 276.003L449.747 275.905C449.624 275.845 449.506 275.775 449.395 275.697L449.229 275.58L449.143 275.513C449.068 275.425 448.95 275.386 448.837 275.412C448.725 275.438 448.636 275.525 448.608 275.637C448.58 275.748 448.618 275.866 448.705 275.942C449.183 276.344 449.742 276.641 450.344 276.811C450.423 276.834 450.507 276.825 450.579 276.786C450.65 276.747 450.703 276.681 450.726 276.603C450.767 276.44 450.672 276.273 450.511 276.223L450.474 276.174Z" fill="black"/>
<path d="M290.862 267.718C290.862 267.718 292.021 256.884 281.804 256.4C271.587 255.917 265.775 253.375 265.775 253.375C265.775 253.375 264.198 261.018 265.159 263.363C267.047 263.682 268.957 263.856 270.872 263.884L265.4 265.109C265.4 265.109 266.632 270.774 270.268 274.528C270.268 274.528 277.928 267.044 283.4 267.405C288.872 267.767 290.918 270.186 290.918 270.186" fill="black"/>
<path d="M290.906 288.35C290.906 288.35 285.514 301.253 284.743 314.285C283.973 327.318 282.895 331.813 282.895 331.813" stroke="black" stroke-width="0.565931"/>
<path d="M290.252 286.427C290.524 286.219 301.56 286.556 303.372 288.944L302.756 292.073C302.756 292.073 312.616 294.731 314.735 307.102C316.855 319.473 322.364 331.813 322.364 331.813" stroke="black" stroke-width="0.565931"/>
<path d="M291.762 309.093C291.59 309.895 295.028 310.697 294.782 315.884C294.535 321.072 294.782 331.807 294.782 331.807" stroke="black" stroke-width="0.565931"/>
<path d="M509.215 282.575C509.466 281.485 510.553 280.802 511.645 281.05L512.001 281.13C513.092 281.378 513.773 282.463 513.522 283.554L506.934 312.184C506.684 313.274 505.596 313.957 504.505 313.709L504.149 313.628C503.057 313.38 502.376 312.295 502.627 311.205L509.215 282.575Z" fill="black"/>
<path d="M506.829 292.184C506.829 292.184 504.931 294.48 506.976 294.284C509.022 294.088 511.906 293.133 511.906 293.592C511.906 294.051 513.533 303.905 509.441 303.666C505.35 303.428 503.513 304.144 503.513 304.144" fill="#F4F4F4"/>
<path d="M497.887 297.848C498.836 297.338 499.674 296.644 500.352 295.809C501.11 294.97 501.831 294.1 502.638 293.304C504.197 291.773 506.335 290.42 508.628 291.001C508.798 291.047 508.973 290.947 509.019 290.778C509.065 290.609 508.964 290.435 508.794 290.389C506.539 289.819 504.326 290.922 502.687 292.398C501.817 293.223 500.994 294.096 500.222 295.013C499.504 295.947 498.6 296.725 497.566 297.297C497.209 297.469 497.523 297.995 497.88 297.83L497.887 297.848Z" fill="black"/>
<path d="M506.181 294.688L510.033 294.168C511.183 294.088 512.312 293.816 513.373 293.365C513.724 293.188 513.416 292.661 513.059 292.839C511.998 293.27 510.874 293.526 509.731 293.598L506.033 294.1C505.645 294.155 505.812 294.743 506.2 294.713L506.181 294.688Z" fill="black"/>
<path d="M511.259 302.221C509.755 302.992 508.011 303.121 506.366 303.347C504.918 303.55 503.174 303.55 502.052 304.572C501.757 304.83 502.188 305.264 502.484 305.001C503.076 304.555 503.783 304.285 504.523 304.223C505.343 304.095 506.169 303.991 506.988 303.88C508.578 303.766 510.137 303.385 511.598 302.753C511.949 302.57 511.635 302.043 511.284 302.221H511.259Z" fill="black"/>
<path d="M510.994 300.335L511.992 300.084C512.072 300.062 512.14 300.01 512.18 299.938C512.221 299.867 512.231 299.783 512.208 299.704C512.16 299.544 511.995 299.45 511.832 299.489L510.828 299.741C510.664 299.788 510.568 299.957 510.612 300.12C510.663 300.281 510.83 300.375 510.994 300.335Z" fill="black"/>
<path d="M511.259 297.297C511.456 297.276 511.651 297.233 511.838 297.168C512.025 297.103 512.205 297.019 512.374 296.917C512.47 296.861 512.529 296.759 512.528 296.649C512.527 296.538 512.467 296.437 512.371 296.382C512.274 296.328 512.156 296.328 512.06 296.384C511.952 296.453 511.839 296.512 511.721 296.562H511.795C511.598 296.643 511.39 296.698 511.179 296.727H511.259C511.178 296.732 511.102 296.764 511.043 296.819C510.985 296.877 510.952 296.955 510.952 297.036C510.952 297.118 510.985 297.196 511.043 297.254C511.1 297.312 511.178 297.343 511.259 297.34V297.297Z" fill="black"/>
<path d="M414.904 275.274H417.493C417.936 275.274 418.36 275.449 418.674 275.761C418.987 276.072 419.163 276.494 419.163 276.934V286.733C419.163 287.173 418.987 287.595 418.674 287.906C418.36 288.218 417.936 288.392 417.493 288.392H410.221C407.869 288.392 405.963 286.498 405.963 284.161C405.976 279.258 409.972 275.288 414.904 275.274Z" fill="#CCCCCC"/>
<path fill-rule="evenodd" clip-rule="evenodd" d="M414.904 275.274H417.493C417.936 275.274 418.36 275.449 418.674 275.761C418.987 276.072 419.163 276.494 419.163 276.934V286.733C419.163 287.173 418.987 287.595 418.674 287.906C418.36 288.218 417.936 288.392 417.493 288.392H410.221C407.869 288.392 405.963 286.498 405.963 284.161C405.976 279.258 409.972 275.288 414.904 275.274V275.274Z" stroke="black" stroke-width="0.565931"/>
<path d="M413.087 291.975V288.582" stroke="black" stroke-width="0.565931"/>
<path d="M275.999 275.274H278.587C279.509 275.274 280.257 276.017 280.257 276.934V286.733C280.257 287.649 279.509 288.392 278.587 288.392H271.322C268.97 288.392 267.063 286.498 267.063 284.161C267.077 279.261 271.069 275.291 275.999 275.274V275.274Z" fill="#CCCCCC"/>
<path fill-rule="evenodd" clip-rule="evenodd" d="M275.999 275.274H278.587C279.509 275.274 280.257 276.017 280.257 276.934V286.733C280.257 287.649 279.509 288.392 278.587 288.392H271.322C268.97 288.392 267.063 286.498 267.063 284.161C267.077 279.261 271.069 275.291 275.999 275.274V275.274Z" stroke="black" stroke-width="0.565931"/>
<path d="M274.156 291.975V288.582" stroke="black" stroke-width="0.565931"/>
<path d="M461.775 322.638C461.775 322.424 456.291 319.368 456.291 319.368C456.291 319.368 448.723 331.812 447.922 331.812H457.893C457.893 331.812 461.954 324.065 461.775 322.638Z" fill="black"/>
<path d="M284.331 298.154C284.331 298.154 286.487 298.405 287.492 299.104C287.886 299.379 287.245 299.532 287.245 299.532L285.397 308.437L284.965 301.369L284.331 298.154Z" fill="black"/>
<path d="M293.722 311.4C293.722 311.4 293.383 321.683 292.68 324.077C291.978 326.472 285.55 331.812 285.55 331.812H293.278C293.278 331.812 295.336 332.706 295.04 331.114C294.745 329.522 295.712 312.337 293.722 311.4V311.4Z" fill="black"/>
<path d="M315.321 310.078C315.321 310.078 313.355 315.547 311.426 317.243C311.426 317.243 311.704 331.708 311.901 331.329C312.098 330.949 318.026 318.064 318.125 316.367C318.223 314.671 317.441 308.504 315.321 310.078Z" fill="black"/>
<path d="M448.385 313.856C448.385 313.856 453.549 321.071 454.849 325.26C456.149 329.449 460.944 329.314 460.944 329.314L460.666 324.525C460.666 324.525 459.113 320.96 457.702 320.164C456.291 319.368 448.385 313.856 448.385 313.856Z" fill="black"/>
<path d="M342.24 237.881H347.86V243.466H342.24V237.881Z" fill="black"/>
<path d="M345.05 240.673V226.875H333.311" stroke="black" stroke-width="0.565931"/>
<path d="M435.957 243.466H430.336V237.881H435.957V243.466Z" fill="black"/>
<path d="M433.147 240.673V226.875H444.88" stroke="black" stroke-width="0.565931"/>
<path d="M475.117 312.025C475.441 312.195 475.794 312.304 476.158 312.344C476.324 312.353 476.491 312.353 476.657 312.344H476.898C476.935 312.344 476.941 312.344 476.898 312.344H476.965L477.095 312.387C477.258 312.43 477.426 312.334 477.471 312.172C477.514 312.009 477.419 311.84 477.255 311.793C476.923 311.71 476.58 311.679 476.238 311.701H476.121H476.053L475.819 311.646C475.676 311.606 475.538 311.55 475.406 311.48C475.311 311.412 475.185 311.403 475.081 311.457C474.977 311.512 474.913 311.621 474.917 311.738C474.921 311.854 474.991 311.959 475.098 312.007L475.117 312.025Z" fill="black"/>
<path d="M311.167 313.753L311.303 321.378C311.277 323.835 311.43 326.291 311.759 328.727C311.827 329.112 312.418 328.947 312.375 328.561C312.051 326.125 311.905 323.669 311.938 321.212L311.802 313.741C311.802 313.572 311.664 313.435 311.494 313.435C311.324 313.435 311.186 313.572 311.186 313.741L311.167 313.753Z" fill="black"/>
<path d="M289.501 294.473C290.345 294.719 291.011 295.367 291.275 296.2C291.65 297.085 291.676 298.078 291.349 298.981C290.97 299.66 290.401 300.215 289.71 300.579C288.989 301.151 288.05 301.375 287.147 301.192C287.048 301.161 287.011 301.308 287.103 301.339C288.023 301.546 288.988 301.34 289.741 300.775C290.636 300.393 291.323 299.648 291.628 298.728C291.933 297.809 291.827 296.804 291.337 295.968C291.021 295.181 290.357 294.584 289.538 294.351C289.498 294.347 289.462 294.373 289.453 294.412C289.444 294.45 289.464 294.489 289.501 294.504V294.473Z" fill="black"/>
<path d="M291.497 289.268C292.617 289.675 293.855 289.622 294.936 289.121C295.821 288.673 296.395 287.786 296.439 286.8C296.439 286.702 296.291 286.702 296.285 286.8C296.237 287.757 295.664 288.61 294.794 289.023C293.76 289.468 292.593 289.503 291.534 289.121C291.442 289.09 291.399 289.237 291.497 289.268Z" fill="black"/>
<path d="M300.285 296.47C298.72 296.519 297.475 298.111 297.413 299.593C297.351 301.18 298.732 302.564 300.001 303.323C301.294 304.193 302.977 304.238 304.315 303.439C305.558 302.576 305.984 300.942 305.319 299.587C304.91 298.678 304.314 297.865 303.569 297.199C302.974 296.544 302.07 296.259 301.203 296.452C301.111 296.452 301.148 296.629 301.246 296.599C302.83 296.152 304.204 297.897 304.9 299.091C305.646 300.377 305.763 302.074 304.518 303.103C303.408 303.955 301.903 304.101 300.648 303.476C299.284 302.898 298.216 301.792 297.69 300.414C297.222 298.791 298.547 296.685 300.309 296.629C300.344 296.62 300.368 296.588 300.368 296.553C300.368 296.517 300.344 296.486 300.309 296.476L300.285 296.47Z" fill="black"/>
<path d="M312.973 302.423C312.124 302.975 311.4 303.696 310.847 304.542C310.391 305.404 310.298 306.41 310.588 307.341C310.837 308.201 311.324 308.976 311.993 309.576C312.322 309.878 312.694 310.132 313.096 310.329C313.626 310.586 314.218 310.684 314.729 310.978C314.809 311.027 314.889 310.893 314.803 310.844C314.386 310.642 313.953 310.474 313.509 310.341C313.077 310.174 312.673 309.94 312.313 309.649C311.619 309.09 311.097 308.347 310.81 307.506C310.46 306.56 310.524 305.511 310.988 304.615C311.531 303.797 312.236 303.097 313.059 302.558C313.139 302.496 313.059 302.362 312.985 302.423H312.973Z" fill="black"/>
<path d="M295.078 313.813C296.236 313.293 297.641 314.052 298.491 314.83C299.359 315.571 299.77 316.711 299.576 317.831C299.206 319.821 296.655 322.552 294.467 321.297C294.444 321.284 294.416 321.284 294.393 321.297C294.37 321.311 294.356 321.335 294.356 321.362C294.356 321.388 294.37 321.412 294.394 321.426C296.242 322.491 298.325 320.77 299.212 319.227C299.717 318.411 299.891 317.435 299.699 316.496C299.45 315.614 298.893 314.85 298.128 314.34C297.253 313.728 296.057 313.201 294.997 313.679C294.911 313.721 294.997 313.856 295.078 313.813Z" fill="black"/>
<path d="M308.08 316.68C306.492 316.636 305.054 317.605 304.506 319.087C304.173 319.791 304.034 320.571 304.106 321.346C304.249 322.082 304.696 322.724 305.338 323.116C306.571 324.053 308.259 324.917 309.806 324.176C311.106 323.563 311.574 321.971 311.587 320.636C311.663 319.018 310.949 317.463 309.67 316.459C309.59 316.404 309.51 316.539 309.59 316.594C310.666 317.417 311.327 318.665 311.402 320.011C311.519 321.236 311.297 322.718 310.348 323.612C309.153 324.739 307.396 324.286 306.152 323.496C305.476 323.147 304.903 322.63 304.488 321.996C304.185 321.249 304.185 320.415 304.488 319.668C304.987 318.082 306.336 316.68 308.111 316.833C308.21 316.833 308.21 316.692 308.111 316.68H308.08Z" fill="black"/>
<path d="M294.671 329.173C295.237 328.816 295.899 328.639 296.569 328.664C297.239 328.612 297.914 328.655 298.572 328.793C299.237 329.01 299.803 329.455 300.168 330.048C300.58 330.624 300.95 331.23 301.338 331.825C301.394 331.904 301.523 331.825 301.468 331.745C301.036 331.077 300.63 330.379 300.143 329.748C299.769 329.224 299.232 328.836 298.615 328.646C297.927 328.499 297.22 328.456 296.519 328.517C295.84 328.494 295.169 328.678 294.597 329.044C294.517 329.099 294.597 329.234 294.671 329.173Z" fill="black"/>
<path d="M308.654 331.549C309.111 330.803 309.762 330.194 310.539 329.786C310.625 329.743 310.539 329.608 310.459 329.657C309.658 330.084 308.989 330.719 308.524 331.494C308.502 331.53 308.513 331.576 308.549 331.598C308.584 331.62 308.631 331.609 308.654 331.574V331.549Z" fill="black"/>
<path d="M318.421 323.845C317.41 325.173 316.652 326.839 317.084 328.536C317.402 329.995 318.768 330.987 320.263 330.844C320.362 330.844 320.319 330.685 320.226 330.697C318.649 330.918 317.404 329.62 317.145 328.162C316.893 326.606 317.614 325.1 318.532 323.924C318.593 323.845 318.458 323.765 318.402 323.845H318.421Z" fill="black"/>
<path d="M285.372 313.661C287.758 314.186 289.397 316.37 289.223 318.793C289.1 319.989 288.549 321.102 287.67 321.928C286.66 322.871 285.285 323.208 283.973 323.514C283.874 323.514 283.917 323.686 284.016 323.668C285.158 323.465 286.252 323.05 287.239 322.443C288.019 321.895 288.628 321.139 288.995 320.263C289.736 318.526 289.408 316.52 288.151 315.106C287.436 314.291 286.477 313.724 285.415 313.489C285.316 313.489 285.273 313.618 285.372 313.636V313.661Z" fill="black"/>
<path d="M284.577 331.53C284.934 330.06 285.711 328.517 287.245 327.984C288.78 327.452 290.326 328.284 291.473 329.27C291.547 329.332 291.657 329.228 291.577 329.16C290.413 328.137 288.78 327.323 287.202 327.837C285.625 328.352 284.799 329.962 284.423 331.512C284.423 331.61 284.552 331.653 284.577 331.555V331.53Z" fill="black"/>
<path d="M491.201 311.34C491.035 311.529 490.932 311.764 490.905 312.014C490.908 312.225 491.039 312.414 491.238 312.491C491.459 312.571 491.638 312.412 491.731 312.216C491.861 311.985 491.915 311.719 491.885 311.456C491.847 311.215 491.643 311.033 491.398 311.021C491.363 311.031 491.34 311.062 491.34 311.098C491.34 311.134 491.363 311.165 491.398 311.175C491.562 311.183 491.7 311.302 491.731 311.462C491.771 311.671 491.738 311.887 491.638 312.075C491.583 312.21 491.49 312.424 491.311 312.375C491.162 312.329 491.06 312.193 491.059 312.038C491.084 311.81 491.181 311.595 491.336 311.426C491.392 311.346 491.262 311.273 491.201 311.352V311.34Z" fill="black"/>
<path d="M494.683 308.002C494.517 308.191 494.414 308.427 494.387 308.676C494.389 308.886 494.521 309.074 494.719 309.148C494.941 309.233 495.12 309.074 495.213 308.878C495.341 308.647 495.397 308.382 495.373 308.119C495.329 307.877 495.126 307.696 494.88 307.678C494.781 307.678 494.781 307.837 494.88 307.831C495.044 307.844 495.18 307.964 495.213 308.125C495.252 308.333 495.22 308.549 495.12 308.737C495.065 308.872 494.972 309.086 494.793 309.037C494.644 308.992 494.542 308.856 494.541 308.7C494.566 308.472 494.663 308.258 494.818 308.088C494.874 308.008 494.744 307.935 494.683 308.015V308.002Z" fill="black"/>
<path d="M498.164 304.664C497.998 304.854 497.895 305.089 497.868 305.338C497.87 305.549 498.002 305.736 498.201 305.81C498.423 305.895 498.601 305.73 498.694 305.54C498.826 305.31 498.882 305.044 498.854 304.781C498.812 304.538 498.608 304.356 498.361 304.34C498.327 304.35 498.303 304.381 498.303 304.416C498.303 304.452 498.327 304.483 498.361 304.493C498.526 304.506 498.661 304.626 498.694 304.787C498.734 304.996 498.701 305.211 498.601 305.399C498.546 305.534 498.454 305.742 498.275 305.699C498.126 305.654 498.023 305.518 498.022 305.363C498.047 305.134 498.144 304.92 498.3 304.75C498.355 304.671 498.226 304.597 498.164 304.677V304.664Z" fill="black"/>
<path d="M345.826 229.956H433.147" stroke="black" stroke-width="0.565931"/>
<path d="M345.826 235.694H433.147" stroke="black" stroke-width="0.565931"/>
<path d="M380.864 347.686V453.817" stroke="black" stroke-width="0.565931"/>
<path d="M167.215 285.771H220.753C220.788 285.762 220.811 285.73 220.811 285.695C220.811 285.659 220.788 285.628 220.753 285.618H167.215C167.18 285.628 167.157 285.659 167.157 285.695C167.157 285.73 167.18 285.762 167.215 285.771Z" fill="black"/>
<path d="M192.912 300.671H201.748C201.783 300.661 201.807 300.63 201.807 300.594C201.807 300.559 201.783 300.528 201.748 300.518H192.912C192.877 300.528 192.854 300.559 192.854 300.594C192.854 300.63 192.877 300.661 192.912 300.671Z" fill="black"/>
<path d="M364.164 391.45H490.048C490.083 391.44 490.106 391.409 490.106 391.374C490.106 391.338 490.083 391.307 490.048 391.297H364.164C364.129 391.307 364.105 391.338 364.105 391.374C364.105 391.409 364.129 391.44 364.164 391.45Z" fill="black"/>
<path d="M345.498 415.394H423.76C423.793 415.404 423.828 415.391 423.847 415.364C423.867 415.336 423.867 415.299 423.847 415.272C423.828 415.244 423.793 415.232 423.76 415.241H345.498C345.465 415.232 345.43 415.244 345.411 415.272C345.391 415.299 345.391 415.336 345.411 415.364C345.43 415.391 345.465 415.404 345.498 415.394Z" fill="black"/>
<path d="M172.034 369.305H220.821C220.855 369.295 220.879 369.264 220.879 369.228C220.879 369.193 220.855 369.161 220.821 369.152H172.034C171.999 369.161 171.976 369.193 171.976 369.228C171.976 369.264 171.999 369.295 172.034 369.305Z" fill="black"/>
<path d="M465.966 304.787C465.966 304.787 468.899 306.839 471.709 306.447C474.519 306.055 490.048 294.394 490.048 294.394C490.308 294.12 490.67 293.964 491.05 293.964C491.429 293.964 491.791 294.12 492.051 294.394C492.844 295.357 493.488 296.433 493.961 297.585" stroke="black" stroke-width="0.565931"/>
<path d="M503.137 288.129C501.027 288.717 499.008 289.588 497.135 290.72C495.415 291.68 493.825 292.853 492.402 294.211C492.119 294.486 492.556 294.921 492.84 294.639C494.227 293.323 495.773 292.184 497.443 291.246C499.271 290.142 501.243 289.291 503.304 288.717C503.414 288.688 503.5 288.602 503.529 288.492C503.558 288.383 503.526 288.266 503.446 288.186C503.365 288.106 503.247 288.075 503.137 288.105V288.129Z" fill="black"/>
<path d="M497.202 293.91C497.824 293.804 498.463 293.868 499.051 294.094C499.359 294.198 499.667 294.315 499.957 294.443C500.13 294.511 500.432 294.609 500.512 294.798L501.072 294.566L501.042 294.505C500.957 294.357 500.768 294.307 500.62 294.391C500.471 294.476 500.42 294.664 500.506 294.811L500.542 294.872C500.709 295.166 501.245 294.964 501.103 294.639C500.975 294.341 500.734 294.105 500.432 293.984C500.08 293.819 499.711 293.678 499.347 293.549C498.612 293.258 497.808 293.179 497.03 293.323C496.642 293.408 496.808 294.002 497.19 293.935L497.202 293.91Z" fill="black"/>
<path d="M500.678 291.834C500.765 291.882 500.848 291.938 500.925 292L500.863 291.951C501.013 292.066 501.148 292.2 501.264 292.349L501.221 292.287C501.32 292.422 501.406 292.566 501.479 292.716C501.518 292.785 501.582 292.836 501.658 292.857C501.739 292.878 501.825 292.867 501.898 292.826C501.968 292.786 502.019 292.72 502.04 292.643C502.068 292.568 502.068 292.485 502.04 292.41C501.823 291.945 501.466 291.56 501.017 291.308C500.922 291.239 500.796 291.23 500.692 291.285C500.588 291.339 500.524 291.448 500.528 291.565C500.532 291.682 500.602 291.786 500.709 291.834H500.678Z" fill="black"/>
<path d="M378.894 160.967C373.575 160.724 368.449 159.534 363.518 157.396V145.299C366.336 146.733 369.397 147.935 372.7 148.907C376.004 149.854 378.906 150.328 381.408 150.328C383.473 150.328 384.979 150.085 385.926 149.599C386.898 149.089 387.384 148.251 387.384 147.085C387.384 146.283 387.032 145.603 386.327 145.044C385.647 144.486 384.493 143.854 382.866 143.15C381.263 142.445 379.089 141.595 376.344 140.599C373.259 139.458 370.769 138.182 368.874 136.774C366.98 135.34 365.595 133.749 364.721 132.001C363.871 130.227 363.446 128.029 363.446 125.406C363.446 121.398 364.733 118.264 367.308 116.005C369.883 113.746 373.745 112.35 378.894 111.815V106.824H386.436V111.742C391.27 112.01 396.14 113.2 401.047 115.313L396.711 125.697C391.635 123.414 387.056 122.272 382.975 122.272C381.032 122.272 379.659 122.515 378.858 123.001C378.081 123.462 377.692 124.155 377.692 125.078C377.692 125.879 377.971 126.547 378.53 127.082C379.113 127.592 380.109 128.175 381.518 128.831C382.926 129.462 384.882 130.203 387.384 131.053C392.46 132.851 396.104 134.903 398.314 137.211C400.525 139.494 401.63 142.445 401.63 146.065C401.63 150.145 400.33 153.461 397.731 156.011C395.157 158.562 391.392 160.141 386.436 160.748V167.78H378.894V160.967Z" fill="#44E0B7"/>
<path d="M245.907 208.784C245.907 210.17 244.784 211.293 243.399 211.293C242.013 211.293 240.89 210.17 240.89 208.784L245.907 208.784ZM322.609 146.822L297.094 160.529L297.981 131.579L322.609 146.822ZM240.89 208.784C240.89 194.803 241.414 183.678 242.997 174.898C244.582 166.11 247.27 159.423 251.79 154.542C256.336 149.633 262.469 146.834 270.358 145.294C278.203 143.762 287.996 143.435 300.077 143.623L299.999 148.639C287.963 148.452 278.617 148.793 271.32 150.217C264.067 151.633 259.056 154.08 255.471 157.951C251.86 161.85 249.433 167.479 247.934 175.788C246.434 184.105 245.907 194.859 245.907 208.784L240.89 208.784Z" fill="#CCCCCC"/>
<path d="M444.036 144.798C442.653 144.864 441.478 143.796 441.412 142.412C441.346 141.028 442.414 139.853 443.798 139.787L444.036 144.798ZM509.578 218.466L494.672 193.632L523.632 193.14L509.578 218.466ZM443.798 139.787C457.763 139.122 468.901 139.116 477.746 140.28C486.6 141.445 493.406 143.812 498.497 148.094C503.617 152.401 506.704 158.394 508.618 166.202C510.522 173.965 511.314 183.73 511.701 195.807L506.687 195.968C506.301 183.936 505.516 174.617 503.746 167.396C501.987 160.219 499.305 155.329 495.267 151.933C491.201 148.512 485.463 146.355 477.092 145.253C468.713 144.151 457.946 144.136 444.036 144.798L443.798 139.787Z" fill="#CCCCCC"/>
<path d="M456.043 22.6559C462.269 23.0649 475.218 23.3921 477.21 21.429C479.096 19.5709 488.569 19.0319 493.799 18.9796C494.303 18.9746 494.742 18.6511 494.9 18.1734C498.319 7.84523 507.051 -7.3632 517.313 6.51446C517.801 7.17448 518.817 7.19168 519.372 6.58605C524.461 1.0228 536.647 -3.14723 537.712 10.3482V13.8868C537.712 14.8847 538.943 15.4563 539.8 14.9463C547.919 10.1198 560.85 13.6918 553.233 24.6459C552.649 25.4866 553.259 26.7166 554.28 26.6469L576.821 25.11" stroke="#181A1D" stroke-width="0.575133" stroke-linejoin="round"/>
<path d="M10.7017 383.351H57.4909V340.929H94.7449V160.314H130.013C140.056 160.317 149.687 164.309 156.787 171.412L166.611 181.236V246.055H193.183V254.645" stroke="#181A1D" stroke-width="1.15027"/>
<path d="M807.068 406.213V254.674H773.824V186.654L756.181 169.011H734.729V119.483H699.355C663.695 119.478 634.761 148.343 634.681 184.003C634.623 210.285 634.643 234.784 634.932 235.603V306.346H606.849" stroke="#181A1D" stroke-width="1.15027"/>
</svg>
