<svg width="152" height="114" viewBox="0 0 152 114" fill="none" xmlns="http://www.w3.org/2000/svg">
<path d="M75.9989 85.002C74.8122 85.002 73.6521 85.3539 72.6653 86.0132C71.6785 86.6725 70.9094 87.6097 70.4553 88.7061C70.0011 89.8025 69.8823 91.009 70.1138 92.173C70.3454 93.3369 70.9168 94.4061 71.756 95.2453C72.5952 96.0844 73.6644 96.6559 74.8283 96.8875C75.9923 97.119 77.1988 97.0002 78.2952 96.546C79.3916 96.0918 80.3288 95.3228 80.9881 94.336C81.6474 93.3492 81.9993 92.1891 81.9993 91.0024C81.9993 89.4109 81.3672 87.8847 80.2419 86.7594C79.1166 85.6341 77.5903 85.002 75.9989 85.002ZM75.9989 93.0025C75.6033 93.0025 75.2166 92.8852 74.8877 92.6654C74.5588 92.4456 74.3024 92.1332 74.1511 91.7678C73.9997 91.4023 73.9601 91.0001 74.0372 90.6121C74.1144 90.2242 74.3049 89.8678 74.5846 89.588C74.8644 89.3083 75.2207 89.1178 75.6087 89.0407C75.9967 88.9635 76.3989 89.0031 76.7644 89.1545C77.1298 89.3059 77.4422 89.5622 77.662 89.8911C77.8818 90.2201 77.9991 90.6068 77.9991 91.0024C77.9991 91.5328 77.7883 92.0416 77.4132 92.4167C77.0381 92.7918 76.5294 93.0025 75.9989 93.0025Z" fill="#200A52"/>
<path d="M27.1667 28.9989L17.9949 38.1707C17.2138 38.9518 17.2138 40.2182 17.9949 40.9993C18.776 41.7804 20.0424 41.7804 20.8235 40.9993L29.9953 31.8275C30.7764 31.0464 30.7764 29.78 29.9953 28.9989C29.2142 28.2178 27.9478 28.2178 27.1667 28.9989Z" fill="#44E0B7"/>
<path d="M31.1667 36.9996L29.9956 38.1707C29.2145 38.9518 29.2145 40.2182 29.9956 40.9993C30.7767 41.7804 32.0431 41.7804 32.8242 40.9993L33.9953 39.8282C34.7764 39.0471 34.7764 37.7807 33.9953 36.9996C33.2142 36.2185 31.9478 36.2185 31.1667 36.9996Z" fill="#44E0B7"/>
<path d="M39.1684 28.9974L35.9961 32.1697C35.215 32.9508 35.215 34.2172 35.9961 34.9983C36.7772 35.7794 38.0436 35.7794 38.8247 34.9983L41.997 31.826C42.7781 31.0449 42.7781 29.7785 41.997 28.9974C41.2159 28.2163 39.9495 28.2163 39.1684 28.9974Z" fill="#44E0B7"/>
<path d="M21.9953 57H17.995C16.8904 57 15.9949 57.8955 15.9949 59.0001C15.9949 60.1048 16.8904 61.0003 17.995 61.0003H21.9953C23.0999 61.0003 23.9954 60.1048 23.9954 59.0001C23.9954 57.8955 23.0999 57 21.9953 57Z" fill="#200A52"/>
<path d="M134.96 30.3685C135.639 29.3757 136.001 28.2009 136 26.9983V14.9975C136 13.4061 135.368 11.8798 134.243 10.7545C133.117 9.62925 131.591 8.99707 130 8.99707H126C124.408 8.99707 122.882 9.62925 121.757 10.7545C120.631 11.8798 119.999 13.4061 119.999 14.9975V16.9976H113.999C112.894 16.9976 111.999 17.8931 111.999 18.9977C111.999 20.1024 112.894 20.9979 113.999 20.9979H119.999V26.9983C119.998 28.2009 120.361 29.3757 121.039 30.3685C119.514 31.2359 118.244 32.4908 117.359 34.0063C116.474 35.5218 116.005 37.2441 115.999 38.9991V46.9996H106.212C104.766 46.9814 103.359 47.4723 102.237 48.3863C101.116 49.3003 100.352 50.5794 100.078 51.9999C99.9323 52.8607 99.9764 53.7428 100.207 54.5847C100.437 55.4267 100.849 56.2082 101.413 56.8747C101.976 57.5413 102.679 58.0768 103.471 58.4439C104.263 58.8111 105.125 59.001 105.998 59.0004H115.999V63.0007C115.999 63.5311 116.21 64.0399 116.585 64.415C116.96 64.7901 117.469 65.0008 117.999 65.0008H119.999V93.3707C118.833 93.7829 117.823 94.5452 117.107 95.5534C116.391 96.5616 116.004 97.7665 115.999 99.0031V103.003C115.999 103.534 116.21 104.043 116.585 104.418C116.96 104.793 117.469 105.003 117.999 105.003H138C138.531 105.003 139.04 104.793 139.415 104.418C139.79 104.043 140 103.534 140 103.003V38.9991C139.995 37.2441 139.525 35.5218 138.64 34.0063C137.755 32.4908 136.486 31.2359 134.96 30.3685ZM132 65.0008H136V93.0027H132V65.0008ZM123.999 14.9975C123.999 14.467 124.21 13.9583 124.585 13.5832C124.96 13.2081 125.469 12.9973 126 12.9973H130C130.53 12.9973 131.039 13.2081 131.414 13.5832C131.789 13.9583 132 14.467 132 14.9975V16.9976H123.999V14.9975ZM123.999 26.9983V20.9979H132V26.9983C132 27.5287 131.789 28.0375 131.414 28.4126C131.039 28.7877 130.53 28.9984 130 28.9984H126C125.469 28.9984 124.96 28.7877 124.585 28.4126C124.21 28.0375 123.999 27.5287 123.999 26.9983ZM104.472 54.2941C104.282 54.0696 104.143 53.8058 104.066 53.5216C103.99 53.2374 103.977 52.9398 104.028 52.65C104.147 52.1655 104.429 51.7368 104.826 51.4362C105.224 51.1356 105.714 50.9814 106.212 50.9999H123.999C124.53 50.9999 125.039 50.7891 125.414 50.414C125.789 50.0389 126 49.5302 126 48.9997V42.9993C126 42.7363 126.052 42.476 126.154 42.2333C126.262 41.986 126.419 41.7624 126.614 41.5752C126.788 41.3941 126.997 41.2511 127.23 41.1552C127.533 41.0285 127.864 40.9787 128.192 41.0103C128.519 41.0418 128.834 41.1538 129.108 41.3362C129.382 41.5186 129.607 41.7659 129.762 42.056C129.918 42.3461 130 42.6701 130 42.9993V53C130 53.5305 129.789 54.0392 129.414 54.4143C129.039 54.7894 128.53 55.0001 128 55.0001H105.998C105.708 55.0003 105.421 54.9372 105.157 54.8153C104.894 54.6933 104.66 54.5155 104.472 54.2941ZM128 59.0004C129.591 59.0004 131.117 58.3682 132.243 57.2429C133.368 56.1176 134 54.5914 134 53V42.9993C134 41.4079 133.368 39.8817 132.243 38.7564C131.117 37.6311 129.591 36.9989 128 36.9989C126.762 36.9961 125.555 37.3831 124.549 38.105C123.951 38.5237 123.434 39.0476 123.023 39.6511C122.351 40.6379 121.994 41.8054 121.999 42.9993V46.9996H119.999V38.9991C119.999 37.4077 120.631 35.8814 121.757 34.7561C122.882 33.6308 124.408 32.9987 126 32.9987H130C131.591 32.9987 133.117 33.6308 134.243 34.7561C135.368 35.8814 136 37.4077 136 38.9991V61.0005H119.999V59.0004H128ZM128 65.0008V93.0027H123.999V65.0008H128ZM119.999 99.0031C119.999 98.4726 120.21 97.9638 120.585 97.5887C120.96 97.2137 121.469 97.0029 121.999 97.0029H128V101.003H119.999V99.0031ZM136 101.003H132V97.0029H136V101.003Z" fill="#44E0B7"/>
<path d="M86.0003 48.9997H80.5799L102.421 26.5182C103.433 25.4596 103.997 24.0519 103.997 22.588C103.997 21.124 103.433 19.7164 102.421 18.6577C101.384 17.6293 99.982 17.0523 98.5211 17.0523C97.0602 17.0523 95.6584 17.6293 94.6209 18.6577L65.999 48.1197V42.9993C65.9863 33.9853 62.3998 25.344 56.0259 18.9701C49.652 12.5962 41.0108 9.00977 31.9967 8.99707H11.9954V12.9973H31.9967C39.9508 13.0069 47.5764 16.1708 53.2008 21.7952C58.8252 27.4196 61.9892 35.0452 61.9987 42.9993V50.9999C61.9987 51.5303 62.2094 52.0391 62.5845 52.4142C62.9596 52.7893 63.4684 53 63.9988 53H86.0003C89.3642 53.0039 92.6143 54.2189 95.1558 56.4226C97.6974 58.6263 99.3606 61.6714 99.8412 65.0008H94.0008C92.4094 65.0008 90.8832 65.633 89.7579 66.7583C88.6326 67.8836 88.0004 69.4098 88.0004 71.0012C88.0004 72.5926 88.6326 74.1188 89.7579 75.2441C90.8832 76.3694 92.4094 77.0016 94.0008 77.0016H100.001V81.0019H94.0008C92.8962 81.0019 92.0007 81.8974 92.0007 83.002C92.0007 84.1066 92.8962 85.0021 94.0008 85.0021H100.001V89.0024H89.8605C89.8405 88.8424 89.8005 88.7024 89.7805 88.5424C89.7605 88.3824 89.7005 88.1623 89.6605 87.9823C89.6005 87.7223 89.5405 87.4823 89.4605 87.2223C89.4232 87.0465 89.3765 86.8729 89.3205 86.7022C89.2405 86.4422 89.1405 86.1822 89.0405 85.9222C88.9805 85.7822 88.9205 85.6222 88.8605 85.4822C88.7405 85.1821 88.5805 84.8821 88.4405 84.6021C88.3856 84.5061 88.3388 84.4058 88.3004 84.3021C88.0804 83.9221 87.8604 83.562 87.6204 83.202C87.5785 83.1321 87.5317 83.0653 87.4804 83.002C87.2804 82.722 87.0604 82.442 86.8403 82.1619C86.7403 82.0419 86.6403 81.9419 86.5403 81.8219C86.3603 81.6219 86.1803 81.4019 85.9803 81.2019C85.8603 81.0819 85.7403 80.9619 85.6203 80.8618C85.4202 80.6818 85.2402 80.5018 85.0402 80.3218C84.9002 80.2018 84.7602 80.1018 84.6202 80.0018C84.4202 79.8418 84.2202 79.6818 84.0201 79.5418C83.8601 79.4418 83.7001 79.3418 83.5601 79.2417C83.3401 79.1017 83.1401 78.9617 82.9201 78.8417C82.7601 78.7617 82.6001 78.6617 82.42 78.5817C82.2 78.4617 81.98 78.3617 81.74 78.2417C81.58 78.1817 81.42 78.1017 81.24 78.0217C80.9999 77.9417 80.7599 77.8417 80.5199 77.7617C80.3399 77.7016 80.1799 77.6416 79.9999 77.5816C79.7399 77.5216 79.4799 77.4416 79.2198 77.3816L78.6998 77.2616C78.4097 77.2007 78.1156 77.1606 77.8197 77.1416C77.6597 77.1216 77.5197 77.0816 77.3797 77.0616C76.9197 77.0216 76.4596 77.0016 75.9996 77.0016C75.5396 77.0016 75.0796 77.0216 74.6195 77.0616C74.4795 77.0816 74.3395 77.1216 74.1795 77.1416C73.8837 77.1606 73.5896 77.2007 73.2994 77.2616L72.7794 77.3816C72.5194 77.4416 72.2594 77.5216 71.9994 77.5816C71.8193 77.6416 71.6593 77.7016 71.4793 77.7617C71.2393 77.8417 70.9993 77.9417 70.7593 78.0217C70.5793 78.1017 70.4192 78.1817 70.2592 78.2417C70.0192 78.3617 69.7992 78.4617 69.5792 78.5817C69.4065 78.6563 69.2394 78.7432 69.0792 78.8417C68.8591 78.9617 68.6591 79.1017 68.4391 79.2417C68.2991 79.3418 68.1391 79.4418 67.9991 79.5418C67.7842 79.6838 67.5772 79.8373 67.379 80.0018C67.239 80.1018 67.099 80.2018 66.959 80.3218C66.759 80.5018 66.579 80.6818 66.379 80.8618C66.259 80.9619 66.139 81.0819 66.019 81.2019C65.8189 81.4019 65.6389 81.6219 65.4589 81.8219C65.3589 81.9419 65.2589 82.0419 65.1589 82.1619C64.9389 82.442 64.7189 82.722 64.5189 83.022C64.4789 83.082 64.4188 83.142 64.3788 83.202C64.1388 83.562 63.9188 83.9221 63.6988 84.3021C63.6604 84.4058 63.6136 84.5061 63.5588 84.6021C63.4188 84.8821 63.2588 85.1821 63.1388 85.4822C63.0788 85.6222 63.0188 85.7822 62.9588 85.9222C62.8587 86.1822 62.7587 86.4422 62.6787 86.7022C62.6228 86.8729 62.576 87.0465 62.5387 87.2223C62.4587 87.4823 62.3987 87.7223 62.3387 87.9823C62.2987 88.1623 62.2587 88.3624 62.2187 88.5424C62.1787 88.7224 62.1587 88.8424 62.1387 89.0024H11.9954V93.0027H62.1587C62.6369 96.3326 64.2997 99.3785 66.8419 101.582C69.3842 103.785 72.6355 104.998 75.9996 104.998C79.3637 104.998 82.6151 103.785 85.1573 101.582C87.6996 99.3785 89.3623 96.3326 89.8405 93.0027H102.001C102.532 93.0027 103.041 92.7919 103.416 92.4168C103.791 92.0417 104.001 91.533 104.001 91.0025V67.0009C103.994 62.229 102.095 57.6546 98.7209 54.2803C95.3466 50.9061 90.7722 49.0071 86.0003 48.9997ZM74.9996 48.9997H70.7393L97.4811 21.4379C97.6161 21.3023 97.7767 21.1947 97.9534 21.1213C98.1302 21.0479 98.3197 21.0101 98.5111 21.0101C98.7025 21.0101 98.892 21.0479 99.0688 21.1213C99.2456 21.1947 99.4061 21.3023 99.5412 21.4379C99.8306 21.751 99.9914 22.1616 99.9914 22.588C99.9914 23.0143 99.8306 23.425 99.5412 23.7381L74.9996 48.9997ZM75.9996 101.003C74.0217 101.003 72.0882 100.417 70.4435 99.3178C68.7989 98.2189 67.5171 96.657 66.7602 94.8296C66.0033 93.0022 65.8052 90.9914 66.1911 89.0515C66.577 87.1116 67.5295 85.3296 68.9281 83.931C70.3267 82.5324 72.1087 81.5799 74.0486 81.194C75.9885 80.8081 77.9993 81.0062 79.8267 81.7631C81.6541 82.52 83.216 83.8019 84.3149 85.4465C85.4138 87.0911 86.0003 89.0246 86.0003 91.0025C86.0003 93.6549 84.9466 96.1986 83.0712 98.0741C81.1957 99.9496 78.652 101.003 75.9996 101.003ZM100.001 73.0013H94.0008C93.4704 73.0013 92.9616 72.7906 92.5865 72.4155C92.2114 72.0404 92.0007 71.5317 92.0007 71.0012C92.0007 70.4707 92.2114 69.962 92.5865 69.5869C92.9616 69.2118 93.4704 69.0011 94.0008 69.0011H100.001V73.0013ZM59.9986 83.002C59.9986 81.8974 59.1031 81.0019 57.9984 81.0019H11.9954V85.0021H57.9984C59.1031 85.0021 59.9986 84.1066 59.9986 83.002ZM57.9984 50.9999V42.9993C57.9921 36.1052 55.2506 29.4952 50.3757 24.6204C45.5008 19.7455 38.8908 17.004 31.9967 16.9976H11.9954V20.9979H31.9967C37.8307 21.0016 43.4247 23.3208 47.55 27.446C51.6753 31.5713 53.9944 37.1653 53.9982 42.9993V48.9997H11.9954V53H55.9983C56.5288 53 57.0375 52.7893 57.4126 52.4142C57.7877 52.0391 57.9984 51.5303 57.9984 50.9999Z" fill="#200A52"/>
</svg>
