<svg width="114" height="114" viewBox="0 0 114 114" fill="none" xmlns="http://www.w3.org/2000/svg">
<path d="M27.7624 14.2496L23.1563 18.8557C22.4606 19.5513 22.4606 20.6791 23.1563 21.3748C23.8519 22.0704 24.9797 22.0704 25.6753 21.3748L30.2814 16.7687C30.9771 16.073 30.9771 14.9452 30.2814 14.2496C29.5858 13.554 28.458 13.554 27.7624 14.2496Z" fill="#44E0B7"/>
<path d="M34.2125 19.9628L33.4745 19.2247C32.9826 18.7329 32.1853 18.7329 31.6935 19.2247C31.2017 19.7165 31.2017 20.5139 31.6935 21.0057L32.4316 21.7438C32.9234 22.2356 33.7207 22.2356 34.2125 21.7438C34.7043 21.252 34.7043 20.4546 34.2125 19.9628Z" fill="#44E0B7"/>
<path d="M36.6679 14.2493L35.625 15.2922C34.9294 15.9878 34.9294 17.1157 35.625 17.8113C36.3206 18.5069 37.4485 18.5069 38.1441 17.8113L39.187 16.7684C39.8826 16.0728 39.8826 14.945 39.187 14.2493C38.4914 13.5537 37.3635 13.5537 36.6679 14.2493Z" fill="#44E0B7"/>
<path d="M7.125 40.9688C7.125 42.7302 7.64734 44.4522 8.62597 45.9168C9.60461 47.3814 10.9956 48.523 12.623 49.1971C14.2504 49.8711 16.0411 50.0475 17.7688 49.7039C19.4964 49.3602 21.0834 48.512 22.3289 47.2664C23.5745 46.0209 24.4227 44.4339 24.7664 42.7063C25.11 40.9786 24.9336 39.1879 24.2596 37.5605C23.5855 35.9331 22.4439 34.5421 20.9793 33.5635C19.5147 32.5848 17.7927 32.0625 16.0313 32.0625C13.67 32.0653 11.4063 33.0046 9.7367 34.6742C8.06707 36.3438 7.12783 38.6075 7.125 40.9688ZM21.375 40.9688C21.375 42.0256 21.0616 43.0588 20.4744 43.9376C19.8872 44.8164 19.0527 45.5013 18.0762 45.9057C17.0998 46.3102 16.0253 46.416 14.9887 46.2098C13.9522 46.0036 13 45.4947 12.2526 44.7474C11.5053 44 10.9964 43.0479 10.7902 42.0113C10.584 40.9747 10.6898 39.9002 11.0943 38.9238C11.4987 37.9473 12.1836 37.1128 13.0624 36.5256C13.9412 35.9384 14.9744 35.625 16.0313 35.625C17.4485 35.625 18.8077 36.188 19.8099 37.1901C20.812 38.1923 21.375 39.5515 21.375 40.9688Z" fill="#44E0B7"/>
<path d="M48.0938 49.875C49.8552 49.875 51.5772 49.3527 53.0418 48.374C54.5064 47.3954 55.648 46.0044 56.3221 44.377C56.9961 42.7496 57.1725 40.9589 56.8289 39.2312C56.4852 37.5036 55.637 35.9166 54.3914 34.6711C53.1459 33.4255 51.5589 32.5773 49.8313 32.2336C48.1036 31.89 46.3129 32.0664 44.6855 32.7405C43.0581 33.4145 41.6671 34.5561 40.6885 36.0207C39.7098 37.4853 39.1875 39.2073 39.1875 40.9688C39.1903 43.33 40.1296 45.5937 41.7992 47.2633C43.4688 48.9329 45.7325 49.8722 48.0938 49.875ZM48.0938 35.625C49.1506 35.625 50.1838 35.9384 51.0626 36.5256C51.9414 37.1128 52.6263 37.9473 53.0307 38.9238C53.4352 39.9002 53.541 40.9747 53.3348 42.0113C53.1286 43.0479 52.6197 44 51.8724 44.7474C51.125 45.4947 50.1729 46.0036 49.1363 46.2098C48.0997 46.416 47.0252 46.3102 46.0488 45.9057C45.0723 45.5013 44.2378 44.8164 43.6506 43.9376C43.0634 43.0588 42.75 42.0257 42.75 40.9688C42.75 39.5515 43.313 38.1923 44.3151 37.1902C45.3173 36.188 46.6765 35.625 48.0938 35.625Z" fill="#44E0B7"/>
<path d="M33.8438 35.625H30.2812C29.2975 35.625 28.5 36.4225 28.5 37.4062C28.5 38.39 29.2975 39.1875 30.2812 39.1875H33.8438C34.8275 39.1875 35.625 38.39 35.625 37.4062C35.625 36.4225 34.8275 35.625 33.8438 35.625Z" fill="#44E0B7"/>
<path d="M33.8438 42.75H30.2812C29.2975 42.75 28.5 43.5475 28.5 44.5312C28.5 45.515 29.2975 46.3125 30.2812 46.3125H33.8438C34.8275 46.3125 35.625 45.515 35.625 44.5312C35.625 43.5475 34.8275 42.75 33.8438 42.75Z" fill="#44E0B7"/>
<path d="M49.466 27.8516C49.6332 27.6489 49.7534 27.4117 49.8181 27.157C49.8827 26.9023 49.8903 26.6365 49.8401 26.3785L47.9146 16.53C47.3802 11.1684 43.5808 7.125 39.076 7.125H25.0469C20.5421 7.125 16.7427 11.1684 16.2297 16.3679L14.2828 26.3785C14.2326 26.6364 14.2401 26.9021 14.3047 27.1567C14.3693 27.4113 14.4894 27.6485 14.6563 27.8512C14.8233 28.054 15.0331 28.2173 15.2706 28.3294C15.5081 28.4416 15.7675 28.4998 16.0302 28.5H48.0927C48.3553 28.4998 48.6145 28.4416 48.8519 28.3295C49.0894 28.2174 49.2991 28.0542 49.466 27.8516ZM18.1891 24.9375L19.7494 16.8845C20.1039 13.3594 22.3804 10.6875 25.0469 10.6875H39.076C41.7479 10.6875 44.019 13.3594 44.3966 17.0483L45.932 24.9375H18.1891Z" fill="#44E0B7"/>
<path d="M53.4376 56.0648C56.5591 54.959 59.2619 52.9145 61.1754 50.2117C63.0889 47.5089 64.1192 44.2803 64.1251 40.9688H60.5626C60.5588 44.2745 59.2439 47.4438 56.9064 49.7813C54.5689 52.1189 51.3996 53.4337 48.0938 53.4375H16.0313C13.2654 53.4402 10.5771 52.5231 8.38945 50.8306C6.20181 49.1381 4.63903 46.7662 3.94705 44.0882C3.25506 41.4102 3.47315 38.5782 4.567 36.0377C5.66084 33.4973 7.56834 31.3926 9.98933 30.055C10.2318 29.9178 10.4386 29.7256 10.5933 29.4939C10.748 29.2622 10.8462 28.9974 10.88 28.7209L12.6612 14.4869C13.0423 11.4709 14.5102 8.69742 16.7899 6.68631C19.0696 4.6752 22.0045 3.56453 25.0445 3.5625H39.0807C42.1197 3.56632 45.0531 4.67801 47.3313 6.68933C49.6095 8.70064 51.0763 11.4736 51.4568 14.4887L53.2381 28.7209C53.2719 28.9974 53.37 29.2622 53.5247 29.4939C53.6794 29.7256 53.8863 29.9178 54.1287 30.055C54.9149 30.4954 55.6518 31.0185 56.3268 31.6154L58.6869 28.9435C58.0515 28.382 57.3732 27.871 56.6581 27.4152L56.5761 26.7188H57.0001C57.9838 26.7188 58.7813 25.9213 58.7813 24.9375C58.7813 23.9537 57.9838 23.1562 57.0001 23.1562H56.1326L55.6873 19.5938H57.0001C57.9838 19.5938 58.7813 18.7963 58.7813 17.8125C58.7813 16.8287 57.9838 16.0312 57.0001 16.0312H55.2384L54.9908 14.0469C54.5023 10.1705 52.6169 6.60531 49.688 4.01942C46.7591 1.43353 42.9878 0.00444859 39.0807 0L25.0445 0C21.1376 0.00439362 17.3665 1.43322 14.4377 4.01875C11.5088 6.60428 9.62327 10.1691 9.13433 14.0452L8.88495 16.0312H5.34383C4.64558 16.026 3.95339 16.1611 3.30836 16.4285C2.66334 16.6959 2.07863 17.0903 1.58895 17.5881C1.08278 18.0798 0.681129 18.6687 0.408102 19.3194C0.135074 19.9701 -0.00370924 20.6693 7.5369e-05 21.375C7.5369e-05 22.7923 0.563076 24.1515 1.56522 25.1536C2.56737 26.1558 3.92657 26.7188 5.34383 26.7188H7.54901L7.45995 27.417C4.91745 29.0245 2.87887 31.3152 1.5775 34.0272C0.276139 36.7391 -0.235431 39.7627 0.101339 42.7518C0.43811 45.7409 1.60961 48.5748 3.48178 50.9292C5.35395 53.2836 7.85114 55.0634 10.6876 56.0648V62.3438C10.6876 63.761 11.2506 65.1202 12.2527 66.1224C13.2549 67.1245 14.6141 67.6875 16.0313 67.6875C17.4486 67.6875 18.8078 67.1245 19.8099 66.1224C20.8121 65.1202 21.3751 63.761 21.3751 62.3438V57H42.7501V62.3438C42.7501 63.761 43.3131 65.1202 44.3152 66.1224C45.3174 67.1245 46.6766 67.6875 48.0938 67.6875C49.5111 67.6875 50.8703 67.1245 51.8724 66.1224C52.8746 65.1202 53.4376 63.761 53.4376 62.3438V56.0648ZM3.56258 21.375C3.56181 21.1376 3.60978 20.9025 3.70354 20.6843C3.7973 20.4662 3.93483 20.2696 4.10764 20.1068C4.26842 19.9423 4.46083 19.812 4.67328 19.7239C4.88573 19.6357 5.11382 19.5914 5.34383 19.5938H8.43786L7.99254 23.1562H5.34383C4.87141 23.1562 4.41834 22.9686 4.08429 22.6345C3.75024 22.3005 3.56258 21.8474 3.56258 21.375ZM17.8126 62.3438C17.8126 62.8162 17.6249 63.2692 17.2909 63.6033C16.9568 63.9373 16.5037 64.125 16.0313 64.125C15.5589 64.125 15.1058 63.9373 14.7718 63.6033C14.4377 63.2692 14.2501 62.8162 14.2501 62.3438V57H17.8126V62.3438ZM49.8751 62.3438C49.8751 62.8162 49.6874 63.2692 49.3534 63.6033C49.0193 63.9373 48.5662 64.125 48.0938 64.125C47.6214 64.125 47.1683 63.9373 46.8343 63.6033C46.5002 63.2692 46.3126 62.8162 46.3126 62.3438V57H49.8751V62.3438Z" fill="#44E0B7"/>
<path d="M97.9688 53.4379H90.8438V44.6207C93.515 43.2954 95.7636 41.2514 97.3369 38.7183C98.9103 36.1852 99.7459 33.2635 99.75 30.2816V28.5004H101.531C102.949 28.5004 104.308 27.9374 105.31 26.9352C106.312 25.9331 106.875 24.5739 106.875 23.1566V19.5941C106.875 18.1769 106.312 16.8177 105.31 15.8155C104.308 14.8134 102.949 14.2504 101.531 14.2504H99.6449C99.1951 10.3418 97.3237 6.73501 94.387 4.1168C91.4502 1.49859 87.6532 0.0517578 83.7188 0.0517578C79.7843 0.0517578 75.9873 1.49859 73.0505 4.1168C70.1138 6.73501 68.2424 10.3418 67.7926 14.2504H65.9062C64.489 14.2504 63.1298 14.8134 62.1277 15.8155C61.1255 16.8177 60.5625 18.1769 60.5625 19.5941V30.2816C60.5653 32.6428 61.5046 34.9065 63.1742 36.5762C64.8438 38.2458 67.1075 39.1851 69.4688 39.1879H70.3986C71.9586 41.5045 74.0933 43.3765 76.5938 44.6207V53.4379H69.4688C65.2184 53.4426 61.1436 55.1331 58.1382 58.1385C55.1327 61.144 53.4422 65.2188 53.4375 69.4691V112.219C53.4375 112.692 53.6252 113.145 53.9592 113.479C54.2933 113.813 54.7463 114 55.2188 114H112.219C112.691 114 113.144 113.813 113.478 113.479C113.812 113.145 114 112.692 114 112.219V69.4691C113.995 65.2188 112.305 61.144 109.299 58.1385C106.294 55.1331 102.219 53.4426 97.9688 53.4379ZM78.375 57.0004H90.1063L83.7188 63.3879L77.3312 57.0004H78.375ZM103.312 19.5941V23.1566C103.312 23.629 103.125 24.0821 102.791 24.4162C102.457 24.7502 102.004 24.9379 101.531 24.9379H99.75V17.8129H101.531C102.004 17.8129 102.457 18.0005 102.791 18.3346C103.125 18.6686 103.312 19.1217 103.312 19.5941ZM83.7188 3.56288C86.7162 3.56661 89.6123 4.6483 91.8782 6.61045C94.1442 8.57259 95.6288 11.2843 96.061 14.2504H71.3765C71.8087 11.2843 73.2933 8.57259 75.5593 6.61045C77.8252 4.6483 80.7213 3.56661 83.7188 3.56288ZM64.125 19.5941C64.125 19.1217 64.3127 18.6686 64.6467 18.3346C64.9808 18.0005 65.4338 17.8129 65.9062 17.8129H67.6875V24.9379H65.9062C65.4338 24.9379 64.9808 24.7502 64.6467 24.4162C64.3127 24.0821 64.125 23.629 64.125 23.1566V19.5941ZM64.125 30.2816V28.1726C64.6955 28.3836 65.2981 28.4945 65.9062 28.5004H67.6875V30.2816C67.6909 32.0715 67.9962 33.848 68.5906 35.5363C67.3456 35.3289 66.2141 34.6875 65.3968 33.7257C64.5794 32.7639 64.1289 31.5438 64.125 30.2816ZM72.4702 35.6254C71.6686 33.9579 71.2516 32.1318 71.25 30.2816V17.8129H96.1875V30.2816C96.1894 32.7359 95.4664 35.136 94.1092 37.1808C92.752 39.2256 90.821 40.824 88.5587 41.7754C86.2964 42.7267 83.8034 42.9887 81.3927 42.5284C78.9821 42.068 76.761 40.9059 75.0084 39.1879H81.9375C82.9213 39.1879 83.7188 38.3904 83.7188 37.4066C83.7188 36.4229 82.9213 35.6254 81.9375 35.6254H72.4702ZM80.1562 46.3129H87.2812V53.4379H80.1562V46.3129ZM110.438 110.438H103.312V74.8129H99.75V110.438H67.6875V74.8129H64.125V110.438H57V69.4691C57.0038 66.1634 58.3186 62.9941 60.6562 60.6566C62.9937 58.319 66.163 57.0042 69.4688 57.0004H72.2938L82.4594 67.166C82.7934 67.4999 83.2464 67.6875 83.7188 67.6875C84.1911 67.6875 84.6441 67.4999 84.9781 67.166L95.1437 57.0004H97.9688C101.275 57.0042 104.444 58.319 106.781 60.6566C109.119 62.9941 110.434 66.1634 110.438 69.4691V110.438Z" fill="#200A52"/>
<path d="M94.4062 74.8125H89.0625C88.0787 74.8125 87.2812 75.61 87.2812 76.5938C87.2812 77.5775 88.0787 78.375 89.0625 78.375H94.4062C95.39 78.375 96.1875 77.5775 96.1875 76.5938C96.1875 75.61 95.39 74.8125 94.4062 74.8125Z" fill="#200A52"/>
</svg>
