<svg width="152" height="114" viewBox="0 0 152 114" fill="none" xmlns="http://www.w3.org/2000/svg">
<path d="M132.188 18.25H130.25V16.3125C130.25 14.7709 129.638 13.2925 128.548 12.2024C127.457 11.1124 125.979 10.5 124.438 10.5C122.896 10.5 121.418 11.1124 120.327 12.2024C119.237 13.2925 118.625 14.7709 118.625 16.3125V18.25H114.75V16.3125C114.75 14.7709 114.138 13.2925 113.048 12.2024C111.957 11.1124 110.479 10.5 108.938 10.5C107.396 10.5 105.918 11.1124 104.827 12.2024C103.737 13.2925 103.125 14.7709 103.125 16.3125V18.25H99.25V16.3125C99.25 14.7709 98.6376 13.2925 97.5476 12.2024C96.4575 11.1124 94.9791 10.5 93.4375 10.5C91.8959 10.5 90.4175 11.1124 89.3274 12.2024C88.2374 13.2925 87.625 14.7709 87.625 16.3125V18.25H64.375V16.3125C64.375 14.7709 63.7626 13.2925 62.6726 12.2024C61.5825 11.1124 60.1041 10.5 58.5625 10.5C57.0209 10.5 55.5425 11.1124 54.4524 12.2024C53.3624 13.2925 52.75 14.7709 52.75 16.3125V18.25H48.875V16.3125C48.875 14.7709 48.2626 13.2925 47.1726 12.2024C46.0825 11.1124 44.6041 10.5 43.0625 10.5C41.5209 10.5 40.0425 11.1124 38.9524 12.2024C37.8624 13.2925 37.25 14.7709 37.25 16.3125V18.25H33.375V16.3125C33.375 14.7709 32.7626 13.2925 31.6726 12.2024C30.5825 11.1124 29.1041 10.5 27.5625 10.5C26.0209 10.5 24.5425 11.1124 23.4524 12.2024C22.3624 13.2925 21.75 14.7709 21.75 16.3125V18.25H19.8125C18.2709 18.25 16.7925 18.8624 15.7024 19.9524C14.6124 21.0425 14 22.5209 14 24.0625V35.6875C14 36.2014 14.2041 36.6942 14.5675 37.0575C14.9308 37.4209 15.4236 37.625 15.9375 37.625H128.312C128.826 37.625 129.319 37.4209 129.683 37.0575C130.046 36.6942 130.25 36.2014 130.25 35.6875C130.25 35.1736 130.046 34.6808 129.683 34.3175C129.319 33.9541 128.826 33.75 128.312 33.75H17.875V24.0625C17.875 23.5486 18.0791 23.0558 18.4425 22.6925C18.8058 22.3291 19.2986 22.125 19.8125 22.125H21.75V24.0625C21.75 25.6041 22.3624 27.0825 23.4524 28.1726C24.5425 29.2626 26.0209 29.875 27.5625 29.875C29.1041 29.875 30.5825 29.2626 31.6726 28.1726C32.7626 27.0825 33.375 25.6041 33.375 24.0625V22.125H37.25V24.0625C37.25 25.6041 37.8624 27.0825 38.9524 28.1726C40.0425 29.2626 41.5209 29.875 43.0625 29.875C44.6041 29.875 46.0825 29.2626 47.1726 28.1726C48.2626 27.0825 48.875 25.6041 48.875 24.0625V22.125H52.75V24.0625C52.75 25.6041 53.3624 27.0825 54.4524 28.1726C55.5425 29.2626 57.0209 29.875 58.5625 29.875C60.1041 29.875 61.5825 29.2626 62.6726 28.1726C63.7626 27.0825 64.375 25.6041 64.375 24.0625V22.125H87.625V24.0625C87.625 25.6041 88.2374 27.0825 89.3274 28.1726C90.4175 29.2626 91.8959 29.875 93.4375 29.875C94.9791 29.875 96.4575 29.2626 97.5476 28.1726C98.6376 27.0825 99.25 25.6041 99.25 24.0625V22.125H103.125V24.0625C103.125 25.6041 103.737 27.0825 104.827 28.1726C105.918 29.2626 107.396 29.875 108.938 29.875C110.479 29.875 111.957 29.2626 113.048 28.1726C114.138 27.0825 114.75 25.6041 114.75 24.0625V22.125H118.625V24.0625C118.625 25.6041 119.237 27.0825 120.327 28.1726C121.418 29.2626 122.896 29.875 124.438 29.875C125.979 29.875 127.457 29.2626 128.548 28.1726C129.638 27.0825 130.25 25.6041 130.25 24.0625V22.125H132.188C132.701 22.125 133.194 22.3291 133.558 22.6925C133.921 23.0558 134.125 23.5486 134.125 24.0625V97.6875C134.125 98.2014 133.921 98.6942 133.558 99.0575C133.194 99.4209 132.701 99.625 132.188 99.625H19.8125C19.2986 99.625 18.8058 99.4209 18.4425 99.0575C18.0791 98.6942 17.875 98.2014 17.875 97.6875V43.4375C17.875 42.9236 17.6709 42.4308 17.3075 42.0675C16.9442 41.7041 16.4514 41.5 15.9375 41.5C15.4236 41.5 14.9308 41.7041 14.5675 42.0675C14.2041 42.4308 14 42.9236 14 43.4375V97.6875C14 99.2291 14.6124 100.707 15.7024 101.798C16.7925 102.888 18.2709 103.5 19.8125 103.5H132.188C133.729 103.5 135.207 102.888 136.298 101.798C137.388 100.707 138 99.2291 138 97.6875V24.0625C138 22.5209 137.388 21.0425 136.298 19.9524C135.207 18.8624 133.729 18.25 132.188 18.25ZM29.5 24.0625C29.5 24.5764 29.2959 25.0692 28.9325 25.4325C28.5692 25.7959 28.0764 26 27.5625 26C27.0486 26 26.5558 25.7959 26.1925 25.4325C25.8291 25.0692 25.625 24.5764 25.625 24.0625V16.3125C25.625 15.7986 25.8291 15.3058 26.1925 14.9425C26.5558 14.5791 27.0486 14.375 27.5625 14.375C28.0764 14.375 28.5692 14.5791 28.9325 14.9425C29.2959 15.3058 29.5 15.7986 29.5 16.3125V24.0625ZM45 24.0625C45 24.5764 44.7959 25.0692 44.4325 25.4325C44.0692 25.7959 43.5764 26 43.0625 26C42.5486 26 42.0558 25.7959 41.6925 25.4325C41.3291 25.0692 41.125 24.5764 41.125 24.0625V16.3125C41.125 15.7986 41.3291 15.3058 41.6925 14.9425C42.0558 14.5791 42.5486 14.375 43.0625 14.375C43.5764 14.375 44.0692 14.5791 44.4325 14.9425C44.7959 15.3058 45 15.7986 45 16.3125V24.0625ZM60.5 24.0625C60.5 24.5764 60.2959 25.0692 59.9325 25.4325C59.5692 25.7959 59.0764 26 58.5625 26C58.0486 26 57.5558 25.7959 57.1925 25.4325C56.8291 25.0692 56.625 24.5764 56.625 24.0625V16.3125C56.625 15.7986 56.8291 15.3058 57.1925 14.9425C57.5558 14.5791 58.0486 14.375 58.5625 14.375C59.0764 14.375 59.5692 14.5791 59.9325 14.9425C60.2959 15.3058 60.5 15.7986 60.5 16.3125V24.0625ZM95.375 24.0625C95.375 24.5764 95.1709 25.0692 94.8075 25.4325C94.4442 25.7959 93.9514 26 93.4375 26C92.9236 26 92.4308 25.7959 92.0675 25.4325C91.7041 25.0692 91.5 24.5764 91.5 24.0625V16.3125C91.5 15.7986 91.7041 15.3058 92.0675 14.9425C92.4308 14.5791 92.9236 14.375 93.4375 14.375C93.9514 14.375 94.4442 14.5791 94.8075 14.9425C95.1709 15.3058 95.375 15.7986 95.375 16.3125V24.0625ZM110.875 24.0625C110.875 24.5764 110.671 25.0692 110.308 25.4325C109.944 25.7959 109.451 26 108.938 26C108.424 26 107.931 25.7959 107.567 25.4325C107.204 25.0692 107 24.5764 107 24.0625V16.3125C107 15.7986 107.204 15.3058 107.567 14.9425C107.931 14.5791 108.424 14.375 108.938 14.375C109.451 14.375 109.944 14.5791 110.308 14.9425C110.671 15.3058 110.875 15.7986 110.875 16.3125V24.0625ZM126.375 24.0625C126.375 24.5764 126.171 25.0692 125.808 25.4325C125.444 25.7959 124.951 26 124.438 26C123.924 26 123.431 25.7959 123.067 25.4325C122.704 25.0692 122.5 24.5764 122.5 24.0625V16.3125C122.5 15.7986 122.704 15.3058 123.067 14.9425C123.431 14.5791 123.924 14.375 124.438 14.375C124.951 14.375 125.444 14.5791 125.808 14.9425C126.171 15.3058 126.375 15.7986 126.375 16.3125V24.0625Z" fill="#200A52"/>
<path d="M46.9375 93.8125H116.688C117.201 93.8125 117.694 93.6084 118.058 93.245C118.421 92.8817 118.625 92.3889 118.625 91.875V45.375C118.625 44.8611 118.421 44.3683 118.058 44.005C117.694 43.6416 117.201 43.4375 116.688 43.4375H35.3125C34.7986 43.4375 34.3058 43.6416 33.9425 44.005C33.5791 44.3683 33.375 44.8611 33.375 45.375V91.875C33.375 92.3889 33.5791 92.8817 33.9425 93.245C34.3058 93.6084 34.7986 93.8125 35.3125 93.8125H46.9375ZM98.1146 66.6875L103.125 61.6771V66.6875H98.1146ZM86.4896 66.6875L91.5 61.6771V66.6875H86.4896ZM74.8646 66.6875L79.875 61.6771V66.6875H74.8646ZM63.2396 66.6875L68.25 61.6771V66.6875H63.2396ZM51.6146 66.6875L56.625 61.6771V66.6875H51.6146ZM53.8854 70.5625L48.875 75.5729V70.5625H53.8854ZM45 78.3125H39.9896L45 73.3021V78.3125ZM56.625 73.3021V78.3125H51.6146L56.625 73.3021ZM60.5 70.5625H68.25V78.3125H60.5V70.5625ZM72.125 70.5625H79.875V78.3125H72.125V70.5625ZM83.75 70.5625H91.5V78.3125H83.75V70.5625ZM95.375 70.5625H103.125V78.3125H95.375V70.5625ZM107 70.5625H114.75V78.3125H107V70.5625ZM114.75 66.6875H109.74L114.75 61.6771V66.6875ZM107 63.9479V58.9375H112.01L107 63.9479ZM95.375 63.9479V58.9375H100.385L95.375 63.9479ZM83.75 63.9479V58.9375H88.7604L83.75 63.9479ZM72.125 63.9479V58.9375H77.1354L72.125 63.9479ZM60.5 63.9479V58.9375H65.5104L60.5 63.9479ZM48.875 63.9479V58.9375H53.8854L48.875 63.9479ZM45 66.6875H37.25V58.9375H45V66.6875ZM37.25 70.5625H42.2604L37.25 75.5729V70.5625ZM37.25 82.1875H45V89.9375H37.25V82.1875ZM48.875 82.1875H56.625V89.9375H48.875V82.1875ZM60.5 82.1875H68.25V89.9375H60.5V82.1875ZM72.125 82.1875H79.875V89.9375H72.125V82.1875ZM83.75 82.1875H91.5V89.9375H83.75V82.1875ZM95.375 82.1875H103.125V89.9375H95.375V82.1875ZM114.75 89.9375H107V82.1875H114.75V89.9375ZM114.75 55.0625H107V47.3125H114.75V55.0625ZM103.125 55.0625H95.375V47.3125H103.125V55.0625ZM91.5 55.0625H83.75V47.3125H91.5V55.0625ZM79.875 55.0625H72.125V47.3125H79.875V55.0625ZM68.25 55.0625H60.5V47.3125H68.25V55.0625ZM56.625 55.0625H48.875V47.3125H56.625V55.0625ZM37.25 47.3125H45V55.0625H37.25V47.3125Z" fill="#44E0B7"/>
</svg>
