<svg width="114" height="114" viewBox="0 0 114 114" fill="none" xmlns="http://www.w3.org/2000/svg">
<g clip-path="url(#clip0)">
<path d="M108.656 74.8133H103.776C103.038 73.5996 102.185 72.4603 101.228 71.4111C101.884 70.8308 102.409 70.1178 102.768 69.3194C103.127 68.521 103.313 67.6553 103.312 66.7798V59.6904C103.319 58.459 102.956 57.2539 102.27 56.2312C101.584 55.2085 100.607 54.4155 99.465 53.9548C98.3095 53.4536 97.0305 53.3096 95.7925 53.5413C94.5545 53.7731 93.4141 54.3699 92.5181 55.2551C91.3144 54.0898 89.7047 53.4383 88.0294 53.4383C86.354 53.4383 84.7443 54.0898 83.5406 55.2551L77.9475 60.7058C76.8075 60.5989 75.7922 60.5633 74.8125 60.5633C57.8906 60.5633 44.0147 70.7876 42.8391 83.7195H33.8438C33.3713 83.7195 32.9183 83.5318 32.5842 83.1978C32.2502 82.8637 32.0625 82.4107 32.0625 81.9383V80.157C32.0625 79.6846 32.2502 79.2315 32.5842 78.8975C32.9183 78.5634 33.3713 78.3758 33.8438 78.3758C34.8275 78.3758 35.625 77.5783 35.625 76.5945C35.625 75.6108 34.8275 74.8133 33.8438 74.8133C32.4278 74.8175 31.0711 75.3818 30.0698 76.3831C29.0686 77.3843 28.5042 78.7411 28.5 80.157V81.9383C28.5042 83.3542 29.0686 84.711 30.0698 85.7122C31.0711 86.7134 32.4278 87.2778 33.8438 87.282H42.8391C43.5159 94.977 48.6994 101.906 57 106.217V108.657C57.0042 110.073 57.5686 111.43 58.5698 112.431C59.5711 113.432 60.9278 113.997 62.3438 114.001H65.9062C67.0451 113.999 68.1535 113.633 69.0699 112.957C69.9863 112.281 70.6628 111.33 71.0006 110.242C73.5352 110.498 76.0887 110.504 78.6244 110.26C78.9673 111.343 79.6456 112.289 80.5613 112.962C81.477 113.634 82.5827 113.998 83.7188 114.001H87.2812C88.6972 113.997 90.0539 113.432 91.0552 112.431C92.0564 111.43 92.6208 110.073 92.625 108.657V106.235C97.1978 103.972 101.061 100.497 103.793 96.1883H108.656C110.072 96.184 111.429 95.6197 112.43 94.6184C113.431 93.6172 113.996 92.2605 114 90.8445V80.157C113.996 78.7411 113.431 77.3843 112.43 76.3831C111.429 75.3818 110.072 74.8175 108.656 74.8133ZM94.9941 57.8023C95.3924 57.4111 95.8986 57.1478 96.4477 57.0462C96.9968 56.9447 97.5637 57.0095 98.0756 57.2323C98.5717 57.423 98.9978 57.7605 99.297 58.1997C99.5962 58.6389 99.7542 59.159 99.75 59.6904V66.7798C99.747 67.189 99.6488 67.5919 99.4633 67.9567C99.2779 68.3215 99.0101 68.6382 98.6813 68.8817C97.3529 67.7214 95.9221 66.684 94.4062 65.7823V59.6904C94.4098 59.2892 94.368 58.8889 94.2816 58.497L94.9941 57.8023ZM110.438 90.8445C110.438 91.3169 110.25 91.77 109.916 92.104C109.582 92.4381 109.129 92.6258 108.656 92.6258H102.76C102.441 92.6282 102.127 92.7152 101.852 92.8779C101.577 93.0406 101.349 93.2731 101.193 93.552C98.6113 97.9487 94.7271 101.434 90.0778 103.527C89.7723 103.668 89.514 103.895 89.3339 104.179C89.1538 104.463 89.0596 104.794 89.0625 105.13V108.657C89.0625 109.129 88.8748 109.582 88.5408 109.917C88.2067 110.251 87.7537 110.438 87.2812 110.438H83.7188C83.2463 110.438 82.7933 110.251 82.4592 109.917C82.1252 109.582 81.9375 109.129 81.9375 108.657V108.283C81.9394 108.03 81.8862 107.779 81.7817 107.548C81.6771 107.318 81.5236 107.112 81.3319 106.947C81.0052 106.664 80.5885 106.506 80.1562 106.502C80.0727 106.499 79.9892 106.505 79.9069 106.52C76.5274 107.003 73.0959 106.997 69.7181 106.502C69.464 106.472 69.2064 106.494 68.9613 106.568C68.7162 106.641 68.4888 106.764 68.2931 106.929C68.1009 107.098 67.9472 107.306 67.8427 107.54C67.7382 107.774 67.6853 108.027 67.6875 108.283V108.657C67.6875 109.129 67.4998 109.582 67.1658 109.917C66.8317 110.251 66.3787 110.438 65.9062 110.438H62.3438C61.8713 110.438 61.4183 110.251 61.0842 109.917C60.7502 109.582 60.5625 109.129 60.5625 108.657V105.112C60.5616 104.777 60.4657 104.448 60.2861 104.164C60.1064 103.881 59.8503 103.654 59.5472 103.509C51.2644 99.537 46.3125 92.8039 46.3125 85.5008C46.3125 73.8158 58.8525 64.2861 74.385 64.1436L70.2347 68.187L68.4 69.9683L70.8759 72.5333L72.7106 70.752L79.9069 63.7695L80.0494 63.627L86.0166 57.8201C86.4254 57.4219 86.9429 57.1536 87.504 57.0489C88.065 56.9443 88.6445 57.0081 89.1694 57.2323C89.4652 57.3555 89.7366 57.5304 89.9709 57.7489C90.2477 57.9906 90.4689 58.2892 90.6196 58.6243C90.7702 58.9594 90.8467 59.3231 90.8438 59.6904V66.7976C90.8436 66.9712 90.8257 67.1443 90.7903 67.3142C90.6437 67.9338 90.2904 68.485 89.7884 68.8768C89.2865 69.2686 88.6661 69.4777 88.0294 69.4695H87.2812V73.032H88.0294C89.2028 73.0341 90.3544 72.7149 91.3593 72.1088C92.3641 71.5028 93.1838 70.6331 93.7294 69.5942C95.2136 70.5563 96.5823 71.6859 97.8084 72.9608C99.1401 74.2921 100.279 75.803 101.193 77.4495C101.344 77.7292 101.567 77.9629 101.84 78.126C102.113 78.289 102.425 78.3753 102.743 78.3758H108.656C109.129 78.3758 109.582 78.5634 109.916 78.8975C110.25 79.2315 110.438 79.6846 110.438 80.157V90.8445Z" fill="#44E0B7"/>
<path d="M78.5353 18.1331L65.7459 5.18344C65.2406 4.67139 64.6389 4.26451 63.9754 3.9863C63.312 3.70809 62.6 3.56405 61.8806 3.5625H26.7188V1.78125C26.7188 1.30883 26.5311 0.855765 26.197 0.521716C25.863 0.187667 25.4099 0 24.9375 0L0 0V3.5625H14.25V24.9375H0V28.5H24.9375C25.4099 28.5 25.863 28.3123 26.197 27.9783C26.5311 27.6442 26.7188 27.1912 26.7188 26.7188V24.9375H31.3322L37.3706 30.9759C35.0852 33.8046 33.8402 37.3322 33.8438 40.9688C33.8438 45.2205 35.5328 49.2981 38.5392 52.3046C41.5456 55.311 45.6233 57 49.875 57C54.1268 57 58.2044 55.311 61.2108 52.3046C64.2172 49.2981 65.9063 45.2205 65.9063 40.9688C65.9099 39.6476 65.7483 38.3311 65.4253 37.05C66.8072 36.9989 68.1183 36.4261 69.0947 35.4469L78.5353 25.8638C79.5471 24.8316 80.1138 23.4438 80.1138 21.9984C80.1138 20.5531 79.5471 19.1653 78.5353 18.1331ZM23.1563 24.9375H17.8125V3.5625H23.1563V24.9375ZM49.875 53.4375C47.5602 53.4403 45.2905 52.798 43.3205 51.5826C41.3505 50.3672 39.7581 48.6268 38.7222 46.5568C37.6863 44.4868 37.2477 42.169 37.4558 39.8636C37.6638 37.5582 38.5102 35.3564 39.9 33.5053L40.755 34.3603C41.3148 34.9203 41.9981 35.3413 42.75 35.5894V40.9688C42.75 41.4412 42.9377 41.8942 43.2717 42.2283C43.6058 42.5623 44.0588 42.75 44.5313 42.75H48.0938V46.3125H46.3125C46.3125 45.3287 45.515 44.5312 44.5313 44.5312C43.5475 44.5312 42.75 45.3287 42.75 46.3125V48.0938C42.75 48.5662 42.9377 49.0192 43.2717 49.3533C43.6058 49.6873 44.0588 49.875 44.5313 49.875H48.0938C48.0938 50.8588 48.8912 51.6562 49.875 51.6562C50.8588 51.6562 51.6563 50.8588 51.6563 49.875H55.2188C55.6912 49.875 56.1442 49.6873 56.4783 49.3533C56.8123 49.0192 57 48.5662 57 48.0938V40.9688C57 40.4963 56.8123 40.0433 56.4783 39.7092C56.1442 39.3752 55.6912 39.1875 55.2188 39.1875H51.6563V35.625H53.4375C53.4375 36.6088 54.235 37.4062 55.2188 37.4062C56.2025 37.4062 57 36.6088 57 35.625V33.8438C57 33.3713 56.8123 32.9183 56.4783 32.5842C56.1442 32.2502 55.6912 32.0625 55.2188 32.0625H51.6563V31.7597C51.6563 30.9432 50.9943 30.2812 50.1778 30.2812C50.1757 29.6749 50.0734 29.073 49.875 28.5C51.918 28.5045 53.9289 29.0083 55.7327 29.9676C57.5364 30.9269 59.0783 32.3126 60.2241 34.0041L60.3844 34.2712C61.668 36.2689 62.3483 38.5943 62.3438 40.9688C62.34 44.2745 61.0251 47.4438 58.6876 49.7813C56.3501 52.1189 53.1808 53.4337 49.875 53.4375ZM48.0938 35.625V39.1875H46.3125V35.625H48.0938ZM47.2566 25.1512L44.5313 22.4259V17.8125H61.6491L66.3159 22.0697L61.0791 27.3956C60.7029 27.7742 60.3847 28.2064 60.135 28.6781C58.3698 27.1962 56.3048 26.1137 54.0819 25.5049C51.8589 24.8961 49.5305 24.7755 47.2566 25.1512ZM51.6563 46.3125V42.75H53.4375V46.3125H51.6563ZM75.9881 23.37L66.5475 32.9353C66.1979 33.278 65.7279 33.47 65.2383 33.47C64.7487 33.47 64.2787 33.278 63.9291 32.9353L63.6084 32.6325C63.5156 32.5335 63.4322 32.4262 63.3591 32.3119C63.1184 31.9401 63.0119 31.4973 63.0572 31.0567C63.1026 30.6162 63.2971 30.2043 63.6084 29.8894L70.1634 23.2453C70.3305 23.0775 70.4611 22.8769 70.5469 22.6562C70.6327 22.4355 70.672 22.1994 70.6622 21.9628C70.6606 21.7213 70.6091 21.4828 70.511 21.2621C70.4129 21.0414 70.2703 20.8433 70.0922 20.6803L63.5372 14.7131C63.2132 14.4118 62.7862 14.2461 62.3438 14.25H42.75C42.2776 14.25 41.8245 14.4377 41.4905 14.7717C41.1564 15.1058 40.9688 15.5588 40.9688 16.0312V23.1562C40.9723 23.6285 41.1572 24.0813 41.4853 24.4209L43.3913 26.3091L46.0988 29.0166C46.1166 29.0344 46.1344 29.0522 46.1344 29.07C46.4507 29.4067 46.6238 29.8532 46.6171 30.3152C46.6105 30.7771 46.4246 31.2184 46.0988 31.5459L45.7959 31.8487C45.7159 31.9306 45.6262 32.0024 45.5288 32.0625H44.5313C44.2925 32.0632 44.0563 32.1117 43.8366 32.205C43.6216 32.1319 43.4265 32.0099 43.2666 31.8487L42.4116 30.9937L39.8822 28.4466L33.3272 21.8916C32.9875 21.5635 32.5347 21.3785 32.0625 21.375H26.7188V7.125H61.8806C62.1287 7.12478 62.3743 7.17344 62.6035 7.26818C62.8328 7.36293 63.0411 7.50191 63.2166 7.67719L75.9881 20.6269C76.3471 20.9931 76.5482 21.4856 76.5482 21.9984C76.5482 22.5113 76.3471 23.0037 75.9881 23.37Z" fill="#200A52"/>
<path d="M97.9688 81.9375H96.1875C95.2037 81.9375 94.4062 82.735 94.4062 83.7188C94.4062 84.7025 95.2037 85.5 96.1875 85.5H97.9688C98.9525 85.5 99.75 84.7025 99.75 83.7188C99.75 82.735 98.9525 81.9375 97.9688 81.9375Z" fill="#44E0B7"/>
<path d="M83.4523 89.2228C83.6319 88.5914 83.7219 87.9378 83.7195 87.2812C83.7195 85.3916 82.9688 83.5793 81.6326 82.2431C80.2964 80.9069 78.4841 80.1562 76.5945 80.1562C74.7048 80.1562 72.8925 80.9069 71.5563 82.2431C70.2201 83.5793 69.4695 85.3916 69.4695 87.2812C69.4671 87.9378 69.557 88.5914 69.7366 89.2228C68.6351 89.461 67.6057 89.957 66.7331 90.6702C65.8605 91.3835 65.1696 92.2935 64.717 93.3256C64.2644 94.3578 64.0631 95.4825 64.1296 96.6076C64.1962 97.7326 64.5286 98.8258 65.0997 99.7974C65.6708 100.769 66.4642 101.591 67.4148 102.197C68.3654 102.802 69.446 103.173 70.568 103.28C71.6899 103.387 72.8212 103.226 73.8688 102.81C74.9164 102.395 75.8505 101.737 76.5945 100.89C77.3384 101.737 78.2725 102.395 79.3201 102.81C80.3677 103.226 81.499 103.387 82.6209 103.28C83.7429 103.173 84.8235 102.802 85.7741 102.197C86.7247 101.591 87.5181 100.769 88.0892 99.7974C88.6603 98.8258 88.9928 97.7326 89.0593 96.6076C89.1258 95.4825 88.9245 94.3578 88.472 93.3256C88.0194 92.2935 87.3284 91.3835 86.4558 90.6702C85.5832 89.957 84.5538 89.461 83.4523 89.2228ZM71.2507 99.75C70.3059 99.75 69.3997 99.3747 68.7316 98.7066C68.0635 98.0385 67.6882 97.1323 67.6882 96.1875C67.6882 95.2427 68.0635 94.3365 68.7316 93.6684C69.3997 93.0003 70.3059 92.625 71.2507 92.625C71.4902 92.6213 71.7292 92.6452 71.9632 92.6963H71.981C72.5692 93.2012 73.2374 93.6045 73.9582 93.8897C74.5095 94.5283 74.813 95.3438 74.8132 96.1875C74.8104 97.1315 74.4341 98.036 73.7667 98.7035C73.0992 99.3709 72.1947 99.7472 71.2507 99.75ZM77.307 90.7725C76.8367 90.8675 76.3522 90.8675 75.882 90.7725H75.8641C75.276 90.2676 74.6078 89.8643 73.887 89.5791C73.3356 88.9404 73.0322 88.1249 73.032 87.2812C73.032 86.3364 73.4073 85.4303 74.0754 84.7622C74.7435 84.0941 75.6496 83.7188 76.5945 83.7188C77.5393 83.7188 78.4454 84.0941 79.1135 84.7622C79.7816 85.4303 80.157 86.3364 80.157 87.2812C80.1567 88.1249 79.8533 88.9404 79.302 89.5791C78.5812 89.8643 77.9129 90.2676 77.3248 90.7725H77.307ZM81.9382 99.75C80.9942 99.7472 80.0897 99.3709 79.4223 98.7035C78.7548 98.036 78.3785 97.1315 78.3757 96.1875C78.376 95.3438 78.6794 94.5283 79.2307 93.8897C79.9515 93.6045 80.6197 93.2012 81.2079 92.6963H81.2257C81.4597 92.6452 81.6988 92.6213 81.9382 92.625C82.883 92.625 83.7892 93.0003 84.4573 93.6684C85.1254 94.3365 85.5007 95.2427 85.5007 96.1875C85.5007 97.1323 85.1254 98.0385 84.4573 98.7066C83.7892 99.3747 82.883 99.75 81.9382 99.75Z" fill="#44E0B7"/>
</g>
<defs>
<clipPath id="clip0">
<rect width="114" height="114" fill="white"/>
</clipPath>
</defs>
</svg>
