<svg width="152" height="114" viewBox="0 0 152 114" fill="none" xmlns="http://www.w3.org/2000/svg">
<path d="M123.747 52.8929L115.348 49.9341C112.94 49.0756 110.308 49.0848 107.906 49.9602C105.504 50.8356 103.484 52.5221 102.193 54.7287L96.8153 63.0436C96.6348 63.3138 96.5194 63.6221 96.4782 63.9444C96.4369 64.2666 96.471 64.5941 96.5777 64.901C96.6845 65.2137 96.8604 65.4983 97.0922 65.7339C97.3239 65.9694 97.6058 66.1498 97.9167 66.2616L126.447 76.3259C126.678 76.3934 126.918 76.4297 127.159 76.4339C127.553 76.4308 127.94 76.3267 128.282 76.1315C128.557 75.9648 128.791 75.7386 128.967 75.4694C129.142 75.2003 129.255 74.8952 129.297 74.5765L130.656 65.009C131.176 62.4945 130.762 59.8766 129.49 57.6461C128.218 55.4155 126.176 53.7255 123.747 52.8929ZM126.425 64.2531L125.388 71.3585L101.938 63.0868L105.912 56.9316C106.688 55.5828 107.914 54.5498 109.374 54.0129C110.835 53.476 112.438 53.4694 113.903 53.9944L122.326 56.9532C123.78 57.4631 124.999 58.4857 125.753 59.8294C126.508 61.1731 126.747 62.7459 126.425 64.2531Z" fill="#200A52"/>
<path d="M137.671 76.1322L139.161 66.7374C140.077 62.2178 139.317 57.5195 137.025 53.5183C134.733 49.517 131.064 46.4856 126.702 44.989L118.301 42.0302C113.938 40.4825 109.171 40.5121 104.827 42.114C100.484 43.7159 96.8395 46.7888 94.5265 50.7987L89.3432 59.0704C84.3438 58.8837 79.4695 60.6586 75.7607 64.0162C75.0219 64.6974 74.336 65.4338 73.709 66.2191C72.7975 67.3073 72.0014 68.487 71.3333 69.7394C71.3333 69.761 71.3117 69.7826 71.2922 69.8042C71.2564 69.908 71.2131 70.009 71.1626 70.1066C70.8327 70.7454 70.5371 71.4015 70.2772 72.0719L67.3184 79.9765C67.1231 80.5182 67.1463 81.1146 67.3831 81.6395C67.5052 81.9016 67.6792 82.1362 67.8945 82.3292C68.1098 82.5223 68.3619 82.6697 68.6358 82.7625L74.94 84.987C74.6341 86.9854 74.9272 89.0296 75.7823 90.8615C76.3879 92.153 77.2467 93.3097 78.3078 94.2632C79.3688 95.2166 80.6104 95.9473 81.9591 96.412C84.2879 97.2532 86.834 97.2751 89.177 96.4741C91.52 95.6731 93.5197 94.097 94.8461 92.0061L111.603 97.9238C111.316 99.9242 111.616 101.965 112.467 103.798C113.069 105.094 113.926 106.256 114.987 107.213C116.048 108.171 117.291 108.904 118.642 109.37C119.823 109.779 121.064 109.99 122.313 109.997C124.146 109.997 125.949 109.537 127.556 108.658C129.164 107.778 130.524 106.508 131.512 104.964L137.926 107.211C138.154 107.295 138.395 107.339 138.639 107.34C139.08 107.342 139.511 107.208 139.874 106.957C140.237 106.706 140.514 106.35 140.669 105.936L143.626 98.0317C145.168 94.2331 145.421 90.0331 144.345 86.0768C143.27 82.1206 140.925 78.6268 137.671 76.1322ZM75.5901 71.0569C75.7998 70.6702 76.0305 70.2953 76.2812 69.9338C76.4324 69.7178 76.6051 69.5234 76.7563 69.3075C77.0371 68.9619 77.2963 68.638 77.577 68.314C77.6543 68.2475 77.7265 68.1753 77.793 68.098L78.6353 68.4004C78.905 68.4898 79.1535 68.6338 79.3652 68.8232C79.577 69.0127 79.7476 69.2437 79.8663 69.5019C80.0811 69.9712 80.1043 70.5058 79.9311 70.9921C79.8318 71.2553 79.6787 71.4949 79.4816 71.6957C79.2845 71.8965 79.0478 72.0541 78.7865 72.1583C78.2541 72.3956 77.6509 72.4188 77.1019 72.2231L75.2661 71.5752L75.5901 71.0569ZM91.7642 88.5938V88.637C91.1215 90.2165 89.892 91.4858 88.3336 92.1784C86.7753 92.871 85.0092 92.9331 83.4061 92.3517C82.5981 92.0754 81.8544 91.6383 81.22 91.0667C80.5857 90.495 80.0737 89.8007 79.7151 89.0257C79.3741 88.3001 79.1813 87.5138 79.1479 86.7128C79.1146 85.9118 79.2413 85.1122 79.5208 84.3607C79.5768 84.227 79.6418 84.0971 79.7151 83.972C79.7985 83.7621 79.8996 83.5598 80.0175 83.3672C80.111 83.2183 80.2119 83.0741 80.3199 82.9353C80.4301 82.7679 80.5528 82.6091 80.687 82.4602C80.795 82.3306 80.9246 82.201 81.0542 82.0714C81.2099 81.9231 81.3758 81.786 81.5509 81.6611C81.6607 81.5611 81.7761 81.4673 81.8965 81.3803C82.1934 81.1871 82.503 81.014 82.823 80.862C82.9487 80.8023 83.0787 80.7517 83.2117 80.7108C83.4301 80.6187 83.6536 80.5394 83.8812 80.4732C84.0324 80.43 84.2052 80.4084 84.3564 80.3652C84.5723 80.322 84.7883 80.3005 85.0043 80.2789C85.1688 80.2538 85.3347 80.2393 85.501 80.2357C85.7104 80.2393 85.9195 80.2537 86.1273 80.2789C86.3224 80.2825 86.517 80.2969 86.7105 80.322C86.9678 80.3639 87.2208 80.429 87.4664 80.5164C87.6152 80.5293 87.761 80.5658 87.8983 80.6244C89.1153 81.0403 90.1772 81.816 90.9435 82.8489C91.2047 83.1798 91.4224 83.5427 91.5914 83.9288C91.934 84.6543 92.1259 85.4418 92.1556 86.2436C92.1852 87.0454 92.0521 87.8449 91.7642 88.5938ZM128.451 101.552C127.97 102.777 127.128 103.828 126.036 104.564C124.945 105.301 123.656 105.689 122.339 105.677C121.574 105.676 120.814 105.545 120.093 105.288C119.287 105.01 118.543 104.575 117.906 104.008C117.269 103.441 116.75 102.753 116.381 101.984C116.038 101.255 115.846 100.464 115.816 99.6584C115.787 98.8531 115.92 98.0501 116.208 97.2974C116.23 97.211 116.294 97.1463 116.316 97.0383C116.432 96.7868 116.562 96.5417 116.705 96.304C116.786 96.159 116.88 96.0217 116.985 95.8936C117.115 95.7208 117.245 95.5481 117.374 95.3969C117.504 95.2457 117.612 95.1377 117.72 95.0297C117.89 94.857 118.063 94.7274 118.236 94.5762C118.344 94.4898 118.452 94.4034 118.581 94.317C118.879 94.1234 119.189 93.9502 119.51 93.7987L119.834 93.6691C120.093 93.5827 120.331 93.4747 120.59 93.4099C120.72 93.3883 120.849 93.3452 120.979 93.3236C121.259 93.2804 121.519 93.2372 121.799 93.2156C121.906 93.1976 122.015 93.1904 122.123 93.194C122.448 93.176 122.774 93.1905 123.095 93.2372C123.182 93.2588 123.268 93.2372 123.333 93.2588C123.758 93.3263 124.177 93.4274 124.585 93.5611C125.383 93.8515 126.122 94.2832 126.767 94.8354C126.767 94.8411 126.769 94.8466 126.773 94.8506C126.777 94.8547 126.783 94.857 126.788 94.857C126.832 94.9002 126.875 94.9649 126.918 95.0081C127.481 95.539 127.942 96.1685 128.279 96.8655C128.622 97.5969 128.813 98.3905 128.84 99.198C128.88 100.001 128.748 100.804 128.451 101.552ZM139.572 96.5199L137.369 102.438L133.049 100.926C133.128 100.353 133.164 99.7758 133.157 99.198C133.154 99.0317 133.139 98.8657 133.114 98.7013C133.093 98.2354 133.028 97.7726 132.92 97.319C132.894 97.1443 132.858 96.9712 132.812 96.8007C132.665 96.1904 132.455 95.5969 132.186 95.0297C131.411 93.4151 130.237 92.025 128.775 90.9911C127.933 90.3538 127.002 89.8443 126.011 89.4793C125.836 89.4463 125.663 89.403 125.493 89.3497C125.018 89.204 124.535 89.0885 124.046 89.0041C123.808 88.9609 123.57 88.9609 123.311 88.9393C122.879 88.8961 122.447 88.8745 122.015 88.8745L121.303 88.9393C120.871 88.9825 120.439 89.0473 120.007 89.1337C119.791 89.1769 119.575 89.2417 119.337 89.3065C118.917 89.4214 118.506 89.5658 118.106 89.7384C117.912 89.8248 117.698 89.8896 117.504 89.9976C117.096 90.1996 116.7 90.4231 116.316 90.6671C116.165 90.7751 115.992 90.8831 115.841 90.9911C115.423 91.2943 115.032 91.634 114.675 92.0061C114.561 92.0935 114.453 92.1872 114.351 92.2869C113.891 92.778 113.473 93.3052 113.098 93.8635L96.3579 87.9675C96.4369 87.4168 96.473 86.8608 96.4659 86.3045C96.4659 86.0885 96.4443 85.8725 96.4227 85.6566C96.3879 85.2505 96.3302 84.8467 96.2499 84.4471C96.2068 84.2311 96.1636 84.0368 96.1204 83.8208C95.9646 83.2607 95.7697 82.7122 95.5372 82.1794C95.5291 82.1709 95.5229 82.1606 95.5192 82.1494C95.5154 82.1382 95.5142 82.1263 95.5156 82.1146C95.1245 81.2949 94.6239 80.532 94.0276 79.8469C92.7915 78.334 91.1625 77.1907 89.3194 76.5425C88.6664 76.3162 87.9941 76.15 87.3109 76.0458C87.1381 76.0242 86.9653 76.0242 86.7925 76.0026C86.2977 75.9487 85.7999 75.9271 85.3023 75.9378C85.0648 75.9378 84.8488 75.981 84.6112 76.0026C84.1822 76.0356 83.7563 76.1006 83.337 76.197C83.0994 76.2402 82.864 76.305 82.6264 76.3698C82.2377 76.4777 81.8489 76.6289 81.4602 76.7801C81.2317 76.8606 81.0082 76.9543 80.7907 77.0609C80.4046 77.2558 80.0296 77.4721 79.6676 77.7088C79.4948 77.8384 79.3005 77.9464 79.1277 78.0759C78.7217 78.3699 78.339 78.6949 77.983 79.0478C77.8751 79.1558 77.7671 79.2422 77.6591 79.3502C77.2 79.8413 76.7811 80.3685 76.4065 80.9268L72.1302 79.4366L73.5772 75.5707L75.6721 76.305C76.3784 76.5613 77.1238 76.6928 77.8751 76.6937C79.1902 76.6748 80.4703 76.2667 81.5539 75.521C82.6374 74.7754 83.4758 73.7255 83.9633 72.5039C84.2635 71.7271 84.4011 70.8969 84.3677 70.0648C84.3343 69.2327 84.1305 68.4163 83.7689 67.6661C83.2964 66.6533 82.5583 65.7875 81.633 65.1608C84.2354 63.7152 87.227 63.1258 90.1833 63.4762C90.594 63.5291 91.0114 63.4637 91.3862 63.2878C91.7611 63.1118 92.0781 62.8325 92.2998 62.4828L98.2585 52.98C100.065 49.8349 102.918 47.423 106.319 46.1641C109.721 44.9053 113.456 44.8792 116.875 46.0905L125.274 49.0493C128.66 50.2108 131.505 52.5667 133.278 55.6757C135.051 58.7847 135.629 62.4335 134.905 65.9383L133.177 76.8017C133.111 77.2226 133.171 77.6534 133.347 78.041C133.524 78.4287 133.81 78.7561 134.17 78.983C136.978 80.8142 139.056 83.571 140.042 86.7747C141.029 89.9783 140.863 93.4263 139.572 96.5199Z" fill="#200A52"/>
<path d="M101.799 74.3348C102.923 74.7314 104.158 74.1414 104.555 73.0165C104.951 71.8916 104.36 70.6578 103.235 70.2611C102.11 69.8645 100.876 70.4545 100.479 71.5794C100.082 72.7043 100.674 73.9381 101.799 74.3348Z" fill="#200A52"/>
<path d="M124.225 82.245C125.349 82.6416 126.584 82.0516 126.981 80.9267C127.377 79.8019 126.786 78.568 125.661 78.1714C124.536 77.7747 123.302 78.3647 122.905 79.4896C122.508 80.6145 123.1 81.8483 124.225 82.245Z" fill="#200A52"/>
<path d="M108.63 74.4605L104.954 84.2458C104.535 85.3619 105.1 86.6065 106.216 87.0257C107.332 87.445 108.577 86.8801 108.996 85.7641L112.672 75.9787C113.091 74.8626 112.526 73.6181 111.41 73.1988C110.294 72.7796 109.05 73.3444 108.63 74.4605Z" fill="#200A52"/>
<path d="M21.8476 88.3984C20.5661 88.3984 19.3134 88.7784 18.2479 89.4904C17.1824 90.2023 16.352 91.2142 15.8616 92.3981C15.3712 93.582 15.2429 94.8848 15.4929 96.1416C15.7429 97.3984 16.36 98.5529 17.2661 99.459C18.1722 100.365 19.3267 100.982 20.5835 101.232C21.8404 101.482 23.1431 101.354 24.327 100.864C25.5109 100.373 26.5229 99.5427 27.2348 98.4772C27.9467 97.4117 28.3267 96.1591 28.3267 94.8776C28.3216 93.1608 27.6373 91.5158 26.4234 90.3018C25.2094 89.0878 23.5644 88.4036 21.8476 88.3984ZM21.8476 97.0373C21.4204 97.0373 21.0029 96.9107 20.6477 96.6733C20.2925 96.436 20.0157 96.0987 19.8522 95.7041C19.6888 95.3094 19.646 94.8752 19.7293 94.4563C19.8127 94.0373 20.0184 93.6525 20.3204 93.3504C20.6225 93.0484 21.0073 92.8427 21.4262 92.7594C21.8452 92.676 22.2794 92.7188 22.6741 92.8823C23.0687 93.0457 23.406 93.3226 23.6433 93.6777C23.8806 94.0329 24.0073 94.4504 24.0073 94.8776C24.0073 95.4504 23.7797 95.9997 23.3747 96.4047C22.9697 96.8098 22.4204 97.0373 21.8476 97.0373Z" fill="#44E0B7"/>
<path d="M65.0441 86.2393C64.4713 86.2393 63.922 86.0118 63.5169 85.6068C63.1119 85.2017 62.8844 84.6524 62.8844 84.0796C62.8844 83.5068 63.1119 82.9575 63.5169 82.5524C63.922 82.1474 64.4713 81.9199 65.0441 81.9199C65.6169 81.9199 66.1662 81.6923 66.5713 81.2873C66.9763 80.8823 67.2038 80.333 67.2038 79.7602V18.8993C68.3244 18.5031 69.3145 17.8062 70.0656 16.885C70.8167 15.9638 71.2999 14.8538 71.4624 13.6763C71.6249 12.4988 71.4603 11.2994 70.9868 10.2092C70.5132 9.11901 69.7488 8.1801 68.7774 7.49522C67.8059 6.81034 66.6648 6.40589 65.4789 6.32613C64.2929 6.24637 63.1079 6.49437 62.0535 7.043C60.9991 7.59163 60.1159 8.41973 59.5006 9.43669C58.8853 10.4537 58.5616 11.6203 58.5649 12.8089C58.5667 13.7747 58.7883 14.7274 59.2129 15.5949H59.1891L8.00592 66.8018H6.73169V71.1213H49.9261V84.0796H43.4469C42.2541 84.0796 41.2872 85.0465 41.2872 86.2393C41.2872 87.4321 42.2541 88.399 43.4469 88.399H49.5352C49.0873 89.6574 48.2625 90.7472 47.1731 91.5201C46.0837 92.293 44.7826 92.7115 43.4469 92.7185H36.8166C36.795 92.5457 36.7518 92.3945 36.7302 92.2217C36.7086 92.049 36.6438 91.8114 36.6006 91.617C36.5358 91.3363 36.471 91.0771 36.3846 90.7963C36.3414 90.6236 36.2982 90.4292 36.2334 90.2348C36.1471 89.954 36.0412 89.6949 35.9333 89.4141L35.7389 88.8958C35.6093 88.5934 35.4581 88.3126 35.3069 88.0103C35.2421 87.9023 35.1773 87.7727 35.1126 87.6431C34.8958 87.2351 34.6579 86.8386 34.3998 86.4553C34.3347 86.3566 34.2626 86.2628 34.1839 86.1745C33.9895 85.8938 33.7951 85.613 33.5576 85.3322C33.4496 85.2027 33.3416 85.0731 33.212 84.9435C33.0176 84.7275 32.8449 84.5115 32.6289 84.2956C32.4993 84.166 32.3481 84.0364 32.2185 83.9068C32.0242 83.7124 31.8298 83.5397 31.6138 83.3453C31.4626 83.2157 31.3115 83.1077 31.1387 82.9781C30.9659 82.8486 30.7283 82.6542 30.5124 82.503C30.3396 82.395 30.1668 82.2654 29.994 82.1574C29.7781 82.0279 29.5621 81.8767 29.3245 81.7471C29.1517 81.6607 28.9574 81.5527 28.7846 81.4663C28.547 81.3368 28.3094 81.2288 28.0719 81.1208C27.8775 81.0344 27.7047 80.948 27.5103 80.8616C27.2512 80.7752 26.992 80.6672 26.7328 80.5809C26.5385 80.5161 26.3657 80.4513 26.1713 80.3865C25.8906 80.3217 25.6098 80.2353 25.329 80.1705L24.7675 80.0409C24.4673 79.9761 24.1433 79.9545 23.8194 79.9113C23.6466 79.8897 23.4954 79.8465 23.3442 79.825C22.8432 79.7818 22.345 79.7602 21.8497 79.7602C21.3544 79.7602 20.8577 79.7818 20.3595 79.825C20.2083 79.8465 20.0572 79.8897 19.8844 79.9113C19.5604 79.9545 19.2365 79.9761 18.9341 80.0409L18.3726 80.1705C18.0918 80.2353 17.811 80.3217 17.5303 80.3865C17.3359 80.4513 17.1631 80.5161 16.9688 80.5809C16.7096 80.6672 16.4504 80.7752 16.1913 80.8616C15.9969 80.948 15.8241 81.0344 15.6297 81.1208C15.3922 81.2288 15.1546 81.3368 14.917 81.4663C14.7442 81.5527 14.5499 81.6607 14.3771 81.7471C14.1395 81.8767 13.9236 82.0279 13.7076 82.1574C13.5348 82.2654 13.362 82.395 13.1892 82.503C12.9733 82.6542 12.7573 82.827 12.5651 82.9781C12.3729 83.1293 12.2411 83.2157 12.09 83.3453C11.874 83.5397 11.6796 83.7124 11.4852 83.9068C11.3556 84.0364 11.2045 84.166 11.0749 84.2956C10.8589 84.5115 10.6861 84.7275 10.4918 84.9435C10.3622 85.0731 10.2542 85.2027 10.1462 85.3322C9.90864 85.613 9.71426 85.8938 9.51989 86.1745C9.4412 86.2628 9.36902 86.3566 9.30391 86.4553C9.04586 86.8386 8.80797 87.2351 8.59121 87.6431C8.52642 87.7727 8.46162 87.9023 8.39683 88.0103C8.24565 88.3126 8.09447 88.5934 7.96489 88.8958L7.77051 89.4141C7.66253 89.6949 7.55454 89.954 7.46815 90.2348C7.40336 90.4292 7.36017 90.6236 7.31697 90.7963C7.23058 91.0771 7.16579 91.3363 7.101 91.617C7.05781 91.8114 7.01461 92.0274 6.97142 92.2217C6.92822 92.4161 6.90663 92.5457 6.88503 92.7185H6.73169V97.0379H6.90447C7.41915 100.634 9.21349 103.924 11.9582 106.304C14.7028 108.684 18.2137 109.994 21.8465 109.994C25.4792 109.994 28.9901 108.684 31.7348 106.304C34.4795 103.924 36.2738 100.634 36.7885 97.0379H43.4469C46.3109 97.0379 49.0575 95.9002 51.0827 93.8751C53.1078 91.8499 54.2455 89.1033 54.2455 86.2393V68.9616C54.2455 68.3888 54.018 67.8394 53.6129 67.4344C53.2079 67.0294 52.6586 66.8018 52.0858 66.8018H38.5595L62.8844 25.1193V77.9676C61.7646 78.3635 60.7752 79.0596 60.0243 79.9797C59.2734 80.8999 58.7898 82.0088 58.6265 83.1852C58.4632 84.3616 58.6264 85.5603 59.0982 86.6502C59.57 87.7402 60.3324 88.6795 61.302 89.3654C62.2715 90.0514 63.411 90.4577 64.5959 90.5398C65.7807 90.622 66.9653 90.3769 68.0203 89.8313C69.0753 89.2858 69.96 88.4607 70.5778 87.4463C70.8185 87.0512 71.015 86.6332 71.1653 86.1999C71.5563 85.0729 70.5559 84.0796 69.363 84.0796H68.9C67.9632 84.0796 67.2337 84.9443 66.5713 85.6068C66.1662 86.0118 65.6169 86.2393 65.0441 86.2393ZM21.8497 105.677C19.714 105.677 17.6262 105.043 15.8503 103.857C14.0745 102.67 12.6904 100.984 11.8731 99.0106C11.0558 97.0375 10.842 94.8662 11.2586 92.7715C11.6753 90.6768 12.7038 88.7526 14.214 87.2424C15.7242 85.7322 17.6483 84.7038 19.743 84.2871C21.8377 83.8704 24.009 84.0843 25.9822 84.9016C27.9553 85.7189 29.6419 87.103 30.8284 88.8788C32.015 90.6546 32.6483 92.7424 32.6483 94.8782C32.6483 96.2963 32.369 97.7005 31.8263 99.0106C31.2836 100.321 30.4882 101.511 29.4855 102.514C28.4827 103.517 27.2923 104.312 25.9822 104.855C24.672 105.397 23.2678 105.677 21.8497 105.677ZM33.5748 66.8018H14.0942L60.8003 20.0871L33.5748 66.8018ZM65.0441 10.6492C65.4713 10.6492 65.8888 10.7758 66.244 11.0131C66.5991 11.2504 66.876 11.5877 67.0394 11.9824C67.2029 12.377 67.2457 12.8113 67.1623 13.2302C67.079 13.6492 66.8733 14.034 66.5713 14.336C66.2692 14.6381 65.8844 14.8438 65.4654 14.9271C65.0465 15.0104 64.6123 14.9677 64.2176 14.8042C63.823 14.6407 63.4857 14.3639 63.2484 14.0087C63.011 13.6536 62.8844 13.236 62.8844 12.8089C62.8844 12.2361 63.1119 11.6867 63.5169 11.2817C63.922 10.8767 64.4713 10.6492 65.0441 10.6492Z" fill="#44E0B7"/>
</svg>
