<svg width="126" height="114" viewBox="0 0 126 114" fill="none" xmlns="http://www.w3.org/2000/svg">
<g clip-path="url(#clip0)">
<path d="M85.6223 55.4239L80.5733 60.4729C79.8108 61.2354 79.8108 62.4717 80.5733 63.2342C81.3358 63.9967 82.572 63.9967 83.3346 63.2342L88.3836 58.1852C89.1461 57.4226 89.1461 56.1864 88.3836 55.4239C87.6211 54.6614 86.3848 54.6614 85.6223 55.4239Z" fill="#44E0B7"/>
<path d="M92.6925 61.6865L91.8834 60.8774C91.3443 60.3383 90.4703 60.3383 89.9312 60.8774C89.3921 61.4165 89.3921 62.2905 89.9312 62.8296L90.7402 63.6387C91.2793 64.1778 92.1534 64.1778 92.6925 63.6387C93.2316 63.0996 93.2316 62.2255 92.6925 61.6865Z" fill="#44E0B7"/>
<path d="M95.3839 55.4244L94.2407 56.5676C93.4782 57.3301 93.4782 58.5664 94.2408 59.3289C95.0033 60.0914 96.2395 60.0914 97.002 59.3289L98.1452 58.1857C98.9077 57.4232 98.9077 56.1869 98.1452 55.4244C97.3827 54.6619 96.1464 54.6619 95.3839 55.4244Z" fill="#44E0B7"/>
<path d="M72.7612 74.9492C70.8303 74.9492 68.9428 75.5218 67.3373 76.5945C65.7319 77.6672 64.4806 79.192 63.7417 80.9758C63.0028 82.7597 62.8094 84.7227 63.1861 86.6164C63.5628 88.5102 64.4926 90.2497 65.8579 91.615C67.2233 92.9804 68.9628 93.9102 70.8566 94.2869C72.7503 94.6636 74.7133 94.4702 76.4972 93.7313C78.281 92.9924 79.8057 91.7411 80.8785 90.1357C81.9512 88.5302 82.5238 86.6427 82.5238 84.7118C82.5238 82.1226 81.4952 79.6395 79.6644 77.8086C77.8335 75.9778 75.3504 74.9492 72.7612 74.9492ZM72.7612 90.5694C71.6026 90.5694 70.4701 90.2259 69.5069 89.5822C68.5436 88.9386 67.7928 88.0238 67.3495 86.9534C66.9061 85.8831 66.7901 84.7053 67.0161 83.5691C67.2422 82.4328 67.8 81.3891 68.6192 80.5699C69.4384 79.7507 70.4821 79.1928 71.6184 78.9668C72.7547 78.7408 73.9324 78.8568 75.0027 79.3001C76.0731 79.7435 76.9879 80.4943 77.6315 81.4575C78.2752 82.4208 78.6187 83.5533 78.6187 84.7118C78.6141 86.2639 77.9955 87.7511 76.898 88.8486C75.8005 89.9461 74.3133 90.5648 72.7612 90.5694Z" fill="#200A52"/>
<path d="M107.907 74.9492C105.976 74.9492 104.088 75.5218 102.483 76.5945C100.877 77.6672 99.6261 79.192 98.8872 80.9758C98.1483 82.7597 97.9549 84.7227 98.3316 86.6164C98.7083 88.5102 99.6381 90.2497 101.003 91.615C102.369 92.9804 104.108 93.9102 106.002 94.2869C107.896 94.6636 109.859 94.4702 111.643 93.7313C113.427 92.9924 114.951 91.7411 116.024 90.1357C117.097 88.5302 117.669 86.6427 117.669 84.7118C117.669 82.1226 116.641 79.6395 114.81 77.8086C112.979 75.9778 110.496 74.9492 107.907 74.9492ZM107.907 90.5694C106.748 90.5694 105.616 90.2259 104.652 89.5822C103.689 88.9386 102.938 88.0238 102.495 86.9534C102.052 85.8831 101.936 84.7053 102.162 83.5691C102.388 82.4328 102.946 81.3891 103.765 80.5699C104.584 79.7507 105.628 79.1928 106.764 78.9668C107.9 78.7408 109.078 78.8568 110.148 79.3001C111.219 79.7435 112.133 80.4943 112.777 81.4575C113.421 82.4208 113.764 83.5533 113.764 84.7118C113.76 86.2639 113.141 87.7511 112.043 88.8486C110.946 89.9461 109.459 90.5648 107.907 90.5694Z" fill="#200A52"/>
<path d="M92.2865 78.8545H88.3815C87.3031 78.8545 86.429 79.7287 86.429 80.807C86.429 81.8854 87.3031 82.7595 88.3815 82.7595H92.2865C93.3649 82.7595 94.239 81.8854 94.239 80.807C94.239 79.7287 93.3649 78.8545 92.2865 78.8545Z" fill="#44E0B7"/>
<path d="M92.2865 86.665H88.3815C87.3031 86.665 86.429 87.5392 86.429 88.6176C86.429 89.6959 87.3031 90.5701 88.3815 90.5701H92.2865C93.3649 90.5701 94.239 89.6959 94.239 88.6176C94.239 87.5392 93.3649 86.665 92.2865 86.665Z" fill="#44E0B7"/>
<path d="M117.298 69.8534L117.201 69.0919H119.622C121.174 69.0872 122.661 68.4686 123.759 67.3711C124.856 66.2736 125.475 64.7864 125.479 63.2343C125.479 61.6808 124.862 60.1909 123.764 59.0924C122.665 57.9939 121.175 57.3767 119.622 57.3767H115.736L115.463 55.2094C114.929 50.9595 112.864 47.0502 109.654 44.2141C106.444 41.3781 102.31 39.8101 98.0268 39.804H82.641C78.3577 39.8101 74.2237 41.3781 71.0138 44.2141C67.804 47.0502 65.7386 50.9595 65.2049 55.2094L64.9316 57.3767H61.0461C59.9132 57.3717 58.8033 57.6968 57.8521 58.3122C56.9009 58.9276 56.1496 59.8067 55.6898 60.8422C55.2301 61.8776 55.0819 63.0245 55.2633 64.1428C55.4447 65.2611 55.9479 66.3024 56.7115 67.1393H37.6158C36.0637 67.144 34.5765 67.7626 33.479 68.8601C32.3815 69.9576 31.7628 71.4448 31.7582 72.9969V86.6646H27.8532V63.2343H29.8057C31.3578 63.2297 32.845 62.611 33.9425 61.5135C35.04 60.416 35.6586 58.9288 35.6632 57.3767V41.7565C35.6586 40.2044 35.04 38.7172 33.9425 37.6197C32.845 36.5222 31.3578 35.9036 29.8057 35.899H27.8532V30.0414C27.8532 29.5235 27.6474 29.0269 27.2813 28.6607C26.9151 28.2946 26.4185 28.0889 25.9006 28.0889H2.47035C1.9525 28.0889 1.45587 28.2946 1.0897 28.6607C0.723534 29.0269 0.517822 29.5235 0.517822 30.0414L0.517822 112.047C0.517822 112.565 0.723534 113.062 1.0897 113.428C1.45587 113.794 1.9525 114 2.47035 114H29.8057C30.3235 114 30.8201 113.794 31.1863 113.428C31.5525 113.062 31.7582 112.565 31.7582 112.047V104.237C31.7582 103.719 31.5525 103.223 31.1863 102.857C30.8201 102.49 30.3235 102.285 29.8057 102.285H27.8532V98.3797H37.6158C39.1679 98.3751 40.6551 97.7565 41.7526 96.659C42.8501 95.5615 43.4687 94.0742 43.4733 92.5222V82.7595H45.4259C45.9437 82.7595 46.4403 82.5538 46.8065 82.1877C47.1727 81.8215 47.3784 81.3249 47.3784 80.807V76.902H57.0629C55.9417 79.1216 55.3079 81.5553 55.2039 84.0399C55.0999 86.5245 55.5282 89.0027 56.4601 91.3083C57.3919 93.6139 58.8058 95.6936 60.607 97.4082C62.4081 99.1228 64.555 100.433 66.9036 101.25V108.142C66.9036 109.696 67.5208 111.186 68.6193 112.284C69.7178 113.383 71.2077 114 72.7612 114C74.3147 114 75.8046 113.383 76.9031 112.284C78.0016 111.186 78.6188 109.696 78.6188 108.142V102.285H102.049V108.142C102.049 109.696 102.666 111.186 103.765 112.284C104.863 113.383 106.353 114 107.907 114C109.46 114 110.95 113.383 112.049 112.284C113.147 111.186 113.764 109.696 113.764 108.142V101.25C116.874 100.153 119.612 98.2033 121.664 95.6227C123.717 93.0422 125.001 89.9357 125.37 86.6591C125.739 83.3825 125.177 80.0683 123.75 77.096C122.322 74.1238 120.086 71.6137 117.298 69.8534ZM27.8532 39.804H29.8057C30.3235 39.804 30.8201 40.0097 31.1863 40.3759C31.5525 40.7421 31.7582 41.2387 31.7582 41.7565V57.3767C31.7582 57.8946 31.5525 58.3912 31.1863 58.7574C30.8201 59.1235 30.3235 59.3292 29.8057 59.3292H27.8532V39.804ZM4.42287 31.9939H23.9481V86.6646H20.0431V72.9969C20.0435 71.7414 19.632 70.5204 18.8715 69.5214C18.4838 68.9839 18.0086 68.5153 17.4657 68.1351C16.5833 67.5427 15.5566 67.2011 14.4952 67.1468C13.4338 67.0924 12.3776 67.3274 11.4393 67.8266C10.5011 68.3258 9.716 69.0705 9.168 69.9811C8.62001 70.8917 8.32964 71.9341 8.32792 72.9969V92.5222C8.33255 94.0742 8.95118 95.5615 10.0487 96.659C11.1462 97.7565 12.6334 98.3751 14.1855 98.3797H23.9481V102.285H4.42287V31.9939ZM27.8532 110.095H4.42287V106.19H27.8532V110.095ZM39.5683 92.5222C39.5683 93.04 39.3626 93.5366 38.9964 93.9028C38.6302 94.269 38.1336 94.4747 37.6158 94.4747H14.1855C13.6676 94.4747 13.171 94.269 12.8048 93.9028C12.4387 93.5366 12.233 93.04 12.233 92.5222V72.9969C12.233 72.4791 12.4387 71.9824 12.8048 71.6163C13.171 71.2501 13.6676 71.0444 14.1855 71.0444C14.4411 71.0431 14.694 71.0964 14.9274 71.2006C15.1734 71.2998 15.3936 71.4533 15.5718 71.6497C15.7475 71.8221 15.8869 72.0279 15.9818 72.255C16.086 72.4884 16.1393 72.7413 16.138 72.9969V88.6171C16.138 89.1349 16.3437 89.6316 16.7099 89.9977C17.0761 90.3639 17.5727 90.5696 18.0905 90.5696H33.7107C34.2286 90.5696 34.7252 90.3639 35.0914 89.9977C35.4575 89.6316 35.6632 89.1349 35.6632 88.6171V82.7595H39.5683V92.5222ZM43.4733 78.8545H35.6632V72.9969C35.6632 72.4791 35.869 71.9824 36.2351 71.6163C36.6013 71.2501 37.0979 71.0444 37.6158 71.0444H43.4733V78.8545ZM119.622 61.2818C119.882 61.2795 120.141 61.3322 120.379 61.4365C120.618 61.5408 120.833 61.6943 121.008 61.8871C121.191 62.06 121.336 62.2691 121.433 62.5011C121.531 62.733 121.579 62.9827 121.574 63.2343C121.574 63.7521 121.369 64.2488 121.002 64.6149C120.636 64.9811 120.14 65.1868 119.622 65.1868H116.713L116.224 61.2818H119.622ZM59.6988 61.848C59.8718 61.6653 60.0809 61.5205 60.3128 61.423C60.5448 61.3256 60.7945 61.2774 61.0461 61.2818H64.4434L63.9553 65.1868H61.0461C60.5282 65.1868 60.0316 64.9811 59.6654 64.6149C59.2992 64.2488 59.0935 63.7521 59.0935 63.2343C59.0912 62.9736 59.144 62.7155 59.2483 62.4766C59.3526 62.2377 59.5061 62.0235 59.6988 61.848ZM47.3784 72.9969V71.0444H61.7099L61.6513 71.103C60.9975 71.6432 60.3841 72.2305 59.816 72.8602C59.7769 72.8993 59.7183 72.9383 59.6598 72.9969H47.3784ZM74.7137 108.142C74.7137 108.66 74.508 109.157 74.1418 109.523C73.7757 109.889 73.279 110.095 72.7612 110.095C72.2434 110.095 71.7467 109.889 71.3806 109.523C71.0144 109.157 70.8087 108.66 70.8087 108.142V102.285H74.7137V108.142ZM109.859 108.142C109.859 108.66 109.653 109.157 109.287 109.523C108.921 109.889 108.424 110.095 107.907 110.095C107.389 110.095 106.892 109.889 106.526 109.523C106.16 109.157 105.954 108.66 105.954 108.142V102.285H109.859V108.142ZM107.907 98.3797H72.7612C70.0542 98.3826 67.4074 97.5808 65.1572 96.0762C62.9069 94.5715 61.1546 92.432 60.123 89.9293C59.0913 87.4266 58.8269 84.6737 59.3632 82.0204C59.8996 79.3671 61.2125 76.933 63.1353 75.0275C63.2153 74.9446 63.3 74.8664 63.3891 74.7932C63.7015 74.5004 64.0334 74.2075 64.3849 73.9341C64.5002 73.8322 64.6243 73.7407 64.7559 73.6608C65.1949 73.3214 65.6583 73.0147 66.1421 72.7431C66.2788 72.6845 66.3569 72.5478 66.4545 72.4502C66.5852 72.3623 66.7034 72.2572 66.806 72.1378C66.8646 72.0402 66.8841 71.9035 66.9427 71.7864C67.0214 71.6316 67.0805 71.4676 67.1184 71.2982V71.2787L67.1379 71.142L67.3722 69.3457V69.3066L69.0709 55.678C69.4943 52.3756 71.1047 49.34 73.6016 47.1377C76.0986 44.9353 79.3115 43.7166 82.641 43.7091H98.0268C101.356 43.7166 104.569 44.9353 107.066 47.1377C109.563 49.34 111.174 52.3756 111.597 55.678L113.549 71.2787C113.582 71.5833 113.688 71.8754 113.858 72.1303C114.028 72.3853 114.257 72.5954 114.526 72.7431C117.182 74.2077 119.276 76.5145 120.477 79.3001C121.678 82.0857 121.919 85.1917 121.16 88.1288C120.402 91.066 118.688 93.6675 116.288 95.5234C113.889 97.3793 110.94 98.3841 107.907 98.3797Z" fill="#200A52"/>
<path d="M107.708 57.9236C107.122 52.0465 102.963 47.6143 98.0233 47.6143H82.6374C77.6975 47.6143 73.5386 52.0465 72.9724 57.7479L70.8442 68.721C70.7895 69.0034 70.7979 69.2943 70.8688 69.573C70.9396 69.8517 71.0711 70.1113 71.2539 70.3333C71.4367 70.5552 71.6663 70.7341 71.9262 70.857C72.1862 70.98 72.4701 71.044 72.7576 71.0445H107.903C108.191 71.044 108.475 70.98 108.734 70.857C108.994 70.7341 109.224 70.5552 109.407 70.3333C109.59 70.1113 109.721 69.8517 109.792 69.573C109.863 69.2943 109.871 69.0034 109.817 68.721L107.708 57.9236ZM75.1202 67.1395L76.8384 58.3141C77.2289 54.4481 79.7281 51.5193 82.6374 51.5193H98.0233C100.933 51.5193 103.432 54.4481 103.842 58.4898L105.541 67.1395H75.1202Z" fill="#200A52"/>
<path d="M80.5713 3.90505H78.6188V1.95252C78.6188 0.874175 77.7446 0 76.6663 0C75.5879 0 74.7138 0.874174 74.7138 1.95252V3.90505H70.8087V1.95252C70.8087 0.874175 69.9345 0 68.8562 0C67.7778 0 66.9037 0.874174 66.9037 1.95252V3.90505H59.0936V1.95252C59.0936 0.874176 58.2194 0 57.1411 0C56.0627 0 55.1885 0.874174 55.1885 1.95252V3.90505H51.2835V1.95252C51.2835 0.874176 50.4093 0 49.331 0C48.2526 0 47.3784 0.874174 47.3784 1.95252V3.90505H45.4259C44.9081 3.90505 44.4114 4.11076 44.0453 4.47693C43.6791 4.8431 43.4734 5.33973 43.4734 5.85757V29.2879C43.4734 29.8057 43.6791 30.3023 44.0453 30.6685C44.4114 31.0347 44.9081 31.2404 45.4259 31.2404H80.5713C81.0892 31.2404 81.5858 31.0347 81.952 30.6685C82.3182 30.3023 82.5239 29.8057 82.5239 29.2879V5.85757C82.5239 5.33973 82.3182 4.8431 81.952 4.47693C81.5858 4.11076 81.0892 3.90505 80.5713 3.90505ZM78.6188 27.3353H47.3784V7.81009H78.6188V27.3353Z" fill="#44E0B7"/>
<path d="M64.4844 10.4462C64.2944 10.2429 64.0647 10.0807 63.8094 9.96983C63.5541 9.85897 63.2788 9.80176 63.0005 9.80176C62.7222 9.80176 62.4468 9.85897 62.1916 9.96983C61.9363 10.0807 61.7065 10.2429 61.5166 10.4462C61.0675 10.9734 57.1429 15.679 57.1429 19.5255C57.056 20.3159 57.1477 21.1158 57.4113 21.866C57.6749 22.6162 58.1037 23.2976 58.666 23.8599C59.2283 24.4222 59.9097 24.851 60.66 25.1146C61.4102 25.3783 62.2101 25.47 63.0005 25.383C63.7909 25.47 64.5908 25.3783 65.341 25.1146C66.0912 24.851 66.7727 24.4222 67.3349 23.8599C67.8972 23.2976 68.326 22.6162 68.5897 21.866C68.8533 21.1158 68.945 20.3159 68.8581 19.5255C68.8581 15.679 64.9335 10.9734 64.4844 10.4462ZM63.0005 21.478C61.4385 21.478 61.048 21.2437 61.048 19.5255C61.3163 17.8719 61.9868 16.3097 63.0005 14.9761C64.0079 16.3134 64.6777 17.874 64.953 19.5255C64.953 21.2437 64.5625 21.478 63.0005 21.478Z" fill="#44E0B7"/>
<path d="M18.0905 59.3291H10.2804C9.20206 59.3291 8.32788 60.2033 8.32788 61.2816C8.32788 62.36 9.20205 63.2341 10.2804 63.2341H18.0905C19.1688 63.2341 20.043 62.36 20.043 61.2816C20.043 60.2033 19.1688 59.3291 18.0905 59.3291Z" fill="#200A52"/>
</g>
<defs>
<clipPath id="clip0">
<rect width="124.963" height="114" fill="white" transform="translate(0.518555)"/>
</clipPath>
</defs>
</svg>
