<svg width="90" height="90" viewBox="0 0 90 90" fill="none" xmlns="http://www.w3.org/2000/svg">
<path d="M38.8125 2.75L44.3125 0.6875L53.9375 7.5625L73.875 41.9375L86.25 66V72.1875L81.4375 78.375L25.75 79.0625L10.625 78.375L2.375 70.8125L4.4375 61.875L28.5 20.625L38.8125 2.75Z" fill="#8A79B3" fill-opacity="0.2"/>
<path d="M73.9668 42.1667L85.8544 63.4974C89.6997 70.3944 84.6376 78.8334 76.6547 78.8334H63.334" stroke="#200A52" stroke-width="3.66667" stroke-linecap="round"/>
<path d="M26.314 78.8333H13.5009C5.40164 78.8333 0.265776 70.2463 4.16469 63.2284L35.2499 7.29518C39.2935 0.0126081 49.8715 0.0126081 53.9175 7.29518L67.0007 30.836" stroke="#200A52" stroke-width="3.66667" stroke-linecap="round"/>
<path fill-rule="evenodd" clip-rule="evenodd" d="M45.3978 64.1666H44.6009C40.7876 64.1666 37.666 60.9905 37.666 57.1105V25.3918C37.666 21.5118 40.7876 18.3333 44.6009 18.3333H45.3978C49.2136 18.3333 52.3327 21.5118 52.3327 25.3918V36.5318V42.7721V49.7087V57.1105C52.3327 60.9905 49.2136 64.1666 45.3978 64.1666Z" fill="#5230A2" fill-opacity="0.3" stroke="#5230A2" stroke-width="3.66667" stroke-linecap="round"/>
<path fill-rule="evenodd" clip-rule="evenodd" d="M52.3327 80.6666C52.3327 84.717 49.0498 87.9999 44.9993 87.9999C40.9489 87.9999 37.666 84.717 37.666 80.6666C37.666 76.6186 40.9489 73.3333 44.9993 73.3333C49.0498 73.3333 52.3327 76.6186 52.3327 80.6666Z" fill="#5230A2" fill-opacity="0.3" stroke="#5230A2" stroke-width="3.66667" stroke-linecap="round"/>
</svg>
