<svg width="114" height="114" viewBox="0 0 114 114" fill="none" xmlns="http://www.w3.org/2000/svg">
<path d="M112.219 28.5H92.625V26.7188C92.625 26.2463 92.4373 25.7933 92.1033 25.4592C91.7692 25.1252 91.3162 24.9375 90.8438 24.9375H73.0312C72.5588 24.9375 72.1058 25.1252 71.7717 25.4592C71.4377 25.7933 71.25 26.2463 71.25 26.7188V28.5H51.6562C51.1838 28.5 50.7308 28.6877 50.3967 29.0217C50.0627 29.3558 49.875 29.8088 49.875 30.2812V112.219C49.875 112.691 50.0627 113.144 50.3967 113.478C50.7308 113.812 51.1838 114 51.6562 114H112.219C112.691 114 113.144 113.812 113.478 113.478C113.812 113.144 114 112.691 114 112.219V30.2812C114 29.8088 113.812 29.3558 113.478 29.0217C113.144 28.6877 112.691 28.5 112.219 28.5ZM74.8125 28.5H89.0625V32.0625H74.8125V28.5ZM71.25 32.0625V33.8438C71.25 34.3162 71.4377 34.7692 71.7717 35.1033C72.1058 35.4373 72.5588 35.625 73.0312 35.625H90.8438C91.3162 35.625 91.7692 35.4373 92.1033 35.1033C92.4373 34.7692 92.625 34.3162 92.625 33.8438V32.0625H103.312V103.312H60.5625V32.0625H71.25ZM110.438 110.438H53.4375V32.0625H57V105.094C57 105.566 57.1877 106.019 57.5217 106.353C57.8558 106.687 58.3088 106.875 58.7812 106.875H105.094C105.566 106.875 106.019 106.687 106.353 106.353C106.687 106.019 106.875 105.566 106.875 105.094V32.0625H110.438V110.438Z" fill="#200A52"/>
<path d="M94.4062 39.1875H69.4688C68.485 39.1875 67.6875 39.985 67.6875 40.9688C67.6875 41.9525 68.485 42.75 69.4688 42.75H94.4062C95.39 42.75 96.1875 41.9525 96.1875 40.9688C96.1875 39.985 95.39 39.1875 94.4062 39.1875Z" fill="#44E0B7"/>
<path d="M65.9062 57H73.0312C73.5037 57 73.9567 56.8123 74.2908 56.4783C74.6248 56.1442 74.8125 55.6912 74.8125 55.2188V48.0938C74.8125 47.6213 74.6248 47.1683 74.2908 46.8342C73.9567 46.5002 73.5037 46.3125 73.0312 46.3125H65.9062C65.4338 46.3125 64.9808 46.5002 64.6467 46.8342C64.3127 47.1683 64.125 47.6213 64.125 48.0938V55.2188C64.125 55.6912 64.3127 56.1442 64.6467 56.4783C64.9808 56.8123 65.4338 57 65.9062 57ZM67.6875 49.875H71.25V53.4375H67.6875V49.875Z" fill="#44E0B7"/>
<path d="M97.9688 46.3125H80.1562C79.1725 46.3125 78.375 47.11 78.375 48.0938C78.375 49.0775 79.1725 49.875 80.1562 49.875H97.9688C98.9525 49.875 99.75 49.0775 99.75 48.0938C99.75 47.11 98.9525 46.3125 97.9688 46.3125Z" fill="#200A52"/>
<path d="M97.9688 53.4375H80.1562C79.1725 53.4375 78.375 54.235 78.375 55.2188C78.375 56.2025 79.1725 57 80.1562 57H97.9688C98.9525 57 99.75 56.2025 99.75 55.2188C99.75 54.235 98.9525 53.4375 97.9688 53.4375Z" fill="#200A52"/>
<path d="M65.9062 71.25H73.0312C73.5037 71.25 73.9567 71.0623 74.2908 70.7283C74.6248 70.3942 74.8125 69.9412 74.8125 69.4688V62.3438C74.8125 61.8713 74.6248 61.4183 74.2908 61.0842C73.9567 60.7502 73.5037 60.5625 73.0312 60.5625H65.9062C65.4338 60.5625 64.9808 60.7502 64.6467 61.0842C64.3127 61.4183 64.125 61.8713 64.125 62.3438V69.4688C64.125 69.9412 64.3127 70.3942 64.6467 70.7283C64.9808 71.0623 65.4338 71.25 65.9062 71.25ZM67.6875 64.125H71.25V67.6875H67.6875V64.125Z" fill="#44E0B7"/>
<path d="M97.9688 60.5625H80.1562C79.1725 60.5625 78.375 61.36 78.375 62.3438C78.375 63.3275 79.1725 64.125 80.1562 64.125H97.9688C98.9525 64.125 99.75 63.3275 99.75 62.3438C99.75 61.36 98.9525 60.5625 97.9688 60.5625Z" fill="#200A52"/>
<path d="M97.9688 67.6875H80.1562C79.1725 67.6875 78.375 68.485 78.375 69.4688C78.375 70.4525 79.1725 71.25 80.1562 71.25H97.9688C98.9525 71.25 99.75 70.4525 99.75 69.4688C99.75 68.485 98.9525 67.6875 97.9688 67.6875Z" fill="#200A52"/>
<path d="M65.9062 85.5H73.0312C73.5037 85.5 73.9567 85.3123 74.2908 84.9783C74.6248 84.6442 74.8125 84.1912 74.8125 83.7188V76.5938C74.8125 76.1213 74.6248 75.6683 74.2908 75.3342C73.9567 75.0002 73.5037 74.8125 73.0312 74.8125H65.9062C65.4338 74.8125 64.9808 75.0002 64.6467 75.3342C64.3127 75.6683 64.125 76.1213 64.125 76.5938V83.7188C64.125 84.1912 64.3127 84.6442 64.6467 84.9783C64.9808 85.3123 65.4338 85.5 65.9062 85.5ZM67.6875 78.375H71.25V81.9375H67.6875V78.375Z" fill="#44E0B7"/>
<path d="M97.9688 74.8125H80.1562C79.1725 74.8125 78.375 75.61 78.375 76.5938C78.375 77.5775 79.1725 78.375 80.1562 78.375H97.9688C98.9525 78.375 99.75 77.5775 99.75 76.5938C99.75 75.61 98.9525 74.8125 97.9688 74.8125Z" fill="#200A52"/>
<path d="M97.9688 81.9375H80.1562C79.1725 81.9375 78.375 82.735 78.375 83.7188C78.375 84.7025 79.1725 85.5 80.1562 85.5H97.9688C98.9525 85.5 99.75 84.7025 99.75 83.7188C99.75 82.735 98.9525 81.9375 97.9688 81.9375Z" fill="#200A52"/>
<path d="M65.9062 99.75H73.0312C73.5037 99.75 73.9567 99.5623 74.2908 99.2283C74.6248 98.8942 74.8125 98.4412 74.8125 97.9688V90.8438C74.8125 90.3713 74.6248 89.9183 74.2908 89.5842C73.9567 89.2502 73.5037 89.0625 73.0312 89.0625H65.9062C65.4338 89.0625 64.9808 89.2502 64.6467 89.5842C64.3127 89.9183 64.125 90.3713 64.125 90.8438V97.9688C64.125 98.4412 64.3127 98.8942 64.6467 99.2283C64.9808 99.5623 65.4338 99.75 65.9062 99.75ZM67.6875 92.625H71.25V96.1875H67.6875V92.625Z" fill="#44E0B7"/>
<path d="M97.9688 89.0625H80.1562C79.1725 89.0625 78.375 89.86 78.375 90.8438C78.375 91.8275 79.1725 92.625 80.1562 92.625H97.9688C98.9525 92.625 99.75 91.8275 99.75 90.8438C99.75 89.86 98.9525 89.0625 97.9688 89.0625Z" fill="#200A52"/>
<path d="M97.9688 96.1875H80.1562C79.1725 96.1875 78.375 96.985 78.375 97.9688C78.375 98.9525 79.1725 99.75 80.1562 99.75H97.9688C98.9525 99.75 99.75 98.9525 99.75 97.9688C99.75 96.985 98.9525 96.1875 97.9688 96.1875Z" fill="#200A52"/>
<g clip-path="url(#clip0)">
<g clip-path="url(#clip1)">
<path d="M28.5074 6.43679L28.5093 6.43676C31.4435 6.4399 34.2566 7.60673 36.3316 9.68132C38.4065 11.7558 39.5738 14.5686 39.5776 17.5027M28.5074 6.43679L39.4392 17.5032M28.5074 6.43679C25.5848 6.47523 22.7928 7.65332 20.726 9.72006C18.6593 11.7868 17.4812 14.5789 17.4427 17.5014L17.4427 17.5039C17.4534 19.7834 18.2066 21.9958 19.5859 23.8069C16.5775 25.3681 14.0262 27.6857 12.1838 30.5329C10.3111 33.4268 9.2375 36.7648 9.07208 40.2079C8.90666 43.6509 9.65527 47.0764 11.2419 50.1366C12.8168 53.1742 15.1618 55.7445 18.0417 57.5906L18.0417 86.039L18.0417 86.0408C18.0716 88.3659 19.0223 90.5842 20.6855 92.2092C22.3484 93.8341 24.5878 94.7333 26.9126 94.7096C26.9129 94.7096 26.9131 94.7096 26.9134 94.7096L30.308 94.7096H30.3082C32.6069 94.707 34.8108 93.7927 36.4363 92.1673C38.0617 90.5418 38.9761 88.3379 38.9787 86.0392V86.039V57.6428C41.8095 55.9295 44.146 53.5086 45.7579 50.6178C47.3823 47.7044 48.2139 44.4157 48.1694 41.0804M28.5074 6.43679L48.1694 41.0804M39.5776 17.5027C39.5776 17.5028 39.5776 17.5029 39.5776 17.503L39.4392 17.5032M39.5776 17.5027C39.5776 17.5025 39.5776 17.5024 39.5776 17.5022L39.4392 17.5032M39.5776 17.5027C39.5936 19.816 38.8725 22.0727 37.5213 23.9469M39.4392 17.5032C39.4551 19.7951 38.7383 22.0308 37.3952 23.885C37.4373 23.9055 37.4793 23.9261 37.5213 23.9469M37.5213 23.9469C40.6893 25.5151 43.3622 27.9307 45.2422 30.9268C47.1515 33.9696 48.1658 37.4882 48.1694 41.0804M37.5213 23.9469C37.4939 23.9848 37.4663 24.0226 37.4384 24.0603C40.5929 25.6169 43.2543 28.0192 45.125 31.0004C47.0206 34.0214 48.0276 37.5149 48.031 41.0814L48.1694 41.0804M38.0024 51.245C37.8425 50.8968 37.6593 50.5598 37.454 50.2362M38.0024 51.245C38.0269 51.2968 38.0542 51.3467 38.0814 51.3966C38.1183 51.4641 38.1552 51.5316 38.1851 51.6034M38.0024 51.245L38.1276 51.1858C38.1277 51.1861 38.1278 51.1863 38.1279 51.1866C38.1504 51.2341 38.1754 51.2798 38.2025 51.3295C38.2074 51.3385 38.2124 51.3476 38.2175 51.3569C38.2496 51.4159 38.2838 51.4803 38.3127 51.5498M38.0024 51.245L38.3127 51.5498M37.454 50.2362L34.0749 26.8415M37.454 50.2362C37.3826 50.1266 37.3033 50.0242 37.2238 49.9216C37.1882 49.8757 37.1526 49.8297 37.1176 49.783L37.454 50.2362ZM38.1851 51.6034C38.3616 52.0232 38.5038 52.4566 38.6103 52.8991C38.6498 52.8659 38.6892 52.8326 38.7283 52.799M38.1851 51.6034L38.3129 51.5503C38.3128 51.5501 38.3127 51.55 38.3127 51.5498M38.1851 51.6034L38.3127 51.5498M38.7283 52.799C38.7408 52.8492 38.7529 52.8996 38.7645 52.9501C40.4614 51.5085 41.8236 49.7133 42.7552 47.6896C43.7085 45.6188 44.1868 43.361 44.1552 41.0814C44.1558 37.9564 43.1865 34.9082 41.3809 32.3575C39.5753 29.8069 37.0226 27.8795 34.0749 26.8415M38.7283 52.799C38.622 52.3727 38.483 51.955 38.3127 51.5498M38.7283 52.799L38.3127 51.5498M34.0749 26.8415L34.029 26.9721C34.0498 26.9795 34.0707 26.9869 34.0916 26.9943C34.1116 26.9825 34.1316 26.9701 34.1513 26.957L34.0749 26.8415ZM34.0399 47.0768C34.0401 47.0769 34.0403 47.077 34.0405 47.077L33.9805 47.2018L34.0396 47.0766C34.0397 47.0767 34.0398 47.0767 34.0399 47.0768ZM34.0399 47.0768C34.0034 47.0592 33.9665 47.0412 33.9293 47.023C33.7877 46.9538 33.6412 46.8823 33.4883 46.8218L33.4866 46.8211C33.1508 46.6931 32.8073 46.5863 32.4582 46.5013M34.0399 47.0768L32.4582 46.5013M32.4582 46.5013C32.3979 46.4857 32.3394 46.4685 32.2783 46.4505C32.2572 46.4442 32.2358 46.4379 32.2139 46.4315C32.1305 46.4073 32.0426 46.3831 31.9505 46.3653M32.4582 46.5013L26.7979 28.2888L26.7759 28.4255C26.7759 28.4254 26.7758 28.4254 26.7758 28.4254C26.6579 28.4064 26.5377 28.3767 26.4244 28.3487C26.3631 28.3335 26.3039 28.3189 26.2482 28.3067C25.8801 28.2301 25.5169 28.1315 25.1605 28.0117L25.1593 28.0113C24.9822 27.9499 24.8125 27.8774 24.6474 27.8068C24.6282 27.7987 24.6092 27.7905 24.5902 27.7824C24.2756 27.6495 23.9691 27.4981 23.6723 27.3291L23.672 27.3289C23.494 27.2271 23.3176 27.1213 23.1452 27.0052M31.9505 46.3653C31.4098 46.2578 30.86 46.2022 30.3086 46.1993H30.3079L26.912 46.1993L26.9112 46.1993C26.3502 46.2024 25.7906 46.2576 25.2398 46.3644M31.9505 46.3653L31.9235 46.5011M31.9505 46.3653C31.9502 46.3653 31.95 46.3652 31.9497 46.3652L31.9235 46.5011M25.2398 46.3644C25.2397 46.3645 25.2395 46.3645 25.2394 46.3645L25.2658 46.5004L25.2402 46.3644C25.2401 46.3644 25.2399 46.3644 25.2398 46.3644ZM25.2398 46.3644C25.1248 46.3861 25.0064 46.4195 24.8956 46.4509C24.8358 46.4678 24.7781 46.4841 24.7245 46.4976C24.368 46.5823 24.0171 46.689 23.6738 46.8169L23.6723 46.8175C23.5097 46.8802 23.3544 46.9533 23.2031 47.0245C23.173 47.0387 23.1431 47.0528 23.1132 47.0667C23.1132 47.0667 23.1131 47.0667 23.113 47.0668L23.1716 47.1922M23.1716 47.1922C22.8741 47.3294 22.5845 47.4831 22.3043 47.6528C22.1292 47.7598 21.9605 47.871 21.794 47.9897C21.5301 48.1792 21.2769 48.3833 21.0357 48.601M23.1716 47.1922C23.2023 47.1779 23.2328 47.1635 23.2632 47.1492C23.4145 47.078 23.5646 47.0074 23.7221 46.9467L23.1716 47.1922ZM21.0357 48.601L20.9434 48.4979C20.9432 48.4981 20.9431 48.4982 20.943 48.4983C20.9171 48.5215 20.8908 48.5448 20.8645 48.5683C20.7449 48.6746 20.6218 48.784 20.5062 48.9025L20.5052 48.9036C20.2594 49.1609 20.0296 49.4329 19.8169 49.7181M21.0357 48.601C21.0089 48.6251 20.982 48.649 20.9551 48.6729C20.8357 48.7791 20.7171 48.8846 20.6053 48.9992L21.0357 48.601ZM19.8169 49.7181C19.8171 49.7179 19.8172 49.7177 19.8174 49.7175L19.9274 49.8015L19.8165 49.7188C19.8166 49.7185 19.8168 49.7183 19.8169 49.7181ZM19.8169 49.7181C19.7851 49.7598 19.7489 49.8044 19.7111 49.8508C19.6423 49.9356 19.5684 50.0265 19.5072 50.1172M19.5072 50.1172C18.9782 50.8944 18.5819 51.7534 18.3339 52.6592M19.5072 50.1172C19.5072 50.1173 19.5072 50.1173 19.5071 50.1174L19.6219 50.1947M19.5072 50.1172C19.5073 50.1171 19.5074 50.117 19.5075 50.1169L19.6219 50.1947M18.3339 52.6592C16.7437 51.2228 15.4666 49.473 14.5834 47.5188C13.6694 45.4962 13.1984 43.3015 13.2022 41.082M18.3339 52.6592C18.3202 52.7092 18.3069 52.7593 18.2942 52.8096L19.6219 50.1947M18.3339 52.6592C18.3722 52.6938 18.4107 52.7283 18.4494 52.7625C18.692 51.8468 19.0884 50.9785 19.6219 50.1947M13.2022 41.082C13.2246 38.0046 14.1647 35.0039 15.9024 32.464C17.6263 29.9442 20.0573 27.9916 22.8885 26.8518M13.2022 41.082C13.2022 41.0819 13.2022 41.0818 13.2022 41.0817L13.0638 41.0814L13.2022 41.0824C13.2022 41.0823 13.2022 41.0821 13.2022 41.082ZM22.8885 26.8518C22.9246 26.8749 22.9605 26.8957 22.9942 26.915C23.0006 26.9186 23.0068 26.9222 23.013 26.9257C23.0612 26.9532 23.1043 26.9777 23.1452 27.0052M22.8885 26.8518C22.8667 26.8378 22.8449 26.823 22.8234 26.8072L22.9056 26.6958L22.9567 26.8245C22.9339 26.8335 22.9112 26.8426 22.8885 26.8518ZM23.1452 27.0052C23.1452 27.0052 23.1452 27.0052 23.1453 27.0053L23.2225 26.8904L23.1452 27.0052ZM31.9235 46.5011C31.3914 46.3953 30.8504 46.3406 30.3079 46.3377L31.9235 46.5011ZM35.425 17.5018L35.4248 17.5018L35.4251 17.509C35.4695 18.5719 35.2374 19.6281 34.7515 20.5744C34.266 21.5197 33.5439 22.323 32.6555 22.9059C32.5494 22.9682 32.4491 23.0398 32.3558 23.1199C31.2729 24.0008 29.9088 24.4621 28.5135 24.419L28.5135 24.4186L28.502 24.4192C27.8195 24.4547 27.1369 24.3496 26.4968 24.1103C25.857 23.8711 25.2732 23.5031 24.7816 23.029C24.6749 22.9219 24.5567 22.827 24.429 22.7462C23.5574 22.1777 22.8417 21.4004 22.3468 20.485C21.8519 19.5696 21.5936 18.5449 21.5953 17.5043C21.6195 15.6779 22.3558 13.933 23.6474 12.6414C24.9391 11.3497 26.6842 10.6134 28.5108 10.5894C29.4214 10.5795 30.3247 10.7515 31.1679 11.0953C32.0112 11.4392 32.7773 11.9479 33.4213 12.5918C34.0653 13.2356 34.5743 14.0015 34.9183 14.8447C35.2624 15.6878 35.4346 16.5912 35.425 17.5018ZM33.7847 27.1609C33.7847 27.1608 33.7847 27.1608 33.7847 27.1608L33.7137 27.042L33.7847 27.1609ZM34.8261 54.8692V86.038C34.81 87.2315 34.3288 88.3717 33.4847 89.2157C32.6408 90.0597 31.5008 90.5409 30.3074 90.557L26.912 90.557L26.9093 90.557C25.6851 90.5808 24.5013 90.1182 23.6175 89.2708C22.7341 88.4237 22.2224 87.261 22.1943 86.0374V54.8697C22.2226 53.6464 22.7345 52.4841 23.6179 51.6373C24.5017 50.7902 25.6853 50.328 26.9093 50.352H26.912H30.3071C31.5004 50.3677 32.6404 50.8487 33.4844 51.6924C34.3284 52.5361 34.8098 53.6759 34.8261 54.8692Z" fill="#200A52" stroke="#200A52" stroke-width="0.276841"/>
<path d="M13.4545 57.5169H13.4545C12.9038 57.5169 12.3757 57.7357 11.9863 58.125C11.597 58.5144 11.3782 59.0425 11.3782 59.5932V59.5932V70.2834H6.77871C6.22804 70.2834 5.69992 70.5022 5.31054 70.8916C4.92115 71.281 4.7024 71.8091 4.7024 72.3598C4.7024 72.9104 4.92115 73.4385 5.31054 73.8279C5.69992 74.2173 6.22804 74.4361 6.77871 74.4361H13.4544C14.0051 74.4361 14.5332 74.2173 14.9226 73.8279C15.3119 73.4385 15.5307 72.9104 15.5307 72.3598V59.5932C15.5307 59.0425 15.3119 58.5144 14.9226 58.1251C14.5332 57.7357 14.0051 57.5169 13.4545 57.5169Z" fill="#200A52" stroke="#200A52" stroke-width="0.276841"/>
<path d="M50.3241 70.2834H45.7256V59.5932C45.7256 59.0425 45.5069 58.5144 45.1175 58.125C44.7281 57.7356 44.2 57.5169 43.6493 57.5169C43.0986 57.5169 42.5705 57.7356 42.1811 58.125C41.7918 58.5144 41.573 59.0425 41.573 59.5932V72.3598C41.573 72.9104 41.7918 73.4385 42.1812 73.8279C42.5705 74.2173 43.0986 74.436 43.6493 74.4361H50.3241C50.8747 74.4361 51.4028 74.2173 51.7922 73.8279C52.1816 73.4385 52.4004 72.9104 52.4004 72.3598C52.4004 71.8091 52.1816 71.281 51.7922 70.8916C51.4029 70.5022 50.8747 70.2834 50.3241 70.2834Z" fill="#200A52" stroke="#200A52" stroke-width="0.276841"/>
<path d="M15.5305 17.5053C15.5305 16.9546 15.3117 16.4265 14.9223 16.0371C14.5329 15.6477 14.0048 15.429 13.4541 15.429H2.17031C1.61964 15.429 1.09152 15.6477 0.702138 16.0371C0.312755 16.4265 0.0940013 16.9546 0.0940013 17.5053C0.0940013 18.0559 0.312755 18.5841 0.702138 18.9734C1.09152 19.3628 1.61964 19.5816 2.17031 19.5816H13.4541C14.0048 19.5816 14.5329 19.3628 14.9223 18.9734C15.3117 18.584 15.5304 18.0559 15.5305 17.5053Z" fill="#200A52" stroke="#200A52" stroke-width="0.276841"/>
<path d="M55.9659 15.429H44.682C44.1314 15.429 43.6032 15.6477 43.2139 16.0371C42.8245 16.4265 42.6057 16.9546 42.6057 17.5053C42.6057 18.0559 42.8245 18.5841 43.2139 18.9734C43.6032 19.3628 44.1314 19.5816 44.682 19.5816H55.9659C56.5165 19.5816 57.0447 19.3628 57.434 18.9734C57.8234 18.5841 58.0422 18.0559 58.0422 17.5053C58.0422 16.9546 57.8234 16.4265 57.434 16.0371C57.0447 15.6477 56.5165 15.429 55.9659 15.429Z" fill="#200A52" stroke="#44E0B7" stroke-width="0.276841"/>
</g>
</g>
<path d="M55.9659 15.429H44.682C44.1314 15.429 43.6032 15.6477 43.2139 16.0371C42.8245 16.4265 42.6057 16.9546 42.6057 17.5053C42.6057 18.0559 42.8245 18.5841 43.2139 18.9734C43.6032 19.3628 44.1314 19.5816 44.682 19.5816H55.9659C56.5165 19.5816 57.0447 19.3628 57.434 18.9734C57.8234 18.5841 58.0422 18.0559 58.0422 17.5053C58.0422 16.9546 57.8234 16.4265 57.434 16.0371C57.0447 15.6477 56.5165 15.429 55.9659 15.429Z" fill="#200A52" stroke="#200A52" stroke-width="0.276841"/>
<defs>
<clipPath id="clip0">
<rect width="48" height="89.1429" fill="white" transform="translate(0 6)"/>
</clipPath>
<clipPath id="clip1">
<rect width="58.1366" height="89.1429" fill="white" transform="translate(0 6)"/>
</clipPath>
</defs>
</svg>
