<svg width="12" height="7" viewBox="0 0 12 7" fill="none" xmlns="http://www.w3.org/2000/svg">
<path fill-rule="evenodd" clip-rule="evenodd" d="M11.6099 0.939236C11.0912 0.420515 10.2475 0.417856 9.72553 0.933297L7.22076 3.40669C6.68616 3.93458 5.82212 3.93186 5.29086 3.40061L2.82946 0.939199C2.31074 0.420478 1.46708 0.417818 0.9451 0.933259C0.423119 1.4487 0.420477 2.28705 0.939198 2.80577L4.69611 6.56268C4.94439 6.81097 5.26711 6.94102 5.59337 6.95262C6.04369 6.96863 6.53391 6.95917 6.98328 6.92611C7.28919 6.90361 7.58883 6.7766 7.82347 6.5449L11.604 2.81175C12.126 2.29631 12.1286 1.45796 11.6099 0.939236Z" fill="#44E0B7"/>
</svg>
