<svg width="13" height="13" viewBox="0 0 13 13" fill="none" xmlns="http://www.w3.org/2000/svg">
<g clip-path="url(#clip0)">
<path fill-rule="evenodd" clip-rule="evenodd" d="M5.90029 3.97479C6.18506 3.68821 6.18506 3.2255 5.90029 2.93892L5.73107 2.76863C5.34927 2.38442 4.72769 2.38442 4.3459 2.76863L0.909035 6.22723C0.909028 6.22723 0.909028 6.22725 0.909035 6.22725C0.909041 6.22726 0.909041 6.22727 0.909035 6.22728C0.909028 6.22728 0.909028 6.22729 0.909035 6.2273L4.3459 9.6859C4.7277 10.0701 5.34927 10.0701 5.73107 9.6859L5.90043 9.51546C6.18513 9.22897 6.18513 8.76638 5.90043 8.47988C5.43992 8.01646 5.76817 7.22751 6.4215 7.22751H11.9102C12.4624 7.22751 12.9102 6.77979 12.9102 6.22751C12.9102 5.67522 12.4624 5.22751 11.9102 5.22751H6.4215C5.76799 5.22751 5.43965 4.43834 5.90029 3.97479Z" fill="#5230A2"/>
</g>
<defs>
<clipPath id="clip0">
<rect width="12.0011" height="11.9934" fill="white" transform="matrix(-1 0 0 1 12.9102 0.230591)"/>
</clipPath>
</defs>
</svg>
