<svg width="10" height="10" viewBox="0 0 10 10" fill="none" xmlns="http://www.w3.org/2000/svg">
<g clip-path="url(#clip0)">
<path fill-rule="evenodd" clip-rule="evenodd" d="M4.12019 3.14065C4.35532 2.90403 4.35532 2.52198 4.12019 2.28536L3.98057 2.14486C3.66539 1.82769 3.15227 1.82769 2.8371 2.14486L-5.14984e-05 4.99995C-7.9155e-05 4.99998 -7.9155e-05 5.00002 -5.14984e-05 5.00005C-2.38419e-05 5.00008 -2.38419e-05 5.00013 -5.14984e-05 5.00015C-7.9155e-05 5.00018 -7.9155e-05 5.00023 -5.14984e-05 5.00026L2.8371 7.85535C3.15227 8.17252 3.6654 8.17252 3.98057 7.85535L4.12042 7.71461C4.35542 7.47812 4.35542 7.09628 4.12042 6.85979C3.74029 6.47726 4.01125 5.82602 4.55054 5.82602H9.0822C9.53812 5.82602 9.90771 5.45643 9.90771 5.00051C9.90771 4.54459 9.53812 4.17499 9.0822 4.17499H4.55054C4.01095 4.17499 3.73985 3.5234 4.12019 3.14065Z" fill="#5230A2"/>
</g>
<defs>
<clipPath id="clip0">
<rect width="9.90779" height="9.90093" fill="white" transform="matrix(-1 0 0 1 9.90771 0.0495605)"/>
</clipPath>
</defs>
</svg>
