<svg width="22" height="16" viewBox="0 0 22 16" fill="none" xmlns="http://www.w3.org/2000/svg">
<path d="M21.5207 6.34858L16.2643 4.09358L14.2686 0.683579L14.2057 0.589294C14.0586 0.405536 13.8721 0.257179 13.6599 0.155182C13.4478 0.0531853 13.2154 0.000154882 12.98 7.77989e-06H6.69429C6.43484 -0.00080852 6.17923 0.0626245 5.95028 0.184644C5.72132 0.306664 5.52613 0.483475 5.38214 0.699294L2.71857 4.71429H0.785714C0.57733 4.71429 0.37748 4.79707 0.23013 4.94442C0.0827803 5.09177 0 5.29162 0 5.50001V12.5714C0 12.7798 0.0827803 12.9797 0.23013 13.127C0.37748 13.2744 0.57733 13.3572 0.785714 13.3572H2.46714C2.64808 14.0229 3.04307 14.6107 3.59118 15.0297C4.13929 15.4488 4.81006 15.6758 5.5 15.6758C6.18994 15.6758 6.86071 15.4488 7.40882 15.0297C7.95693 14.6107 8.35192 14.0229 8.53286 13.3572H13.4671C13.6481 14.0229 14.0431 14.6107 14.5912 15.0297C15.1393 15.4488 15.8101 15.6758 16.5 15.6758C17.1899 15.6758 17.8607 15.4488 18.4088 15.0297C18.9569 14.6107 19.3519 14.0229 19.5329 13.3572H21.2143C21.4227 13.3572 21.6225 13.2744 21.7699 13.127C21.9172 12.9797 22 12.7798 22 12.5714V7.07144C21.9999 6.91721 21.9544 6.76643 21.8691 6.63789C21.7839 6.50934 21.6627 6.40873 21.5207 6.34858ZM5.5 14.1429C5.1892 14.1429 4.88538 14.0507 4.62696 13.878C4.36854 13.7054 4.16713 13.4599 4.04819 13.1728C3.92925 12.8857 3.89813 12.5697 3.95877 12.2649C4.0194 11.96 4.16906 11.68 4.38883 11.4603C4.6086 11.2405 4.8886 11.0908 5.19343 11.0302C5.49826 10.9696 5.81422 11.0007 6.10136 11.1196C6.3885 11.2386 6.63392 11.44 6.80659 11.6984C6.97927 11.9568 7.07143 12.2606 7.07143 12.5714C7.07143 12.9882 6.90587 13.3879 6.61117 13.6826C6.31647 13.9773 5.91677 14.1429 5.5 14.1429ZM16.5 14.1429C16.1892 14.1429 15.8854 14.0507 15.627 13.878C15.3685 13.7054 15.1671 13.4599 15.0482 13.1728C14.9293 12.8857 14.8981 12.5697 14.9588 12.2649C15.0194 11.96 15.1691 11.68 15.3888 11.4603C15.6086 11.2405 15.8886 11.0908 16.1934 11.0302C16.4983 10.9696 16.8142 11.0007 17.1014 11.1196C17.3885 11.2386 17.6339 11.44 17.8066 11.6984C17.9793 11.9568 18.0714 12.2606 18.0714 12.5714C18.0714 12.9882 17.9059 13.3879 17.6112 13.6826C17.3165 13.9773 16.9168 14.1429 16.5 14.1429ZM20.4286 11.7857H19.5329C19.3519 11.1199 18.9569 10.5322 18.4088 10.1131C17.8607 9.69411 17.1899 9.46708 16.5 9.46708C15.8101 9.46708 15.1393 9.69411 14.5912 10.1131C14.0431 10.5322 13.6481 11.1199 13.4671 11.7857H8.53286C8.35192 11.1199 7.95693 10.5322 7.40882 10.1131C6.86071 9.69411 6.18994 9.46708 5.5 9.46708C4.81006 9.46708 4.13929 9.69411 3.59118 10.1131C3.04307 10.5322 2.64808 11.1199 2.46714 11.7857H1.57143V6.28572H3.14286C3.27227 6.28505 3.39951 6.25243 3.51328 6.19075C3.62705 6.12906 3.72382 6.04023 3.795 5.93215L6.71 1.57144H12.9957L15.0621 5.10715C15.1464 5.25408 15.276 5.36984 15.4314 5.43715L20.4286 7.59001V11.7857Z" fill="#8788A9"/>
</svg>
