<svg width="13" height="12" viewBox="0 0 13 12" fill="none" xmlns="http://www.w3.org/2000/svg">
<g clip-path="url(#clip0)">
<path fill-rule="evenodd" clip-rule="evenodd" d="M7.91892 3.74749C7.63415 3.46092 7.63415 2.9982 7.91892 2.71163L8.08815 2.54133C8.46994 2.15712 9.09152 2.15712 9.47331 2.54133L12.9102 5.99993C12.9102 5.99994 12.9102 5.99995 12.9102 5.99996C12.9102 5.99996 12.9102 5.99997 12.9102 5.99998C12.9102 5.99999 12.9102 6 12.9102 6.00001L9.47331 9.45861C9.09152 9.84282 8.46994 9.84282 8.08815 9.45861L7.91878 9.28817C7.63409 9.00167 7.63409 8.53908 7.91878 8.25259C8.37929 7.78916 8.05104 7.00021 7.39772 7.00021H1.90906C1.35677 7.00021 0.909058 6.5525 0.909058 6.00021C0.909058 5.44793 1.35677 5.00021 1.90906 5.00021H7.39771C8.05122 5.00021 8.37956 4.21105 7.91892 3.74749Z" fill="white"/>
</g>
<defs>
<clipPath id="clip0">
<rect width="12.0011" height="11.9934" fill="white" transform="translate(0.909058 0.0032959)"/>
</clipPath>
</defs>
</svg>
