<svg width="16" height="11" viewBox="0 0 16 11" fill="none" xmlns="http://www.w3.org/2000/svg">
<path fill-rule="evenodd" clip-rule="evenodd" d="M1.02407 9.64516C1.78905 10.4101 3.03322 10.4141 3.80301 9.65392L6.55552 6.93589C7.34391 6.15738 8.61815 6.1614 9.40162 6.94486L12.1365 9.67972C12.9015 10.4447 14.1456 10.4486 14.9154 9.68848C15.6852 8.92834 15.6891 7.69198 14.9241 6.927L9.44929 1.45217C9.42913 1.4301 9.40837 1.40837 9.38701 1.38701C9.07356 1.07356 8.67967 0.887892 8.27092 0.8302C7.68109 0.745921 7.05995 0.928238 6.60471 1.37777C6.57996 1.40221 6.55601 1.42713 6.53285 1.45252L1.03277 6.88368C0.262983 7.64383 0.259086 8.88018 1.02407 9.64516Z" fill="#44E0B7"/>
</svg>
