<svg width="16" height="10" viewBox="0 0 16 10" fill="none" xmlns="http://www.w3.org/2000/svg">
<path fill-rule="evenodd" clip-rule="evenodd" d="M15.2486 0.627789C14.4837 -0.137191 13.2395 -0.141112 12.4697 0.619031L9.71718 3.33706C8.92879 4.11557 7.65455 4.11155 6.87109 3.32809L4.13623 0.593225C3.37125 -0.171755 2.12707 -0.175677 1.35728 0.584465C0.587496 1.34461 0.5836 2.58096 1.34858 3.34594L6.82341 8.82077C6.84357 8.84285 6.86434 8.86458 6.8857 8.88594C7.19914 9.19939 7.59304 9.38506 8.00178 9.44275C8.59161 9.52703 9.21276 9.34471 9.668 8.89518C9.69274 8.87074 9.71669 8.84582 9.73985 8.82043L15.2399 3.38927C16.0097 2.62912 16.0136 1.39277 15.2486 0.627789Z" fill="#44E0B7"/>
</svg>
