<svg width="25" height="24" viewBox="0 0 25 24" fill="none" xmlns="http://www.w3.org/2000/svg">
<path fill-rule="evenodd" clip-rule="evenodd" d="M0.0976562 12C0.0976562 5.37258 5.47024 0 12.0977 0C18.7251 0 24.0977 5.37258 24.0977 12C24.0977 18.6274 18.7251 24 12.0977 24C5.47024 24 0.0976562 18.6274 0.0976562 12Z" fill="white"/>
<path fill-rule="evenodd" clip-rule="evenodd" d="M8.75128 7.41135C8.73363 6.6102 8.16072 6 7.23041 6C6.3001 6 5.69189 6.6102 5.69189 7.41135C5.69189 8.1959 6.28212 8.82367 7.19511 8.82367H7.21249C8.16072 8.82367 8.75128 8.1959 8.75128 7.41135ZM8.57277 9.93915H5.8533V18.11H8.57277V9.93915ZM15.2517 9.74652C17.0412 9.74652 18.3828 10.9146 18.3828 13.4243L18.3827 18.1092H15.6634V13.7378C15.6634 12.6398 15.2698 11.8906 14.2854 11.8906C13.5341 11.8906 13.0866 12.3957 12.89 12.8835C12.8181 13.0584 12.8005 13.302 12.8005 13.5462V18.1095H10.0807C10.0807 18.1095 10.1165 10.7053 10.0807 9.9386H12.8005V11.0959C13.1614 10.5396 13.8078 9.74652 15.2517 9.74652Z" fill="#5230A2"/>
</svg>
