<svg width="276" height="38" viewBox="0 0 276 38" fill="none" xmlns="http://www.w3.org/2000/svg">
<path d="M69.2195 30.2996H64.8932V28.528C63.1058 29.8488 61.1049 30.5052 58.9062 30.5052C56.0589 30.5052 53.6309 29.477 51.6141 27.4286C49.5973 25.3881 48.5928 22.9205 48.5928 20.0258C48.5928 17.1311 49.5973 14.6635 51.6141 12.623C53.6309 10.5746 56.0589 9.54639 58.9062 9.54639C61.1049 9.54639 63.0979 10.2028 64.8932 11.5078V9.75202H69.2195V30.2996ZM58.9141 26.179C60.5512 26.179 61.9669 25.5858 63.1454 24.3916C64.3159 23.1894 64.9011 21.7341 64.9011 20.0258C64.9011 18.3254 64.3159 16.8701 63.1454 15.66C61.9669 14.4658 60.5512 13.8726 58.9141 13.8726C57.2611 13.8726 55.8454 14.4658 54.667 15.66C53.5122 16.8622 52.9348 18.3175 52.9348 20.0258C52.9348 21.7262 53.5122 23.1815 54.667 24.3916C55.8375 25.5779 57.2532 26.179 58.9141 26.179Z" fill="white"/>
<path d="M90.3206 30.2995H86.0893V28.8996C84.6104 29.9594 82.9969 30.4814 81.2411 30.4814C78.7419 30.4814 76.6065 29.4849 74.827 27.4839C73.0632 25.4671 72.1775 23.047 72.1775 20.2155V9.75195H76.3929V20.2076C76.3929 21.8764 76.8674 23.2921 77.8323 24.4785C78.7735 25.6569 79.9124 26.2501 81.2411 26.2501C82.5857 26.2501 83.7245 25.6569 84.6736 24.4785C85.6148 23.308 86.0893 21.8923 86.0893 20.2314V9.75195H90.3206V30.2995Z" fill="white"/>
<path d="M99.155 9.75185H101.931V13.9832H99.155V30.2994H94.9237V13.9832H92.1635V9.75185H94.9237V3.07666H99.155V9.75185Z" fill="white"/>
<path d="M113.431 9.54639C116.262 9.54639 118.698 10.5746 120.723 12.623C122.74 14.6635 123.744 17.1311 123.744 20.0258C123.744 22.9205 122.74 25.3881 120.723 27.4286C118.698 29.477 116.27 30.5052 113.431 30.5052C110.583 30.5052 108.155 29.477 106.139 27.4286C104.122 25.3881 103.117 22.9205 103.117 20.0258C103.117 17.1311 104.122 14.6635 106.139 12.623C108.155 10.5746 110.583 9.54639 113.431 9.54639ZM113.431 26.179C115.068 26.179 116.484 25.5858 117.662 24.3916C118.833 23.1894 119.418 21.7341 119.418 20.0258C119.418 18.3254 118.833 16.8701 117.662 15.66C116.484 14.4658 115.068 13.8726 113.431 13.8726C111.778 13.8726 110.362 14.4658 109.184 15.66C108.029 16.8622 107.452 18.3175 107.452 20.0258C107.452 21.7262 108.029 23.1815 109.184 24.3916C110.362 25.5779 111.778 26.179 113.431 26.179Z" fill="white"/>
<path d="M153.237 30.2996H148.91V28.528C147.123 29.8488 145.122 30.5052 142.923 30.5052C140.076 30.5052 137.648 29.477 135.631 27.4286C133.614 25.3881 132.61 22.9205 132.61 20.0258C132.61 17.1311 133.614 14.6635 135.631 12.623C137.648 10.5746 140.076 9.54639 142.923 9.54639C145.122 9.54639 147.115 10.2028 148.91 11.5078V9.75202H153.237V30.2996ZM142.931 26.179C144.568 26.179 145.984 25.5858 147.163 24.3916C148.333 23.1894 148.918 21.7341 148.918 20.0258C148.918 18.3254 148.333 16.8701 147.163 15.66C145.984 14.4658 144.568 13.8726 142.931 13.8726C141.278 13.8726 139.863 14.4658 138.684 15.66C137.529 16.8622 136.952 18.3175 136.952 20.0258C136.952 21.7262 137.529 23.1815 138.684 24.3916C139.863 25.5779 141.278 26.179 142.931 26.179Z" fill="white"/>
<path d="M166.508 9.4751C169.339 9.4751 171.767 10.5033 173.8 12.5675C175.817 14.608 176.821 17.0677 176.821 19.9466C176.821 22.8413 175.817 25.3089 173.8 27.3494C171.775 29.3978 169.347 30.426 166.508 30.426C164.293 30.426 162.292 29.7696 160.505 28.4488V37.1961H156.195V9.75191H160.505V11.4286C162.292 10.1236 164.293 9.4751 166.508 9.4751ZM166.508 26.1235C168.145 26.1235 169.553 25.5224 170.723 24.3124C171.902 23.1102 172.495 21.6549 172.495 19.9466C172.495 18.2541 171.902 16.8067 170.723 15.6046C169.553 14.4024 168.153 13.7934 166.508 13.7934C164.839 13.7934 163.423 14.3945 162.261 15.6046C161.09 16.8067 160.505 18.262 160.505 19.9466C160.505 21.647 161.09 23.1023 162.261 24.3124C163.423 25.5145 164.847 26.1235 166.508 26.1235Z" fill="white"/>
<path d="M189.626 9.4751C192.457 9.4751 194.885 10.5033 196.918 12.5675C198.935 14.608 199.939 17.0677 199.939 19.9466C199.939 22.8413 198.935 25.3089 196.918 27.3494C194.893 29.3978 192.465 30.426 189.626 30.426C187.411 30.426 185.41 29.7696 183.623 28.4488V37.1961H179.313V9.75191H183.623V11.4286C185.41 10.1236 187.411 9.4751 189.626 9.4751ZM189.626 26.1235C191.263 26.1235 192.671 25.5224 193.841 24.3124C195.02 23.1102 195.613 21.6549 195.613 19.9466C195.613 18.2541 195.02 16.8067 193.841 15.6046C192.671 14.4024 191.271 13.7934 189.626 13.7934C187.957 13.7934 186.541 14.3945 185.379 15.6046C184.208 16.8067 183.623 18.262 183.623 19.9466C183.623 21.647 184.208 23.1023 185.379 24.3124C186.541 25.5145 187.957 26.1235 189.626 26.1235Z" fill="white"/>
<path d="M206.662 11.4682C208.244 10.3214 209.984 9.75195 211.898 9.75195H214.025V13.9833H211.898C210.458 13.9833 209.216 14.5764 208.188 15.7549C207.168 16.9333 206.662 18.349 206.662 20.002V30.2916H202.431V9.75195H206.662V11.4682Z" fill="white"/>
<path d="M224.963 9.54639C227.795 9.54639 230.231 10.5746 232.255 12.623C234.272 14.6635 235.277 17.1311 235.277 20.0258C235.277 22.9205 234.272 25.3881 232.255 27.4286C230.231 29.477 227.803 30.5052 224.963 30.5052C222.116 30.5052 219.688 29.477 217.671 27.4286C215.654 25.3881 214.65 22.9205 214.65 20.0258C214.65 17.1311 215.654 14.6635 217.671 12.623C219.688 10.5746 222.116 9.54639 224.963 9.54639ZM224.963 26.179C226.6 26.179 228.016 25.5858 229.195 24.3916C230.365 23.1894 230.95 21.7341 230.95 20.0258C230.95 18.3254 230.365 16.8701 229.195 15.66C228.016 14.4658 226.6 13.8726 224.963 13.8726C223.31 13.8726 221.895 14.4658 220.716 15.66C219.561 16.8622 218.984 18.3175 218.984 20.0258C218.984 21.7262 219.561 23.1815 220.716 24.3916C221.895 25.5779 223.31 26.179 224.963 26.179Z" fill="white"/>
<path d="M244.237 30.2995L235.435 9.75195H240.038L245.329 22.09L250.604 9.75195H255.207L246.428 30.2995H244.237Z" fill="white"/>
<path d="M274.244 25.8626C273.39 27.1834 272.267 28.2432 270.891 29.05C269.285 30.0228 267.553 30.5052 265.687 30.5052C262.839 30.5052 260.411 29.477 258.395 27.4286C256.378 25.3881 255.373 22.9205 255.373 20.0258C255.373 17.1311 256.378 14.6635 258.395 12.623C260.411 10.5746 262.839 9.54639 265.687 9.54639C268.518 9.54639 270.954 10.5746 272.979 12.623C274.996 14.6635 276 17.1311 276 20.0258V21.7974H260.079C260.427 23.1498 261.147 24.2413 262.238 25.0638C263.267 25.8073 264.421 26.179 265.687 26.179C267.759 26.179 269.364 25.3485 270.495 23.6956L274.244 25.8626ZM271.302 17.8587C270.867 16.6803 270.147 15.7233 269.143 14.9878C268.115 14.2443 266.96 13.8726 265.695 13.8726C264.429 13.8726 263.274 14.2443 262.246 14.9878C261.242 15.7233 260.522 16.6803 260.087 17.8587H271.302Z" fill="white"/>
<path d="M28.8678 0H39.7506C41.8623 0 43.1831 2.2857 42.1233 4.11267L23.9879 35.4639C22.9439 37.2751 20.334 37.2909 19.2584 35.4955L13.7221 26.2104C13.2159 25.3562 13.208 24.2964 13.7062 23.4343L26.4951 1.36035C26.9855 0.521993 27.8871 0 28.8678 0Z" fill="#44E0B7"/>
<path d="M7.37905 21.37C11.4544 21.37 14.7581 18.0663 14.7581 13.9909C14.7581 9.91555 11.4544 6.61182 7.37905 6.61182C3.3037 6.61182 0 9.91555 0 13.9909C0 18.0663 3.3037 21.37 7.37905 21.37Z" fill="white"/>
</svg>
