<svg width="190" height="26" viewBox="0 0 190 26" fill="none" xmlns="http://www.w3.org/2000/svg">
<path d="M47.6511 20.8579H44.6729V19.6383C43.4424 20.5476 42.0649 20.9995 40.5513 20.9995C38.5913 20.9995 36.9198 20.2917 35.5314 18.8815C34.1431 17.4768 33.4516 15.7781 33.4516 13.7854C33.4516 11.7927 34.1431 10.0939 35.5314 8.68924C36.9198 7.27909 38.5913 6.57129 40.5513 6.57129C42.0649 6.57129 43.4369 7.02319 44.6729 7.92155V6.71285H47.6511V20.8579ZM40.5568 18.0213C41.6838 18.0213 42.6584 17.6129 43.4696 16.7908C44.2754 15.9632 44.6783 14.9614 44.6783 13.7854C44.6783 12.6148 44.2754 11.613 43.4696 10.78C42.6584 9.95783 41.6838 9.54948 40.5568 9.54948C39.4189 9.54948 38.4443 9.95783 37.633 10.78C36.8381 11.6075 36.4406 12.6093 36.4406 13.7854C36.4406 14.956 36.8381 15.9578 37.633 16.7908C38.4388 17.6075 39.4134 18.0213 40.5568 18.0213Z" fill="#5132A2"/>
<path d="M62.1772 20.8579H59.2644V19.8943C58.2463 20.6238 57.1356 20.9832 55.9269 20.9832C54.2064 20.9832 52.7363 20.2972 51.5113 18.9197C50.2972 17.5313 49.6874 15.8653 49.6874 13.9161V6.71289H52.5893V13.9106C52.5893 15.0595 52.916 16.034 53.5802 16.8507C54.2281 17.662 55.0122 18.0703 55.9269 18.0703C56.8524 18.0703 57.6364 17.662 58.2898 16.8507C58.9377 16.0449 59.2644 15.0703 59.2644 13.927V6.71289H62.1772V20.8579Z" fill="#5132A2"/>
<path d="M68.2589 6.7134H70.1699V9.62626H68.2589V20.8585H65.346V9.62626H63.4459V6.7134H65.346V2.11816H68.2589V6.7134Z" fill="#5132A2"/>
<path d="M78.0863 6.57129C80.0355 6.57129 81.7125 7.27909 83.1063 8.68924C84.4947 10.0939 85.1861 11.7927 85.1861 13.7854C85.1861 15.7781 84.4947 17.4768 83.1063 18.8815C81.7125 20.2917 80.0409 20.9995 78.0863 20.9995C76.1263 20.9995 74.4548 20.2917 73.0664 18.8815C71.6781 17.4768 70.9866 15.7781 70.9866 13.7854C70.9866 11.7927 71.6781 10.0939 73.0664 8.68924C74.4548 7.27909 76.1263 6.57129 78.0863 6.57129ZM78.0863 18.0213C79.2134 18.0213 80.188 17.6129 80.9993 16.7908C81.8051 15.9632 82.2079 14.9614 82.2079 13.7854C82.2079 12.6148 81.8051 11.613 80.9993 10.78C80.188 9.95783 79.2134 9.54948 78.0863 9.54948C76.9484 9.54948 75.9738 9.95783 75.1626 10.78C74.3677 11.6075 73.9703 12.6093 73.9703 13.7854C73.9703 14.956 74.3677 15.9578 75.1626 16.7908C75.9738 17.6075 76.9484 18.0213 78.0863 18.0213Z" fill="#5132A2"/>
<path d="M105.489 20.8579H102.511V19.6383C101.28 20.5476 99.9028 20.9995 98.3892 20.9995C96.4292 20.9995 94.7577 20.2917 93.3693 18.8815C91.981 17.4768 91.2895 15.7781 91.2895 13.7854C91.2895 11.7927 91.981 10.0939 93.3693 8.68924C94.7577 7.27909 96.4292 6.57129 98.3892 6.57129C99.9028 6.57129 101.275 7.02319 102.511 7.92155V6.71285H105.489V20.8579ZM98.3947 18.0213C99.5217 18.0213 100.496 17.6129 101.308 16.7908C102.113 15.9632 102.516 14.9614 102.516 13.7854C102.516 12.6148 102.113 11.613 101.308 10.78C100.496 9.95783 99.5217 9.54948 98.3947 9.54948C97.2568 9.54948 96.2822 9.95783 95.471 10.78C94.676 11.6075 94.2786 12.6093 94.2786 13.7854C94.2786 14.956 94.676 15.9578 95.471 16.7908C96.2822 17.6075 97.2568 18.0213 98.3947 18.0213Z" fill="#5132A2"/>
<path d="M114.625 6.52246C116.574 6.52246 118.246 7.23026 119.645 8.6513C121.033 10.056 121.725 11.7493 121.725 13.7311C121.725 15.7238 121.033 17.4225 119.645 18.8272C118.251 20.2374 116.58 20.9452 114.625 20.9452C113.101 20.9452 111.723 20.4933 110.493 19.584V25.6058H107.525V6.71302H110.493V7.86728C111.723 6.96892 113.101 6.52246 114.625 6.52246ZM114.625 17.9833C115.752 17.9833 116.721 17.5695 117.527 16.7365C118.338 15.9089 118.747 14.9071 118.747 13.7311C118.747 12.566 118.338 11.5696 117.527 10.742C116.721 9.91444 115.758 9.49521 114.625 9.49521C113.476 9.49521 112.502 9.909 111.701 10.742C110.895 11.5696 110.493 12.5714 110.493 13.7311C110.493 14.9017 110.895 15.9035 111.701 16.7365C112.502 17.5641 113.482 17.9833 114.625 17.9833Z" fill="#5132A2"/>
<path d="M130.54 6.52246C132.489 6.52246 134.16 7.23026 135.56 8.6513C136.948 10.056 137.639 11.7493 137.639 13.7311C137.639 15.7238 136.948 17.4225 135.56 18.8272C134.166 20.2374 132.494 20.9452 130.54 20.9452C129.015 20.9452 127.638 20.4933 126.407 19.584V25.6058H123.44V6.71302H126.407V7.86728C127.638 6.96892 129.015 6.52246 130.54 6.52246ZM130.54 17.9833C131.667 17.9833 132.636 17.5695 133.442 16.7365C134.253 15.9089 134.661 14.9071 134.661 13.7311C134.661 12.566 134.253 11.5696 133.442 10.742C132.636 9.91444 131.672 9.49521 130.54 9.49521C129.391 9.49521 128.416 9.909 127.616 10.742C126.81 11.5696 126.407 12.5714 126.407 13.7311C126.407 14.9017 126.81 15.9035 127.616 16.7365C128.416 17.5641 129.391 17.9833 130.54 17.9833Z" fill="#5132A2"/>
<path d="M142.267 7.89437C143.356 7.1049 144.554 6.71289 145.872 6.71289H147.336V9.62575H145.872C144.881 9.62575 144.026 10.0341 143.318 10.8453C142.616 11.6566 142.267 12.6312 142.267 13.7691V20.8525H139.354V6.71289H142.267V7.89437Z" fill="#5132A2"/>
<path d="M154.866 6.57129C156.815 6.57129 158.492 7.27909 159.886 8.68924C161.274 10.0939 161.966 11.7927 161.966 13.7854C161.966 15.7781 161.274 17.4768 159.886 18.8815C158.492 20.2917 156.821 20.9995 154.866 20.9995C152.906 20.9995 151.234 20.2917 149.846 18.8815C148.458 17.4768 147.766 15.7781 147.766 13.7854C147.766 11.7927 148.458 10.0939 149.846 8.68924C151.234 7.27909 152.906 6.57129 154.866 6.57129ZM154.866 18.0213C155.993 18.0213 156.968 17.6129 157.779 16.7908C158.585 15.9632 158.988 14.9614 158.988 13.7854C158.988 12.6148 158.585 11.613 157.779 10.78C156.968 9.95783 155.993 9.54948 154.866 9.54948C153.728 9.54948 152.754 9.95783 151.942 10.78C151.147 11.6075 150.75 12.6093 150.75 13.7854C150.75 14.956 151.147 15.9578 151.942 16.7908C152.754 17.6075 153.728 18.0213 154.866 18.0213Z" fill="#5132A2"/>
<path d="M168.134 20.8579L162.075 6.71289H165.243L168.886 15.2065L172.517 6.71289H175.686L169.643 20.8579H168.134Z" fill="#5132A2"/>
<path d="M188.791 17.8035C188.203 18.7127 187.43 19.4423 186.483 19.9977C185.378 20.6673 184.185 20.9995 182.9 20.9995C180.94 20.9995 179.269 20.2917 177.88 18.8815C176.492 17.4768 175.801 15.7781 175.801 13.7854C175.801 11.7927 176.492 10.0939 177.88 8.68924C179.269 7.27909 180.94 6.57129 182.9 6.57129C184.849 6.57129 186.526 7.27909 187.92 8.68924C189.309 10.0939 190 11.7927 190 13.7854V15.005H179.04C179.28 15.936 179.775 16.6873 180.526 17.2536C181.234 17.7654 182.029 18.0213 182.9 18.0213C184.327 18.0213 185.432 17.4496 186.211 16.3117L188.791 17.8035ZM186.766 12.2936C186.467 11.4823 185.971 10.8235 185.28 10.3172C184.572 9.80538 183.777 9.54948 182.906 9.54948C182.035 9.54948 181.24 9.80538 180.532 10.3172C179.84 10.8235 179.345 11.4823 179.045 12.2936H186.766Z" fill="#5132A2"/>
<path d="M19.8728 0H27.3645C28.8183 0 29.7275 1.57349 28.9979 2.83119L16.5134 24.4136C15.7948 25.6604 13.998 25.6713 13.2576 24.4353L9.44636 18.0434C9.09791 17.4554 9.09246 16.7258 9.43546 16.1323L18.2394 0.93647C18.577 0.359343 19.1976 0 19.8728 0Z" fill="#44E0B7"/>
<path d="M5.07978 14.7114C7.88528 14.7114 10.1596 12.4371 10.1596 9.63157C10.1596 6.82607 7.88528 4.55176 5.07978 4.55176C2.27428 4.55176 0 6.82607 0 9.63157C0 12.4371 2.27428 14.7114 5.07978 14.7114Z" fill="#5132A2"/>
</svg>
