<svg width="23" height="26" viewBox="0 0 23 26" fill="none" xmlns="http://www.w3.org/2000/svg">
<g clip-path="url(#clip0)">
<path d="M13.8285 3.89801C13.8274 3.09052 13.5062 2.3164 12.9351 1.74547C12.3641 1.17452 11.5899 0.853389 10.7823 0.852526L10.7818 0.852533C9.97747 0.863115 9.20906 1.18734 8.64026 1.75614C8.07147 2.32493 7.74724 3.09334 7.73666 3.89768L7.73666 3.89836C7.7396 4.52571 7.9469 5.13458 8.32649 5.63303C7.49854 6.06269 6.79637 6.70053 6.28932 7.48411C5.77393 8.28056 5.47847 9.19922 5.43294 10.1468C5.38742 11.0944 5.59345 12.0371 6.03011 12.8793C6.46355 13.7153 7.10893 14.4227 7.90151 14.9308L7.9015 22.7602L7.90151 22.7606C7.90973 23.4005 8.17139 24.011 8.6291 24.4583C9.08677 24.9055 9.70309 25.153 10.3429 25.1464C10.343 25.1464 10.3431 25.1464 10.3431 25.1464L11.2774 25.1464H11.2774C11.9101 25.1457 12.5166 24.8941 12.9639 24.4467C13.4113 23.9994 13.6629 23.3929 13.6636 22.7602V22.7602V14.9451C14.4427 14.4736 15.0858 13.8073 15.5294 13.0118C15.9764 12.21 16.2053 11.3049 16.1931 10.387M13.8285 3.89801C13.8329 4.53466 13.6344 5.15575 13.2626 5.67155C14.1344 6.10315 14.8701 6.76795 15.3875 7.59253C15.9129 8.42995 16.1921 9.39835 16.1931 10.387M13.8285 3.89801C13.8285 3.89804 13.8285 3.89807 13.8285 3.8981L13.7904 3.89815L13.8285 3.89789C13.8285 3.89793 13.8285 3.89797 13.8285 3.89801ZM16.1931 10.387C16.1931 10.3869 16.1931 10.3868 16.1931 10.3867L16.155 10.3872L16.1931 10.3872C16.1931 10.3871 16.1931 10.387 16.1931 10.387ZM9.75642 5.41892C9.89172 5.5494 10.0524 5.6507 10.2285 5.71652C10.4046 5.78238 10.5925 5.81132 10.7803 5.80153L10.7835 5.80137L10.7835 5.8015C11.1675 5.81333 11.5429 5.68639 11.841 5.44394C11.8411 5.44383 11.8412 5.44373 11.8413 5.44363L11.8654 5.47317C11.8897 5.45228 11.9158 5.43363 11.9435 5.41745L9.75642 5.41892ZM9.75642 5.41892C9.75633 5.41884 9.75624 5.41875 9.75615 5.41867L9.7297 5.44608C9.70222 5.41846 9.67174 5.394 9.63882 5.37316C9.39352 5.21322 9.19209 4.99452 9.05283 4.73692C8.91357 4.47932 8.8409 4.191 8.84142 3.89817L9.75642 5.41892ZM10.7824 6.94432L10.7822 6.94432C10.6223 6.94374 10.4628 6.93028 10.3051 6.90409C10.2727 6.89885 10.2397 6.89069 10.2085 6.88299C10.1916 6.8788 10.1752 6.87476 10.1599 6.8714L10.7824 6.94432ZM10.7824 6.94432C10.9372 6.94378 11.0917 6.93174 11.2447 6.90828L10.7824 6.94432ZM15.0502 10.3877L15.0502 10.3872C15.0504 9.53504 14.786 8.70382 14.2937 8.00829C13.8048 7.31772 13.1151 6.79472 12.3186 6.51025C12.3063 6.51754 12.294 6.52407 12.2823 6.53014C12.2798 6.53142 12.2774 6.53267 12.275 6.53391C12.2605 6.54144 12.2471 6.54836 12.2342 6.55608C12.2342 6.55608 12.2342 6.55608 12.2342 6.55608L15.0502 10.3877ZM15.0502 10.3877C15.0588 11.0094 14.9284 11.6252 14.6684 12.19C14.417 12.736 14.0507 13.221 13.5947 13.6121C13.5655 13.4947 13.5273 13.3798 13.4804 13.2683L15.0502 10.3877ZM13.276 12.886L13.2762 12.8863C13.3336 12.9768 13.3848 13.071 13.4295 13.1683C13.4357 13.1814 13.4426 13.194 13.4501 13.2077C13.4514 13.2101 13.4528 13.2126 13.4542 13.2152L13.276 12.886ZM13.276 12.886C13.2554 12.8544 13.232 12.8242 13.2097 12.7954C13.2002 12.7831 13.1909 12.7711 13.1821 12.7593C13.1281 12.6858 13.07 12.6154 13.008 12.5486L13.0078 12.5483M13.276 12.886L13.0078 12.5483M13.0078 12.5483C12.9686 12.5068 12.9272 12.4687 12.8864 12.4312L12.8857 12.4306C12.8211 12.371 12.7532 12.315 12.6825 12.2629L12.6824 12.2628M13.0078 12.5483L12.6824 12.2628M12.6824 12.2628C12.6363 12.229 12.5896 12.1964 12.5405 12.1655L12.5403 12.1654M12.6824 12.2628L12.5403 12.1654M12.5403 12.1654C12.4641 12.1182 12.3854 12.0754 12.3043 12.0372L12.2881 12.0716L12.3046 12.0373C12.2945 12.0324 12.2843 12.0274 12.274 12.0224C12.235 12.0034 12.1947 11.9837 12.1526 11.967L12.1522 11.9669M12.5403 12.1654L12.1522 11.9669M12.1522 11.9669C12.0597 11.9316 11.9652 11.9022 11.869 11.8788C11.8525 11.8745 11.8364 11.8698 11.8196 11.8648C11.8138 11.8631 11.8079 11.8614 11.8019 11.8596C11.7789 11.853 11.7548 11.8463 11.7294 11.8414C11.5806 11.8118 11.4293 11.7965 11.2775 11.7957H11.2773M12.1522 11.9669L11.2773 11.7957M11.2773 11.7957H10.3427L10.3425 11.7957M11.2773 11.7957L10.3425 11.7957M10.3425 11.7957C10.1881 11.7966 10.0341 11.8118 9.88252 11.8412L10.3425 11.7957ZM9.45112 11.9659L9.45153 11.9657C9.54602 11.9305 9.64259 11.9011 9.74068 11.8778M9.45112 11.9659L9.7878 11.865C9.77132 11.8696 9.75546 11.8741 9.74068 11.8778M9.45112 11.9659C9.40638 11.9831 9.36361 12.0032 9.32198 12.0228M9.45112 11.9659L9.32198 12.0228M9.74068 11.8778C9.74076 11.8778 9.74084 11.8778 9.74091 11.8778L9.74972 11.9148L9.74047 11.8779C9.74054 11.8778 9.74061 11.8778 9.74068 11.8778ZM7.98192 13.5736C8.05018 13.3242 8.15928 13.0878 8.30491 12.8739L7.98192 13.5736ZM7.98192 13.5736C7.54428 13.1783 7.1928 12.6967 6.94974 12.1589C6.69818 11.6022 6.56857 10.9982 6.56962 10.3874C6.57576 9.54044 6.83451 8.71461 7.31274 8.01558C7.78718 7.3221 8.45623 6.78472 9.2354 6.47101C9.24534 6.47738 9.25524 6.48311 9.26451 6.48841C9.26625 6.4894 9.26797 6.49038 9.26966 6.49135C9.28294 6.49892 9.29478 6.50567 9.30606 6.51325L7.98192 13.5736ZM9.32198 12.0228C9.31368 12.0267 9.30542 12.0306 9.29721 12.0345L9.32198 12.0228ZM13.2397 5.70277C13.2282 5.69705 13.2166 5.69138 13.2049 5.68574C13.2126 5.67538 13.2203 5.66497 13.2279 5.65452L13.2397 5.70277ZM9.45105 6.60234L9.45112 6.60238L9.45105 6.60234ZM9.86036 6.79014L9.86069 6.79025L9.71867 6.6921L9.70373 6.72714C9.70377 6.72716 9.7038 6.72717 9.70384 6.72719C9.70904 6.7294 9.71425 6.73163 9.71948 6.73386C9.76494 6.75329 9.81162 6.77325 9.86036 6.79014ZM11.6806 6.80601L11.681 6.8059L11.3855 6.8789C11.3856 6.87889 11.3857 6.87887 11.3857 6.87886C11.4853 6.85991 11.5837 6.83559 11.6806 6.80601ZM12.0871 6.6377L12.0872 6.63762L11.8356 6.74892C11.8357 6.7489 11.8357 6.74888 11.8358 6.74886C11.9214 6.71625 12.0053 6.67914 12.0871 6.6377ZM13.6047 13.6536C13.5938 13.6629 13.5829 13.6721 13.5719 13.6812C13.5688 13.6673 13.5656 13.6534 13.5623 13.6396L13.6047 13.6536ZM9.31333 12.069C9.23145 12.1067 9.15175 12.1491 9.07462 12.1957C9.02644 12.2252 8.98002 12.2558 8.93419 12.2885C8.86155 12.3406 8.79188 12.3968 8.7255 12.4567L8.70008 12.4283C8.70005 12.4284 8.70001 12.4284 8.69997 12.4284C8.69284 12.4348 8.68563 12.4412 8.67838 12.4477C8.64546 12.477 8.61159 12.5071 8.57977 12.5397L8.57949 12.54C8.51181 12.6108 8.44851 12.6858 8.38994 12.7643L8.42049 12.7871C8.41012 12.8007 8.39936 12.8139 8.38861 12.8271L9.31333 12.069ZM12.5208 14.1817V22.7599C12.5164 23.0884 12.3839 23.4021 12.1516 23.6344C11.9194 23.8667 11.6056 23.9991 11.2772 24.0036L10.3427 24.0036L10.342 24.0036C10.0051 24.0101 9.67929 23.8828 9.43605 23.6496C9.19292 23.4164 9.05208 23.0965 9.04436 22.7597V14.1819C9.05215 13.8453 9.19302 13.5254 9.43616 13.2923C9.67939 13.0592 10.0051 12.932 10.342 12.9386V12.9386H10.3427H11.2772C11.6055 12.9429 11.9193 13.0753 12.1515 13.3075C12.3838 13.5397 12.5163 13.8534 12.5208 14.1817Z" fill="#44E0B7" stroke="#44E0B7" stroke-width="0.0761905"/>
<path d="M6.63885 14.9111H6.63884C6.4873 14.9111 6.34196 14.9713 6.2348 15.0785C6.12763 15.1857 6.06743 15.331 6.06742 15.4825V15.4826V18.4247H4.80158C4.65003 18.4247 4.50469 18.4849 4.39752 18.592C4.29036 18.6992 4.23015 18.8445 4.23015 18.9961C4.23015 19.1476 4.29036 19.293 4.39752 19.4002C4.50469 19.5073 4.65003 19.5675 4.80158 19.5675H6.63882C6.79037 19.5675 6.93572 19.5073 7.04288 19.4002C7.15005 19.293 7.21025 19.1476 7.21025 18.9961V15.4826C7.21024 15.331 7.15004 15.1857 7.04288 15.0785C6.93573 14.9713 6.7904 14.9111 6.63885 14.9111Z" fill="#44E0B7" stroke="#44E0B7" stroke-width="0.0761905"/>
<path d="M16.786 18.4247H15.5204V15.4826C15.5204 15.331 15.4602 15.1857 15.353 15.0785C15.2459 14.9713 15.1005 14.9111 14.949 14.9111C14.7974 14.9111 14.6521 14.9713 14.5449 15.0785C14.4378 15.1857 14.3776 15.331 14.3776 15.4826V18.9961C14.3776 19.1476 14.4378 19.293 14.5449 19.4001C14.6521 19.5073 14.7974 19.5675 14.949 19.5675H16.786C16.9375 19.5675 17.0829 19.5073 17.19 19.4002C17.2972 19.293 17.3574 19.1476 17.3574 18.9961C17.3574 18.8445 17.2972 18.6992 17.19 18.592C17.0829 18.4849 16.9375 18.4247 16.786 18.4247Z" fill="#44E0B7" stroke="#44E0B7" stroke-width="0.0761905"/>
<path d="M7.21023 3.90052C7.21023 3.74897 7.15002 3.60362 7.04286 3.49646C6.9357 3.3893 6.79035 3.32909 6.6388 3.32909H3.53333C3.38178 3.32909 3.23644 3.3893 3.12927 3.49646C3.02211 3.60362 2.9619 3.74897 2.9619 3.90052C2.9619 4.05207 3.02211 4.19742 3.12927 4.30458C3.23644 4.41175 3.38178 4.47195 3.53333 4.47195H6.6388C6.79035 4.47194 6.93569 4.41174 7.04285 4.30457C7.15001 4.19741 7.21022 4.05207 7.21023 3.90052Z" fill="#44E0B7" stroke="#44E0B7" stroke-width="0.0761905"/>
<path d="M18.3386 3.32909H15.2331C15.0815 3.32909 14.9362 3.3893 14.829 3.49646C14.7219 3.60362 14.6617 3.74897 14.6617 3.90052C14.6617 4.05207 14.7219 4.19742 14.829 4.30458C14.9362 4.41175 15.0815 4.47195 15.2331 4.47195H18.3386C18.4901 4.47195 18.6355 4.41175 18.7426 4.30458C18.8498 4.19742 18.91 4.05207 18.91 3.90052C18.91 3.74897 18.8498 3.60362 18.7426 3.49646C18.6355 3.3893 18.4901 3.32909 18.3386 3.32909Z" fill="#44E0B7" stroke="#44E0B7" stroke-width="0.0761905"/>
</g>
<defs>
<clipPath id="clip0">
<rect width="22.8719" height="24.2178" fill="white" transform="translate(0 0.890625)"/>
</clipPath>
</defs>
</svg>
