<svg width="45" height="34" viewBox="0 0 45 34" fill="none" xmlns="http://www.w3.org/2000/svg">
<path d="M9.63211 33.4626C6.92308 33.4626 4.61539 32.5781 2.70903 30.8091C0.90301 28.9417 0 26.6813 0 24.0277C0 22.4553 0.301004 20.9319 0.903011 19.4577C1.60535 17.9835 2.65886 16.2145 4.06354 14.1506L13.5452 0.735352L19.5652 4.56828L12.1906 15.6248C13.9967 15.9196 15.602 16.8533 17.0067 18.4258C18.4114 19.9 19.1137 21.7673 19.1137 24.0277C19.1137 26.6813 18.1605 28.9417 16.2542 30.8091C14.4482 32.5781 12.2408 33.4626 9.63211 33.4626ZM35.0669 33.4626C32.3579 33.4626 30.0502 32.5781 28.1438 30.8091C26.3378 28.9417 25.4348 26.6813 25.4348 24.0277C25.4348 22.4553 25.7358 20.9319 26.3378 19.4577C27.0401 17.9835 28.0936 16.2145 29.4983 14.1506L38.9799 0.735352L45 4.56828L37.6254 15.6248C39.4314 15.9196 41.0368 16.8533 42.4415 18.4258C43.8462 19.9 44.5485 21.7673 44.5485 24.0277C44.5485 26.6813 43.5953 28.9417 41.689 30.8091C39.8829 32.5781 37.6756 33.4626 35.0669 33.4626Z" fill="#44E0B7"/>
</svg>
