<svg width="24" height="24" viewBox="0 0 24 24" fill="none" xmlns="http://www.w3.org/2000/svg">
<path d="M22.0425 12.06L17.025 9.90751L15.12 6.65251L15.06 6.56251C14.9196 6.3871 14.7415 6.24549 14.539 6.14813C14.3365 6.05077 14.1147 6.00015 13.89 6.00001H7.89C7.64235 5.99923 7.39836 6.05978 7.17981 6.17625C6.96126 6.29272 6.77495 6.4615 6.6375 6.66751L4.095 10.5H2.25C2.05109 10.5 1.86032 10.579 1.71967 10.7197C1.57902 10.8603 1.5 11.0511 1.5 11.25V18C1.5 18.1989 1.57902 18.3897 1.71967 18.5303C1.86032 18.671 2.05109 18.75 2.25 18.75H3.855C4.02771 19.3855 4.40475 19.9466 4.92795 20.3466C5.45114 20.7465 6.09142 20.9633 6.75 20.9633C7.40858 20.9633 8.04886 20.7465 8.57205 20.3466C9.09525 19.9466 9.47229 19.3855 9.645 18.75H14.355C14.5277 19.3855 14.9048 19.9466 15.4279 20.3466C15.9511 20.7465 16.5914 20.9633 17.25 20.9633C17.9086 20.9633 18.5489 20.7465 19.0721 20.3466C19.5952 19.9466 19.9723 19.3855 20.145 18.75H21.75C21.9489 18.75 22.1397 18.671 22.2803 18.5303C22.421 18.3897 22.5 18.1989 22.5 18V12.75C22.4999 12.6028 22.4564 12.4589 22.3751 12.3362C22.2937 12.2135 22.1781 12.1174 22.0425 12.06ZM6.75 19.5C6.45333 19.5 6.16332 19.412 5.91665 19.2472C5.66997 19.0824 5.47771 18.8481 5.36418 18.574C5.25065 18.2999 5.22094 17.9983 5.27882 17.7074C5.3367 17.4164 5.47956 17.1491 5.68934 16.9393C5.89912 16.7296 6.16639 16.5867 6.45736 16.5288C6.74834 16.471 7.04994 16.5007 7.32403 16.6142C7.59811 16.7277 7.83238 16.92 7.9972 17.1667C8.16203 17.4133 8.25 17.7033 8.25 18C8.25 18.3978 8.09196 18.7794 7.81066 19.0607C7.52936 19.342 7.14782 19.5 6.75 19.5ZM17.25 19.5C16.9533 19.5 16.6633 19.412 16.4166 19.2472C16.17 19.0824 15.9777 18.8481 15.8642 18.574C15.7506 18.2999 15.7209 17.9983 15.7788 17.7074C15.8367 17.4164 15.9796 17.1491 16.1893 16.9393C16.3991 16.7296 16.6664 16.5867 16.9574 16.5288C17.2483 16.471 17.5499 16.5007 17.824 16.6142C18.0981 16.7277 18.3324 16.92 18.4972 17.1667C18.662 17.4133 18.75 17.7033 18.75 18C18.75 18.3978 18.592 18.7794 18.3107 19.0607C18.0294 19.342 17.6478 19.5 17.25 19.5ZM21 17.25H20.145C19.9723 16.6145 19.5952 16.0534 19.0721 15.6535C18.5489 15.2535 17.9086 15.0368 17.25 15.0368C16.5914 15.0368 15.9511 15.2535 15.4279 15.6535C14.9048 16.0534 14.5277 16.6145 14.355 17.25H9.645C9.47229 16.6145 9.09525 16.0534 8.57205 15.6535C8.04886 15.2535 7.40858 15.0368 6.75 15.0368C6.09142 15.0368 5.45114 15.2535 4.92795 15.6535C4.40475 16.0534 4.02771 16.6145 3.855 17.25H3V12H4.5C4.62353 11.9994 4.74499 11.9682 4.85359 11.9093C4.96219 11.8505 5.05456 11.7657 5.1225 11.6625L7.905 7.50001H13.905L15.8775 10.875C15.958 11.0153 16.0816 11.1258 16.23 11.19L21 13.245V17.25Z" fill="#44E0B7"/>
</svg>
