<svg width="25" height="24" viewBox="0 0 25 24" fill="none" xmlns="http://www.w3.org/2000/svg">
<path fill-rule="evenodd" clip-rule="evenodd" d="M0.496094 12C0.496094 5.37258 5.86868 0 12.4961 0C19.1235 0 24.4961 5.37258 24.4961 12C24.4961 18.6274 19.1235 24 12.4961 24C5.86868 24 0.496094 18.6274 0.496094 12Z" fill="#BDBEBF"/>
<path fill-rule="evenodd" clip-rule="evenodd" d="M12.1357 9.7537L12.1609 10.1689L11.7412 10.1181C10.2135 9.92318 8.87894 9.26221 7.74579 8.15211L7.1918 7.6013L7.0491 8.00805C6.74693 8.91477 6.93999 9.87234 7.56952 10.5164C7.90527 10.8723 7.82972 10.9231 7.25055 10.7113C7.0491 10.6435 6.87284 10.5926 6.85605 10.6181C6.79729 10.6774 6.99874 11.4485 7.15822 11.7536C7.37646 12.1773 7.82133 12.5925 8.30817 12.8382L8.71946 13.0331L8.23262 13.0416C7.76257 13.0416 7.74579 13.0501 7.79615 13.2281C7.96402 13.7789 8.62713 14.3636 9.36578 14.6178L9.88619 14.7957L9.43293 15.0669C8.76143 15.4567 7.97242 15.677 7.1834 15.694C6.80569 15.7025 6.49512 15.7364 6.49512 15.7618C6.49512 15.8465 7.51915 16.3211 8.11511 16.5075C9.90298 17.0583 12.0266 16.821 13.6214 15.8804C14.7546 15.211 15.8877 13.8805 16.4165 12.5925C16.7019 11.9061 16.9873 10.6519 16.9873 10.0503C16.9873 9.66049 17.0125 9.60964 17.4825 9.14357C17.7595 8.8724 18.0197 8.57581 18.0701 8.49107C18.154 8.33007 18.1456 8.33007 17.7176 8.47412C17.0041 8.72834 16.9034 8.69445 17.2559 8.31312C17.5161 8.04195 17.8267 7.55046 17.8267 7.4064C17.8267 7.38098 17.7008 7.42335 17.5581 7.49961C17.407 7.58435 17.0712 7.71146 16.8194 7.78773L16.3662 7.93179L15.9549 7.65214C15.7282 7.49961 15.4093 7.33013 15.2414 7.27929C14.8133 7.16065 14.1586 7.1776 13.7725 7.31318C12.7233 7.69451 12.0602 8.6775 12.1357 9.7537Z" fill="white"/>
</svg>
