<svg width="297" height="285" viewBox="0 0 297 285" fill="none" xmlns="http://www.w3.org/2000/svg">
<path fill-rule="evenodd" clip-rule="evenodd" d="M75.7283 207.607H71.7444H71.747H63.7713C59.3877 207.607 55.8009 204.02 55.8009 199.634C55.8009 195.253 59.3851 191.664 63.7713 191.661H65.7672C70.1482 191.661 73.7351 188.074 73.7351 183.693C73.7351 179.307 70.1482 175.72 65.7672 175.72H33.8776C29.494 175.72 25.9072 179.307 25.9072 183.693C25.9072 188.074 29.494 191.661 33.8776 191.661H35.8709C40.2571 191.664 43.8439 195.253 43.8439 199.634C43.8439 204.02 40.2571 207.607 35.8709 207.607H7.97044C3.58683 207.607 0 211.194 0 215.58C0 219.961 3.58683 223.551 7.97044 223.551H75.7283C80.1145 223.551 83.7014 219.961 83.7014 215.58C83.7014 211.194 80.1145 207.607 75.7283 207.607Z" fill="#F2EFF8"/>
<path fill-rule="evenodd" clip-rule="evenodd" d="M287.273 82.4351H240.258C236.69 82.4351 233.772 79.5404 233.772 76.0053C233.772 72.4702 236.69 69.5756 240.256 69.5756H249.985C253.551 69.5756 256.469 66.683 256.469 63.1479C256.469 59.6128 253.551 56.7202 249.985 56.7202H196.484C192.918 56.7202 190 59.6128 190 63.1479C190 66.683 192.918 69.5756 196.484 69.5756H204.591C208.155 69.5756 211.075 72.4702 211.075 76.0053C211.075 79.5425 208.155 82.4351 204.591 82.4351H199.727C194.376 82.4351 190 86.775 190 92.0777C190 97.3824 194.376 101.72 199.727 101.72H287.273C292.624 101.72 297 97.3824 297 92.0777C297 86.775 292.624 82.4351 287.273 82.4351Z" fill="#F2EFF8" fill-opacity="0.2"/>
<path fill-rule="evenodd" clip-rule="evenodd" d="M120.775 110.13L45.857 225.679C43.3647 229.523 46.3305 234.562 50.9009 234.25L83.4793 232.022L94.7403 262.673C96.3201 266.973 102.131 267.624 104.623 263.78L179.541 148.231" fill="#E8E2F9"/>
<path d="M120.775 110.13L45.857 225.679C43.3647 229.523 46.3304 234.562 50.9009 234.25L83.4793 232.022L94.7403 262.673C96.3201 266.973 102.131 267.624 104.623 263.78L179.541 148.231" stroke="#200A52" stroke-width="4.19727" stroke-linecap="round" stroke-linejoin="round"/>
<path fill-rule="evenodd" clip-rule="evenodd" d="M174.088 110.13L249.006 225.679C251.498 229.523 248.532 234.562 243.962 234.25L211.383 232.022L200.122 262.673C198.542 266.973 192.732 267.624 190.239 263.78L115.322 148.231" fill="#E8E2F9"/>
<path d="M174.088 110.13L249.006 225.679C251.498 229.523 248.532 234.562 243.962 234.25L211.383 232.022L200.122 262.673C198.542 266.973 192.732 267.624 190.239 263.78L115.322 148.231" stroke="#200A52" stroke-width="4.19727" stroke-linecap="round" stroke-linejoin="round"/>
<path d="M176.38 41.8555C178.507 41.1064 180.857 42.0868 181.821 44.1258L194.929 71.8552C195.861 73.8274 197.444 75.4184 199.411 76.3611L227.071 89.6148C229.105 90.5894 230.073 92.9438 229.313 95.0673L218.975 123.944C218.239 125.998 218.233 128.242 218.958 130.299L229.145 159.23C229.894 161.357 228.913 163.707 226.874 164.671L199.145 177.779C197.173 178.711 195.582 180.294 194.639 182.261L181.385 209.921C180.411 211.955 178.056 212.923 175.933 212.163L147.056 201.825C145.003 201.089 142.758 201.083 140.701 201.808L111.77 211.995C109.643 212.744 107.294 211.763 106.33 209.724L93.2213 181.995C92.289 180.023 90.7063 178.432 88.7391 177.489L61.0788 164.235C59.0449 163.261 58.0768 160.906 58.8371 158.783L69.1757 129.906C69.911 127.853 69.9169 125.608 69.1924 123.551L59.0055 94.6203C58.2564 92.4929 59.2368 90.1435 61.2758 89.1796L89.0052 76.0713C90.9774 75.139 92.5685 73.5563 93.5111 71.5891L106.765 43.9288C107.739 41.8949 110.094 40.9268 112.217 41.6871L141.094 52.0257C143.148 52.761 145.392 52.7669 147.449 52.0424L176.38 41.8555Z" fill="#C5B8EB" stroke="#200A52" stroke-width="5.09602"/>
<path fill-rule="evenodd" clip-rule="evenodd" d="M192.294 127.016C192.294 153.882 170.517 175.661 143.65 175.661C116.787 175.661 95.0061 153.882 95.0061 127.016C95.0061 100.153 116.787 78.3733 143.65 78.3733C170.517 78.3733 192.294 100.153 192.294 127.016Z" fill="#5230A2"/>
<path d="M151.388 107.854H162.54C164.704 107.854 166.057 110.197 164.971 112.069L146.388 144.195C145.318 146.051 142.644 146.067 141.541 144.227L135.868 134.713C135.35 133.837 135.341 132.751 135.852 131.868L148.957 109.248C149.459 108.389 150.383 107.854 151.388 107.854Z" fill="#44E0B7"/>
<path d="M129.369 129.753C133.545 129.753 136.93 126.368 136.93 122.192C136.93 118.015 133.545 114.63 129.369 114.63C125.192 114.63 121.807 118.015 121.807 122.192C121.807 126.368 125.192 129.753 129.369 129.753Z" fill="white"/>
<path fill-rule="evenodd" clip-rule="evenodd" d="M143.783 175.157C117.303 175.157 95.8354 153.585 95.8354 126.976C95.8354 100.366 117.303 78.7961 143.783 78.7961C170.266 78.7961 191.733 100.366 191.733 126.976C191.733 153.585 170.266 175.157 143.783 175.157Z" stroke="#200A52" stroke-width="4.19727"/>
</svg>
