<svg width="47" height="35" viewBox="0 0 47 35" fill="none" xmlns="http://www.w3.org/2000/svg">
<rect x="45.5" y="1" width="33" height="44" rx="4" transform="rotate(90 45.5 1)" fill="#EFECF7" stroke="#5230A2" stroke-width="2"/>
<mask id="mask0" mask-type="alpha" maskUnits="userSpaceOnUse" x="2" y="2" width="43" height="31">
<rect x="44.5" y="2" width="31" height="42" rx="3" transform="rotate(90 44.5 2)" fill="white"/>
</mask>
<g mask="url(#mask0)">
<rect x="13.7574" y="20.4972" width="31.8881" height="31.8881" rx="3" transform="rotate(45 13.7574 20.4972)" fill="#B5A3DF" stroke="#5230A2" stroke-width="2"/>
<rect x="33.7135" y="16.4142" width="31.8881" height="31.8881" rx="3" transform="rotate(45 33.7135 16.4142)" fill="#B5A3DF" stroke="#5230A2" stroke-width="2"/>
<path d="M16.5 17C13.7386 17 11.5 14.7614 11.5 12C11.5 9.23858 13.7386 7 16.5 7C19.2614 7 21.5 9.23858 21.5 12C21.5 14.7614 19.2614 17 16.5 17Z" fill="#B5A3DF" stroke="#5230A2" stroke-width="2"/>
</g>
</svg>
