<svg width="25" height="25" viewBox="0 0 25 25" fill="none" xmlns="http://www.w3.org/2000/svg">
<path fill-rule="evenodd" clip-rule="evenodd" d="M12.5176 20.5C16.9359 20.5 20.5176 16.9183 20.5176 12.5C20.5176 8.08172 16.9359 4.5 12.5176 4.5C8.0993 4.5 4.51758 8.08172 4.51758 12.5C4.51758 16.9183 8.0993 20.5 12.5176 20.5ZM12.5176 21.5C17.4881 21.5 21.5176 17.4706 21.5176 12.5C21.5176 7.52944 17.4881 3.5 12.5176 3.5C7.54702 3.5 3.51758 7.52944 3.51758 12.5C3.51758 17.4706 7.54702 21.5 12.5176 21.5Z" fill="white"/>
<path d="M12.5176 7.5C11.6897 7.5 10.9838 7.79064 10.3999 8.37192C9.8117 8.95753 9.51758 9.66027 9.51758 10.4801V11.0007H10.5633V10.4801C10.5633 9.94658 10.7551 9.48893 11.1385 9.10719C11.5176 8.72979 11.9773 8.5411 12.5176 8.5411C13.0579 8.5411 13.5176 8.72979 13.8967 9.10719C14.2801 9.48893 14.4718 9.94658 14.4718 10.4801C14.4718 10.8445 14.376 11.1829 14.1842 11.4952C13.9969 11.8032 13.742 12.0418 13.4195 12.211C12.9097 12.4669 12.5045 12.8334 12.2039 13.3106C11.9076 13.7878 11.7594 14.3127 11.7594 14.8853V14.9438H12.8052V14.8853C12.8052 14.5122 12.9032 14.1695 13.0993 13.8572C13.2954 13.5449 13.5612 13.3041 13.8967 13.1349C14.3978 12.879 14.7921 12.5124 15.0797 12.0353C15.3716 11.5581 15.5176 11.0397 15.5176 10.4801C15.5176 9.66027 15.2235 8.95753 14.6352 8.37192C14.0513 7.79064 13.3455 7.5 12.5176 7.5ZM12.3673 15.614C12.5633 15.614 12.7267 15.6813 12.8574 15.8158C12.9925 15.9502 13.0601 16.1129 13.0601 16.3038C13.0601 16.4946 12.9925 16.6595 12.8574 16.7983C12.7267 16.9328 12.5633 17 12.3673 17C12.1755 17 12.01 16.9328 11.8705 16.7983C11.7354 16.6595 11.6679 16.4946 11.6679 16.3038C11.6679 16.1129 11.7354 15.9502 11.8705 15.8158C12.01 15.6813 12.1755 15.614 12.3673 15.614Z" fill="white"/>
</svg>
