<svg width="25" height="25" viewBox="0 0 25 25" fill="none" xmlns="http://www.w3.org/2000/svg">
<path fill-rule="evenodd" clip-rule="evenodd" d="M20.5167 12.6816C20.5175 12.6276 20.5176 12.5688 20.5176 12.5C20.5176 8.08172 16.9359 4.5 12.5176 4.5C8.0993 4.5 4.51758 8.08172 4.51758 12.5C4.51758 16.8912 8.27996 20.6625 12.7113 20.4966C12.6735 20.3767 12.6318 20.2302 12.6047 20.066C11.8998 15.7983 15.7678 11.8743 20.0835 12.5871C20.2293 12.6112 20.3702 12.6585 20.5167 12.6816ZM19.9206 13.5738C21.5176 14 21.5176 13.2739 21.5176 12.5C21.5176 7.52944 17.4881 3.5 12.5176 3.5C7.54702 3.5 3.51758 7.52944 3.51758 12.5C3.51758 17.4706 7.54702 21.5 12.5176 21.5C14.1069 21.5 13.928 20.9736 13.7242 20.3743C13.6715 20.2195 13.6172 20.0598 13.5913 19.903C12.9972 16.3059 16.2857 12.9734 19.9206 13.5738Z" fill="white"/>
<path fill-rule="evenodd" clip-rule="evenodd" d="M14.5176 8C15.0699 8 15.5176 7.55228 15.5176 7C15.5176 6.44772 15.0699 6 14.5176 6C13.9653 6 13.5176 6.44772 13.5176 7C13.5176 7.55228 13.9653 8 14.5176 8Z" fill="white"/>
<path fill-rule="evenodd" clip-rule="evenodd" d="M17.5176 11.5C18.0699 11.5 18.5176 11.0523 18.5176 10.5C18.5176 9.94772 18.0699 9.5 17.5176 9.5C16.9653 9.5 16.5176 9.94772 16.5176 10.5C16.5176 11.0523 16.9653 11.5 17.5176 11.5Z" fill="white"/>
<path fill-rule="evenodd" clip-rule="evenodd" d="M9.51758 8.5C10.0699 8.5 10.5176 8.05228 10.5176 7.5C10.5176 6.94772 10.0699 6.5 9.51758 6.5C8.96529 6.5 8.51758 6.94772 8.51758 7.5C8.51758 8.05228 8.96529 8.5 9.51758 8.5Z" fill="white"/>
<path fill-rule="evenodd" clip-rule="evenodd" d="M7.01758 12.5C7.56986 12.5 8.01758 12.0523 8.01758 11.5C8.01758 10.9477 7.56986 10.5 7.01758 10.5C6.46529 10.5 6.01758 10.9477 6.01758 11.5C6.01758 12.0523 6.46529 12.5 7.01758 12.5Z" fill="white"/>
<path fill-rule="evenodd" clip-rule="evenodd" d="M9.51758 17C10.0699 17 10.5176 16.5523 10.5176 16C10.5176 15.4477 10.0699 15 9.51758 15C8.96529 15 8.51758 15.4477 8.51758 16C8.51758 16.5523 8.96529 17 9.51758 17ZM9.51758 18C10.6221 18 11.5176 17.1046 11.5176 16C11.5176 14.8954 10.6221 14 9.51758 14C8.41301 14 7.51758 14.8954 7.51758 16C7.51758 17.1046 8.41301 18 9.51758 18Z" fill="white"/>
</svg>
