<svg width="16" height="17" viewBox="0 0 16 17" fill="none" xmlns="http://www.w3.org/2000/svg">
<path fill-rule="evenodd" clip-rule="evenodd" d="M3.33332 3.83333C2.96513 3.83333 2.66666 4.13181 2.66666 4.49999V13.8333C2.66666 14.2015 2.96513 14.5 3.33332 14.5H11.3333C11.7015 14.5 12 14.2015 12 13.8333H3.33332V3.83333Z" fill="white"/>
<path fill-rule="evenodd" clip-rule="evenodd" d="M12.6667 3.16667H4.66667V12.5H12.6667V3.16667ZM4.66667 2.5C4.29848 2.5 4 2.79848 4 3.16667V12.5C4 12.8682 4.29848 13.1667 4.66667 13.1667H12.6667C13.0349 13.1667 13.3333 12.8682 13.3333 12.5V3.16667C13.3333 2.79848 13.0349 2.5 12.6667 2.5H4.66667Z" fill="white"/>
</svg>
