<svg width="13" height="12" viewBox="0 0 13 12" fill="none" xmlns="http://www.w3.org/2000/svg">
<g clip-path="url(#clip0)">
<path fill-rule="evenodd" clip-rule="evenodd" d="M7.5093 3.74755C7.22453 3.46098 7.22453 2.99826 7.5093 2.71169L7.67853 2.54139C8.06032 2.15718 8.6819 2.15718 9.06369 2.54139L12.5006 5.99999C12.5006 6 12.5006 6.00001 12.5006 6.00002C12.5006 6.00002 12.5006 6.00004 12.5006 6.00004C12.5006 6.00005 12.5006 6.00006 12.5006 6.00007L9.06369 9.45867C8.6819 9.84288 8.06032 9.84288 7.67853 9.45867L7.50916 9.28823C7.22446 9.00174 7.22446 8.53914 7.50916 8.25265C7.96967 7.78922 7.64142 7.00027 6.98809 7.00027H1.49944C0.947151 7.00027 0.499435 6.55256 0.499435 6.00027C0.499435 5.44799 0.947151 5.00027 1.49944 5.00027H6.98809C7.6416 5.00027 7.96994 4.21111 7.5093 3.74755Z" fill="white"/>
</g>
<defs>
<clipPath id="clip0">
<rect width="12.0011" height="11.9934" fill="white" transform="translate(0.499435 0.0032959)"/>
</clipPath>
</defs>
</svg>
