<svg width="25" height="25" viewBox="0 0 25 25" fill="none" xmlns="http://www.w3.org/2000/svg">
<path fill-rule="evenodd" clip-rule="evenodd" d="M12.0176 8.5C12.0176 9.60457 11.1221 10.5 10.0176 10.5C8.91301 10.5 8.01758 9.60457 8.01758 8.5C8.01758 7.39543 8.91301 6.5 10.0176 6.5C11.1221 6.5 12.0176 7.39543 12.0176 8.5ZM10.0176 9.5C10.5699 9.5 11.0176 9.05229 11.0176 8.5C11.0176 7.94772 10.5699 7.5 10.0176 7.5C9.46529 7.5 9.01758 7.94772 9.01758 8.5C9.01758 9.05229 9.46529 9.5 10.0176 9.5Z" fill="white"/>
<path fill-rule="evenodd" clip-rule="evenodd" d="M16.5176 10C16.5176 11.6149 15.9286 13.0923 14.9538 14.2291L15.9355 15.2107C16.4561 14.9757 17.0898 15.0722 17.5176 15.5L21.0176 19C21.5699 19.5523 21.5699 20.4477 21.0176 21C20.4653 21.5523 19.5699 21.5523 19.0176 21L15.5176 17.5C15.0898 17.0722 14.9934 16.4384 15.2283 15.9178L14.2467 14.9362C13.1099 15.911 11.6325 16.5 10.0176 16.5C6.42773 16.5 3.51758 13.5899 3.51758 10C3.51758 6.41015 6.42773 3.5 10.0176 3.5C13.6074 3.5 16.5176 6.41015 16.5176 10ZM13.9467 13.8487C14.9184 12.8567 15.5176 11.4983 15.5176 10C15.5176 6.96243 13.0551 4.5 10.0176 4.5C6.98001 4.5 4.51758 6.96243 4.51758 10C4.51758 11.4983 5.11672 12.8567 6.08848 13.8487C6.38594 12.505 7.5844 11.5 9.01758 11.5H11.0176C12.4508 11.5 13.6492 12.505 13.9467 13.8487ZM13.0176 14.6105V14.5C13.0176 13.3954 12.1221 12.5 11.0176 12.5H9.01758C7.91301 12.5 7.01758 13.3954 7.01758 14.5V14.6105C7.88036 15.1731 8.91079 15.5 10.0176 15.5C11.1244 15.5 12.1548 15.1731 13.0176 14.6105ZM16.8105 16.2071L20.3105 19.7071C20.4722 19.8689 20.4722 20.1311 20.3105 20.2929C20.1487 20.4547 19.8865 20.4547 19.7247 20.2929L16.2247 16.7929C16.0629 16.6311 16.0629 16.3688 16.2247 16.2071C16.3865 16.0453 16.6487 16.0453 16.8105 16.2071Z" fill="white"/>
</svg>
