<svg width="25" height="25" viewBox="0 0 25 25" fill="none" xmlns="http://www.w3.org/2000/svg">
<path fill-rule="evenodd" clip-rule="evenodd" d="M12.8849 10.499L13.2863 7.28764C13.3829 6.51485 13.1051 5.74692 12.5469 5.21566L12.1999 6.3725C11.6768 8.11611 10.7291 9.70264 9.44195 10.9898L8.51758 11.9142V18.5H18.6978L20.0585 11.6988C20.1824 11.0798 19.7094 10.5028 19.0787 10.5026C17.2995 10.5019 15.0289 10.5009 14.0167 10.5L12.8849 10.499ZM7.51758 11.5L8.73484 10.2827C9.90502 9.11256 10.7665 7.67025 11.242 6.08515L11.6512 4.72123C11.8265 4.13706 12.5369 3.91549 13.0132 4.29649C13.9479 5.04426 14.4271 6.2239 14.2786 7.41168L14.0176 9.5C14.2794 9.50023 14.6253 9.50047 15.0253 9.50071C16.1712 9.50139 17.7601 9.50206 19.0791 9.50256C20.341 9.50304 21.2867 10.6576 21.0391 11.895L19.6784 18.6962C19.5849 19.1636 19.1745 19.5 18.6978 19.5H8.51758C7.96529 19.5 7.51758 19.0523 7.51758 18.5V11.5Z" fill="white"/>
<path fill-rule="evenodd" clip-rule="evenodd" d="M5.51758 12.5H4.51758L4.51758 18.5H5.51758V12.5ZM4.51758 11.5C3.96529 11.5 3.51758 11.9477 3.51758 12.5V18.5C3.51758 19.0523 3.96529 19.5 4.51758 19.5H5.51758C6.06986 19.5 6.51758 19.0523 6.51758 18.5V12.5C6.51758 11.9477 6.06986 11.5 5.51758 11.5H4.51758Z" fill="white"/>
</svg>
