<svg width="16" height="16" viewBox="0 0 16 16" fill="none" xmlns="http://www.w3.org/2000/svg">
<path d="M8.00001 1C6.54186 1.00177 5.14394 1.5818 4.11288 2.61287C3.08181 3.64394 2.50178 5.04185 2.50001 6.5C2.49828 7.69163 2.88758 8.85092 3.60816 9.8C3.60816 9.8 3.75816 9.99725 3.78226 10.0259L8.00001 15L12.2195 10.0237C12.2417 9.99705 12.3919 9.7998 12.3919 9.7998L12.3926 9.7986C13.1128 8.84987 13.5018 7.69109 13.5 6.5C13.4982 5.04185 12.9182 3.64394 11.8871 2.61287C10.8561 1.5818 9.45815 1.00177 8.00001 1Z" fill="#65676A"/>
<path d="M8 8C9.10457 8 10 7.10457 10 6C10 4.89543 9.10457 4 8 4C6.89543 4 6 4.89543 6 6C6 7.10457 6.89543 8 8 8Z" fill="white"/>
</svg>
