<svg width="42" height="35" viewBox="0 0 42 35" fill="none" xmlns="http://www.w3.org/2000/svg">
<path d="M28.2098 0H38.5078C40.506 0 41.7558 2.16287 40.753 3.89167L23.5921 33.5582C22.6043 35.272 20.1346 35.287 19.1167 33.5881L13.8779 24.8019C13.399 23.9936 13.3915 22.9908 13.863 22.175L25.9646 1.28725C26.4286 0.493943 27.2818 0 28.2098 0Z" fill="#44E0B7"/>
<path d="M7.87597 20.2212C11.7323 20.2212 14.8585 17.095 14.8585 13.2387C14.8585 9.3823 11.7323 6.2561 7.87597 6.2561C4.01961 6.2561 0.89345 9.3823 0.89345 13.2387C0.89345 17.095 4.01961 20.2212 7.87597 20.2212Z" fill="#5132A2"/>
</svg>
