<svg width="197" height="27" viewBox="0 0 197 27" fill="none" xmlns="http://www.w3.org/2000/svg">
<path d="M49.6726 21.5175H46.6003V20.2594C45.331 21.1973 43.91 21.6635 42.3486 21.6635C40.3267 21.6635 38.6024 20.9333 37.1702 19.4787C35.738 18.0296 35.0247 16.2773 35.0247 14.2216C35.0247 12.166 35.738 10.4136 37.1702 8.96455C38.6024 7.50987 40.3267 6.77972 42.3486 6.77972C43.91 6.77972 45.3253 7.2459 46.6003 8.17262V6.92575H49.6726V21.5175ZM42.3542 18.5913C43.5169 18.5913 44.5222 18.17 45.3591 17.3219C46.1903 16.4682 46.6059 15.4348 46.6059 14.2216C46.6059 13.0141 46.1903 11.9806 45.3591 11.1213C44.5222 10.2732 43.5169 9.85196 42.3542 9.85196C41.1804 9.85196 40.175 10.2732 39.3382 11.1213C38.5182 11.975 38.1081 13.0084 38.1081 14.2216C38.1081 15.4292 38.5182 16.4626 39.3382 17.3219C40.1694 18.1644 41.1748 18.5913 42.3542 18.5913Z" fill="white"/>
<path d="M64.6581 21.5173H61.6533V20.5232C60.603 21.2758 59.4572 21.6465 58.2104 21.6465C56.4356 21.6465 54.9191 20.9388 53.6554 19.5178C52.4029 18.0856 51.7739 16.367 51.7739 14.3562V6.9256H54.7674V14.3506C54.7674 15.5357 55.1044 16.5411 55.7896 17.3836C56.458 18.2204 57.2668 18.6416 58.2104 18.6416C59.1652 18.6416 59.9739 18.2204 60.6479 17.3836C61.3163 16.5523 61.6533 15.547 61.6533 14.3675V6.9256H64.6581V21.5173Z" fill="white"/>
<path d="M70.9317 6.92494H72.9031V9.92978H70.9317V21.5166H67.9268V9.92978H65.9667V6.92494H67.9268V2.1846H70.9317V6.92494Z" fill="white"/>
<path d="M81.0701 6.77972C83.0808 6.77972 84.8108 7.50987 86.2486 8.96455C87.6808 10.4136 88.3941 12.166 88.3941 14.2216C88.3941 16.2773 87.6808 18.0296 86.2486 19.4787C84.8108 20.9333 83.0864 21.6635 81.0701 21.6635C79.0482 21.6635 77.3239 20.9333 75.8917 19.4787C74.4595 18.0296 73.7462 16.2773 73.7462 14.2216C73.7462 12.166 74.4595 10.4136 75.8917 8.96455C77.3239 7.50987 79.0482 6.77972 81.0701 6.77972ZM81.0701 18.5913C82.2327 18.5913 83.2381 18.17 84.075 17.3219C84.9062 16.4682 85.3218 15.4348 85.3218 14.2216C85.3218 13.0141 84.9062 11.9806 84.075 11.1213C83.2381 10.2732 82.2327 9.85196 81.0701 9.85196C79.8963 9.85196 78.8909 10.2732 78.054 11.1213C77.234 11.975 76.8241 13.0084 76.8241 14.2216C76.8241 15.4292 77.234 16.4626 78.054 17.3219C78.8909 18.1644 79.8963 18.5913 81.0701 18.5913Z" fill="white"/>
<path d="M109.336 21.5175H106.264V20.2594C104.995 21.1973 103.574 21.6635 102.012 21.6635C99.9905 21.6635 98.2662 20.9333 96.834 19.4787C95.4018 18.0296 94.6885 16.2773 94.6885 14.2216C94.6885 12.166 95.4018 10.4136 96.834 8.96455C98.2662 7.50987 99.9905 6.77972 102.012 6.77972C103.574 6.77972 104.989 7.2459 106.264 8.17262V6.92575H109.336V21.5175ZM102.018 18.5913C103.181 18.5913 104.186 18.17 105.023 17.3219C105.854 16.4682 106.27 15.4348 106.27 14.2216C106.27 13.0141 105.854 11.9806 105.023 11.1213C104.186 10.2732 103.181 9.85196 102.018 9.85196C100.844 9.85196 99.8389 10.2732 99.002 11.1213C98.182 11.975 97.7719 13.0084 97.7719 14.2216C97.7719 15.4292 98.182 16.4626 99.002 17.3219C99.8389 18.1644 100.844 18.5913 102.018 18.5913Z" fill="white"/>
<path d="M118.762 6.72992C120.772 6.72992 122.497 7.46007 123.94 8.92598C125.372 10.375 126.086 12.1218 126.086 14.1662C126.086 16.2218 125.372 17.9742 123.94 19.4232C122.502 20.8779 120.778 21.6081 118.762 21.6081C117.189 21.6081 115.768 21.1419 114.499 20.2039V26.4158H111.438V6.9265H114.499V8.1172C115.768 7.19047 117.189 6.72992 118.762 6.72992ZM118.762 18.5527C119.924 18.5527 120.924 18.1258 121.755 17.2665C122.592 16.4128 123.013 15.3794 123.013 14.1662C123.013 12.9643 122.592 11.9364 121.755 11.0827C120.924 10.229 119.93 9.79654 118.762 9.79654C117.577 9.79654 116.571 10.2234 115.746 11.0827C114.914 11.9364 114.499 12.9699 114.499 14.1662C114.499 15.3737 114.914 16.4072 115.746 17.2665C116.571 18.1202 117.582 18.5527 118.762 18.5527Z" fill="white"/>
<path d="M135.178 6.72992C137.189 6.72992 138.913 7.46007 140.357 8.92598C141.789 10.375 142.502 12.1218 142.502 14.1662C142.502 16.2218 141.789 17.9742 140.357 19.4232C138.919 20.8779 137.195 21.6081 135.178 21.6081C133.606 21.6081 132.185 21.1419 130.915 20.2039V26.4158H127.854V6.9265H130.915V8.1172C132.185 7.19047 133.606 6.72992 135.178 6.72992ZM135.178 18.5527C136.341 18.5527 137.341 18.1258 138.172 17.2665C139.009 16.4128 139.43 15.3794 139.43 14.1662C139.43 12.9643 139.009 11.9364 138.172 11.0827C137.341 10.229 136.346 9.79654 135.178 9.79654C133.993 9.79654 132.988 10.2234 132.162 11.0827C131.331 11.9364 130.915 12.9699 130.915 14.1662C130.915 15.3737 131.331 16.4072 132.162 17.2665C132.988 18.1202 133.993 18.5527 135.178 18.5527Z" fill="white"/>
<path d="M147.276 8.14438C148.399 7.32999 149.635 6.9256 150.994 6.9256H152.505V9.93043H150.994C149.971 9.93043 149.09 10.3517 148.36 11.1885C147.635 12.0254 147.276 13.0308 147.276 14.2046V21.5117H144.271V6.9256H147.276V8.14438Z" fill="white"/>
<path d="M160.273 6.77972C162.283 6.77972 164.013 7.50987 165.451 8.96455C166.883 10.4136 167.597 12.166 167.597 14.2216C167.597 16.2773 166.883 18.0296 165.451 19.4787C164.013 20.9333 162.289 21.6635 160.273 21.6635C158.251 21.6635 156.526 20.9333 155.094 19.4787C153.662 18.0296 152.949 16.2773 152.949 14.2216C152.949 12.166 153.662 10.4136 155.094 8.96455C156.526 7.50987 158.251 6.77972 160.273 6.77972ZM160.273 18.5913C161.435 18.5913 162.441 18.17 163.277 17.3219C164.109 16.4682 164.524 15.4348 164.524 14.2216C164.524 13.0141 164.109 11.9806 163.277 11.1213C162.441 10.2732 161.435 9.85196 160.273 9.85196C159.099 9.85196 158.093 10.2732 157.256 11.1213C156.436 11.975 156.027 13.0084 156.027 14.2216C156.027 15.4292 156.436 16.4626 157.256 17.3219C158.093 18.1644 159.099 18.5913 160.273 18.5913Z" fill="white"/>
<path d="M173.96 21.5173L167.709 6.9256H170.978L174.735 15.6874L178.481 6.9256H181.75L175.516 21.5173H173.96Z" fill="white"/>
<path d="M195.271 18.3666C194.664 19.3046 193.867 20.0572 192.889 20.6301C191.749 21.3209 190.519 21.6635 189.194 21.6635C187.172 21.6635 185.447 20.9333 184.015 19.4787C182.583 18.0296 181.87 16.2773 181.87 14.2216C181.87 12.166 182.583 10.4136 184.015 8.96455C185.447 7.50987 187.172 6.77972 189.194 6.77972C191.204 6.77972 192.934 7.50987 194.372 8.96455C195.804 10.4136 196.518 12.166 196.518 14.2216V15.4797H185.212C185.459 16.4401 185.97 17.2152 186.745 17.7993C187.475 18.3273 188.295 18.5913 189.194 18.5913C190.665 18.5913 191.805 18.0015 192.609 16.8277L195.271 18.3666ZM193.181 12.6827C192.873 11.8458 192.361 11.1662 191.648 10.6439C190.918 10.1159 190.098 9.85196 189.199 9.85196C188.301 9.85196 187.481 10.1159 186.75 10.6439C186.037 11.1662 185.526 11.8458 185.217 12.6827H193.181Z" fill="white"/>
<path d="M21.0177 0H28.7461C30.2457 0 31.1836 1.62317 30.431 2.92059L17.5523 25.1845C16.8109 26.4706 14.9575 26.4819 14.1937 25.2069L10.2621 18.6131C9.90264 18.0065 9.89701 17.2539 10.2509 16.6417L19.3328 0.966041C19.681 0.37069 20.3213 0 21.0177 0Z" fill="#44E0B7"/>
<path d="M5.75776 15.1752C8.65185 15.1752 10.9979 12.8291 10.9979 9.93497C10.9979 7.04089 8.65185 4.69476 5.75776 4.69476C2.86368 4.69476 0.517578 7.04089 0.517578 9.93497C0.517578 12.8291 2.86368 15.1752 5.75776 15.1752Z" fill="white"/>
</svg>
