<svg width="49" height="48" viewBox="0 0 49 48" fill="none" xmlns="http://www.w3.org/2000/svg">
<circle cx="24.5176" cy="24" r="24" fill="white"/>
<path d="M29.2374 12.8566H36.5101C37.9213 12.8566 38.8039 14.384 38.0957 15.605L25.9763 36.5562C25.2786 37.7666 23.5344 37.7771 22.8156 36.5774L19.1159 30.3723C18.7776 29.8015 18.7723 29.0933 19.1053 28.5172L27.6518 13.7657C27.9795 13.2054 28.582 12.8566 29.2374 12.8566Z" fill="#44E0B7"/>
<path d="M14.8771 27.1371C17.6006 27.1371 19.8083 24.9293 19.8083 22.2058C19.8083 19.4823 17.6006 17.2745 14.8771 17.2745C12.1536 17.2745 9.94586 19.4823 9.94586 22.2058C9.94586 24.9293 12.1536 27.1371 14.8771 27.1371Z" fill="#200A52"/>
</svg>
