<svg width="25" height="25" viewBox="0 0 25 25" fill="none" xmlns="http://www.w3.org/2000/svg">
<path fill-rule="evenodd" clip-rule="evenodd" d="M11.5176 17.5H6.51758V16.5H11.5176V17.5Z" fill="white"/>
<path d="M13.5887 13.5H6.51758V14.5H12.5887L13.5887 13.5Z" fill="white"/>
<path d="M16.5176 10.5711V10.5H6.51758V11.5H15.5887L16.5176 10.5711Z" fill="white"/>
<path fill-rule="evenodd" clip-rule="evenodd" d="M15.5176 3.5L19.5176 7.5V7.9737C19.1772 8.05848 18.8548 8.23392 18.5887 8.50003L18.5176 8.57111V8H16.0176C15.4653 8 15.0176 7.55228 15.0176 7V4.5H4.51758V20.5H18.5176V15.6422L19.5176 14.6422V20.5C19.5176 21.0523 19.0699 21.5 18.5176 21.5H4.51758C3.96529 21.5 3.51758 21.0523 3.51758 20.5V4.5C3.51758 3.94772 3.96529 3.5 4.51758 3.5H15.5176ZM16.0176 5.41421L17.6034 7H16.0176V5.41421Z" fill="white"/>
<path fill-rule="evenodd" clip-rule="evenodd" d="M18.9422 9.56066C19.528 8.97488 20.4777 8.97488 21.0635 9.56066C21.6493 10.1464 21.6493 11.0962 21.0635 11.682L15.0531 17.6924L12.5782 18.0459L12.9318 15.5711L18.9422 9.56066ZM14.5817 16.7496L13.7568 16.8674L13.8746 16.0425L18.5887 11.3284L19.2958 12.0355L14.5817 16.7496ZM20.0029 11.3284L19.2958 10.6213L19.6493 10.2678C19.8446 10.0725 20.1612 10.0725 20.3564 10.2678C20.5517 10.463 20.5517 10.7796 20.3564 10.9749L20.0029 11.3284Z" fill="white"/>
</svg>
