<svg width="25" height="25" viewBox="0 0 25 25" fill="none" xmlns="http://www.w3.org/2000/svg">
<path d="M13.642 12.4039C13.9238 12.4668 14.2168 12.5 14.5176 12.5C16.7267 12.5 18.5176 10.7091 18.5176 8.5C18.5176 6.29086 16.7267 4.5 14.5176 4.5C14.2168 4.5 13.9238 4.5332 13.642 4.59613C13.9704 4.85936 14.265 5.16319 14.518 5.5C16.1747 5.5002 17.5176 6.84327 17.5176 8.5C17.5176 10.1567 16.1747 11.4998 14.518 11.5C14.265 11.8368 13.9704 12.1406 13.642 12.4039Z" fill="white"/>
<path d="M17.5803 13.7489C18.8629 13.9551 19.9618 14.2581 20.7949 14.5351C21.8732 14.8937 22.5176 15.9321 22.5176 17.0684V19.5C22.5176 20.0523 22.0699 20.5 21.5176 20.5H19.5176V19.5H21.5176V17.0684C21.5176 16.2959 21.0889 15.6867 20.4794 15.484C20.104 15.3592 19.6724 15.229 19.1928 15.1058C18.8936 14.5267 18.3944 14.049 17.7241 13.8013C17.6774 13.7841 17.6295 13.7666 17.5803 13.7489Z" fill="white"/>
<path fill-rule="evenodd" clip-rule="evenodd" d="M10.5176 11.5C12.1744 11.5 13.5176 10.1569 13.5176 8.5C13.5176 6.84315 12.1744 5.5 10.5176 5.5C8.86072 5.5 7.51758 6.84315 7.51758 8.5C7.51758 10.1569 8.86072 11.5 10.5176 11.5ZM14.5176 8.5C14.5176 10.7091 12.7267 12.5 10.5176 12.5C8.30844 12.5 6.51758 10.7091 6.51758 8.5C6.51758 6.29086 8.30844 4.5 10.5176 4.5C12.7267 4.5 14.5176 6.29086 14.5176 8.5Z" fill="white"/>
<path fill-rule="evenodd" clip-rule="evenodd" d="M17.5176 19.5V17.0684C17.5176 16.2959 17.0889 15.6867 16.4794 15.484C15.1077 15.0279 12.9841 14.5 10.5176 14.5C8.05105 14.5 5.92743 15.0279 4.55578 15.484C3.94629 15.6867 3.51758 16.2959 3.51758 17.0684V19.5L17.5176 19.5ZM4.24023 14.5351C3.16197 14.8937 2.51758 15.9321 2.51758 17.0684V19.5C2.51758 20.0523 2.96529 20.5 3.51758 20.5H17.5176C18.0699 20.5 18.5176 20.0523 18.5176 19.5V17.0684C18.5176 15.9321 17.8732 14.8937 16.7949 14.5351C15.355 14.0563 13.1217 13.5 10.5176 13.5C7.91341 13.5 5.68011 14.0563 4.24023 14.5351Z" fill="white"/>
</svg>
