<svg width="24" height="25" viewBox="0 0 24 25" fill="none" xmlns="http://www.w3.org/2000/svg">
<path fill-rule="evenodd" clip-rule="evenodd" d="M14.4362 14.2291C15.411 13.0924 16 11.615 16 10C16 6.41015 13.0899 3.5 9.5 3.5C5.91015 3.5 3 6.41015 3 10C3 13.5899 5.91015 16.5 9.5 16.5C11.1149 16.5 12.5923 15.9111 13.7291 14.9362L14.7108 15.9179C14.4758 16.4385 14.5722 17.0722 15 17.5L18.5 21.0001C19.0523 21.5524 19.9477 21.5524 20.5 21.0001C21.0523 20.4478 21.0523 19.5524 20.5 19.0001L17 15.5C16.5722 15.0722 15.9385 14.9758 15.4179 15.2108L14.4362 14.2291ZM15 10C15 13.0376 12.5376 15.5 9.5 15.5C6.46243 15.5 4 13.0376 4 10C4 6.96243 6.46243 4.5 9.5 4.5C12.5376 4.5 15 6.96243 15 10ZM19.7929 19.7072L16.2929 16.2072C16.1312 16.0454 15.8689 16.0454 15.7071 16.2071C15.5454 16.3689 15.5454 16.6312 15.7071 16.7929L19.2071 20.293C19.3689 20.4547 19.6311 20.4547 19.7929 20.293C19.9547 20.1312 19.9547 19.8689 19.7929 19.7072Z" fill="#5230A2"/>
</svg>
