<svg width="25" height="25" viewBox="0 0 25 25" fill="none" xmlns="http://www.w3.org/2000/svg">
<path fill-rule="evenodd" clip-rule="evenodd" d="M18.5176 10.5H6.51758V13.5H18.5176V10.5ZM6.51758 9.5C5.96529 9.5 5.51758 9.94772 5.51758 10.5V13.5C5.51758 14.0523 5.96529 14.5 6.51758 14.5H18.5176C19.0699 14.5 19.5176 14.0523 19.5176 13.5V10.5C19.5176 9.94772 19.0699 9.5 18.5176 9.5H6.51758Z" fill="white"/>
<path fill-rule="evenodd" clip-rule="evenodd" d="M3.51758 4.5C3.51758 3.94772 3.96529 3.5 4.51758 3.5H20.5176C21.0699 3.5 21.5176 3.94772 21.5176 4.5V20.5C21.5176 21.0523 21.0699 21.5 20.5176 21.5H4.51758C3.96529 21.5 3.51758 21.0523 3.51758 20.5V4.5ZM4.51758 4.5H20.5176V7.5H4.51758V4.5ZM20.5176 8.5V20.5H4.51758V8.5H20.5176Z" fill="white"/>
<path fill-rule="evenodd" clip-rule="evenodd" d="M10.5176 16.5H6.51758L6.51758 18.5H10.5176V16.5ZM6.51758 15.5C5.96529 15.5 5.51758 15.9477 5.51758 16.5V18.5C5.51758 19.0523 5.96529 19.5 6.51758 19.5H10.5176C11.0699 19.5 11.5176 19.0523 11.5176 18.5V16.5C11.5176 15.9477 11.0699 15.5 10.5176 15.5H6.51758Z" fill="white"/>
<path fill-rule="evenodd" clip-rule="evenodd" d="M19.5176 17H12.5176V16H19.5176V17Z" fill="white"/>
<path fill-rule="evenodd" clip-rule="evenodd" d="M19.5176 19H12.5176V18H19.5176V19Z" fill="white"/>
<path fill-rule="evenodd" clip-rule="evenodd" d="M6.01758 6.5C6.29372 6.5 6.51758 6.27614 6.51758 6C6.51758 5.72386 6.29372 5.5 6.01758 5.5C5.74144 5.5 5.51758 5.72386 5.51758 6C5.51758 6.27614 5.74144 6.5 6.01758 6.5Z" fill="white"/>
<path fill-rule="evenodd" clip-rule="evenodd" d="M8.01758 6.5C8.29372 6.5 8.51758 6.27614 8.51758 6C8.51758 5.72386 8.29372 5.5 8.01758 5.5C7.74144 5.5 7.51758 5.72386 7.51758 6C7.51758 6.27614 7.74144 6.5 8.01758 6.5Z" fill="white"/>
<path fill-rule="evenodd" clip-rule="evenodd" d="M10.0176 6.5C10.2937 6.5 10.5176 6.27614 10.5176 6C10.5176 5.72386 10.2937 5.5 10.0176 5.5C9.74144 5.5 9.51758 5.72386 9.51758 6C9.51758 6.27614 9.74144 6.5 10.0176 6.5Z" fill="white"/>
</svg>
