<svg width="152" height="114" viewBox="0 0 152 114" fill="none" xmlns="http://www.w3.org/2000/svg">
<rect x="39.3175" y="2.41426" width="64.765" height="93.5217" rx="32.3825" fill="white" stroke="#320170" stroke-width="3.6"/>
<path d="M71.4299 28.2861C67.5233 37.8355 53.1631 39.1377 47.0138 38.5951V54.8725L48.099 63.2825L53.2535 72.7776L64.9189 81.1876V86.3421H60.0357L61.1209 89.5976L66.5467 95.0234L77.3983 96.3798L82.2815 89.5976L83.0953 86.3421H78.7547L79.5686 79.5599L87.436 74.4054L93.9469 66.538L96.6598 52.5666L96.1172 41.8506C81.3591 42.7187 73.5098 32.0842 71.4299 28.2861Z" fill="white"/>
<path d="M96.1161 41.8504C85.807 41.8504 71.1574 34.8749 71.1574 22.5889" stroke="#320170" stroke-width="3.6" stroke-linecap="round"/>
<path d="M40.2304 90.717C40.2304 87.7014 42.675 85.2568 45.6905 85.2568H55.9652H71.7H87.4348H97.7094C100.725 85.2568 103.17 87.7014 103.17 90.717V106.926C103.17 109.941 100.725 112.386 97.7094 112.386H45.6905C42.675 112.386 40.2304 109.941 40.2304 106.926V90.717Z" fill="white"/>
<path d="M96.1875 112H86.3125M76.4375 112H71.5H37.4602C34.4446 112 32 109.555 32 106.54V90.4602C32 87.4446 34.4446 85 37.4602 85H51.75H71.5H91.25H105.54C108.555 85 111 87.4446 111 90.4602V107.062C111 109.789 108.789 112 106.062 112V112" stroke="#320170" stroke-width="3.6" stroke-linecap="round"/>
<path d="M65.6047 35.0681C59.5137 41.1591 48.0518 39.1815 40.3747 36.7314" stroke="#320170" stroke-width="3.6" stroke-linecap="round"/>
<path d="M64.6476 86.0706V80.3736C58.7697 78.0224 47.0138 69.8475 47.0138 55.9575C47.0138 42.0675 47.0138 34.2543 47.0138 32.084C47.1043 29.8233 48.533 24.4879 53.5248 21.2324" stroke="#320170" stroke-width="3.6" stroke-linecap="round"/>
<path d="M78.4822 86.0706V80.3736C84.3602 78.0224 96.1161 69.8475 96.1161 55.9575C96.1161 42.0675 96.1161 34.2543 96.1161 32.084C96.0256 29.8233 94.5968 24.4879 89.6051 21.2324" stroke="#320170" stroke-width="3.6" stroke-linecap="round"/>
<path d="M71.565 93.4033C74.1414 93.4033 76.23 89.6107 76.23 84.9323V82H66.9V84.9323C66.9 89.6107 68.9886 93.4033 71.565 93.4033Z" fill="white"/>
<path d="M78.4449 85.4062C78.4449 89.2377 75.3561 92.3438 71.5459 92.3438C67.7357 92.3438 64.6469 89.2377 64.6469 85.4062" stroke="#320170" stroke-width="3.6"/>
<path fill-rule="evenodd" clip-rule="evenodd" d="M116 40.6342C116 47.1116 110.749 52.3622 104.272 52.3622C97.7947 52.3622 92.5441 47.1116 92.5441 40.6342C92.5441 34.1569 97.7947 28.9062 104.272 28.9062C110.749 28.9062 116 34.1569 116 40.6342Z" fill="white" stroke="#44E0B7" stroke-width="3.6" stroke-linecap="round"/>
<path d="M104.342 35.6465L104.342 45.7588" stroke="#44E0B7" stroke-width="3" stroke-linecap="round"/>
<path d="M109.398 40.7021L99.2856 40.7021" stroke="#44E0B7" stroke-width="3" stroke-linecap="round"/>
</svg>
