<svg width="114" height="114" viewBox="0 0 114 114" fill="none" xmlns="http://www.w3.org/2000/svg">
<g clip-path="url(#clip0)">
<path d="M54.3805 6.36133C55.6418 4.52059 58.3582 4.52059 59.6195 6.36134L67.2818 17.5439C69.0171 20.0764 72.1712 21.2245 75.1284 20.3999L88.186 16.7587C90.3354 16.1593 92.4164 17.9054 92.1994 20.1263L90.881 33.6179C90.5824 36.6733 92.2607 39.5802 95.056 40.8493L107.399 46.4533C109.431 47.3758 109.903 50.051 108.309 51.6128L98.6269 61.1005C96.4342 63.2491 95.8513 66.5547 97.1769 69.3237L103.03 81.5508C103.994 83.5634 102.635 85.916 100.411 86.0879L86.8951 87.1323C83.8342 87.3688 81.263 89.5264 80.4985 92.4997L77.123 105.629C76.5674 107.79 74.0147 108.719 72.1999 107.42L61.1751 99.5328C58.6783 97.7466 55.3217 97.7466 52.8249 99.5329L41.8001 107.42C39.9853 108.719 37.4326 107.79 36.877 105.629L33.5015 92.4997C32.737 89.5264 30.1658 87.3688 27.1049 87.1323L13.5894 86.0879C11.3646 85.916 10.0064 83.5634 10.9699 81.5508L16.8231 69.3237C18.1487 66.5547 17.5658 63.2491 15.3731 61.1005L5.69097 51.6127C4.0972 50.051 4.56891 47.3758 6.60071 46.4533L18.944 40.8493C21.7393 39.5802 23.4176 36.6733 23.119 33.6179L21.8006 20.1263C21.5836 17.9055 23.6646 16.1593 25.814 16.7587L38.8716 20.3999C41.8288 21.2245 44.9829 20.0764 46.7182 17.5439L54.3805 6.36133Z" stroke="#200A52" stroke-width="4"/>
<path d="M64.4454 42H75.2686C77.3688 42 78.6824 44.2961 77.6283 46.1314L59.5922 77.6255C58.5539 79.4449 55.9583 79.4608 54.8885 77.6572L49.3825 68.3298C48.8791 67.4717 48.8712 66.4071 49.3668 65.5411L62.0857 43.3665C62.5734 42.5244 63.47 42 64.4454 42Z" fill="#44E0B7"/>
<path d="M42.5 64C46.6422 64 50 60.6421 50 56.5C50 52.3579 46.6422 49 42.5 49C38.3578 49 35 52.3579 35 56.5C35 60.6421 38.3578 64 42.5 64Z" fill="#5132A2"/>
</g>
<defs>
<clipPath id="clip0">
<rect width="114" height="114" fill="white"/>
</clipPath>
</defs>
</svg>
