<svg width="126" height="114" viewBox="0 0 126 114" fill="none" xmlns="http://www.w3.org/2000/svg">
<mask id="path-1-outside-1" maskUnits="userSpaceOnUse" x="9.29785" y="8.29395" width="97" height="97" fill="black">
<rect fill="white" x="9.29785" y="8.29395" width="97" height="97"/>
<path d="M71.1637 9.29395C66.5278 9.29663 62.2111 11.4836 59.4397 15.0997C55.6135 11.5127 50.4861 9.30037 44.8401 9.30037C35.9641 9.30037 28.3368 14.7365 25.1063 22.4541H18.523C13.9947 22.4541 10.2979 26.151 10.2979 30.6793V96.4802C10.2979 101.008 13.9947 104.705 18.523 104.705H25.1031C27.3295 104.736 27.3295 101.382 25.1031 101.415H18.523C15.7605 101.415 13.5879 99.2426 13.5879 96.4802V91.5451H95.8391V96.4802C95.8391 99.2426 93.6664 101.415 90.904 101.415H31.6832C29.4567 101.384 29.4567 104.739 31.6832 104.705H90.904C95.4323 104.705 99.1291 101.008 99.1291 96.4802V78.2146C102.871 77.4452 105.703 74.1109 105.703 70.1502V56.9996C105.703 53.0389 102.871 49.7119 99.1291 48.9448V30.6793C99.1291 26.151 95.4323 22.4541 90.904 22.4541H85.8726C85.0496 15.0672 78.7654 9.28955 71.1637 9.29395ZM44.8401 12.5776C54.8534 12.5776 62.9354 20.6693 62.9354 30.6825C62.9354 40.6957 54.8534 48.7777 44.8401 48.7777C34.8269 48.7777 26.7481 40.6957 26.7481 30.6825C26.7481 20.6693 34.8269 12.5776 44.8401 12.5776ZM71.1637 12.584C76.9812 12.5806 81.7543 16.8618 82.5504 22.4541H64.574C63.8391 20.6985 62.8644 19.0721 61.7113 17.5897C63.8428 14.4867 67.3548 12.5862 71.1637 12.584ZM18.523 25.7442H24.0556C23.6779 27.3329 23.4548 28.9798 23.4548 30.6825C23.4548 32.3819 23.676 34.0283 24.0524 35.6143H13.5879V30.6793C13.5879 27.9169 15.7605 25.7442 18.523 25.7442ZM65.6278 25.7442H90.904C93.6664 25.7442 95.8391 27.9169 95.8391 30.6793V35.6143H84.3239C82.1003 35.5832 82.1003 38.9348 84.3239 38.9044H95.8391V48.7777H84.3303C82.1461 48.7777 80.0471 49.6488 78.5021 51.1939L71.9316 57.7643C68.7306 60.9653 68.7349 66.1957 71.9316 69.3983L78.5021 75.9784C80.0505 77.5297 82.155 78.3817 84.3303 78.3817H95.8391V88.2551H13.5879V38.9044H25.1031C28.3314 46.6269 35.9605 52.0678 44.8401 52.0678C53.7197 52.0678 61.3489 46.6269 64.5772 38.9044H77.7438C79.9674 38.9355 79.9674 35.5839 77.7438 35.6143H65.6278C66.0043 34.0282 66.2254 32.3821 66.2254 30.6825C66.2254 28.9799 66.0056 27.3328 65.6278 25.7442ZM31.6832 29.0342C31.4671 29.0342 31.2532 29.0768 31.0536 29.1595C30.8541 29.2421 30.6727 29.3633 30.52 29.516C30.3672 29.6688 30.246 29.8501 30.1634 30.0497C30.0807 30.2493 30.0381 30.4632 30.0381 30.6793C30.0381 30.8953 30.0807 31.1092 30.1634 31.3088C30.246 31.5084 30.3672 31.6897 30.52 31.8425C30.6727 31.9952 30.8541 32.1164 31.0536 32.1991C31.2532 32.2817 31.4671 32.3243 31.6832 32.3243C31.8992 32.3243 32.1131 32.2817 32.3127 32.1991C32.5123 32.1164 32.6936 31.9952 32.8464 31.8425C32.9991 31.6897 33.1203 31.5084 33.203 31.3088C33.2856 31.1092 33.3282 30.8953 33.3282 30.6793C33.3282 30.4632 33.2856 30.2493 33.203 30.0497C33.1203 29.8501 32.9991 29.6688 32.8464 29.516C32.6936 29.3633 32.5123 29.2421 32.3127 29.1595C32.1131 29.0768 31.8992 29.0342 31.6832 29.0342ZM58.0035 29.0342C57.7875 29.0342 57.5736 29.0768 57.374 29.1595C57.1744 29.2421 56.9931 29.3633 56.8403 29.516C56.6876 29.6688 56.5664 29.8501 56.4837 30.0497C56.4011 30.2493 56.3585 30.4632 56.3585 30.6793C56.3585 30.8953 56.4011 31.1092 56.4837 31.3088C56.5664 31.5084 56.6876 31.6897 56.8403 31.8425C56.9931 31.9952 57.1744 32.1164 57.374 32.1991C57.5736 32.2817 57.7875 32.3243 58.0035 32.3243C58.2196 32.3243 58.4335 32.2817 58.6331 32.1991C58.8326 32.1164 59.014 31.9952 59.1667 31.8425C59.3195 31.6897 59.4407 31.5084 59.5233 31.3088C59.606 31.1092 59.6486 30.8953 59.6486 30.6793C59.6486 30.4632 59.606 30.2493 59.5233 30.0497C59.4407 29.8501 59.3195 29.6688 59.1667 29.516C59.014 29.3633 58.8326 29.2421 58.6331 29.1595C58.4335 29.0768 58.2196 29.0342 58.0035 29.0342ZM84.3303 52.0678H97.4809C100.227 52.0678 102.426 54.2534 102.426 56.9996V70.1502C102.426 72.8964 100.227 75.0917 97.4809 75.0917H84.3303C83.0108 75.0917 81.7552 74.5812 80.8347 73.6587L74.2642 67.0786C72.3201 65.1309 72.3196 62.0287 74.2642 60.084L80.8347 53.5136C81.7634 52.5848 83.0162 52.0678 84.3303 52.0678Z"/>
</mask>
<path d="M71.1637 9.29395C66.5278 9.29663 62.2111 11.4836 59.4397 15.0997C55.6135 11.5127 50.4861 9.30037 44.8401 9.30037C35.9641 9.30037 28.3368 14.7365 25.1063 22.4541H18.523C13.9947 22.4541 10.2979 26.151 10.2979 30.6793V96.4802C10.2979 101.008 13.9947 104.705 18.523 104.705H25.1031C27.3295 104.736 27.3295 101.382 25.1031 101.415H18.523C15.7605 101.415 13.5879 99.2426 13.5879 96.4802V91.5451H95.8391V96.4802C95.8391 99.2426 93.6664 101.415 90.904 101.415H31.6832C29.4567 101.384 29.4567 104.739 31.6832 104.705H90.904C95.4323 104.705 99.1291 101.008 99.1291 96.4802V78.2146C102.871 77.4452 105.703 74.1109 105.703 70.1502V56.9996C105.703 53.0389 102.871 49.7119 99.1291 48.9448V30.6793C99.1291 26.151 95.4323 22.4541 90.904 22.4541H85.8726C85.0496 15.0672 78.7654 9.28955 71.1637 9.29395ZM44.8401 12.5776C54.8534 12.5776 62.9354 20.6693 62.9354 30.6825C62.9354 40.6957 54.8534 48.7777 44.8401 48.7777C34.8269 48.7777 26.7481 40.6957 26.7481 30.6825C26.7481 20.6693 34.8269 12.5776 44.8401 12.5776ZM71.1637 12.584C76.9812 12.5806 81.7543 16.8618 82.5504 22.4541H64.574C63.8391 20.6985 62.8644 19.0721 61.7113 17.5897C63.8428 14.4867 67.3548 12.5862 71.1637 12.584ZM18.523 25.7442H24.0556C23.6779 27.3329 23.4548 28.9798 23.4548 30.6825C23.4548 32.3819 23.676 34.0283 24.0524 35.6143H13.5879V30.6793C13.5879 27.9169 15.7605 25.7442 18.523 25.7442ZM65.6278 25.7442H90.904C93.6664 25.7442 95.8391 27.9169 95.8391 30.6793V35.6143H84.3239C82.1003 35.5832 82.1003 38.9348 84.3239 38.9044H95.8391V48.7777H84.3303C82.1461 48.7777 80.0471 49.6488 78.5021 51.1939L71.9316 57.7643C68.7306 60.9653 68.7349 66.1957 71.9316 69.3983L78.5021 75.9784C80.0505 77.5297 82.155 78.3817 84.3303 78.3817H95.8391V88.2551H13.5879V38.9044H25.1031C28.3314 46.6269 35.9605 52.0678 44.8401 52.0678C53.7197 52.0678 61.3489 46.6269 64.5772 38.9044H77.7438C79.9674 38.9355 79.9674 35.5839 77.7438 35.6143H65.6278C66.0043 34.0282 66.2254 32.3821 66.2254 30.6825C66.2254 28.9799 66.0056 27.3328 65.6278 25.7442ZM31.6832 29.0342C31.4671 29.0342 31.2532 29.0768 31.0536 29.1595C30.8541 29.2421 30.6727 29.3633 30.52 29.516C30.3672 29.6688 30.246 29.8501 30.1634 30.0497C30.0807 30.2493 30.0381 30.4632 30.0381 30.6793C30.0381 30.8953 30.0807 31.1092 30.1634 31.3088C30.246 31.5084 30.3672 31.6897 30.52 31.8425C30.6727 31.9952 30.8541 32.1164 31.0536 32.1991C31.2532 32.2817 31.4671 32.3243 31.6832 32.3243C31.8992 32.3243 32.1131 32.2817 32.3127 32.1991C32.5123 32.1164 32.6936 31.9952 32.8464 31.8425C32.9991 31.6897 33.1203 31.5084 33.203 31.3088C33.2856 31.1092 33.3282 30.8953 33.3282 30.6793C33.3282 30.4632 33.2856 30.2493 33.203 30.0497C33.1203 29.8501 32.9991 29.6688 32.8464 29.516C32.6936 29.3633 32.5123 29.2421 32.3127 29.1595C32.1131 29.0768 31.8992 29.0342 31.6832 29.0342ZM58.0035 29.0342C57.7875 29.0342 57.5736 29.0768 57.374 29.1595C57.1744 29.2421 56.9931 29.3633 56.8403 29.516C56.6876 29.6688 56.5664 29.8501 56.4837 30.0497C56.4011 30.2493 56.3585 30.4632 56.3585 30.6793C56.3585 30.8953 56.4011 31.1092 56.4837 31.3088C56.5664 31.5084 56.6876 31.6897 56.8403 31.8425C56.9931 31.9952 57.1744 32.1164 57.374 32.1991C57.5736 32.2817 57.7875 32.3243 58.0035 32.3243C58.2196 32.3243 58.4335 32.2817 58.6331 32.1991C58.8326 32.1164 59.014 31.9952 59.1667 31.8425C59.3195 31.6897 59.4407 31.5084 59.5233 31.3088C59.606 31.1092 59.6486 30.8953 59.6486 30.6793C59.6486 30.4632 59.606 30.2493 59.5233 30.0497C59.4407 29.8501 59.3195 29.6688 59.1667 29.516C59.014 29.3633 58.8326 29.2421 58.6331 29.1595C58.4335 29.0768 58.2196 29.0342 58.0035 29.0342ZM84.3303 52.0678H97.4809C100.227 52.0678 102.426 54.2534 102.426 56.9996V70.1502C102.426 72.8964 100.227 75.0917 97.4809 75.0917H84.3303C83.0108 75.0917 81.7552 74.5812 80.8347 73.6587L74.2642 67.0786C72.3201 65.1309 72.3196 62.0287 74.2642 60.084L80.8347 53.5136C81.7634 52.5848 83.0162 52.0678 84.3303 52.0678Z" fill="#200A52"/>
<path d="M71.1637 9.29395C66.5278 9.29663 62.2111 11.4836 59.4397 15.0997C55.6135 11.5127 50.4861 9.30037 44.8401 9.30037C35.9641 9.30037 28.3368 14.7365 25.1063 22.4541H18.523C13.9947 22.4541 10.2979 26.151 10.2979 30.6793V96.4802C10.2979 101.008 13.9947 104.705 18.523 104.705H25.1031C27.3295 104.736 27.3295 101.382 25.1031 101.415H18.523C15.7605 101.415 13.5879 99.2426 13.5879 96.4802V91.5451H95.8391V96.4802C95.8391 99.2426 93.6664 101.415 90.904 101.415H31.6832C29.4567 101.384 29.4567 104.739 31.6832 104.705H90.904C95.4323 104.705 99.1291 101.008 99.1291 96.4802V78.2146C102.871 77.4452 105.703 74.1109 105.703 70.1502V56.9996C105.703 53.0389 102.871 49.7119 99.1291 48.9448V30.6793C99.1291 26.151 95.4323 22.4541 90.904 22.4541H85.8726C85.0496 15.0672 78.7654 9.28955 71.1637 9.29395ZM44.8401 12.5776C54.8534 12.5776 62.9354 20.6693 62.9354 30.6825C62.9354 40.6957 54.8534 48.7777 44.8401 48.7777C34.8269 48.7777 26.7481 40.6957 26.7481 30.6825C26.7481 20.6693 34.8269 12.5776 44.8401 12.5776ZM71.1637 12.584C76.9812 12.5806 81.7543 16.8618 82.5504 22.4541H64.574C63.8391 20.6985 62.8644 19.0721 61.7113 17.5897C63.8428 14.4867 67.3548 12.5862 71.1637 12.584ZM18.523 25.7442H24.0556C23.6779 27.3329 23.4548 28.9798 23.4548 30.6825C23.4548 32.3819 23.676 34.0283 24.0524 35.6143H13.5879V30.6793C13.5879 27.9169 15.7605 25.7442 18.523 25.7442ZM65.6278 25.7442H90.904C93.6664 25.7442 95.8391 27.9169 95.8391 30.6793V35.6143H84.3239C82.1003 35.5832 82.1003 38.9348 84.3239 38.9044H95.8391V48.7777H84.3303C82.1461 48.7777 80.0471 49.6488 78.5021 51.1939L71.9316 57.7643C68.7306 60.9653 68.7349 66.1957 71.9316 69.3983L78.5021 75.9784C80.0505 77.5297 82.155 78.3817 84.3303 78.3817H95.8391V88.2551H13.5879V38.9044H25.1031C28.3314 46.6269 35.9605 52.0678 44.8401 52.0678C53.7197 52.0678 61.3489 46.6269 64.5772 38.9044H77.7438C79.9674 38.9355 79.9674 35.5839 77.7438 35.6143H65.6278C66.0043 34.0282 66.2254 32.3821 66.2254 30.6825C66.2254 28.9799 66.0056 27.3328 65.6278 25.7442ZM31.6832 29.0342C31.4671 29.0342 31.2532 29.0768 31.0536 29.1595C30.8541 29.2421 30.6727 29.3633 30.52 29.516C30.3672 29.6688 30.246 29.8501 30.1634 30.0497C30.0807 30.2493 30.0381 30.4632 30.0381 30.6793C30.0381 30.8953 30.0807 31.1092 30.1634 31.3088C30.246 31.5084 30.3672 31.6897 30.52 31.8425C30.6727 31.9952 30.8541 32.1164 31.0536 32.1991C31.2532 32.2817 31.4671 32.3243 31.6832 32.3243C31.8992 32.3243 32.1131 32.2817 32.3127 32.1991C32.5123 32.1164 32.6936 31.9952 32.8464 31.8425C32.9991 31.6897 33.1203 31.5084 33.203 31.3088C33.2856 31.1092 33.3282 30.8953 33.3282 30.6793C33.3282 30.4632 33.2856 30.2493 33.203 30.0497C33.1203 29.8501 32.9991 29.6688 32.8464 29.516C32.6936 29.3633 32.5123 29.2421 32.3127 29.1595C32.1131 29.0768 31.8992 29.0342 31.6832 29.0342ZM58.0035 29.0342C57.7875 29.0342 57.5736 29.0768 57.374 29.1595C57.1744 29.2421 56.9931 29.3633 56.8403 29.516C56.6876 29.6688 56.5664 29.8501 56.4837 30.0497C56.4011 30.2493 56.3585 30.4632 56.3585 30.6793C56.3585 30.8953 56.4011 31.1092 56.4837 31.3088C56.5664 31.5084 56.6876 31.6897 56.8403 31.8425C56.9931 31.9952 57.1744 32.1164 57.374 32.1991C57.5736 32.2817 57.7875 32.3243 58.0035 32.3243C58.2196 32.3243 58.4335 32.2817 58.6331 32.1991C58.8326 32.1164 59.014 31.9952 59.1667 31.8425C59.3195 31.6897 59.4407 31.5084 59.5233 31.3088C59.606 31.1092 59.6486 30.8953 59.6486 30.6793C59.6486 30.4632 59.606 30.2493 59.5233 30.0497C59.4407 29.8501 59.3195 29.6688 59.1667 29.516C59.014 29.3633 58.8326 29.2421 58.6331 29.1595C58.4335 29.0768 58.2196 29.0342 58.0035 29.0342ZM84.3303 52.0678H97.4809C100.227 52.0678 102.426 54.2534 102.426 56.9996V70.1502C102.426 72.8964 100.227 75.0917 97.4809 75.0917H84.3303C83.0108 75.0917 81.7552 74.5812 80.8347 73.6587L74.2642 67.0786C72.3201 65.1309 72.3196 62.0287 74.2642 60.084L80.8347 53.5136C81.7634 52.5848 83.0162 52.0678 84.3303 52.0678Z" stroke="#200A52" stroke-width="0.4" mask="url(#path-1-outside-1)"/>
<path d="M38.3752 32.4663L44.428 38.9304L51 32.3584" stroke="#44E0B7" stroke-width="3" stroke-linecap="round" stroke-linejoin="round"/>
<path d="M44.5276 22.6064L44.5276 36.9204" stroke="#44E0B7" stroke-width="3" stroke-linecap="round"/>
</svg>
